<svg enable-background="new 0 0 1000 1000" viewBox="0 0 1000 1000" xmlns="http://www.w3.org/2000/svg" xmlns:xlink="http://www.w3.org/1999/xlink"><filter id="a" color-interpolation-filters="sRGB"><feColorMatrix result="color1" type="hueRotate" values="180"/><feColorMatrix result="color2" values="-1 0 0 0 1 0 -1 0 0 1 0 0 -1 0 1 -0.21 -0.72 -0.07 2 0"/></filter><g filter="url(#a)"><path d="m767.3 308.1h-22.3v559.4h-73.4v-559.4h-122.6v559.4h-73.5v-559.4h-122.5v559.4h-73.6v-559.4h-46.8c-55.3 0-100.3-.8-100.3 0v584.5c0 53.8 44.9 97.4 100.3 97.4h534.6c55.3 0 100.2-43.6 100.2-97.4v-584.5c.1-4.1-44.8 0-100.1 0zm148.4-175.6h-219.7v-59.8c0-34.7-61.9-62.7-98-62.7h-196c-36.1 0-98 28.1-98 62.7v59.8h-219.6c-27.6 0-49.9 22-49.9 49s22.3 49 49.9 49h831.3c27.6 0 49.9-21.9 49.9-49s-22.4-49-49.9-49zm-317.7 0h-196v-24.5h196z"/></g></svg>