<svg enable-background="new 0 0 1000 1000" viewBox="0 0 1000 1000" xmlns="http://www.w3.org/2000/svg" xmlns:xlink="http://www.w3.org/1999/xlink"><filter id="a" color-interpolation-filters="sRGB"><feColorMatrix result="color1" type="hueRotate" values="180"/><feColorMatrix result="color2" values="-1 0 0 0 1 0 -1 0 0 1 0 0 -1 0 1 -0.21 -0.72 -0.07 2 0"/></filter><g filter="url(#a)"><path d="m984.1 122.3c-37.6-37.8-72.7-80.2-116.3-111.3-40-8.3-59.2 34.9-86.7 55.1 46.4 53.9 100.5 101.5 150.4 152.5 22.6-26.9 76.2-54.5 52.6-96.3zm-24.8 203.6c-31.7 31.8-64.5 62.8-95.1 95.8-.8 127.5.3 255-.4 382.6-.6 47-41.8 88.7-88.8 90.3-193.4.8-387 .8-580.4.1-52.2-1.4-94-51.4-89.9-102.7-.1-184.6-.1-369.1 0-553.5-4-51.1 38-100.3 89.6-102.1 128.1-1.7 256.3.1 384.3-.9 33.2-30 63.9-62.9 95.7-94.5-170.6 0-341-.9-511.6.5-79.6 1.4-151 71-152.4 151-.2 215.2-.8 430.3.4 645.5.3 77.5 66.1 144.7 142.4 152h670.2c72.3-12.7 134.3-75.8 135.2-150.9 2.2-171 .5-342.2.8-513.2zm-51.1-83.7c-50.2-50.5-100.8-100.7-151.6-150.7-111.2 110.4-222.6 220.5-333.2 331.5 50.1 50.4 100.4 100.6 151.3 150.3 111.3-110.2 222.5-220.7 333.5-331.1zm-567 412.4c68.1-18.5 104.4-30.2 172.5-48.5 18.2-5.8 30.3-9.3 39.7-13-48.2-45.9-103.6-102.5-151.7-148.8-20.3 70.1-40.3 140.2-60.5 210.3z"/></g></svg>