<svg enable-background="new 0 0 27.02 27.02" viewBox="0 0 27.02 27.02" xmlns="http://www.w3.org/2000/svg" xmlns:xlink="http://www.w3.org/1999/xlink"><filter id="a" color-interpolation-filters="sRGB"><feColorMatrix result="color1" type="hueRotate" values="180"/><feColorMatrix result="fbSourceGraphic" values="-1 0 0 0 1 0 -1 0 0 1 0 0 -1 0 1 -0.21 -0.72 -0.07 2 0"/><feColorMatrix in="fbSourceGraphic" result="fbSourceGraphicAlpha" values="0 0 0 -1 0 0 0 0 -1 0 0 0 0 -1 0 0 0 0 1 0"/><feColorMatrix in="fbSourceGraphic" result="color1" type="hueRotate" values="180"/><feColorMatrix result="color2" values="-1 0 0 0 1 0 -1 0 0 1 0 0 -1 0 1 -0.21 -0.72 -0.07 2 0"/></filter><g fill="#030104" filter="url(#a)"><path d="m3.674 24.876s-.024.604.566.604c.734 0 6.811-.008 6.811-.008l.01-5.581s-.096-.92.797-.92h2.826c1.056 0 .991.92.991.92l-.012 5.563h6.667c.749 0 .715-.752.715-.752v-10.289l-9.396-8.358-9.975 8.358c0 0 0 10.463 0 10.463z"/><path d="m0 13.635s.847 1.561 2.694 0l11.038-9.338 10.349 9.28c2.138 1.542 2.939 0 2.939 0l-13.288-12.037z"/><path d="m23.83 4.275h-2.662l.011 3.228 2.651 2.249z"/></g></svg>