<svg enable-background="new 0 0 1000 1000" viewBox="0 0 1000 1000" xmlns="http://www.w3.org/2000/svg"><path d="m173.6 365.4h-59.6c-57.3 0-104 46.7-104 104v413.2c0 57.3 46.7 104 104 104h59.6c57.3 0 104-46.7 104-104v-413.2c-.1-57.3-46.7-104-104-104zm14.9 517.2c0 8.4-6.6 15-15 15h-59.5c-8.4 0-15-6.6-15-15v-413.2c0-8.4 6.6-15 15-15h59.6c8.4 0 15 6.6 15 15v413.2z"/><path d="m973.6 580.7c-1.2-2.3-1.6-3.7-1.6-4.9l4.2-15.6c3.4-10.3 11.2-34.5 11.5-63.5 2.2-28.5-7.6-56.7-26.8-77.4s-46.5-32.6-74.9-32.6h-185.8c-3 0-12-8.5-12-21.2.1-7 7.3-29.2 12.6-45.4 12.1-37 28.7-87.7 31-142.6 2.2-53.3-11.1-95.4-39.6-125-23.9-24.9-58.1-39.1-94-39.1-13.5 0-32.6 2.1-49.4 13.5-24.2 18.5-31.8 40.2-33.5 46.4l-1.7 5.9v85.1c0 31.1-14.9 70.6-43 114.3-16.1 25-49.1 76.4-71 101.2l-8.4 7.4c-12.7 11.3-30.2 26.8-39.8 26.8h-44.4v526.2l23.1 12.7c2.5 1.4 62.7 33.9 150.6 33.9h292c22.2 0 77.6-4.4 112.8-44.8 14.8-16.9 30.8-46.3 27.2-91.9 2.6-2.8 6.1-6.1 8.7-8.7 21-20.4 60.1-58.3 42.5-116.5-3.2-10.5-2.1-12.2 6.1-25.7 13.3-21.8 35.6-58.3 3.6-118.5z"/></svg>