<?xml version="1.0" ?><svg id="Layer_1" style="enable-background:new 0 0 512 512;" version="1.1" viewBox="0 0 512 512" xml:space="preserve" xmlns="http://www.w3.org/2000/svg" xmlns:xlink="http://www.w3.org/1999/xlink"><g id="XMLID_2_"><path d="M439.6,211.4h-2.1h-363h-2.1c-8.9,0-16.1,7.2-16.1,16.1v6.4h18.2v237.8c0,4.3,3.5,7.7,7.7,7.7v16.2   c0,5.7,4.7,10.4,10.4,10.4h12.6c5.7,0,10.4-4.7,10.4-10.4v-16.2h280.7v16.2c0,5.7,4.7,10.4,10.4,10.4h12.6   c5.7,0,10.4-4.7,10.4-10.4v-16.2c4.3,0,7.7-3.5,7.7-7.7V233.8h18.2v-6.4C455.7,218.6,448.5,211.4,439.6,211.4z M248.7,430.6H91.6   v-187h157.1V430.6z M420.4,430.6H263.3v-187h157.1V430.6z" id="XMLID_17_"/><path d="M239.9,252.4H100.4v169.4h139.5V252.4z M224.5,339.5c0,1.1-0.9,2.1-2.1,2.1h-7.6c-1.1,0-2.1-0.9-2.1-2.1   v-17.1c0-1.1,0.9-2.1,2.1-2.1h7.6c1.1,0,2.1,0.9,2.1,2.1V339.5z" id="XMLID_14_"/><path d="M411.6,252.4H272.1v169.4h139.5V252.4z M299.3,339.5c0,1.1-0.9,2.1-2.1,2.1h-7.6c-1.1,0-2.1-0.9-2.1-2.1   v-17.1c0-1.1,0.9-2.1,2.1-2.1h7.6c1.1,0,2.1,0.9,2.1,2.1V339.5z" id="XMLID_11_"/><path d="M121.5,166.9h124.9v20.5h-12.4c-4.9,0-8.9,4-8.9,8.9v9.5h61.6v-9.5c0-4.9-4-8.9-8.9-8.9h-12.4v-20.5h124.9   c4.5,0,8.1-3.6,8.1-8.1V14.1c0-4.5-3.6-8.1-8.1-8.1H121.5c-4.5,0-8.1,3.6-8.1,8.1v144.7C113.4,163.3,117.1,166.9,121.5,166.9z    M310.7,163.5c-1.1,0-2-0.9-2-2c0-1.1,0.9-2,2-2s2,0.9,2,2C312.7,162.6,311.8,163.5,310.7,163.5z M320.2,163.5c-1.1,0-2-0.9-2-2   c0-1.1,0.9-2,2-2c1.1,0,2,0.9,2,2C322.2,162.6,321.3,163.5,320.2,163.5z M329.6,163.5c-1.1,0-2-0.9-2-2c0-1.1,0.9-2,2-2s2,0.9,2,2   C331.6,162.6,330.7,163.5,329.6,163.5z M339.1,163.5c-1.1,0-2-0.9-2-2c0-1.1,0.9-2,2-2c1.1,0,2,0.9,2,2   C341.1,162.6,340.2,163.5,339.1,163.5z M124.2,16.8h263.5v139.3H124.2V16.8z" id="XMLID_4_"/><rect height="117.7" id="XMLID_3_" width="241.9" x="135" y="27.6"/></g></svg>