<svg xmlns="http://www.w3.org/2000/svg" width="1000" height="1000" preserveAspectRatio="xMinYMin meet">
  <path d="M435.88 22.68l-.92 2.46-2.1 1.58 2.45.92 1.6 2.1.9-2.45 2.2-1.6-2.4-.9-1.6-2.2zm402.04 30.3l-.92 2.47-2.1 1.57 2.46.93 1.57 2.1.93-2.46 2.1-1.6-2.46-.9-1.58-2.2zm-638.4 6.06l-.94 2.47-2.1 1.6 2.46 1 1.58 2.1.92-2.4 2.1-1.6-2.46-.9-1.57-2.1zm470.72 40.4l-.93 2.47-2.1 1.6 2.5.9 1.6 2.2.9-2.4 2.1-1.6-2.4-.9-1.5-2.1zm-642.46 8.1l-.92 2.45-2.1 1.5 2.45.9 1.6 2.1.9-2.5 2.2-1.6-2.4-1-1.6-2.1zM945 137.84l-.93 2.45-2.1 1.5 2.46.9 1.58 2.1 1-2.5 2.1-1.6-2.4-1-1.5-2.1zM561.14 186.3l-.92 2.47-2.1 1.56 2.45.93 1.58 2.1.92-2.47 2.1-1.6-2.45-.9-1.58-2.1zm-387.7 3.54h-.23a38.4 37.38 0 0 0-36.8 29.2c-16.4 2.42-27.2 6.4-27.2 10.9 0 4.82 12.3 10.86 30.6 14.52a38.4 37.38 0 0 0 34.1 20.13 38.4 37.38 0 0 0 34-20.1c18.5-3.7 30.8-9.7 30.8-14.6 0-4.5-10.8-8.5-27.3-11a38.4 37.38 0 0 0-35.6-29.1h-.7a38.4 37.38 0 0 0-1.1-.1 38.4 37.38 0 0 0-.1 0h-.1zm149.3 28.8l-.92 2.45-2.1 1.6 2.46.9 1.57 2.1.93-2.5 2.1-1.6-2.46-1-1.58-2.1zm-110.87 4.2c7 1.25 11.18 2.84 11.18 4.58 0 1.74-4.23 3.34-11.27 4.58a38.4 37.38 0 0 0 .35-4.8 38.4 37.38 0 0 0-.1-2.7c-.04-.56-.1-1.1-.16-1.65zm-76.22.02a38.4 37.38 0 0 0-.3 4.35 38.4 37.38 0 0 0 .03.6l-.02.5h.04a38.4 37.38 0 0 0 .32 3.7c-7-1.2-11.18-2.8-11.18-4.5s4.17-3.3 11.1-4.5zM92.43 283.3l-.92 2.46-2.1 1.58 2.5.92 1.6 2.1.9-2.46 2.1-1.57-2.4-.93-1.5-2.1zm668.72 8.08l-.92 2.46-2.1 1.58 2.45.92 1.58 2.1.92-2.46 2.1-1.57-2.45-.9-1.58-2.1zm-367.7 52.53l-.92 2.5-2.1 1.6 2.46.9 1.5 2.1.9-2.4 2.1-1.5-2.5-.9-1.6-2.1zm503.05 60.7l-.9 2.5-2.1 1.6 2.5 1 1.58 2.1.92-2.5 2.1-1.6-2.46-.9-1.6-2.1zm-687.9 6.6l-.9 2.5-2.1 1.6 2.5.9 1.57 2.1.93-2.4 2.1-1.6-2.47-.9-1.57-2.1zM571.3 426l-15.6 15.65L574.9 431l-3.53-5.03zm-135.4 2.84l-3.5 5.07 19.2 10.6-15.67-15.6zm157.7 2.3c-2.2 0-4.5.25-7.2.74-10.82 1.98-28.2 19.9-28.2 19.9s3.9-1.8 8.86-3.96a30.36 34.64 0 0 0-12.4 27.93 30.36 34.64 0 0 0 7.8 23.14 23.34 17.04 0 0 0 22.04 11.5 23.34 17.04 0 0 0 .26 0 30.36 34.64 0 0 0 .25 0 30.36 34.64 0 0 0 .9-.1 23.34 17.04 0 0 0 1.3-.1 30.36 34.64 0 0 0 1.6-.2 23.34 17.04 0 0 0 2.1-.4 30.36 34.64 0 0 0 .3-.1 23.34 17.04 0 0 0 12.7-6.8 30.36 34.64 0 0 0 11.6-27.2 30.36 34.64 0 0 0-30.3-34.6c6.1-1.5 11.7-1.4 17.7.6 8.1 2.7 16 7.5 20.9 15.3 4.9 7.8 9.6 31.9 9.6 31.9s2.2-17.2 10.9-30.6c-10.9-1.9-16.1-8.8-15.6-23.1-.1.8-1.1 3.8-12.9.5-10.1-2.9-15.3-4.8-21.8-4.7zm-180 2.8c-6.52-.05-11.7 1.85-21.8 4.7-11.8 3.33-12.84.28-12.93-.53.47 14.3-4.72 21.2-15.63 23.1 8.72 13.4 10.86 30.6 10.86 30.6s4.6-24 9.52-31.8c4.9-7.8 12.8-12.7 20.9-15.4 6-1.9 11.55-2 17.63-.5a30.36 34.64 0 0 0-30.2 34.6 30.36 34.64 0 0 0 11.57 27.2 23.34 17.04 0 0 0 12.72 6.8 30.36 34.64 0 0 0 .23.1 23.34 17.04 0 0 0 2.07.4 30.36 34.64 0 0 0 1.56.2 23.34 17.04 0 0 0 1.34.1 30.36 34.64 0 0 0 .86 0 30.36 34.64 0 0 0 .2 0 23.34 17.04 0 0 0 .3 0 23.34 17.04 0 0 0 22.05-11.5 30.36 34.64 0 0 0 7.8-23.1 30.36 34.64 0 0 0-12.37-27.9c4.9 2.1 8.78 3.9 8.78 3.9S431.7 437 420.86 435c-2.7-.5-5.05-.7-7.23-.74zm345.6 87.8l-.93 2.5-2.1 1.57 2.47 1 1.57 2.1.9-2.5 2.1-1.6-2.4-.9-1.5-2.1zm-666.7 18.2l-.93 2.48-2.1 1.58 2.47.92 1.57 2.1.9-2.46 2.1-1.55-2.4-.9-1.5-2.1zm488.9 42.44l-.9 2.47-2.13 1.56 2.5 1 1.56 2.1.93-2.5 2.1-1.5-2.46-.9-1.6-2.1zm278.8 26.27l-.9 2.45-2.1 1.58 2.44.93 1.56 2.1.92-2.4 2.1-1.6-2.47-.9-1.58-2.1zm-587.9 6.05l-.93 2.46-2.1 1.6 2.48.9 1.6 2.1.9-2.46 2.1-1.57-2.45-.92-1.57-2.1zm632.8 15.62c-88.16 0-159.6 70.1-159.6 156.56 0 15.12 2.2 29.75 6.27 43.58-9.77.68-18.82 3.94-26.5 9.08-5.14-14.75-19.46-25.38-36.34-25.38-16.33 0-30.27 9.95-35.82 23.94-5.8-8.35-15.6-13.84-26.8-13.84-10.6 0-20.1 5.02-26 12.75-5-14.4-19.9-24.9-37.6-24.9-16.3 0-30.4 9-36.3 21.7-6.7-5.9-15.5-9.5-25.2-9.5-1.5 0-2.9.1-4.3.3-7.4-5.1-17.7-8.3-28.9-8.3-16.3 0-30.4 6.7-37.2 16.4-1.4-.1-2.8-.2-4.2-.2-10.6 0-20.2 4.5-27.2 11.6-5.9-7-15-11.6-25.3-11.6-16.2 0-29.6 11.2-31.9 25.7-3.6-.9-7.5-1.4-11.5-1.4-8.4 0-16.2 2.2-22.9 6.1H302c-6.9-12-20.1-20.2-35.28-20.2-8.3 0-16 2.5-22.4 6.6-6.37-10-17.05-16.7-29.15-16.7-9.4 0-17.95 4-24.3 10.5-8.65-6.5-19.93-10.5-32.27-10.5-15.73 0-29.72 6.5-38.8 16.5-2.84-.2-5.72-.3-8.68-.3-12.67 0-24.55 1.9-34.75 5.3-9.42-9.1-22.18-15.3-36.5-17-3-18.6-18.37-32.7-36.87-32.7-1 0-2.02.1-3.02.2v40.9c2.3-.4 4.65-.6 7.06-.6 18.5 0 33.86 14.2 36.85 32.8 14.3 1.7 27.1 7.8 36.5 17 10.2-3.3 22-5.2 34.7-5.2 2.9 0 5.8.1 8.7.3 9-10 23-16.5 38.8-16.5 12.3 0 23.6 4 32.3 10.5 6.3-6.5 14.8-10.5 24.2-10.5 12.1 0 22.8 6.6 29.1 16.7 6.4-4.1 14.1-6.6 22.3-6.6 15.1 0 28.3 8.2 35.2 20.2h5.4c6.6-3.8 14.5-6 22.9-6 4 0 7.8.5 11.4 1.5 2.4-14.5 15.8-25.7 32-25.7 10.3 0 19.4 4.6 25.3 11.6 6.9-7.1 16.5-11.6 27.1-11.6 1.4 0 2.8.1 4.2.3 6.7-9.7 20.8-16.4 37.2-16.4 11.2 0 21.4 3.2 28.9 8.4 1.4-.1 2.9-.2 4.3-.2 9.7 0 18.5 3.6 25.3 9.5 6-12.7 20-21.7 36.3-21.7 17.7 0 32.6 10.5 37.6 24.9 5.9-7.73 15.4-12.75 26-12.75 11.1 0 21 5.5 26.8 13.83 5.5-14 19.4-23.94 35.8-23.94 16.9 0 31.2 10.6 36.3 25.3 8.6-5.8 19.1-9.2 30.3-9.2 4 0 8 .5 11.8 1.3l1.2.3.8.2 2 .6 1 .3c.4.1.75.2 1.1.36l1.1.4.85.3 1.8.8.8.36 1.3.6.7.3c.5.2 1 .5 1.5.8l.8.4 1.4.8.6.4 1.3.8.57.4 1.7 1.2.42.3 1.3 1 .5.4c.6.43 1.1.9 1.7 1.4 4.6-1.05 9.4-1.6 14.4-1.6 3.1 0 6.1.2 9.1.64 9.8-11.44 25.1-18.8 42.34-18.8 15.3 0 29.1 5.9 38.8 15.2 10.5-10.5 25.4-17.2 41.97-17.2 2.4 0 4.8.2 7.1.5 4.6-3.3 9.77-5.96 15.37-7.77l2.16-.6c5-1.4 10.3-2.2 15.8-2.2.9 0 1.7 0 2.6.06.8 0 1.6.1 2.5.12l2.4.3c3.25.5 6.4 1.1 9.45 2.1.75.2 1.5.4 2.2.7v-194c-26.9-20.2-60.5-32.2-97-32.2zm-471.25 75.26l-.92 2.46-2.1 1.58 2.45.92 1.57 2.1.92-2.45 2.1-1.6-2.46-1-1.5-2.1zm-319.2 60.6l-.93 2.47-2.1 1.6 2.46.9 1.56 2.12.93-2.46 2.1-1.6-2.47-.9-1.58-2.1zm551.54 6.07l-1 2.47-2.1 1.58 2.4.92 1.6 2.1.9-2.45 2.1-1.58-2.5-1-1.6-2.1zM852.7 796c3.05-.08 5.78.16 8.1.75l-15.44 12.12c7.32 1.62 8.46 7.86 3.8 16-13.75 1.97-25.77 8.68-33.93 18.22-3-.4-6.07-.7-9.2-.7-4.95 0-9.75.5-14.36 1.6-4.2-3.7-8.94-6.8-14.1-9.1.7-.8 1.4-1.6 2.16-2.4 19.27-19.8 52.57-36.1 73-36.6zM7.02 876.75c-2.4 0-4.73.26-7.02.72V1000h1003.1V888.44c-6.25-2.3-13.07-3.6-20.23-3.6-12.58 0-24.14 3.95-33.28 10.53-2.4-.27-4.8-.43-7.2-.43-16.6 0-31.5 6.6-42 17.18-9.8-9.33-23.6-15.15-38.9-15.15-17.3 0-32.6 7.36-42.4 18.8-3-.4-6.1-.6-9.2-.6-5 0-9.8.55-14.4 1.58-9.6-8.53-22.3-13.72-36.2-13.72-11.2 0-21.7 3.38-30.3 9.2-5.2-14.76-19.5-25.36-36.4-25.36-16.3 0-30.3 9.9-35.9 23.9-5.8-8.32-15.6-13.8-26.8-13.8-10.7 0-20.2 5-26.1 12.72-5-14.4-19.9-24.9-37.6-24.9-16.4 0-30.4 8.9-36.3 21.6-6.8-6-15.6-9.6-25.3-9.6-1.5 0-3 .1-4.4.2-7.5-5.2-17.7-8.4-28.9-8.4-16.4 0-30.5 6.7-37.3 16.4-1.4-.1-2.8-.2-4.2-.2-10.6 0-20.2 4.4-27.1 11.5-6-7.1-15.1-11.6-25.4-11.6-16.2 0-29.6 11.1-32 25.7-3.7-1-7.5-1.5-11.5-1.5-8.4 0-16.3 2.2-22.9 6h-5c-6.9-12.1-20.2-20.2-35.3-20.2-8.3 0-16 2.4-22.4 6.6-6.4-10-17.1-16.6-29.2-16.6-9.5 0-18 4-24.3 10.5-8.7-6.5-20-10.5-32.3-10.5-15.7 0-29.7 6.5-38.8 16.5-2.9-.2-5.8-.3-8.7-.3-12.7 0-24.6 1.9-34.8 5.2-9.4-9.1-22.2-15.3-36.5-16.9-3-18.6-18.4-32.7-36.9-32.7z">
  </path>
</svg>
