<svg xmlns="http://www.w3.org/2000/svg" version="1" viewBox="0 0 890 460"><path d="M35 460h-3a28 28 0 0 1-6-1l-3-1h-2l-2-1h-1l-1-1h-1v-1l-1-1-1-1v-1h-1l-1-1v-1h-1v-1l-2-1-1-2v-1l-1-1v-1H6v-2l-1-1-1-1v-1l-1-1-1-1v-1l-1-2-1-1v-3l3-4v-1l1-1 1-2v-2l1-2v-2c0-1 0-1 0 0l1-3v-1l1-1v-1l1-2v-3l1-1v-5h1v-1h1l-1-1 1-4v-1l1-1v-2l1-2v-5l1-1v-4l1-2v-4h1v-4l1-4v-2h1v-6l1-4v-2l1-1v-2a47 47 0 0 0 1-5v-1l1-3a25 25 0 0 0 0-5c0 1 0 1 0 0l1-1v-5c1 0 1 0 0 0l1-1v-5l1-1v-4l1-2v-3l1-4v-2l1-1v-3l1-4v-4l1-2v-3l1-3v-3l1-3v-3l1-3v-4l1-2v-4l1-2v-4l1-7 1-2v-2a184 184 0 0 1 2-17l1-2a112 112 0 0 1 1-12v-2l1-1v-7l1-1v-6l1-3v-7l1-4v-1s-1 0 0 0l1-8v-4a517 517 0 0 0 4-61 177 177 0 0 0 1-24 287 287 0 0 0 1-31 161 161 0 0 0 0-26v-5l1-1v-1h1l3-1h2l2 2h1v1l1 2 1 2 4 5 2 1 3 3 1 3 2 4a340 340 0 0 0 3 10 177 177 0 0 1 3 46 112 112 0 0 1-2 20v2l-1 2v6l-1 6a95 95 0 0 1 0 12 126 126 0 0 1-1 10 342 342 0 0 1-6 61 334 334 0 0 1-4 33 119 119 0 0 0-2 12v3l-1 3v3a154 154 0 0 1-3 16v4a83 83 0 0 1-2 10 78 78 0 0 1-2 14 375 375 0 0 1-7 38 87 87 0 0 1-2 12v4a104 104 0 0 0-2 8l-1 6a111 111 0 0 1-2 12 68 68 0 0 1-1 8l-1 3v1l-1 3a81 81 0 0 0-2 10h2l1 1h1l2-1a15 15 0 0 0 4 0l3-1h1l1-2h2l3-1a25 25 0 0 1 2 0 71 71 0 0 1 9-4l3-1a32 32 0 0 0 5-2h1l4-1 2-1 2-1h2l3-2a306 306 0 0 0 39-15l2-1a327 327 0 0 0 29-10 466 466 0 0 0 16-4l4 1h8l1 1h1c2 0 2 1 1 2v4l2 2v2l1 1v5l1 1v5l-1 1v6l-1 1-2 1-3 1-6 2-2 1-6 1a782 782 0 0 1-40 16l-3 1h-1l-2 1-3 1-1 1h-1l-3 1-1 1h-1l-6 3-2 1h-1l-2 1h-1a49 49 0 0 1-4 2l-2 1c0-1 0-1 0 0h-2v1h-3l-3 1-1 1h-1l-1 1h-2l-2 1-1 1h-2l-2 1h-1l-2 1h-1a113 113 0 0 0-12 4l-4 1-3 1h-2l-2 1a73 73 0 0 1-8 1 79 79 0 0 1-12 2zm491-22l-9-3-10-6a127 127 0 0 1-32-45l-2-3-2-4-1-1v-1l-2-7-1-2a70 70 0 0 1-3-12v-2l-1-3v-29a113 113 0 0 1 9-32l2-2 2-3 2-4 4-4 6-4c5-2 6-3 10-3l14-1 15 2 3 1 2 1a84 84 0 0 0 8 2l3 2h2a850 850 0 0 0-4-119 1662 1662 0 0 1-4-45l-2-11-1-1h-2l-1-3-1-1v-1l-2-3-2-4-1-4-1-1v-4l-1-2-1-7 4-13a199 199 0 0 0 3-10l3-2 2-1 1-1h5l2-1 2 1 2 1h1l2 2 2 2 1 1v1l1 2 1 3a102 102 0 0 1 3 19 210 210 0 0 1 4 23v5l2 10a133 133 0 0 0 2 16l2 17a155 155 0 0 0 3 26 175 175 0 0 0 1 19 430 430 0 0 1 2 59 934 934 0 0 1-16 169 54 54 0 0 1-13 18l-3 1-3 1a73 73 0 0 1-12 1zm-2-34c2 0 3 0 4-2 2-2 5-9 7-17a422 422 0 0 0 9-71v-4h-1l-2-1-21-6c-8-2-12-1-17 2l-8 10-1 3-1 2-1 2-1 3-1 3a46 46 0 0 0 0 23l5 18c4 9 9 18 15 25l12 10h2zm-195 27l-9-2-2-1c0 1 0 0 0 0l-1-1c-1 1-5-3-10-7l-4-8-2-3-1-2h-1l-3-7-1-3v-3l-2-3a36 36 0 0 1 0-14v-3a72 72 0 0 1 3-14 190 190 0 0 1 10-33 73 73 0 0 1 3-7 219 219 0 0 1 24-43c3-4 7-8 9-8l3-3a21 21 0 0 1 14-5h8l1 1h4l4 1 2 1 1 2c3 1 3 1 5 4 1 1 2 3 1 4l-1 1 1 2 1 1 1 1h-5v-1c-2 0-1 1 1 3l3 3-3-1-3-2 1 1 3 4v1l1 1h-1v6l-1 1-1 1-3 1-3-1c-2-2-4-3-7-3s-4 1-7 3a72 72 0 0 0-20 26l-1 1v2a110 110 0 0 1-6 12v1l-1 2-1 2-1 2-1 2a62 62 0 0 0-2 8 76 76 0 0 0-3 8 108 108 0 0 0-4 19v7l2 4 4 1h5l2-2h1a79 79 0 0 0 9-7 147 147 0 0 0 14-11 346 346 0 0 1 40-31h12l1-1 1-4 1-4 1-4v-6l1-4 1-3 1-3c0-1 0-1 0 0 1 1 1 1 1-1l1-4h3l5 5 1 3 1 2 1 2 1 3 2 10a53 53 0 0 0 2 7l1 3 1 5 1 5 1 6a1949 1949 0 0 0 0 30v2l1 1-1 1-1 1v1l1 3-2-1c0-1-1-1 0 0v6l-1 2-1 1-5 1c-3-1-4-1-5-3l-1-2-3-2-2-3c-1 0-2 0-3-4-2-4-3-11-4-20l-1-4v1l-1 2-1 2v2l-1 1-1 1-1 2-16 16a574 574 0 0 0-17 15 153 153 0 0 1-17 13l-15 6-13 1zm108-37v-1 1zm-53-118l-2-1v1h2zM235 430a30 30 0 0 1-6-1l-3-1-1-1-1-1-2-1-2-2-3-3-2-2h-1l-1-1-1-3h-1l-1-2-4-7a97 97 0 0 0-5-10l-4-9v-3s-1 0 0 0v-1l-1-2-1-6v-5l-1-7-1-1v-7a244 244 0 0 1 3-53 91 91 0 0 1 6-15l1-1 4-4c1-2 1-2 4-1h3c5-2 9-1 13 1l1 2 1 2 1 1 1 2 1 2v1l-1 1v2l-1-1h-1v1l2 1 3 3-2-1-3-1 2 2 2 2-1 2v1l1 4v2h-1l-1 1h-4l-1 2-3 9-1 4-1 14a408 408 0 0 0 1 16c0 11 3 24 5 31l3 5a215 215 0 0 0 24-35 151 151 0 0 1 4-7l2-4a179 179 0 0 0 15-49l-1-1v-1l-1-2v-2l1-1h1l1-1 3-2h2l1-1h6l2 1v-1l1 1h4l3 1c2 1 2 1 2 3l1 3v1l1-1v15l1 7v6l-1 1a251 251 0 0 1-3 21 179 179 0 0 1-19 46 115 115 0 0 1-13 20c-6 8-11 14-18 18l-12 3h-2zm-7-137c-1 0-1 0 0 0zm432 118l-8-3-4-4-2-2-2-1-3-4-2-2-5-3-1-2v-1l-2-3-2-3-6-10a91 91 0 0 1-6-17l-1-3a210 210 0 0 1-5-21v-9l-1-15a251 251 0 0 1 1-26l1-5 1-5h-1v-3h1l1-6v-2a112 112 0 0 1 2-14l1-3v-2a49 49 0 0 1 2-8 276 276 0 0 1 30-73 69 69 0 0 1 11-11l4-3c7-5 10-7 16-8l4-1h11l7 1 7 1a27 27 0 0 1 10 5l1 1 1 1h1l1 1 1-3v-1a179 179 0 0 0 4-19l3-9v-3l1-2v-1l1-2 1-4v1l1 2v-2l2-5v-1l1-2v-1l1-3 1-3v-1l1-1v-1c-1 0 0 0 0 0l2-4 1-1 2-4v-2l1-1v-1l1-1v-2l1-3 1-2 1-1v-1l1-2v-1h1a70 70 0 0 1 7-15l1-1 1-1v-1l1-2 1-1a179 179 0 0 0 9-12l2-2 3-3a89 89 0 0 1 12-12l-2 2a93 93 0 0 0-21 21l-2 2a36 36 0 0 1 4-6l1-1 3-4a72 72 0 0 1 36-24h2a66 66 0 0 1 38 6l1 1 2 1h1l1 1 2 2a52 52 0 0 0 4 4l1 1 1 1v1l1 1 2 2 1 2h1l1 1v2l1 1 1 1v1l1 2 1 1 1 1v1l1 1v1l1 1v1l1 2v1l1 1 1 2v2h1l1 4v2l1 1v1l1 1 1 4v2l1 1v3l1 5v1l1 2v1l1 3v5l1 1c-1 1-1 1 0 0v7l1 2v7c1 0 1 0 0 0v18a305 305 0 0 0-2 28v7l-1 3v7l-1 2a54 54 0 0 0-1 8v3l-1 3v4l-1 2-1 5-1 3v2l-1 2v3l-1 1v6l-1 4v3l-1 2v2l-1 2-1 5v2l-1 1v1l-1 2v2l-1 1v3l-1 2a127 127 0 0 0-1 3v2h-1v3l-1 1v1l-1 2v1l-1 2v1l-1 2v2l-1 1v2l-1 1v2l-1 1v1l-1 2v2l-1 1v2l-1 1-1 2v2l-1 1v1l-1 1v1l-2 7-1 1v1l-1 1v1l-1 2-1 3h-1v2c0-1 0-1 0 0l-1 1v2l-2 4-2 4-1 1v2l-1 2-1 1v2l-1 1-1 1v1l-1 3v1l-1 1-1 1v1l-2 4v1l-1 1-1 2v1h-1v2h-1v1l-1 1v2l-1 1-2 3-1 2-1 2-1 1-1 2-1 1-1 1-1 2-2 3-1 1-1 1-1 1a68 68 0 0 1-17 15l-3 1-2 1h-7l-11-1c-2-1-6-3-7-5l-3-2-1-1h-1a56 56 0 0 1-13-17v-1l-1-1v-2l-3-5-1-2-1-1-1-1-3-5a64 64 0 0 1-2-6v-1l-1-2-3-2c-4 0-6-1-6-2l-2-2-1 1-1 1v1l-1 3v1a56 56 0 0 1-4 9v1l-1 1v1l-1 2a85 85 0 0 1-5 12 82 82 0 0 0-4 9l-1 1-1 3-1 1v1a55 55 0 0 1-4 7v1l-1 1-1 2-1 2-1 2a61 61 0 0 1-6 8l-1 1-1 1-9 9c-6 4-12 5-18 5zm1-35l2-1 1-1s4-4 4-6l2-3a125 125 0 0 0 5-8 159 159 0 0 1 5-10 649 649 0 0 1 10-25 1007 1007 0 0 1 15-42v-3a20 20 0 0 1 2-4l1-3a291 291 0 0 1 2-13l1-3 1-4a1046 1046 0 0 1 2-48 55 55 0 0 0-5-20l-1-1-1-1c-2-2-4-4-6-4l-2-1-4-1c-6 0-10 2-15 6a78 78 0 0 0-19 23 134 134 0 0 0-13 30 24 24 0 0 0-2 5v2l-1 2a85 85 0 0 0-4 14l-2 9v5l-1 9a326 326 0 0 0 9 81l3 8c3 4 5 6 8 7l1 1h2zm121-28l3-2 6-6 3-4a34 34 0 0 1 3-4v-1a79 79 0 0 0 8-15h1v-1l3-6 1-3 1-1 1-2a789 789 0 0 1 15-36l1-2 1-2v-1l1-1v-2l1-1v-1l1-2v-1l1-1v-2l1-1v-3l1-1v-1l1-2v-1l2-5v-1h1v-2l1-2 1-5 1-1v-1l1-2v-2l1-3a77 77 0 0 0 4-12v-3a72 72 0 0 1 2-7l1-2v-2l1-1v-4l1-2v-1l1-3v-3l1-1v-4a7 7 0 0 1 1-3 276 276 0 0 1 3-23v-4l1-3a231 231 0 0 0-3-59v-1l-1-1c1 0 0 0 0 0v-2l-1-1v-2h-1v-3l-1-2-1-4-1-2v-3l-1-1v-1l-1-1-1-1-1-2v-1l-1-1v-1l-1-1-1-1-1-1-2-2-2-2-1-1-1-1h-1v-1h-1l-1-1h-1l-2-1h-1l-1-1h-5c-4-1-8 0-13 3a69 69 0 0 0-22 20l-2 1a122 122 0 0 0-14 25l-1 1v1l-1 1-2 3a325 325 0 0 1-9 22l-1 5-1 4v2l-1 1v4l-1 3-1 7-1 5v2h1c4 0 4 0 3 1l2 1 3 1 1 1-1 2v2l1 1-1 1v2l-1 2v2l-1 5v1l-1 2-1 3h1l-1 3-1 2v2l-1 1v2l-1 4-1 3-2 6v2l-1 1v1a24 24 0 0 0-2 8l-1 1v2l-1 2v3l-1 2v4l-1 3v8l-1 2v1l1 4v8l1 10v6a23 23 0 0 0 1 5v4l1 3v4l1 1v4l1 3v2h1v2l1 2v3h1v3l1 2 1 3 1 2v1l2 4v2l1 2 1 2v1l1 2 1 2v1l1 1v1l1 2a25 25 0 0 0 4 6v1h1l1 2 1 1v1l1 1 1 1 5 6 3-1zm43-26h-1 1zm5-12v1h1l-1-1zm2-3s0 1 0 0zm2-3v-1l-1 1h1zm0-2zm3-5c1 0 1-1 0 0zm2-4h-1 1zm1-2zm4-8v-1l-1 1h1zm1-3c0-1 0-1 0 0zm8-18c1 0 1 0 0 0h-1 1zm1-2h-1v1l1-1zm1-3v1c-1 0-1 1 0 0v-1zm-1 1v-1 1zm2-2h-1v1l1-1zm1-1l-1-1v1h1zm0-2zm0-2zm0-1zm3-7v-1 1c0 1 0 0 0 0zm1-3s1 0 0 0zm1-1v-2h1v-2l-1 1v1l-1 1c-1 1 0 2 1 1zm1-5v-1 1zm2-3v-2l1-1v-3l1-1 1-2v-1c1 0 1 0 0 0l-2 2-1 1v3h-1v4c-1 0-1 0 0 0v1h-1 1l1-1zm3-11v-1h1l-1-1-1 2h1zm2-7v1h-1v1l1-1v-1zm1-2h-1 1zm0-1v-1l-1 1h1zm-139-94l1-1-1 1zm1-4l1-2-1 1v1zm2-4h-1v1l1-1zM13 387v-1 1zm221-92c-1 0 0 0 0 0zm378-26v-1l1 1h-1zm-172-53l-3-2-2-2a108 108 0 0 0-4-8l-1-2-1-1-1-2-3-9c-2-12-2-14-2-27a790 790 0 0 0 2-34l2-1 2-1h1l1-2h10l4 1h2c2 0 3 1 3 2l1 1 1 1-1 10a457 457 0 0 0 0 62l-1 4-1 3-1 4-1 2c0 1-2 2-4 1h-3zm6-91v-1h1l-1 1zm306-68h1-1zM550 45v-1h1l-1 1zm210-3h1c0-1 0 0 0 0h-1zm2-2l-1 1 1-1z"/></svg>