<?xml version="1.0" encoding="UTF-8" standalone="no"?>
<!-- Created with Inkscape (http://www.inkscape.org/) -->

<svg
   xmlns:dc="http://purl.org/dc/elements/1.1/"
   xmlns:cc="http://creativecommons.org/ns#"
   xmlns:rdf="http://www.w3.org/1999/02/22-rdf-syntax-ns#"
   xmlns:svg="http://www.w3.org/2000/svg"
   xmlns="http://www.w3.org/2000/svg"
   xmlns:xlink="http://www.w3.org/1999/xlink"
   xmlns:sodipodi="http://sodipodi.sourceforge.net/DTD/sodipodi-0.dtd"
   xmlns:inkscape="http://www.inkscape.org/namespaces/inkscape"
   id="svg2"
   version="1.1"
   inkscape:version="0.48.4 r9939"
   sodipodi:docname="drawing.svg"
   inkscape:export-filename="drawing.png"
   inkscape:export-xdpi="45"
   inkscape:export-ydpi="45"
   preserveAspectRatio="xMinYMin meet"
   viewbox="0 0 1000 1000"
   width="1000"
   height="1000">
  <defs
     id="defs4">
    <linearGradient
       id="saturn_ring_gradient_sepia">
      <stop
         id="stop6230"
         offset="0"
         style="stop-color:#c6b18a;stop-opacity:1;" />
      <stop
         id="stop6232"
         offset="1"
         style="stop-color:#000000;stop-opacity:0;" />
    </linearGradient>
    <linearGradient
       id="jupiter_gradient_sepia">
      <stop
         id="stop5476"
         offset="0"
         style="stop-color:#f3d8a9;stop-opacity:1;" />
      <stop
         style="stop-color:#ffe7b4;stop-opacity:1;"
         offset="0.5"
         id="stop5478" />
      <stop
         id="stop5480"
         offset="1"
         style="stop-color:#bfaa84;stop-opacity:1;" />
    </linearGradient>
    <linearGradient
       id="saturn_gradient_sepia">
      <stop
         id="stop3991"
         offset="0"
         style="stop-color:#f3d8a5;stop-opacity:1;" />
      <stop
         style="stop-color:#ffe3b1;stop-opacity:1;"
         offset="0.5"
         id="stop3997" />
      <stop
         id="stop3995"
         offset="1"
         style="stop-color:#958567;stop-opacity:1;" />
    </linearGradient>
    <filter
       id="sepia">
      <feColorMatrix
         type="matrix"
         values="0.14 0.45 0.05 0 0 0.12 0.39 0.04 0 0 0.08 0.28 0.03 0 0 0 0 0 1 0"
         id="feColorMatrix3189" />
    </filter>
    <filter
       id="grayscale">
      <feColorMatrix
         type="matrix"
         values="0.3333 0.3333 0.3333 0 0 0.3333 0.3333 0.3333 0 0 0.3333 0.3333 0.3333 0 0 0 0 0 1 0"
         id="feColorMatrix3192" />
    </filter>
    <linearGradient
       id="sky_gradient">
      <stop
         style="stop-color:#000426;stop-opacity:1;"
         offset="0"
         id="stop5473" />
      <stop
         style="stop-color:#003c26;stop-opacity:1;"
         offset="1"
         id="stop5475" />
    </linearGradient>
    <linearGradient
       id="saturn_ring_gradient">
      <stop
         style="stop-color:#c6bfb5;stop-opacity:1;"
         offset="0"
         id="stop5373" />
      <stop
         style="stop-color:#000000;stop-opacity:0;"
         offset="1"
         id="stop5375" />
    </linearGradient>
    <linearGradient
       id="sky_ring_gradient_2">
      <stop
         style="stop-color:#000426;stop-opacity:0;"
         offset="0"
         id="stop3909" />
      <stop
         id="stop3915"
         offset="0.5"
         style="stop-color:#000426;stop-opacity:0;" />
      <stop
         style="stop-color:#000426;stop-opacity:0;"
         offset="0.75"
         id="stop3917" />
      <stop
         style="stop-color:#00345b;stop-opacity:1;"
         offset="1"
         id="stop3911" />
    </linearGradient>
    <linearGradient
       id="jupiter_gradient"
       xlink:href="#jupiter_gradient_sepia">
      <stop
         style="stop-color:#ffe8a5;stop-opacity:1;"
         offset="0"
         id="stop5496" />
      <stop
         id="stop3900"
         offset="0.5"
         style="stop-color:#ffffa5;stop-opacity:1;" />
      <stop
         style="stop-color:#a87dcd;stop-opacity:1;"
         offset="1"
         id="stop5498" />
    </linearGradient>
    <linearGradient
       id="saturn_gradient">
      <stop
         style="stop-color:#ffe8a5;stop-opacity:1;"
         offset="0"
         id="stop26" />
      <stop
         id="stop28"
         offset="0.5"
         style="stop-color:#ffffa5;stop-opacity:1;" />
      <stop
         style="stop-color:#a87dcd;stop-opacity:1;"
         offset="1"
         id="stop30" />
    </linearGradient>
    <linearGradient
       inkscape:collect="always"
       xlink:href="#saturn_gradient"
       id="linearGradient5405-2"
       x1="135.29794"
       y1="227.23331"
       x2="212.19453"
       y2="227.23331"
       gradientUnits="userSpaceOnUse" />
    <linearGradient
       inkscape:collect="always"
       xlink:href="#saturn_gradient_sepia"
       id="linearGradient4021"
       gradientUnits="userSpaceOnUse"
       x1="135.29794"
       y1="227.23331"
       x2="212.19453"
       y2="227.23331" />
    <linearGradient
       inkscape:collect="always"
       xlink:href="#saturn_ring_gradient_sepia"
       id="linearGradient4029"
       x1="172.98102"
       y1="226.33856"
       x2="172.8414"
       y2="240.98578"
       gradientUnits="userSpaceOnUse"
       gradientTransform="matrix(1.2101797,0,0,1.6805388,-36.069775,-154.16539)" />
    <linearGradient
       inkscape:collect="always"
       xlink:href="#saturn_gradient_sepia"
       id="linearGradient4735" />
    <linearGradient
       inkscape:collect="always"
       xlink:href="#jupiter_gradient_sepia"
       id="linearGradient4018"
       x1="638.41638"
       y1="730.28925"
       x2="957.62457"
       y2="730.28925"
       gradientUnits="userSpaceOnUse" />
  </defs>
  <sodipodi:namedview
     id="base"
     pagecolor="#ffffff"
     bordercolor="#666666"
     borderopacity="1.0"
     inkscape:pageopacity="0.0"
     inkscape:pageshadow="2"
     inkscape:zoom="0.7"
     inkscape:cx="541.59372"
     inkscape:cy="557.99529"
     inkscape:document-units="px"
     inkscape:current-layer="layer7"
     showgrid="false"
     inkscape:window-width="1024"
     inkscape:window-height="705"
     inkscape:window-x="-8"
     inkscape:window-y="-8"
     inkscape:window-maximized="1" />
  <metadata
     id="metadata7">
    <rdf:RDF>
      <cc:Work
         rdf:about="">
        <dc:format>image/svg+xml</dc:format>
        <dc:type
           rdf:resource="http://purl.org/dc/dcmitype/StillImage" />
        <dc:title></dc:title>
      </cc:Work>
    </rdf:RDF>
  </metadata>
  <g
     style="display:inline"
     inkscape:label="Sky"
     id="sky"
     inkscape:groupmode="layer">
    <rect
       y="-0.050999999"
       x="0"
       height="1006.1119"
       width="1006.1119"
       id="rect5369"
       style="fill:#000000;fill-opacity:1;stroke:none" />
  </g>
  <g
     inkscape:groupmode="layer"
     id="layer11"
     inkscape:label="Jupiter"
     style="display:inline">
    <path
       sodipodi:type="arc"
       style="fill:url(#linearGradient4018);fill-opacity:1.0;stroke:none"
       id="jupiter"
       sodipodi:cx="798.02051"
       sodipodi:cy="730.28925"
       sodipodi:rx="159.6041"
       sodipodi:ry="156.57364"
       d="m 957.6246,730.28925 a 159.6041,156.57364 0 1 1 -319.20819,0 159.6041,156.57364 0 1 1 319.20819,0 z"
       transform="translate(107.07616,56.568542)">
      <desc
         id="desc3473"
         style="fill-opacity:1.0;fill:url(#linearGradient4018)">Jupiter!!!</desc>
      <title
         id="title3471"
         style="fill-opacity:1.0;fill:url(#linearGradient4018)">jupiter</title>
    </path>
    <path
       sodipodi:type="spiral"
       style="fill:none;stroke:#b09d7a;stroke-width:1px;stroke-linecap:butt;stroke-linejoin:miter;stroke-opacity:1"
       id="storm"
       sodipodi:cx="822.26416"
       sodipodi:cy="791.90857"
       sodipodi:expansion="1"
       sodipodi:revolution="3.0367107"
       sodipodi:radius="45.037022"
       sodipodi:argument="-18.804132"
       sodipodi:t0="0"
       d="m 822.26416,791.90857 c 2.22849,0.10129 0.96291,3.05393 -0.16836,3.70389 -3.06568,1.76135 -6.45641,-1.1294 -7.23942,-4.04061 -1.40062,-5.20747 2.97093,-9.95875 7.91286,-10.77495 7.25248,-1.19781 13.52456,4.82287 14.31048,11.78511 1.04751,9.27957 -6.67659,17.11499 -15.65736,17.84601 -11.30138,0.91991 -20.71767,-8.53069 -21.38154,-19.52961 -0.80403,-13.32115 10.38492,-24.32735 23.40186,-24.91707 15.34,-0.69496 27.94142,12.23921 28.4526,27.2741 0.59018,17.35838 -14.09354,31.55841 -31.14635,31.98814 -19.37649,0.48828 -35.17744,-15.94791 -35.52367,-35.0186 -0.38841,-21.39444 17.8023,-38.79797 38.89085,-39.0592 23.41229,-0.29001 42.41961,19.65672 42.59473,42.7631 0.0261,3.44684 -0.35048,6.8954 -1.1152,10.25633"
       transform="matrix(0.83234323,-0.84308092,0.8776324,-0.01722534,-565.41504,1540.3414)">
      <title
         id="title5482">storm</title>
    </path>
  </g>
  <g
     inkscape:groupmode="layer"
     id="layer7"
     inkscape:label="Saturn"
     style="display:inline">
    <path
       transform="translate(0,-2.2009277e-6)"
       sodipodi:type="arc"
       style="fill:url(#linearGradient4021);fill-opacity:1.0;stroke:none;display:inline"
       id="saturn"
       sodipodi:cx="173.74623"
       sodipodi:cy="227.23331"
       sodipodi:rx="38.385796"
       sodipodi:ry="37.375645"
       d="m 212.13203,227.23331 a 38.385796,37.375645 0 1 1 -76.77159,0 38.385796,37.375645 0 1 1 76.77159,0 z">
      <title
         id="title4741"
         style="fill-opacity:1.0">saturn</title>
    </path>
    <path
       d="m 173.79509,216.55635 c -35.73617,0 -64.70623,6.0126 -64.70623,13.41836 0,7.40577 28.97006,17.76283 64.70623,17.76283 35.73618,0 64.70622,-10.3479 64.70622,-17.76283 0,-7.41492 -28.97004,-13.41836 -64.70622,-13.41836 z m 0,18.08362 c -27.20514,0 -49.26029,-3.22626 -49.26029,-7.20411 0,-3.97786 22.05515,-7.20412 49.26029,-7.20412 27.20515,0 49.26028,3.22626 49.26028,7.20412 0,3.97785 -22.05513,7.20411 -49.26028,7.20411 z"
       id="saturn_ring"
       inkscape:connector-curvature="0"
       style="fill:url(#linearGradient4029);fill-opacity:1.0">
      <title
         id="title3469"
         style="fill-opacity:1.0">saturn_ring</title>
    </path>
    <path
       style="fill:url(#linearGradient4735);fill-opacity:1.0;stroke:none"
       d="m 135.36045,228.30415 c 0.30667,-25.08849 23.11947,-37.50155 38.07003,-38.44718 20.55252,0.13721 39.90794,20.63241 38.57508,37.64415 -41.56936,1.03882 -41.42055,1.00936 -76.64511,0.80303 z"
       id="saturn_top"
       inkscape:connector-curvature="0"
       sodipodi:nodetypes="cccc">
      <title
         id="title4739"
         style="fill-opacity:1.0;fill:url(#linearGradient4735)">saturn_top</title>
    </path>
  </g>
  <g
     inkscape:groupmode="layer"
     id="stars"
     inkscape:label="Stars"
     style="display:inline">
    <path
       sodipodi:type="star"
       style="fill:#ffffff;fill-opacity:1;stroke:none"
       id="path3884"
       sodipodi:sides="4"
       sodipodi:cx="209.10158"
       sodipodi:cy="414.61661"
       sodipodi:r1="3.5714285"
       sodipodi:r2="1.7857141"
       sodipodi:arg1="-0.14189705"
       sodipodi:arg2="0.64350111"
       inkscape:flatsided="false"
       inkscape:rounded="0"
       inkscape:randomized="0"
       d="m 212.63711,414.11153 -2.10696,1.57651 -0.9235,2.4641 -1.5765,-2.10696 -2.46411,-0.9235 2.10697,-1.5765 0.92349,-2.46411 1.57651,2.10697 z" />
    <path
       transform="translate(184.85791,-67.175154)"
       sodipodi:type="star"
       style="fill:#ffffff;fill-opacity:1;stroke:none"
       id="path3884-1"
       sodipodi:sides="4"
       sodipodi:cx="209.10158"
       sodipodi:cy="414.61661"
       sodipodi:r1="3.5714285"
       sodipodi:r2="1.7857141"
       sodipodi:arg1="-0.14189705"
       sodipodi:arg2="0.64350111"
       inkscape:flatsided="false"
       inkscape:rounded="0"
       inkscape:randomized="0"
       d="m 212.63711,414.11153 -2.10696,1.57651 -0.9235,2.4641 -1.5765,-2.10696 -2.46411,-0.9235 2.10697,-1.5765 0.92349,-2.46411 1.57651,2.10697 z" />
    <path
       transform="translate(550.53313,110.61171)"
       sodipodi:type="star"
       style="fill:#ffffff;fill-opacity:1;stroke:none"
       id="path3884-7"
       sodipodi:sides="4"
       sodipodi:cx="209.10158"
       sodipodi:cy="414.61661"
       sodipodi:r1="3.5714285"
       sodipodi:r2="1.7857141"
       sodipodi:arg1="-0.14189705"
       sodipodi:arg2="0.64350111"
       inkscape:flatsided="false"
       inkscape:rounded="0"
       inkscape:randomized="0"
       d="m 212.63711,414.11153 -2.10696,1.57651 -0.9235,2.4641 -1.5765,-2.10696 -2.46411,-0.9235 2.10697,-1.5765 0.92349,-2.46411 1.57651,2.10697 z" />
    <path
       transform="translate(114.14723,-192.43405)"
       sodipodi:type="star"
       style="fill:#ffffff;fill-opacity:1;stroke:none"
       id="path3884-4"
       sodipodi:sides="4"
       sodipodi:cx="209.10158"
       sodipodi:cy="414.61661"
       sodipodi:r1="3.5714285"
       sodipodi:r2="1.7857141"
       sodipodi:arg1="-0.14189705"
       sodipodi:arg2="0.64350111"
       inkscape:flatsided="false"
       inkscape:rounded="0"
       inkscape:randomized="0"
       d="m 212.63711,414.11153 -2.10696,1.57651 -0.9235,2.4641 -1.5765,-2.10696 -2.46411,-0.9235 2.10697,-1.5765 0.92349,-2.46411 1.57651,2.10697 z" />
    <path
       transform="translate(-180.81731,-303.55084)"
       sodipodi:type="star"
       style="fill:#ffffff;fill-opacity:1;stroke:none"
       id="path3884-0"
       sodipodi:sides="4"
       sodipodi:cx="209.10158"
       sodipodi:cy="414.61661"
       sodipodi:r1="3.5714285"
       sodipodi:r2="1.7857141"
       sodipodi:arg1="-0.14189705"
       sodipodi:arg2="0.64350111"
       inkscape:flatsided="false"
       inkscape:rounded="0"
       inkscape:randomized="0"
       d="m 212.63711,414.11153 -2.10696,1.57651 -0.9235,2.4641 -1.5765,-2.10696 -2.46411,-0.9235 2.10697,-1.5765 0.92349,-2.46411 1.57651,2.10697 z" />
    <path
       transform="translate(-9.0913751,-352.03817)"
       sodipodi:type="star"
       style="fill:#ffffff;fill-opacity:1;stroke:none"
       id="path3884-9"
       sodipodi:sides="4"
       sodipodi:cx="209.10158"
       sodipodi:cy="414.61661"
       sodipodi:r1="3.5714285"
       sodipodi:r2="1.7857141"
       sodipodi:arg1="-0.14189705"
       sodipodi:arg2="0.64350111"
       inkscape:flatsided="false"
       inkscape:rounded="0"
       inkscape:randomized="0"
       d="m 212.63711,414.11153 -2.10696,1.57651 -0.9235,2.4641 -1.5765,-2.10696 -2.46411,-0.9235 2.10697,-1.5765 0.92349,-2.46411 1.57651,2.10697 z" />
    <path
       transform="translate(-116.16754,-127.7843)"
       sodipodi:type="star"
       style="fill:#ffffff;fill-opacity:1;stroke:none"
       id="path3884-48"
       sodipodi:sides="4"
       sodipodi:cx="209.10158"
       sodipodi:cy="414.61661"
       sodipodi:r1="3.5714285"
       sodipodi:r2="1.7857141"
       sodipodi:arg1="-0.14189705"
       sodipodi:arg2="0.64350111"
       inkscape:flatsided="false"
       inkscape:rounded="0"
       inkscape:randomized="0"
       d="m 212.63711,414.11153 -2.10696,1.57651 -0.9235,2.4641 -1.5765,-2.10696 -2.46411,-0.9235 2.10697,-1.5765 0.92349,-2.46411 1.57651,2.10697 z" />
    <path
       transform="translate(-116.16755,128.79445)"
       sodipodi:type="star"
       style="fill:#ffffff;fill-opacity:1;stroke:none"
       id="path3884-8"
       sodipodi:sides="4"
       sodipodi:cx="209.10158"
       sodipodi:cy="414.61661"
       sodipodi:r1="3.5714285"
       sodipodi:r2="1.7857141"
       sodipodi:arg1="-0.14189705"
       sodipodi:arg2="0.64350111"
       inkscape:flatsided="false"
       inkscape:rounded="0"
       inkscape:randomized="0"
       d="m 212.63711,414.11153 -2.10696,1.57651 -0.9235,2.4641 -1.5765,-2.10696 -2.46411,-0.9235 2.10697,-1.5765 0.92349,-2.46411 1.57651,2.10697 z" />
    <path
       transform="translate(651.54838,197.48481)"
       sodipodi:type="star"
       style="fill:#ffffff;fill-opacity:1;stroke:none"
       id="path3884-2"
       sodipodi:sides="4"
       sodipodi:cx="209.10158"
       sodipodi:cy="414.61661"
       sodipodi:r1="3.5714285"
       sodipodi:r2="1.7857141"
       sodipodi:arg1="-0.14189705"
       sodipodi:arg2="0.64350111"
       inkscape:flatsided="false"
       inkscape:rounded="0"
       inkscape:randomized="0"
       d="m 212.63711,414.11153 -2.10696,1.57651 -0.9235,2.4641 -1.5765,-2.10696 -2.46411,-0.9235 2.10697,-1.5765 0.92349,-2.46411 1.57651,2.10697 z" />
    <path
       transform="translate(63.639609,203.54573)"
       sodipodi:type="star"
       style="fill:#ffffff;fill-opacity:1;stroke:none"
       id="path3884-45"
       sodipodi:sides="4"
       sodipodi:cx="209.10158"
       sodipodi:cy="414.61661"
       sodipodi:r1="3.5714285"
       sodipodi:r2="1.7857141"
       sodipodi:arg1="-0.14189705"
       sodipodi:arg2="0.64350111"
       inkscape:flatsided="false"
       inkscape:rounded="0"
       inkscape:randomized="0"
       d="m 212.63711,414.11153 -2.10696,1.57651 -0.9235,2.4641 -1.5765,-2.10696 -2.46411,-0.9235 2.10697,-1.5765 0.92349,-2.46411 1.57651,2.10697 z" />
    <path
       transform="translate(352.54323,-224.75894)"
       sodipodi:type="star"
       style="fill:#ffffff;fill-opacity:1;stroke:none"
       id="path3884-5"
       sodipodi:sides="4"
       sodipodi:cx="209.10158"
       sodipodi:cy="414.61661"
       sodipodi:r1="3.5714285"
       sodipodi:r2="1.7857141"
       sodipodi:arg1="-0.14189705"
       sodipodi:arg2="0.64350111"
       inkscape:flatsided="false"
       inkscape:rounded="0"
       inkscape:randomized="0"
       d="m 212.63711,414.11153 -2.10696,1.57651 -0.9235,2.4641 -1.5765,-2.10696 -2.46411,-0.9235 2.10697,-1.5765 0.92349,-2.46411 1.57651,2.10697 z" />
    <path
       transform="translate(227.28433,-388.40365)"
       sodipodi:type="star"
       style="fill:#ffffff;fill-opacity:1;stroke:none"
       id="path3884-17"
       sodipodi:sides="4"
       sodipodi:cx="209.10158"
       sodipodi:cy="414.61661"
       sodipodi:r1="3.5714285"
       sodipodi:r2="1.7857141"
       sodipodi:arg1="-0.14189705"
       sodipodi:arg2="0.64350111"
       inkscape:flatsided="false"
       inkscape:rounded="0"
       inkscape:randomized="0"
       d="m 212.63711,414.11153 -2.10696,1.57651 -0.9235,2.4641 -1.5765,-2.10696 -2.46411,-0.9235 2.10697,-1.5765 0.92349,-2.46411 1.57651,2.10697 z" />
    <path
       transform="translate(736.40119,-273.24626)"
       sodipodi:type="star"
       style="fill:#ffffff;fill-opacity:1;stroke:none"
       id="path3884-11"
       sodipodi:sides="4"
       sodipodi:cx="209.10158"
       sodipodi:cy="414.61661"
       sodipodi:r1="3.5714285"
       sodipodi:r2="1.7857141"
       sodipodi:arg1="-0.14189705"
       sodipodi:arg2="0.64350111"
       inkscape:flatsided="false"
       inkscape:rounded="0"
       inkscape:randomized="0"
       d="m 212.63711,414.11153 -2.10696,1.57651 -0.9235,2.4641 -1.5765,-2.10696 -2.46411,-0.9235 2.10697,-1.5765 0.92349,-2.46411 1.57651,2.10697 z" />
    <path
       transform="translate(461.63972,-311.63206)"
       sodipodi:type="star"
       style="fill:#ffffff;fill-opacity:1;stroke:none;display:inline"
       id="path3884-5-2"
       sodipodi:sides="4"
       sodipodi:cx="209.10158"
       sodipodi:cy="414.61661"
       sodipodi:r1="3.5714285"
       sodipodi:r2="1.7857141"
       sodipodi:arg1="-0.14189705"
       sodipodi:arg2="0.64350111"
       inkscape:flatsided="false"
       inkscape:rounded="0"
       inkscape:randomized="0"
       d="m 212.63711,414.11153 -2.10696,1.57651 -0.9235,2.4641 -1.5765,-2.10696 -2.46411,-0.9235 2.10697,-1.5765 0.92349,-2.46411 1.57651,2.10697 z" />
    <path
       transform="translate(629.32503,-358.09908)"
       sodipodi:type="star"
       style="fill:#ffffff;fill-opacity:1;stroke:none;display:inline"
       id="path3884-11-6"
       sodipodi:sides="4"
       sodipodi:cx="209.10158"
       sodipodi:cy="414.61661"
       sodipodi:r1="3.5714285"
       sodipodi:r2="1.7857141"
       sodipodi:arg1="-0.14189705"
       sodipodi:arg2="0.64350111"
       inkscape:flatsided="false"
       inkscape:rounded="0"
       inkscape:randomized="0"
       d="m 212.63711,414.11153 -2.10696,1.57651 -0.9235,2.4641 -1.5765,-2.10696 -2.46411,-0.9235 2.10697,-1.5765 0.92349,-2.46411 1.57651,2.10697 z" />
    <path
       transform="translate(687.91387,-6.5659912)"
       sodipodi:type="star"
       style="fill:#ffffff;fill-opacity:1;stroke:none;display:inline"
       id="path3884-11-2"
       sodipodi:sides="4"
       sodipodi:cx="209.10158"
       sodipodi:cy="414.61661"
       sodipodi:r1="3.5714285"
       sodipodi:r2="1.7857141"
       sodipodi:arg1="-0.14189705"
       sodipodi:arg2="0.64350111"
       inkscape:flatsided="false"
       inkscape:rounded="0"
       inkscape:randomized="0"
       d="m 212.63711,414.11153 -2.10696,1.57651 -0.9235,2.4641 -1.5765,-2.10696 -2.46411,-0.9235 2.10697,-1.5765 0.92349,-2.46411 1.57651,2.10697 z" />
    <path
       transform="translate(-93.944187,355.06861)"
       sodipodi:type="star"
       style="fill:#ffffff;fill-opacity:1;stroke:none;display:inline"
       id="path3884-11-4"
       sodipodi:sides="4"
       sodipodi:cx="209.10158"
       sodipodi:cy="414.61661"
       sodipodi:r1="3.5714285"
       sodipodi:r2="1.7857141"
       sodipodi:arg1="-0.14189705"
       sodipodi:arg2="0.64350111"
       inkscape:flatsided="false"
       inkscape:rounded="0"
       inkscape:randomized="0"
       d="m 212.63711,414.11153 -2.10696,1.57651 -0.9235,2.4641 -1.5765,-2.10696 -2.46411,-0.9235 2.10697,-1.5765 0.92349,-2.46411 1.57651,2.10697 z" />
    <path
       transform="translate(552.55344,-119.70308)"
       sodipodi:type="star"
       style="fill:#ffffff;fill-opacity:1;stroke:none;display:inline"
       id="path3884-11-5"
       sodipodi:sides="4"
       sodipodi:cx="209.10158"
       sodipodi:cy="414.61661"
       sodipodi:r1="3.5714285"
       sodipodi:r2="1.7857141"
       sodipodi:arg1="-0.14189705"
       sodipodi:arg2="0.64350111"
       inkscape:flatsided="false"
       inkscape:rounded="0"
       inkscape:randomized="0"
       d="m 212.63711,414.11153 -2.10696,1.57651 -0.9235,2.4641 -1.5765,-2.10696 -2.46411,-0.9235 2.10697,-1.5765 0.92349,-2.46411 1.57651,2.10697 z" />
    <path
       transform="translate(225.26402,294.45947)"
       sodipodi:type="star"
       style="fill:#ffffff;fill-opacity:1;stroke:none;display:inline"
       id="path3884-2-8"
       sodipodi:sides="4"
       sodipodi:cx="209.10158"
       sodipodi:cy="414.61661"
       sodipodi:r1="3.5714285"
       sodipodi:r2="1.7857141"
       sodipodi:arg1="-0.14189705"
       sodipodi:arg2="0.64350111"
       inkscape:flatsided="false"
       inkscape:rounded="0"
       inkscape:randomized="0"
       d="m 212.63711,414.11153 -2.10696,1.57651 -0.9235,2.4641 -1.5765,-2.10696 -2.46411,-0.9235 2.10697,-1.5765 0.92349,-2.46411 1.57651,2.10697 z" />
    <path
       transform="translate(457.59909,361.12953)"
       sodipodi:type="star"
       style="fill:#ffffff;fill-opacity:1;stroke:none;display:inline"
       id="path3884-2-81"
       sodipodi:sides="4"
       sodipodi:cx="209.10158"
       sodipodi:cy="414.61661"
       sodipodi:r1="3.5714285"
       sodipodi:r2="1.7857141"
       sodipodi:arg1="-0.14189705"
       sodipodi:arg2="0.64350111"
       inkscape:flatsided="false"
       inkscape:rounded="0"
       inkscape:randomized="0"
       d="m 212.63711,414.11153 -2.10696,1.57651 -0.9235,2.4641 -1.5765,-2.10696 -2.46411,-0.9235 2.10697,-1.5765 0.92349,-2.46411 1.57651,2.10697 z" />
    <path
       transform="translate(372.74629,171.22085)"
       sodipodi:type="star"
       style="fill:#ffffff;fill-opacity:1;stroke:none;display:inline"
       id="path3884-2-2"
       sodipodi:sides="4"
       sodipodi:cx="209.10158"
       sodipodi:cy="414.61661"
       sodipodi:r1="3.5714285"
       sodipodi:r2="1.7857141"
       sodipodi:arg1="-0.14189705"
       sodipodi:arg2="0.64350111"
       inkscape:flatsided="false"
       inkscape:rounded="0"
       inkscape:randomized="0"
       d="m 212.63711,414.11153 -2.10696,1.57651 -0.9235,2.4641 -1.5765,-2.10696 -2.46411,-0.9235 2.10697,-1.5765 0.92349,-2.46411 1.57651,2.10697 z" />
  </g>
  <g
     inkscape:groupmode="layer"
     id="g3927"
     inkscape:label="Clouds3"
     style="display:inline">
    <path
       style="fill:#605643;fill-opacity:1;stroke:none"
       d="M 3.03125 804.03125 C -17.610749 804.03125 -34.34375 821.67972 -34.34375 843.4375 C -34.34375 854.11184 -30.321976 863.78002 -23.78125 870.875 C -26.679923 877.36432 -28.28125 884.46026 -28.28125 891.90625 C -28.28125 902.00172 -25.321634 911.46633 -20.1875 919.625 L -20.1875 1000 L 1026.3125 1000 L 1026.3125 883 C 1030.1735 876.29946 1032.375 868.67509 1032.375 860.59375 C 1032.375 833.81494 1008.412 812.125 978.84375 812.125 C 966.24891 812.125 954.67467 816.06455 945.53125 822.65625 C 943.19978 822.38404 940.84668 822.21875 938.4375 822.21875 C 921.90224 822.21875 907.00159 828.83142 896.5 839.40625 C 886.74144 830.06836 872.94196 824.21875 857.625 824.21875 C 840.39654 824.21875 825.0742 831.61369 815.28125 843.0625 C 812.29105 842.64655 809.21065 842.40625 806.09375 842.40625 C 801.13309 842.40625 796.33333 842.96946 791.71875 844 C 782.09605 835.48406 769.45401 830.28125 755.59375 830.28125 C 744.37668 830.28125 733.95056 833.69471 725.28125 839.5 C 720.14248 824.75215 705.82067 814.125 688.9375 814.125 C 672.6093 814.125 658.67276 824.0691 653.125 838.0625 C 647.31918 829.71292 637.45483 824.21875 626.28125 824.21875 C 615.60785 824.21875 606.16779 829.24235 600.28125 836.96875 C 595.29327 822.5767 580.33445 812.125 562.65625 812.125 C 546.31058 812.125 532.27622 821.05775 526.3125 833.78125 C 519.55686 827.85536 510.72377 824.21875 501.03125 824.21875 C 499.54589 824.21875 498.09767 824.3358 496.65625 824.5 C 489.18908 819.3354 478.95633 816.15625 467.6875 816.15625 C 451.34972 816.15625 437.24001 822.8431 430.5 832.5625 C 429.11764 832.40776 427.70374 832.3125 426.28125 832.3125 C 415.66574 832.3125 406.07387 836.72727 399.125 843.875 C 393.20537 836.84347 384.04658 832.3125 373.75 832.3125 C 357.57114 832.3125 344.18332 843.45361 341.8125 858 C 338.15465 857.06966 334.28759 856.5625 330.3125 856.5625 C 321.90722 856.5625 314.05521 858.77971 307.40625 862.625 L 301.96875 862.625 C 295.05901 850.57169 281.8562 842.40625 266.6875 842.40625 C 258.41638 842.40625 250.71676 844.84223 244.3125 849 C 237.93967 838.92903 227.26086 832.3125 215.15625 832.3125 C 205.7516 832.3125 197.20883 836.31066 190.875 842.8125 C 182.20884 836.26533 170.92607 832.3125 158.59375 832.3125 C 142.8717 832.3125 128.87936 838.7516 119.8125 848.78125 C 116.95792 848.57924 114.07773 848.46875 111.125 848.46875 C 98.445731 848.46875 86.569546 850.40228 76.375 853.75 C 66.95391 844.61609 54.188851 838.44238 39.875 836.8125 C 36.885219 818.21056 21.530346 804.03125 3.03125 804.03125 z "
       id="clouds3">
      <title
         id="title3217">clouds3</title>
    </path>
  </g>
  <g
     style="display:inline"
     inkscape:label="Clouds2"
     id="g3099"
     inkscape:groupmode="layer">
    <path
       style="fill:#82745a;fill-opacity:1;stroke:none"
       d="m 7.0625,844.4375 c -20.641999,0 -37.375,17.64847 -37.375,39.40625 0,10.6766 4.050572,20.34211 10.59375,27.4375 -2.899419,6.49004 -4.53125,13.58425 -4.53125,21.03125 0,10.09547 2.959616,19.56008 8.09375,27.71875 l 0,80.37495 1046.50005,0 0,-116.9687 c 3.8726,-6.70838 6.0624,-14.34312 6.0624,-22.4375 0,-26.77881 -23.9629,-48.46875 -53.5312,-48.46875 -12.58537,0 -24.14104,3.9485 -33.28125,10.53125 -2.33147,-0.27221 -4.71582,-0.4375 -7.125,-0.4375 -16.53526,0 -31.43591,6.61267 -41.9375,17.1875 -9.75817,-9.334 -23.56168,-15.1875 -38.875,-15.1875 -17.22846,0 -32.5508,7.39494 -42.34375,18.84375 -2.9902,-0.41595 -6.03935,-0.65625 -9.15625,-0.65625 -4.95276,0 -9.76711,0.56639 -14.375,1.59375 -9.62429,-8.52269 -22.28983,-13.71875 -36.15625,-13.71875 -11.21707,0 -21.64319,3.41346 -30.3125,9.21875 -5.14028,-14.74524 -19.4625,-25.375 -36.34375,-25.375 -16.3282,0 -30.26474,9.9441 -35.8125,23.9375 -5.80582,-8.34958 -15.63892,-13.84375 -26.8125,-13.84375 -10.6734,0 -20.14471,5.0236 -26.03125,12.75 -4.98798,-14.39205 -19.9468,-24.84375 -37.625,-24.84375 -16.34549,0 -30.34867,8.93297 -36.3125,21.65625 -6.75706,-5.93178 -15.6146,-9.5625 -25.3125,-9.5625 -1.48536,0 -2.93358,0.11705 -4.375,0.28125 -7.46717,-5.1646 -17.66867,-8.34375 -28.9375,-8.34375 -16.33778,0 -30.47874,6.68685 -37.21875,16.40625 -1.38236,-0.15474 -2.79626,-0.25 -4.21875,-0.25 -10.61551,0 -20.20738,4.41477 -27.15625,11.5625 -5.91986,-7.02687 -15.05115,-11.5625 -25.34375,-11.5625 -16.17886,0 -29.59793,11.14111 -31.96875,25.6875 -3.65785,-0.93034 -7.49366,-1.4375 -11.46875,-1.4375 -8.40325,0 -16.25832,2.21893 -22.90625,6.0625 l -5.46875,0 c -6.90974,-12.05331 -20.11255,-20.21875 -35.28125,-20.21875 -8.263,0 -15.94326,2.44346 -22.34375,6.59375 -6.37266,-10.07229 -17.08196,-16.6875 -29.1875,-16.6875 -9.409,0 -17.94654,3.99282 -24.28125,10.5 -8.66616,-6.54717 -19.94893,-10.5 -32.28125,-10.5 -15.72205,0 -29.71439,6.4391 -38.78125,16.46875 -2.8446,-0.20057 -5.74551,-0.3125 -8.6875,-0.3125 -12.67927,0 -24.555454,1.93353 -34.75,5.28125 -9.42109,-9.13391 -22.186149,-15.30762 -36.5,-16.9375 C 40.915084,858.61856 25.560418,844.4375 7.0625,844.4375 z"
       id="clouds2"
       inkscape:connector-curvature="0">
      <title
         id="title3215">clouds2</title>
    </path>
  </g>
  <g
     inkscape:groupmode="layer"
     id="layer8"
     inkscape:label="Clouds1"
     style="display:inline">
    <path
       style="fill:#ac9977;fill-opacity:1;stroke:none"
       d="m 7.0625,876.75 c -20.641999,0 -37.375,17.64847 -37.375,39.40625 0,10.67406 4.053324,20.34257 10.59375,27.4375 -2.905124,6.49549 -4.53125,13.60778 -4.53125,21.0625 0,10.09978 2.955542,19.55771 8.09375,27.71875 l 0,80.3438 1046.50005,0 0,-116.9688 c 3.8726,-6.70838 6.0624,-14.31187 6.0624,-22.40625 0,-26.77881 -23.9629,-48.5 -53.5312,-48.5 -12.58537,0 -24.14104,3.9485 -33.28125,10.53125 -2.33147,-0.27221 -4.71582,-0.4375 -7.125,-0.4375 -16.53526,0 -31.43591,6.61267 -41.9375,17.1875 -9.75817,-9.334 -23.56168,-15.15625 -38.875,-15.15625 -17.22846,0 -32.5508,7.36369 -42.34375,18.8125 -2.99016,-0.41594 -6.0394,-0.625 -9.15625,-0.625 -4.95276,0 -9.76711,0.56639 -14.375,1.59375 -9.62618,-8.53082 -22.28242,-13.71875 -36.15625,-13.71875 -11.21657,0 -21.64342,3.38269 -30.3125,9.1875 C 724.17222,897.47351 709.85,886.875 692.96875,886.875 c -16.33252,0 -30.29897,9.907 -35.84375,23.90625 -5.80902,-8.32977 -15.62341,-13.8125 -26.78125,-13.8125 -10.67217,0 -20.14456,4.99388 -26.03125,12.71875 -4.98798,-14.39205 -19.9468,-24.84375 -37.625,-24.84375 -16.34549,0 -30.34867,8.93297 -36.3125,21.65625 -6.75706,-5.93178 -15.6146,-9.53125 -25.3125,-9.53125 -1.49587,0 -2.95497,0.0835 -4.40625,0.25 -7.46403,-5.15012 -17.65531,-8.34375 -28.90625,-8.34375 -16.33613,0 -30.47793,6.68844 -37.21875,16.40625 -1.38236,-0.15474 -2.79626,-0.25 -4.21875,-0.25 -10.59994,0 -20.17854,4.43324 -27.125,11.5625 -5.91944,-7.03552 -15.07502,-11.5625 -25.375,-11.5625 -16.16764,0 -29.58428,11.15593 -31.96875,25.6875 -3.65785,-0.93034 -7.49366,-1.4375 -11.46875,-1.4375 -8.40325,0 -16.25832,2.21893 -22.90625,6.0625 l -5.46875,0 c -6.91067,-12.05005 -20.11504,-20.1875 -35.28125,-20.1875 -8.263,0 -15.94326,2.41221 -22.34375,6.5625 -6.37292,-10.07032 -17.08336,-16.6875 -29.1875,-16.6875 -9.41225,0 -17.94588,4.0201 -24.28125,10.53125 -8.66616,-6.54717 -19.94893,-10.53125 -32.28125,-10.53125 -15.72742,0 -29.71467,6.46447 -38.78125,16.5 -2.84494,-0.20062 -5.74514,-0.3125 -8.6875,-0.3125 -12.67927,0 -24.555454,1.90228 -34.75,5.25 -9.42109,-9.13391 -22.186149,-15.30762 -36.5,-16.9375 C 40.915084,890.93106 25.560418,876.75 7.0625,876.75 z"
       id="clouds1"
       inkscape:connector-curvature="0">
      <title
         id="title3213">clouds1</title>
    </path>
  </g>
  <g
     inkscape:groupmode="layer"
     id="layer3"
     inkscape:label="Face"
     transform="translate(0,-52.36218)"
     style="display:none">
    <path
       style="fill:#000080;stroke:none"
       d="m 498.31911,580.49206 4.28572,-10 1.42857,2.85714 z"
       id="path3014"
       inkscape:connector-curvature="0" />
    <path
       style="fill:#000080;stroke:none"
       d="m 496.5334,631.20634 15.71428,-0.35714 0.35715,3.21428 -15.71429,0 z"
       id="path3784"
       inkscape:connector-curvature="0" />
    <path
       style="fill:none;stroke:#000000;stroke-width:1px;stroke-linecap:butt;stroke-linejoin:miter;stroke-opacity:1"
       d="m 359.74768,559.77777 c 27.22383,44.4857 14.47843,39.89111 35,67.14286 20.52157,27.25175 81.09742,46.06199 107.14286,49.28571 70.33116,-14.63343 96.65819,-35.95955 103.57143,-40.71429 21.8119,-12.96672 32.50388,-74.37703 43.57143,-82.85714 10.35326,-23.48011 2.85714,-100.71428 2.85714,-100.71428 l -292.14286,1.42857 c 0,0 -7.22383,76.94287 0,106.42857 z"
       id="path3788"
       inkscape:connector-curvature="0"
       sodipodi:nodetypes="czcccccc" />
  </g>
  <g
     inkscape:groupmode="layer"
     id="Eye1"
     inkscape:label="Eye1"
     style="display:inline"
     transform="translate(0,-52.36218)">
    <g
       inkscape:groupmode="layer"
       id="layer4"
       inkscape:label="Eye"
       style="display:inline">
      <path
         sodipodi:type="arc"
         style="fill:#201d16;fill-opacity:1"
         id="left-eye"
         sodipodi:cx="276.07144"
         sodipodi:cy="274.14789"
         sodipodi:rx="30.357143"
         sodipodi:ry="34.642857"
         d="m 306.42859,274.14789 c 0,19.13272 -13.59136,34.64285 -30.35715,34.64285 -16.76579,0 -30.35714,-15.51013 -30.35714,-34.64285 0,-19.13272 13.59135,-34.64286 30.35714,-34.64286 16.76579,0 30.35715,15.51014 30.35715,34.64286 z"
         transform="translate(146.17625,256.7013)">
        <title
           id="title3223">left-eye</title>
      </path>
    </g>
    <g
       inkscape:groupmode="layer"
       id="layer2"
       inkscape:label="Pupil"
       style="display:inline">
      <path
         sodipodi:type="arc"
         style="fill:#473f31;fill-opacity:1"
         id="left-pupil"
         sodipodi:cx="275.35715"
         sodipodi:cy="295.57648"
         sodipodi:rx="25.357143"
         sodipodi:ry="16.785715"
         d="m 300.71429,295.57648 c 0,9.27049 -11.35278,16.78571 -25.35714,16.78571 -14.00437,0 -25.35715,-7.51522 -25.35715,-16.78571 0,-9.2705 11.35278,-16.78572 25.35715,-16.78572 14.00436,0 25.35714,7.51522 25.35714,16.78572 z"
         transform="matrix(0.920326,0,0,1.0150449,169.33442,248.43044)">
        <title
           id="title3219">left-pupil</title>
      </path>
    </g>
    <g
       inkscape:groupmode="layer"
       id="layer5"
       inkscape:label="Lash"
       style="display:inline">
      <path
         style="fill:#201d16;stroke:none;display:inline;fill-opacity:1"
         d="M 435.875 428.75 L 432.34375 433.8125 L 451.53125 444.40625 L 435.875 428.75 z M 413.5625 433.875 C 407.02406 433.80799 401.84618 435.71093 391.75 438.5625 C 379.97113 441.88934 378.8971 438.84089 378.8125 438.03125 C 379.26461 452.30776 374.06832 459.24735 363.15625 461.09375 C 371.89322 474.50485 374.03125 491.65625 374.03125 491.65625 C 374.03125 491.65625 378.65325 467.6065 383.5625 459.78125 C 388.47174 451.95599 396.35346 447.08837 404.46875 444.40625 C 412.58404 441.72413 419.93503 442.6174 428.8125 445.9375 C 437.68997 449.2576 449 454.53125 449 454.53125 C 449 454.53125 431.62286 436.59209 420.78125 434.625 C 418.07085 434.13323 415.74198 433.89734 413.5625 433.875 z "
         transform="translate(0,52.36218)"
         id="left-eyebrow">
        <title
           id="title3231">left-eyebrow</title>
      </path>
    </g>
    <g
       inkscape:groupmode="layer"
       id="layer6"
       inkscape:label="Brow" />
  </g>
  <g
     style="display:inline"
     inkscape:label="Eye2"
     id="g2992"
     inkscape:groupmode="layer"
     transform="translate(0,-52.36218)">
    <g
       style="display:inline"
       inkscape:label="Eye"
       id="g2994"
       inkscape:groupmode="layer">
      <path
         transform="matrix(-1,0,0,1,861.00701,253.84415)"
         d="m 306.42859,274.14789 c 0,19.13272 -13.59136,34.64285 -30.35715,34.64285 -16.76579,0 -30.35714,-15.51013 -30.35714,-34.64285 0,-19.13272 13.59135,-34.64286 30.35714,-34.64286 16.76579,0 30.35715,15.51014 30.35715,34.64286 z"
         sodipodi:ry="34.642857"
         sodipodi:rx="30.357143"
         sodipodi:cy="274.14789"
         sodipodi:cx="276.07144"
         id="right-eye"
         style="fill:#201d16;fill-opacity:1"
         sodipodi:type="arc">
        <title
           id="title3225">right-eye</title>
      </path>
    </g>
    <g
       style="display:inline"
       inkscape:label="Pupil"
       id="g2999"
       inkscape:groupmode="layer">
      <path
         transform="matrix(-0.920326,0,0,1.0150449,837.84884,245.57329)"
         d="m 300.71429,295.57648 c 0,9.27049 -11.35278,16.78571 -25.35714,16.78571 -14.00437,0 -25.35715,-7.51522 -25.35715,-16.78571 0,-9.2705 11.35278,-16.78572 25.35715,-16.78572 14.00436,0 25.35714,7.51522 25.35714,16.78572 z"
         sodipodi:ry="16.785715"
         sodipodi:rx="25.357143"
         sodipodi:cy="295.57648"
         sodipodi:cx="275.35715"
         id="right-pupil"
         style="fill:#473f31;fill-opacity:1"
         sodipodi:type="arc">
        <title
           id="title3221">right-pupil</title>
      </path>
    </g>
    <g
       style="display:inline"
       inkscape:label="Lash"
       id="g3003"
       inkscape:groupmode="layer">
      <path
         style="fill:#201d16;stroke:none;display:inline;fill-opacity:1"
         d="M 571.3125 425.90625 L 555.65625 441.5625 L 574.84375 430.9375 L 571.3125 425.90625 z M 593.59375 431.03125 C 591.41427 431.05359 589.0854 431.28948 586.375 431.78125 C 575.53339 433.74834 558.15625 451.65625 558.15625 451.65625 C 558.15625 451.65625 569.49753 446.3826 578.375 443.0625 C 587.25247 439.7424 594.60346 438.88038 602.71875 441.5625 C 610.83404 444.24462 618.71576 449.08099 623.625 456.90625 C 628.53425 464.7315 633.15625 488.8125 633.15625 488.8125 C 633.15625 488.8125 635.29428 471.62985 644.03125 458.21875 C 633.11977 456.37245 627.92353 449.46245 628.375 435.1875 C 628.2904 435.99714 627.21637 439.01434 615.4375 435.6875 C 605.34132 432.83593 600.13219 430.96424 593.59375 431.03125 z "
         transform="translate(0,52.36218)"
         id="right-eyebrow">
        <title
           id="title3229">right-eyebrow</title>
      </path>
    </g>
    <g
       inkscape:label="Brow"
       id="g3007"
       inkscape:groupmode="layer"
       style="display:inline" />
  </g>
  <g
     inkscape:groupmode="layer"
     id="layer1"
     inkscape:label="Square"
     sodipodi:insensitive="true"
     style="display:inline">
    <rect
       style="fill:none;stroke:#ff0000;stroke-width:2.05380273;stroke-opacity:1"
       id="rect3941"
       width="1010.0986"
       height="1010.0988"
       x="-1.9934038"
       y="-2.0444162" />
  </g>
  <style
     type="text/css"
     id="style3194">
        #svg2:target {/* filter: url(#sepia); */}
		#svg2:target #ring {display: none!important;}
		#svg2:target #sky rect {fill: #0A0907 !important;}
		#svg2:target #sky { opacity: 0; }
		#sky:target { opacity: 0; }
		#svg2:target #clouds1 {fill: #AC9977 !important;}
		#svg2:target #clouds2 {fill: #82745A !important;}
		#svg2:target #clouds3 {fill: #605643 !important;}
		#svg2:target #left-eye, #svg2:target #left-eyebrow, #svg2:target #right-eye, #svg2:target #right-eyebrow {fill: #201D16 !important;}
		#svg2:target #left-pupil, #svg2:target #right-pupil {fill: #473F31 !important;}
		#svg2:target #saturn, #svg2:target #saturn_top {fill: url(#saturn_gradient_sepia) !important;}
		#svg2:target #saturn_ring {fill: url(#saturn_ring_gradient_sepia) !important;}
		#svg2:target #jupiter {fill: url(#jupiter_gradient_sepia) !important;}
		#svg2:target #storm {stroke: #B09D7A !important;}
    </style>
</svg>
