<?xml version="1.0" encoding="UTF-8" standalone="no"?>
<!-- Created with Inkscape (http://www.inkscape.org/) -->

<svg
   xmlns:dc="http://purl.org/dc/elements/1.1/"
   xmlns:cc="http://creativecommons.org/ns#"
   xmlns:rdf="http://www.w3.org/1999/02/22-rdf-syntax-ns#"
   xmlns:svg="http://www.w3.org/2000/svg"
   xmlns="http://www.w3.org/2000/svg"
   xmlns:xlink="http://www.w3.org/1999/xlink"
   xmlns:sodipodi="http://sodipodi.sourceforge.net/DTD/sodipodi-0.dtd"
   xmlns:inkscape="http://www.inkscape.org/namespaces/inkscape"
   id="svg2"
   version="1.1"
   inkscape:version="0.91 r13725"
   sodipodi:docname="nep_icon2.svg"
   inkscape:export-filename="C:\Users\Hugh\Google Drive\Acrylic Style\Lucid00AppEngine\pow_icon_64.png"
   inkscape:export-xdpi="5.7600002"
   inkscape:export-ydpi="5.7600002"
   preserveAspectRatio="xMinYMin meet"
   viewbox="0 0 1000 1000"
   width="1000"
   height="1000">
  <title
     id="title5278">Powers</title>
  <defs
     id="defs4">
    <linearGradient
       id="linearGradient4306">
      <stop
         id="stop4308"
         stop-color="#e18e42"
         offset="0"
         style="stop-color:#737373;stop-opacity:0" />
      <stop
         id="stop4310"
         stop-opacity="0"
         stop-color="#e18e42"
         offset="1"
         style="stop-color:#b3b3b3;stop-opacity:0" />
    </linearGradient>
    <linearGradient
       id="saturn_ring_gradient_sepia">
      <stop
         id="stop6230"
         offset="0"
         style="stop-color:#c6b18a;stop-opacity:1;" />
      <stop
         id="stop6232"
         offset="1"
         style="stop-color:#000000;stop-opacity:0;" />
    </linearGradient>
    <linearGradient
       id="jupiter_gradient_sepia">
      <stop
         id="stop5476"
         offset="0"
         style="stop-color:#f3d8a9;stop-opacity:1;" />
      <stop
         style="stop-color:#ffe7b4;stop-opacity:1;"
         offset="0.5"
         id="stop5478" />
      <stop
         id="stop5480"
         offset="1"
         style="stop-color:#bfaa84;stop-opacity:1;" />
    </linearGradient>
    <linearGradient
       id="saturn_gradient_sepia">
      <stop
         id="stop3991"
         offset="0"
         style="stop-color:#f3d8a5;stop-opacity:1;" />
      <stop
         style="stop-color:#ffe3b1;stop-opacity:1;"
         offset="0.5"
         id="stop3997" />
      <stop
         id="stop3995"
         offset="1"
         style="stop-color:#958567;stop-opacity:1;" />
    </linearGradient>
    <filter
       id="sepia">
      <feColorMatrix
         type="matrix"
         values="0.14 0.45 0.05 0 0 0.12 0.39 0.04 0 0 0.08 0.28 0.03 0 0 0 0 0 1 0"
         id="feColorMatrix3189" />
    </filter>
    <filter
       id="grayscale">
      <feColorMatrix
         type="matrix"
         values="0.3333 0.3333 0.3333 0 0 0.3333 0.3333 0.3333 0 0 0.3333 0.3333 0.3333 0 0 0 0 0 1 0"
         id="feColorMatrix3192" />
    </filter>
    <linearGradient
       id="sky_gradient">
      <stop
         style="stop-color:#000426;stop-opacity:1;"
         offset="0"
         id="stop5473" />
      <stop
         style="stop-color:#003c26;stop-opacity:1;"
         offset="1"
         id="stop5475" />
    </linearGradient>
    <linearGradient
       id="saturn_ring_gradient">
      <stop
         style="stop-color:#c6bfb5;stop-opacity:1;"
         offset="0"
         id="stop5373" />
      <stop
         style="stop-color:#000000;stop-opacity:0;"
         offset="1"
         id="stop5375" />
    </linearGradient>
    <linearGradient
       id="sky_ring_gradient_2">
      <stop
         style="stop-color:#000426;stop-opacity:0;"
         offset="0"
         id="stop3909" />
      <stop
         id="stop3915"
         offset="0.5"
         style="stop-color:#000426;stop-opacity:0;" />
      <stop
         style="stop-color:#000426;stop-opacity:0;"
         offset="0.75"
         id="stop3917" />
      <stop
         style="stop-color:#00345b;stop-opacity:1;"
         offset="1"
         id="stop3911" />
    </linearGradient>
    <linearGradient
       id="jupiter_gradient">
      <stop
         style="stop-color:#ffe8a5;stop-opacity:1;"
         offset="0"
         id="stop5496" />
      <stop
         id="stop3900"
         offset="0.5"
         style="stop-color:#ffffa5;stop-opacity:1;" />
      <stop
         style="stop-color:#a87dcd;stop-opacity:1;"
         offset="1"
         id="stop5498" />
    </linearGradient>
    <linearGradient
       id="saturn_gradient">
      <stop
         style="stop-color:#ffe8a5;stop-opacity:1;"
         offset="0"
         id="stop26" />
      <stop
         id="stop28"
         offset="0.5"
         style="stop-color:#ffffa5;stop-opacity:1;" />
      <stop
         style="stop-color:#a87dcd;stop-opacity:1;"
         offset="1"
         id="stop30" />
    </linearGradient>
    <radialGradient
       inkscape:collect="always"
       xlink:href="#sky_gradient"
       id="sky_ring_gradient"
       cx="503.05594"
       cy="503.00494"
       fx="503.05594"
       fy="503.00494"
       r="503.55594"
       gradientUnits="userSpaceOnUse" />
    <linearGradient
       inkscape:collect="always"
       xlink:href="#saturn_gradient"
       id="linearGradient5405-2"
       x1="135.29794"
       y1="227.23331"
       x2="212.19453"
       y2="227.23331"
       gradientUnits="userSpaceOnUse" />
    <linearGradient
       id="jupiter_gradient_sepia-9"
       x1="632.33002"
       x2="948.48999"
       y1="579.23999"
       y2="579.23999"
       gradientUnits="userSpaceOnUse"
       gradientTransform="matrix(0.03034,1.00917,-0.99,0.02977,1611.073,-32.75)">
      <stop
         stop-color="#e9c792"
         offset="0"
         id="stop3518"
         style="stop-color:#fff6c0;stop-opacity:1" />
      <stop
         offset=".02"
         stop-color="#f7d567"
         id="stop3520"
         style="stop-color:#ded4c4;stop-opacity:1" />
      <stop
         offset=".06"
         stop-color="#ffeaa5"
         id="stop3522"
         style="stop-color:#e9d8c2;stop-opacity:1" />
      <stop
         offset=".13"
         stop-color="#fce078"
         id="stop3524"
         style="stop-color:#ffffd3;stop-opacity:1" />
      <stop
         stop-color="#ffe294"
         offset=".19"
         id="stop3526"
         style="stop-color:#e9dbb3;stop-opacity:1" />
      <stop
         offset="0.3128171"
         stop-color="#fff3a5"
         id="stop3528"
         style="stop-color:#f9dead;stop-opacity:1" />
      <stop
         stop-color="#dc9f43"
         offset="0.5"
         id="stop3530"
         style="stop-color:#f0e4cf;stop-opacity:1" />
      <stop
         offset=".75"
         stop-color="#eca14b"
         id="stop3532"
         style="stop-color:#dfc69b;stop-opacity:1" />
      <stop
         stop-color="#aa550d"
         offset="1"
         id="stop3534"
         style="stop-color:#dfc69b;stop-opacity:1" />
    </linearGradient>
    <radialGradient
       id="c"
       cx="981.17999"
       cy="823.91998"
       r="57.139999"
       xlink:href="#a"
       fx="981.17999"
       fy="823.91998"
       gradientTransform="matrix(0.9982,0.05987,-0.02503,0.41732,183.56742,194.465)"
       gradientUnits="userSpaceOnUse" />
    <linearGradient
       id="a">
      <stop
         offset="0"
         stop-color="#e18e42"
         id="stop3513" />
      <stop
         offset="1"
         stop-color="#e18e42"
         stop-opacity="0"
         id="stop3515" />
    </linearGradient>
    <linearGradient
       id="b-1"
       x1="632.33002"
       x2="948.48999"
       y1="579.23999"
       y2="579.23999"
       gradientUnits="userSpaceOnUse"
       gradientTransform="matrix(0.03034,1.00917,-0.99,0.02977,1611.073,-32.75)">
      <stop
         stop-color="#e9c792"
         offset="0"
         id="stop3518-7" />
      <stop
         offset=".02"
         stop-color="#f7d567"
         id="stop3520-4" />
      <stop
         offset=".06"
         stop-color="#ffeaa5"
         id="stop3522-0" />
      <stop
         offset=".13"
         stop-color="#fce078"
         id="stop3524-9" />
      <stop
         stop-color="#ffe294"
         offset=".19"
         id="stop3526-4" />
      <stop
         offset=".25"
         stop-color="#fff3a5"
         id="stop3528-8" />
      <stop
         stop-color="#dc9f43"
         offset=".5"
         id="stop3530-8" />
      <stop
         offset=".75"
         stop-color="#eca14b"
         id="stop3532-2" />
      <stop
         stop-color="#aa550d"
         offset="1"
         id="stop3534-4" />
    </linearGradient>
    <linearGradient
       inkscape:collect="always"
       xlink:href="#jupiter_gradient_sepia-9"
       id="linearGradient4536"
       gradientUnits="userSpaceOnUse"
       gradientTransform="matrix(0.03034,1.00917,-0.99,0.02977,1607.4018,-33.18643)"
       x1="632.33002"
       y1="579.23999"
       x2="947.52765"
       y2="587.86853" />
    <radialGradient
       inkscape:collect="always"
       xlink:href="#saturn_ring_gradient-4"
       id="radialGradient7074"
       cx="173.79492"
       cy="233.37207"
       fx="173.79492"
       fy="233.37207"
       r="64.707031"
       gradientTransform="matrix(1,0,0,0.22201931,-322.28735,92.665542)"
       gradientUnits="userSpaceOnUse" />
    <linearGradient
       id="saturn_ring_gradient-4">
      <stop
         id="stop5375-5"
         offset="0"
         style="stop-color:#717171;stop-opacity:0" />
      <stop
         id="stop5139"
         offset="0.7557345"
         style="stop-color:#5c5c5c;stop-opacity:0.74901961;" />
      <stop
         style="stop-color:#868688;stop-opacity:0.87450981"
         offset="0.87390691"
         id="stop5141" />
      <stop
         id="stop5143"
         offset="1"
         style="stop-color:#565656;stop-opacity:0.9372549;" />
    </linearGradient>
    <linearGradient
       gradientTransform="translate(-322.28735,-88.893406)"
       inkscape:collect="always"
       xlink:href="#saturn_gradient-2"
       id="linearGradient5173"
       x1="172.48355"
       y1="189.60512"
       x2="173.24117"
       y2="264.60895"
       gradientUnits="userSpaceOnUse" />
    <linearGradient
       id="saturn_gradient-2">
      <stop
         id="stop5147"
         offset="0"
         style="stop-color:#797265;stop-opacity:1" />
      <stop
         style="stop-color:#b29b7a;stop-opacity:1"
         offset="0.25"
         id="stop5153" />
      <stop
         id="stop5159"
         offset="0.375"
         style="stop-color:#c4a361;stop-opacity:1" />
      <stop
         style="stop-color:#e7c278;stop-opacity:1"
         offset="0.5"
         id="stop5149" />
      <stop
         id="stop5155"
         offset="0.75"
         style="stop-color:#c4a361;stop-opacity:1" />
      <stop
         style="stop-color:#c3ad70;stop-opacity:1"
         offset="0.8125"
         id="stop5517" />
      <stop
         style="stop-color:#b29b7a;stop-opacity:1"
         offset="0.875"
         id="stop5157" />
      <stop
         id="stop5151"
         offset="1"
         style="stop-color:#797265;stop-opacity:1" />
    </linearGradient>
  </defs>
  <sodipodi:namedview
     id="base"
     pagecolor="#ffffff"
     bordercolor="#666666"
     borderopacity="1.0"
     inkscape:pageopacity="0.0"
     inkscape:pageshadow="2"
     inkscape:zoom="1.4"
     inkscape:cx="866.40382"
     inkscape:cy="252.18622"
     inkscape:document-units="px"
     inkscape:current-layer="g4470"
     showgrid="false"
     inkscape:window-width="1633"
     inkscape:window-height="930"
     inkscape:window-x="-7"
     inkscape:window-y="78"
     inkscape:window-maximized="0"
     borderlayer="true"
     showguides="true"
     inkscape:guide-bbox="true" />
  <metadata
     id="metadata7">
    <rdf:RDF>
      <cc:Work
         rdf:about="">
        <dc:format>image/svg+xml</dc:format>
        <dc:type
           rdf:resource="http://purl.org/dc/dcmitype/StillImage" />
        <dc:title>Powers</dc:title>
        <dc:creator>
          <cc:Agent>
            <dc:title>Lucid00</dc:title>
          </cc:Agent>
        </dc:creator>
        <dc:language>English</dc:language>
        <dc:description>Powers cover.</dc:description>
        <dc:publisher>
          <cc:Agent>
            <dc:title>Acrylic Style</dc:title>
          </cc:Agent>
        </dc:publisher>
        <dc:source>Lucid00.com</dc:source>
      </cc:Work>
    </rdf:RDF>
  </metadata>
  <g
     style="display:inline"
     inkscape:label="Sky"
     id="sky"
     inkscape:groupmode="layer"
     sodipodi:insensitive="true">
    <rect
       y="-0.050999999"
       x="0"
       height="1006.1119"
       width="1006.1119"
       id="rect5369"
       style="fill:#000000;fill-opacity:1;stroke:none;stroke-opacity:1" />
  </g>
  <g
     inkscape:groupmode="layer"
     id="ring"
     inkscape:label="Ring"
     style="display:inline;opacity:0.1"
     sodipodi:insensitive="true">
    <rect
       style="fill:url(#sky_ring_gradient);fill-opacity:1;fill-rule:evenodd;stroke:none"
       id="rect3087"
       width="1006.1119"
       height="1006.1119"
       x="0"
       y="-0.050999999" />
  </g>
  <g
     style="display:inline"
     inkscape:label="Jupiter"
     id="g4470"
     inkscape:groupmode="layer">
    <path
       style="fill:url(#linearGradient4536);fill-opacity:1"
       inkscape:connector-curvature="0"
       d="m 906.22883,945.96357 c -86.44,2.6 -158.65,-66.73 -161.3,-154.84 -2.65,-88.1 65.27,-161.63 151.7,-164.23 86.43,-2.6 158.64997,66.72 161.29997,154.82 2.64,88.1 -65.27997,161.64 -151.69997,164.24 z"
       id="jupiter_body">
      <desc
         id="desc3539"
         style="fill-opacity:1.0">
      Jupiter!!!
    </desc>
      <title
         id="title3541"
         style="fill-opacity:1.0">
      jupiter
    </title>
    </path>
    <path
       style="fill:none;stroke:#846141;stroke-width:1.2;stroke-miterlimit:4;stroke-dasharray:none;stroke-opacity:1"
       inkscape:connector-curvature="0"
       d="m 818.22883,825.52357 c 2.67,-0.92 3.63,0.73 2.85,1.46 -2.1,2 -8.4,2.38 -11.7,1.63 -5.9,-1.34 -4.73,-5.02 0.3,-7.46 7.42,-3.6 19.63,-4.1 26.25,-1.8 8.83,3 6.33,9.3 -3.46,13.4 -12.33,5.24 -30.98,5.8 -40.78,1.95 -11.87,-4.63 -7.96,-13.6 6.62,-19.46 17.18,-6.9 42.38,-7.5 55.32,-2.1 14.93,6.22 9.6,17.9 -9.78,25.44 -22.02,8.56 -53.8,9.25 -69.86,2.27 -18.02,-7.83 -11.26,-22.22 12.93,-31.45 26.8,-10.25 65.2,-11 84.4,-2.45 2.8,1.3 5.2,2.75 7.1,4.34"
       id="jupiter_storm">
      <desc
         id="desc3504">Jupiter's Storm</desc>
      <title
         id="title3545">
      storm
    </title>
    </path>
  </g>
  <g
     style="display:inline"
     inkscape:label="Saturn"
     id="g4337"
     inkscape:groupmode="layer">
    <g
       id="g4439"
       transform="translate(322.23866,88.893423)">
      <ellipse
         id="saturn-8"
         style="display:inline;fill:url(#linearGradient5173);fill-opacity:1;stroke:none"
         cx="-148.54111"
         cy="138.33989"
         rx="38.385796"
         ry="37.375645">
        <title
           id="title4741-9">saturn</title>
      </ellipse>
      <path
         id="saturn_ring-2"
         d="m -185.68188,130.11244 c -16.62553,2.42949 -27.51758,6.43417 -27.51758,10.96875 0,7.40578 28.97086,17.76368 64.70703,17.76368 35.73618,0 64.707042,-10.34874 64.707042,-17.76368 0,-4.53061 -10.84795,-8.52587 -27.414062,-10.95508 0.35821,1.2839 0.62483,2.56888 0.78711,3.84766 6.98383,1.24348 11.179692,2.83404 11.179692,4.56836 0,3.97786 -22.054632,7.20508 -49.259782,7.20508 -27.20514,0 -49.25976,-3.22722 -49.25976,-7.20508 0,-1.74292 4.23499,-3.34172 11.28125,-4.58789 0.20118,-1.32054 0.46231,-2.60272 0.78906,-3.8418 z"
         style="display:inline;fill:url(#radialGradient7074);fill-opacity:1"
         inkscape:connector-curvature="0">
        <title
           id="title4277">saturn_ring</title>
      </path>
    </g>
  </g>
  <g
     inkscape:groupmode="layer"
     id="stars"
     inkscape:label="Stars"
     style="display:inline"
     sodipodi:insensitive="true">
    <path
       sodipodi:type="star"
       style="fill:#ffffff;fill-opacity:1;stroke:none"
       id="path3884"
       sodipodi:sides="4"
       sodipodi:cx="209.10158"
       sodipodi:cy="414.61661"
       sodipodi:r1="3.5714285"
       sodipodi:r2="1.7857141"
       sodipodi:arg1="-0.14189705"
       sodipodi:arg2="0.64350111"
       inkscape:flatsided="false"
       inkscape:rounded="0"
       inkscape:randomized="0"
       d="m 212.63711,414.11153 -2.10696,1.57651 -0.9235,2.4641 -1.5765,-2.10696 -2.46411,-0.9235 2.10697,-1.5765 0.92349,-2.46411 1.57651,2.10697 z" />
    <path
       transform="translate(184.85791,-67.175154)"
       sodipodi:type="star"
       style="fill:#ffffff;fill-opacity:1;stroke:none"
       id="path3884-1"
       sodipodi:sides="4"
       sodipodi:cx="209.10158"
       sodipodi:cy="414.61661"
       sodipodi:r1="3.5714285"
       sodipodi:r2="1.7857141"
       sodipodi:arg1="-0.14189705"
       sodipodi:arg2="0.64350111"
       inkscape:flatsided="false"
       inkscape:rounded="0"
       inkscape:randomized="0"
       d="m 212.63711,414.11153 -2.10696,1.57651 -0.9235,2.4641 -1.5765,-2.10696 -2.46411,-0.9235 2.10697,-1.5765 0.92349,-2.46411 1.57651,2.10697 z" />
    <path
       transform="translate(550.53313,110.61171)"
       sodipodi:type="star"
       style="fill:#ffffff;fill-opacity:1;stroke:none"
       id="path3884-7"
       sodipodi:sides="4"
       sodipodi:cx="209.10158"
       sodipodi:cy="414.61661"
       sodipodi:r1="3.5714285"
       sodipodi:r2="1.7857141"
       sodipodi:arg1="-0.14189705"
       sodipodi:arg2="0.64350111"
       inkscape:flatsided="false"
       inkscape:rounded="0"
       inkscape:randomized="0"
       d="m 212.63711,414.11153 -2.10696,1.57651 -0.9235,2.4641 -1.5765,-2.10696 -2.46411,-0.9235 2.10697,-1.5765 0.92349,-2.46411 1.57651,2.10697 z" />
    <path
       transform="translate(114.14723,-192.43405)"
       sodipodi:type="star"
       style="fill:#ffffff;fill-opacity:1;stroke:none"
       id="path3884-4"
       sodipodi:sides="4"
       sodipodi:cx="209.10158"
       sodipodi:cy="414.61661"
       sodipodi:r1="3.5714285"
       sodipodi:r2="1.7857141"
       sodipodi:arg1="-0.14189705"
       sodipodi:arg2="0.64350111"
       inkscape:flatsided="false"
       inkscape:rounded="0"
       inkscape:randomized="0"
       d="m 212.63711,414.11153 -2.10696,1.57651 -0.9235,2.4641 -1.5765,-2.10696 -2.46411,-0.9235 2.10697,-1.5765 0.92349,-2.46411 1.57651,2.10697 z" />
    <path
       transform="translate(-180.81731,-303.55084)"
       sodipodi:type="star"
       style="fill:#ffffff;fill-opacity:1;stroke:none"
       id="path3884-0"
       sodipodi:sides="4"
       sodipodi:cx="209.10158"
       sodipodi:cy="414.61661"
       sodipodi:r1="3.5714285"
       sodipodi:r2="1.7857141"
       sodipodi:arg1="-0.14189705"
       sodipodi:arg2="0.64350111"
       inkscape:flatsided="false"
       inkscape:rounded="0"
       inkscape:randomized="0"
       d="m 212.63711,414.11153 -2.10696,1.57651 -0.9235,2.4641 -1.5765,-2.10696 -2.46411,-0.9235 2.10697,-1.5765 0.92349,-2.46411 1.57651,2.10697 z" />
    <path
       transform="translate(-9.0913751,-352.03817)"
       sodipodi:type="star"
       style="fill:#ffffff;fill-opacity:1;stroke:none"
       id="path3884-9"
       sodipodi:sides="4"
       sodipodi:cx="209.10158"
       sodipodi:cy="414.61661"
       sodipodi:r1="3.5714285"
       sodipodi:r2="1.7857141"
       sodipodi:arg1="-0.14189705"
       sodipodi:arg2="0.64350111"
       inkscape:flatsided="false"
       inkscape:rounded="0"
       inkscape:randomized="0"
       d="m 212.63711,414.11153 -2.10696,1.57651 -0.9235,2.4641 -1.5765,-2.10696 -2.46411,-0.9235 2.10697,-1.5765 0.92349,-2.46411 1.57651,2.10697 z" />
    <path
       transform="translate(-116.16754,-127.7843)"
       sodipodi:type="star"
       style="fill:#ffffff;fill-opacity:1;stroke:none"
       id="path3884-48"
       sodipodi:sides="4"
       sodipodi:cx="209.10158"
       sodipodi:cy="414.61661"
       sodipodi:r1="3.5714285"
       sodipodi:r2="1.7857141"
       sodipodi:arg1="-0.14189705"
       sodipodi:arg2="0.64350111"
       inkscape:flatsided="false"
       inkscape:rounded="0"
       inkscape:randomized="0"
       d="m 212.63711,414.11153 -2.10696,1.57651 -0.9235,2.4641 -1.5765,-2.10696 -2.46411,-0.9235 2.10697,-1.5765 0.92349,-2.46411 1.57651,2.10697 z" />
    <path
       transform="translate(-116.16755,128.79445)"
       sodipodi:type="star"
       style="fill:#ffffff;fill-opacity:1;stroke:none"
       id="path3884-8"
       sodipodi:sides="4"
       sodipodi:cx="209.10158"
       sodipodi:cy="414.61661"
       sodipodi:r1="3.5714285"
       sodipodi:r2="1.7857141"
       sodipodi:arg1="-0.14189705"
       sodipodi:arg2="0.64350111"
       inkscape:flatsided="false"
       inkscape:rounded="0"
       inkscape:randomized="0"
       d="m 212.63711,414.11153 -2.10696,1.57651 -0.9235,2.4641 -1.5765,-2.10696 -2.46411,-0.9235 2.10697,-1.5765 0.92349,-2.46411 1.57651,2.10697 z" />
    <path
       transform="translate(651.54838,197.48481)"
       sodipodi:type="star"
       style="fill:#ffffff;fill-opacity:1;stroke:none"
       id="path3884-2"
       sodipodi:sides="4"
       sodipodi:cx="209.10158"
       sodipodi:cy="414.61661"
       sodipodi:r1="3.5714285"
       sodipodi:r2="1.7857141"
       sodipodi:arg1="-0.14189705"
       sodipodi:arg2="0.64350111"
       inkscape:flatsided="false"
       inkscape:rounded="0"
       inkscape:randomized="0"
       d="m 212.63711,414.11153 -2.10696,1.57651 -0.9235,2.4641 -1.5765,-2.10696 -2.46411,-0.9235 2.10697,-1.5765 0.92349,-2.46411 1.57651,2.10697 z" />
    <path
       transform="translate(63.639609,203.54573)"
       sodipodi:type="star"
       style="fill:#ffffff;fill-opacity:1;stroke:none"
       id="path3884-45"
       sodipodi:sides="4"
       sodipodi:cx="209.10158"
       sodipodi:cy="414.61661"
       sodipodi:r1="3.5714285"
       sodipodi:r2="1.7857141"
       sodipodi:arg1="-0.14189705"
       sodipodi:arg2="0.64350111"
       inkscape:flatsided="false"
       inkscape:rounded="0"
       inkscape:randomized="0"
       d="m 212.63711,414.11153 -2.10696,1.57651 -0.9235,2.4641 -1.5765,-2.10696 -2.46411,-0.9235 2.10697,-1.5765 0.92349,-2.46411 1.57651,2.10697 z" />
    <path
       transform="translate(352.54323,-224.75894)"
       sodipodi:type="star"
       style="fill:#ffffff;fill-opacity:1;stroke:none"
       id="path3884-5"
       sodipodi:sides="4"
       sodipodi:cx="209.10158"
       sodipodi:cy="414.61661"
       sodipodi:r1="3.5714285"
       sodipodi:r2="1.7857141"
       sodipodi:arg1="-0.14189705"
       sodipodi:arg2="0.64350111"
       inkscape:flatsided="false"
       inkscape:rounded="0"
       inkscape:randomized="0"
       d="m 212.63711,414.11153 -2.10696,1.57651 -0.9235,2.4641 -1.5765,-2.10696 -2.46411,-0.9235 2.10697,-1.5765 0.92349,-2.46411 1.57651,2.10697 z" />
    <path
       transform="translate(227.28433,-388.40365)"
       sodipodi:type="star"
       style="fill:#ffffff;fill-opacity:1;stroke:none"
       id="path3884-17"
       sodipodi:sides="4"
       sodipodi:cx="209.10158"
       sodipodi:cy="414.61661"
       sodipodi:r1="3.5714285"
       sodipodi:r2="1.7857141"
       sodipodi:arg1="-0.14189705"
       sodipodi:arg2="0.64350111"
       inkscape:flatsided="false"
       inkscape:rounded="0"
       inkscape:randomized="0"
       d="m 212.63711,414.11153 -2.10696,1.57651 -0.9235,2.4641 -1.5765,-2.10696 -2.46411,-0.9235 2.10697,-1.5765 0.92349,-2.46411 1.57651,2.10697 z" />
    <path
       transform="translate(736.40119,-273.24626)"
       sodipodi:type="star"
       style="fill:#ffffff;fill-opacity:1;stroke:none"
       id="path3884-11"
       sodipodi:sides="4"
       sodipodi:cx="209.10158"
       sodipodi:cy="414.61661"
       sodipodi:r1="3.5714285"
       sodipodi:r2="1.7857141"
       sodipodi:arg1="-0.14189705"
       sodipodi:arg2="0.64350111"
       inkscape:flatsided="false"
       inkscape:rounded="0"
       inkscape:randomized="0"
       d="m 212.63711,414.11153 -2.10696,1.57651 -0.9235,2.4641 -1.5765,-2.10696 -2.46411,-0.9235 2.10697,-1.5765 0.92349,-2.46411 1.57651,2.10697 z" />
    <path
       transform="translate(461.63972,-311.63206)"
       sodipodi:type="star"
       style="display:inline;fill:#ffffff;fill-opacity:1;stroke:none"
       id="path3884-5-2"
       sodipodi:sides="4"
       sodipodi:cx="209.10158"
       sodipodi:cy="414.61661"
       sodipodi:r1="3.5714285"
       sodipodi:r2="1.7857141"
       sodipodi:arg1="-0.14189705"
       sodipodi:arg2="0.64350111"
       inkscape:flatsided="false"
       inkscape:rounded="0"
       inkscape:randomized="0"
       d="m 212.63711,414.11153 -2.10696,1.57651 -0.9235,2.4641 -1.5765,-2.10696 -2.46411,-0.9235 2.10697,-1.5765 0.92349,-2.46411 1.57651,2.10697 z" />
    <path
       transform="translate(629.32503,-358.09908)"
       sodipodi:type="star"
       style="display:inline;fill:#ffffff;fill-opacity:1;stroke:none"
       id="path3884-11-6"
       sodipodi:sides="4"
       sodipodi:cx="209.10158"
       sodipodi:cy="414.61661"
       sodipodi:r1="3.5714285"
       sodipodi:r2="1.7857141"
       sodipodi:arg1="-0.14189705"
       sodipodi:arg2="0.64350111"
       inkscape:flatsided="false"
       inkscape:rounded="0"
       inkscape:randomized="0"
       d="m 212.63711,414.11153 -2.10696,1.57651 -0.9235,2.4641 -1.5765,-2.10696 -2.46411,-0.9235 2.10697,-1.5765 0.92349,-2.46411 1.57651,2.10697 z" />
    <path
       transform="translate(687.91387,-6.5659912)"
       sodipodi:type="star"
       style="display:inline;fill:#ffffff;fill-opacity:1;stroke:none"
       id="path3884-11-2"
       sodipodi:sides="4"
       sodipodi:cx="209.10158"
       sodipodi:cy="414.61661"
       sodipodi:r1="3.5714285"
       sodipodi:r2="1.7857141"
       sodipodi:arg1="-0.14189705"
       sodipodi:arg2="0.64350111"
       inkscape:flatsided="false"
       inkscape:rounded="0"
       inkscape:randomized="0"
       d="m 212.63711,414.11153 -2.10696,1.57651 -0.9235,2.4641 -1.5765,-2.10696 -2.46411,-0.9235 2.10697,-1.5765 0.92349,-2.46411 1.57651,2.10697 z" />
    <path
       transform="translate(-93.944187,355.06861)"
       sodipodi:type="star"
       style="display:inline;fill:#ffffff;fill-opacity:1;stroke:none"
       id="path3884-11-4"
       sodipodi:sides="4"
       sodipodi:cx="209.10158"
       sodipodi:cy="414.61661"
       sodipodi:r1="3.5714285"
       sodipodi:r2="1.7857141"
       sodipodi:arg1="-0.14189705"
       sodipodi:arg2="0.64350111"
       inkscape:flatsided="false"
       inkscape:rounded="0"
       inkscape:randomized="0"
       d="m 212.63711,414.11153 -2.10696,1.57651 -0.9235,2.4641 -1.5765,-2.10696 -2.46411,-0.9235 2.10697,-1.5765 0.92349,-2.46411 1.57651,2.10697 z" />
    <path
       transform="translate(552.55344,-119.70308)"
       sodipodi:type="star"
       style="display:inline;fill:#ffffff;fill-opacity:1;stroke:none"
       id="path3884-11-5"
       sodipodi:sides="4"
       sodipodi:cx="209.10158"
       sodipodi:cy="414.61661"
       sodipodi:r1="3.5714285"
       sodipodi:r2="1.7857141"
       sodipodi:arg1="-0.14189705"
       sodipodi:arg2="0.64350111"
       inkscape:flatsided="false"
       inkscape:rounded="0"
       inkscape:randomized="0"
       d="m 212.63711,414.11153 -2.10696,1.57651 -0.9235,2.4641 -1.5765,-2.10696 -2.46411,-0.9235 2.10697,-1.5765 0.92349,-2.46411 1.57651,2.10697 z" />
    <path
       transform="translate(225.26402,294.45947)"
       sodipodi:type="star"
       style="display:inline;fill:#ffffff;fill-opacity:1;stroke:none"
       id="path3884-2-8"
       sodipodi:sides="4"
       sodipodi:cx="209.10158"
       sodipodi:cy="414.61661"
       sodipodi:r1="3.5714285"
       sodipodi:r2="1.7857141"
       sodipodi:arg1="-0.14189705"
       sodipodi:arg2="0.64350111"
       inkscape:flatsided="false"
       inkscape:rounded="0"
       inkscape:randomized="0"
       d="m 212.63711,414.11153 -2.10696,1.57651 -0.9235,2.4641 -1.5765,-2.10696 -2.46411,-0.9235 2.10697,-1.5765 0.92349,-2.46411 1.57651,2.10697 z" />
    <path
       transform="translate(457.59909,361.12953)"
       sodipodi:type="star"
       style="display:inline;fill:#ffffff;fill-opacity:1;stroke:none"
       id="path3884-2-81"
       sodipodi:sides="4"
       sodipodi:cx="209.10158"
       sodipodi:cy="414.61661"
       sodipodi:r1="3.5714285"
       sodipodi:r2="1.7857141"
       sodipodi:arg1="-0.14189705"
       sodipodi:arg2="0.64350111"
       inkscape:flatsided="false"
       inkscape:rounded="0"
       inkscape:randomized="0"
       d="m 212.63711,414.11153 -2.10696,1.57651 -0.9235,2.4641 -1.5765,-2.10696 -2.46411,-0.9235 2.10697,-1.5765 0.92349,-2.46411 1.57651,2.10697 z" />
    <path
       transform="translate(372.74629,171.22085)"
       sodipodi:type="star"
       style="display:inline;fill:#ffffff;fill-opacity:1;stroke:none"
       id="path3884-2-2"
       sodipodi:sides="4"
       sodipodi:cx="209.10158"
       sodipodi:cy="414.61661"
       sodipodi:r1="3.5714285"
       sodipodi:r2="1.7857141"
       sodipodi:arg1="-0.14189705"
       sodipodi:arg2="0.64350111"
       inkscape:flatsided="false"
       inkscape:rounded="0"
       inkscape:randomized="0"
       d="m 212.63711,414.11153 -2.10696,1.57651 -0.9235,2.4641 -1.5765,-2.10696 -2.46411,-0.9235 2.10697,-1.5765 0.92349,-2.46411 1.57651,2.10697 z" />
  </g>
  <g
     inkscape:groupmode="layer"
     id="g3927"
     inkscape:label="Clouds3"
     style="display:inline">
    <path
       style="fill:#605643;fill-opacity:1;stroke:none"
       d="m 3.03125,817.23125 c -20.641999,0 -37.375,17.64847 -37.375,39.40625 0,10.67434 4.021774,20.34252 10.5625,27.4375 -2.898673,6.48932 -4.5,13.58526 -4.5,21.03125 0,10.09547 2.959616,19.56008 8.09375,27.71875 l 0,80.375 1046.5,0 0,-117 c 3.861,-6.70054 6.0625,-14.32491 6.0625,-22.40625 0,-26.77881 -23.963,-48.46875 -53.53125,-48.46875 -12.59484,0 -24.16908,3.93955 -33.3125,10.53125 -2.33147,-0.27221 -4.68457,-0.4375 -7.09375,-0.4375 -16.53526,0 -31.43591,6.61267 -41.9375,17.1875 -9.75856,-9.33789 -23.55804,-15.1875 -38.875,-15.1875 -17.22846,0 -32.5508,7.39494 -42.34375,18.84375 -2.9902,-0.41595 -6.0706,-0.65625 -9.1875,-0.65625 -4.96066,0 -9.76042,0.56321 -14.375,1.59375 -9.6227,-8.51594 -22.26474,-13.71875 -36.125,-13.71875 -11.21707,0 -21.64319,3.41346 -30.3125,9.21875 -5.13877,-14.74785 -19.46058,-25.375 -36.34375,-25.375 -16.3282,0 -30.26474,9.9441 -35.8125,23.9375 -5.80582,-8.34958 -15.67017,-13.84375 -26.84375,-13.84375 -10.6734,0 -20.11346,5.0236 -26,12.75 -4.98798,-14.39205 -19.9468,-24.84375 -37.625,-24.84375 -16.34567,0 -30.38003,8.93275 -36.34375,21.65625 -6.75564,-5.92589 -15.58873,-9.5625 -25.28125,-9.5625 -1.48536,0 -2.93358,0.11705 -4.375,0.28125 -7.46717,-5.1646 -17.69992,-8.34375 -28.96875,-8.34375 -16.33778,0 -30.44749,6.68685 -37.1875,16.40625 -1.38236,-0.15474 -2.79626,-0.25 -4.21875,-0.25 -10.61551,0 -20.20738,4.41477 -27.15625,11.5625 -5.91963,-7.03153 -15.07842,-11.5625 -25.375,-11.5625 -16.17886,0 -29.56668,11.14111 -31.9375,25.6875 -3.65785,-0.93034 -7.52491,-1.4375 -11.5,-1.4375 -8.40528,0 -16.25729,2.21721 -22.90625,6.0625 l -5.4375,0 c -6.90974,-12.05331 -20.11255,-20.21875 -35.28125,-20.21875 -8.27112,0 -15.97074,2.43598 -22.375,6.59375 -6.37283,-10.07097 -17.05164,-16.6875 -29.15625,-16.6875 -9.40465,0 -17.94742,3.99816 -24.28125,10.5 -8.66616,-6.54717 -19.94893,-10.5 -32.28125,-10.5 -15.72205,0 -29.71439,6.4391 -38.78125,16.46875 -2.85458,-0.20201 -5.73477,-0.3125 -8.6875,-0.3125 -12.679269,0 -24.555454,1.93353 -34.75,5.28125 -9.42109,-9.13391 -22.186149,-15.30762 -36.5,-16.9375 C 36.885219,831.41056 21.530346,817.23125 3.03125,817.23125 Z"
       id="clouds3"
       inkscape:connector-curvature="0">
      <title
         id="title3217">clouds3</title>
    </path>
  </g>
  <g
     style="display:inline"
     inkscape:label="Clouds2"
     id="g3099"
     inkscape:groupmode="layer">
    <path
       style="fill:#82745a;fill-opacity:1;stroke:none"
       d="m 7.0625,844.4375 c -20.641999,0 -37.375,17.64847 -37.375,39.40625 0,10.6766 4.050572,20.34211 10.59375,27.4375 -2.899419,6.49004 -4.53125,13.58425 -4.53125,21.03125 0,10.09547 2.959616,19.56008 8.09375,27.71875 l 0,80.37495 1046.50005,0 0,-116.9687 c 3.8726,-6.70838 6.0624,-14.34312 6.0624,-22.4375 0,-26.77881 -23.9629,-48.46875 -53.5312,-48.46875 -12.58537,0 -24.14104,3.9485 -33.28125,10.53125 -2.33147,-0.27221 -4.71582,-0.4375 -7.125,-0.4375 -16.53526,0 -31.43591,6.61267 -41.9375,17.1875 -9.75817,-9.334 -23.56168,-15.1875 -38.875,-15.1875 -17.22846,0 -32.5508,7.39494 -42.34375,18.84375 -2.9902,-0.41595 -6.03935,-0.65625 -9.15625,-0.65625 -4.95276,0 -9.76711,0.56639 -14.375,1.59375 -9.62429,-8.52269 -22.28983,-13.71875 -36.15625,-13.71875 -11.21707,0 -21.64319,3.41346 -30.3125,9.21875 -5.14028,-14.74524 -19.4625,-25.375 -36.34375,-25.375 -16.3282,0 -30.26474,9.9441 -35.8125,23.9375 -5.80582,-8.34958 -15.63892,-13.84375 -26.8125,-13.84375 -10.6734,0 -20.14471,5.0236 -26.03125,12.75 -4.98798,-14.39205 -19.9468,-24.84375 -37.625,-24.84375 -16.34549,0 -30.34867,8.93297 -36.3125,21.65625 -6.75706,-5.93178 -15.6146,-9.5625 -25.3125,-9.5625 -1.48536,0 -2.93358,0.11705 -4.375,0.28125 -7.46717,-5.1646 -17.66867,-8.34375 -28.9375,-8.34375 -16.33778,0 -30.47874,6.68685 -37.21875,16.40625 -1.38236,-0.15474 -2.79626,-0.25 -4.21875,-0.25 -10.61551,0 -20.20738,4.41477 -27.15625,11.5625 -5.91986,-7.02687 -15.05115,-11.5625 -25.34375,-11.5625 -16.17886,0 -29.59793,11.14111 -31.96875,25.6875 -3.65785,-0.93034 -7.49366,-1.4375 -11.46875,-1.4375 -8.40325,0 -16.25832,2.21893 -22.90625,6.0625 l -5.46875,0 c -6.90974,-12.05331 -20.11255,-20.21875 -35.28125,-20.21875 -8.263,0 -15.94326,2.44346 -22.34375,6.59375 -6.37266,-10.07229 -17.08196,-16.6875 -29.1875,-16.6875 -9.409,0 -17.94654,3.99282 -24.28125,10.5 -8.66616,-6.54717 -19.94893,-10.5 -32.28125,-10.5 -15.72205,0 -29.71439,6.4391 -38.78125,16.46875 -2.8446,-0.20057 -5.74551,-0.3125 -8.6875,-0.3125 -12.67927,0 -24.555454,1.93353 -34.75,5.28125 -9.42109,-9.13391 -22.186149,-15.30762 -36.5,-16.9375 C 40.915084,858.61856 25.560418,844.4375 7.0625,844.4375 Z"
       id="clouds2"
       inkscape:connector-curvature="0">
      <title
         id="title3215">clouds2</title>
    </path>
  </g>
  <g
     inkscape:groupmode="layer"
     id="layer8"
     inkscape:label="Clouds1"
     style="display:inline">
    <path
       style="fill:#ac9977;fill-opacity:1;stroke:none"
       d="m 7.0625,876.75 c -20.641999,0 -37.375,17.64847 -37.375,39.40625 0,10.67406 4.053324,20.34257 10.59375,27.4375 -2.905124,6.49549 -4.53125,13.60778 -4.53125,21.0625 0,10.09978 2.955542,19.55771 8.09375,27.71875 l 0,80.3438 1046.50005,0 0,-116.9688 c 3.8726,-6.70838 6.0624,-14.31187 6.0624,-22.40625 0,-26.77881 -23.9629,-48.5 -53.5312,-48.5 -12.58537,0 -24.14104,3.9485 -33.28125,10.53125 -2.33147,-0.27221 -4.71582,-0.4375 -7.125,-0.4375 -16.53526,0 -31.43591,6.61267 -41.9375,17.1875 -9.75817,-9.334 -23.56168,-15.15625 -38.875,-15.15625 -17.22846,0 -32.5508,7.36369 -42.34375,18.8125 -2.99016,-0.41594 -6.0394,-0.625 -9.15625,-0.625 -4.95276,0 -9.76711,0.56639 -14.375,1.59375 -9.62618,-8.53082 -22.28242,-13.71875 -36.15625,-13.71875 -11.21657,0 -21.64342,3.38269 -30.3125,9.1875 C 724.17222,897.47351 709.85,886.875 692.96875,886.875 c -16.33252,0 -30.29897,9.907 -35.84375,23.90625 -5.80902,-8.32977 -15.62341,-13.8125 -26.78125,-13.8125 -10.67217,0 -20.14456,4.99388 -26.03125,12.71875 -4.98798,-14.39205 -19.9468,-24.84375 -37.625,-24.84375 -16.34549,0 -30.34867,8.93297 -36.3125,21.65625 -6.75706,-5.93178 -15.6146,-9.53125 -25.3125,-9.53125 -1.49587,0 -2.95497,0.0835 -4.40625,0.25 -7.46403,-5.15012 -17.65531,-8.34375 -28.90625,-8.34375 -16.33613,0 -30.47793,6.68844 -37.21875,16.40625 -1.38236,-0.15474 -2.79626,-0.25 -4.21875,-0.25 -10.59994,0 -20.17854,4.43324 -27.125,11.5625 -5.91944,-7.03552 -15.07502,-11.5625 -25.375,-11.5625 -16.16764,0 -29.58428,11.15593 -31.96875,25.6875 -3.65785,-0.93034 -7.49366,-1.4375 -11.46875,-1.4375 -8.40325,0 -16.25832,2.21893 -22.90625,6.0625 l -5.46875,0 c -6.91067,-12.05005 -20.11504,-20.1875 -35.28125,-20.1875 -8.263,0 -15.94326,2.41221 -22.34375,6.5625 -6.37292,-10.07032 -17.08336,-16.6875 -29.1875,-16.6875 -9.41225,0 -17.94588,4.0201 -24.28125,10.53125 -8.66616,-6.54717 -19.94893,-10.53125 -32.28125,-10.53125 -15.72742,0 -29.71467,6.46447 -38.78125,16.5 -2.84494,-0.20062 -5.74514,-0.3125 -8.6875,-0.3125 -12.67927,0 -24.555454,1.90228 -34.75,5.25 -9.42109,-9.13391 -22.186149,-15.30762 -36.5,-16.9375 C 40.915084,890.93106 25.560418,876.75 7.0625,876.75 Z"
       id="clouds1"
       inkscape:connector-curvature="0">
      <title
         id="title3213">clouds1</title>
    </path>
  </g>
  <g
     inkscape:groupmode="layer"
     id="Eye1"
     inkscape:label="Eye1"
     style="display:inline"
     transform="translate(0,-52.36218)"
     sodipodi:insensitive="true">
    <g
       inkscape:groupmode="layer"
       id="layer4"
       inkscape:label="Eye"
       style="display:inline"
       sodipodi:insensitive="true">
      <ellipse
         style="fill:#201d16;fill-opacity:1"
         id="left-eye"
         transform="translate(146.17625,256.7013)"
         cx="276.07144"
         cy="274.14789"
         rx="30.357143"
         ry="34.642857">
        <title
           id="title3223">left-eye</title>
      </ellipse>
    </g>
    <g
       inkscape:groupmode="layer"
       id="layer2"
       inkscape:label="Pupil"
       style="display:inline"
       sodipodi:insensitive="true">
      <ellipse
         style="fill:#473f31;fill-opacity:1"
         id="left-pupil"
         transform="matrix(0.920326,0,0,1.0150449,169.33442,248.43044)"
         cx="275.35715"
         cy="295.57648"
         rx="25.357143"
         ry="16.785715">
        <title
           id="title3219">left-pupil</title>
      </ellipse>
    </g>
    <g
       inkscape:groupmode="layer"
       id="layer5"
       inkscape:label="Lash"
       style="display:inline">
      <path
         style="display:inline;fill:#201d16;fill-opacity:1;stroke:none"
         d="m 435.875,428.75 -3.53125,5.0625 19.1875,10.59375 L 435.875,428.75 Z m -22.3125,5.125 c -6.53844,-0.067 -11.71632,1.83593 -21.8125,4.6875 -11.77887,3.32684 -12.8529,0.27839 -12.9375,-0.53125 0.45211,14.27651 -4.74418,21.2161 -15.65625,23.0625 8.73697,13.4111 10.875,30.5625 10.875,30.5625 0,0 4.622,-24.04975 9.53125,-31.875 4.90924,-7.82526 12.79096,-12.69288 20.90625,-15.375 8.11529,-2.68212 15.46628,-1.78885 24.34375,1.53125 8.87747,3.3201 20.1875,8.59375 20.1875,8.59375 0,0 -17.37714,-17.93916 -28.21875,-19.90625 -2.7104,-0.49177 -5.03927,-0.72766 -7.21875,-0.75 z"
         transform="translate(0,52.36218)"
         id="left-eyebrow"
         inkscape:connector-curvature="0">
        <title
           id="title3231">left-eyebrow</title>
      </path>
    </g>
    <g
       inkscape:groupmode="layer"
       id="layer6"
       inkscape:label="Brow"
       sodipodi:insensitive="true" />
  </g>
  <g
     style="display:inline"
     inkscape:label="Eye2"
     id="g2992"
     inkscape:groupmode="layer"
     transform="translate(0,-52.36218)"
     sodipodi:insensitive="true">
    <g
       style="display:inline"
       inkscape:label="Eye"
       id="g2994"
       inkscape:groupmode="layer"
       sodipodi:insensitive="true">
      <ellipse
         transform="matrix(-1,0,0,1,861.00701,253.84415)"
         id="right-eye"
         style="fill:#201d16;fill-opacity:1"
         cx="276.07144"
         cy="274.14789"
         rx="30.357143"
         ry="34.642857">
        <title
           id="title3225">right-eye</title>
      </ellipse>
    </g>
    <g
       style="display:inline"
       inkscape:label="Pupil"
       id="g2999"
       inkscape:groupmode="layer"
       sodipodi:insensitive="true">
      <ellipse
         transform="matrix(-0.920326,0,0,1.0150449,837.84884,245.57329)"
         id="right-pupil"
         style="fill:#473f31;fill-opacity:1"
         cx="275.35715"
         cy="295.57648"
         rx="25.357143"
         ry="16.785715">
        <title
           id="title3221">right-pupil</title>
      </ellipse>
    </g>
    <g
       style="display:inline"
       inkscape:label="Lash"
       id="g3003"
       inkscape:groupmode="layer">
      <path
         style="display:inline;fill:#201d16;fill-opacity:1;stroke:none"
         d="m 571.3125,425.90625 -15.65625,15.65625 19.1875,-10.625 -3.53125,-5.03125 z m 22.28125,5.125 c -2.17948,0.0223 -4.50835,0.25823 -7.21875,0.75 -10.84161,1.96709 -28.21875,19.875 -28.21875,19.875 0,0 11.34128,-5.27365 20.21875,-8.59375 8.87747,-3.3201 16.22846,-4.18212 24.34375,-1.5 8.11529,2.68212 15.99701,7.51849 20.90625,15.34375 4.90925,7.82525 9.53125,31.90625 9.53125,31.90625 0,0 2.13803,-17.18265 10.875,-30.59375 -10.91148,-1.8463 -16.10772,-8.7563 -15.65625,-23.03125 -0.0846,0.80964 -1.15863,3.82684 -12.9375,0.5 -10.09618,-2.85157 -15.30531,-4.72326 -21.84375,-4.65625 z"
         transform="translate(0,52.36218)"
         id="right-eyebrow"
         inkscape:connector-curvature="0">
        <title
           id="title3229">right-eyebrow</title>
      </path>
    </g>
    <g
       inkscape:label="Brow"
       id="g3007"
       inkscape:groupmode="layer"
       style="display:inline"
       sodipodi:insensitive="true" />
  </g>
  <g
     inkscape:groupmode="layer"
     id="layer3"
     inkscape:label="Powers"
     style="display:none"
     sodipodi:insensitive="true">
    <path
       style="fill:#ffffff;filter:url(#text-shadow)"
       inkscape:connector-curvature="0"
       d="m 310.51536,563.6141 0,-28 49,0 0,8 8,0 0,24 -8,0 0,8 -32,0 0,16 -17,0 0,-28 z m 40,-8 0,-12 -23,0 0,24 23,0 0,-12 z m 32,32 0,-4 -8,0 0,-24 8,0 0,-8 41,0 0,8 8,0 0,24 -8,0 0,8 -41,0 0,-4 z m 32,-16 0,-12 -23,0 0,24 23,0 0,-12 z m 32,16 0,-4 -8,0 0,-32 9,0 0,32 7,0 0,-32 17,0 0,32 7,0 0,-32 17,0 0,40 -49,0 0,-4 z m 64,0 0,-4 -8,0 0,-24 8,0 0,-8 41,0 0,8 8,0 0,16 -41,0 0,8 33,0 0,8 -41,0 0,-4 z m 32,-24 0,-4 -23,0 0,8 23,0 0,-4 z m 32,8 0,-20 17,0 0,8 7,0 0,-8 25,0 0,8 -24,0 0,8 -8,0 0,24 -17,0 0,-20 z m 56,16 0,-4 40,0 0,-8 -32,0 0,-8 -8,0 0,-8 8,0 0,-8 41,0 0,8 -32,0 0,8 32,0 0,8 8,0 0,8 -8,0 0,8 -49,0 0,-4 z"
       id="path5156" />
  </g>
  <g
     inkscape:groupmode="layer"
     id="layer9"
     inkscape:label="パワーズ"
     style="display:none;opacity:0.25"
     sodipodi:insensitive="true">
    <path
       style="fill:#ffffff;filter:url(#text-shadow)"
       inkscape:connector-curvature="0"
       d="m 605.91873,521.11458 c 0.57765,0 1.15539,0.23091 1.73314,0.6932 0.46205,0.46204 0.69316,1.03964 0.69316,1.73286 0,0.69314 -0.23111,1.27105 -0.69316,1.73326 -0.46215,0.57747 -1.03989,0.75071 -1.73314,0.75071 -0.57766,0 -1.15509,0 -1.73291,-0.57759 -0.46229,-0.57758 -0.75101,-1.15528 -0.75101,-1.73284 0,-0.57783 0.28872,-1.1555 0.80869,-1.73326 0.57762,-0.57747 1.15552,-0.57747 1.73317,-0.57747 z m 1.44418,2.54171 c 0,-0.46204 -0.17319,-0.80887 -0.46218,-1.15522 -0.28875,-0.23125 -0.57752,-0.34669 -0.982,-0.34669 -0.40441,0 -0.75078,0.11544 -1.03974,0.4043 -0.28879,0.57767 -0.40423,0.57767 -0.40423,1.1555 0,0.57756 0.11544,0.92412 0.40423,1.15518 0.28896,0.34668 0.57785,0.46205 1.03974,0.46205 0.40448,0 0.75109,-0.11537 1.03995,-0.40436 0.57738,-0.23093 0.57738,-0.57754 0.57738,-0.982 z m 0.80888,12.53507 -1.73323,0.86663 c -1.73276,-3.75484 -3.8705,-7.62525 -6.46968,-11.66876 l 1.32862,-0.80858 c 2.31073,3.2925 4.62123,7.16294 6.93178,11.55334 z m -11.78441,-10.80213 c -2.19526,5.08364 -4.3324,8.95396 -6.3543,11.55323 l -1.61748,-1.03954 c 2.19499,-2.88856 4.33253,-6.5855 6.35442,-11.2068 z m 32.92682,-2.1374 c 0,5.48769 -0.80858,9.47389 -2.48398,11.95784 -1.73291,2.48398 -4.04364,4.3323 -7.0474,5.60323 l -1.15551,-1.5597 c 2.42646,-0.92422 4.50575,-2.42608 6.12342,-4.39041 1.32841,-2.02167 2.31045,-5.31424 2.42604,-9.82011 l -11.03343,0 0,6.93181 -1.84828,0 0,-8.66472 z m 24.83962,8.49176 -18.83198,0 0,-1.73291 18.65846,0 z m 24.26178,-8.54934 -1.44436,1.03953 -2.48392,-3.06144 1.15537,-0.98215 c 0.86667,0.86652 1.73335,1.84859 2.6574,3.00406 z m -2.19499,1.61744 -1.15543,1.03968 -2.4261,-3.06143 1.15506,-1.04009 c 0.80893,0.98227 1.73323,2.02181 2.484,3.06184 z m 0.40438,13.51729 -1.38665,1.32852 c -2.59926,-2.71504 -5.08325,-5.08343 -7.33624,-7.04756 -2.31051,2.65738 -5.08336,4.9679 -8.20268,6.93203 l -1.38643,-1.44403 c 6.35434,-3.81265 10.39785,-8.08726 12.36184,-12.93985 l -10.22471,0 0,-1.73277 12.3043,0 0,1.61736 c -1.03956,2.31068 -2.3106,4.33262 -3.69691,6.23871 3.00367,2.6574 5.48765,5.02582 7.5095,7.16301 z"
       id="path5206" />
  </g>
  <g
     inkscape:groupmode="layer"
     id="layer188888888888"
     inkscape:label="足りないパワーを"
     style="display:inline;opacity:0.25">
    <path
       style="fill:#ffffff;filter:url(#text-shadow);fill-opacity:1"
       d="m 413.15239,691.65929 c 2.625,-2.22 4.133,-5.5 4.523,-9.844 l 1.993,0.305 c -0.188,1.5 -0.485,2.89 -0.89,4.19 1.272,2.44 3.17,3.87 5.694,4.28 l 0,-10.959 -6.187,0 0,1.01 -1.9,0 0,-9.4 17.417,0 0,9.4 -1.9,0 0,-1.01 -5.484,0 0,4.43 8.79,0 0,1.71 -8.79,0 0,4.96 c 2.984,0.08 6.43,0.043 10.336,-0.105 -0.25,0.625 -0.477,1.273 -0.68,1.945 -4.016,0.03 -7.4,0.018 -10.15,-0.045 -3.63,-0.047 -6.264,-1.445 -7.897,-4.195 -0.89,2.022 -2.102,3.74 -3.633,5.155 -0.36,-0.61 -0.773,-1.22 -1.242,-1.828 z m 18.75,-18.703 -13.617,0 0,4.97 13.617,0 z m 22.63,-1.887 c 0.413,2.82 0.62,5.395 0.62,7.723 0,2.52 -0.2,4.53 -0.598,6.05 -0.398,1.51 -1.107,2.89 -2.127,4.14 -1.02,1.25 -2.423,2.36 -4.212,3.35 l -1.348,-1.46 c 2.586,-1.48 4.293,-3.01 5.12,-4.58 0.83,-1.57 1.243,-4.01 1.243,-7.33 0,-2.13 -0.2,-4.69 -0.598,-7.665 z m -4.444,10.112 c -0.6,1.04 -1.31,1.933 -2.126,2.68 -0.816,0.745 -1.568,1.118 -2.255,1.118 -0.594,0 -1.135,-0.256 -1.623,-0.767 -0.49,-0.51 -0.733,-1.91 -0.733,-4.2 0,-2.58 0.34,-5.48 1.02,-8.69 l 1.85,0.37 c -0.63,3.01 -0.94,5.77 -0.94,8.29 0,1.21 0.03,2.02 0.09,2.43 0.06,0.41 0.21,0.62 0.46,0.62 0.21,0 0.62,-0.32 1.25,-0.98 0.62,-0.65 1.16,-1.36 1.61,-2.15 z m 24.434,-4.592 c -2.593,0.39 -4.143,0.61 -4.65,0.656 -1.736,4.172 -3.376,7.594 -4.923,10.266 l -1.652,-1.008 c 1.46,-2.375 2.937,-5.39 4.43,-9.047 -1.555,0.133 -2.81,0.2 -3.763,0.2 l -0.14,-1.735 c 1.773,-0.086 3.316,-0.192 4.63,-0.317 0.42,-1.015 1.003,-2.636 1.745,-4.863 l 1.828,0.434 c -0.89,2.593 -1.38,3.984 -1.465,4.17 1.5,-0.147 2.738,-0.307 3.715,-0.48 z m 8.66,1.85 -1.077,1.582 c -1.79,-1.177 -3.89,-2.34 -6.305,-3.48 l 0.973,-1.334 c 2.01,0.812 4.15,1.89 6.41,3.234 z m -0.983,10.15 -1.008,1.64 c -1.43,-1.054 -2.77,-1.855 -4.01,-2.402 -0.22,2.883 -1.65,4.324 -4.28,4.324 -1.32,0 -2.37,-0.353 -3.16,-1.06 -0.8,-0.707 -1.19,-1.565 -1.19,-2.573 0,-0.984 0.36,-1.82 1.09,-2.507 0.72,-0.688 1.78,-1.032 3.17,-1.032 0.77,0 1.63,0.11 2.59,0.328 l 0,-5.52 1.81,0 0,6.07 c 1.37,0.548 3.03,1.458 4.97,2.732 z m -6.856,-1.383 c -0.86,-0.29 -1.72,-0.434 -2.56,-0.434 -0.86,0 -1.46,0.19 -1.82,0.57 -0.35,0.38 -0.53,0.79 -0.53,1.24 0,0.51 0.22,0.93 0.65,1.27 0.43,0.34 1.01,0.51 1.74,0.51 0.89,0 1.55,-0.23 1.98,-0.68 0.43,-0.45 0.62,-1.27 0.57,-2.45 z m 20.88,-1.805 c -0.73,1.172 -1.43,2.11 -2.08,2.82 -0.65,0.706 -1.14,1.14 -1.47,1.305 -0.32,0.164 -0.69,0.246 -1.11,0.246 -1.08,0 -1.94,-0.56 -2.56,-1.68 -0.62,-1.12 -0.93,-2.78 -0.93,-4.98 0,-2.74 0.68,-6.06 2.04,-9.96 l 1.85,0.6 c -1.28,3.53 -1.92,6.7 -1.92,9.52 0,1.63 0.17,2.79 0.51,3.49 0.34,0.71 0.68,1.06 1.01,1.06 0.66,0 1.71,-1.2 3.13,-3.6 z m 10.56,1.125 -1.86,0.703 c -0.5,-2.508 -1.76,-6.26 -3.77,-11.26 l 1.75,-0.646 c 1.77,4.203 3.07,7.938 3.89,11.203 z m 21.959,-14.975 c 0.653,0 1.24,0.235 1.743,0.708 0.5,0.472 0.76,1.072 0.76,1.798 0,0.727 -0.25,1.338 -0.74,1.834 -0.49,0.496 -1.08,0.745 -1.773,0.745 -0.687,0 -1.28,-0.247 -1.78,-0.74 -0.5,-0.49 -0.75,-1.085 -0.75,-1.78 0,-0.758 0.262,-1.375 0.79,-1.852 0.527,-0.476 1.107,-0.714 1.74,-0.714 z m 1.462,2.588 c 0,-0.414 -0.15,-0.773 -0.446,-1.078 -0.297,-0.304 -0.645,-0.457 -1.043,-0.457 -0.43,0 -0.79,0.145 -1.074,0.434 -0.29,0.29 -0.43,0.637 -0.43,1.043 0,0.414 0.14,0.77 0.43,1.066 0.29,0.297 0.65,0.446 1.08,0.446 0.42,0 0.77,-0.143 1.05,-0.428 0.27,-0.285 0.41,-0.627 0.41,-1.026 z m 0.843,13.067 -1.802,0.88 c -1.76,-3.884 -4.02,-7.93 -6.77,-12.142 l 1.468,-0.808 c 2.46,3.43 4.82,7.453 7.1,12.07 z m -12.19,-11.262 c -2.28,5.313 -4.5,9.32 -6.655,12.024 l -1.66,-1.055 c 2.296,-2.953 4.49,-6.84 6.574,-11.66 z m 34.24,-2.203 c -0.03,5.727 -0.91,9.873 -2.64,12.44 -1.73,2.566 -4.17,4.513 -7.32,5.84 l -1.17,-1.628 c 2.5,-0.992 4.61,-2.52 6.34,-4.588 1.726,-2.066 2.67,-5.474 2.846,-10.224 l -11.8,0 0,7.277 -1.92,0 0,-9.117 z m 25.63,8.93 -19.385,0 0,-1.828 19.384,0 z m 23.4,-0.867 c -3.013,0.796 -5.31,1.515 -6.89,2.156 l 0,4.3 -1.86,0 0,-3.51 c -1.54,0.65 -2.71,1.34 -3.51,2.05 -0.8,0.71 -1.2,1.36 -1.2,1.94 0,0.54 0.267,0.97 0.806,1.27 0.54,0.3 1.82,0.45 3.84,0.45 2.07,0 4.37,-0.22 6.91,-0.65 l 0,1.77 c -2.544,0.434 -4.85,0.652 -6.9,0.652 -2.617,0 -4.36,-0.364 -5.226,-1.094 -0.867,-0.73 -1.3,-1.547 -1.3,-2.446 0,-0.79 0.376,-1.652 1.13,-2.58 0.754,-0.92 2.576,-2.02 5.467,-3.283 0.03,-0.164 0.048,-0.316 0.048,-0.457 0,-0.798 -0.455,-1.196 -1.37,-1.196 -0.773,0 -1.72,0.29 -2.84,0.88 -1.122,0.58 -2.296,1.51 -3.523,2.783 l -1.36,-1.53 c 2.13,-1.48 3.9,-3.767 5.296,-6.87 -2.813,0.046 -4.555,0.06 -5.227,0.046 l -0.196,-1.744 c 1.618,0.04 3.7,0 6.246,-0.115 0.524,-1.134 1.02,-2.43 1.49,-3.89 l 1.745,0.62 c -0.28,1.04 -0.67,2.085 -1.14,3.14 2.19,-0.086 4.51,-0.285 6.96,-0.598 l 0.24,1.676 c -2.5,0.342 -5.15,0.592 -7.95,0.75 -0.96,1.873 -1.61,3.096 -1.94,3.666 0.86,-0.36 1.67,-0.53 2.44,-0.53 1.81,0 2.81,0.86 3.01,2.59 1.78,-0.68 3.85,-1.33 6.21,-1.95 z"
       id="path165"
       inkscape:connector-curvature="0" />
  </g>
  <g
     inkscape:groupmode="layer"
     id="layer1999999999"
     inkscape:label="Not Enough Powers"
     style="display:inline">
    <path
       style="fill:#ffffff;filter:url(#text-shadow)"
       d="m 437.67522,524.26917 0,42 13,0 0,-18 5,0 0,6 6,0 0,6 6,0 0,6 13,0 0,-42 -13,0 0,18 -5,0 0,-6 -6,0 0,-6 -6,0 0,-6 -13,0 z m 114,0 0,12 -12,0 0,6 12,0 0,24 13,0 0,-24 12,0 0,-6 -12,0 0,-12 -13,0 z m -60,12 0,6 -6,0 0,18 6,0 0,6 31,0 0,-6 6,0 0,-18 -6,0 0,-6 -31,0 z m 7,6 17,0 0,18 -17,0 0,-18 z m -133,30 0,42 43,0 0,-6 -30,0 0,-12 24,0 0,-6 -24,0 0,-12 30,0 0,-6 -43,0 z m 240,0 0,42 13,0 0,-24 17,0 0,24 13,0 0,-24 -6,0 0,-6 -24,0 0,-12 -13,0 z m -192,12 0,30 13,0 0,-24 17,0 0,24 13,0 0,-24 -6,0 0,-6 -37,0 z m 54,0 0,6 -6,0 0,18 6,0 0,6 31,0 0,-6 6,0 0,-18 -6,0 0,-6 -31,0 z m 42,0 0,24 6,0 0,6 37,0 0,-30 -13,0 0,24 -17,0 0,-24 -13,0 z m 54,0 0,6 -6,0 0,12 6,0 0,6 24,0 0,6 -24,0 0,6 31,0 0,-6 6,0 0,-30 -37,0 z m -89,6 17,0 0,18 -17,0 0,-18 z m 96,0 17,0 0,12 -17,0 0,-12 z m -205,30 0,42 13,0 0,-12 24,0 0,-6 6,0 0,-18 -6,0 0,-6 -37,0 z m 13,6 17,0 0,18 -17,0 0,-18 z m 41,6 0,6 -6,0 0,18 6,0 0,6 31,0 0,-6 6,0 0,-18 -6,0 0,-6 -31,0 z m 42,0 0,24 6,0 0,6 37,0 0,-30 -13,0 0,24 -5,0 0,-24 -13,0 0,24 -5,0 0,-24 -7,0 z m 54,0 0,6 -6,0 0,18 6,0 0,6 31,0 0,-6 -24,0 0,-6 30,0 0,-12 -6,0 0,-6 -31,0 z m 48,0 0,30 13,0 0,-18 6,0 0,-6 18,0 0,-6 -19,0 0,6 -5,0 0,-6 -13,0 z m 48,0 0,6 -6,0 0,6 6,0 0,6 24,0 0,6 -30,0 0,6 37,0 0,-6 6,0 0,-6 -6,0 0,-6 -24,0 0,-6 24,0 0,-6 -31,0 z m -185,6 17,0 0,18 -17,0 0,-18 z m 96,0 17,0 0,6 -17,0 0,-6 z"
       id="path162"
       inkscape:connector-curvature="0" />
  </g>
  <g
     inkscape:groupmode="layer"
     id="layer1"
     inkscape:label="Lucid00"
     style="display:inline">
    <path
       style="fill:#ffffff;filter:url(#text-shadow)"
       inkscape:connector-curvature="0"
       d="m 391.06359,383.1651 0,29.72307 26.18461,0 0,-4.24619 -16.98461,0 0,-25.47688 -9.2,0 z m 110.4,0 0,4.24614 9.2,0 0,-4.24614 -9.2,0 z m 42.4615,0 0,8.49227 -16.98457,0 0,4.24619 -4.24613,0 0,12.73842 4.24613,0 0,4.24619 26.18457,0 0,-29.72307 -9.2,0 z m 21.23078,0 0,4.24614 -4.24609,0 0,4.24613 -3.53847,0 0,12.73852 3.53847,0 0,4.24609 4.24609,0 0,4.24619 13.44622,0 0,-4.24619 4.24611,0 0,-4.24609 4.24619,0 0,-12.73852 -4.24619,0 0,-4.24613 -4.24611,0 0,-4.24614 -13.44622,0 z m 33.96922,0 0,4.24614 -4.24611,0 0,4.24613 -4.24619,0 0,12.73852 4.24619,0 0,4.24609 4.24611,0 0,4.24619 13.44622,0 0,-4.24619 4.24609,0 0,-4.24609 4.24619,0 0,-12.73852 -4.24619,0 0,-4.24613 -4.24609,0 0,-4.24614 -13.44622,0 z m -33.2615,4.24614 7.78461,0 0,4.24613 4.24619,0 0,16.98461 -7.78461,0 0,-4.24609 -4.24619,0 0,-16.98465 z m 33.9692,0 7.78461,0 0,4.24613 4.24619,0 0,16.98461 -7.78461,0 0,-4.24609 -4.24619,0 0,-16.98465 z m -179.04613,4.24613 0,16.98461 4.24613,0 0,4.24619 26.18461,0 0,-21.2308 -9.2,0 0,16.98461 -12.03074,0 0,-16.98461 -9.2,0 z m 38.21543,0 0,4.24619 -4.24622,0 0,12.73842 4.24622,0 0,4.24619 26.18457,0 0,-4.24619 -21.23079,0 0,-12.73842 21.23079,0 0,-4.24619 -26.18457,0 z m 38.21531,0 0,4.24619 4.24619,0 0,12.73842 -8.49228,0 0,4.24619 26.18456,0 0,-4.24619 -8.49228,0 0,-16.98461 -13.44619,0 z m 34.67699,4.24619 12.0307,0 0,12.73842 -12.0307,0 0,-12.73842 z"
       id="path5072" />
  </g>
  <filter
     id="text-shadow">
    <feGaussianBlur
       in="SourceAlpha"
       stdDeviation="1"
       id="feGaussianBlur3298" />
    <feOffset
       dx="0"
       dy="2"
       result="offsetblur"
       id="feOffset3300" />
    <feFlood
       flood-color="#E4A400"
       id="feFlood3302" />
    <feComposite
       in2="offsetblur"
       operator="in"
       id="feComposite3304" />
    <feMerge
       id="feMerge3306">
      <feMergeNode
         id="feMergeNode3308" />
      <feMergeNode
         in="SourceGraphic"
         id="feMergeNode3310" />
    </feMerge>
  </filter>
</svg>
