<?xml version="1.0" encoding="windows-1252"?>
<!-- Generator: Adobe Illustrator 19.0.0, SVG Export Plug-In . SVG Version: 6.00 Build 0)  -->
<svg version="1.1" id="Layer_1" xmlns="http://www.w3.org/2000/svg" xmlns:xlink="http://www.w3.org/1999/xlink" x="0px" y="0px" viewBox="0 0 460 460" style="enable-background:new 0 0 460 460;" xml:space="preserve">
<g id="XMLID_498_">
	<path id="XMLID_500_" style="fill:#7BE3FF;" d="M230,0C102.974,0,0,102.975,0,230c0,97.791,61.037,181.315,147.087,214.587   l297.5-297.5C411.316,61.037,327.791,0,230,0z"/>
	<path id="XMLID_501_" style="fill:#12B5FF;" d="M460,230c0-29.234-5.467-57.188-15.413-82.913L377.5,80l-295,300l64.587,64.587   C172.812,454.534,200.766,460,230,460C357.026,460,460,357.025,460,230z"/>
	<polygon id="XMLID_502_" style="fill:#FC5A37;" points="82.5,80 82.5,380 180.833,380 190.833,230 180.833,80  "/>
	<path id="XMLID_503_" style="fill:#DB3916;" d="M131.667,320c11.05,0,20,8.95,20,20c0,11.04-8.95,20-20,20c-11.04,0-20-8.96-20-20   C111.667,328.95,120.627,320,131.667,320z"/>
	<polygon id="XMLID_504_" style="fill:#1D54BD;" points="279.167,380 377.5,380 377.5,80 279.167,80 269.167,230  "/>
	<path id="XMLID_505_" style="fill:#12398F;" d="M328.333,320c11.05,0,20,8.95,20,20c0,11.04-8.95,20-20,20c-11.04,0-20-8.96-20-20   C308.333,328.95,317.293,320,328.333,320z"/>
	<polygon id="XMLID_506_" style="fill:#FFFFFF;" points="102.5,140 102.5,230 160.833,230 160.833,140 131.667,130  "/>
	<polygon id="XMLID_507_" style="fill:#E0F8FF;" points="299.167,140 299.167,230 357.5,230 357.5,140 328.333,130  "/>
	<rect id="XMLID_508_" x="102.5" y="100" style="fill:#73A7E6;" width="58.333" height="40"/>
	<rect id="XMLID_509_" x="299.167" y="100" style="fill:#487ED2;" width="58.333" height="40"/>
	<polygon id="XMLID_510_" style="fill:#FFC85F;" points="180.833,80 180.833,380 230,380 240,230 230,80  "/>
	<rect id="XMLID_511_" x="230" y="80" style="fill:#FFAE46;" width="49.167" height="300"/>
	<path id="XMLID_512_" style="fill:#FE843F;" d="M210,340c0,11.04,8.96,20,20,20l10-20l-10-20C218.96,320,210,328.95,210,340z"/>
	<polygon id="XMLID_515_" style="fill:#FFFFFF;" points="200.833,140 200.833,230 230,230 240,185 230,140 215.417,130  "/>
	<polygon id="XMLID_516_" style="fill:#73A7E6;" points="230,100 200.833,100 200.833,140 230,140 240,120  "/>
	<polygon id="XMLID_517_" style="fill:#E0F8FF;" points="230,230 259.167,230 259.167,140 244.583,130 230,140  "/>
	<rect id="XMLID_518_" x="230" y="100" style="fill:#487ED2;" width="29.167" height="40"/>
	<path id="XMLID_519_" style="fill:#FC5A37;" d="M250,340c0-11.05-8.95-20-20-20v40C241.05,360,250,351.04,250,340z"/>
</g>
<g>
</g>
<g>
</g>
<g>
</g>
<g>
</g>
<g>
</g>
<g>
</g>
<g>
</g>
<g>
</g>
<g>
</g>
<g>
</g>
<g>
</g>
<g>
</g>
<g>
</g>
<g>
</g>
<g>
</g>
</svg>