<?xml version="1.0" encoding="iso-8859-1"?>
<!-- Generator: Adobe Illustrator 16.0.0, SVG Export Plug-In . SVG Version: 6.00 Build 0)  -->
<!DOCTYPE svg PUBLIC "-//W3C//DTD SVG 1.1//EN" "http://www.w3.org/Graphics/SVG/1.1/DTD/svg11.dtd">
<svg version="1.1" id="&#x56FE;&#x5C42;_1" xmlns="http://www.w3.org/2000/svg" xmlns:xlink="http://www.w3.org/1999/xlink" x="0px"
	 y="0px" width="64px" height="64px" viewBox="0 0 64 64" style="enable-background:new 0 0 64 64;" xml:space="preserve">
<linearGradient id="SVGID_1_" gradientUnits="userSpaceOnUse" x1="1.562" y1="31.9531" x2="63" y2="31.9531">
	<stop  offset="0" style="stop-color:#965FF9"/>
	<stop  offset="1" style="stop-color:#C076E9"/>
</linearGradient>
<path style="fill-rule:evenodd;clip-rule:evenodd;fill:url(#SVGID_1_);" d="M63,27.723c-0.253,0.408-0.622,0.515-1.093,0.513
	c-3.869-0.015-7.737-0.008-11.605-0.01c-0.886,0-1.041-0.141-1.198-1.03c-1.059-6.003-3.648-11.202-8.142-15.382
	c-2.554-2.377-5.502-4.095-8.866-5.06c-0.303-0.086-0.691-0.062-0.99,0.048c-5.935,2.175-10.317,6.196-13.094,11.776
	c-4.922,9.889-4.495,19.679,1.392,29.071c2.723,4.341,6.569,7.466,11.393,9.326c0.567,0.22,1.075,0.234,1.653,0.049
	c4.443-1.418,8.057-4.031,10.972-7.629c3.054-3.769,4.9-8.087,5.692-12.861c0.101-0.607,0.398-0.902,1.019-0.902
	c3.972,0.004,7.941-0.008,11.912,0.021c0.319,0.002,0.638,0.273,0.956,0.422c0,0.245,0,0.491,0,0.736
	c-0.045,0.13-0.109,0.255-0.133,0.389c-0.989,5.381-3.126,10.225-6.788,14.33c-3.843,4.306-8.553,7.109-14.303,8.021
	c-1.105,0.175-2.229,0.239-3.344,0.354c-0.164,0-0.327,0-0.492,0c-0.303-0.034-0.607-0.058-0.908-0.105
	c-1.593-0.25-3.183-0.521-4.777-0.754c-0.47-0.069-0.97-0.129-1.427-0.042c-3.241,0.631-6.473,0.638-9.68-0.156
	C14.295,57.15,9.23,53.038,5.673,47.05c-3.684-6.202-4.838-12.943-3.678-20.034C3.161,19.88,6.427,13.865,12.179,9.379
	c5.526-4.312,11.783-5.844,18.708-4.507c0.438,0.084,0.936,0.063,1.37-0.051C38.123,3.279,43.76,3.896,49.078,6.78
	c6.602,3.58,10.727,9.196,12.931,16.289c0.412,1.321,0.665,2.692,0.991,4.04C63,27.313,63,27.518,63,27.723z M28.765,57.791
	c-0.262-0.14-0.349-0.189-0.44-0.234c-4.579-2.238-8.157-5.598-10.755-9.942c-4.632-7.743-5.583-16.024-3.009-24.626
	c2.153-7.198,6.484-12.769,13.174-16.381c0.278-0.149,0.561-0.289,0.953-0.49c-0.25-0.058-0.365-0.1-0.481-0.109
	c-1.926-0.145-3.846-0.108-5.746,0.271c-6.017,1.199-10.77,4.413-14.222,9.4c-5.67,8.193-6.635,17.112-3.259,26.405
	c2.361,6.499,6.707,11.366,13.136,14.177C21.456,57.722,24.96,58.218,28.765,57.791z"/>
</svg>
