<?xml version="1.0" standalone="no"?>
<!DOCTYPE svg PUBLIC "-//W3C//DTD SVG 20010904//EN"
 "http://www.w3.org/TR/2001/REC-SVG-20010904/DTD/svg10.dtd">
<svg version="1.0" xmlns="http://www.w3.org/2000/svg"
 width="2702.000000pt" height="2000.000000pt" viewBox="0 0 2702.000000 2000.000000"
 preserveAspectRatio="xMidYMid meet">
<metadata>
Created by potrace 1.15, written by Peter Selinger 2001-2017
</metadata>
<g transform="translate(0.000000,2000.000000) scale(0.100000,-0.100000)"
fill="#000000" stroke="none">
<path d="M20185 16384 c-470 -37 -817 -91 -1207 -190 -1090 -276 -2059 -813
-2897 -1602 -461 -435 -926 -1039 -1221 -1586 l-53 -99 22 -136 c37 -235 178
-1174 255 -1706 41 -280 79 -526 85 -545 6 -19 40 -246 76 -505 36 -258 72
-499 80 -535 8 -36 44 -274 80 -530 36 -256 70 -481 75 -500 10 -33 59 -359
229 -1525 38 -258 74 -497 80 -530 7 -33 43 -274 81 -535 38 -261 77 -510 87
-554 l17 -79 136 -126 c582 -542 1210 -953 1919 -1256 607 -258 1234 -418
1941 -492 237 -25 1003 -25 1240 0 816 86 1507 279 2228 622 l142 68 0 1831
c0 1006 -4 1826 -8 1820 -5 -5 -44 -54 -88 -109 -105 -133 -332 -365 -474
-484 -541 -454 -1201 -731 -1910 -801 -148 -14 -502 -14 -650 0 -709 70 -1369
347 -1910 801 -143 120 -369 350 -479 489 -375 471 -618 1014 -716 1594 -35
210 -46 346 -46 581 0 235 11 371 46 581 90 536 292 1009 638 1496 155 218
458 520 721 717 276 208 663 408 994 515 502 162 1025 208 1568 136 672 -88
1183 -298 1669 -686 135 -108 430 -401 550 -548 l90 -109 5 1846 c5 1691 6
1847 21 1859 9 7 19 25 23 40 8 35 -14 50 -197 138 -706 336 -1408 532 -2207
616 -147 15 -899 28 -1035 18z"/>
<path d="M5922 16113 c13 -47 2502 -6543 2508 -6543 6 0 2610 6537 2610 6553
0 4 -1153 7 -2561 7 -2434 0 -2561 -1 -2557 -17z"/>
<path d="M4357 7268 c-290 -1960 -528 -3569 -527 -3575 0 -10 395 -13 1940
-13 1067 0 1940 3 1940 8 0 14 -2813 7142 -2819 7142 -4 0 -244 -1603 -534
-3562z"/>
<path d="M10557 7263 c-774 -1963 -1407 -3571 -1407 -3575 0 -5 873 -8 1940
-8 1545 0 1940 3 1940 13 1 30 -1055 7137 -1061 7137 -3 0 -639 -1605 -1412
-3567z"/>
</g>
</svg>
