<?xml version="1.0" encoding="UTF-8" standalone="no"?>
<!-- Created with Inkscape (http://www.inkscape.org/) -->

<svg
   xmlns:dc="http://purl.org/dc/elements/1.1/"
   xmlns:cc="http://creativecommons.org/ns#"
   xmlns:rdf="http://www.w3.org/1999/02/22-rdf-syntax-ns#"
   xmlns:svg="http://www.w3.org/2000/svg"
   xmlns="http://www.w3.org/2000/svg"
   xmlns:sodipodi="http://sodipodi.sourceforge.net/DTD/sodipodi-0.dtd"
   xmlns:inkscape="http://www.inkscape.org/namespaces/inkscape"
   id="svg4136"
   version="1.1"
   inkscape:version="0.91 r13725"
   width="198.63823"
   height="160.43411"
   viewBox="0 0 198.63823 160.43411"
   sodipodi:docname="bitnation.svg">
  <metadata
     id="metadata4142">
    <rdf:RDF>
      <cc:Work
         rdf:about="">
        <dc:format>image/svg+xml</dc:format>
        <dc:type
           rdf:resource="http://purl.org/dc/dcmitype/StillImage" />
        <dc:title></dc:title>
      </cc:Work>
    </rdf:RDF>
  </metadata>
  <defs
     id="defs4140" />
  <sodipodi:namedview
     pagecolor="#ffffff"
     bordercolor="#666666"
     borderopacity="1"
     objecttolerance="10"
     gridtolerance="10"
     guidetolerance="10"
     inkscape:pageopacity="0"
     inkscape:pageshadow="2"
     inkscape:window-width="1366"
     inkscape:window-height="748"
     id="namedview4138"
     showgrid="false"
     fit-margin-top="0"
     fit-margin-left="0"
     fit-margin-right="0"
     fit-margin-bottom="0"
     inkscape:zoom="3.5038572"
     inkscape:cx="99.319115"
     inkscape:cy="80.217056"
     inkscape:window-x="-2"
     inkscape:window-y="-3"
     inkscape:window-maximized="1"
     inkscape:current-layer="svg4136" />
  <ellipse
     style="opacity:1;fill:none;fill-opacity:1;fill-rule:nonzero;stroke:#000000;stroke-width:2.8876276;stroke-linejoin:round;stroke-miterlimit:4;stroke-dasharray:2.88762745, 5.7752549;stroke-dashoffset:0;stroke-opacity:1"
     id="path4146"
     cx="105.27985"
     cy="83.779526"
     rx="64.165268"
     ry="63.921509" />
  <ellipse
     style="opacity:1;fill:none;fill-opacity:1;fill-rule:nonzero;stroke:#000000;stroke-width:3;stroke-linejoin:round;stroke-miterlimit:4;stroke-dasharray:none;stroke-dashoffset:0;stroke-opacity:1"
     id="path4148"
     cx="104.7424"
     cy="82.804497"
     rx="36.807877"
     ry="36.076595" />
  <path
     style="fill:#000000;fill-rule:evenodd;stroke:none;stroke-width:1px;stroke-linecap:butt;stroke-linejoin:miter;stroke-opacity:1"
     d="m 101.52708,81.527648 0.41272,-14.238724 c 0,0 0.10318,-2.682658 3.09538,-2.682659 3.09771,-10e-7 3.30173,2.579479 3.30173,2.579479 l 0.30954,14.651441 c 0,0 3.71445,-2.063583 4.12716,-4.84942 0.41272,-2.785838 0.10318,-11.349708 0.10318,-11.349708 0,0 -0.92861,-4.436704 -7.32572,-4.539883 -6.397112,-0.103179 -8.563872,5.468495 -8.563872,5.468495 l 0,10.936992 c 0,0 1.23815,2.4763 2.06358,3.095374 0.82544,0.619075 2.476302,0.928613 2.476302,0.928613 z"
     id="path4150"
     inkscape:connector-curvature="0"
     sodipodi:nodetypes="ccsccscsccsc" />
  <path
     style="fill:#000000;fill-rule:evenodd;stroke:none;stroke-width:1px;stroke-linecap:butt;stroke-linejoin:miter;stroke-opacity:1"
     d="m 101.67772,86.118379 0.41272,14.238721 c 0,0 0.20566,2.60156 3.09538,2.68266 2.88991,0.0811 3.30173,-2.57948 3.30173,-2.57948 l 0.30954,-14.651441 c 0,0 3.71445,2.06358 4.12716,4.84942 0.41272,2.78584 0.10318,11.349711 0.10318,11.349711 0,0 -0.92861,4.4367 -7.32572,4.53988 -6.397112,0.10318 -8.047972,-5.15896 -8.047972,-5.15896 l -0.5159,-11.246521 c 0,0 1.23815,-2.4763 2.06358,-3.09538 0.825442,-0.61907 2.476302,-0.92861 2.476302,-0.92861 z"
     id="path4150-1"
     inkscape:connector-curvature="0"
     sodipodi:nodetypes="ccsccscscccc" />
  <rect
     style="opacity:1;fill:#000000;fill-opacity:1;fill-rule:nonzero;stroke:none;stroke-width:3;stroke-linejoin:round;stroke-miterlimit:4;stroke-dasharray:none;stroke-dashoffset:0;stroke-opacity:1"
     id="rect4167"
     width="4.7462416"
     height="22.183519"
     x="102.76523"
     y="72.654243"
     ry="2.3176811"
     rx="1.5476874" />
  <path
     style="fill:none;fill-rule:evenodd;stroke:#000000;stroke-width:3;stroke-linecap:butt;stroke-linejoin:miter;stroke-miterlimit:4;stroke-dasharray:none;stroke-opacity:1"
     d="M 39.256795,126.09959 0.98291547,159.30103"
     id="path4169"
     inkscape:connector-curvature="0" />
  <path
     style="opacity:0.88500001;fill:none;fill-rule:evenodd;stroke:#000000;stroke-width:3;stroke-linecap:butt;stroke-linejoin:miter;stroke-miterlimit:4;stroke-dasharray:none;stroke-opacity:1"
     d="m 197.65531,1.133083 -38.27388,33.20144"
     id="path4169-1"
     inkscape:connector-curvature="0" />
</svg>
