<?xml version="1.0" encoding="utf-8"?>
<!-- Generator: Adobe Illustrator 22.1.0, SVG Export Plug-In . SVG Version: 6.00 Build 0)  -->
<svg version="1.1" id="图层_1" xmlns="http://www.w3.org/2000/svg" xmlns:xlink="http://www.w3.org/1999/xlink" x="0px" y="0px"
	 viewBox="0 0 58.3 61" style="enable-background:new 0 0 58.3 61;" xml:space="preserve">
<style type="text/css">
	.st0{fill:#F1B565;stroke:#F1B565;stroke-width:2;stroke-linecap:round;stroke-linejoin:round;stroke-miterlimit:10;}
	.st1{fill:none;stroke:#F1B565;stroke-width:2;stroke-linecap:round;stroke-linejoin:round;stroke-miterlimit:10;}
	.st2{fill:#FFCC00;}
	.st3{fill:none;stroke:#383128;stroke-linecap:round;stroke-linejoin:round;stroke-miterlimit:10;}
	.st4{fill:#E45544;}
	.st5{fill:none;stroke:#3F291E;stroke-linecap:round;stroke-linejoin:round;stroke-miterlimit:10;}
	.st6{fill:none;stroke:#383128;stroke-width:2;stroke-linecap:round;stroke-linejoin:round;stroke-miterlimit:10;}
	.st7{fill:#F1B565;}
</style>
<line class="st0" x1="28.8" y1="39.9" x2="28.8" y2="24.2"/>
<path class="st1" d="M28.6,39.9C27.2,36,22,32,18.2,32"/>
<path class="st1" d="M39.4,31.9c-3.9,0-8.9,4.1-10.2,8"/>
<path class="st2" d="M19.2,30.3c0.3-1.6-0.8-3.1-2.4-3.4c-0.1,0-0.2,0-0.3,0c0.1-0.1,0.1-0.2,0.2-0.3c0.7-1.4,0.2-3.2-1.3-4
	c-1.4-0.7-3.2-0.2-4,1.3c-0.1,0.1-0.1,0.2-0.1,0.3c-0.1-0.1-0.1-0.2-0.2-0.3c-1.1-1.1-3-1.1-4.2,0c-1.1,1.1-1.1,3,0,4.2
	c0.1,0.1,0.2,0.1,0.3,0.2c-0.1,0-0.2,0.1-0.3,0.1c-1.4,0.7-2,2.5-1.3,4c0.7,1.4,2.5,2,4,1.3c0.1-0.1,0.2-0.1,0.3-0.2
	c0,0.1,0,0.2,0,0.3c0.3,1.6,1.8,2.7,3.4,2.4c1.6-0.3,2.7-1.8,2.4-3.4c0-0.1-0.1-0.2-0.1-0.3c0.1,0,0.2,0.1,0.3,0.1
	C17.4,33,18.9,31.9,19.2,30.3"/>
<path class="st3" d="M19.2,30.3c0.3-1.6-0.8-3.1-2.4-3.4c-0.1,0-0.2,0-0.3,0c0.1-0.1,0.1-0.2,0.2-0.3c0.7-1.4,0.2-3.2-1.3-4
	c-1.4-0.7-3.2-0.2-4,1.3c-0.1,0.1-0.1,0.2-0.1,0.3c-0.1-0.1-0.1-0.2-0.2-0.3c-1.1-1.1-3-1.1-4.2,0c-1.1,1.1-1.1,3,0,4.2
	c0.1,0.1,0.2,0.1,0.3,0.2c-0.1,0-0.2,0.1-0.3,0.1c-1.4,0.7-2,2.5-1.3,4c0.7,1.4,2.5,2,4,1.3c0.1-0.1,0.2-0.1,0.3-0.2
	c0,0.1,0,0.2,0,0.3c0.3,1.6,1.8,2.7,3.4,2.4c1.6-0.3,2.7-1.8,2.4-3.4c0-0.1-0.1-0.2-0.1-0.3c0.1,0,0.2,0.1,0.3,0.1
	C17.4,33,18.9,31.9,19.2,30.3z"/>
<path class="st4" d="M39.1,13.5c-0.7-2.3-3.2-3.6-5.5-2.8c-0.2,0.1-0.3,0.1-0.4,0.2c0-0.2,0-0.3,0-0.5c0-2.4-2-4.4-4.4-4.4
	c-2.4,0-4.4,2-4.4,4.4c0,0.2,0,0.3,0,0.5c-0.1-0.1-0.3-0.1-0.4-0.2c-2.3-0.7-4.8,0.5-5.5,2.8c-0.7,2.3,0.5,4.8,2.8,5.5
	c0.2,0.1,0.3,0.1,0.5,0.1c-0.1,0.1-0.2,0.2-0.3,0.4c-1.4,2-1,4.7,1,6.1c2,1.4,4.7,1,6.1-1c0.1-0.1,0.2-0.3,0.2-0.4
	c0.1,0.1,0.1,0.3,0.2,0.4c1.4,2,4.2,2.4,6.1,1c2-1.4,2.4-4.2,1-6.1c-0.1-0.1-0.2-0.2-0.3-0.4c0.2,0,0.3-0.1,0.5-0.1
	C38.6,18.3,39.9,15.8,39.1,13.5"/>
<path class="st5" d="M39.1,13.5c-0.7-2.3-3.2-3.6-5.5-2.8c-0.2,0.1-0.3,0.1-0.4,0.2c0-0.2,0-0.3,0-0.5c0-2.4-2-4.4-4.4-4.4
	c-2.4,0-4.4,2-4.4,4.4c0,0.2,0,0.3,0,0.5c-0.1-0.1-0.3-0.1-0.4-0.2c-2.3-0.7-4.8,0.5-5.5,2.8c-0.7,2.3,0.5,4.8,2.8,5.5
	c0.2,0.1,0.3,0.1,0.5,0.1c-0.1,0.1-0.2,0.2-0.3,0.4c-1.4,2-1,4.7,1,6.1c2,1.4,4.7,1,6.1-1c0.1-0.1,0.2-0.3,0.2-0.4
	c0.1,0.1,0.1,0.3,0.2,0.4c1.4,2,4.2,2.4,6.1,1c2-1.4,2.4-4.2,1-6.1c-0.1-0.1-0.2-0.2-0.3-0.4c0.2,0,0.3-0.1,0.5-0.1
	C38.6,18.3,39.9,15.8,39.1,13.5z"/>
<path class="st2" d="M41.9,32.7c0.1,0,0.2-0.1,0.3-0.1c0,0.1-0.1,0.2-0.1,0.3c-0.3,1.6,0.8,3.1,2.4,3.4c1.6,0.3,3.1-0.8,3.4-2.4
	c0-0.1,0-0.2,0-0.3c0.1,0.1,0.2,0.1,0.3,0.2c1.4,0.7,3.2,0.2,4-1.3c0.7-1.4,0.2-3.2-1.3-4c-0.1-0.1-0.2-0.1-0.3-0.1
	c0.1-0.1,0.2-0.1,0.3-0.2c1.1-1.1,1.1-3,0-4.2c-1.1-1.1-3-1.1-4.2,0c-0.1,0.1-0.1,0.2-0.2,0.3c0-0.1-0.1-0.2-0.1-0.3
	c-0.7-1.4-2.5-2-4-1.3c-1.4,0.7-2,2.5-1.3,4c0.1,0.1,0.1,0.2,0.2,0.3c-0.1,0-0.2,0-0.3,0c-1.6,0.3-2.7,1.8-2.4,3.4
	C38.8,31.9,40.3,33,41.9,32.7"/>
<path class="st3" d="M41.9,32.7c0.1,0,0.2-0.1,0.3-0.1c0,0.1-0.1,0.2-0.1,0.3c-0.3,1.6,0.8,3.1,2.4,3.4c1.6,0.3,3.1-0.8,3.4-2.4
	c0-0.1,0-0.2,0-0.3c0.1,0.1,0.2,0.1,0.3,0.2c1.4,0.7,3.2,0.2,4-1.3c0.7-1.4,0.2-3.2-1.3-4c-0.1-0.1-0.2-0.1-0.3-0.1
	c0.1-0.1,0.2-0.1,0.3-0.2c1.1-1.1,1.1-3,0-4.2c-1.1-1.1-3-1.1-4.2,0c-0.1,0.1-0.1,0.2-0.2,0.3c0-0.1-0.1-0.2-0.1-0.3
	c-0.7-1.4-2.5-2-4-1.3c-1.4,0.7-2,2.5-1.3,4c0.1,0.1,0.1,0.2,0.2,0.3c-0.1,0-0.2,0-0.3,0c-1.6,0.3-2.7,1.8-2.4,3.4
	C38.8,31.9,40.3,33,41.9,32.7z"/>
<path class="st2" d="M32.3,17.1c0,1.9-1.6,3.5-3.5,3.5c-1.9,0-3.5-1.6-3.5-3.5c0-1.9,1.6-3.5,3.5-3.5C30.8,13.6,32.3,15.2,32.3,17.1
	"/>
<circle class="st6" cx="28.8" cy="17.1" r="3.5"/>
<path class="st2" d="M13.7,29.1c0,1-0.8,1.8-1.8,1.8s-1.8-0.8-1.8-1.8c0-1,0.8-1.8,1.8-1.8S13.7,28.1,13.7,29.1"/>
<circle class="st6" cx="11.9" cy="29.1" r="1.8"/>
<polygon class="st7" points="35.9,55.6 21.8,55.6 19.2,43.4 38.5,43.4 "/>
<polygon class="st3" points="35.9,55.6 21.8,55.6 19.2,43.4 38.5,43.4 "/>
<rect x="17.5" y="39.9" class="st7" width="22.8" height="3.5"/>
<rect x="17.5" y="39.9" class="st3" width="22.8" height="3.5"/>
<path class="st2" d="M44,29.1c0,1,0.8,1.8,1.8,1.8c1,0,1.8-0.8,1.8-1.8c0-1-0.8-1.8-1.8-1.8C44.8,27.3,44,28.1,44,29.1"/>
<circle class="st6" cx="45.8" cy="29.1" r="1.8"/>
</svg>
