<?xml version="1.0" encoding="UTF-8"?>
<svg width="870" height="537" version="1.1" viewBox="0 0 230.2 142.1" xmlns="http://www.w3.org/2000/svg" xmlns:cc="http://creativecommons.org/ns#" xmlns:dc="http://purl.org/dc/elements/1.1/" xmlns:rdf="http://www.w3.org/1999/02/22-rdf-syntax-ns#">
 <title>光敏性癫痫警告</title>
 <metadata>
  <rdf:RDF>
   <cc:Work rdf:about="">
    <dc:format>image/svg+xml</dc:format>
    <dc:type rdf:resource="http://purl.org/dc/dcmitype/StillImage"/>
    <dc:title>光敏性癫痫警告</dc:title>
   </cc:Work>
  </rdf:RDF>
 </metadata>
 <g transform="translate(0 -154.9)">
  <rect x=".3731" y="155.3" width="229.3" height="141.2" fill="#fff"/>
  <path d="m214.7 202.1v1.375l2.619-0.7203z" fill="#ccc"/>
  <g fill="#323232">
   <path d="m93.08 191.9h0.7016v-0.3842h0.5846v0.3675l0.451-0.0167v-0.3842l0.6849 0.0501v0.3341l0.6181 0.0167v0.4343l-0.6348-0.0334-0.03341 0.2004h-0.5847v-0.284l-0.4844 0.0501v0.2506l-0.5512-0.0167-0.03341-0.2339-0.7183 0.0334z"/>
   <path d="m93.49 192.5-0.6181 0.9856 0.5679-0.3007 0.5345-0.5679z"/>
   <path d="m93.74 192.7 2.255-0.0167-0.1837 0.2339 0.03341 1.036-0.3842 0.2506-0.6181-0.3007 0.5512-0.0167-0.01669-1.036-0.03341 0.1837-1.854-0.0501z"/>
   <path d="m93.51 193.3-0.01669 0.7016 1.47-0.0167 0.01669-0.7183-1.336-0.0167 0.2172 0.2004h0.7517l-0.05011 0.3007h-0.7183l0.01669-0.284-0.2339-0.2172z"/>
   <path d="m96.65 191.5-0.1169 0.7183-0.5178 0.5846 0.1336 0.1503 0.3341-0.0668 0.7016-0.8018 0.1503-0.3174z"/>
   <path d="m96.9 192.1 1.737 0.0334v0.3174h-1.888z"/>
   <path d="m96.84 192.5 0.3508 0.6181 1.002 0.6348 0.5512 0.2673-0.1336 0.2005-1.086-0.4343-0.7851-0.6014-0.2673-0.4677z"/>
   <path d="m97.82 192.4-0.3675 0.7851-0.7183 0.4844-0.6348 0.3007 0.167 0.1169 0.8686-0.2506 0.8853-0.6181 0.3675-0.7684z"/>
   <path d="m95.5 194.3 0.1336 0.2172h-2.689l0.03341 0.4176 5.746-0.0668-0.06682-0.4009-2.272 0.0334-0.1837-0.2339z"/>
   <path d="m93.88 195.2 4.042-0.0501v0.284l-4.093 0.0167z"/>
   <path d="m93.79 195.6 4.126-0.0501v0.3341l-4.143-0.0167z"/>
   <path d="m93.48 196.1 0.03341 1.136 4.243 0.0167 0.4343-0.4009v-0.7016l-4.393-0.0501 0.5011 0.3007 3.241 0.0668v0.4677l-3.291-0.0835 0.0167-0.4844-0.5178-0.284z"/>
   <path d="m100.3 191.7 0.6515 0.1169 0.2339 0.2004-0.4009 0.7517-0.7851 0.7016-0.3174 0.1838-0.1002-0.2172 0.5178-0.8018 0.2172-0.6515z"/>
   <path d="m100.5 192.5 4.042-0.0501-0.0167 0.5178-4.276 0.0167z"/>
   <path d="m101.9 191.7v2.188l-2.606 0.0167 0.01669 0.5345 5.646-0.0167v-0.5679h-2.339l0.0167-2.172z"/>
   <path d="m99.91 195-0.05011 2.172 4.076 0.0167 0.4343-0.4343 0.0167-1.754h-4.159l0.568 0.4844 2.723 0.0334v1.052l-2.773-0.0334-0.0167-1.069-0.5178-0.5178h-0.4176z"/>
   <path d="m106.2 193.4-0.4677 0.3508v0.5011l0.4343 0.3174 0.5178-0.3508v-0.451z"/>
   <path d="m106.2 195.7-0.451 0.2673-0.0668 0.3842 0.2506 0.4343 0.3842 0.0167 0.4009-0.2673 0.0334-0.4844-0.3007-0.3341z"/>
  </g>
  <text transform="scale(1.114 .8979)" x="98.259514" y="219.04529" fill="#000000" font-family="sans-serif" font-size="11.79px" stroke-width=".2947" style="line-height:0" xml:space="preserve"><tspan x="98.259514" y="219.04529" font-size="7.072px" stroke-width=".2947" style="line-height:1.25">爱看不看</tspan></text>
  <g fill="#ccc">
   <rect x="18.63" y="202.4" width="196.2" height=".4861"/>
   <path d="m19.12 202v1.375l-2.619-0.7203z"/>
   <path d="m115 200.9-0.0201 0.4698h1.43l-0.0376 0.9784h0.5645v-1.016l1.279-0.0376v-0.4516z"/>
   <path d="m116.4 203-1.355 0.3387v0.414l1.279 0.301h0.9032l1.091-0.2258-0.0376-0.2258-2.484 0.0753v-0.3011l2.484-0.0376v-0.2634l-1.091-0.1129z"/>
  </g>
  <g font-family="sans-serif">
   <text transform="scale(.9735 1.027)" x="19.859741" y="205.11377" fill="#4d4d4d" font-size="3.908px" stroke-width=".2664" style="line-height:1.45" xml:space="preserve"><tspan x="19.859741" y="205.11377">有极少数的人在观看一些视觉影像时可能会突然癫痫发作，这些影响包括电玩游戏中出现的闪光或图形。</tspan><tspan x="19.859741" y="210.87819">甚至连没有突然发病或癫痫史的人也可能具有些可能会在观看视频游戏时导致“光敏性癫痫发作”的未确诊症状。</tspan><tspan x="19.859741" y="216.64261">癫痫症发作时可能有多种症状，包括头晕目眩、眼睛或面部抽搐、四肢痉挛或发抖、神志不清、混乱或暂时失去意识。</tspan><tspan x="19.859741" y="222.40703">癫痫发作也可能导致意识丧失或痉挛，进而可能导致患者因跌倒或撞击到旁边的物体而受伤。</tspan><tspan x="19.859741" y="228.17145">若出现以上所述任何症状，请立即停止该游戏并送医诊断。</tspan><tspan x="19.859741" y="233.93587">如果您自己或您的亲友有癫痫史，请在进行游戏之前与医师咨询。</tspan></text>
   <text x="213.64445" y="256.41556" font-size="3.881px" stroke-width=".2646" text-align="end" text-anchor="end" style="line-height:1.25" xml:space="preserve"><tspan x="213.64445" y="256.41556" text-align="end">不要说我们没有警告过你……</tspan><tspan x="213.64445" y="261.36398" text-align="end"/><tspan x="213.64445" y="266.21469" fill="#808080" text-align="end">TCJY</tspan></text>
   <text x="139.59273" y="195.76547" font-size="3.881px" stroke-width=".2646" style="line-height:1.25" xml:space="preserve"><tspan x="139.59273" y="195.76547" stroke-width=".2646">（大误）</tspan></text>
  </g>
 </g>
</svg>
