<?xml version="1.0" standalone="no"?>
<!DOCTYPE svg PUBLIC "-//W3C//DTD SVG 20010904//EN"
 "http://www.w3.org/TR/2001/REC-SVG-20010904/DTD/svg10.dtd">
<svg version="1.0" xmlns="http://www.w3.org/2000/svg"
 width="2702.000000pt" height="2000.000000pt" viewBox="0 0 2702.000000 2000.000000"
 preserveAspectRatio="xMidYMid meet">
<metadata>
Created by potrace 1.15, written by Peter Selinger 2001-2017
</metadata>
<g transform="translate(0.000000,2000.000000) scale(0.100000,-0.100000)"
fill="#000000" stroke="none">
<path d="M21555 16320 c-594 -43 -1163 -156 -1700 -340 -376 -129 -904 -374
-1237 -574 -723 -434 -1357 -1004 -1871 -1683 -162 -214 -377 -546 -501 -776
l-48 -89 31 -216 c18 -119 59 -392 91 -607 65 -423 89 -583 360 -2385 27 -184
75 -497 105 -695 30 -198 80 -526 110 -730 31 -203 92 -608 136 -900 44 -291
113 -750 153 -1020 188 -1251 165 -1116 200 -1154 55 -60 269 -254 402 -365
399 -334 810 -600 1305 -845 554 -275 1135 -465 1739 -570 417 -73 687 -95
1140 -95 453 0 723 22 1140 95 595 103 1212 304 1728 562 l122 61 0 1821 -1
1820 -22 -30 c-72 -98 -233 -278 -353 -395 -548 -534 -1218 -859 -1986 -962
-218 -29 -640 -32 -853 -5 -661 84 -1260 335 -1770 743 -141 113 -426 398
-539 539 -368 461 -621 1023 -715 1590 -38 230 -46 328 -46 590 0 262 8 360
46 590 60 363 196 755 375 1080 75 137 248 401 337 513 86 111 413 433 542
536 769 614 1731 869 2730 725 919 -132 1573 -513 2217 -1289 l37 -45 1 1896
0 1896 -187 90 c-666 323 -1369 517 -2178 604 -216 23 -829 34 -1040 19z"/>
<path d="M7313 16036 c52 -146 2493 -6516 2497 -6516 3 0 585 1459 1294 3243
709 1783 1296 3257 1303 3275 l13 32 -2559 0 -2560 0 12 -34z"/>
<path d="M6267 10740 c-10 -41 -1056 -7114 -1053 -7117 1 -2 874 -2 1938 -1
l1936 3 -1404 3559 c-772 1957 -1405 3564 -1407 3570 -3 6 -7 0 -10 -14z"/>
<path d="M11939 7192 l-1407 -3567 1936 -3 c1064 -1 1937 -1 1938 1 4 4 -1052
7126 -1057 7131 -2 2 -637 -1601 -1410 -3562z"/>
</g>
</svg>
