<svg id="Layer_1" data-name="Layer 1" xmlns="http://www.w3.org/2000/svg" viewBox="0 0 155.8 109.2"><defs><style>.cls-1{fill:red;}.cls-2{fill:#fff;}</style></defs><title>mini-logo-youtube</title><path class="cls-1" d="M154.3,17.5A19.62,19.62,0,0,0,140.5,3.7C128.4.4,79.7.4,79.7.4S31,.5,18.9,3.8A19.62,19.62,0,0,0,5.1,17.6C1.9,29.7,1.9,55,1.9,55s0,25.3,3.3,37.5A19.62,19.62,0,0,0,19,106.3c12.1,3.3,60.8,3.3,60.8,3.3s48.7,0,60.8-3.3a19.62,19.62,0,0,0,13.8-13.8c3.3-12.1,3.3-37.5,3.3-37.5S157.6,29.7,154.3,17.5Z" transform="translate(-1.9 -0.4)"/><polygon class="cls-2" points="62.3 78 102.7 54.6 62.3 31.2 62.3 78"/></svg>