<svg xmlns="http://www.w3.org/2000/svg"
     xmlns:xlink="http://www.w3.org/1999/xlink"
     viewBox="0 0 512 512">
  <style>use:not(:target) { display: none; }</style>
  <defs>
    <path id="twitter" d="
M 196.63 386.04
c 120.76 0.0 186.8 -100.04 186.8 -186.8
  0.0 -2.84 0.0 -5.67 -0.19 -8.49
A 133.58 133.58 0 0 0 416.0 156.76
a 131.05 131.05 0 0 1 -37.71 10.33
  65.88 65.88 0 0 0 28.86 -36.31
  131.57 131.57 0 0 1 -41.69 15.94
  65.72 65.72 0 0 0 -111.88 59.88
A 186.39 186.39 0 0 1 118.27 138.0
a 65.7 65.7 0 0 0 20.33 87.64
A 65.16 65.16 0 0 1 108.8 217.42
c 0.0 0.27 0.0 0.55 0.0 0.83
a 65.68 65.68 0 0 0 52.67 64.36
  65.55 65.55 0 0 1 -29.64 1.13
  65.73 65.73 0 0 0 61.34 45.59
  131.74 131.74 0 0 1 -81.54 28.16
A 133.64 133.64 0 0 1 96.0 356.54
a 185.87 185.87 0 0 0 100.63 29.44"/>
    <path id="github" d="
M 205.24 404.64
c 0.0 -4.87 -0.18 -21.02 -0.29 -38.13
C 148.0 378.89 135.96 342.36 135.96 342.36
c -9.33 -23.65 -22.74 -29.95 -22.74 -29.95
  -18.62 -12.7 1.41 -12.45 1.41 -12.45
  20.56 1.42 31.38 21.1 31.38 21.1
  18.27 31.3 47.95 22.25 59.6 17.0
  1.86 -13.2 7.16 -22.25 13.0 -27.35
C 173.16 305.54 125.34 287.96 125.34 209.49
c 0.0 -22.38 7.98 -40.62 21.06 -54.96
  -2.09 -5.2 -9.14 -26.04 2.02 -54.22
  0.0 0.0 17.18 -5.5 56.33 21.0
  16.33 -4.56 33.84 -6.82 51.25 -6.89
  17.4 0.07 34.93 2.35 51.27 6.91
  39.07 -26.53 56.27 -21.0 56.27 -21.0
  11.2 28.22 4.15 49.02 2.05 54.2
  13.13 14.34 21.05 32.58 21.05 54.96
  0.0 78.67 -47.9 96.0 -93.53 101.07
  7.38 6.35 13.9 18.8 13.9 37.9
  0.0 27.38 -0.27 49.45 -0.27 56.2
  0.0 8.0 -101.5 8.0 -101.5 0.0"/>
    <path id="bangumi" d="
M 232.47 184.17
a 35.46 35.46 0 0 1 14.63 -12.94
L 172.22 95.25
l 5.35 -5.35
L 256.07 168.13
a 35.46 35.46 0 0 1 21.67 1.69
L 337.4 90.18
l 6.19 4.22
L 284.78 173.47
a 35.46 35.46 0 0 1 11.26 10.69
l 76.5408 0
a 17.45 17.45 0 0 1 17.16 17.45
l 0 135.35341
a 17.45 17.45 0 0 1 -17.45 17.45
l -110.87 0
l -30.39 22.51
a 8.44 8.44 0 0 1 -10.13 -12.38
l 3.83 -10.13
l -83.86 0
a 17.45 17.45 0 0 1 -17.45 -17.45
l 0 -135.35341
a 17.45 17.45 0 0 1 17.45 -17.45
z"/>
  </defs>
  <use id="twitterc" xlink:href="#twitter" fill="#1da1f2"/>
  <use id="twitterw" xlink:href="#twitter" fill="#ffffff"/>
  <use id="githubc" xlink:href="#github" fill="#808080"/>
  <use id="githubw" xlink:href="#github" fill="#ffffff"/>
  <use id="bangumic" xlink:href="#bangumi" fill="#f09199"/>
  <use id="bangumiw" xlink:href="#bangumi" fill="#ffffff"/>
</svg>
