<?xml version="1.0" standalone="no"?>
<!DOCTYPE svg PUBLIC "-//W3C//DTD SVG 20010904//EN"
 "http://www.w3.org/TR/2001/REC-SVG-20010904/DTD/svg10.dtd">
<svg version="1.0" xmlns="http://www.w3.org/2000/svg"
 width="700.000000pt" height="700.000000pt" viewBox="0 0 700.000000 700.000000"
 preserveAspectRatio="xMidYMid meet">
<metadata>
Created by potrace 1.11, written by Peter Selinger 2001-2013
</metadata>
<g transform="translate(0.000000,700.000000) scale(0.100000,-0.100000)"
fill="#000000" stroke="none">
<path d="M1355 6339 c-293 -27 -536 -211 -647 -490 -53 -132 -51 -45 -52
-2314 -1 -1166 2 -2153 7 -2194 36 -357 321 -642 678 -678 41 -5 1024 -8 2184
-7 1677 0 2125 3 2185 13 297 51 539 280 611 576 l22 90 0 2160 c0 1966 -1
2167 -16 2237 -67 314 -315 549 -637 604 -54 9 -4235 12 -4335 3z m4325 -223
c93 -18 215 -83 284 -152 76 -76 140 -202 154 -304 8 -60 8 -4264 -1 -4317
-11 -70 -19 -96 -49 -158 -73 -148 -196 -248 -358 -292 -60 -16 -214 -17
-2195 -18 -1922 -1 -2137 1 -2205 15 -218 47 -382 215 -424 435 -18 93 -14
4288 3 4370 22 100 68 183 146 261 96 96 190 145 312 162 61 9 4287 7 4333 -2z"/>
<path d="M1264 5674 c-52 -25 -58 -46 -60 -196 -1 -156 8 -187 61 -212 41 -20
58 -20 94 -2 57 30 62 46 63 212 0 92 -4 128 -16 152 -27 52 -89 72 -142 46z"/>
<path d="M1811 5673 c-50 -25 -61 -62 -61 -208 0 -136 10 -173 53 -197 55 -30
124 -12 151 40 17 34 22 259 6 307 -20 59 -90 87 -149 58z"/>
<path d="M2365 5676 c-60 -26 -68 -54 -68 -214 1 -143 1 -144 29 -173 53 -56
147 -43 175 24 18 42 19 267 3 307 -22 52 -88 79 -139 56z"/>
<path d="M2915 5680 c-11 -4 -31 -20 -45 -35 -24 -26 -25 -30 -25 -173 1 -166
9 -192 71 -212 65 -22 128 13 140 78 4 20 7 85 7 146 0 119 -13 165 -53 186
-28 15 -71 19 -95 10z"/>
<path d="M3475 5681 c-71 -22 -83 -51 -85 -208 -1 -102 3 -139 15 -162 16 -33
61 -61 95 -61 37 0 81 30 96 65 17 42 19 256 3 303 -16 47 -77 78 -124 63z"/>
<path d="M4005 5676 c-56 -24 -66 -52 -66 -189 -1 -170 -2 -163 29 -198 48
-54 133 -47 172 15 18 29 22 269 5 311 -24 60 -84 86 -140 61z"/>
<path d="M4542 5670 c-50 -31 -60 -66 -57 -215 2 -144 9 -165 62 -190 70 -34
152 16 154 93 4 124 0 241 -9 264 -23 56 -97 80 -150 48z"/>
<path d="M5115 5681 c-73 -23 -84 -51 -84 -210 0 -149 9 -180 59 -206 37 -19
63 -19 101 1 47 24 59 66 59 210 0 110 -3 131 -20 160 -25 39 -74 59 -115 45z"/>
<path d="M5645 5676 c-57 -25 -66 -53 -67 -195 0 -71 3 -139 7 -152 20 -65 92
-96 151 -64 53 29 62 58 60 216 l-2 139 -29 29 c-36 35 -80 45 -120 27z"/>
<path d="M2993 4365 c-103 -24 -185 -91 -229 -188 l-28 -62 -1 -260 c-2 -281
2 -322 38 -394 l24 -47 -52 -55 c-59 -64 -92 -128 -109 -211 -8 -39 -11 -181
-11 -435 1 -419 3 -434 70 -538 61 -95 136 -152 243 -185 56 -18 93 -20 351
-19 307 0 318 2 421 54 103 52 198 183 218 302 12 66 12 759 1 821 -13 69 -65
164 -118 217 l-47 47 31 61 30 61 2 276 c3 291 -2 332 -47 405 -41 66 -110
120 -185 145 -52 17 -531 21 -602 5z m565 -225 c47 -31 52 -61 52 -309 0 -257
-6 -288 -59 -315 -25 -13 -71 -16 -266 -16 -349 0 -333 -17 -331 341 1 333
-16 317 345 315 187 -2 241 -5 259 -16z m29 -879 c22 -11 54 -33 70 -50 59
-61 61 -75 61 -468 1 -197 -3 -374 -8 -393 -16 -59 -64 -115 -120 -139 -48
-21 -66 -22 -310 -22 -285 0 -312 5 -372 65 -63 64 -63 64 -63 481 l0 380 28
50 c28 51 73 90 123 105 16 4 146 9 289 9 234 0 264 -1 302 -18z"/>
<path d="M4755 4369 c-158 -19 -303 -139 -356 -296 l-23 -68 0 -830 c0 -924
-2 -889 68 -999 61 -94 130 -148 240 -186 52 -17 85 -19 344 -19 307 0 338 4
438 56 52 28 126 101 160 160 56 94 61 143 62 545 0 289 -3 380 -14 430 -33
139 -136 258 -270 308 -76 28 -73 28 -465 29 l-345 1 1 243 c0 232 1 244 24
290 13 26 38 59 57 73 57 44 102 51 319 49 182 -1 204 -3 240 -22 72 -38 107
-91 123 -183 13 -76 51 -120 103 -120 106 0 140 93 92 245 -43 133 -163 247
-303 285 -50 14 -398 20 -495 9z m596 -1115 c26 -14 56 -39 68 -55 49 -66 51
-86 49 -483 -3 -323 -5 -375 -20 -401 -32 -59 -89 -106 -143 -119 -16 -4 -143
-7 -283 -7 -277 0 -305 5 -364 65 -63 64 -62 55 -63 564 l-1 462 355 0 355 -1
47 -25z"/>
<path d="M1483 3270 c-33 -14 -62 -66 -58 -105 2 -27 107 -212 297 -525 7 -11
-14 -54 -78 -160 -47 -80 -94 -157 -103 -172 -122 -204 -129 -220 -107 -272
24 -58 105 -85 154 -51 18 13 112 147 112 160 0 2 23 41 51 87 29 46 64 104
78 131 31 57 14 76 168 -179 117 -194 134 -214 189 -214 48 0 103 44 106 84 3
51 -11 81 -153 317 -82 138 -149 252 -149 255 0 2 11 23 26 45 14 22 33 55 43
72 10 18 66 111 124 207 58 96 107 189 110 206 10 66 -42 124 -113 124 -48 0
-86 -47 -205 -247 -59 -101 -111 -183 -116 -183 -4 0 -59 87 -123 193 -63 106
-123 201 -134 211 -24 21 -88 30 -119 16z"/>
</g>
</svg>
