<?xml version="1.0" encoding="UTF-8" standalone="no"?>
<svg width="123px" height="93px" viewBox="0 0 123 93" version="1.1" xmlns="http://www.w3.org/2000/svg" xmlns:xlink="http://www.w3.org/1999/xlink" xmlns:sketch="http://www.bohemiancoding.com/sketch/ns">
    <!-- Generator: Sketch 3.3.2 (12043) - http://www.bohemiancoding.com/sketch -->
    <title>browser-download-files</title>
    <desc>Created with Sketch.</desc>
    <defs></defs>
    <g id="Page-1" stroke="none" stroke-width="1" fill="none" fill-rule="evenodd" sketch:type="MSPage">
        <g id="browser-download-files" sketch:type="MSLayerGroup" transform="translate(1.000000, 1.000000)">
            <g id="Page-1" sketch:type="MSShapeGroup">
                <g id="Imported-Layers">
                    <path d="M0.351,0.398 L120.351,0.398 L120.351,90.398 L0.351,90.398 L0.351,0.398 L0.351,0.398 Z M0.351,14.149 L120.351,14.149 L0.351,14.149 L0.351,14.149 Z" id="Stroke-2" stroke="#A5B2B2" stroke-width="2"></path>
                    <path d="M10.587,7.362 C10.587,8.636 9.566,9.67 8.306,9.67 C7.046,9.67 6.024,8.636 6.024,7.362 C6.024,6.087 7.046,5.054 8.306,5.054 C9.566,5.054 10.587,6.087 10.587,7.362" id="Fill-3" fill="#A5B2B2"></path>
                    <path d="M18.579,7.362 C18.579,8.636 17.558,9.67 16.298,9.67 C15.038,9.67 14.016,8.636 14.016,7.362 C14.016,6.087 15.038,5.054 16.298,5.054 C17.558,5.054 18.579,6.087 18.579,7.362" id="Fill-4" fill="#A5B2B2"></path>
                    <path d="M26.571,7.362 C26.571,8.636 25.55,9.67 24.29,9.67 C23.03,9.67 22.008,8.636 22.008,7.362 C22.008,6.087 23.03,5.054 24.29,5.054 C25.55,5.054 26.571,6.087 26.571,7.362" id="Fill-5" fill="#A5B2B2"></path>
                </g>
                <path d="M43,28 L68.611,28 L78.963,38.352 L78.963,73.661 L43,73.661 L43,28 L43,28 Z M60.981,61.192 L67.778,54.318 L60.981,61.192 L60.981,61.192 Z M60.981,61.192 L54.184,54.318 L60.981,61.192 L60.981,61.192 Z M60.981,61.192 L60.981,40.469 L60.981,61.192 L60.981,61.192 Z" id="Imported-Layers" stroke="#FF9004" stroke-width="2"></path>
            </g>
        </g>
    </g>
</svg>