<?xml version="1.0" encoding="UTF-8" standalone="no"?>
<svg width="85px" height="85px" viewBox="0 0 85 85" version="1.1" xmlns="http://www.w3.org/2000/svg" xmlns:xlink="http://www.w3.org/1999/xlink" xmlns:sketch="http://www.bohemiancoding.com/sketch/ns">
    <!-- Generator: Sketch 3.3.2 (12043) - http://www.bohemiancoding.com/sketch -->
    <title>Untitled</title>
    <desc>Created with Sketch.</desc>
    <defs></defs>
    <g id="Page-1" stroke="none" stroke-width="1" fill="none" fill-rule="evenodd" sketch:type="MSPage">
        <g id="feather" sketch:type="MSLayerGroup" transform="translate(1.000000, 1.000000)" stroke-width="2">
            <g id="Page-1" sketch:type="MSShapeGroup">
                <circle id="Oval-5" stroke="#FF9104" cx="41.5" cy="41.5" r="41.5"></circle>
                <path d="M49.715,44.814 C50.182,44.001 50.625,43.168 51.024,42.3 C55.023,33.603 54.656,24.017 50.842,16 C42.274,18.324 34.759,24.286 30.76,32.983 C30.361,33.852 30.017,34.731 29.704,35.614 C27.76,41.573 31.048,46.642 31.048,46.642 L27.935,45.211 C27.824,50.102 28.869,54.925 30.942,59.284 C35.6,58.02 39.941,55.673 43.581,52.405 L40.468,50.973 C40.468,50.973 46.457,50.169 49.715,44.814 L49.715,44.814 L49.715,44.814 Z M27,67.857 L38.313,43.25 L27,67.857 L27,67.857 Z" id="Imported-Layers" stroke="#FF9004"></path>
            </g>
        </g>
    </g>
</svg>