<?xml version="1.0" encoding="UTF-8" standalone="no"?>
<svg width="122px" height="122px" viewBox="0 0 122 122" version="1.1" xmlns="http://www.w3.org/2000/svg" xmlns:xlink="http://www.w3.org/1999/xlink" xmlns:sketch="http://www.bohemiancoding.com/sketch/ns">
    <!-- Generator: Sketch 3.3.2 (12043) - http://www.bohemiancoding.com/sketch -->
    <title>lightning</title>
    <desc>Created with Sketch.</desc>
    <defs></defs>
    <g id="Page-1" stroke="none" stroke-width="1" fill="none" fill-rule="evenodd" sketch:type="MSPage">
        <g id="lightning" sketch:type="MSLayerGroup" transform="translate(1.000000, 1.000000)">
            <g id="Page-1" sketch:type="MSShapeGroup">
                <circle id="Oval-5" stroke="#FF9004" stroke-width="2" cx="60" cy="60" r="60"></circle>
                <path d="M83.6696809,49.1122892 L71.4745002,49.1122892 L82.2282351,31.1903614 C82.495705,30.7436145 82.5029339,30.186988 82.2455845,29.733012 C81.9896809,29.2804819 81.5096809,29 80.9877532,29 L54.1713676,29 C53.5438978,29 52.9858255,29.4062651 52.7949821,30.0048193 L42.068717,63.5253012 C41.9284761,63.9648193 42.0051026,64.4448193 42.2783556,64.8178313 C42.5501628,65.1908434 42.9838978,65.4120482 43.4451026,65.4120482 L56.0407652,65.4120482 L44.7882351,92.9151807 C44.522211,93.5701205 44.7665484,94.3219277 45.3679941,94.6920482 C45.602211,94.8380723 45.8653435,94.9089157 46.1270303,94.9089157 C46.5318496,94.9089157 46.9323315,94.7383133 47.215705,94.4144578 L84.7583556,51.5093976 C85.1299219,51.0828916 85.2210062,50.4771084 84.9853435,49.9609639 C84.7511267,49.4433735 84.2364279,49.1122892 83.6696809,49.1122892 L83.6696809,49.1122892 L83.6696809,49.1122892 Z M50.7477532,85.986988 L59.5323315,64.5127711 C59.7145002,64.0674699 59.662452,63.56 59.3949821,63.1595181 C59.1260664,62.7604819 58.6764279,62.5204819 58.1949821,62.5204819 L45.4272713,62.5204819 L55.2267893,31.8915663 L78.4345002,31.8915663 L67.6807652,49.813494 C67.4132954,50.260241 67.4060664,50.8168675 67.6634158,51.2693976 C67.9193194,51.7233735 68.3993194,52.0038554 68.9212472,52.0038554 L80.4831749,52.0038554 L50.7477532,85.986988 L50.7477532,85.986988 Z" id="Fill-2" fill="#FF9004"></path>
            </g>
        </g>
    </g>
</svg>