<?xml version="1.0" standalone="no"?>
<!DOCTYPE svg PUBLIC "-//W3C//DTD SVG 20010904//EN"
 "http://www.w3.org/TR/2001/REC-SVG-20010904/DTD/svg10.dtd">
<svg version="1.0" xmlns="http://www.w3.org/2000/svg"
 width="300.000000pt" height="300.000000pt" viewBox="0 0 300.000000 300.000000"
 preserveAspectRatio="xMidYMid meet">
<metadata>
Created by potrace 1.11, written by Peter Selinger 2001-2013
</metadata>
<g transform="translate(0.000000,300.000000) scale(0.100000,-0.100000)"
fill="#000000" stroke="none">
<path d="M0 1500 l0 -1500 1500 0 1500 0 0 1500 0 1500 -1500 0 -1500 0 0
-1500z m600 660 l0 -520 370 0 370 0 0 520 0 520 309 0 308 0 27 -72 c15 -40
34 -98 42 -128 13 -46 179 -573 245 -777 l21 -63 109 0 109 0 0 -150 0 -150
-61 0 c-58 0 -60 -1 -53 -22 3 -13 75 -239 159 -503 84 -264 156 -490 159
-502 l7 -23 -160 0 -160 0 -34 108 c-18 59 -94 295 -167 525 l-133 417 -214 0
-213 0 0 -525 0 -525 -150 0 -150 0 0 525 0 525 -370 0 -370 0 0 -525 0 -525
-150 0 -150 0 0 1195 0 1195 150 0 150 0 0 -520z"/>
<path d="M1640 2035 l0 -395 166 0 c129 0 165 3 161 13 -2 6 -32 98 -65 202
-33 105 -88 277 -122 383 l-61 192 -40 0 -39 0 0 -395z"/>
</g>
</svg>
