<svg id="Capa_1" data-name="Capa 1" xmlns="http://www.w3.org/2000/svg" viewBox="0 0 463.06 533.33"><defs><style>.cls-1{fill:#fff;}</style></defs><title>trending</title><path class="cls-1" d="M165.49,533.33C130,459.37,148.88,417,176.2,377.06c29.91-43.73,37.62-87,37.62-87s23.52,30.57,14.11,78.39c41.55-46.25,49.39-119.94,43.12-148.16C365,285.91,405.1,428,351,533.33,638.7,370.56,422.57,127,384.94,99.56,397.49,127,399.86,173.44,374.53,196,331.64,33.33,225.58,0,225.58,0c12.55,83.88-45.46,175.6-101.4,244.13-2-33.45-4.05-56.52-21.64-88.53-4,60.76-50.38,110.28-63,171.16C22.55,409.2,52.34,469.56,165.49,533.33Z" transform="translate(-35.14)"/></svg>