<?xml version="1.0" encoding="UTF-8" standalone="no"?>
<!-- Created with Inkscape (http://www.inkscape.org/) -->

<svg
   xmlns:dc="http://purl.org/dc/elements/1.1/"
   xmlns:cc="http://creativecommons.org/ns#"
   xmlns:rdf="http://www.w3.org/1999/02/22-rdf-syntax-ns#"
   xmlns:svg="http://www.w3.org/2000/svg"
   xmlns="http://www.w3.org/2000/svg"
   xmlns:sodipodi="http://sodipodi.sourceforge.net/DTD/sodipodi-0.dtd"
   xmlns:inkscape="http://www.inkscape.org/namespaces/inkscape"
   width="166.22"
   height="50"
   viewBox="0 0 166.22 49.999996"
   id="svg7605"
   version="1.1"
   inkscape:version="0.91 r13725"
   sodipodi:docname="about.me.svg"
   inkscape:export-filename="C:\Users\10000_000\Desktop\twitter.png"
   inkscape:export-xdpi="90"
   inkscape:export-ydpi="90">
  <defs
     id="defs7607">
    <marker
       inkscape:stockid="Arrow1Lstart"
       orient="auto"
       refY="0"
       refX="0"
       id="Arrow1Lstart"
       style="overflow:visible"
       inkscape:isstock="true">
      <path
         id="path4254"
         d="M 0,0 5,-5 -12.5,0 5,5 0,0 Z"
         style="fill-rule:evenodd;stroke:#000000;stroke-width:1pt"
         transform="matrix(0.8,0,0,0.8,10,0)"
         inkscape:connector-curvature="0" />
    </marker>
  </defs>
  <sodipodi:namedview
     id="base"
     pagecolor="#ffffff"
     bordercolor="#666666"
     borderopacity="1.0"
     inkscape:pageopacity="0.0"
     inkscape:pageshadow="2"
     inkscape:zoom="2.8284271"
     inkscape:cx="40.353255"
     inkscape:cy="40.810705"
     inkscape:document-units="px"
     inkscape:current-layer="layer1"
     showgrid="true"
     showguides="false"
     inkscape:snap-page="false"
     inkscape:snap-grids="true"
     inkscape:snap-to-guides="true"
     inkscape:window-width="1366"
     inkscape:window-height="705"
     inkscape:window-x="-8"
     inkscape:window-y="-8"
     inkscape:window-maximized="1"
     units="px">
    <inkscape:grid
       type="xygrid"
       id="grid8437" />
  </sodipodi:namedview>
  <metadata
     id="metadata7610">
    <rdf:RDF>
      <cc:Work
         rdf:about="">
        <dc:format>image/svg+xml</dc:format>
        <dc:type
           rdf:resource="http://purl.org/dc/dcmitype/StillImage" />
        <dc:title></dc:title>
      </cc:Work>
    </rdf:RDF>
  </metadata>
  <g
     inkscape:label="Layer 1"
     inkscape:groupmode="layer"
     id="layer1"
     transform="translate(0,-1002.3622)">
    <rect
       style="color:#000000;clip-rule:nonzero;display:inline;overflow:visible;visibility:visible;opacity:1;isolation:auto;mix-blend-mode:normal;color-interpolation:sRGB;color-interpolation-filters:linearRGB;solid-color:#000000;solid-opacity:1;fill:#eeeeee;fill-opacity:1;fill-rule:nonzero;stroke:none;stroke-width:1;stroke-linecap:butt;stroke-linejoin:miter;stroke-miterlimit:4;stroke-dasharray:none;stroke-dashoffset:0;stroke-opacity:1;color-rendering:auto;image-rendering:auto;shape-rendering:auto;text-rendering:auto;enable-background:accumulate"
       id="rect7613"
       width="166.22"
       height="50"
       x="4.7924073e-007"
       y="1002.3622" />
    <g
       id="g8"
       transform="matrix(0.05859375,0,0,0.05859375,10,1012.3622)">
      <circle
         class="cls-1"
         cx="256"
         cy="256"
         r="256"
         id="circle10"
         style="fill:#3498db" />
      <path
         class="cls-2"
         d="M 378.31,294.086 239.189,511.457 C 126.304,504.139 33.36,423.655 7.3,316.948 L 158.125,206.09 c 0,0 38.398,23.671 85.875,5.91 22.071,-6.325 18,50 18,50 l 46,-48 c 0,0 33.279,-6.231 52,6 18.779,12.269 23,43 23,43 l -13,20 8.31,11.086 z"
         id="path12"
         inkscape:connector-curvature="0"
         style="opacity:0.3;fill:#000000;fill-rule:evenodd" />
      <path
         class="cls-3"
         d="m 383.63,262.61 -66.935,0 c -0.595,30.458 20.433,31.903 35.496,27.219 7.869,-2.447 11.221,-15.374 19.269,-16.129 11.348,-1.066 21.575,29.029 -24.34,36.292 -45.915,7.262 -53.751,-37.376 -53.751,-41.333 0,-3.957 -6.586,-65.528 45.638,-65.528 52.224,0 44.623,59.479 44.623,59.479 z m -43.609,-42.341 c -22.217,-0.414 -22.312,27.219 -22.312,27.219 l 44.623,0 c 0,0 -0.095,-26.805 -22.311,-27.219 z M 265.987,311 c -34.223,-2.454 -11.156,-75.609 -11.156,-75.609 0,0 -2.391,-11.574 -13.184,-15.122 -34.555,-11.36 -31.439,58.471 -31.439,58.471 0,0 -0.451,-14.833 7.099,-23.187 7.551,-8.354 15.314,56.657 -12.169,52.423 -30.561,-4.709 -14.169,-70.241 -9.128,-71.577 -3.025,-4.677 -2.049,-6.902 -11.156,-14.114 -22.248,-17.617 -43.646,40.292 -35.495,59.479 4.117,-25.579 10.661,-34.362 12.17,-27.219 6.573,31.116 -5.817,58.862 -15.213,55.447 -31.049,-11.286 -18.782,-77.792 8.114,-100.812 15.399,-13.18 40.754,-6.936 50.708,8.065 39.749,-40.321 72.172,12.92 68.962,19.154 -10.196,19.803 -6.872,61.919 -5.07,40.325 0.906,-10.866 2.827,-17.426 4.835,-20.752 1.981,-3.283 4.048,-3.415 5.306,-1.427 8.777,14.623 1.752,57.526 -13.184,56.455 z"
         id="path14"
         inkscape:connector-curvature="0"
         style="fill:#ffffff;fill-rule:evenodd" />
    </g>
    <path
       style="font-style:normal;font-weight:normal;font-size:206.34761047px;line-height:125%;font-family:sans-serif;letter-spacing:0px;word-spacing:0px;fill:#3a4750;fill-opacity:1;stroke:none;stroke-width:1px;stroke-linecap:butt;stroke-linejoin:miter;stroke-opacity:1;marker-end:"
       d="m 109.52696,1020.0825 c 0,0.9031 0,1.8063 0,2.7094 -0.53622,0.1291 -1.6005,-0.2699 -1.77556,0.2203 0,0.7836 0,1.5673 0,2.351 0.52095,0.1443 1.62215,-0.2916 1.77556,0.2202 0,3.0338 0,6.0676 0,9.1014 2.36627,0 4.73254,0 7.09881,0 0,-0.8275 0,-1.655 0,-2.4825 -1.47964,0 -2.95927,0 -4.43891,0 0,-2.2797 0,-4.5594 0,-6.8391 1.50925,0 3.0185,0 4.52775,0 0,-0.8571 0,-1.7142 0,-2.5713 -1.50925,0 -3.0185,0 -4.52775,0 0,-0.9766 0,-1.9531 0,-2.9297 -0.88663,0 -1.77327,0 -2.6599,0 l 0,0.1102 0,0.1101 z m -56.724651,0.1364 c -0.934124,4.8811 -1.868082,9.7622 -2.802309,14.6433 0.889359,0 1.778718,0 2.668077,0 0.384673,-2.0122 0.7694,-4.0245 1.154094,-6.0367 2.039653,0 4.079306,0 6.118958,0 0.414297,2.0122 0.828718,4.0245 1.242938,6.0367 0.889,0 1.778001,0 2.667001,0 -0.975738,-4.9408 -1.951907,-9.8815 -2.927721,-14.8223 -2.695612,0 -5.391223,0 -8.086835,0 l -0.02067,0.1082 -0.01353,0.071 z m 13.401476,0.041 c 0,4.8673 0,9.7347 0,14.602 3.63875,0 7.277499,0 10.916248,0 0,-4.0234 0,-8.0469 0,-12.0703 -2.722501,0 -5.445002,0 -8.167503,0 0,-0.9173 0,-1.8347 0,-2.752 -0.916248,0 -1.832496,0 -2.748745,0 l 0,0.1102 0,0.1101 z m -7.418471,2.3508 c 0.237559,1.2144 0.475119,2.4288 0.712678,3.6432 -1.746952,0 -3.493905,0 -5.240857,0 0.211171,-1.2144 0.422343,-2.4288 0.633515,-3.6432 1.298221,0 2.596442,0 3.894664,0 z m 21.533917,0.4012 c 0,3.9204 0,7.8409 0,11.7614 3.72752,0 7.45504,0 11.182561,0 0,-3.9939 0,-7.9878 0,-11.9817 -3.727521,0 -7.455041,0 -11.182561,0 l 0,0.1101 0,0.1102 z m 14.204287,0 c 0,3.95 10e-7,7.9 0,11.85 3.757135,0 7.514272,0 11.271402,0 0,-4.0234 0,-8.0469 0,-12.0703 -0.91625,0 -1.8325,0 -2.74874,0 0,3.2256 0,6.4512 0,9.6767 -1.95418,0 -3.908364,0 -5.862544,0 0,-3.2255 0,-6.4511 0,-9.6767 -0.886706,0 -1.773412,0 -2.660118,0 l 0,0.1101 0,0.1102 z m 31.871072,0 c 0,3.9204 0,7.8409 0,11.7614 0.88663,0 1.77327,0 2.6599,0 0,-3.1664 0,-6.3328 0,-9.4993 1.24401,0 2.48803,0 3.73204,0 0,3.1665 0,6.3329 0,9.4993 0.85709,0 1.71418,0 2.57127,0 0,-3.1664 0,-6.3328 0,-9.4993 1.24395,0 2.48789,0 3.73183,0 0,3.1665 0,6.3329 0,9.4993 0.8867,0 1.77341,0 2.66011,0 0,-3.9939 0,-7.9878 0,-11.9817 -5.11838,0 -10.23677,0 -15.35515,0 l 0,0.1101 0,0.1102 z m 18.1992,0 c 0,3.95 0,7.9 0,11.85 3.87552,0 7.75104,0 11.62656,0 0,-0.8274 0,-1.6549 0,-2.4824 -2.98882,0 -5.97763,0 -8.96645,0 0,-0.8592 0,-1.7185 0,-2.5777 2.98882,0 5.97763,0 8.96645,0 0,-2.3368 0,-4.6735 0,-7.0102 -3.87552,0 -7.75104,0 -11.62656,0 l 0,0.1101 0,0.1102 z m -70.133874,2.2621 c 0,2.3094 0,4.6187 0,6.928 -1.835795,0 -3.67159,0 -5.507386,0 0,-2.3093 0,-4.6186 0,-6.928 1.835796,0 3.671591,0 5.507386,0 z m 14.381973,0 c 0,2.339 0,4.6779 0,7.0169 -1.954252,0 -3.908504,0 -5.862756,0 0,-2.339 0,-4.6779 0,-7.0169 1.954252,0 3.908504,0 5.862756,0 z m 64.718551,0.089 c -0.0745,0.6144 0.14852,1.5263 -0.11014,1.9565 -2.06546,0 -4.13093,0 -6.1964,0 0.0745,-0.6143 -0.14851,-1.5263 0.11014,-1.9565 2.06547,0 4.13094,0 6.1964,0 z m -33.8241,6.0828 c 0,1.05 0,2.1 0,3.15 1.15294,0 2.30589,0 3.45884,0 0,-1.1234 0,-2.2468 0,-3.3702 -1.15295,0 -2.3059,0 -3.45884,0 l 0,0.1101 0,0.1101 z"
       id="text4199"
       inkscape:connector-curvature="0" />
  </g>
</svg>
