<?xml version="1.0" encoding="UTF-8" standalone="no"?>
<!-- Created with Inkscape (http://www.inkscape.org/) -->

<svg
   xmlns:dc="http://purl.org/dc/elements/1.1/"
   xmlns:cc="http://creativecommons.org/ns#"
   xmlns:rdf="http://www.w3.org/1999/02/22-rdf-syntax-ns#"
   xmlns:svg="http://www.w3.org/2000/svg"
   xmlns="http://www.w3.org/2000/svg"
   xmlns:sodipodi="http://sodipodi.sourceforge.net/DTD/sodipodi-0.dtd"
   xmlns:inkscape="http://www.inkscape.org/namespaces/inkscape"
   width="172.386"
   height="50"
   viewBox="0 0 172.386 49.999996"
   id="svg7605"
   version="1.1"
   inkscape:version="0.91 r13725"
   sodipodi:docname="battle.net.svg"
   inkscape:export-filename="C:\Users\10000_000\Desktop\twitter.png"
   inkscape:export-xdpi="90"
   inkscape:export-ydpi="90">
  <defs
     id="defs7607">
    <marker
       inkscape:stockid="Arrow1Lstart"
       orient="auto"
       refY="0"
       refX="0"
       id="Arrow1Lstart"
       style="overflow:visible"
       inkscape:isstock="true">
      <path
         id="path4254"
         d="M 0,0 5,-5 -12.5,0 5,5 0,0 Z"
         style="fill-rule:evenodd;stroke:#000000;stroke-width:1pt"
         transform="matrix(0.8,0,0,0.8,10,0)"
         inkscape:connector-curvature="0" />
    </marker>
  </defs>
  <sodipodi:namedview
     id="base"
     pagecolor="#ffffff"
     bordercolor="#666666"
     borderopacity="1.0"
     inkscape:pageopacity="0.0"
     inkscape:pageshadow="2"
     inkscape:zoom="4.3666667"
     inkscape:cx="89.520249"
     inkscape:cy="4.0164571"
     inkscape:document-units="px"
     inkscape:current-layer="layer1"
     showgrid="true"
     showguides="false"
     inkscape:snap-page="false"
     inkscape:snap-grids="true"
     inkscape:snap-to-guides="true"
     inkscape:window-width="1366"
     inkscape:window-height="705"
     inkscape:window-x="-8"
     inkscape:window-y="-8"
     inkscape:window-maximized="1"
     units="px">
    <inkscape:grid
       type="xygrid"
       id="grid8437" />
  </sodipodi:namedview>
  <metadata
     id="metadata7610">
    <rdf:RDF>
      <cc:Work
         rdf:about="">
        <dc:format>image/svg+xml</dc:format>
        <dc:type
           rdf:resource="http://purl.org/dc/dcmitype/StillImage" />
        <dc:title></dc:title>
      </cc:Work>
    </rdf:RDF>
  </metadata>
  <g
     inkscape:label="Layer 1"
     inkscape:groupmode="layer"
     id="layer1"
     transform="translate(0,-1002.3622)">
    <rect
       style="color:#000000;clip-rule:nonzero;display:inline;overflow:visible;visibility:visible;opacity:1;isolation:auto;mix-blend-mode:normal;color-interpolation:sRGB;color-interpolation-filters:linearRGB;solid-color:#000000;solid-opacity:1;fill:#eeeeee;fill-opacity:1;fill-rule:nonzero;stroke:none;stroke-width:1;stroke-linecap:butt;stroke-linejoin:miter;stroke-miterlimit:4;stroke-dasharray:none;stroke-dashoffset:0;stroke-opacity:1;color-rendering:auto;image-rendering:auto;shape-rendering:auto;text-rendering:auto;enable-background:accumulate"
       id="rect7613"
       width="172.386"
       height="50"
       x="4.7924073e-007"
       y="1002.3622" />
    <path
       style="font-style:normal;font-weight:normal;font-size:191.10420227px;line-height:125%;font-family:sans-serif;letter-spacing:0px;word-spacing:0px;fill:#3a4750;fill-opacity:1;stroke:none;stroke-width:1px;stroke-linecap:butt;stroke-linejoin:miter;stroke-opacity:1;marker-end:"
       d="m 99.519622,1020.0954 c 0,4.8933 0,9.7865 0,14.6798 0.909658,0 1.819328,0 2.728988,0 0,-4.971 0,-9.942 0,-14.913 -0.90966,0 -1.81933,0 -2.728988,0 l 0,0.1166 0,0.1166 z m -19.755752,0.2609 c 0,0.8796 0,1.7592 0,2.6388 -0.563642,0.172 -1.893505,-0.4222 -1.740542,0.4664 0.07642,0.6586 -0.153785,1.6239 0.116583,2.0887 0.591413,0.1442 1.889207,-0.418 1.623959,0.5829 0,2.8517 0,5.7034 0,8.5551 2.331198,0 4.662396,0 6.993594,0 0,-0.8227 0,-1.6453 0,-2.468 -1.450528,0 -2.901057,0 -4.351585,0 0,-2.2234 0,-4.4467 0,-6.67 1.479522,0 2.959044,0 4.438566,0 0,-0.8517 0,-1.7034 0,-2.5551 -1.479522,0 -2.959044,0 -4.438566,0 0,-0.9573 0,-1.9146 0,-2.872 -0.880669,0 -1.761339,0 -2.642009,0 l 0,0.1166 0,0.1166 z m 10.182539,0 c 0,0.8796 0,1.7592 0,2.6388 -0.563691,0.172 -1.893703,-0.4223 -1.74077,0.4664 0.07642,0.6586 -0.153786,1.6239 0.116582,2.0887 0.591475,0.1442 1.889374,-0.418 1.624188,0.5829 0,2.8517 0,5.7034 0,8.5551 2.331121,0 4.662244,0 6.993365,0 0,-0.8227 0,-1.6453 0,-2.468 -1.450452,0 -2.900904,0 -4.351356,0 0,-2.2234 0,-4.4467 0,-6.67 1.479522,0 2.959044,0 4.438566,0 0,-0.8517 0,-1.7034 0,-2.5551 -1.479522,0 -2.959044,0 -4.438566,0 0,-0.9573 0,-1.9146 0,-2.872 -0.88067,0 -1.761339,0 -2.642009,0 l 0,0.1166 0,0.1166 z m 65.358691,0 c 0,0.8796 0,1.7592 0,2.6388 -0.56364,0.172 -1.8935,-0.4222 -1.74054,0.4664 0.0764,0.6586 -0.15378,1.6239 0.11658,2.0887 0.59142,0.1442 1.88921,-0.418 1.62396,0.5829 0,2.8517 0,5.7034 0,8.5551 2.3312,0 4.6624,0 6.9936,0 0,-0.8227 0,-1.6453 0,-2.468 -1.45053,0 -2.90106,0 -4.35159,0 0,-2.2234 0,-4.4467 0,-6.67 1.47953,0 2.95905,0 4.43857,0 0,-0.8517 0,-1.7034 0,-2.5551 -1.47952,0 -2.95904,0 -4.43857,0 0,-0.9573 0,-1.9146 0,-2.872 -0.88067,0 -1.76134,0 -2.64201,0 l 0,0.1166 0,0.1166 z M 50,1020.5305 c 0,4.7772 0,9.5545 0,14.3317 4.129804,0 8.259608,0 12.389411,0 0,-2.8823 0,-5.7646 0,-8.6469 -0.620531,-0.086 -1.578606,0.1664 -2.001715,-0.1166 0,-1.9338 0,-3.8676 0,-5.8014 -3.462565,0 -6.92513,0 -10.387696,0 l 0,0.1166 0,0.1166 z m 7.658479,2.2347 c 0,1.15 0,2.3 0,3.4501 -1.672157,0 -3.344314,0 -5.01647,0 0,-1.1501 0,-2.3001 0,-3.4501 1.672156,0 3.344313,0 5.01647,0 z m 10.095557,0.4631 c 0,0.7739 0,1.5479 0,2.3219 1.827599,0 3.655199,0 5.4828,0 0,0.7148 0,1.4296 0,2.1444 -2.726942,0 -5.453882,0 -8.180824,0 0,2.3892 0,4.7784 0,7.1676 3.636605,0 7.27321,0 10.909814,0 0,-3.9557 0,-7.9114 0,-11.8671 -2.737264,0 -5.474526,0 -8.21179,0 l 0,0.1166 0,0.1166 z m 37.857484,0 c 0,3.878 0,7.7559 0,11.6339 3.81064,0 7.62129,0 11.43193,0 0,-0.8226 0,-1.6452 0,-2.4678 -2.92997,0 -5.85995,0 -8.78992,0 0,-0.8309 0,-1.6618 0,-2.4927 2.92997,0 5.85995,0 8.78992,0 0,-2.3022 0,-4.6044 0,-6.9066 -3.81064,0 -7.62129,0 -11.43193,0 l 0,0.1166 0,0.1166 z m 21.3221,0 c 0,3.849 0,7.6979 0,11.5469 0.88067,0 1.76134,0 2.64201,0 0,-3.104 0,-6.208 0,-9.312 1.81728,0 3.63456,0 5.45183,0 0,3.104 0,6.208 0,9.312 0.88067,0 1.76134,0 2.64201,0 0,-3.9267 0,-7.8534 0,-11.7801 -3.57861,0 -7.15723,0 -10.73585,0 l 0,0.1166 0,0.1166 z m 13.40245,0 c 0,3.878 0,7.7559 0,11.6339 3.81072,0 7.62144,0 11.43216,0 0,-0.8226 0,-1.6452 0,-2.4678 -2.92997,0 -5.85995,0 -8.78992,0 0,-0.8309 0,-1.6618 0,-2.4927 2.92997,0 5.85995,0 8.78992,0 0,-2.3022 0,-4.6044 0,-6.9066 -3.81072,0 -7.62144,0 -11.43216,0 l 0,0.1166 0,0.1166 z m -25.93463,2.3219 c -0.15204,0.5535 0.30762,1.7187 -0.23316,1.8835 -1.97159,0 -3.94317,0 -5.91475,0 0.15204,-0.5535 -0.30762,-1.7188 0.23316,-1.8835 1.97159,0 3.94317,0 5.91475,0 z m 34.72456,0 c -0.15205,0.5535 0.30761,1.7187 -0.23317,1.8835 -1.97151,0 -3.94301,0 -5.91452,0 0.15204,-0.5535 -0.30762,-1.7188 0.23317,-1.8835 1.9715,0 3.94301,0 5.91452,0 z m -89.378825,3.3071 c 0,1.179 0,2.358 0,3.5371 -2.368388,0 -4.736777,0 -7.105166,0 0,-1.1791 0,-2.3581 0,-3.5371 2.368389,0 4.736778,0 7.105166,0 z m 13.489661,1.3054 c 0,0.7148 0,1.4296 0,2.1445 -1.846272,0 -3.692543,0 -5.538815,0 0,-0.7149 0,-1.4297 0,-2.1445 1.846272,0 3.692543,0 5.538815,0 z m 47.169754,1.3334 c 0,1.0351 0,2.0701 0,3.1052 1.14176,0 2.28353,0 3.4253,0 0,-1.1128 0,-2.2256 0,-3.3384 -1.14177,0 -2.28354,0 -3.4253,0 l 0,0.1166 0,0.1166 z"
       id="text4147"
       inkscape:connector-curvature="0" />
    <g
       transform="matrix(0.234375,0,0,0.234375,10,1012.3622)"
       id="g4180">
      <g
         id="#000000ff">
        <path
           style="opacity:1;fill:#000000"
           inkscape:connector-curvature="0"
           id="path5"
           d="m 60.45,0 7.01,0 c 15.83,0.98 31.26,7.82 42.3,19.27 10.84,10.93 17.23,25.9 18.24,41.22 l 0,7 C 127.02,82.36 120.99,96.9 110.7,107.74 99.6,119.73 83.78,126.95 67.52,128 l -6.96,0 C 45.2,127.01 30.19,120.6 19.23,109.73 7.82,98.71 1.01,83.32 0,67.52 L 0,60.51 C 0.99,44.92 7.61,29.71 18.76,18.73 29.73,7.6 44.9,1 60.45,0 m -7.76,28.67 c -3.96,3.44 -4.48,9.1 -4.76,14 C 46.2,40.34 44,37.98 40.79,38.66 l 0.09,0.38 c -3.05,3.46 -3.4,8.18 -3.52,12.57 -5.32,0.91 -10.79,0.66 -16.06,1.96 5.41,-0.02 10.82,-0.38 16.23,-0.3 0.73,5.34 2.32,10.53 4.39,15.5 -2.64,3.35 -4.42,7.24 -6.19,11.09 -1.25,3.55 -2.33,7.28 -1.62,11.08 1.23,1.56 2.71,3.1 4.83,3.26 4.61,0.55 9.05,-1.46 13.07,-3.49 -1.65,2.34 -2.29,5.39 -0.71,7.93 4.87,0.95 9.5,-0.89 13.67,-3.23 2.63,4.69 5.75,9.28 9.86,12.81 -3.24,-4.36 -6.42,-8.79 -8.86,-13.66 4.27,-3.31 8.07,-7.21 11.22,-11.59 5.95,0.74 11.99,0.14 17.83,-1.19 l -0.19,-0.13 c 2.08,-0.73 4,-1.8 5.72,-3.17 2.55,-6.62 -4.01,-11.94 -9.11,-14.88 2.26,-0.33 4.52,-0.88 6.43,-2.19 0.6,-5.68 -4.67,-8.97 -8.91,-11.44 2.07,-4.97 5.28,-9.71 5.63,-15.22 -1.4,5.11 -4.31,9.57 -6.62,14.28 C 82.69,47.77 77.57,45.74 72.1,45.44 69.27,39.67 65.75,34.15 61.05,29.71 58.56,28.46 55.31,26.73 52.69,28.67 Z" />
        <path
           style="opacity:1;fill:#000000"
           inkscape:connector-curvature="0"
           id="path7"
           d="m 53.39,48.68 c 0.53,-4.64 1.24,-12.09 7.3,-12.42 3.09,2.52 5.8,5.47 8.04,8.77 -1.65,0.14 -3.3,0.26 -4.95,0.41 -3.67,0.24 -7.11,1.68 -10.39,3.24 z" />
        <path
           style="opacity:1;fill:#000000"
           inkscape:connector-curvature="0"
           id="path9"
           d="m 42.49,45.48 c 0.8,-0.8 1.61,-1.59 2.43,-2.37 0.98,0.6 1.96,1.2 2.93,1.8 0.16,2.24 0.44,4.46 0.71,6.68 -2.43,0.03 -4.86,0.05 -7.29,0.06 0.33,-2.07 0.68,-4.14 1.22,-6.17 z" />
        <path
           style="opacity:1;fill:#000000"
           inkscape:connector-curvature="0"
           id="path11"
           d="m 53.61,49.93 c 10.14,-4.73 21.8,-1.83 31.56,2.45 -0.96,2.08 -2.32,3.93 -3.93,5.56 -1.29,-1.81 -2.65,-3.56 -4.19,-5.16 1.19,1.9 2.5,3.7 3.79,5.53 -8.23,-2.66 -16.61,-4.91 -25.21,-6.01 -0.06,0.75 -0.18,2.26 -0.24,3.01 9.39,1.93 18.7,4.8 27.08,9.54 -1.3,11.11 -9.43,20.26 -18.52,26.1 -0.85,-2.15 -1.74,-4.28 -2.67,-6.39 1.74,0.02 3.48,0.06 5.22,0.05 -1.13,-0.17 -3.4,-0.5 -4.53,-0.67 C 68.06,77.95 74.63,72.28 79.32,65.06 78.35,64.7 77.39,64.35 76.42,64 70.43,71.03 63.33,77.1 55.6,82.16 45.66,76.53 42.66,64.02 41.39,53.48 c 2.16,0.1 4.32,0.21 6.48,0.31 -0.57,2.14 -1.18,4.26 -1.72,6.41 0.77,-1.83 1.34,-3.8 2.76,-5.25 1.57,8.23 3.87,16.32 7.07,24.07 0.71,-0.17 2.12,-0.52 2.82,-0.7 -2.73,-9.23 -5.34,-18.68 -5.19,-28.39 z" />
        <path
           style="opacity:1;fill:#000000"
           inkscape:connector-curvature="0"
           id="path13"
           d="m 87.09,53.35 c 1.78,1.55 3.5,3.17 5.3,4.7 -0.04,0.76 -0.13,2.27 -0.18,3.02 -1.04,0.4 -2.08,0.8 -3.11,1.2 -1.9,-1.01 -3.83,-1.95 -5.75,-2.91 1.27,-1.99 2.51,-4 3.74,-6.01 z" />
        <path
           style="opacity:1;fill:#000000"
           inkscape:connector-curvature="0"
           id="path15"
           d="m 83.63,65.33 c 3.65,2.69 7.43,5.81 8.26,10.54 -0.75,0.72 -1.5,1.43 -2.25,2.15 -3.31,1.7 -7.07,2.03 -10.7,2.45 l 0.64,-1.28 c 2.38,-4.26 3.74,-8.99 4.05,-13.86 z" />
        <path
           style="opacity:1;fill:#000000"
           inkscape:connector-curvature="0"
           id="path17"
           d="m 39.74,83.12 c 0.46,-4.04 1.74,-7.92 3.62,-11.51 2.58,4.66 6.16,8.75 10.78,11.47 -3.69,1.72 -7.65,3.04 -11.79,2.53 -0.86,-0.84 -1.72,-1.68 -2.61,-2.49 z" />
        <path
           style="opacity:1;fill:#000000"
           inkscape:connector-curvature="0"
           id="path19"
           d="m 53.22,89.95 c 2.05,-1.32 4.07,-2.69 6.09,-4.05 1.09,2.04 2.18,4.08 3.28,6.11 -1.43,0.65 -2.85,1.31 -4.27,1.99 -1.49,-0.14 -3.07,-0.12 -4.44,-0.82 -0.28,-1.07 -0.5,-2.14 -0.66,-3.23 z" />
      </g>
      <g
         id="#009dd2ff">
        <path
           style="opacity:1;fill:#009dd2"
           inkscape:connector-curvature="0"
           id="path22"
           d="m 52.69,28.67 c 2.62,-1.94 5.87,-0.21 8.36,1.04 -1,1.1 -2,2.2 -3,3.29 0.86,1.1 1.72,2.2 2.64,3.26 -6.06,0.33 -6.77,7.78 -7.3,12.42 3.28,-1.56 6.72,-3 10.39,-3.24 2.77,-0.14 5.55,-0.15 8.32,0 5.47,0.3 10.59,2.33 15.87,3.59 2.31,-4.71 5.22,-9.17 6.62,-14.28 -0.35,5.51 -3.56,10.25 -5.63,15.22 4.24,2.47 9.51,5.76 8.91,11.44 -1.84,-1.09 -3.74,-2.1 -5.48,-3.36 -1.8,-1.53 -3.52,-3.15 -5.3,-4.7 -1.23,2.01 -2.47,4.02 -3.74,6.01 1.92,0.96 3.85,1.9 5.75,2.91 0.78,0.43 1.57,0.87 2.34,1.33 5.1,2.94 11.66,8.26 9.11,14.88 -2.18,-1.41 -4.28,-3.02 -6.69,-4.02 -0.69,0.42 -1.35,0.89 -1.97,1.41 -0.83,-4.73 -4.61,-7.85 -8.26,-10.54 -0.31,4.87 -1.67,9.6 -4.05,13.86 -0.73,1.3 -1.56,2.54 -2.39,3.78 -3.15,4.38 -6.95,8.28 -11.22,11.59 2.44,4.87 5.62,9.3 8.86,13.66 -4.11,-3.53 -7.23,-8.12 -9.86,-12.81 -4.17,2.34 -8.8,4.18 -13.67,3.23 2.37,-1.5 4.66,-3.13 7.02,-4.64 1.42,-0.68 2.84,-1.34 4.27,-1.99 -1.1,-2.03 -2.19,-4.07 -3.28,-6.11 -2.02,1.36 -4.04,2.73 -6.09,4.05 -0.3,0.19 -0.91,0.57 -1.21,0.76 -4.02,2.03 -8.46,4.04 -13.07,3.49 -2.12,-0.16 -3.6,-1.7 -4.83,-3.26 2.72,-1.82 5.45,-3.62 8.24,-5.33 4.14,0.51 8.1,-0.81 11.79,-2.53 -4.62,-2.72 -8.2,-6.81 -10.78,-11.47 -0.5,-0.93 -0.98,-1.88 -1.44,-2.84 -2.07,-4.97 -3.66,-10.16 -4.39,-15.5 -5.41,-0.08 -10.82,0.28 -16.23,0.3 5.27,-1.3 10.74,-1.05 16.06,-1.96 0.12,-4.39 0.47,-9.11 3.52,-12.57 0.5,2.15 1.04,4.3 1.61,6.44 -0.54,2.03 -0.89,4.1 -1.22,6.17 2.43,-0.01 4.86,-0.03 7.29,-0.06 -0.27,-2.22 -0.55,-4.44 -0.71,-6.68 0.02,-0.56 0.06,-1.68 0.08,-2.24 0.28,-4.9 0.8,-10.56 4.76,-14 m 0.92,21.26 c -0.15,9.71 2.46,19.16 5.19,28.39 -0.7,0.18 -2.11,0.53 -2.82,0.7 -3.2,-7.75 -5.5,-15.84 -7.07,-24.07 -1.42,1.45 -1.99,3.42 -2.76,5.25 0.54,-2.15 1.15,-4.27 1.72,-6.41 -2.16,-0.1 -4.32,-0.21 -6.48,-0.31 1.27,10.54 4.27,23.05 14.21,28.68 C 63.33,77.1 70.43,71.03 76.42,64 c 0.97,0.35 1.93,0.7 2.9,1.06 -4.69,7.22 -11.26,12.89 -17.35,18.88 1.13,0.17 3.4,0.5 4.53,0.67 -1.74,0.01 -3.48,-0.03 -5.22,-0.05 0.93,2.11 1.82,4.24 2.67,6.39 9.09,-5.84 17.22,-14.99 18.52,-26.1 -8.38,-4.74 -17.69,-7.61 -27.08,-9.54 0.06,-0.75 0.18,-2.26 0.24,-3.01 8.6,1.1 16.98,3.35 25.21,6.01 -1.29,-1.83 -2.6,-3.63 -3.79,-5.53 1.54,1.6 2.9,3.35 4.19,5.16 1.61,-1.63 2.97,-3.48 3.93,-5.56 C 75.41,48.1 63.75,45.2 53.61,49.93 Z" />
      </g>
      <g
         id="#016e9eff">
        <path
           style="opacity:1;fill:#016e9e"
           inkscape:connector-curvature="0"
           id="path25"
           d="m 61.05,29.71 c 4.7,4.44 8.22,9.96 11.05,15.73 -2.77,-0.15 -5.55,-0.14 -8.32,0 1.65,-0.15 3.3,-0.27 4.95,-0.41 -2.24,-3.3 -4.95,-6.25 -8.04,-8.77 C 59.77,35.2 58.91,34.1 58.05,33 c 1,-1.09 2,-2.19 3,-3.29 z" />
      </g>
      <g
         id="#007aadff">
        <path
           style="opacity:1;fill:#007aad"
           inkscape:connector-curvature="0"
           id="path28"
           d="m 40.79,38.66 c 3.21,-0.68 5.41,1.68 7.14,4.01 -0.02,0.56 -0.06,1.68 -0.08,2.24 -0.97,-0.6 -1.95,-1.2 -2.93,-1.8 -0.82,0.78 -1.63,1.57 -2.43,2.37 -0.57,-2.14 -1.11,-4.29 -1.61,-6.44 l -0.09,-0.38 z" />
      </g>
      <g
         id="#026d9cff">
        <path
           style="opacity:1;fill:#026d9c"
           inkscape:connector-curvature="0"
           id="path31"
           d="m 92.39,58.05 c 1.74,1.26 3.64,2.27 5.48,3.36 -1.91,1.31 -4.17,1.86 -6.43,2.19 -0.77,-0.46 -1.56,-0.9 -2.34,-1.33 1.03,-0.4 2.07,-0.8 3.11,-1.2 0.05,-0.75 0.14,-2.26 0.18,-3.02 z" />
      </g>
      <g
         id="#006c9dff">
        <path
           style="opacity:1;fill:#006c9d"
           inkscape:connector-curvature="0"
           id="path34"
           d="m 35.73,79.86 c 1.77,-3.85 3.55,-7.74 6.19,-11.09 0.46,0.96 0.94,1.91 1.44,2.84 -1.88,3.59 -3.16,7.47 -3.62,11.51 -1.28,-1.16 -2.65,-2.21 -4.01,-3.26 z" />
      </g>
      <g
         id="#0082b6ff">
        <path
           style="opacity:1;fill:#0082b6"
           inkscape:connector-curvature="0"
           id="path37"
           d="m 91.89,75.87 c 0.62,-0.52 1.28,-0.99 1.97,-1.41 2.41,1 4.51,2.61 6.69,4.02 -1.72,1.37 -3.64,2.44 -5.72,3.17 -1.71,-1.24 -3.44,-2.44 -5.19,-3.63 0.75,-0.72 1.5,-1.43 2.25,-2.15 z" />
      </g>
      <g
         id="#016d9fff">
        <path
           style="opacity:1;fill:#016d9f"
           inkscape:connector-curvature="0"
           id="path40"
           d="m 78.94,80.47 c 3.63,-0.42 7.39,-0.75 10.7,-2.45 1.75,1.19 3.48,2.39 5.19,3.63 l 0.19,0.13 c -5.84,1.33 -11.88,1.93 -17.83,1.19 0.83,-1.24 1.66,-2.48 2.39,-3.78 l -0.64,1.28 z" />
      </g>
      <g
         id="#017eb2ff">
        <path
           style="opacity:1;fill:#017eb2"
           inkscape:connector-curvature="0"
           id="path43"
           d="m 35.73,79.86 c 1.36,1.05 2.73,2.1 4.01,3.26 0.89,0.81 1.75,1.65 2.61,2.49 -2.79,1.71 -5.52,3.51 -8.24,5.33 -0.71,-3.8 0.37,-7.53 1.62,-11.08 z" />
      </g>
      <g
         id="#0179aeff">
        <path
           style="opacity:1;fill:#0179ae"
           inkscape:connector-curvature="0"
           id="path46"
           d="m 52.01,90.71 c 0.3,-0.19 0.91,-0.57 1.21,-0.76 0.16,1.09 0.38,2.16 0.66,3.23 1.37,0.7 2.95,0.68 4.44,0.82 -2.36,1.51 -4.65,3.14 -7.02,4.64 -1.58,-2.54 -0.94,-5.59 0.71,-7.93 z" />
      </g>
    </g>
  </g>
</svg>
