<?xml version="1.0" encoding="UTF-8" standalone="no"?>
<!-- Created with Inkscape (http://www.inkscape.org/) -->

<svg
   xmlns:dc="http://purl.org/dc/elements/1.1/"
   xmlns:cc="http://creativecommons.org/ns#"
   xmlns:rdf="http://www.w3.org/1999/02/22-rdf-syntax-ns#"
   xmlns:svg="http://www.w3.org/2000/svg"
   xmlns="http://www.w3.org/2000/svg"
   xmlns:sodipodi="http://sodipodi.sourceforge.net/DTD/sodipodi-0.dtd"
   xmlns:inkscape="http://www.inkscape.org/namespaces/inkscape"
   width="137.914"
   height="50"
   viewBox="0 0 137.914 49.999996"
   id="svg7605"
   version="1.1"
   inkscape:version="0.91 r13725"
   sodipodi:docname="bitcoin.svg"
   inkscape:export-filename="C:\Users\10000_000\Desktop\twitter.png"
   inkscape:export-xdpi="90"
   inkscape:export-ydpi="90">
  <defs
     id="defs7607">
    <marker
       inkscape:stockid="Arrow1Lstart"
       orient="auto"
       refY="0"
       refX="0"
       id="Arrow1Lstart"
       style="overflow:visible"
       inkscape:isstock="true">
      <path
         id="path4254"
         d="M 0,0 5,-5 -12.5,0 5,5 0,0 Z"
         style="fill-rule:evenodd;stroke:#000000;stroke-width:1pt"
         transform="matrix(0.8,0,0,0.8,10,0)"
         inkscape:connector-curvature="0" />
    </marker>
    <linearGradient
       gradientTransform="matrix(1,0,0,-1,-41.66,348.04)"
       gradientUnits="userSpaceOnUse"
       id="SVGID_1_"
       x1="41.66"
       x2="553.65997"
       y1="92.040001"
       y2="92.040001">
      <stop
         offset="0"
         style="stop-color:#F9AA4C"
         id="stop5" />
      <stop
         offset="1"
         style="stop-color:#F7941F"
         id="stop7" />
    </linearGradient>
  </defs>
  <sodipodi:namedview
     id="base"
     pagecolor="#ffffff"
     bordercolor="#666666"
     borderopacity="1.0"
     inkscape:pageopacity="0.0"
     inkscape:pageshadow="2"
     inkscape:zoom="2.8284271"
     inkscape:cx="-6.396277"
     inkscape:cy="34.015243"
     inkscape:document-units="px"
     inkscape:current-layer="layer1"
     showgrid="true"
     showguides="false"
     inkscape:snap-page="false"
     inkscape:snap-grids="true"
     inkscape:snap-to-guides="true"
     inkscape:window-width="1366"
     inkscape:window-height="705"
     inkscape:window-x="-8"
     inkscape:window-y="-8"
     inkscape:window-maximized="1"
     units="px">
    <inkscape:grid
       type="xygrid"
       id="grid8437" />
  </sodipodi:namedview>
  <metadata
     id="metadata7610">
    <rdf:RDF>
      <cc:Work
         rdf:about="">
        <dc:format>image/svg+xml</dc:format>
        <dc:type
           rdf:resource="http://purl.org/dc/dcmitype/StillImage" />
        <dc:title></dc:title>
      </cc:Work>
    </rdf:RDF>
  </metadata>
  <g
     inkscape:label="Layer 1"
     inkscape:groupmode="layer"
     id="layer1"
     transform="translate(0,-1002.3622)">
    <rect
       style="color:#000000;clip-rule:nonzero;display:inline;overflow:visible;visibility:visible;opacity:1;isolation:auto;mix-blend-mode:normal;color-interpolation:sRGB;color-interpolation-filters:linearRGB;solid-color:#000000;solid-opacity:1;fill:#eeeeee;fill-opacity:1;fill-rule:nonzero;stroke:none;stroke-width:1;stroke-linecap:butt;stroke-linejoin:miter;stroke-miterlimit:4;stroke-dasharray:none;stroke-dashoffset:0;stroke-opacity:1;color-rendering:auto;image-rendering:auto;shape-rendering:auto;text-rendering:auto;enable-background:accumulate"
       id="rect7613"
       width="137.914"
       height="50"
       x="4.7924073e-007"
       y="1002.3622" />
    <path
       style="font-style:normal;font-weight:normal;font-size:283.46020508px;line-height:125%;font-family:sans-serif;letter-spacing:0px;word-spacing:0px;fill:#3a4750;fill-opacity:1;stroke:none;stroke-width:1px;stroke-linecap:butt;stroke-linejoin:miter;stroke-opacity:1"
       d="m 66.466658,1020.0238 c 0,0.7102 0,1.4203 0,2.1305 0.853539,0 1.707078,0 2.560617,0 0,-0.764 0,-1.5281 0,-2.2921 -0.853539,0 -1.707078,0 -2.560617,0 l 0,0.081 0,0.081 z m 6.533118,0 c 0,0.9306 0,1.8611 0,2.7916 -0.596651,0 -1.193302,0 -1.789954,0 0,0.8237 0,1.6474 0,2.4711 0.596652,0 1.193303,0 1.789954,0 0,3.1323 0,6.2646 0,9.3968 2.345088,0 4.690176,0 7.035264,0 0,-0.7939 0,-1.5878 0,-2.3817 -1.491549,0 -2.983098,0 -4.474647,0 0,-2.3384 0,-4.6767 0,-7.0151 1.521384,0 3.042769,0 4.564153,0 0,-0.8237 0,-1.6474 0,-2.4711 -1.521384,0 -3.042769,0 -4.564153,0 0,-0.9844 0,-1.9688 0,-2.9532 -0.853539,0 -1.707078,0 -2.560617,0 l 0,0.081 0,0.081 z m 38.392364,0 c 0,0.7102 0,1.4203 0,2.1305 0.85354,0 1.70708,0 2.56062,0 0,-0.764 0,-1.5281 0,-2.2921 -0.85354,0 -1.70708,0 -2.56062,0 l 0,0.081 0,0.081 z M 50,1020.2027 c 0,4.8865 0,9.773 0,14.6595 4.194607,0 8.389214,0 12.583821,0 0,-2.9119 0,-5.8237 0,-8.7356 -0.686104,0 -1.372208,0 -2.058312,0 0,-2.0285 0,-4.057 0,-6.0855 -3.508503,0 -7.017006,0 -10.525509,0 l 0,0.081 0,0.081 z m 7.875385,2.2201 c 0,1.2346 0,2.4692 0,3.7038 -1.771589,0 -3.543178,0 -5.314768,0 0,-1.2346 0,-2.4692 0,-3.7038 1.77159,0 3.543179,0 5.314768,0 z m 6.801477,0.5543 c 0,0.7101 0,1.4203 0,2.1304 0.596599,0 1.193198,0 1.789796,0 0,3.192 0,6.3839 0,9.5758 0.853539,0 1.707078,0 2.560617,0 0,-3.9559 0,-7.9119 0,-11.8679 -1.450138,0 -2.900275,0 -4.350413,0 l 0,0.081 0,0.081 z m 17.809084,0 c 0,3.9319 0,7.8638 0,11.7957 3.717297,0 7.434593,0 11.15189,0 0,-0.7939 0,-1.5878 0,-2.3817 -2.893593,0 -5.787186,0 -8.680778,0 0,-2.398 0,-4.7961 0,-7.1941 2.893592,0 5.787185,0 8.680778,0 0,-0.7939 0,-1.5877 0,-2.3816 -3.717297,0 -7.434593,0 -11.15189,0 l 0,0.081 0,0.081 z m 13.692459,0 c 0,3.9319 0,7.8638 0,11.7957 3.717296,0 7.434595,0 11.151885,0 0,-3.9858 0,-7.9716 0,-11.9574 -3.71729,0 -7.434589,0 -11.151885,0 l 0,0.081 0,0.081 z m 13.423945,0 c 0,0.7101 0,1.4203 0,2.1304 0.59659,0 1.19319,0 1.78979,0 0,3.192 0,6.3839 0,9.5758 0.85354,0 1.70708,0 2.56062,0 0,-3.9559 0,-7.9119 0,-11.8679 -1.45014,0 -2.90028,0 -4.35041,0 l 0,0.081 0,0.081 z m 7.42785,0 c 0,3.9319 0,7.8638 0,11.7957 0.85354,0 1.70708,0 2.56062,0 0,-3.1919 0,-6.3838 0,-9.5758 1.92077,0 3.84153,0 5.7623,0 0,3.192 0,6.3839 0,9.5758 0.85354,0 1.70708,0 2.56062,0 0,-3.9858 0,-7.9716 0,-11.9574 -3.62785,0 -7.25569,0 -10.88354,0 l 0,0.081 0,0.081 z m -12.26052,2.2199 c 0,2.398 0,4.7961 0,7.1941 -2.01022,0 -4.02044,0 -6.030658,0 0,-2.398 0,-4.7961 0,-7.1941 2.010218,0 4.020438,0 6.030658,0 z m -44.746476,3.4903 c 0,1.2644 0,2.5289 0,3.7933 -2.487529,0 -4.975058,0 -7.462587,0 0,-1.2645 0,-2.5289 0,-3.7933 2.487529,0 4.975058,0 7.462587,0 z"
       id="text4177"
       inkscape:connector-curvature="0" />
    <g
       id="Bitcoin"
       transform="matrix(0.05859375,0,0,0.05859375,10,1012.3622)">
      <linearGradient
         gradientTransform="matrix(1,0,0,-1,-41.66,348.04)"
         gradientUnits="userSpaceOnUse"
         id="linearGradient4156"
         x1="41.66"
         x2="553.65997"
         y1="92.040001"
         y2="92.040001">
        <stop
           offset="0"
           style="stop-color:#F9AA4C"
           id="stop4158" />
        <stop
           offset="1"
           style="stop-color:#F7941F"
           id="stop4160" />
      </linearGradient>
      <circle
         style="fill:url(#SVGID_1_)"
         cx="256"
         cy="256"
         r="256"
         id="circle9" />
      <path
         style="fill:#ffffff"
         inkscape:connector-curvature="0"
         d="m 367.781,228.248 c 4.725,-29.85 -19.322,-45.896 -52.204,-56.601 l 10.666,-40.437 -26.042,-6.134 -10.383,39.371 c -6.848,-1.613 -13.878,-3.134 -20.867,-4.642 l 10.459,-39.629 -26.028,-6.135 -10.673,40.422 c -5.666,-1.22 -11.229,-2.425 -16.629,-3.694 l 0.029,-0.127 -35.915,-8.475 -6.927,26.29 c 0,0 19.322,4.185 18.913,4.445 10.548,2.488 12.453,9.086 12.134,14.315 l -12.15,46.066 c 0.729,0.174 1.669,0.426 2.707,0.819 -0.868,-0.202 -1.794,-0.426 -2.751,-0.645 l -17.031,64.531 c -1.289,3.029 -4.562,7.571 -11.933,5.847 0.258,0.357 -18.929,-4.465 -18.929,-4.465 l -12.93,28.175 33.891,7.986 c 6.304,1.492 12.484,3.056 18.566,4.528 l -10.778,40.9 26.013,6.133 10.673,-40.464 c 7.106,1.823 14.005,3.504 20.755,5.088 l -10.637,40.276 26.042,6.133 10.778,-40.822 c 44.406,7.944 77.801,4.74 91.856,-33.221 11.326,-30.566 -0.564,-48.198 -23.928,-59.695 17.016,-3.709 29.834,-14.288 33.253,-36.139 z m -59.503,78.86 c -8.046,30.565 -62.5,14.041 -80.152,9.898 l 14.302,-54.183 c 17.652,4.165 74.262,12.409 65.85,44.285 z m 8.056,-79.301 c -7.343,27.803 -52.665,13.677 -67.366,10.214 l 12.966,-49.142 c 14.702,3.462 62.047,9.925 54.4,38.928 z"
         id="symbol_2_" />
    </g>
  </g>
</svg>
