<?xml version="1.0" encoding="UTF-8" standalone="no"?>
<!-- Created with Inkscape (http://www.inkscape.org/) -->

<svg
   xmlns:dc="http://purl.org/dc/elements/1.1/"
   xmlns:cc="http://creativecommons.org/ns#"
   xmlns:rdf="http://www.w3.org/1999/02/22-rdf-syntax-ns#"
   xmlns:svg="http://www.w3.org/2000/svg"
   xmlns="http://www.w3.org/2000/svg"
   xmlns:sodipodi="http://sodipodi.sourceforge.net/DTD/sodipodi-0.dtd"
   xmlns:inkscape="http://www.inkscape.org/namespaces/inkscape"
   width="101.55"
   height="50"
   viewBox="0 0 101.55 49.999996"
   id="svg7605"
   version="1.1"
   inkscape:version="0.91 r13725"
   sodipodi:docname="blog.svg"
   inkscape:export-filename="C:\Users\10000_000\Desktop\twitter.png"
   inkscape:export-xdpi="90"
   inkscape:export-ydpi="90">
  <defs
     id="defs7607">
    <marker
       inkscape:stockid="Arrow1Lstart"
       orient="auto"
       refY="0"
       refX="0"
       id="Arrow1Lstart"
       style="overflow:visible"
       inkscape:isstock="true">
      <path
         id="path4254"
         d="M 0,0 5,-5 -12.5,0 5,5 0,0 Z"
         style="fill-rule:evenodd;stroke:#000000;stroke-width:1pt"
         transform="matrix(0.8,0,0,0.8,10,0)"
         inkscape:connector-curvature="0" />
    </marker>
  </defs>
  <sodipodi:namedview
     id="base"
     pagecolor="#ffffff"
     bordercolor="#666666"
     borderopacity="1.0"
     inkscape:pageopacity="0.0"
     inkscape:pageshadow="2"
     inkscape:zoom="4"
     inkscape:cx="65.084729"
     inkscape:cy="61.316525"
     inkscape:document-units="px"
     inkscape:current-layer="layer1"
     showgrid="true"
     showguides="false"
     inkscape:snap-page="false"
     inkscape:snap-grids="true"
     inkscape:snap-to-guides="true"
     inkscape:window-width="1366"
     inkscape:window-height="705"
     inkscape:window-x="-8"
     inkscape:window-y="-8"
     inkscape:window-maximized="1"
     units="px">
    <inkscape:grid
       type="xygrid"
       id="grid8437" />
  </sodipodi:namedview>
  <metadata
     id="metadata7610">
    <rdf:RDF>
      <cc:Work
         rdf:about="">
        <dc:format>image/svg+xml</dc:format>
        <dc:type
           rdf:resource="http://purl.org/dc/dcmitype/StillImage" />
        <dc:title></dc:title>
      </cc:Work>
    </rdf:RDF>
  </metadata>
  <g
     inkscape:label="Layer 1"
     inkscape:groupmode="layer"
     id="layer1"
     transform="translate(0,-1002.3622)">
    <rect
       style="color:#000000;clip-rule:nonzero;display:inline;overflow:visible;visibility:visible;opacity:1;isolation:auto;mix-blend-mode:normal;color-interpolation:sRGB;color-interpolation-filters:linearRGB;solid-color:#000000;solid-opacity:1;fill:#eeeeee;fill-opacity:1;fill-rule:nonzero;stroke:none;stroke-width:1;stroke-linecap:butt;stroke-linejoin:miter;stroke-miterlimit:4;stroke-dasharray:none;stroke-dashoffset:0;stroke-opacity:1;color-rendering:auto;image-rendering:auto;shape-rendering:auto;text-rendering:auto;enable-background:accumulate"
       id="rect7613"
       width="101.55"
       height="50"
       x="4.7924073e-007"
       y="1002.3622" />
    <g
       id="g3474"
       transform="matrix(0.05859375,0,0,0.05859375,24.0625,952.57535)">
      <rect
         height="512"
         id="rect2989-5"
         rx="70"
         ry="70"
         style="fill:#ea7819;fill-opacity:1;stroke:none"
         transform="scale(-1,-1)"
         width="512"
         x="-272"
         y="-1532.3622" />
      <path
         d="m -158.94357,1287.4118 c 43.7041,0 84.78879,17.0721 115.66407,48.1239 30.93179,31.0518 47.96156,72.4119 47.96156,116.4407 l 67.34951,0 c 0,-127.8857 -103.61898,-231.9212 -230.97514,-231.9212 l 0,67.3566 z m 0.10597,-119.3991 c 155.7603,0 282.48808,127.4197 282.48808,284.0485 l 67.34952,0 c 0,-193.7737 -156.94646,-351.398 -349.8376,-351.398 l 0,67.3495 z m 93.13421,236.9977 c 0,25.7565 -20.89183,46.6483 -46.6483,46.6483 -25.75647,0 -46.64831,-20.8847 -46.64831,-46.6483 0,-25.7706 20.88477,-46.6483 46.64124,-46.6483 25.75649,0 46.65537,20.8777 46.65537,46.6483 z"
         id="path3844"
         style="fill:#ffffff"
         inkscape:connector-curvature="0" />
      <rect
         y="-1532.3622"
         x="-272"
         width="512"
         transform="scale(-1,-1)"
         style="fill:#ea7819;fill-opacity:1;stroke:none"
         ry="70"
         rx="70"
         id="rect3388"
         height="512" />
      <path
         inkscape:connector-curvature="0"
         style="fill:#ffffff"
         id="path3390"
         d="m -158.94357,1287.4118 c 43.7041,0 84.78879,17.0721 115.66407,48.1239 30.93179,31.0518 47.96156,72.4119 47.96156,116.4407 l 67.34951,0 c 0,-127.8857 -103.61898,-231.9212 -230.97514,-231.9212 l 0,67.3566 z m 0.10597,-119.3991 c 155.7603,0 282.48808,127.4197 282.48808,284.0485 l 67.34952,0 c 0,-193.7737 -156.94646,-351.398 -349.8376,-351.398 l 0,67.3495 z m 93.13421,236.9977 c 0,25.7565 -20.89183,46.6483 -46.6483,46.6483 -25.75647,0 -46.64831,-20.8847 -46.64831,-46.6483 0,-25.7706 20.88477,-46.6483 46.64124,-46.6483 25.75649,0 46.65537,20.8777 46.65537,46.6483 z" />
    </g>
    <path
       style="font-style:normal;font-weight:normal;font-size:461.08816528px;line-height:125%;font-family:sans-serif;letter-spacing:0px;word-spacing:0px;fill:#3a4750;fill-opacity:1;stroke:none;stroke-width:1px;stroke-linecap:butt;stroke-linejoin:miter;stroke-opacity:1;marker-end:"
       d="m 63.740712,1019.9484 c 0,4.3244 0,8.6487 0,12.973 0.730285,0 1.460569,0 2.190854,0 0,-4.3531 0,-8.7061 0,-13.0592 -0.730285,0 -1.460569,0 -2.190854,0 l 0,0.043 0,0.043 z M 50,1020.3366 c 0,4.2208 0,8.4416 0,12.6624 3.602625,0 7.205249,0 10.807873,0 0,-2.4899 0,-4.9798 0,-7.4697 -0.595171,0 -1.190343,0 -1.785514,0 0,-1.7596 0,-3.5193 0,-5.2789 -3.007453,0 -6.014906,0 -9.022359,0 l 0,0.043 0,0.043 z m 6.83159,1.8717 c 0,1.107 0,2.214 0,3.321 -1.572813,0 -3.145625,0 -4.718437,0 0,-1.107 0,-2.214 0,-3.321 1.572812,0 3.145624,0 4.718437,0 z m 12.420981,0.5348 c 0,3.3928 0,6.7855 0,10.1783 3.188586,0 6.377172,0 9.565757,0 0,-3.4215 0,-6.843 0,-10.2645 -3.188585,0 -6.377171,0 -9.565757,0 l 0,0.043 0,0.043 z m 12.343364,0 c 0,2.4871 0,4.9742 0,7.4612 2.587695,0 5.175385,0 7.763075,0 0,0.8741 0,1.7482 0,2.6223 -2.58769,0 -5.17538,0 -7.763075,0 0,0.6786 0,1.3571 0,2.0356 3.317975,0 6.635945,0 9.953925,0 0,-4.0684 0,-8.1368 0,-12.2053 -3.31798,0 -6.63595,0 -9.953925,0 l 0,0.043 0,0.043 z m -4.890759,1.8718 c 0,2.1162 0,4.2324 0,6.3486 -1.779818,0 -3.559635,0 -5.339453,0 0,-2.1162 0,-4.2324 0,-6.3486 1.779818,0 3.559635,0 5.339453,0 z m 12.653834,0.078 c 0,1.1587 0,2.3175 0,3.4763 -1.85744,0 -3.71487,0 -5.572306,0 0,-1.1588 0,-2.3176 0,-3.4763 1.857436,0 3.714866,0 5.572306,0 z m -30.66429,2.95 c 0,1.1328 0,2.2657 0,3.3986 -2.193856,0 -4.387712,0 -6.581567,0 0,-1.1329 0,-2.2658 0,-3.3986 2.193855,0 4.387711,0 6.581567,0 z"
       id="text3480"
       inkscape:connector-curvature="0" />
  </g>
</svg>
