<?xml version="1.0" encoding="UTF-8" standalone="no"?>
<!-- Created with Inkscape (http://www.inkscape.org/) -->

<svg
   xmlns:dc="http://purl.org/dc/elements/1.1/"
   xmlns:cc="http://creativecommons.org/ns#"
   xmlns:rdf="http://www.w3.org/1999/02/22-rdf-syntax-ns#"
   xmlns:svg="http://www.w3.org/2000/svg"
   xmlns="http://www.w3.org/2000/svg"
   xmlns:sodipodi="http://sodipodi.sourceforge.net/DTD/sodipodi-0.dtd"
   xmlns:inkscape="http://www.inkscape.org/namespaces/inkscape"
   width="164.20399"
   height="50"
   viewBox="0 0 164.20399 49.999996"
   id="svg7605"
   version="1.1"
   inkscape:version="0.91 r13725"
   sodipodi:docname="coursera.svg"
   inkscape:export-filename="C:\Users\10000_000\Desktop\twitter.png"
   inkscape:export-xdpi="90"
   inkscape:export-ydpi="90">
  <defs
     id="defs7607">
    <marker
       inkscape:stockid="Arrow1Lstart"
       orient="auto"
       refY="0"
       refX="0"
       id="Arrow1Lstart"
       style="overflow:visible"
       inkscape:isstock="true">
      <path
         id="path4254"
         d="M 0,0 5,-5 -12.5,0 5,5 0,0 Z"
         style="fill-rule:evenodd;stroke:#000000;stroke-width:1pt"
         transform="matrix(0.8,0,0,0.8,10,0)"
         inkscape:connector-curvature="0" />
    </marker>
  </defs>
  <sodipodi:namedview
     id="base"
     pagecolor="#ffffff"
     bordercolor="#666666"
     borderopacity="1.0"
     inkscape:pageopacity="0.0"
     inkscape:pageshadow="2"
     inkscape:zoom="2"
     inkscape:cx="-14.430478"
     inkscape:cy="13.725092"
     inkscape:document-units="px"
     inkscape:current-layer="layer1"
     showgrid="true"
     showguides="false"
     inkscape:snap-page="false"
     inkscape:snap-grids="true"
     inkscape:snap-to-guides="true"
     inkscape:window-width="1366"
     inkscape:window-height="705"
     inkscape:window-x="-8"
     inkscape:window-y="-8"
     inkscape:window-maximized="1"
     units="px">
    <inkscape:grid
       type="xygrid"
       id="grid8437" />
  </sodipodi:namedview>
  <metadata
     id="metadata7610">
    <rdf:RDF>
      <cc:Work
         rdf:about="">
        <dc:format>image/svg+xml</dc:format>
        <dc:type
           rdf:resource="http://purl.org/dc/dcmitype/StillImage" />
        <dc:title></dc:title>
      </cc:Work>
    </rdf:RDF>
  </metadata>
  <g
     inkscape:label="Layer 1"
     inkscape:groupmode="layer"
     id="layer1"
     transform="translate(0,-1002.3622)">
    <rect
       style="color:#000000;clip-rule:nonzero;display:inline;overflow:visible;visibility:visible;opacity:1;isolation:auto;mix-blend-mode:normal;color-interpolation:sRGB;color-interpolation-filters:linearRGB;solid-color:#000000;solid-opacity:1;fill:#eeeeee;fill-opacity:1;fill-rule:nonzero;stroke:none;stroke-width:1;stroke-linecap:butt;stroke-linejoin:miter;stroke-miterlimit:4;stroke-dasharray:none;stroke-dashoffset:0;stroke-opacity:1;color-rendering:auto;image-rendering:auto;shape-rendering:auto;text-rendering:auto;enable-background:accumulate"
       id="rect7613"
       width="164.20399"
       height="50"
       x="4.7924073e-007"
       y="1002.3622" />
    <path
       style="font-style:normal;font-weight:normal;font-size:212.96359253px;line-height:125%;font-family:sans-serif;letter-spacing:0px;word-spacing:0px;fill:#3a4750;fill-opacity:1;stroke:none;stroke-width:1px;stroke-linecap:butt;stroke-linejoin:miter;stroke-opacity:1"
       d="m 50,1020.0784 c 0,4.898 0,9.796 0,14.6941 3.801021,0 7.602042,0 11.403063,0 0,-0.8336 0,-1.6672 0,-2.5008 -2.84758,0 -5.695162,0 -8.542744,0 0,-3.3029 0,-6.6058 0,-9.9087 2.847582,0 5.695164,0 8.542744,0 0,-0.8336 0,-1.6672 0,-2.5008 -3.801021,0 -7.602042,0 -11.403063,0 l 0,0.1081 0,0.1081 z m 14.118129,2.7877 c 0,3.9688 0,7.9376 0,11.9064 3.771041,0 7.542083,0 11.313125,0 -10e-7,-4.0409 0,-8.0817 0,-12.1226 -3.771042,0 -7.542084,0 -11.313125,0 l 0,0.1081 0,0.1081 z m 14.387735,0 c 0,3.9987 0,7.9974 0,11.9961 3.801022,0 7.602043,0 11.403064,0 0,-4.0708 0,-8.1415 0,-12.2123 -0.92346,0 -1.846921,0 -2.770381,0 0,3.2672 0,6.5344 0,9.8017 -1.984081,0 -3.968161,0 -5.952242,0 0,-3.2673 0,-6.5345 0,-9.8017 -0.893481,0 -1.78696,0 -2.680441,0 l 0,0.1081 0,0.1081 z m 14.298007,0 c 0,3.9688 0,7.9376 0,11.9064 0.923461,0 1.846921,0 2.77038,0 0,-3.1774 10e-7,-6.3548 0,-9.5321 1.768452,0 3.536905,0 5.305359,0 0,-0.8635 0,-1.727 0,-2.5905 -2.691914,0 -5.383827,0 -8.075739,0 l 0,0.1081 0,0.1081 z m 10.520989,0 c 0,2.3202 0,4.6404 0,6.9606 2.9675,0 5.935,0 8.9025,0 0,0.845 0,1.6899 0,2.5349 -2.9675,0 -5.935,0 -8.9025,0 0,0.8036 0,1.6073 0,2.4109 3.89096,0 7.78192,0 11.67288,0 0,-2.4522 0,-4.9045 0,-7.3567 -2.99748,0 -5.99496,0 -8.99244,0 0,-0.7851 0,-1.5702 0,-2.3553 2.9675,0 5.935,0 8.9025,0 0,-0.8035 0,-1.6071 0,-2.4106 -3.86098,0 -7.72196,0 -11.58294,0 l 0,0.1081 0,0.1081 z m 14.56761,0 c 0,3.9987 0,7.9974 0,11.9961 3.92094,0 7.84188,0 11.76282,0 0,-0.8335 0,-1.667 0,-2.5006 -3.02746,0 -6.05492,0 -9.08238,0 0,-0.8749 0,-1.7499 0,-2.6249 3.02746,0 6.05492,0 9.08238,0 0,-2.3623 0,-4.7245 0,-7.0868 -3.92094,0 -7.84188,0 -11.76282,0 l 0,0.1081 0,0.1081 z m 14.56761,0 c 0,3.9688 0,7.9376 0,11.9064 0.92353,0 1.84706,0 2.77059,0 0,-3.1774 0,-6.3548 0,-9.5321 1.76846,0 3.53691,0 5.30536,0 0,-0.8635 0,-1.727 0,-2.5905 -2.69198,0 -5.38397,0 -8.07595,0 l 0,0.1081 0,0.1081 z m 13.30889,0 c 0,0.7914 0,1.5829 0,2.3743 1.88837,0 3.77674,0 5.66511,0 0,0.7551 0,1.5102 0,2.2654 -2.8176,0 -5.6352,0 -8.4528,0 0,2.4521 0,4.9043 0,7.3564 3.74106,0 7.48212,0 11.22318,0 0,-4.0708 0,-8.1415 0,-12.2123 -2.81183,0 -5.62366,0 -8.43549,0 l 0,0.1081 0,0.1081 z m -73.018158,2.2844 c 0,2.3737 0,4.7474 0,7.1212 -1.984081,0 -3.968162,0 -5.952242,0 0,-2.3738 0,-4.7475 0,-7.1212 1.98408,0 3.968161,0 5.952242,0 z m 54.224038,0.09 c 0,0.6652 0,1.3304 0,1.9955 -2.13398,0 -4.26796,0 -6.40194,0 0,-0.6651 0,-1.3303 0,-1.9955 2.13398,0 4.26796,0 6.40194,0 z m 24.45923,4.7659 c 0,0.7552 0,1.5103 0,2.2654 -1.92412,0 -3.84824,0 -5.77236,0 0,-0.7551 0,-1.5102 0,-2.2654 1.92412,0 3.84824,0 5.77236,0 z"
       id="text4177"
       inkscape:connector-curvature="0" />
    <g
       id="g4168"
       transform="matrix(0.20833333,0,0,0.20833333,10,1012.3622)">
      <g
         id="#448ac7ff">
        <path
           id="path4157"
           d="M 0,0 144,0 144,144 0,144 0,0 m 22.08,47.1 c -8.79,7.24 -12.27,19.62 -9.68,30.55 2.82,12.91 15.27,23.24 28.62,22.77 7.74,0.59 15.47,-2.11 21.42,-7.02 9.42,-7.51 14.81,-18.53 21.91,-28 3.07,-3.94 6.6,-7.94 11.45,-9.63 5.69,-2.2 12.89,-1.33 17.16,3.27 6.81,6.27 5.84,18.95 -1.95,24.01 -4.89,3.49 -11.71,3.54 -16.99,0.91 C 88.84,81.29 85.4,76.42 81.83,72 c -2.9,4.2 -6.3,8.31 -8.44,12.87 6.42,9.19 17.12,16.09 28.61,15.87 10.26,0.24 20.27,-5.4 25.66,-14.09 7.64,-11.88 5.71,-28.95 -4.73,-38.57 -10.08,-10.04 -27.21,-10.93 -38.78,-2.95 -10.9,7.29 -16.7,19.48 -24.3,29.73 -3.39,4.25 -7.31,8.61 -12.7,10.22 -4.48,1.22 -9.58,0.99 -13.55,-1.62 -8.9,-5 -9.53,-19.28 -1.62,-25.48 4.4,-3.8 10.92,-4.2 16.21,-2.2 4.06,1.36 7,4.6 9.98,7.51 3.16,-3.81 5.98,-7.94 8.38,-12.28 C 55.88,38.25 34.59,35.63 22.08,47.1 Z"
           inkscape:connector-curvature="0"
           style="opacity:1;fill:#448ac7" />
      </g>
      <g
         id="#ffffffff">
        <path
           id="path4160"
           d="m 22.08,47.1 c 12.51,-11.47 33.8,-8.85 44.47,3.91 -2.4,4.34 -5.22,8.47 -8.38,12.28 -2.98,-2.91 -5.92,-6.15 -9.98,-7.51 -5.29,-2 -11.81,-1.6 -16.21,2.2 -7.91,6.2 -7.28,20.48 1.62,25.48 3.97,2.61 9.07,2.84 13.55,1.62 5.39,-1.61 9.31,-5.97 12.7,-10.22 7.6,-10.25 13.4,-22.44 24.3,-29.73 11.57,-7.98 28.7,-7.09 38.78,2.95 10.44,9.62 12.37,26.69 4.73,38.57 -5.39,8.69 -15.4,14.33 -25.66,14.09 -11.49,0.22 -22.19,-6.68 -28.61,-15.87 2.14,-4.56 5.54,-8.67 8.44,-12.87 3.57,4.42 7.01,9.29 12.19,11.96 5.28,2.63 12.1,2.58 16.99,-0.91 7.79,-5.06 8.76,-17.74 1.95,-24.01 -4.27,-4.6 -11.47,-5.47 -17.16,-3.27 -4.85,1.69 -8.38,5.69 -11.45,9.63 -7.1,9.47 -12.49,20.49 -21.91,28 -5.95,4.91 -13.68,7.61 -21.42,7.02 C 27.67,100.89 15.22,90.56 12.4,77.65 9.81,66.72 13.29,54.34 22.08,47.1 Z"
           inkscape:connector-curvature="0"
           style="opacity:1;fill:#ffffff" />
      </g>
    </g>
  </g>
</svg>
