<?xml version="1.0" encoding="UTF-8" standalone="no"?>
<!-- Created with Inkscape (http://www.inkscape.org/) -->

<svg
   xmlns:dc="http://purl.org/dc/elements/1.1/"
   xmlns:cc="http://creativecommons.org/ns#"
   xmlns:rdf="http://www.w3.org/1999/02/22-rdf-syntax-ns#"
   xmlns:svg="http://www.w3.org/2000/svg"
   xmlns="http://www.w3.org/2000/svg"
   xmlns:sodipodi="http://sodipodi.sourceforge.net/DTD/sodipodi-0.dtd"
   xmlns:inkscape="http://www.inkscape.org/namespaces/inkscape"
   width="143.231"
   height="50"
   viewBox="0 0 143.231 49.999996"
   id="svg7605"
   version="1.1"
   inkscape:version="0.91 r13725"
   sodipodi:docname="degreed.svg"
   inkscape:export-filename="C:\Users\10000_000\Desktop\twitter.png"
   inkscape:export-xdpi="90"
   inkscape:export-ydpi="90">
  <defs
     id="defs7607">
    <marker
       inkscape:stockid="Arrow1Lstart"
       orient="auto"
       refY="0"
       refX="0"
       id="Arrow1Lstart"
       style="overflow:visible"
       inkscape:isstock="true">
      <path
         id="path4254"
         d="M 0,0 5,-5 -12.5,0 5,5 0,0 Z"
         style="fill-rule:evenodd;stroke:#000000;stroke-width:1pt"
         transform="matrix(0.8,0,0,0.8,10,0)"
         inkscape:connector-curvature="0" />
    </marker>
  </defs>
  <sodipodi:namedview
     id="base"
     pagecolor="#ffffff"
     bordercolor="#666666"
     borderopacity="1.0"
     inkscape:pageopacity="0.0"
     inkscape:pageshadow="2"
     inkscape:zoom="4"
     inkscape:cx="62.59015"
     inkscape:cy="22.893272"
     inkscape:document-units="px"
     inkscape:current-layer="layer1"
     showgrid="true"
     showguides="false"
     inkscape:snap-page="false"
     inkscape:snap-grids="true"
     inkscape:snap-to-guides="true"
     inkscape:window-width="1366"
     inkscape:window-height="705"
     inkscape:window-x="-8"
     inkscape:window-y="-8"
     inkscape:window-maximized="1"
     units="px">
    <inkscape:grid
       type="xygrid"
       id="grid8437" />
  </sodipodi:namedview>
  <metadata
     id="metadata7610">
    <rdf:RDF>
      <cc:Work
         rdf:about="">
        <dc:format>image/svg+xml</dc:format>
        <dc:type
           rdf:resource="http://purl.org/dc/dcmitype/StillImage" />
        <dc:title></dc:title>
      </cc:Work>
    </rdf:RDF>
  </metadata>
  <g
     inkscape:label="Layer 1"
     inkscape:groupmode="layer"
     id="layer1"
     transform="translate(0,-1002.3622)">
    <rect
       style="color:#000000;clip-rule:nonzero;display:inline;overflow:visible;visibility:visible;opacity:1;isolation:auto;mix-blend-mode:normal;color-interpolation:sRGB;color-interpolation-filters:linearRGB;solid-color:#000000;solid-opacity:1;fill:#eeeeee;fill-opacity:1;fill-rule:nonzero;stroke:none;stroke-width:1;stroke-linecap:butt;stroke-linejoin:miter;stroke-miterlimit:4;stroke-dasharray:none;stroke-dashoffset:0;stroke-opacity:1;color-rendering:auto;image-rendering:auto;shape-rendering:auto;text-rendering:auto;enable-background:accumulate"
       id="rect7613"
       width="143.231"
       height="50"
       x="0"
       y="1002.3622" />
    <g
       transform="matrix(0.26315789,0,0,0.26315789,10,1012.3622)"
       id="g4150">
      <g
         id="#1174abff">
        <path
           style="opacity:1;fill:#1174ab"
           inkscape:connector-curvature="0"
           id="path5"
           d="M 0,0 114,0 114,114 0,114 0,0 m 33.47,35.35 c -1.4,2.72 1.3,4.56 3.54,5.26 2.4,-1.76 4.59,-4.18 7.68,-4.67 1.96,-0.35 3.89,0.36 5.78,0.8 -9.85,5.56 -20.1,10.39 -29.95,15.95 0.02,1.81 -0.05,3.62 0.18,5.42 1.56,1.71 3.1,3.45 2.71,5.97 -0.25,5.59 3.68,10.95 9.23,12.06 5.58,1.03 12.31,1.44 16.72,-2.83 3.16,-3.3 3.99,-8.06 6.73,-11.67 3.65,1.25 4.02,5.58 5.84,8.47 1.94,4.16 6.48,6.62 10.99,6.63 5.45,0.27 12.09,-0.48 15.27,-5.55 2.26,-3.1 1.82,-7.03 2.46,-10.59 3.22,-1.94 4.01,-7.78 0.04,-9.3 -8.5,-4.34 -16.86,-8.97 -25.41,-13.2 -2.12,1.15 -4.19,2.39 -6.17,3.76 4.88,2.64 9.39,5.9 14.26,8.55 -4.24,0.65 -8.59,1.34 -12.29,3.67 -2.71,1.83 -6.3,1.65 -8.97,-0.15 -3.58,-2.28 -7.8,-2.89 -11.92,-3.45 7,-4.07 13.65,-8.72 20.81,-12.52 2.28,-1.13 4.75,-2.34 7.37,-2.11 3.48,0.27 5.75,3.27 8.64,4.86 1.59,-1.19 4.1,-2.3 3.51,-4.74 -1.68,-2.75 -4.75,-4.27 -7.7,-5.28 -5.48,-1.6 -11.14,0.25 -15.96,2.89 -3.43,-1.59 -6.94,-3.37 -10.81,-3.43 -4.68,-0.32 -9.55,1.6 -12.58,5.2 m 54.58,-1.03 c -0.49,2.5 -2.33,4.27 -4.84,4.7 0.03,0.96 0.07,1.91 0.12,2.86 2.35,0.65 4.36,2.2 4.72,4.76 1,0 2,-0.01 3,-0.02 0.39,-2.48 2.23,-4.08 4.6,-4.67 0.07,-0.98 0.14,-1.95 0.21,-2.93 -2.51,-0.43 -4.3,-2.21 -4.82,-4.68 -1,-0.01 -2,-0.02 -2.99,-0.02 z" />
        <path
           style="opacity:1;fill:#1174ab"
           inkscape:connector-curvature="0"
           id="path7"
           d="m 88.85,40.03 c 3.06,-1.46 0.03,3.38 0,0 z" />
        <path
           style="opacity:1;fill:#1174ab"
           inkscape:connector-curvature="0"
           id="path9"
           d="m 32.26,56.35 c 5.71,0.06 12.53,-1.64 17.28,2.46 0.6,3.46 -1.26,6.84 -3.04,9.68 -2.31,3.33 -6.84,3.37 -10.46,2.9 -3.37,-0.31 -6.99,-2.54 -7.07,-6.28 -0.41,-3.02 -1.23,-8.8 3.29,-8.76 z" />
        <path
           style="opacity:1;fill:#1174ab"
           inkscape:connector-curvature="0"
           id="path11"
           d="m 63.41,59.72 c 1.77,-2.33 4.61,-3.54 7.5,-3.51 4.05,-0.02 8.19,-0.38 12.17,0.48 2.09,0.88 1.52,3.48 1.69,5.27 -0.08,2.59 -0.01,5.76 -2.27,7.52 -3.34,2.32 -7.73,2.46 -11.6,1.72 -4.86,-1.6 -6.16,-7.16 -7.49,-11.48 z" />
      </g>
      <g
         id="#fefefeff">
        <path
           style="opacity:1;fill:#fefefe"
           inkscape:connector-curvature="0"
           id="path14"
           d="m 33.47,35.35 c 3.03,-3.6 7.9,-5.52 12.58,-5.2 3.87,0.06 7.38,1.84 10.81,3.43 4.82,-2.64 10.48,-4.49 15.96,-2.89 2.95,1.01 6.02,2.53 7.7,5.28 0.59,2.44 -1.92,3.55 -3.51,4.74 -2.89,-1.59 -5.16,-4.59 -8.64,-4.86 -2.62,-0.23 -5.09,0.98 -7.37,2.11 -7.16,3.8 -13.81,8.45 -20.81,12.52 4.12,0.56 8.34,1.17 11.92,3.45 2.67,1.8 6.26,1.98 8.97,0.15 3.7,-2.33 8.05,-3.02 12.29,-3.67 -4.87,-2.65 -9.38,-5.91 -14.26,-8.55 1.98,-1.37 4.05,-2.61 6.17,-3.76 8.55,4.23 16.91,8.86 25.41,13.2 3.97,1.52 3.18,7.36 -0.04,9.3 -0.64,3.56 -0.2,7.49 -2.46,10.59 -3.18,5.07 -9.82,5.82 -15.27,5.55 -4.51,-0.01 -9.05,-2.47 -10.99,-6.63 -1.82,-2.89 -2.19,-7.22 -5.84,-8.47 -2.74,3.61 -3.57,8.37 -6.73,11.67 -4.41,4.27 -11.14,3.86 -16.72,2.83 -5.55,-1.11 -9.48,-6.47 -9.23,-12.06 0.39,-2.52 -1.15,-4.26 -2.71,-5.97 -0.23,-1.8 -0.16,-3.61 -0.18,-5.42 9.85,-5.56 20.1,-10.39 29.95,-15.95 -1.89,-0.44 -3.82,-1.15 -5.78,-0.8 -3.09,0.49 -5.28,2.91 -7.68,4.67 -2.24,-0.7 -4.94,-2.54 -3.54,-5.26 m -1.21,21 c -4.52,-0.04 -3.7,5.74 -3.29,8.76 0.08,3.74 3.7,5.97 7.07,6.28 3.62,0.47 8.15,0.43 10.46,-2.9 1.78,-2.84 3.64,-6.22 3.04,-9.68 -4.75,-4.1 -11.57,-2.4 -17.28,-2.46 m 31.15,3.37 c 1.33,4.32 2.63,9.88 7.49,11.48 3.87,0.74 8.26,0.6 11.6,-1.72 2.26,-1.76 2.19,-4.93 2.27,-7.52 -0.17,-1.79 0.4,-4.39 -1.69,-5.27 -3.98,-0.86 -8.12,-0.5 -12.17,-0.48 -2.89,-0.03 -5.73,1.18 -7.5,3.51 z" />
        <path
           style="opacity:1;fill:#fefefe"
           inkscape:connector-curvature="0"
           id="path16"
           d="m 88.05,34.32 c 0.99,0 1.99,0.01 2.99,0.02 0.52,2.47 2.31,4.25 4.82,4.68 -0.07,0.98 -0.14,1.95 -0.21,2.93 -2.37,0.59 -4.21,2.19 -4.6,4.67 -1,0.01 -2,0.02 -3,0.02 -0.36,-2.56 -2.37,-4.11 -4.72,-4.76 -0.05,-0.95 -0.09,-1.9 -0.12,-2.86 2.51,-0.43 4.35,-2.2 4.84,-4.7 m 0.8,5.71 c 0.03,3.38 3.06,-1.46 0,0 z" />
      </g>
    </g>
    <path
       style="font-style:normal;font-variant:normal;font-weight:normal;font-stretch:normal;font-size:233.61216736px;line-height:125%;font-family:ZHSRXT2011-GB;-inkscape-font-specification:ZHSRXT2011-GB;letter-spacing:0px;word-spacing:0px;fill:#3a4750;fill-opacity:1;stroke:none;stroke-width:1px;stroke-linecap:butt;stroke-linejoin:miter;stroke-opacity:1;marker-end:"
       d="m 50,1020.0349 c 0,4.2859 0,8.5718 0,12.8577 3.60811,0 7.216219,0 10.824329,0 0,-3.3875 0,-6.7749 0,-10.1623 -0.792299,-0.9559 -1.584415,-1.912 -2.376533,-2.8681 -2.815932,0 -5.631864,0 -8.447796,0 l 0,0.086 0,0.086 z m 80.91628,0.079 c 0,0.7304 0,1.4607 0,2.191 -2.52122,0 -5.04244,0 -7.56365,0 0,3.5294 0,7.0586 0,10.5879 3.29293,0 6.58587,0 9.8788,0 0,-4.3171 0,-8.6344 0,-12.9516 -0.77171,0 -1.54343,0 -2.31515,0 l 0,0.086 0,0.086 z m -73.734405,1.9061 c 0.422061,0.5768 0.997173,1.0991 1.327303,1.7087 0,2.3356 0,4.6711 0,7.0067 -2.038425,0 -4.076851,0 -6.115276,0 0,-2.9051 0,-5.8103 0,-8.7154 1.595991,0 3.191982,0 4.787973,0 z m 6.054737,0.4575 c 0,3.4981 0,6.996 0,10.4941 3.424244,0 6.848489,0 10.272733,0 0,-0.7192 0,-1.4384 0,-2.1576 -2.652583,0 -5.305167,0 -7.957751,0 0,-0.7777 0,-1.5556 0,-2.3334 2.652584,0 5.305168,0 7.957751,0 0,-2.0585 0,-4.1172 0,-6.1757 -3.424244,0 -6.848489,0 -10.272733,0 l 0,0.086 0,0.086 z m 12.685017,0 c 0,2.5526 0,5.1051 0,7.6576 2.626276,0 5.252553,0 7.87883,0 0,0.8305 0,1.6607 0,2.4911 -2.626277,0 -5.252554,0 -7.87883,0 0,0.7454 0,1.4908 0,2.2362 3.424244,0 6.848488,0 10.272732,0 0,-4.1857 0,-8.3717 0,-12.5575 -3.424244,0 -6.848488,0 -10.272732,0 l 0,0.086 0,0.086 z m 12.763767,0 c 0,3.4719 0,6.9435 0,10.4153 0.797967,0 1.595934,0 2.393902,0 0,-2.7839 0,-5.5678 0,-8.3517 1.549504,0 3.099009,0 4.648513,0 0,-0.7454 0,-1.4908 0,-2.2362 -2.347471,0 -4.694943,0 -7.042415,0 l 0,0.086 0,0.086 z m 9.218276,0 c 10e-7,3.4981 0,6.996 0,10.4941 3.424298,0 6.848598,0 10.272898,0 0,-0.7192 0,-1.4384 0,-2.1576 -2.65258,0 -5.30516,0 -7.95775,0 0,-0.7777 0,-1.5556 0,-2.3334 2.65259,0 5.30517,0 7.95775,0 0,-2.0585 0,-4.1172 0,-6.1757 -3.4243,0 -6.8486,0 -10.272898,0 l 0,0.086 0,0.086 z m 12.685188,0 c 0,3.4981 0,6.996 0,10.4941 3.42424,0 6.84849,0 10.27273,0 0,-0.7192 0,-1.4384 0,-2.1576 -2.65258,0 -5.30517,0 -7.95775,0 0,-0.7777 0,-1.5556 0,-2.3334 2.65258,0 5.30517,0 7.95775,0 0,-2.0585 0,-4.1172 0,-6.1757 -3.42424,0 -6.84849,0 -10.27273,0 l 0,0.086 0,0.086 z m -39.394665,2.0636 c 0,0.594 0,1.188 0,1.7819 -1.880868,0 -3.761734,0 -5.642601,0 0,-0.5939 0,-1.1879 0,-1.7819 1.880867,0 3.761733,0 5.642601,0 z m 12.606264,0 c 0,1.1193 0,2.2385 0,3.3578 -1.828309,0 -3.656619,0 -5.484929,0 0,-1.1193 0,-2.2385 0,-3.3578 1.82831,0 3.65662,0 5.484929,0 z m 22.060961,0 c 0,0.594 0,1.188 0,1.7819 -1.88086,0 -3.76173,0 -5.6426,0 0,-0.5939 0,-1.1879 0,-1.7819 1.88087,0 3.76174,0 5.6426,0 z m 12.68502,0 c 0,0.594 0,1.188 0,1.7819 -1.88087,0 -3.76173,0 -5.6426,0 0,-0.5939 0,-1.1879 0,-1.7819 1.88087,0 3.76173,0 5.6426,0 z m 12.36984,0 c 0,2.0384 0,4.0768 0,6.1153 -1.74956,0 -3.49911,0 -5.24867,0 0,-2.0385 0,-4.0769 0,-6.1153 1.74956,0 3.49911,0 5.24867,0 z"
       id="text4153"
       inkscape:connector-curvature="0" />
  </g>
</svg>
