<?xml version="1.0" encoding="UTF-8" standalone="no"?>
<!-- Created with Inkscape (http://www.inkscape.org/) -->

<svg
   xmlns:dc="http://purl.org/dc/elements/1.1/"
   xmlns:cc="http://creativecommons.org/ns#"
   xmlns:rdf="http://www.w3.org/1999/02/22-rdf-syntax-ns#"
   xmlns:svg="http://www.w3.org/2000/svg"
   xmlns="http://www.w3.org/2000/svg"
   xmlns:sodipodi="http://sodipodi.sourceforge.net/DTD/sodipodi-0.dtd"
   xmlns:inkscape="http://www.inkscape.org/namespaces/inkscape"
   width="115.069"
   height="50"
   viewBox="0 0 115.069 49.999996"
   id="svg7605"
   version="1.1"
   inkscape:version="0.91 r13725"
   sodipodi:docname="email.svg"
   inkscape:export-filename="C:\Users\10000_000\Desktop\twitter.png"
   inkscape:export-xdpi="90"
   inkscape:export-ydpi="90">
  <defs
     id="defs7607">
    <marker
       inkscape:stockid="Arrow1Lstart"
       orient="auto"
       refY="0"
       refX="0"
       id="Arrow1Lstart"
       style="overflow:visible"
       inkscape:isstock="true">
      <path
         id="path4254"
         d="M 0,0 5,-5 -12.5,0 5,5 0,0 Z"
         style="fill-rule:evenodd;stroke:#000000;stroke-width:1pt"
         transform="matrix(0.8,0,0,0.8,10,0)"
         inkscape:connector-curvature="0" />
    </marker>
  </defs>
  <sodipodi:namedview
     id="base"
     pagecolor="#ffffff"
     bordercolor="#666666"
     borderopacity="1.0"
     inkscape:pageopacity="0.0"
     inkscape:pageshadow="2"
     inkscape:zoom="4"
     inkscape:cx="56.461295"
     inkscape:cy="2.8932725"
     inkscape:document-units="px"
     inkscape:current-layer="layer1"
     showgrid="true"
     showguides="false"
     inkscape:snap-page="false"
     inkscape:snap-grids="true"
     inkscape:snap-to-guides="true"
     inkscape:window-width="1366"
     inkscape:window-height="705"
     inkscape:window-x="-8"
     inkscape:window-y="-8"
     inkscape:window-maximized="1"
     units="px">
    <inkscape:grid
       type="xygrid"
       id="grid8437" />
  </sodipodi:namedview>
  <metadata
     id="metadata7610">
    <rdf:RDF>
      <cc:Work
         rdf:about="">
        <dc:format>image/svg+xml</dc:format>
        <dc:type
           rdf:resource="http://purl.org/dc/dcmitype/StillImage" />
        <dc:title></dc:title>
      </cc:Work>
    </rdf:RDF>
  </metadata>
  <g
     inkscape:label="Layer 1"
     inkscape:groupmode="layer"
     id="layer1"
     transform="translate(0,-1002.3622)">
    <rect
       style="color:#000000;clip-rule:nonzero;display:inline;overflow:visible;visibility:visible;opacity:1;isolation:auto;mix-blend-mode:normal;color-interpolation:sRGB;color-interpolation-filters:linearRGB;solid-color:#000000;solid-opacity:1;fill:#eeeeee;fill-opacity:1;fill-rule:nonzero;stroke:none;stroke-width:1;stroke-linecap:butt;stroke-linejoin:miter;stroke-miterlimit:4;stroke-dasharray:none;stroke-dashoffset:0;stroke-opacity:1;color-rendering:auto;image-rendering:auto;shape-rendering:auto;text-rendering:auto;enable-background:accumulate"
       id="rect7613"
       width="115.069"
       height="50"
       x="4.7924073e-007"
       y="1002.3622" />
    <path
       style="font-style:normal;font-variant:normal;font-weight:normal;font-stretch:normal;font-size:396.38708496px;line-height:125%;font-family:ZHSRXT2011-GB;-inkscape-font-specification:ZHSRXT2011-GB;letter-spacing:0px;word-spacing:0px;fill:#3a4750;fill-opacity:1;stroke:none;stroke-width:1px;stroke-linecap:butt;stroke-linejoin:miter;stroke-opacity:1;marker-end:"
       d="m 102.54066,1019.9765 c 0,4.9324 0,9.8649 0,14.7973 0.84275,0 1.6855,0 2.52825,0 0,-4.9705 0,-9.9411 0,-14.9116 -0.84275,0 -1.6855,0 -2.52825,0 l 0,0.057 0,0.057 z m -5.837835,0.2653 c 0,0.6867 0,1.3735 0,2.0603 0.813256,0 1.626512,0 2.439769,0 0,-0.7249 0,-1.4497 0,-2.1746 -0.813257,0 -1.626513,0 -2.439769,0 l 0,0.057 0,0.057 z M 50,1020.4187 c 0,4.7851 0,9.5701 0,14.3551 3.79118,0 7.582359,0 11.373539,0 0,-0.7543 0,-1.5086 0,-2.2629 -2.948431,0 -5.896862,0 -8.845293,0 0,-1.2506 0,-2.5012 0,-3.7519 2.27029,0 4.540579,0 6.810868,0 0,-0.8132 0,-1.6265 0,-2.4397 -2.270289,0 -4.540578,0 -6.810868,0 0,-1.2507 0,-2.5013 0,-3.7519 2.948431,0 5.896861,0 8.845293,0 0,-0.7543 0,-1.5086 0,-2.2629 -3.79118,0 -7.582359,0 -11.373539,0 l 0,0.057 0,0.057 z m 13.621625,2.742 c 0,3.8711 0,7.7421 0,11.6131 0.813293,0 1.626587,0 2.43988,0 0,-3.1548 0,-6.3096 0,-9.4644 1.309571,0 2.619142,0 3.928712,0 0,3.1548 0,6.3096 0,9.4644 0.783801,0 1.567602,0 2.351403,0 0,-3.1548 0,-6.3096 0,-9.4644 1.309571,0 2.619141,0 3.928712,0 0,3.1548 0,6.3096 0,9.4644 0.813256,0 1.626513,0 2.439769,0 0,-3.9091 0,-7.8182 0,-11.7273 -5.029492,0 -10.058984,0 -15.088476,0 l 0,0.057 0,0.057 z m 20.874768,0 c 0,0.7458 0,1.4915 0,2.2372 1.857506,0 3.715013,0 5.572519,0 0,0.8083 0,1.6167 0,2.425 -2.771513,0 -5.543026,0 -8.314539,0 0,2.3465 0,4.6929 0,7.0393 3.614261,0 7.228523,0 10.842785,0 0,-3.9386 0,-7.8771 0,-11.8157 -2.700255,0 -5.40051,0 -8.100765,0 l 0,0.057 0,0.057 z m 10.437329,0 c 0,0.6868 0,1.3735 0,2.0602 0.589701,0 1.179402,0 1.769103,0 0,3.1548 0,6.3097 0,9.4645 0.813256,0 1.626512,0 2.439769,0 0,-3.8797 0,-7.7593 0,-11.6389 -1.402957,0 -2.805915,0 -4.208872,0 l 0,0.057 0,0.057 z m -4.86481,6.9252 c 0,0.8083 0,1.6167 0,2.425 -1.958257,0 -3.916513,0 -5.87477,0 0,-0.8083 0,-1.6167 0,-2.425 1.958257,0 3.916513,0 5.87477,0 z"
       id="text4147"
       inkscape:connector-curvature="0" />
    <g
       style="fill:none;fill-rule:evenodd;stroke:none;stroke-width:1"
       id="soical"
       transform="matrix(0.5,0,0,0.5,10,1012.3622)">
      <g
         id="social"
         transform="translate(-873,-638)">
        <g
           id="slices"
           transform="translate(173,138)" />
        <g
           style="fill:#3498db"
           id="square-flat"
           transform="translate(173,138)">
          <path
             inkscape:connector-curvature="0"
             d="m 702.99594,500 54.00812,0 c 1.65461,0 2.99594,1.33731 2.99594,2.99594 l 0,54.00812 C 760,558.65867 758.66269,560 757.00406,560 l -54.00812,0 C 701.34133,560 700,558.66269 700,557.00406 l 0,-54.00812 C 700,501.34133 701.33731,500 702.99594,500 Z"
             id="square-58" />
        </g>
        <g
           style="fill:#ffffff"
           id="icon"
           transform="translate(182,150)">
          <path
             inkscape:connector-curvature="0"
             d="m 721,521.46154 17.30769,-15 -34.61538,0 17.30769,15 z m -4.67482,-1.66049 4.67482,3.83719 4.60158,-3.83719 12.70611,10.89126 -34.61538,0 12.63287,-10.89126 z m -13.78672,9.73741 0,-21.92308 12.69231,10.96154 -12.69231,10.96154 z m 36.92308,0 0,-21.92308 -12.69231,10.96154 12.69231,10.96154 z"
             id="mail" />
        </g>
      </g>
    </g>
  </g>
</svg>
