<?xml version="1.0" encoding="UTF-8" standalone="no"?>
<!-- Created with Inkscape (http://www.inkscape.org/) -->

<svg
   xmlns:dc="http://purl.org/dc/elements/1.1/"
   xmlns:cc="http://creativecommons.org/ns#"
   xmlns:rdf="http://www.w3.org/1999/02/22-rdf-syntax-ns#"
   xmlns:svg="http://www.w3.org/2000/svg"
   xmlns="http://www.w3.org/2000/svg"
   xmlns:sodipodi="http://sodipodi.sourceforge.net/DTD/sodipodi-0.dtd"
   xmlns:inkscape="http://www.inkscape.org/namespaces/inkscape"
   width="133.864"
   height="50"
   viewBox="0 0 133.86399 49.999996"
   id="svg7605"
   version="1.1"
   inkscape:version="0.91 r13725"
   sodipodi:docname="github.svg"
   inkscape:export-filename="C:\Users\10000_000\Desktop\twitter.png"
   inkscape:export-xdpi="90"
   inkscape:export-ydpi="90">
  <defs
     id="defs7607">
    <marker
       inkscape:stockid="Arrow1Lstart"
       orient="auto"
       refY="0"
       refX="0"
       id="Arrow1Lstart"
       style="overflow:visible"
       inkscape:isstock="true">
      <path
         id="path4254"
         d="M 0,0 5,-5 -12.5,0 5,5 0,0 Z"
         style="fill-rule:evenodd;stroke:#000000;stroke-width:1pt"
         transform="matrix(0.8,0,0,0.8,10,0)"
         inkscape:connector-curvature="0" />
    </marker>
  </defs>
  <sodipodi:namedview
     id="base"
     pagecolor="#ffffff"
     bordercolor="#666666"
     borderopacity="1.0"
     inkscape:pageopacity="0.0"
     inkscape:pageshadow="2"
     inkscape:zoom="4"
     inkscape:cx="61.836295"
     inkscape:cy="52.893272"
     inkscape:document-units="px"
     inkscape:current-layer="layer1"
     showgrid="true"
     showguides="false"
     inkscape:snap-page="false"
     inkscape:snap-grids="true"
     inkscape:snap-to-guides="true"
     inkscape:window-width="1366"
     inkscape:window-height="705"
     inkscape:window-x="-8"
     inkscape:window-y="-8"
     inkscape:window-maximized="1"
     units="px">
    <inkscape:grid
       type="xygrid"
       id="grid8437" />
  </sodipodi:namedview>
  <metadata
     id="metadata7610">
    <rdf:RDF>
      <cc:Work
         rdf:about="">
        <dc:format>image/svg+xml</dc:format>
        <dc:type
           rdf:resource="http://purl.org/dc/dcmitype/StillImage" />
        <dc:title></dc:title>
      </cc:Work>
    </rdf:RDF>
  </metadata>
  <g
     inkscape:label="Layer 1"
     inkscape:groupmode="layer"
     id="layer1"
     transform="translate(0,-1002.3622)">
    <rect
       style="color:#000000;clip-rule:nonzero;display:inline;overflow:visible;visibility:visible;opacity:1;isolation:auto;mix-blend-mode:normal;color-interpolation:sRGB;color-interpolation-filters:linearRGB;solid-color:#000000;solid-opacity:1;fill:#eeeeee;fill-opacity:1;fill-rule:nonzero;stroke:none;stroke-width:1;stroke-linecap:butt;stroke-linejoin:miter;stroke-miterlimit:4;stroke-dasharray:none;stroke-dashoffset:0;stroke-opacity:1;color-rendering:auto;image-rendering:auto;shape-rendering:auto;text-rendering:auto;enable-background:accumulate"
       id="rect7613"
       width="133.86398"
       height="50"
       x="4.7924073e-007"
       y="1002.3622" />
    <path
       style="font-style:normal;font-weight:normal;font-size:299.34225464px;line-height:125%;font-family:sans-serif;letter-spacing:0px;word-spacing:0px;fill:#3a4750;fill-opacity:1;stroke:none;stroke-width:1px;stroke-linecap:butt;stroke-linejoin:miter;stroke-opacity:1;marker-end:"
       d="m 66.664587,1020.0154 c 0,0.7081 0,1.4163 0,2.1244 0.848782,0 1.697562,0 2.546343,0 0,-0.7592 0,-1.5184 0,-2.2776 -0.848781,0 -1.697561,0 -2.546343,0 l 0,0.077 0,0.077 z m 6.540427,0 c 0,0.9345 0,1.869 0,2.8035 -0.597264,0 -1.194529,0 -1.791794,0 0,0.8189 0,1.6378 0,2.4567 0.597265,0 1.19453,0 1.791794,0 0,3.1358 0,6.2716 0,9.4075 2.342066,0 4.684132,0 7.026199,0 0,-0.7891 0,-1.5782 0,-2.3672 -1.493285,0 -2.986572,0 -4.479857,0 0,-2.3468 0,-4.6936 0,-7.0403 1.523117,0 3.046233,0 4.569349,0 0,-0.8189 0,-1.6378 0,-2.4567 -1.523116,0 -3.046232,0 -4.569349,0 0,-0.9856 0,-1.9711 0,-2.9567 -0.84878,0 -1.697562,0 -2.546342,0 l 0,0.077 0,0.077 z M 50,1020.1947 c 0,4.8594 0,9.7187 0,14.578 4.313143,0 8.626287,0 12.93943,0 0,-2.8497 0,-5.6995 0,-8.5492 -2.580962,0 -5.161924,0 -7.742886,0 0,0.8189 0,1.6378 0,2.4567 1.702301,0 3.404601,0 5.106902,0 0,1.2418 0,2.4835 0,3.7253 -2.555821,0 -5.111641,0 -7.667462,0 0,-3.3323 0,-6.6646 0,-9.997 3.404602,0 6.809203,0 10.213804,0 0,-0.789 0,-1.578 0,-2.367 -4.283263,0 -8.566525,0 -12.849788,0 l 0,0.077 0,0.077 z m 32.970907,0 c 0,4.8594 0,9.7187 0,14.578 0.878661,0 1.757322,0 2.635984,0 0,-2.21 0,-4.42 0,-6.6301 2.376636,0 4.753273,0 7.129909,0 0,2.2101 0,4.4201 0,6.6301 0.878611,0 1.757223,0 2.635835,0 0,-4.9104 0,-9.8208 0,-14.7312 -0.878612,0 -1.757224,0 -2.635835,0 0,1.9711 0,3.9421 0,5.9132 -2.376636,0 -4.753273,0 -7.129909,0 0,-1.9711 0,-3.9421 0,-5.9132 -0.878662,0 -1.757323,0 -2.635984,0 l 0,0.077 0,0.077 z m 30.014213,0 c 0,4.8892 0,9.7783 0,14.6675 3.62624,0 7.25248,0 10.87871,0 0,-4.0144 0,-8.0289 0,-12.0433 -2.74757,0 -5.49515,0 -8.24272,0 0,-0.9258 0,-1.8516 0,-2.7774 -0.87866,0 -1.75733,0 -2.63599,0 l 0,0.077 0,0.077 z m -48.112325,2.7774 c 0,0.7081 0,1.4162 0,2.1244 0.597264,0 1.194528,0 1.791792,0 0,3.1955 0,6.391 0,9.5866 0.848782,0 1.697562,0 2.546343,0 0,-3.9548 0,-7.9095 0,-11.8642 -1.446045,0 -2.89209,0 -4.338135,0 l 0,0.077 0,0.077 z m 33.687594,0 c 0,3.9634 0,7.9267 0,11.8901 3.745711,0 7.491421,0 11.237131,0 0,-4.0144 0,-8.0289 0,-12.0433 -0.87866,0 -1.75732,0 -2.63599,0 0,3.2552 0,6.5105 0,9.7657 -2.01826,0 -4.03653,0 -6.0548,0 0,-3.2552 0,-6.5105 0,-9.7657 -0.84878,0 -1.69756,0 -2.546341,0 l 0,0.077 0,0.077 z m 22.757101,2.214 c 0,2.3766 0,4.7532 0,7.1298 -1.89879,0 -3.79759,0 -5.69638,0 0,-2.3766 0,-4.7532 0,-7.1298 1.89879,0 3.79759,0 5.69638,0 z"
       id="text4147"
       inkscape:connector-curvature="0" />
    <path
       inkscape:connector-curvature="0"
       style="clip-rule:evenodd;fill:#181616;fill-rule:evenodd"
       d="m 24.999059,1012.3622 c -8.283007,0 -14.9990602,6.8856 -14.9990602,15.3797 0,6.7943 4.2966992,12.5589 10.2588142,14.5933 0.750187,0.1404 0.986496,-0.3154 0.986496,-0.723 0,-0.3653 0.0075,-1.3864 0,-2.6698 -4.17198,0.9296 -5.036571,-2.0257 -5.036571,-2.0257 -0.681733,-1.7767 -1.664479,-2.2497 -1.664479,-2.2497 -1.361589,-0.9538 0.102213,-0.9355 0.102213,-0.9355 1.505064,0.1086 2.298387,1.5854 2.298387,1.5854 1.338147,2.3487 3.50994,1.6699 4.364216,1.2777 0.13691,-0.9941 0.525131,-1.6719 0.953675,-2.0565 -3.330831,-0.3884 -6.832332,-1.7074 -6.832332,-7.6009 0,-1.6796 0.584209,-3.0515 1.543511,-4.1264 -0.154726,-0.3884 -0.67048,-1.9526 0.147224,-4.0706 0,0 1.259378,-0.4134 4.124156,1.5777 1.196549,-0.3413 2.480307,-0.5115 3.755626,-0.5172 1.274381,0.01 2.557202,0.1759 3.755626,0.5172 2.864778,-1.9901 4.12228,-1.5777 4.12228,-1.5777 0.817704,2.118 0.302888,3.6822 0.1491,4.0706 0.959302,1.0749 1.541635,2.4468 1.541635,4.1264 0,5.9088 -3.507127,7.2087 -6.849211,7.5884 0.538259,0.4759 1.026819,1.3989 1.026819,2.8333 0,1.9228 0,3.7514 0,4.2571 0,0.4115 0.241935,0.8663 1.003375,0.7173 5.956489,-2.0373 10.249436,-7.799 10.249436,-14.5914 0,-8.4941 -6.716053,-15.3797 -15.000936,-15.3797 z"
       id="path3" />
    <g
       transform="matrix(0.93773443,0,0,0.96141194,9.9924969,1012.3622)"
       id="g5" />
    <g
       transform="matrix(0.93773443,0,0,0.96141194,9.9924969,1012.3622)"
       id="g7" />
    <g
       transform="matrix(0.93773443,0,0,0.96141194,9.9924969,1012.3622)"
       id="g9" />
    <g
       transform="matrix(0.93773443,0,0,0.96141194,9.9924969,1012.3622)"
       id="g11" />
    <g
       transform="matrix(0.93773443,0,0,0.96141194,9.9924969,1012.3622)"
       id="g13" />
    <g
       transform="matrix(0.93773443,0,0,0.96141194,9.9924969,1012.3622)"
       id="g15" />
  </g>
</svg>
