<?xml version="1.0" encoding="UTF-8" standalone="no"?>
<!-- Created with Inkscape (http://www.inkscape.org/) -->

<svg
   xmlns:dc="http://purl.org/dc/elements/1.1/"
   xmlns:cc="http://creativecommons.org/ns#"
   xmlns:rdf="http://www.w3.org/1999/02/22-rdf-syntax-ns#"
   xmlns:svg="http://www.w3.org/2000/svg"
   xmlns="http://www.w3.org/2000/svg"
   xmlns:sodipodi="http://sodipodi.sourceforge.net/DTD/sodipodi-0.dtd"
   xmlns:inkscape="http://www.inkscape.org/namespaces/inkscape"
   width="193.907"
   height="50"
   viewBox="0 0 193.907 49.999996"
   id="svg7605"
   version="1.1"
   inkscape:version="0.91 r13725"
   sodipodi:docname="goodreads.svg"
   inkscape:export-filename="C:\Users\10000_000\Desktop\goodreads.png"
   inkscape:export-xdpi="90"
   inkscape:export-ydpi="90">
  <defs
     id="defs7607">
    <marker
       inkscape:stockid="Arrow1Lstart"
       orient="auto"
       refY="0"
       refX="0"
       id="Arrow1Lstart"
       style="overflow:visible"
       inkscape:isstock="true">
      <path
         id="path4254"
         d="M 0,0 5,-5 -12.5,0 5,5 0,0 Z"
         style="fill-rule:evenodd;stroke:#000000;stroke-width:1pt"
         transform="matrix(0.8,0,0,0.8,10,0)"
         inkscape:connector-curvature="0" />
    </marker>
  </defs>
  <sodipodi:namedview
     id="base"
     pagecolor="#ffffff"
     bordercolor="#666666"
     borderopacity="1.0"
     inkscape:pageopacity="0.0"
     inkscape:pageshadow="2"
     inkscape:zoom="2.8284271"
     inkscape:cx="78.079204"
     inkscape:cy="45.708113"
     inkscape:document-units="px"
     inkscape:current-layer="layer1"
     showgrid="true"
     showguides="false"
     inkscape:snap-page="false"
     inkscape:snap-grids="true"
     inkscape:snap-to-guides="true"
     inkscape:window-width="1366"
     inkscape:window-height="705"
     inkscape:window-x="-8"
     inkscape:window-y="-8"
     inkscape:window-maximized="1"
     units="px">
    <inkscape:grid
       type="xygrid"
       id="grid8437" />
  </sodipodi:namedview>
  <metadata
     id="metadata7610">
    <rdf:RDF>
      <cc:Work
         rdf:about="">
        <dc:format>image/svg+xml</dc:format>
        <dc:type
           rdf:resource="http://purl.org/dc/dcmitype/StillImage" />
        <dc:title></dc:title>
      </cc:Work>
    </rdf:RDF>
  </metadata>
  <g
     inkscape:label="Layer 1"
     inkscape:groupmode="layer"
     id="layer1"
     transform="translate(0,-1002.3622)">
    <rect
       style="color:#000000;clip-rule:nonzero;display:inline;overflow:visible;visibility:visible;opacity:1;isolation:auto;mix-blend-mode:normal;color-interpolation:sRGB;color-interpolation-filters:linearRGB;solid-color:#000000;solid-opacity:1;fill:#eeeeee;fill-opacity:1;fill-rule:nonzero;stroke:none;stroke-width:1;stroke-linecap:butt;stroke-linejoin:miter;stroke-miterlimit:4;stroke-dasharray:none;stroke-dashoffset:0;stroke-opacity:1;color-rendering:auto;image-rendering:auto;shape-rendering:auto;text-rendering:auto;enable-background:accumulate"
       id="rect7613"
       width="193.907"
       height="50"
       x="0"
       y="1002.3622" />
    <g
       id="soical"
       style="fill:none;fill-rule:evenodd;stroke:none;stroke-width:1"
       transform="matrix(0.5,0,0,0.5,10.580645,1011.9476)">
      <g
         id="social"
         transform="translate(-674.16129,-537.22581)">
        <g
           id="slices"
           transform="translate(173,138)" />
        <g
           id="square-flat"
           transform="translate(173,138)"
           style="fill:#ce6f2d">
          <path
             d="m 502.99594,400.05499 54.00812,0 c 1.65461,0 2.99594,1.33731 2.99594,2.99594 l 0,54.00812 c 0,1.65461 -1.33731,2.99594 -2.99594,2.99594 l -54.00812,0 c -1.65461,0 -2.99594,-1.33731 -2.99594,-2.99594 l 0,-54.00812 c 0,-1.65461 1.33731,-2.99594 2.99594,-2.99594 z"
             id="square-46"
             inkscape:connector-curvature="0" />
        </g>
        <g
           id="square-shadow"
           transform="translate(173,152)"
           style="fill:#000000;fill-opacity:0.4">
          <path
             d="m 512.61906,446 -9.62312,0 C 501.34133,446 500,444.66269 500,443.00406 l 0,-9.22273 0,-9.22274 22.98828,-22.98828 5.02083,-2.28597 4.92351,0.5376 3.27653,2.01742 2.55501,-2.55502 0.86312,23.51253 -1.48698,7.30502 L 522.24219,446 l -9.62313,0 0,0 z"
             id="path16"
             inkscape:connector-curvature="0" />
        </g>
        <g
           id="icon"
           transform="translate(182,150)"
           style="fill:#ffffff">
          <path
             d="m 520.89906,425.00281 c 4.04585,-0.0312 6.9228,-1.9046 8.62962,-5.62071 l 0.0897,0 0,5.66725 c 0,0.4223 -0.0299,1.07729 -0.0897,1.96728 -0.12171,0.92153 -0.44654,1.91267 -0.97408,2.97458 -0.52879,0.99922 -1.3824,1.85037 -2.55919,2.55267 -1.16349,0.76537 -2.78681,1.16306 -4.8708,1.1946 -2.00838,0 -3.70647,-0.48423 -5.09635,-1.45229 -1.4202,-0.9523 -2.25055,-2.49844 -2.49106,-4.63687 l -1.76663,0 c 0.18111,2.77881 1.13898,4.76187 2.87571,5.94839 1.69061,1.13922 3.83524,1.70998 6.43306,1.70998 2.56666,0 4.56798,-0.44499 6.00231,-1.33537 1.41895,-0.85845 2.43747,-1.92844 3.05764,-3.20842 0.61892,-1.28037 0.98862,-2.49844 1.10908,-3.65342 0.0914,-1.15538 0.13625,-1.98267 0.13625,-2.48267 l 0,-23.3732 -1.76705,0 0,5.15225 -0.0897,0 c -0.67957,-1.88883 -1.80443,-3.31727 -3.37542,-4.28572 -1.58511,-0.9523 -3.3372,-1.42883 -5.2542,-1.42883 -3.33844,0.0627 -5.87478,1.25691 -7.61026,3.58342 -1.78242,2.31036 -2.67259,5.16033 -2.67259,8.54837 0,3.48188 0.8449,6.36223 2.53593,8.64182 1.70806,2.32728 4.28926,3.50612 7.74775,3.53689 l 0,0 z m -6.38737,-19.46171 c 1.38822,-2.10805 3.51748,-3.20073 6.38737,-3.27881 2.94425,0.0785 5.12543,1.13999 6.54563,3.18535 1.41896,2.04575 2.12926,4.50456 2.12926,7.37761 0,2.87304 -0.7103,5.31609 -2.12926,7.3303 -1.4202,2.13921 -3.60138,3.23189 -6.54563,3.27843 -2.77851,-0.0469 -4.89323,-1.10845 -6.34251,-3.18497 -1.46506,-2.01382 -2.19696,-4.48879 -2.19696,-7.42376 0,-2.74843 0.71736,-5.17648 2.1521,-7.28415 l 0,0 z"
             id="goodreads"
             inkscape:connector-curvature="0" />
        </g>
      </g>
    </g>
    <path
       style="font-style:normal;font-weight:normal;font-size:111.10067749px;line-height:125%;font-family:sans-serif;letter-spacing:0px;word-spacing:0px;fill:#3a4750;fill-opacity:1;stroke:none;stroke-width:1px;stroke-linecap:butt;stroke-linejoin:miter;stroke-opacity:1"
       d="m 50,1019.9696 c 0,4.8794 0,9.7588 0,14.6381 4.534621,0 9.069239,0 13.603871,0 0,-2.9182 0,-5.8363 0,-8.7545 -2.746855,0 -5.493709,0 -8.240563,0 0,0.8957 0,1.7916 0,2.6873 1.756919,0 3.51385,0 5.270768,0 0,1.1564 0,2.3128 0,3.4693 -2.55467,0 -5.109342,0 -7.664003,0 0,-3.2383 0,-6.4767 0,-9.7148 3.513839,0 7.027677,0 10.541525,0 0,-0.8661 0,-1.7323 0,-2.5983 -4.503874,0 -9.007735,0 -13.511598,0 l 0,0.1365 0,0.1364 z m 60.93769,0 c 0,4.8794 0,9.7588 0,14.6381 0.98994,0 1.97988,0 2.9698,0 0,-2.0224 0,-4.0449 0,-6.0672 1.11941,0 2.2388,0 3.35822,0 1.41783,2.0223 2.83587,4.0447 4.25357,6.0672 1.15245,0 2.30493,0 3.45739,0 -1.41793,-2.0224 -2.8359,-4.0449 -4.25385,-6.0672 1.18047,0 2.36092,0 3.54138,0 0,-2.948 0,-5.8958 0,-8.8438 -4.44217,0 -8.88434,0 -13.32651,0 l 0,0.1365 0,0.1364 z m -6.19569,0.089 c -0.0978,0.7524 0.1937,1.8805 -0.14143,2.4039 -2.91188,0 -5.82375,0 -8.735622,0 0,4.0483 0,8.0966 0,12.1448 3.918194,0 7.836382,0 11.754582,0 0,-4.9405 0,-9.881 0,-14.8216 -0.95918,0 -1.91835,0 -2.87753,0 l 0,0.1364 0,0.1365 z m 61.12252,0 c -0.0977,0.7524 0.19371,1.8805 -0.14145,2.4039 -2.91186,0 -5.82373,0 -8.7356,0 0,4.0483 0,8.0966 0,12.1448 3.91818,0 7.83639,0 11.75457,0 0,-4.9405 0,-9.881 0,-14.8216 -0.95917,0 -1.91834,0 -2.87752,0 l 0,0.1364 0,0.1365 z m -44.47785,2.236 c 0,1.2158 0,2.4317 0,3.6475 -2.49306,0 -4.98611,0 -7.47918,0 0,-1.2158 0,-2.4317 0,-3.6475 2.49307,1e-4 4.98612,0 7.47918,0 z m -55.111924,0.441 c 0,3.9571 0,7.9144 0,11.8717 3.918201,0 7.83639,0 11.75458,0 0,-4.0482 0,-8.0965 0,-12.1448 -3.91819,0 -7.836379,0 -11.75458,0 l 0,0.1365 0,0.1366 z m 14.795101,0 c 0,3.9571 0,7.9144 0,11.8717 3.91819,0 7.83639,0 11.754584,0 0,-4.0482 0,-8.0965 0,-12.1448 -3.918194,0 -7.836383,0 -11.754584,0 l 0,0.1365 0,0.1366 z m 46.327413,0 c 0,3.9869 0,7.974 0,11.9611 4.07234,0 8.1447,0 12.21704,0 0,-0.8661 0,-1.7322 0,-2.5983 -3.11317,0 -6.22634,0 -9.33951,0 0,-0.8291 0,-1.6583 0,-2.4875 3.11317,0 6.22634,0 9.33951,0 0,-2.3827 0,-4.7655 0,-7.1484 -4.07234,0 -8.1447,0 -12.21704,0 l 0,0.1365 0,0.1366 z m 17.75412,0 c 0.0937,0.7597 -0.18828,1.882 0.14145,2.4142 1.89467,0 3.78937,0 5.68405,0 -0.21244,0.6417 0.46837,2.1454 -0.42433,2.1308 -2.75588,0 -5.51176,0 -8.26764,0 0,2.472 0,4.9441 0,7.4161 3.88735,0 7.77469,0 11.66203,0 0,-4.0781 0,-8.1562 0,-12.2342 -2.93185,0 -5.8637,0 -8.79556,0 l 0,0.1365 0,0.1366 z m 26.63146,0 c 0,2.3214 0,4.6431 0,6.9646 3.05148,0 6.10296,0 9.15442,0 -0.0984,0.7499 0.19449,1.8774 -0.14143,2.3982 -3.00434,0 -6.00866,0 -9.01299,0 0,0.8364 0,1.6727 0,2.5089 4.04151,0 8.083,0 12.1245,0 0,-2.472 0,-4.944 0,-7.416 -3.08233,0 -6.16465,0 -9.24698,0 0.18172,-0.6557 -0.36927,-2.0184 0.28289,-2.2202 2.95719,0 5.91436,0 8.87154,0 0,-0.8361 0,-1.6723 0,-2.5086 -4.01065,0 -8.02131,0 -12.03195,0 l 0,0.1365 0,0.1366 z m -96.631037,2.3248 c 0,2.3164 0,4.6327 0,6.949 -1.999845,0 -3.999689,0 -5.999533,0 0,-2.3163 0,-4.6326 0,-6.949 1.999844,0 3.999688,0 5.999533,0 z m 14.795106,0 c 0,2.3164 0,4.6327 0,6.949 -1.999846,0 -3.999693,0 -5.999539,0 0,-2.3163 0,-4.6326 0,-6.949 1.999846,0 3.999693,0 5.999539,0 z m 14.795091,0.089 c 0,2.2569 0,4.5136 0,6.7704 -1.99984,0 -3.99969,0 -5.99953,0 0,-2.2568 0,-4.5135 0,-6.7704 1.99984,0 3.99969,0 5.99953,0 z m 31.99478,0 c -0.17262,0.6819 0.50501,2.1843 -0.70723,1.863 -1.91826,0 -3.83652,0 -5.75476,0 0.17262,-0.6819 -0.50501,-2.1842 0.70722,-1.863 1.91826,0 3.83652,0 5.75477,0 z m 29.12774,0 c 0,2.2569 0,4.5136 0,6.7704 -1.99984,0 -3.99969,0 -5.99953,0 0,-2.2568 0,-4.5135 0,-6.7704 1.99984,0 3.99969,0 5.99953,0 z m -14.88764,4.7288 c -0.21244,0.6418 0.46837,2.1455 -0.42433,2.1309 -1.79671,0 -3.59341,0 -5.39012,0 0.21245,-0.6418 -0.46839,-2.1455 0.42434,-2.1309 1.79671,0 3.59339,0 5.39011,0 z"
       id="text8439-5"
       inkscape:connector-curvature="0" />
  </g>
</svg>
