<?xml version="1.0" encoding="UTF-8" standalone="no"?>
<!-- Created with Inkscape (http://www.inkscape.org/) -->

<svg
   xmlns:dc="http://purl.org/dc/elements/1.1/"
   xmlns:cc="http://creativecommons.org/ns#"
   xmlns:rdf="http://www.w3.org/1999/02/22-rdf-syntax-ns#"
   xmlns:svg="http://www.w3.org/2000/svg"
   xmlns="http://www.w3.org/2000/svg"
   xmlns:sodipodi="http://sodipodi.sourceforge.net/DTD/sodipodi-0.dtd"
   xmlns:inkscape="http://www.inkscape.org/namespaces/inkscape"
   width="138.895"
   height="50"
   viewBox="0 0 138.895 49.999996"
   id="svg7605"
   version="1.1"
   inkscape:version="0.91 r13725"
   sodipodi:docname="google+.svg"
   inkscape:export-filename="C:\Users\10000_000\Desktop\twitter.png"
   inkscape:export-xdpi="90"
   inkscape:export-ydpi="90">
  <defs
     id="defs7607">
    <marker
       inkscape:stockid="Arrow1Lstart"
       orient="auto"
       refY="0"
       refX="0"
       id="Arrow1Lstart"
       style="overflow:visible"
       inkscape:isstock="true">
      <path
         id="path4254"
         d="M 0,0 5,-5 -12.5,0 5,5 0,0 Z"
         style="fill-rule:evenodd;stroke:#000000;stroke-width:1pt"
         transform="matrix(0.8,0,0,0.8,10,0)"
         inkscape:connector-curvature="0" />
    </marker>
  </defs>
  <sodipodi:namedview
     id="base"
     pagecolor="#ffffff"
     bordercolor="#666666"
     borderopacity="1.0"
     inkscape:pageopacity="0.0"
     inkscape:pageshadow="2"
     inkscape:zoom="2"
     inkscape:cx="-14.430478"
     inkscape:cy="13.725092"
     inkscape:document-units="px"
     inkscape:current-layer="layer1"
     showgrid="true"
     showguides="false"
     inkscape:snap-page="false"
     inkscape:snap-grids="true"
     inkscape:snap-to-guides="true"
     inkscape:window-width="1366"
     inkscape:window-height="705"
     inkscape:window-x="-8"
     inkscape:window-y="-8"
     inkscape:window-maximized="1"
     units="px">
    <inkscape:grid
       type="xygrid"
       id="grid8437" />
  </sodipodi:namedview>
  <metadata
     id="metadata7610">
    <rdf:RDF>
      <cc:Work
         rdf:about="">
        <dc:format>image/svg+xml</dc:format>
        <dc:type
           rdf:resource="http://purl.org/dc/dcmitype/StillImage" />
        <dc:title></dc:title>
      </cc:Work>
    </rdf:RDF>
  </metadata>
  <g
     inkscape:label="Layer 1"
     inkscape:groupmode="layer"
     id="layer1"
     transform="translate(0,-1002.3622)">
    <rect
       style="color:#000000;clip-rule:nonzero;display:inline;overflow:visible;visibility:visible;opacity:1;isolation:auto;mix-blend-mode:normal;color-interpolation:sRGB;color-interpolation-filters:linearRGB;solid-color:#000000;solid-opacity:1;fill:#eeeeee;fill-opacity:1;fill-rule:nonzero;stroke:none;stroke-width:1;stroke-linecap:butt;stroke-linejoin:miter;stroke-miterlimit:4;stroke-dasharray:none;stroke-dashoffset:0;stroke-opacity:1;color-rendering:auto;image-rendering:auto;shape-rendering:auto;text-rendering:auto;enable-background:accumulate"
       id="rect7613"
       width="138.895"
       height="49.961613"
       x="4.7924073e-007"
       y="1002.4006" />
    <path
       style="font-style:normal;font-weight:normal;font-size:226.09016418px;line-height:125%;font-family:sans-serif;letter-spacing:0px;word-spacing:0px;fill:#3a4750;fill-opacity:1;stroke:none;stroke-width:1px;stroke-linecap:butt;stroke-linejoin:miter;stroke-opacity:1"
       d="m 121.62901,1020.0258 c 0,1.656 0,3.3121 0,4.9682 -1.78293,0 -3.56586,0 -5.34878,0 0,0.615 0,1.23 0,1.8451 1.78292,0 3.56585,0 5.34878,0 0,1.9756 0,3.9513 0,5.9269 0.66326,0 1.32652,0 1.98977,0 0,-1.9756 0,-3.9513 0,-5.9269 1.75879,0 3.51759,0 5.27638,0 0,-0.6151 0,-1.2301 0,-1.8451 -1.75879,0 -3.51759,0 -5.27638,0 0,-1.7107 0,-3.4213 0,-5.1319 -0.66325,0 -1.32651,0 -1.98977,0 l 0,0.082 0,0.082 z m -23.924556,0.8673 c 0,4.054 0,8.1081 0,12.1621 0.735561,0 1.471121,0 2.206682,0 0,-4.1086 0,-8.2172 0,-12.3258 -0.735561,0 -1.471121,0 -2.206682,0 l 0,0.082 0,0.082 z M 50,1021.2545 c 0,3.9336 0,7.8671 0,11.8007 3.506235,0 7.012469,0 10.518704,0 0,-2.3257 0,-4.6514 0,-6.9771 -2.108856,0 -4.217712,0 -6.326568,0 0,0.6873 0,1.3747 0,2.0621 1.373349,0 2.746697,0 4.120046,0 0,0.9751 0,1.9502 0,2.9252 -2.035166,0 -4.070333,0 -6.1055,0 0,-2.6616 0,-5.3232 0,-7.9848 2.746591,0 5.493181,0 8.239772,0 0,-0.6632 0,-1.3265 0,-1.9898 -3.482152,0 -6.964303,0 -10.446454,0 l 0,0.082 0,0.082 z m 12.72123,2.2408 c 0,3.1866 0,6.3733 0,9.5599 3.024405,0 6.048808,0 9.073212,0 0,-3.2412 0,-6.4824 0,-9.7236 -3.024404,0 -6.048807,0 -9.073212,0 l 0,0.082 0,0.082 z m 11.564741,0 c 0,3.1866 0,6.3733 0,9.5599 3.024351,0 6.048701,0 9.073052,0 0,-3.2412 0,-6.4824 0,-9.7236 -3.024351,0 -6.048701,0 -9.073052,0 l 0,0.082 0,0.082 z m 11.49233,0 c 0,2.3434 0,4.6868 0,7.0302 2.409314,0 4.818628,0 7.227942,0 0,0.7582 0,1.5164 0,2.2746 -2.409314,0 -4.818628,0 -7.227942,0 0,0.6873 0,1.3747 0,2.062 3.144875,0 6.28975,0 9.434624,0 0,-3.8435 0,-7.687 0,-11.5305 -3.144874,0 -6.289749,0 -9.434624,0 l 0,0.082 0,0.082 z m 16.985779,0 c 0,3.2107 0,6.4214 0,9.6321 3.14482,0 6.28964,0 9.43446,0 0,-0.6632 0,-1.3265 0,-1.9897 -2.4334,0 -4.86679,0 -7.30019,0 0,-0.7101 0,-1.4201 0,-2.1301 2.4334,0 4.86679,0 7.30019,0 0,-1.892 0,-3.784 0,-5.676 -3.14482,0 -6.28964,0 -9.43446,0 l 0,0.082 0,0.082 z m -33.10407,1.826 c 0,1.9147 0,3.8294 0,5.7441 -1.601503,0 -3.203005,0 -4.804508,0 0,-1.9147 0,-3.8294 0,-5.7441 1.601503,0 3.203005,0 4.804508,0 z m 11.564741,0 c 0,1.9147 0,3.8294 0,5.7441 -1.601503,0 -3.203005,0 -4.804508,0 0,-1.9147 0,-3.8294 0,-5.7441 1.601502,0 3.203005,0 4.804508,0 z m 11.781492,0.072 c 0,1.0232 0,2.0465 0,3.0697 -1.673753,0 -3.347507,0 -5.02126,0 0,-1.0232 0,-2.0465 0,-3.0697 1.673753,0 3.347507,0 5.02126,0 z m 17.058027,0 c 0,0.5414 0,1.0828 0,1.6242 -1.72197,0 -3.44395,0 -5.16592,0 0,-0.5414 0,-1.0828 0,-1.6242 1.72197,0 3.44395,0 5.16592,0 z"
       id="text4177"
       inkscape:connector-curvature="0" />
    <g
       id="g3"
       transform="matrix(0.234375,0,0,0.234375,10,1012.3622)">
      <circle
         style="fill:#d95032"
         cx="64"
         cy="64"
         r="64"
         id="circle5" />
      <g
         id="g7">
        <g
           id="g9">
          <path
             style="fill:#ffffff"
             inkscape:connector-curvature="0"
             d="m 49.424,97.875 c -19.018,0 -34.491,-15.193 -34.491,-33.874 0,-18.68 15.473,-33.875 34.491,-33.875 8.318,0 16.354,2.952 22.624,8.309 l -8.771,9.899 c -3.838,-3.279 -8.758,-5.086 -13.853,-5.086 -11.652,0 -21.13,9.31 -21.13,20.752 0,11.441 9.479,20.75 21.13,20.75 9.858,0 16.311,-4.723 18.407,-13.197 l -18.244,0 0,-13.121 32.347,0 0,6.562 c 0,19.665 -13.065,32.881 -32.51,32.881 z"
             id="path11" />
        </g>
        <polygon
           style="fill:#ffffff"
           points="117.934,58.438 107.934,58.438 107.934,48.438 99.934,48.438 99.934,58.438 89.934,58.438 89.934,66.438 99.934,66.438 99.934,76.438 107.934,76.438 107.934,66.438 117.934,66.438 "
           id="polygon13" />
      </g>
    </g>
  </g>
</svg>
