<?xml version="1.0" encoding="UTF-8" standalone="no"?>
<!-- Created with Inkscape (http://www.inkscape.org/) -->

<svg
   xmlns:dc="http://purl.org/dc/elements/1.1/"
   xmlns:cc="http://creativecommons.org/ns#"
   xmlns:rdf="http://www.w3.org/1999/02/22-rdf-syntax-ns#"
   xmlns:svg="http://www.w3.org/2000/svg"
   xmlns="http://www.w3.org/2000/svg"
   xmlns:sodipodi="http://sodipodi.sourceforge.net/DTD/sodipodi-0.dtd"
   xmlns:inkscape="http://www.inkscape.org/namespaces/inkscape"
   width="146.938"
   height="50"
   viewBox="0 0 146.938 49.999996"
   id="svg7605"
   version="1.1"
   inkscape:version="0.91 r13725"
   sodipodi:docname="keybase.svg"
   inkscape:export-filename="C:\Users\10000_000\Desktop\twitter.png"
   inkscape:export-xdpi="90"
   inkscape:export-ydpi="90">
  <defs
     id="defs7607">
    <marker
       inkscape:stockid="Arrow1Lstart"
       orient="auto"
       refY="0"
       refX="0"
       id="Arrow1Lstart"
       style="overflow:visible"
       inkscape:isstock="true">
      <path
         id="path4254"
         d="M 0,0 5,-5 -12.5,0 5,5 0,0 Z"
         style="fill-rule:evenodd;stroke:#000000;stroke-width:1pt"
         transform="matrix(0.8,0,0,0.8,10,0)"
         inkscape:connector-curvature="0" />
    </marker>
  </defs>
  <sodipodi:namedview
     id="base"
     pagecolor="#ffffff"
     bordercolor="#666666"
     borderopacity="1.0"
     inkscape:pageopacity="0.0"
     inkscape:pageshadow="2"
     inkscape:zoom="2"
     inkscape:cx="-14.430478"
     inkscape:cy="13.725092"
     inkscape:document-units="px"
     inkscape:current-layer="layer1"
     showgrid="true"
     showguides="false"
     inkscape:snap-page="false"
     inkscape:snap-grids="true"
     inkscape:snap-to-guides="true"
     inkscape:window-width="1366"
     inkscape:window-height="705"
     inkscape:window-x="-8"
     inkscape:window-y="-8"
     inkscape:window-maximized="1"
     units="px">
    <inkscape:grid
       type="xygrid"
       id="grid8437" />
  </sodipodi:namedview>
  <metadata
     id="metadata7610">
    <rdf:RDF>
      <cc:Work
         rdf:about="">
        <dc:format>image/svg+xml</dc:format>
        <dc:type
           rdf:resource="http://purl.org/dc/dcmitype/StillImage" />
        <dc:title></dc:title>
      </cc:Work>
    </rdf:RDF>
  </metadata>
  <g
     inkscape:label="Layer 1"
     inkscape:groupmode="layer"
     id="layer1"
     transform="translate(0,-1002.3622)">
    <rect
       style="color:#000000;clip-rule:nonzero;display:inline;overflow:visible;visibility:visible;opacity:1;isolation:auto;mix-blend-mode:normal;color-interpolation:sRGB;color-interpolation-filters:linearRGB;solid-color:#000000;solid-opacity:1;fill:#eeeeee;fill-opacity:1;fill-rule:nonzero;stroke:none;stroke-width:1;stroke-linecap:butt;stroke-linejoin:miter;stroke-miterlimit:4;stroke-dasharray:none;stroke-dashoffset:0;stroke-opacity:1;color-rendering:auto;image-rendering:auto;shape-rendering:auto;text-rendering:auto;enable-background:accumulate"
       id="rect7613"
       width="147.03801"
       height="50"
       x="0.87500048"
       y="1002.3622" />
    <path
       style="font-style:normal;font-weight:normal;font-size:223.41818237px;line-height:125%;font-family:sans-serif;letter-spacing:0px;word-spacing:0px;fill:#3a4750;fill-opacity:1;stroke:none;stroke-width:1px;stroke-linecap:butt;stroke-linejoin:miter;stroke-opacity:1"
       d="m 50,1020.0426 c 0,4.284 0,8.5681 0,12.8521 0.776137,0 1.552273,0 2.32841,0 0,-1.889 0,-3.778 0,-5.667 0.670628,0 1.341256,0 2.011884,0 1.416684,1.889 2.833519,3.7779 4.25011,5.667 0.934781,0 1.869561,0 2.804343,0 -1.617689,-2.2378 -3.235359,-4.4756 -4.853041,-6.7134 1.512296,-2.1064 3.024535,-4.2128 4.536867,-6.3191 -0.93484,0 -1.869679,0 -2.804519,0 -1.259313,1.7315 -2.51858,3.4631 -3.777875,5.1946 -0.72259,0 -1.445179,0 -2.167769,0 0,-1.7315 0,-3.4631 0,-5.1946 -0.776137,0 -1.552273,0 -2.32841,0 l 0,0.09 0,0.09 z m 39.038338,0 c 0,4.3102 0,8.6204 0,12.9307 3.216043,0 6.432087,0 9.648131,0 0,-3.5571 0,-7.1141 0,-10.6712 -2.413661,0 -4.827324,0 -7.240986,0 0,-0.8133 0,-1.6266 0,-2.4399 -0.802381,0 -1.604763,0 -2.407145,0 l 0,0.09 0,0.09 z m -25.894334,2.4399 c 0,3.4969 0,6.9938 0,10.4908 3.425887,0 6.851773,0 10.27766,0 0,-0.7237 0,-1.4473 0,-2.171 -2.64975,0 -5.2995,0 -7.94925,0 0,-0.7717 0,-1.5434 0,-2.3152 2.64975,0 5.2995,0 7.94925,0 0,-2.0616 0,-4.1233 0,-6.185 -3.425887,0 -6.851773,0 -10.27766,0 l 0,0.09 0,0.09 z m 12.671595,0 c 0,2.7361 0,5.4722 0,8.2083 2.649808,0 5.299617,0 7.949425,0 0,0.6931 0,1.3861 0,2.0792 -2.649808,0 -5.299617,0 -7.949425,0 0,0.6974 0,1.3948 0,2.0922 3.45219,0 6.90438,0 10.356571,0 0,-4.1867 0,-8.3734 0,-12.5601 -0.802382,0 -1.604763,0 -2.407146,0 0,2.0726 0,4.1452 0,6.2178 -1.847427,0 -3.694853,0 -5.542281,0 0,-2.0726 0,-4.1452 0,-6.2178 -0.802381,0 -1.604763,0 -2.407144,0 l 0,0.09 0,0.09 z m 28.098211,0 c 0,0.6897 0,1.3795 0,2.0693 1.65285,0 3.3057,0 4.95855,0 0,0.6668 0,1.3336 0,2.0004 -2.46615,0 -4.9323,0 -7.39846,0 0,2.1404 0,4.2807 0,6.4211 3.26848,0 6.53695,0 9.80543,0 0,-3.5571 0,-7.1141 0,-10.6712 -2.45517,0 -4.91035,0 -7.36552,0 l 0,0.09 0,0.09 z m 9.99566,0 c 0,2.0278 0,4.0556 0,6.0834 2.59732,0 5.19464,0 7.79195,0 0,0.7454 0,1.4909 0,2.2364 -2.59731,0 -5.19463,0 -7.79195,0 0,0.6975 0,1.3949 0,2.0924 3.3997,0 6.7994,0 10.1991,0 0,-2.1404 0,-4.2808 0,-6.4212 -2.62356,0 -5.24713,0 -7.87069,0 0,-0.6931 0,-1.3861 0,-2.0792 2.59732,0 5.19464,0 7.79195,0 0,-0.6974 0,-1.3948 0,-2.0922 -3.37345,0 -6.74691,0 -10.12036,0 l 0,0.09 0,0.09 z m 12.7505,0 c 0,3.4969 0,6.9938 0,10.4908 3.42589,0 6.85178,0 10.27766,0 0,-0.7237 0,-1.4473 0,-2.171 -2.64975,0 -5.2995,0 -7.94925,0 0,-0.7717 0,-1.5434 0,-2.3152 2.64975,0 5.2995,0 7.94925,0 0,-2.0616 0,-4.1233 0,-6.185 -3.42588,0 -6.85177,0 -10.27766,0 l 0,0.09 0,0.09 z m -30.30191,1.9905 c 0,2.0573 0,4.1146 0,6.1719 -1.637526,0 -3.275051,0 -4.912577,0 0,-2.0573 0,-4.1146 0,-6.1719 1.637526,0 3.275051,0 4.912577,0 z m -25.264806,0.079 c 0,0.5881 0,1.1761 0,1.7642 -1.873613,0 -3.747227,0 -5.62084,0 0,-0.5881 0,-1.1761 0,-1.7642 1.873613,0 3.747227,0 5.62084,0 z m 63.515966,0 c 0,0.5881 0,1.1761 0,1.7642 -1.87361,0 -3.74722,0 -5.62084,0 0,-0.5881 0,-1.1761 0,-1.7642 1.87362,0 3.74723,0 5.62084,0 z m -25.73686,4.1714 c 0,0.6668 0,1.3336 0,2.0004 -1.69002,0 -3.38003,0 -5.07005,0 0,-0.6668 0,-1.3336 0,-2.0004 1.69002,0 3.38003,0 5.07005,0 z"
       id="text4177"
       inkscape:connector-curvature="0" />
    <g
       transform="matrix(0.05859375,0,0,0.06429869,10,1010.8963)"
       id="g4203">
      <g
         id="#000000ff">
        <path
           style="opacity:1;fill:#000000"
           inkscape:connector-curvature="0"
           id="path5"
           d="m 80.54,219.56 c 78.87,10.94 157.73,21.91 236.59,32.9 3.59,0.37 7.19,-0.15 10.77,-0.39 28.76,-2.07 57.51,-4.09 86.27,-6.18 0.1,5.94 0.29,11.95 -0.56,17.83 -0.42,2.13 -2.6,2.84 -4.48,3.03 -30.09,1.34 -60.19,2.52 -90.27,4.03 -3.27,15.04 -7.8,30.78 -18.65,42.23 -12.5,4.34 -26.08,7.06 -39.18,3.8 -15,-3.94 -29.87,-10.67 -40.62,-22.15 -6.51,-6.86 -11.07,-15.5 -13.18,-24.72 -1.34,-5.23 -1.48,-10.66 -2.59,-15.93 -3.59,-0.14 -4.41,3.97 -5.23,6.65 -2.21,-1.13 -4.61,-1.66 -7.08,-1.33 -0.4,-3.19 0.46,-7.59 -3.04,-9.24 -3.02,4.89 -4.64,10.5 -7.75,15.35 -7.78,13.32 -21.72,22.19 -36.61,25.45 -14.42,3.1 -30.05,4.06 -43.92,-1.82 -4.47,-1.54 -8.25,-4.54 -12.71,-6.11 -5.64,-7.35 -7.91,-16.67 -8.88,-25.72 -0.33,-5.26 -0.94,-10.53 -0.57,-15.81 0.22,-6.49 0.79,-12.96 1.28,-19.43 0.11,-0.61 0.31,-1.83 0.41,-2.44 m 36.15,25.59 c 1.26,6.33 5.32,11.8 10.33,15.72 6.74,5.09 15.38,6.91 23.69,6.7 -6.16,-5.07 -5.52,-15.56 0.33,-20.63 -10.34,-1.29 -20.68,-2.53 -31.02,-3.79 -1.48,-0.4 -3.2,0.29 -3.33,2 m 44.72,2.9 c 3.42,5.22 3.02,12.25 -0.48,17.31 5.67,-2.64 8.85,-9.29 7.61,-15.36 -1.62,-2.04 -4.86,-1.14 -7.13,-1.95 m 77.62,15.99 c 1.62,6.14 5.32,11.71 10.18,15.78 7.97,6.86 18.75,9.04 29,9.08 -7.39,-5.61 -6.76,-17.97 0.03,-23.81 -12.03,-1.84 -24.19,-3.01 -36.26,-4.57 -2.06,-0.59 -3.62,1.69 -2.95,3.52 m 51.19,2.3 c 4.09,5.98 3.59,14.31 -0.75,20.01 5.5,-2.57 9.3,-8.26 9.31,-14.37 -0.13,-1.52 0.47,-3.55 -1.09,-4.5 -2.45,-0.64 -4.98,-0.76 -7.47,-1.14 z" />
      </g>
      <g
         id="#ff7100ff">
        <path
           style="opacity:1;fill:#ff7100"
           inkscape:connector-curvature="0"
           id="path8"
           d="m 141.19,53.24 c 36.47,-20.87 78.7,-31.42 120.69,-30.37 31.22,0.65 62.29,7.68 90.75,20.55 31.26,14.1 59.28,35.26 81.52,61.35 32.95,38.39 52.64,87.77 55.38,138.28 -24.57,-13.05 -50.49,-23.37 -76.49,-33.16 -1.93,-1.33 -2.86,-3.71 -4.42,-5.43 -3.21,-4.36 -7.89,-8.05 -9,-13.6 -2.59,-12.61 -4.17,-25.43 -7.45,-37.9 -1.61,-6.09 -3.75,-12.35 -8.12,-17.06 -4.99,-5.42 -14.04,-6.29 -20.02,-2.02 -4.89,3.42 -7.9,8.8 -10.56,13.99 -6.53,-15.97 -12.03,-32.39 -19.16,-48.13 -4.25,-9.06 -9.93,-18.44 -19.47,-22.64 -7.61,-3.1 -17.03,-4.19 -24.21,0.57 -10.29,6.48 -16.33,17.44 -24.76,25.88 -6.22,-5.63 -11.91,-12.23 -19.73,-15.69 -6.82,-3.04 -15.32,-3.92 -21.79,0.43 -8.45,5.63 -13.03,15.72 -14.13,25.58 -1.18,11.87 -3.2,23.64 -5.72,35.3 -2.44,-5.59 -5.23,-11.85 -11.08,-14.59 -4.54,-1.86 -10.01,-1.82 -14.4,0.42 -5.2,3.24 -8.14,8.88 -10.95,14.11 -8.13,16.4 -14.24,33.68 -21.48,50.46 -1.28,2.57 -2.17,5.74 -4.93,7.13 -7.22,4.32 -14.98,7.66 -22.27,11.86 -11.83,-0.62 -23.51,-3.32 -35.32,-4.31 -3.77,0.51 -4.13,4.74 -3.94,7.75 -0.49,6.47 -1.06,12.94 -1.28,19.43 -9.32,5.8 -18.34,12.08 -27.03,18.79 -9.49,-1.06 -19.05,-1.09 -28.58,-1.58 -0.41,-39.14 9.06,-78.37 27.65,-112.83 20.62,-38.52 52.31,-71 90.3,-92.57 z" />
        <path
           style="opacity:1;fill:#ff7100"
           inkscape:connector-curvature="0"
           id="path10"
           d="m 387.05,395.08 c 32.47,-31.88 66.01,-62.66 98.55,-94.47 -10.68,56.21 -43.11,107.85 -88.95,142.05 -32.65,24.66 -71.93,40.4 -112.56,45.1 C 234.95,493.58 184,483.56 141.07,458.86 89.38,429.56 49.63,379.82 32.94,322.75 l -0.38,-1.37 c 6.5,3.14 13.32,5.59 20.46,6.8 13.33,12.71 30.06,21.02 46.9,28.07 18.8,7.66 38.34,13.54 58.29,17.33 -2.1,3.78 -5.25,7.05 -6.2,11.4 -1.84,7.62 0.93,15.53 5.26,21.81 9,12.88 23.24,20.94 37.74,26.2 23.72,8.34 49.07,10.33 74.02,11.33 22.32,0.94 44.64,0 66.96,-0.05 3.76,0.25 7.72,-1.15 10,-4.25 11.75,-16.65 27.07,-30.25 41.06,-44.94 z" />
      </g>
      <g
         id="#292a29ff">
        <path
           style="opacity:1;fill:#292a29"
           inkscape:connector-curvature="0"
           id="path13"
           d="m 290.63,77.67 c 7.18,-4.76 16.6,-3.67 24.21,-0.57 9.54,4.2 15.22,13.58 19.47,22.64 7.13,15.74 12.63,32.16 19.16,48.13 2.66,-5.19 5.67,-10.57 10.56,-13.99 5.98,-4.27 15.03,-3.4 20.02,2.02 4.37,4.71 6.51,10.97 8.12,17.06 3.28,12.47 4.86,25.29 7.45,37.9 1.11,5.55 5.79,9.24 9,13.6 1.56,1.72 2.49,4.1 4.42,5.43 26,9.79 51.92,20.11 76.49,33.16 8.42,4.74 17.62,9.6 22.47,18.38 l 0,9.02 c -6.83,11.61 -17.04,20.65 -26.4,30.16 -32.54,31.81 -66.08,62.59 -98.55,94.47 -13.99,14.69 -29.31,28.29 -41.06,44.94 -2.28,3.1 -6.24,4.5 -10,4.25 -22.32,0.05 -44.64,0.99 -66.96,0.05 -24.95,-1 -50.3,-2.99 -74.02,-11.33 -14.5,-5.26 -28.74,-13.32 -37.74,-26.2 -4.33,-6.28 -7.1,-14.19 -5.26,-21.81 0.95,-4.35 4.1,-7.62 6.2,-11.4 -19.95,-3.79 -39.49,-9.67 -58.29,-17.33 -16.84,-7.05 -33.57,-15.36 -46.9,-28.07 -7.14,-1.21 -13.96,-3.66 -20.46,-6.8 l 0.38,1.37 c -1.88,-3.13 -5.53,-4.3 -8.33,-6.38 C 12.71,307.64 3.29,295.09 0,280.54 l 0,-10.02 c 1.63,-3.29 3.33,-6.86 6.57,-8.86 4.85,-3.35 11.02,-3.36 16.67,-3.02 9.53,0.49 19.09,0.52 28.58,1.58 8.69,-6.71 17.71,-12.99 27.03,-18.79 -0.37,5.28 0.24,10.55 0.57,15.81 -0.08,-0.65 -0.23,-1.95 -0.31,-2.6 -8.03,5.24 -15.91,10.75 -23.33,16.83 -6.95,-0.21 -13.85,-1.41 -20.82,-1.29 -6.52,0.13 -13.04,-1.27 -19.54,-0.52 -5.18,0.63 -5.88,7.7 -3.17,11.14 l 0,0.12 c -0.25,4.13 2.22,7.73 4.41,11.02 5.63,10.64 15.99,18 26.95,22.45 4.84,1.98 10.02,3.2 15.28,3.03 6.76,8.38 16.05,14.14 25.42,19.21 17,8.99 35.16,15.64 53.65,20.87 14.38,3.9 29.09,7 44.03,7.47 18.1,0.25 36.02,-3.79 52.95,-9.99 19.52,-6.88 37.66,-17.21 57.45,-23.38 5.33,-0.92 10.96,-1.88 16.22,-0.02 7.11,2.4 11.71,9.32 13.57,16.3 0.69,8.03 -4.36,15.06 -9.85,20.37 -10.46,9.92 -23.72,16.31 -37.18,21.12 -23.06,7.8 -47.84,10.52 -72.04,7.98 -13.48,-1.35 -26.24,-6.55 -37.47,-14.01 -0.27,0.24 -0.81,0.72 -1.08,0.96 -3.91,5.03 -1.07,11.54 2.06,16.16 7.08,10.22 18.4,16.52 29.74,20.98 21.2,8.04 44.15,9.86 66.64,10.06 12.82,-0.3 25.63,-0.93 38.38,-2.36 1.27,-17.8 9.82,-34.81 22.68,-47.07 4.78,-4.64 10.36,-8.32 15.44,-12.6 16.24,-13.34 31.25,-28.33 43.71,-45.29 12.46,-17.06 22.35,-36.45 25.92,-57.43 1.88,-0.19 4.06,-0.9 4.48,-3.03 0.85,-5.88 0.66,-11.89 0.56,-17.83 -0.22,-1.68 -0.3,-3.43 -0.98,-5 -1.02,-0.8 -2.21,-1.3 -3.4,-1.77 -1.08,-6.8 -2.21,-13.71 -5.01,-20.04 -4.01,-8.84 -13.22,-14.47 -15.69,-24.11 -3.18,-14.12 -4.52,-28.65 -8.73,-42.53 -1.27,-3.53 -2.54,-7.71 -6.02,-9.65 -2.89,-1.55 -5.47,1.51 -7.01,3.61 -5.74,8.53 -9.16,18.33 -13.25,27.7 1.97,1.53 3.98,3.01 6.05,4.42 2.18,1.56 4.51,2.97 6.47,4.84 0.61,3.33 -1.11,6.59 -2.49,9.53 -9.76,14.75 -26.07,23.74 -42.72,28.6 -18.56,5.49 -38.07,6.89 -57.35,6.72 -17.99,-0.21 -36.04,-0.86 -53.86,-3.54 -9.38,-1.5 -18.81,-3.43 -27.5,-7.37 -5.32,-2.48 -10.69,-6.31 -11.97,-12.42 0.1,-0.6 0.28,-1.8 0.37,-2.4 2.73,-0.44 4.57,2.4 6.9,3.38 9.31,4.8 19.78,6.71 30.02,8.47 18.19,2.68 36.6,3.85 54.98,3.69 16.77,-0.03 33.6,-1.58 49.97,-5.34 11.32,-2.82 22.7,-6.58 32.18,-13.56 1.31,-1.2 3.15,-2.28 3.6,-4.08 -1.08,-2.87 -3.75,-4.85 -6.04,-6.77 -2.8,-2.31 -6.84,-3.47 -8.26,-7.11 5.52,-2.63 10.58,-6.07 15.6,-9.55 -2.08,-7.38 -5.15,-14.44 -7.65,-21.69 -4.38,3.54 -9.09,6.68 -14.19,9.08 -2.82,-12.11 -5.68,-24.27 -10.08,-35.93 -2.31,-6.08 -5.82,-12.21 -11.67,-15.48 -4.49,-2.17 -10.17,-3.59 -14.73,-0.83 -8.67,5.01 -14.72,13.27 -22.33,19.6 -3.06,2.49 -6.25,5.58 -10.39,5.86 -4.7,-0.27 -7.73,-4.36 -10.7,-7.51 -5.2,-6.08 -10.31,-13.38 -18.55,-15.35 -3.08,-0.84 -8.2,-0.44 -8.42,3.66 -2.17,18.34 -4.91,36.74 -10.51,54.4 -2.06,6.21 -4.53,12.38 -8.32,17.76 -2.5,-11.03 -4.79,-22.18 -8.89,-32.75 -1.35,-2.86 -2.45,-6.43 -5.58,-7.81 -4.21,-1.24 -6.3,3.48 -8.15,6.34 -9.48,17.63 -15.69,36.77 -23.87,55 -1.55,3.23 -3.15,6.72 -6.21,8.83 -3.64,2.61 -7.79,4.39 -11.59,6.75 -6.3,-0.72 -12.66,-1.31 -18.81,-2.98 7.29,-4.2 15.05,-7.54 22.27,-11.86 2.76,-1.39 3.65,-4.56 4.93,-7.13 7.24,-16.78 13.35,-34.06 21.48,-50.46 2.81,-5.23 5.75,-10.87 10.95,-14.11 4.39,-2.24 9.86,-2.28 14.4,-0.42 5.85,2.74 8.64,9 11.08,14.59 2.52,-11.66 4.54,-23.43 5.72,-35.3 1.1,-9.86 5.68,-19.95 14.13,-25.58 6.47,-4.35 14.97,-3.47 21.79,-0.43 7.82,3.46 13.51,10.06 19.73,15.69 8.43,-8.44 14.47,-19.4 24.76,-25.88 m 127.64,145.87 c 3.02,12.9 4.38,26.28 2.71,39.49 -2.71,24.23 -13.62,46.78 -27.69,66.4 -13.25,18.42 -29.38,34.63 -46.92,48.96 -6.17,5.13 -13.04,9.53 -18.28,15.7 -9.53,10.82 -15.93,25.05 -15.59,39.64 4.71,-0.41 9.44,-0.19 14.16,-0.22 3.68,-0.06 7.36,-0.19 11.03,-0.43 6.53,-9.72 14.84,-18.07 22.75,-26.64 33.81,-34.89 69.85,-67.53 104.84,-101.21 11.27,-11.03 22.92,-21.76 33.08,-33.85 1.35,-2.03 4.25,-4.54 2.49,-7.13 -2.47,-3.3 -6.15,-5.35 -9.52,-7.58 -10.18,-6.24 -21.06,-11.2 -31.86,-16.22 -13.59,-5.97 -27.28,-11.73 -41.2,-16.91 m -135.25,120.9 c -10.67,4.38 -21.09,9.36 -31.73,13.81 -22.13,9.37 -45.86,16.28 -70.1,15.54 -1.43,1.94 -2.85,3.88 -4.26,5.83 13.19,7.8 28.82,9.9 43.91,9.76 26.43,-0.42 53.51,-6.14 76.11,-20.35 6.83,-4.81 14.5,-10.45 16.4,-19.07 -1.31,-4.9 -4.95,-10.15 -10.46,-10.46 -6.93,-0.12 -13.5,2.5 -19.87,4.94 z" />
      </g>
      <g
         id="#484847ff">
        <path
           style="opacity:1;fill:#484847"
           inkscape:connector-curvature="0"
           id="path16"
           d="m 291.71,106.76 c 4.56,-2.76 10.24,-1.34 14.73,0.83 5.85,3.27 9.36,9.4 11.67,15.48 4.4,11.66 7.26,23.82 10.08,35.93 -0.2,0.1 -0.6,0.29 -0.81,0.39 -14.8,7.02 -31.09,10.3 -47.31,11.93 -23.12,1.88 -46.41,-0.16 -69.26,-3.9 5.6,-17.66 8.34,-36.06 10.51,-54.4 0.22,-4.1 5.34,-4.5 8.42,-3.66 8.24,1.97 13.35,9.27 18.55,15.35 2.97,3.15 6,7.24 10.7,7.51 4.14,-0.28 7.33,-3.37 10.39,-5.86 7.61,-6.33 13.66,-14.59 22.33,-19.6 z" />
        <path
           style="opacity:1;fill:#484847"
           inkscape:connector-curvature="0"
           id="path18"
           d="m 334.25,181.25 0.18,-0.09 c 1.42,3.64 5.46,4.8 8.26,7.11 2.29,1.92 4.96,3.9 6.04,6.77 -0.45,1.8 -2.29,2.88 -3.6,4.08 -9.48,6.98 -20.86,10.74 -32.18,13.56 -16.37,3.76 -33.2,5.31 -49.97,5.34 -18.38,0.16 -36.79,-1.01 -54.98,-3.69 -10.24,-1.76 -20.71,-3.67 -30.02,-8.47 -2.33,-0.98 -4.17,-3.82 -6.9,-3.38 0.45,-1.41 1.15,-2.72 1.99,-3.93 6.09,-6.2 15.27,-6.66 23.31,-8.26 0.72,-0.31 1.43,-0.64 2.14,-0.99 15.23,2.73 30.6,4.75 46.03,5.89 30.35,2.54 62.23,0.29 89.7,-13.94 z" />
        <path
           style="opacity:1;fill:#484847"
           inkscape:connector-curvature="0"
           id="path20"
           d="m 80.13,222 c -0.19,-3.01 0.17,-7.24 3.94,-7.75 11.81,0.99 23.49,3.69 35.32,4.31 6.15,1.67 12.51,2.26 18.81,2.98 11.47,1.51 22.94,3.05 34.39,4.73 11.98,1.56 23.95,3.16 35.86,5.16 33.3,4.51 66.62,8.8 99.91,13.35 3.91,0.32 7.79,1.27 11.74,1.14 29.89,-2.33 59.77,-4.85 89.69,-6.8 1.19,0.47 2.38,0.97 3.4,1.77 0.68,1.57 0.76,3.32 0.98,5 -28.76,2.09 -57.51,4.11 -86.27,6.18 -3.58,0.24 -7.18,0.76 -10.77,0.39 -78.86,-10.99 -157.72,-21.96 -236.59,-32.9 -0.1,0.61 -0.3,1.83 -0.41,2.44 z" />
        <path
           style="opacity:1;fill:#484847"
           inkscape:connector-curvature="0"
           id="path22"
           d="m 189.29,250.09 c 3.5,1.65 2.64,6.05 3.04,9.24 -5.83,13.22 -16.96,23.84 -30,29.9 -12.27,5.78 -25.92,7.85 -39.37,8.25 -12.83,0.72 -27.31,-3.2 -34.66,-14.52 4.46,1.57 8.24,4.57 12.71,6.11 13.87,5.88 29.5,4.92 43.92,1.82 14.89,-3.26 28.83,-12.13 36.61,-25.45 3.11,-4.85 4.73,-10.46 7.75,-15.35 z" />
        <path
           style="opacity:1;fill:#484847"
           inkscape:connector-curvature="0"
           id="path24"
           d="m 199.41,260.66 c 0.82,-2.68 1.64,-6.79 5.23,-6.65 1.11,5.27 1.25,10.7 2.59,15.93 2.11,9.22 6.67,17.86 13.18,24.72 10.75,11.48 25.62,18.21 40.62,22.15 13.1,3.26 26.68,0.54 39.18,-3.8 -5.45,5.94 -13.04,9.88 -21.07,10.75 -10.04,1.23 -19.9,-1.94 -29.23,-5.29 -15.71,-5.79 -30.65,-15.33 -40.02,-29.5 -5.72,-8.42 -9.01,-18.29 -10.48,-28.31 z" />
        <path
           style="opacity:1;fill:#484847"
           inkscape:connector-curvature="0"
           id="path26"
           d="m 16.66,291.94 c 13.57,7.41 29.26,10.27 44.62,9.72 0.05,1.49 0.09,2.99 0.11,4.49 -0.21,1.54 -0.45,3.07 -0.74,4.6 -0.47,2.25 -1.12,4.46 -1.76,6.67 -5.26,0.17 -10.44,-1.05 -15.28,-3.03 -10.96,-4.45 -21.32,-11.81 -26.95,-22.45 z" />
      </g>
      <g
         id="#e4b472ff">
        <path
           style="opacity:1;fill:#e4b472"
           inkscape:connector-curvature="0"
           id="path29"
           d="m 367.33,146.4 c 1.54,-2.1 4.12,-5.16 7.01,-3.61 3.48,1.94 4.75,6.12 6.02,9.65 4.21,13.88 5.55,28.41 8.73,42.53 2.47,9.64 11.68,15.27 15.69,24.11 2.8,6.33 3.93,13.24 5.01,20.04 -29.92,1.95 -59.8,4.47 -89.69,6.8 -3.95,0.13 -7.83,-0.82 -11.74,-1.14 3.24,-2.2 7.28,-2.33 10.91,-3.49 14.27,-4.1 28.37,-11.64 36.72,-24.32 4.09,-5.94 6.68,-12.75 8.38,-19.73 5.92,0.48 11.77,1.58 17.7,1.99 -1.92,-9.37 -3.62,-18.79 -5.23,-28.22 -0.88,-4.52 -1.44,-9.26 -3.88,-13.26 -1.64,0.03 -3.02,0.93 -3.83,2.33 -3.84,5.7 -5.88,12.35 -9,18.44 -2.07,-1.41 -4.08,-2.89 -6.05,-4.42 4.09,-9.37 7.51,-19.17 13.25,-27.7 z" />
        <path
           style="opacity:1;fill:#e4b472"
           inkscape:connector-curvature="0"
           id="path31"
           d="m 179.87,150.96 c 1.85,-2.86 3.94,-7.58 8.15,-6.34 3.13,1.38 4.23,4.95 5.58,7.81 4.1,10.57 6.39,21.72 8.89,32.75 -1.2,1.49 -2.53,2.86 -3.97,4.12 -0.71,0.35 -1.42,0.68 -2.14,0.99 -1.53,-7.15 -3.3,-14.24 -5.38,-21.24 -1.08,-3.14 -1.92,-6.57 -4.25,-9.05 -2.64,-1.55 -3.94,2.1 -5,3.85 -5.13,11.21 -9.08,22.94 -13.12,34.57 1.48,0.05 2.96,0.09 4.44,0.13 -0.84,1.21 -1.54,2.52 -1.99,3.93 -0.09,0.6 -0.27,1.8 -0.37,2.4 -1.87,5.22 -2.99,11.38 -0.05,16.45 0.67,1.61 2.17,3.07 1.93,4.94 -11.45,-1.68 -22.92,-3.22 -34.39,-4.73 3.8,-2.36 7.95,-4.14 11.59,-6.75 3.06,-2.11 4.66,-5.6 6.21,-8.83 8.18,-18.23 14.39,-37.37 23.87,-55 z" />
        <path
           style="opacity:1;fill:#e4b472"
           inkscape:connector-curvature="0"
           id="path33"
           d="m 55.78,271.47 c 7.42,-6.08 15.3,-11.59 23.33,-16.83 0.08,0.65 0.23,1.95 0.31,2.6 0.97,9.05 3.24,18.37 8.88,25.72 7.35,11.32 21.83,15.24 34.66,14.52 13.45,-0.4 27.1,-2.47 39.37,-8.25 13.04,-6.06 24.17,-16.68 30,-29.9 2.47,-0.33 4.87,0.2 7.08,1.33 1.47,10.02 4.76,19.89 10.48,28.31 9.37,14.17 24.31,23.71 40.02,29.5 9.33,3.35 19.19,6.52 29.23,5.29 8.03,-0.87 15.62,-4.81 21.07,-10.75 10.85,-11.45 15.38,-27.19 18.65,-42.23 30.08,-1.51 60.18,-2.69 90.27,-4.03 -3.57,20.98 -13.46,40.37 -25.92,57.43 -12.46,16.96 -27.47,31.95 -43.71,45.29 -5.08,4.28 -10.66,7.96 -15.44,12.6 -12.86,12.26 -21.41,29.27 -22.68,47.07 -12.75,1.43 -25.56,2.06 -38.38,2.36 -22.49,-0.2 -45.44,-2.02 -66.64,-10.06 -11.34,-4.46 -22.66,-10.76 -29.74,-20.98 -3.13,-4.62 -5.97,-11.13 -2.06,-16.16 7.24,7.25 16.78,11.52 26.33,14.83 19.52,6.67 40.67,9.82 61.13,6.07 14.57,-2.46 28.7,-7.52 41.56,-14.78 10.12,-6.04 20.04,-13.43 25.94,-23.87 3.27,-5.6 3.97,-12.38 2.66,-18.67 -1.86,-6.98 -6.46,-13.9 -13.57,-16.3 -5.26,-1.86 -10.89,-0.9 -16.22,0.02 -2.76,-0.51 -5.56,-1.09 -8.37,-0.62 -16.87,2.14 -32.74,8.55 -49.05,13 -14.99,4.35 -30.4,7.39 -46,8.34 -15.36,0.57 -30.94,0.36 -45.93,-3.44 -24.36,-6.18 -46.73,-18.08 -68.37,-30.56 -4.63,-2.6 -8.97,-5.79 -14.02,-7.57 0.29,-1.53 0.53,-3.06 0.74,-4.6 1.22,-5.64 0.29,-11.38 -0.2,-17.04 C 60.5,283 59.77,276.43 55.78,271.47 Z" />
        <path
           style="opacity:1;fill:#e4b472"
           inkscape:connector-curvature="0"
           id="path35"
           d="m 301.16,351.19 c 2.91,-1.47 5.58,-3.59 8.87,-4.14 -2.27,2.39 -4.65,4.73 -7.45,6.52 -12.03,8.07 -25.48,13.78 -39.1,18.57 -15.62,5.63 -32.21,7.52 -48.49,9.44 -3.65,0.01 -7.3,0.08 -10.95,-0.03 -0.81,-0.03 -1.5,-0.33 -2.09,-0.9 4.16,-1.62 8.73,-0.96 13.08,-1.23 7.94,-1.19 15.99,-2.17 23.9,-3.85 22.05,-4.18 42.59,-13.81 62.23,-24.38 z" />
      </g>
      <g
         id="#1371b6ff">
        <path
           style="opacity:1;fill:#1371b6"
           inkscape:connector-curvature="0"
           id="path38"
           d="m 328.19,159 c 5.1,-2.4 9.81,-5.54 14.19,-9.08 2.5,7.25 5.57,14.31 7.65,21.69 -5.02,3.48 -10.08,6.92 -15.6,9.55 l -0.18,0.09 c -1.67,-5.84 -3.4,-11.67 -4.77,-17.59 -0.49,-1.51 -0.52,-3.45 -2.1,-4.27 0.21,-0.1 0.61,-0.29 0.81,-0.39 z" />
        <path
           style="opacity:1;fill:#1371b6"
           inkscape:connector-curvature="0"
           id="path40"
           d="m 418.27,223.54 c 13.92,5.18 27.61,10.94 41.2,16.91 -1.07,2.74 -1.38,5.68 -1.8,8.58 -4.22,25.36 -14.39,49.93 -30.57,70.01 -20.62,26.02 -46.81,46.7 -71.73,68.35 -8.25,7.38 -16.86,14.6 -23.26,23.74 -4.61,6.47 -4.79,14.77 -5.45,22.38 -4.72,0.03 -9.45,-0.19 -14.16,0.22 -0.34,-14.59 6.06,-28.82 15.59,-39.64 5.24,-6.17 12.11,-10.57 18.28,-15.7 17.54,-14.33 33.67,-30.54 46.92,-48.96 14.07,-19.62 24.98,-42.17 27.69,-66.4 1.67,-13.21 0.31,-26.59 -2.71,-39.49 z" />
      </g>
      <g
         id="#b38c5dff">
        <path
           style="opacity:1;fill:#b38c5d"
           inkscape:connector-curvature="0"
           id="path43"
           d="m 369.13,160.08 c 0.81,-1.4 2.19,-2.3 3.83,-2.33 2.44,4 3,8.74 3.88,13.26 1.61,9.43 3.31,18.85 5.23,28.22 -5.93,-0.41 -11.78,-1.51 -17.7,-1.99 -1.7,6.98 -4.29,13.79 -8.38,19.73 -8.35,12.68 -22.45,20.22 -36.72,24.32 -3.63,1.16 -7.67,1.29 -10.91,3.49 -33.29,-4.55 -66.61,-8.84 -99.91,-13.35 -11.91,-2 -23.88,-3.6 -35.86,-5.16 0.24,-1.87 -1.26,-3.33 -1.93,-4.94 -2.94,-5.07 -1.82,-11.23 0.05,-16.45 1.28,6.11 6.65,9.94 11.97,12.42 8.69,3.94 18.12,5.87 27.5,7.37 17.82,2.68 35.87,3.33 53.86,3.54 19.28,0.17 38.79,-1.23 57.35,-6.72 16.65,-4.86 32.96,-13.85 42.72,-28.6 1.38,-2.94 3.1,-6.2 2.49,-9.53 -1.96,-1.87 -4.29,-3.28 -6.47,-4.84 3.12,-6.09 5.16,-12.74 9,-18.44 z" />
        <path
           style="opacity:1;fill:#b38c5d"
           inkscape:connector-curvature="0"
           id="path45"
           d="m 181.75,163.85 c 1.06,-1.75 2.36,-5.4 5,-3.85 2.33,2.48 3.17,5.91 4.25,9.05 2.08,7 3.85,14.09 5.38,21.24 -8.04,1.6 -17.22,2.06 -23.31,8.26 -1.48,-0.04 -2.96,-0.08 -4.44,-0.13 4.04,-11.63 7.99,-23.36 13.12,-34.57 z" />
        <path
           style="opacity:1;fill:#b38c5d"
           inkscape:connector-curvature="0"
           id="path47"
           d="m 15.42,269.66 c 6.5,-0.75 13.02,0.65 19.54,0.52 6.97,-0.12 13.87,1.08 20.82,1.29 3.99,4.96 4.72,11.53 5.41,17.64 0.49,5.66 1.42,11.4 0.2,17.04 -0.02,-1.5 -0.06,-3 -0.11,-4.49 -15.36,0.55 -31.05,-2.31 -44.62,-9.72 -2.19,-3.29 -4.66,-6.89 -4.41,-11.02 0.67,1 1.36,1.99 2.03,3.01 5.39,-4.72 12.38,-7.55 19.6,-7.28 2.39,0.48 3.88,-3.94 1.1,-4.2 -6.15,-0.88 -12.83,-2.73 -18.85,-0.31 -3.49,1.33 -4.15,5.37 -3.88,8.66 -2.71,-3.44 -2.01,-10.51 3.17,-11.14 z" />
        <path
           style="opacity:1;fill:#b38c5d"
           inkscape:connector-curvature="0"
           id="path49"
           d="m 60.65,310.75 c 5.05,1.78 9.39,4.97 14.02,7.57 21.64,12.48 44.01,24.38 68.37,30.56 14.99,3.8 30.57,4.01 45.93,3.44 15.6,-0.95 31.01,-3.99 46,-8.34 16.31,-4.45 32.18,-10.86 49.05,-13 2.81,-0.47 5.61,0.11 8.37,0.62 -19.79,6.17 -37.93,16.5 -57.45,23.38 -16.93,6.2 -34.85,10.24 -52.95,9.99 -14.94,-0.47 -29.65,-3.57 -44.03,-7.47 -18.49,-5.23 -36.65,-11.88 -53.65,-20.87 -9.37,-5.07 -18.66,-10.83 -25.42,-19.21 0.64,-2.21 1.29,-4.42 1.76,-6.67 z" />
        <path
           style="opacity:1;fill:#b38c5d"
           inkscape:connector-curvature="0"
           id="path51"
           d="m 322.18,347.88 c 1.31,6.29 0.61,13.07 -2.66,18.67 -5.9,10.44 -15.82,17.83 -25.94,23.87 -12.86,7.26 -26.99,12.32 -41.56,14.78 -20.46,3.75 -41.61,0.6 -61.13,-6.07 -9.55,-3.31 -19.09,-7.58 -26.33,-14.83 0.27,-0.24 0.81,-0.72 1.08,-0.96 11.23,7.46 23.99,12.66 37.47,14.01 24.2,2.54 48.98,-0.18 72.04,-7.98 13.46,-4.81 26.72,-11.2 37.18,-21.12 5.49,-5.31 10.54,-12.34 9.85,-20.37 z" />
      </g>
      <g
         id="#16a1ffff">
        <path
           style="opacity:1;fill:#16a1ff"
           inkscape:connector-curvature="0"
           id="path54"
           d="m 280.07,171.32 c 16.22,-1.63 32.51,-4.91 47.31,-11.93 1.58,0.82 1.61,2.76 2.1,4.27 1.37,5.92 3.1,11.75 4.77,17.59 -27.47,14.23 -59.35,16.48 -89.7,13.94 -15.43,-1.14 -30.8,-3.16 -46.03,-5.89 1.44,-1.26 2.77,-2.63 3.97,-4.12 3.79,-5.38 6.26,-11.55 8.32,-17.76 22.85,3.74 46.14,5.78 69.26,3.9 z" />
        <path
           style="opacity:1;fill:#16a1ff"
           inkscape:connector-curvature="0"
           id="path56"
           d="m 457.67,249.03 c 0.42,-2.9 0.73,-5.84 1.8,-8.58 10.8,5.02 21.68,9.98 31.86,16.22 3.37,2.23 7.05,4.28 9.52,7.58 1.76,2.59 -1.14,5.1 -2.49,7.13 -10.16,12.09 -21.81,22.82 -33.08,33.85 -34.99,33.68 -71.03,66.32 -104.84,101.21 -7.91,8.57 -16.22,16.92 -22.75,26.64 -3.67,0.24 -7.35,0.37 -11.03,0.43 0.66,-7.61 0.84,-15.91 5.45,-22.38 6.4,-9.14 15.01,-16.36 23.26,-23.74 24.92,-21.65 51.11,-42.33 71.73,-68.35 16.18,-20.08 26.35,-44.65 30.57,-70.01 z" />
      </g>
      <g
         id="#ffffffff">
        <path
           style="opacity:1;fill:#ffffff"
           inkscape:connector-curvature="0"
           id="path59"
           d="m 116.69,245.15 c 0.13,-1.71 1.85,-2.4 3.33,-2 10.34,1.26 20.68,2.5 31.02,3.79 -5.85,5.07 -6.49,15.56 -0.33,20.63 -8.31,0.21 -16.95,-1.61 -23.69,-6.7 -5.01,-3.92 -9.07,-9.39 -10.33,-15.72 z" />
        <path
           style="opacity:1;fill:#ffffff"
           inkscape:connector-curvature="0"
           id="path61"
           d="m 161.41,248.05 c 2.27,0.81 5.51,-0.09 7.13,1.95 1.24,6.07 -1.94,12.72 -7.61,15.36 3.5,-5.06 3.9,-12.09 0.48,-17.31 z" />
        <path
           style="opacity:1;fill:#ffffff"
           inkscape:connector-curvature="0"
           id="path63"
           d="m 239.03,264.04 c -0.67,-1.83 0.89,-4.11 2.95,-3.52 12.07,1.56 24.23,2.73 36.26,4.57 -6.79,5.84 -7.42,18.2 -0.03,23.81 -10.25,-0.04 -21.03,-2.22 -29,-9.08 -4.86,-4.07 -8.56,-9.64 -10.18,-15.78 z" />
        <path
           style="opacity:1;fill:#ffffff"
           inkscape:connector-curvature="0"
           id="path65"
           d="m 290.22,266.34 c 2.49,0.38 5.02,0.5 7.47,1.14 1.56,0.95 0.96,2.98 1.09,4.5 -0.01,6.11 -3.81,11.8 -9.31,14.37 4.34,-5.7 4.84,-14.03 0.75,-20.01 z" />
        <path
           style="opacity:1;fill:#ffffff"
           inkscape:connector-curvature="0"
           id="path67"
           d="m 16.13,272.14 c 6.02,-2.42 12.7,-0.57 18.85,0.31 2.78,0.26 1.29,4.68 -1.1,4.2 -7.22,-0.27 -14.21,2.56 -19.6,7.28 -0.67,-1.02 -1.36,-2.01 -2.03,-3.01 l 0,-0.12 c -0.27,-3.29 0.39,-7.33 3.88,-8.66 z" />
        <path
           style="opacity:1;fill:#ffffff"
           inkscape:connector-curvature="0"
           id="path69"
           d="m 283.02,344.44 c 6.37,-2.44 12.94,-5.06 19.87,-4.94 5.51,0.31 9.15,5.56 10.46,10.46 -1.9,8.62 -9.57,14.26 -16.4,19.07 -22.6,14.21 -49.68,19.93 -76.11,20.35 -15.09,0.14 -30.72,-1.96 -43.91,-9.76 1.41,-1.95 2.83,-3.89 4.26,-5.83 24.24,0.74 47.97,-6.17 70.1,-15.54 10.64,-4.45 21.06,-9.43 31.73,-13.81 m 18.14,6.75 c -19.64,10.57 -40.18,20.2 -62.23,24.38 -7.91,1.68 -15.96,2.66 -23.9,3.85 -4.35,0.27 -8.92,-0.39 -13.08,1.23 0.59,0.57 1.28,0.87 2.09,0.9 3.65,0.11 7.3,0.04 10.95,0.03 16.28,-1.92 32.87,-3.81 48.49,-9.44 13.62,-4.79 27.07,-10.5 39.1,-18.57 2.8,-1.79 5.18,-4.13 7.45,-6.52 -3.29,0.55 -5.96,2.67 -8.87,4.14 z" />
      </g>
    </g>
  </g>
</svg>
