<?xml version="1.0" encoding="UTF-8" standalone="no"?>
<!-- Created with Inkscape (http://www.inkscape.org/) -->

<svg
   xmlns:dc="http://purl.org/dc/elements/1.1/"
   xmlns:cc="http://creativecommons.org/ns#"
   xmlns:rdf="http://www.w3.org/1999/02/22-rdf-syntax-ns#"
   xmlns:svg="http://www.w3.org/2000/svg"
   xmlns="http://www.w3.org/2000/svg"
   xmlns:sodipodi="http://sodipodi.sourceforge.net/DTD/sodipodi-0.dtd"
   xmlns:inkscape="http://www.inkscape.org/namespaces/inkscape"
   width="209.295"
   height="50"
   viewBox="0 0 209.29499 49.999996"
   id="svg7605"
   version="1.1"
   inkscape:version="0.91 r13725"
   sodipodi:docname="khan.svg"
   inkscape:export-filename="C:\Users\10000_000\Desktop\twitter.png"
   inkscape:export-xdpi="90"
   inkscape:export-ydpi="90">
  <defs
     id="defs7607">
    <marker
       inkscape:stockid="Arrow1Lstart"
       orient="auto"
       refY="0"
       refX="0"
       id="Arrow1Lstart"
       style="overflow:visible"
       inkscape:isstock="true">
      <path
         id="path4254"
         d="M 0,0 5,-5 -12.5,0 5,5 0,0 Z"
         style="fill-rule:evenodd;stroke:#000000;stroke-width:1pt"
         transform="matrix(0.8,0,0,0.8,10,0)"
         inkscape:connector-curvature="0" />
    </marker>
  </defs>
  <sodipodi:namedview
     id="base"
     pagecolor="#ffffff"
     bordercolor="#666666"
     borderopacity="1.0"
     inkscape:pageopacity="0.0"
     inkscape:pageshadow="2"
     inkscape:zoom="2"
     inkscape:cx="10.197779"
     inkscape:cy="13.725092"
     inkscape:document-units="px"
     inkscape:current-layer="layer1"
     showgrid="true"
     showguides="false"
     inkscape:snap-page="false"
     inkscape:snap-grids="true"
     inkscape:snap-to-guides="true"
     inkscape:window-width="1366"
     inkscape:window-height="705"
     inkscape:window-x="-8"
     inkscape:window-y="-8"
     inkscape:window-maximized="1"
     units="px">
    <inkscape:grid
       type="xygrid"
       id="grid8437" />
  </sodipodi:namedview>
  <metadata
     id="metadata7610">
    <rdf:RDF>
      <cc:Work
         rdf:about="">
        <dc:format>image/svg+xml</dc:format>
        <dc:type
           rdf:resource="http://purl.org/dc/dcmitype/StillImage" />
        <dc:title></dc:title>
      </cc:Work>
    </rdf:RDF>
  </metadata>
  <g
     inkscape:label="Layer 1"
     inkscape:groupmode="layer"
     id="layer1"
     transform="translate(0,-1002.3622)">
    <rect
       style="color:#000000;clip-rule:nonzero;display:inline;overflow:visible;visibility:visible;opacity:1;isolation:auto;mix-blend-mode:normal;color-interpolation:sRGB;color-interpolation-filters:linearRGB;solid-color:#000000;solid-opacity:1;fill:#eeeeee;fill-opacity:1;fill-rule:nonzero;stroke:none;stroke-width:1;stroke-linecap:butt;stroke-linejoin:miter;stroke-miterlimit:4;stroke-dasharray:none;stroke-dashoffset:0;stroke-opacity:1;color-rendering:auto;image-rendering:auto;shape-rendering:auto;text-rendering:auto;enable-background:accumulate"
       id="rect7613"
       width="209.29497"
       height="50"
       x="4.7924073e-007"
       y="1002.3622" />
    <path
       style="font-style:normal;font-weight:normal;font-size:12286.89355469px;line-height:125%;font-family:sans-serif;letter-spacing:0px;word-spacing:0px;fill:#3a4750;fill-opacity:1;stroke:none;stroke-width:1px;stroke-linecap:butt;stroke-linejoin:miter;stroke-opacity:1;marker-end:"
       d="m 50,1019.8657 c 0,4.3271 0,8.6542 0,12.9814 0.673982,0 1.347964,0 2.021945,0 0,-1.9346 0,-3.8693 0,-5.8039 0.777542,0 1.555083,0 2.332625,0 1.450962,1.9346 2.901927,3.8693 4.352887,5.8039 0.808842,0 1.617684,0 2.426526,0 -1.612993,-2.2313 -3.225986,-4.4626 -4.83898,-6.6939 1.505505,-2.097 3.011009,-4.1939 4.516515,-6.2909 -0.808842,0 -1.617684,0 -2.426526,0 -1.289746,1.7734 -2.57949,3.5468 -3.869236,5.3202 -0.83127,0 -1.66254,0 -2.493811,0 0,-1.7734 0,-3.5468 0,-5.3202 -0.673981,0 -1.347963,0 -2.021945,0 l 0,0 0,0 z m 13.46171,0 c 0,4.3271 0,8.6542 0,12.9814 0.673982,0 1.347963,0 2.021945,0 0,-2.8751 0,-5.7501 0,-8.6252 1.878639,0 3.757276,0 5.635915,0 0,2.8751 0,5.7501 0,8.6252 0.673983,0 1.347964,0 2.021946,0 0,-3.4953 0,-6.9906 0,-10.4859 -2.552621,0 -5.105241,0 -7.657861,0 0,-0.833 0,-1.6659 0,-2.4989 -0.673982,0 -1.347963,0 -2.021945,0 l 0,0 0,0 z m 46.02783,-7e-4 c -0.83322,4.3542 -1.66643,8.7085 -2.49965,13.0627 0.67402,0 1.34805,0 2.02207,0 0.34931,-1.8272 0.69861,-3.6543 1.04792,-5.4814 1.95965,0 3.91929,0 5.87894,0 0.37618,1.8271 0.75235,3.6542 1.12853,5.4814 0.67401,0 1.34803,0 2.02205,0 -0.86027,-4.3551 -1.72054,-8.7103 -2.58081,-13.0654 -2.33951,0 -4.67902,0 -7.01853,0 l -3.2e-4,0 -2e-4,0 z m 44.81857,0.081 c 0,0.8049 0,1.6099 0,2.4149 -2.57949,0 -5.15898,0 -7.73847,0 0,3.4953 0,6.9906 0,10.4859 3.25347,0 6.50694,0 9.76041,0 0,-4.3014 0,-8.6028 0,-12.9042 -0.67398,0 -1.34796,0 -2.02194,0 l 0,0 0,0 z m -39.41723,1.8573 c 0.24139,1.2338 0.48277,2.4676 0.72416,3.7013 -1.74384,0 -3.48767,0 -5.23151,0 0.21457,-1.2337 0.42913,-2.4675 0.6437,-3.7013 1.28788,0 2.57576,0 3.86365,0 z m -36.274668,0.5609 c 0,0.646 0,1.292 0,1.938 1.692789,0 3.385581,0 5.07837,0 0,0.8039 0,1.6077 0,2.4116 -2.525749,0 -5.0515,0 -7.577249,0 0,2.0712 0,4.1424 0,6.2136 3.2266,0 6.453201,0 9.679802,0 0,-3.5222 0,-7.0444 0,-10.5665 -2.393641,0 -4.787282,0 -7.180923,0 l 0,0 0,0 z m 10.317955,0 c 0,3.4942 0,6.9884 0,10.4826 0.673983,0 1.347964,0 2.021946,0 0,-2.8751 0,-5.7501 0,-8.6252 1.8249,0 3.649799,0 5.474699,0 0,2.8751 0,5.7501 0,8.6252 0.673981,0 1.347962,0 2.021941,0 0,-3.4953 0,-6.9906 0,-10.4859 -3.172861,0 -6.345723,0 -9.518586,0 l 0,0 0,0 z m 32.566053,0 c 0,3.4942 0,6.9884 0,10.4826 3.25348,0 6.50695,0 9.76042,0 0,-0.6203 0,-1.2405 0,-1.8607 -2.60636,0 -5.21272,0 -7.81908,0 0,-2.2549 0,-4.5097 0,-6.7645 2.60636,0 5.21272,0 7.81908,0 0,-0.6202 0,-1.2405 0,-1.8607 -3.25347,0 -6.50694,0 -9.76042,0 l 0,0 0,0 z m 14.75146,0 c 0,0.646 0,1.292 0,1.938 1.69279,0 3.38558,0 5.07838,0 0,0.8039 0,1.6077 0,2.4116 -2.52576,0 -5.05151,0 -7.57726,0 0,2.0712 0,4.1424 0,6.2136 3.2266,0 6.45321,0 9.67981,0 0,-3.5222 0,-7.0444 0,-10.5665 -2.39365,0 -4.78729,0 -7.18093,0 l 0,0 0,0 z m 23.21541,0 c 0,3.5211 0,7.0421 0,10.5632 3.38782,0 6.77564,0 10.16346,0 0,-0.6203 0,-1.2405 0,-1.8607 -2.71384,0 -5.42768,0 -8.14152,0 0,-0.9114 0,-1.8227 0,-2.734 2.71384,0 5.42768,0 8.14152,0 0,-1.9906 0,-3.9812 0,-5.9718 -3.38782,0 -6.77564,0 -10.16346,0 l 0,0 0,0 z m 13.05867,0 c 0,3.4942 0,6.9884 0,10.4826 0.67398,0 1.34796,0 2.02194,0 0,-2.8751 0,-5.7501 0,-8.6252 1.26064,0 2.52127,0 3.78191,0 0,2.8751 0,5.7501 0,8.6252 0.64711,0 1.29422,0 1.94133,0 0,-2.8751 0,-5.7501 0,-8.6252 1.26064,0 2.52128,0 3.78191,0 0,2.8751 0,5.7501 0,8.6252 0.67398,0 1.34796,0 2.02195,0 0,-3.4953 0,-6.9906 0,-10.4859 -4.51635,0 -9.0327,0 -13.54904,0 l 0,0 0,0 z m 16.52485,0 c 0,2.7419 0,5.4837 0,8.2255 2.71384,0 5.42768,0 8.14151,0 0,0.8307 0,1.6615 0,2.4922 -2.71383,0 -5.42767,0 -8.14151,0 0,0.5934 0,1.1867 0,1.7801 3.41469,0 6.82938,0 10.24407,0 0,-4.167 0,-8.3341 0,-12.5011 -0.70085,0 -1.4017,0 -2.10256,0 0,2.1227 0,4.2454 0,6.3681 -2.01298,0 -4.02597,0 -6.03896,0 0,-2.1227 0,-4.2454 0,-6.3681 -0.70085,0 -1.4017,0 -2.10255,0 l 0,0 0,0 z m -34.7425,1.938 c 0,2.2011 0,4.4022 0,6.6032 -1.90551,0 -3.81102,0 -5.71653,0 0,-2.201 0,-4.4021 0,-6.6032 1.90551,0 3.81102,0 5.71653,0 z m 13.30049,0 c 0,0.7233 0,1.4465 0,2.1697 -2.03985,0 -4.07971,0 -6.11957,0 0,-0.7232 0,-1.4464 0,-2.1697 2.03986,0 4.07972,0 6.11957,0 z m -83.914018,4.2723 c 0,0.8038 0,1.6077 0,2.4116 -1.851768,0 -3.703538,0 -5.555308,0 0,-0.8039 0,-1.6078 0,-2.4116 1.85177,0 3.70354,0 5.555308,0 z m 57.635478,0 c 0,0.8038 0,1.6077 0,2.4116 -1.85177,0 -3.70354,0 -5.55531,0 0,-0.8039 0,-1.6078 0,-2.4116 1.85177,0 3.70354,0 5.55531,0 z"
       id="text4177"
       inkscape:connector-curvature="0" />
    <g
       id="g4248"
       transform="matrix(0.11235954,0,0,0.120048,14.999998,1012.3502)">
      <g
         id="#000000ff" />
      <g
         id="#9eb63aff">
        <path
           id="path4168"
           d="m 74.72,0.1 c 3.7,0.76 7.72,1.74 10.22,4.82 2.1,2.1 1,5.26 1.06,7.85 -2.11,-2.05 -4.1,-4.23 -6.34,-6.14 1.24,2.54 2.91,4.84 4.52,7.17 -1.96,0.08 -4.17,0.21 -5.73,-1.22 C 74.78,9.59 74.62,4.44 74.72,0.1 Z"
           inkscape:connector-curvature="0"
           style="opacity:1;fill:#9eb63a" />
        <path
           id="path4170"
           d="m 101.32,18.94 c 0.6,-7.11 6.33,-12.32 11.61,-16.45 4.2,5.84 6.07,13.76 3.25,20.58 -1.41,3.39 -4.77,5.2 -8.1,6.26 0.76,-4.51 2.05,-9 1.64,-13.62 -1.54,4.32 -2.52,8.8 -3.66,13.23 -2.66,-2.66 -5.24,-5.98 -4.74,-10 z"
           inkscape:connector-curvature="0"
           style="opacity:1;fill:#9eb63a" />
        <path
           id="path4172"
           d="M 43.65,18.31 C 41.3,14.59 42.3,9.99 43.43,6.03 c 3.65,1.54 7.37,3.76 9.03,7.55 1.09,2.38 -0.03,4.93 -0.63,7.27 -1.62,-2.49 -3.17,-5.03 -4.98,-7.38 0.8,2.75 1.84,5.42 2.85,8.1 -2.09,-0.85 -4.83,-1.09 -6.05,-3.26 z"
           inkscape:connector-curvature="0"
           style="opacity:1;fill:#9eb63a" />
        <path
           id="path4174"
           d="m 59.03,8 c 6.68,2.07 13.36,6.45 15.45,13.47 1.09,3.15 -0.54,6.25 -1.85,9.04 -2.19,-3.33 -4.21,-6.76 -6.26,-10.18 -0.29,-0.05 -0.88,-0.14 -1.17,-0.18 1.85,3.77 3.75,7.51 5.55,11.3 -3.7,-0.74 -7.93,-1.66 -10.1,-5.1 C 57.19,20.9 57.97,14.05 59.03,8 Z"
           inkscape:connector-curvature="0"
           style="opacity:1;fill:#9eb63a" />
        <path
           id="path4176"
           d="m 129.56,13.59 c 3.94,-3.35 9.39,-3.15 14.22,-2.69 -1.1,4.71 -2.93,9.97 -7.52,12.33 -2.57,1.47 -5.49,0.26 -8.09,-0.41 2.73,-2.09 5.51,-4.17 7.82,-6.74 -3.21,1.42 -6.24,3.21 -9.28,4.96 0.33,-2.62 0.47,-5.75 2.85,-7.45 z"
           inkscape:connector-curvature="0"
           style="opacity:1;fill:#9eb63a" />
        <path
           id="path4178"
           d="m 88.56,18.02 c 6.05,6.83 9.49,16.64 6.81,25.62 -1.23,4.08 -4.88,6.64 -8.71,8.05 0.25,-5.61 0.94,-11.22 0.43,-16.83 -1.96,5.22 -2.07,10.85 -2.79,16.32 -4.29,-2.97 -7.7,-7.79 -7.29,-13.22 0.65,-8 5.92,-14.63 11.55,-19.94 z"
           inkscape:connector-curvature="0"
           style="opacity:1;fill:#9eb63a" />
        <path
           id="path4180"
           d="m 22.6,24.75 c 8.14,-2.84 17.97,-1.78 24.49,4.15 3.17,2.83 3.73,7.23 3.71,11.24 -4.84,-2.48 -9.37,-5.62 -14.55,-7.4 3.6,4.06 9.22,5.81 12.73,9.75 -4.17,2.47 -9.75,3.3 -14.02,0.59 C 28.47,39.01 25.11,31.71 22.6,24.75 Z"
           inkscape:connector-curvature="0"
           style="opacity:1;fill:#9eb63a" />
        <path
           id="path4182"
           d="m 141.07,32.03 c 4.5,-4.01 10.99,-3.28 16.56,-3.09 -0.97,5.79 -4.27,11.59 -9.89,13.91 -2.85,1.31 -5.91,0.05 -8.66,-0.85 3.13,-2.26 6.44,-4.32 9.19,-7.06 -3.47,1.45 -6.66,3.45 -9.88,5.37 0.08,-2.94 0.3,-6.21 2.68,-8.28 z"
           inkscape:connector-curvature="0"
           style="opacity:1;fill:#9eb63a" />
        <path
           id="path4184"
           d="m 105.35,47.53 c 3.03,-9.99 14.22,-14.19 23.72,-15.05 1.22,9.03 -1.76,18.83 -8.95,24.69 -3.52,2.93 -8.24,3.46 -12.66,3.17 2.95,-4.16 6.56,-7.92 8.75,-12.58 -3.77,2.95 -6.53,6.89 -9.83,10.31 -2.37,-2.64 -1.55,-7.22 -1.03,-10.54 z"
           inkscape:connector-curvature="0"
           style="opacity:1;fill:#9eb63a" />
        <path
           id="path4186"
           d="m 55.86,56.99 c -2.54,-7.56 0.1,-15.79 3.97,-22.41 7.7,3.91 13.49,11.66 14.32,20.34 0.4,4.45 -1.76,8.61 -4.68,11.81 -1.6,-4.65 -2.59,-9.54 -5.01,-13.86 0.42,4.85 1.8,9.54 2.8,14.29 -4.93,-1.71 -9.73,-4.99 -11.4,-10.17 z"
           inkscape:connector-curvature="0"
           style="opacity:1;fill:#9eb63a" />
        <path
           id="path4188"
           d="m 0.68,43.94 c 5.05,-0.77 10.74,-1.92 15.36,0.92 2.74,1.48 3.31,4.77 4.24,7.45 -3.14,-1.33 -6.3,-2.75 -9.7,-3.28 2.89,1.7 5.91,3.15 8.89,4.7 -2.23,1.31 -4.73,2.61 -7.4,1.85 C 6.47,54.16 2.55,49.21 0.68,43.94 Z"
           inkscape:connector-curvature="0"
           style="opacity:1;fill:#9eb63a" />
        <path
           id="path4190"
           d="m 26.55,50.95 c 9.66,-0.35 19.79,4.21 24.69,12.76 2.28,3.8 2.05,8.37 1.3,12.58 -3.88,-3.61 -7.43,-7.62 -11.88,-10.55 2.72,4.47 6.71,7.94 9.91,12.04 -5.89,1.07 -12.59,0.06 -16.84,-4.49 -5.47,-5.98 -7.34,-14.42 -7.18,-22.34 z"
           inkscape:connector-curvature="0"
           style="opacity:1;fill:#9eb63a" />
        <path
           id="path4192"
           d="m 131.09,57.97 c 4.25,-4.44 10.69,-5.39 16.54,-5.66 -0.85,6.95 -4.42,14.33 -11.16,17.21 -2.31,1.12 -4.78,0.09 -7.09,-0.42 3.05,-2.86 6.41,-5.46 8.87,-8.89 -3.46,2.23 -6.58,4.91 -9.84,7.41 0.12,-3.34 0.18,-7.11 2.68,-9.65 z"
           inkscape:connector-curvature="0"
           style="opacity:1;fill:#9eb63a" />
        <path
           id="path4194"
           d="m 158.75,54.82 c 6.11,-3.22 13.42,-1.58 19.25,1.49 l 0,0.49 c -2.88,5.21 -7.07,10.42 -13.07,12.01 -3.87,0.98 -7.33,-1.4 -10.45,-3.32 4.11,-1.67 8.29,-3.22 12.12,-5.48 -4.51,0.32 -8.84,1.63 -13.18,2.81 1.1,-3 2.19,-6.52 5.33,-8 z"
           inkscape:connector-curvature="0"
           style="opacity:1;fill:#9eb63a" />
        <path
           id="path4196"
           d="m 0,71.35 c 3.89,-3.5 7.39,-8.5 13.08,-8.88 3.36,-0.48 6.02,1.88 8.49,3.77 -3.77,1.14 -7.55,2.3 -11.12,3.98 4.03,-0.13 8,-0.85 11.97,-1.52 -1.36,2.68 -2.68,5.82 -5.74,6.95 -5.65,1.2 -11.82,0.5 -16.68,-2.8 l 0,-1.5 z"
           inkscape:connector-curvature="0"
           style="opacity:1;fill:#9eb63a" />
        <path
           id="path4198"
           d="m 126.35,79.28 c 7.17,-3.55 16.05,-2.57 22.85,1.4 -4.63,5.86 -10.48,11.69 -18.15,12.97 -4.01,0.72 -7.69,-1.44 -10.55,-4.03 4.65,-1.67 9.71,-2.39 13.93,-5.13 -4.94,0.56 -9.67,2.13 -14.53,3.08 1.32,-3.27 3.06,-6.75 6.45,-8.29 z"
           inkscape:connector-curvature="0"
           style="opacity:1;fill:#9eb63a" />
        <path
           id="path4200"
           d="m 156.04,81.64 c 2.11,-2.21 4.62,-4.7 7.96,-4.4 5.78,0.28 10.25,4.62 13.83,8.74 -4.84,3.46 -11.35,5.97 -17.12,3.28 -2.58,-1.02 -3.76,-3.67 -5,-5.93 3.81,0.36 7.61,1.03 11.46,1.04 -3.53,-1.53 -7.35,-2.19 -11.13,-2.73 z"
           inkscape:connector-curvature="0"
           style="opacity:1;fill:#9eb63a" />
        <path
           id="path4202"
           d="m 32.43,83.36 c 8.61,1.13 18.16,3.19 23.95,10.23 2.96,3.46 2.7,8.25 2.15,12.48 -4.38,-3.89 -8.6,-8.03 -13.61,-11.11 3.35,4.74 7.91,8.41 11.93,12.55 -4.26,1.51 -9.02,1.01 -12.77,-1.54 C 36.77,100.94 32.73,92.1 32.43,83.36 Z"
           inkscape:connector-curvature="0"
           style="opacity:1;fill:#9eb63a" />
        <path
           id="path4204"
           d="m 4.82,94.28 c 4.12,-4.46 9.79,-8.35 16.18,-7.45 3.28,0.17 5.49,2.79 7.26,5.25 -3.94,0.4 -7.91,0.71 -11.8,1.51 3.95,0.54 7.93,0.46 11.9,0.37 -1.61,2.5 -3.29,5.45 -6.45,6.13 -6.27,1.2 -12.37,-1.93 -17.09,-5.81 z"
           inkscape:connector-curvature="0"
           style="opacity:1;fill:#9eb63a" />
        <path
           id="path4206"
           d="m 138.6,101.49 c 3.57,-3.26 8.65,-5.15 13.39,-3.44 7.44,2.68 12.11,9.67 15.68,16.34 -7.55,4.06 -17.53,4.62 -24.83,-0.28 -3.53,-2.33 -4.74,-6.59 -5.38,-10.53 5.2,1.84 10.29,4.1 15.72,5.23 -4.41,-3.26 -9.65,-5.03 -14.58,-7.32 z"
           inkscape:connector-curvature="0"
           style="opacity:1;fill:#9eb63a" />
        <path
           id="path4208"
           d="m 20.73,115.59 c 4.01,-3.37 8.72,-6.94 14.25,-6.5 2.83,0.29 4.72,2.58 6.59,4.46 -3.4,0.35 -6.83,0.67 -10.1,1.7 3.43,0.25 6.87,0.04 10.3,-0.08 -1.4,2.09 -2.84,4.46 -5.44,5.17 -5.55,1.62 -11.65,-0.72 -15.6,-4.75 z"
           inkscape:connector-curvature="0"
           style="opacity:1;fill:#9eb63a" />
        <path
           id="path4210"
           d="m 122.08,119.38 c 3.55,-1.99 7.74,-3.68 11.84,-2.4 6.18,1.91 10.21,7.53 12.84,13.13 -6.51,3.18 -14.8,3.39 -20.82,-1 -2.71,-1.77 -3.72,-4.98 -4.74,-7.87 3.7,1.09 7.32,2.47 11.09,3.31 -3.16,-2.17 -6.79,-3.47 -10.21,-5.17 z"
           inkscape:connector-curvature="0"
           style="opacity:1;fill:#9eb63a" />
        <path
           id="path4212"
           d="m 45.56,131.37 c 2.29,-5.49 6.38,-10.76 12.4,-12.29 3.27,-1.13 6.35,0.84 9.09,2.38 -3.53,1.78 -7.3,3.17 -10.46,5.6 3.87,-0.88 7.52,-2.47 11.2,-3.91 -0.69,3.32 -1.78,7.04 -5.08,8.65 -5.38,2.6 -11.74,1.53 -17.15,-0.43 z"
           inkscape:connector-curvature="0"
           style="opacity:1;fill:#9eb63a" />
      </g>
      <g
         id="#9b9188ff">
        <path
           id="path4215"
           d="m 92.45,59.51 c 0.14,-2.96 3.52,-2.73 5.65,-2.95 1.74,4.97 0.58,10.26 0.75,15.39 0.21,7.16 -0.61,14.43 0.98,21.48 1.27,-1.7 2.35,-3.53 3.1,-5.51 2.75,-7.16 6.87,-13.7 9.56,-20.88 1.78,-0.62 4.75,-1.64 5.31,1.04 -0.04,3.96 -2.09,7.58 -3.16,11.33 -1.85,5.89 -3.65,11.79 -5.49,17.68 -1.62,4.8 -0.61,10.12 2.22,14.24 3.95,-2.68 6.06,-7.4 10.32,-9.64 3.41,-1.04 7.37,-0.95 10.34,1.23 -3.65,4.14 -9.19,6.27 -12.12,11.09 -3.31,5.23 -4.88,11.39 -8.54,16.42 -1.66,2.5 -4.09,4.31 -6.02,6.57 -1.18,7.96 -1.31,16.29 0.99,24.06 -8.86,-0.02 -17.71,0 -26.56,-0.01 1.74,-7.23 1.83,-14.74 1.32,-22.13 -1.02,-2.72 -3.19,-4.81 -4.58,-7.33 -3.35,-5.59 -4.15,-12.16 -5.14,-18.46 -1.85,-10.3 -4.78,-20.47 -9.67,-29.76 -1.42,-1.9 -0.36,-3.74 0.91,-5.33 1.78,0.92 3.8,1.75 4.68,3.71 3.57,5.22 5.62,12 11.4,15.3 -0.92,-10.03 -3.03,-19.98 -3.17,-30.07 -0.38,-2.63 4.03,-4.46 4.98,-1.69 2.74,8.99 4.25,18.37 7.61,27.16 1.62,-0.09 1.19,-2.26 1.66,-3.31 1.47,-9.82 1.3,-19.81 2.67,-29.63 z"
           inkscape:connector-curvature="0"
           style="opacity:1;fill:#9b9188" />
      </g>
      <g
         id="#242f3cff">
        <path
           id="path4218"
           d="m 14.33,173 c 3.04,0.18 7.68,-1.04 9.1,2.61 0.89,4.89 0.23,9.92 0.41,14.87 1.94,-0.14 3.94,-0.07 5.84,-0.61 3.58,-5.38 6.12,-11.38 9.4,-16.95 3.4,-0.02 6.8,0.01 10.2,0.1 -3.68,7.16 -7.4,14.32 -11.7,21.13 4.18,7.54 7.89,15.32 11.73,23.04 -3.59,-0.16 -7.92,0.98 -10.9,-1.58 -3.56,-4.72 -5.14,-10.61 -8.33,-15.57 -1.22,-2.24 -4.17,-1.1 -6.22,-1.48 -0.06,6.21 -0.03,12.42 -0.02,18.63 -3.18,0.06 -6.36,0.02 -9.54,-0.11 0.15,-14.69 0.1,-29.39 0.03,-44.08 z"
           inkscape:connector-curvature="0"
           style="opacity:1;fill:#242f3c" />
        <path
           id="path4220"
           d="m 52.77,172.83 c 3.02,0.34 7.13,-0.71 9.07,2.31 0.91,5.2 0.25,10.51 0.39,15.76 4.68,0.02 9.37,0.03 14.06,0.01 0.29,-5.14 -0.32,-10.34 0.37,-15.45 1.7,-3.39 6.08,-2.35 9.16,-2.5 0.02,14.74 0,29.48 0.02,44.22 -3.19,0.08 -6.37,0.05 -9.55,-0.07 0.11,-5.94 0.27,-11.9 -0.15,-17.84 -4.63,0.06 -9.26,0.1 -13.89,0.05 0,5.97 0.03,11.94 -0.03,17.9 -3.14,0.02 -6.28,0.03 -9.42,0.02 -0.12,-14.8 -0.05,-29.61 -0.03,-44.41 z"
           inkscape:connector-curvature="0"
           style="opacity:1;fill:#242f3c" />
        <path
           id="path4222"
           d="m 104.26,173.04 c 3.17,-0.11 6.34,-0.11 9.51,-0.02 5.13,14.79 10.78,29.4 15.77,44.24 -3.16,-0.19 -6.77,0.66 -9.58,-1.14 -2.39,-2.73 -3.05,-6.49 -4.34,-9.79 -4.43,0 -8.86,0 -13.29,0.01 -1.23,3.3 -1.87,7 -4.18,9.76 -2.86,1.94 -6.62,0.92 -9.86,1.07 5.38,-14.69 10.79,-29.37 15.97,-44.13 m 0.61,25.07 c 2.75,0.01 5.5,0.02 8.25,0.03 -1.16,-4.07 -2.53,-8.08 -4.12,-12 -1.55,3.93 -2.92,7.93 -4.13,11.97 z"
           inkscape:connector-curvature="0"
           style="opacity:1;fill:#242f3c" />
        <path
           id="path4224"
           d="m 132.29,173.08 c 2.99,0.11 6.5,-0.91 9.18,0.5 5.52,8 9.91,16.77 15.41,24.81 0.42,-6.47 -0.1,-12.95 0.11,-19.42 0.16,-1.96 0.18,-4.63 2.32,-5.54 2.3,-0.65 4.73,-0.49 7.09,-0.63 0.14,14.81 0.13,29.62 0.02,44.43 -2.99,-0.12 -6.21,0.59 -9.03,-0.56 -5.65,-7.86 -9.69,-16.8 -15.54,-24.54 -0.59,7.45 0.4,14.97 -0.49,22.39 -1.36,3.66 -6.04,2.53 -9.08,2.69 0.07,-14.71 0.05,-29.42 0.01,-44.13 z"
           inkscape:connector-curvature="0"
           style="opacity:1;fill:#242f3c" />
        <path
           id="path4226"
           d="m 13.66,225.47 c 4.75,-0.5 9.53,-0.39 14.29,-0.36 40.01,0 80.02,0.01 120.02,0 6.44,0.1 12.9,-0.25 19.32,0.34 -5.75,0.75 -11.56,0.36 -17.34,0.4 -39.99,0.01 -79.98,0 -119.98,0 -5.43,-0.09 -10.89,0.34 -16.31,-0.38 z"
           inkscape:connector-curvature="0"
           style="opacity:1;fill:#242f3c" />
        <path
           id="path4228"
           d="m 11.93,250 c 2.3,-5.51 3.99,-11.28 6.88,-16.54 2.63,5.35 4.34,11.07 6.67,16.54 l -1.73,0 c -0.76,-1.6 -1.44,-3.24 -2.13,-4.86 -1.99,0.06 -3.98,0.13 -5.97,0.21 -0.66,1.56 -1.31,3.12 -2.04,4.65 l -1.68,0 m 6.63,-13.16 c -0.82,2.31 -1.61,4.63 -2.37,6.96 1.66,-0.02 3.33,-0.04 4.99,-0.06 -0.84,-2.31 -1.7,-4.62 -2.62,-6.9 z"
           inkscape:connector-curvature="0"
           style="opacity:1;fill:#242f3c" />
        <path
           id="path4230"
           d="m 35.3,241.99 c -0.19,-4.59 4.13,-8.66 8.74,-7.77 2.92,-0.01 4.28,2.85 5.78,4.87 -2.74,-1.27 -5.39,-4.12 -8.65,-3.15 -5.16,1.38 -5.58,9.53 -1,11.89 2.88,1.61 6.16,-0.16 9.13,-0.64 -1.21,0.95 -2.41,1.9 -3.65,2.81 l -5.49,0 c -2.63,-1.85 -5.12,-4.56 -4.86,-8.01 z"
           inkscape:connector-curvature="0"
           style="opacity:1;fill:#242f3c" />
        <path
           id="path4232"
           d="m 130.28,235.13 c 0.37,-0.25 1.12,-0.76 1.49,-1.01 1.61,3.51 3.23,7.02 4.86,10.52 1.95,-3.73 3.93,-7.43 5.83,-11.18 1.35,5.42 1.79,10.99 2.23,16.54 l -1.77,0 c -0.39,-3.85 -0.75,-7.71 -1.09,-11.56 -1.6,3.17 -3.23,6.33 -4.94,9.44 -1.78,-3.1 -3.48,-6.26 -5.13,-9.44 -0.32,3.85 -0.64,7.7 -0.94,11.56 l -1.71,0 c 0.45,-4.95 0.84,-9.91 1.17,-14.87 z"
           inkscape:connector-curvature="0"
           style="opacity:1;fill:#242f3c" />
        <path
           id="path4234"
           d="m 154.88,235.68 c 0.17,-0.41 0.53,-1.22 0.71,-1.63 1.69,2.44 3.37,4.89 5.05,7.34 1.55,-2.46 3.09,-4.92 4.62,-7.39 0.23,0.41 0.69,1.22 0.93,1.63 -3.25,4.13 -5.51,8.99 -5.17,14.37 l -1,0 c 0.41,-5.37 -1.95,-10.19 -5.14,-14.32 z"
           inkscape:connector-curvature="0"
           style="opacity:1;fill:#242f3c" />
        <path
           id="path4236"
           d="m 59.29,250 c 2.2,-5.48 3.88,-11.18 6.67,-16.41 2.86,5.19 4.51,10.9 6.63,16.41 l -1.44,0 c -0.88,-1.57 -1.66,-3.19 -2.45,-4.81 -1.83,-0.01 -3.66,-0.02 -5.5,-0.02 -0.81,1.62 -1.61,3.25 -2.5,4.83 l -1.41,0 m 4.06,-6.56 c 1.66,0.16 3.31,0.3 4.97,0.46 -0.72,-2.27 -1.46,-4.53 -2.23,-6.78 -0.93,2.1 -1.84,4.21 -2.74,6.32 z"
           inkscape:connector-curvature="0"
           style="opacity:1;fill:#242f3c" />
        <path
           id="path4238"
           d="m 83.46,250 c -0.18,-5.26 -0.09,-10.52 0.08,-15.78 3.7,0.52 8.55,-0.23 10.97,3.3 2.92,4.24 1.1,10.42 -3.62,12.48 l -7.43,0 m 1.53,-14.1 c -0.1,4.35 -0.06,8.7 0.13,13.05 2.15,-0.34 4.5,-0.22 6.46,-1.32 3.13,-2 3.37,-6.69 1.33,-9.54 -1.85,-2.45 -5.26,-1.8 -7.92,-2.19 z"
           inkscape:connector-curvature="0"
           style="opacity:1;fill:#242f3c" />
        <path
           id="path4240"
           d="m 108.63,234.38 c 3.16,0.01 6.32,0.31 9.39,1.1 -2.66,0.34 -5.33,0.6 -8,0.84 0.06,1.63 0.11,3.27 0.16,4.91 2.16,0.46 4.33,0.88 6.52,1.22 -2.23,0.27 -4.45,0.57 -6.67,0.89 0.05,1.65 0.09,3.31 0.14,4.98 2.98,0.39 5.93,0.96 8.85,1.68 l -10.36,0 c -0.12,-5.21 -0.12,-10.41 -0.03,-15.62 z"
           inkscape:connector-curvature="0"
           style="opacity:1;fill:#242f3c" />
      </g>
    </g>
  </g>
</svg>
