<?xml version="1.0" encoding="UTF-8" standalone="no"?>
<!-- Created with Inkscape (http://www.inkscape.org/) -->

<svg
   xmlns:dc="http://purl.org/dc/elements/1.1/"
   xmlns:cc="http://creativecommons.org/ns#"
   xmlns:rdf="http://www.w3.org/1999/02/22-rdf-syntax-ns#"
   xmlns:svg="http://www.w3.org/2000/svg"
   xmlns="http://www.w3.org/2000/svg"
   xmlns:sodipodi="http://sodipodi.sourceforge.net/DTD/sodipodi-0.dtd"
   xmlns:inkscape="http://www.inkscape.org/namespaces/inkscape"
   width="145.897"
   height="50"
   viewBox="0 0 145.897 49.999996"
   id="svg7605"
   version="1.1"
   inkscape:version="0.91 r13725"
   sodipodi:docname="last.fm.svg"
   inkscape:export-filename="C:\Users\10000_000\Desktop\twitter.png"
   inkscape:export-xdpi="90"
   inkscape:export-ydpi="90">
  <defs
     id="defs7607">
    <marker
       inkscape:stockid="Arrow1Lstart"
       orient="auto"
       refY="0"
       refX="0"
       id="Arrow1Lstart"
       style="overflow:visible"
       inkscape:isstock="true">
      <path
         id="path4254"
         d="M 0,0 5,-5 -12.5,0 5,5 0,0 Z"
         style="fill-rule:evenodd;stroke:#000000;stroke-width:1pt"
         transform="matrix(0.8,0,0,0.8,10,0)"
         inkscape:connector-curvature="0" />
    </marker>
  </defs>
  <sodipodi:namedview
     id="base"
     pagecolor="#ffffff"
     bordercolor="#666666"
     borderopacity="1.0"
     inkscape:pageopacity="0.0"
     inkscape:pageshadow="2"
     inkscape:zoom="4"
     inkscape:cx="57.451023"
     inkscape:cy="24.425483"
     inkscape:document-units="px"
     inkscape:current-layer="layer1"
     showgrid="true"
     showguides="false"
     inkscape:snap-page="false"
     inkscape:snap-grids="true"
     inkscape:snap-to-guides="true"
     inkscape:window-width="1366"
     inkscape:window-height="705"
     inkscape:window-x="-8"
     inkscape:window-y="-8"
     inkscape:window-maximized="1"
     units="px">
    <inkscape:grid
       type="xygrid"
       id="grid8437" />
  </sodipodi:namedview>
  <metadata
     id="metadata7610">
    <rdf:RDF>
      <cc:Work
         rdf:about="">
        <dc:format>image/svg+xml</dc:format>
        <dc:type
           rdf:resource="http://purl.org/dc/dcmitype/StillImage" />
        <dc:title></dc:title>
      </cc:Work>
    </rdf:RDF>
  </metadata>
  <g
     inkscape:label="Layer 1"
     inkscape:groupmode="layer"
     id="layer1"
     transform="translate(0,-1002.3622)">
    <rect
       style="color:#000000;clip-rule:nonzero;display:inline;overflow:visible;visibility:visible;opacity:1;isolation:auto;mix-blend-mode:normal;color-interpolation:sRGB;color-interpolation-filters:linearRGB;solid-color:#000000;solid-opacity:1;fill:#eeeeee;fill-opacity:1;fill-rule:nonzero;stroke:none;stroke-width:1;stroke-linecap:butt;stroke-linejoin:miter;stroke-miterlimit:4;stroke-dasharray:none;stroke-dashoffset:0;stroke-opacity:1;color-rendering:auto;image-rendering:auto;shape-rendering:auto;text-rendering:auto;enable-background:accumulate"
       id="rect7613"
       width="145.897"
       height="50"
       x="4.7924073e-007"
       y="1002.3622" />
    <g
       id="layer1-3"
       transform="matrix(0.06,0,0,0.06,10,979.22047)">
      <g
         id="layer1-9-7"
         transform="translate(-549.00515,80.294372)" />
      <g
         id="layer1-6-2"
         transform="translate(-575.71429,39.999999)" />
      <g
         id="layer1-5"
         transform="matrix(1.0016514,0,0,1.0016514,-45.347903,14.073528)" />
      <path
         inkscape:connector-curvature="0"
         d="m 0,552.3622 0,500 500,0 0,-500 z"
         id="rect2989-1-5"
         style="fill:#d12127;fill-opacity:1;stroke:none" />
      <path
         inkscape:connector-curvature="0"
         d="M 500,500 250.01276,500 84.247451,334.23469 77.142857,211.42857 128.57143,163.57143 254.62458,163.05399 316.67815,225.10756 346.42857,152.5 414.528,149.40058 500,234.87258 Z"
         id="path3036"
         style="opacity:0.3;fill:#000000;stroke:none;stroke-width:1px;stroke-linecap:butt;stroke-linejoin:miter;stroke-opacity:1"
         transform="translate(0,552.36218)" />
      <path
         inkscape:connector-curvature="0"
         d="M 170.3125,129.65625 C 103.97606,129.65625 50,183.67037 50,250.03125 c 0,66.32827 53.97606,120.28125 120.3125,120.28125 36.18203,0 70.0937,-16.02043 93.03125,-44 0.66792,-0.81457 0.85291,-1.92881 0.4375,-2.90625 l -15.1875,-34.96875 c -0.43171,-0.9693 -1.40172,-1.60727 -2.46875,-1.65625 -1.09964,-0.0489 -2.07378,0.55514 -2.5625,1.5 -14.31968,27.36053 -42.41005,44.3125 -73.28125,44.3125 -45.52486,0 -82.53125,-37.01322 -82.53125,-82.5625 0,-45.5493 37.0064,-82.5625 82.53125,-82.5625 33.14378,0 63.53036,19.65198 75.59375,49 l 37.5,85.5625 4.3125,9.59375 c 16.95881,39.50539 41.91276,57.22838 80.9375,57.375 46.40462,0 81.375,-30.74023 81.375,-71.5 0,-40.95525 -22.64515,-56.34614 -61.71875,-69.09375 -3.50247,-1.1485 -6.89812,-2.18427 -10.15625,-3.21875 -24.90061,-7.82777 -39.875,-12.55951 -39.875,-31.9375 0,-15.72068 12.08995,-27.125 28.8125,-27.125 12.80459,0 22.3767,5.33057 30.9375,17.3125 0.79833,1.11593 2.28492,1.53478 3.53125,0.875 l 25.125,-12.84375 c 0.6842,-0.33397 1.19454,-0.95441 1.40625,-1.6875 0.21998,-0.73309 0.16409,-1.51958 -0.21875,-2.1875 C 414.38748,143.67874 394.97267,132.0625 368.5,132.0625 c -40.27924,0 -66.34375,24.34911 -66.34375,62.0625 0,38.56048 25.1715,54.17975 71.625,69.46875 26.92056,8.97626 38.8125,13.72509 38.8125,32.875 0,21.52837 -19.36968,36.99784 -45.875,36.09375 -27.75959,-0.93676 -36.20034,-15.64764 -46.78125,-39.75 C 302.04198,251.98757 281.69547,204.3393 281.5,203.875 261.05494,156.71293 220.52912,129.65625 170.3125,129.65625 Z"
         id="rect2989-4"
         style="fill:#ffffff;fill-opacity:1;stroke:none"
         transform="translate(0,552.36218)" />
    </g>
    <path
       style="font-style:normal;font-weight:normal;font-size:256.53445435px;line-height:125%;font-family:sans-serif;letter-spacing:0px;word-spacing:0px;fill:#3a4750;fill-opacity:1;stroke:none;stroke-width:1px;stroke-linecap:butt;stroke-linejoin:miter;stroke-opacity:1;marker-end:"
       d="m 93.663084,1020.0404 c 0,0.9228 0,1.8456 0,2.7684 -0.595306,0 -1.19061,0 -1.785916,0 0,0.8331 0,1.6663 0,2.4994 0.595306,0 1.19061,0 1.785916,0 0,3.1252 0,6.2503 0,9.3755 2.351058,0 4.702116,0 7.053176,0 0,-0.8034 0,-1.6067 0,-2.41 -1.488209,0 -2.976416,0 -4.464622,0 0,-2.3218 0,-4.6437 0,-6.9655 1.517966,0 3.035932,0 4.553902,0 0,-0.8331 0,-1.6663 0,-2.4994 -1.51797,0 -3.035936,0 -4.553902,0 0,-0.9822 0,-1.9644 0,-2.9466 -0.862851,0 -1.725702,0 -2.588554,0 l 0,0.089 0,0.089 z M 50,1020.219 c 0,4.8513 0,9.7026 0,14.554 3.869023,0 7.738047,0 11.60707,0 0,-0.8034 0,-1.6067 0,-2.41 -2.946595,0 -5.893191,0 -8.839786,0 0,-4.1074 0,-8.2148 0,-12.3222 -0.922428,0 -1.844856,0 -2.767284,0 l 0,0.089 0,0.089 z m 62.414,0 c 0,1.5478 0,3.0957 0,4.6435 -0.83338,0 -1.66676,0 -2.50015,0 0,0.7736 0,1.5472 0,2.3207 0.83339,0 1.66677,0 2.50015,0 0,2.5299 0,5.0599 0,7.5898 0.89267,0 1.78534,0 2.678,0 0,-2.5299 0,-5.0599 0,-7.5898 1.25008,0 2.50015,0 3.75022,0 0,-0.7735 0,-1.5471 0,-2.3207 -1.25007,0 -2.50014,0 -3.75022,0 0,-0.8336 0,-1.6672 0,-2.5008 1.25008,0 2.50015,0 3.75022,0 0,-0.7736 0,-1.5473 0,-2.3209 -2.14274,0 -4.28548,0 -6.42822,0 l 0,0.089 0,0.089 z m -45.538108,2.768 c 0,0.7737 0,1.5475 0,2.3212 1.875079,0 3.750159,0 5.625239,0 0,0.7741 0,1.5482 0,2.3223 -2.79774,0 -5.595479,0 -8.39322,0 0,2.4106 0,4.8212 0,7.2317 3.690408,0 7.380817,0 11.071226,0 0,-4.0178 0,-8.0356 0,-12.0534 -2.767749,0 -5.535497,0 -8.303245,0 l 0,0.089 0,0.089 z m 11.339931,0 c 0,2.2917 0,4.5834 0,6.8751 2.946595,0 5.89319,0 8.839786,0 0,0.8634 0,1.7268 0,2.5901 -2.946596,0 -5.893191,0 -8.839786,0 0,0.7736 0,1.5472 0,2.3208 3.839205,0 7.678411,0 11.517617,0 0,-2.4106 0,-4.8212 0,-7.2318 -2.976296,0 -5.952594,0 -8.92889,0 0,-0.8038 0,-1.6077 0,-2.4115 2.946537,0 5.893074,0 8.839612,0 0,-0.7737 0,-1.5473 0,-2.3209 -3.809447,0 -7.618893,0 -11.428339,0 l 0,0.089 0,0.089 z m 42.323557,0 c 0,3.9286 0,7.8573 0,11.786 0.86291,0 1.72582,0 2.58873,0 0,-3.1847 0,-6.3694 0,-9.5541 1.28006,0 2.56013,0 3.84019,0 0,3.1847 0,6.3694 0,9.5541 0.83315,0 1.6663,0 2.49945,0 0,-3.1847 0,-6.3694 0,-9.5541 1.28006,0 2.56013,0 3.84019,0 0,3.1847 0,6.3694 0,9.5541 0.86291,0 1.72582,0 2.58873,0 0,-3.9881 0,-7.9762 0,-11.9642 -5.1191,0 -10.23819,0 -15.35729,0 l 0,0.089 0,0.089 z m -48.038249,7.0537 c 0,0.7741 0,1.5482 0,2.3223 -1.934831,0 -3.869661,0 -5.804493,0 0,-0.7741 0,-1.5482 0,-2.3223 1.934832,0 3.869662,0 5.804493,0 z m 31.430369,1.429 c 0,1.0415 0,2.0831 0,3.1247 1.13074,0 2.26149,0 3.39223,0 0,-1.101 0,-2.202 0,-3.303 -1.13074,0 -2.26149,0 -3.39223,0 l 0,0.089 0,0.089 z"
       id="text4169"
       inkscape:connector-curvature="0" />
  </g>
</svg>
