<?xml version="1.0" encoding="UTF-8" standalone="no"?>
<!-- Created with Inkscape (http://www.inkscape.org/) -->

<svg
   xmlns:dc="http://purl.org/dc/elements/1.1/"
   xmlns:cc="http://creativecommons.org/ns#"
   xmlns:rdf="http://www.w3.org/1999/02/22-rdf-syntax-ns#"
   xmlns:svg="http://www.w3.org/2000/svg"
   xmlns="http://www.w3.org/2000/svg"
   xmlns:sodipodi="http://sodipodi.sourceforge.net/DTD/sodipodi-0.dtd"
   xmlns:inkscape="http://www.inkscape.org/namespaces/inkscape"
   width="86.327003"
   height="50"
   viewBox="0 0 86.327001 49.999996"
   id="svg7605"
   version="1.1"
   inkscape:version="0.91 r13725"
   sodipodi:docname="qq.svg"
   inkscape:export-filename="C:\Users\10000_000\Desktop\twitter.png"
   inkscape:export-xdpi="90"
   inkscape:export-ydpi="90">
  <defs
     id="defs7607">
    <marker
       inkscape:stockid="Arrow1Lstart"
       orient="auto"
       refY="0"
       refX="0"
       id="Arrow1Lstart"
       style="overflow:visible"
       inkscape:isstock="true">
      <path
         id="path4254"
         d="M 0,0 5,-5 -12.5,0 5,5 0,0 Z"
         style="fill-rule:evenodd;stroke:#000000;stroke-width:1pt"
         transform="matrix(0.8,0,0,0.8,10,0)"
         inkscape:connector-curvature="0" />
    </marker>
  </defs>
  <sodipodi:namedview
     id="base"
     pagecolor="#ffffff"
     bordercolor="#666666"
     borderopacity="1.0"
     inkscape:pageopacity="0.0"
     inkscape:pageshadow="2"
     inkscape:zoom="4"
     inkscape:cx="56.461295"
     inkscape:cy="19.120655"
     inkscape:document-units="px"
     inkscape:current-layer="layer1"
     showgrid="true"
     showguides="false"
     inkscape:snap-page="false"
     inkscape:snap-grids="true"
     inkscape:snap-to-guides="true"
     inkscape:window-width="1366"
     inkscape:window-height="705"
     inkscape:window-x="-8"
     inkscape:window-y="-8"
     inkscape:window-maximized="1"
     units="px">
    <inkscape:grid
       type="xygrid"
       id="grid8437" />
  </sodipodi:namedview>
  <metadata
     id="metadata7610">
    <rdf:RDF>
      <cc:Work
         rdf:about="">
        <dc:format>image/svg+xml</dc:format>
        <dc:type
           rdf:resource="http://purl.org/dc/dcmitype/StillImage" />
        <dc:title></dc:title>
      </cc:Work>
    </rdf:RDF>
  </metadata>
  <g
     inkscape:label="Layer 1"
     inkscape:groupmode="layer"
     id="layer1"
     transform="translate(0,-1002.3622)">
    <rect
       style="color:#000000;clip-rule:nonzero;display:inline;overflow:visible;visibility:visible;opacity:1;isolation:auto;mix-blend-mode:normal;color-interpolation:sRGB;color-interpolation-filters:linearRGB;solid-color:#000000;solid-opacity:1;fill:#eeeeee;fill-opacity:1;fill-rule:nonzero;stroke:none;stroke-width:1;stroke-linecap:butt;stroke-linejoin:miter;stroke-miterlimit:4;stroke-dasharray:none;stroke-dashoffset:0;stroke-opacity:1;color-rendering:auto;image-rendering:auto;shape-rendering:auto;text-rendering:auto;enable-background:accumulate"
       id="rect7613"
       width="86.327003"
       height="50"
       x="4.7924073e-007"
       y="1002.3622" />
    <path
       style="font-style:normal;font-variant:normal;font-weight:normal;font-stretch:normal;font-size:742.47735596px;line-height:125%;font-family:ZHSRXT2011-GB;-inkscape-font-specification:ZHSRXT2011-GB;letter-spacing:0px;word-spacing:0px;fill:#3a4750;fill-opacity:1;stroke:none;stroke-width:0.5;stroke-linecap:butt;stroke-linejoin:miter;stroke-miterlimit:4;stroke-dasharray:none;stroke-opacity:1;marker-end:"
       d="m 50,1019.9168 c 0,4.401 0,8.8019 0,13.2029 1.880011,0 3.760023,0 5.640035,0 0.211204,0.5808 0.422418,1.1617 0.633616,1.7425 0.697695,0 1.39539,0 2.093084,0 -0.18476,-0.5809 -0.369612,-1.1617 -0.554408,-1.7425 1.287005,0 2.574009,0 3.861013,0 0,-4.4192 0,-8.8383 0,-13.2575 -3.891114,0 -7.782227,0 -11.67334,0 l 0,0.027 0,0.027 z m 14.653188,0 c 0,4.401 0,8.8019 0,13.2029 1.879994,0 3.759988,0 5.639981,0 0.211222,0.5808 0.422456,1.1617 0.63367,1.7425 0.697695,0 1.395389,0 2.093084,0 -0.184773,-0.5809 -0.369648,-1.1617 -0.554461,-1.7425 1.287022,0 2.574044,0 3.861065,0 0,-4.4192 0,-8.8383 0,-13.2575 -3.891113,0 -7.782226,0 -11.673339,0 l 0,0.027 0,0.027 z m -5.148407,1.9556 c 0,3.1054 0,6.2108 0,9.3163 -2.44539,0 -4.890779,0 -7.336169,0 0,-3.1055 0,-6.2109 0,-9.3163 2.44539,0 4.890779,0 7.336169,0 z m 14.653134,0 c 0,3.1054 0,6.2108 0,9.3163 -2.445389,0 -4.890779,0 -7.336168,0 0,-3.1055 0,-6.2109 0,-9.3163 2.445389,0 4.890779,0 7.336168,0 z"
       id="text4147"
       inkscape:connector-curvature="0" />
    <flowRoot
       xml:space="preserve"
       id="flowRoot4151"
       style="font-style:normal;font-weight:normal;font-size:40px;line-height:125%;font-family:sans-serif;letter-spacing:0px;word-spacing:0px;fill:#000000;fill-opacity:1;stroke:none;stroke-width:1px;stroke-linecap:butt;stroke-linejoin:miter;stroke-opacity:1"
       transform="translate(0,1002.3622)"><flowRegion
         id="flowRegion4153"><rect
           id="rect4155"
           width="2.5"
           height="57"
           x="-12.5"
           y="100" /></flowRegion><flowPara
         id="flowPara4157"></flowPara></flowRoot>    <g
       id="Shape_1_1_"
       style="enable-background:new"
       transform="matrix(0.17171594,0,0,0.15629609,3.1003799,1007.2782)">
      <g
         id="Shape_1">
        <g
           id="g12">
          <path
             d="m 214.885,158.731 c -0.119,-12.758 -4.868,-19.68 -10.316,-28.706 -2.455,-3.77 -5.289,-6.295 -7.742,-10.064 -0.382,-2.043 0.416,-3.574 -0.154,-8.944 -0.547,-8.051 -3.371,-11.171 -3.966,-12.157 0.255,-2.141 -0.563,-19.787 -6.694,-30.226 C 167.312,33.821 131.89,32.551 127.555,32.528 l -0.042,0 c -4.335,0.023 -39.757,1.294 -58.457,36.106 -6.132,10.438 -6.95,28.085 -6.695,30.226 -0.595,0.986 -3.419,4.106 -3.965,12.157 -0.57,5.37 0.228,6.901 -0.154,8.944 -2.454,3.77 -5.289,6.295 -7.743,10.064 -5.449,9.026 -10.198,15.948 -10.316,28.706 -0.088,9.511 2.071,22.484 8.483,22.662 2.019,-0.167 3.743,-1.563 7.249,-5.654 1.047,-1.231 4.738,-6.4 5.484,-7.834 0.72,1.979 2.424,15.78 14.338,22.969 -12.239,6 -18.227,9.795 -18.437,17.582 0.256,4.505 5.42,10.494 14.917,13.285 11.962,3.483 25.877,3.561 37.459,0.649 6.848,-1.721 8.909,-3.445 17.858,-8.572 8.95,5.127 11.01,6.852 17.858,8.572 11.582,2.911 25.496,2.834 37.459,-0.649 9.496,-2.791 14.66,-8.78 14.916,-13.285 -0.209,-7.787 -6.197,-11.582 -18.436,-17.582 11.913,-7.188 13.617,-20.989 14.337,-22.969 0.747,1.434 4.438,6.603 5.484,7.834 3.507,4.092 5.23,5.487 7.249,5.654 6.412,-0.177 8.572,-13.151 8.484,-22.662 z"
             style="clip-rule:evenodd;fill:#457dca;fill-rule:evenodd"
             id="path14"
             inkscape:connector-curvature="0" />
        </g>
      </g>
    </g>
  </g>
</svg>
