<?xml version="1.0" encoding="UTF-8" standalone="no"?>
<!-- Created with Inkscape (http://www.inkscape.org/) -->

<svg
   xmlns:dc="http://purl.org/dc/elements/1.1/"
   xmlns:cc="http://creativecommons.org/ns#"
   xmlns:rdf="http://www.w3.org/1999/02/22-rdf-syntax-ns#"
   xmlns:svg="http://www.w3.org/2000/svg"
   xmlns="http://www.w3.org/2000/svg"
   xmlns:sodipodi="http://sodipodi.sourceforge.net/DTD/sodipodi-0.dtd"
   xmlns:inkscape="http://www.inkscape.org/namespaces/inkscape"
   width="133.864"
   height="50"
   viewBox="0 0 133.86399 49.999996"
   id="svg7605"
   version="1.1"
   inkscape:version="0.91 r13725"
   sodipodi:docname="reddit.svg"
   inkscape:export-filename="C:\Users\10000_000\Desktop\twitter.png"
   inkscape:export-xdpi="90"
   inkscape:export-ydpi="90">
  <defs
     id="defs7607">
    <marker
       inkscape:stockid="Arrow1Lstart"
       orient="auto"
       refY="0"
       refX="0"
       id="Arrow1Lstart"
       style="overflow:visible"
       inkscape:isstock="true">
      <path
         id="path4254"
         d="M 0,0 5,-5 -12.5,0 5,5 0,0 Z"
         style="fill-rule:evenodd;stroke:#000000;stroke-width:1pt"
         transform="matrix(0.8,0,0,0.8,10,0)"
         inkscape:connector-curvature="0" />
    </marker>
  </defs>
  <sodipodi:namedview
     id="base"
     pagecolor="#ffffff"
     bordercolor="#666666"
     borderopacity="1.0"
     inkscape:pageopacity="0.0"
     inkscape:pageshadow="2"
     inkscape:zoom="4"
     inkscape:cx="56.461295"
     inkscape:cy="2.8932725"
     inkscape:document-units="px"
     inkscape:current-layer="layer1"
     showgrid="true"
     showguides="false"
     inkscape:snap-page="false"
     inkscape:snap-grids="true"
     inkscape:snap-to-guides="true"
     inkscape:window-width="1366"
     inkscape:window-height="705"
     inkscape:window-x="-8"
     inkscape:window-y="-8"
     inkscape:window-maximized="1"
     units="px">
    <inkscape:grid
       type="xygrid"
       id="grid8437" />
  </sodipodi:namedview>
  <metadata
     id="metadata7610">
    <rdf:RDF>
      <cc:Work
         rdf:about="">
        <dc:format>image/svg+xml</dc:format>
        <dc:type
           rdf:resource="http://purl.org/dc/dcmitype/StillImage" />
        <dc:title></dc:title>
      </cc:Work>
    </rdf:RDF>
  </metadata>
  <g
     inkscape:label="Layer 1"
     inkscape:groupmode="layer"
     id="layer1"
     transform="translate(0,-1002.3622)">
    <rect
       style="color:#000000;clip-rule:nonzero;display:inline;overflow:visible;visibility:visible;opacity:1;isolation:auto;mix-blend-mode:normal;color-interpolation:sRGB;color-interpolation-filters:linearRGB;solid-color:#000000;solid-opacity:1;fill:#eeeeee;fill-opacity:1;fill-rule:nonzero;stroke:none;stroke-width:1;stroke-linecap:butt;stroke-linejoin:miter;stroke-miterlimit:4;stroke-dasharray:none;stroke-dashoffset:0;stroke-opacity:1;color-rendering:auto;image-rendering:auto;shape-rendering:auto;text-rendering:auto;enable-background:accumulate"
       id="rect7613"
       width="133.86398"
       height="50"
       x="4.7924073e-007"
       y="1002.3622" />
    <g
       id="g4155"
       transform="matrix(0.05859375,0,0,0.05859146,10,1012.3622)">
      <g
         id="bg_20_">
        <g
           id="g4">
          <polygon
             style="fill:#e63225"
             id="polygon6"
             points="0,0 0,512 355,512 512,354 512,0 " />
        </g>
      </g>
      <g
         id="Reddit">
        <g
           id="g9">
          <path
             style="fill:#ffffff"
             inkscape:connector-curvature="0"
             id="path11"
             d="m 429,235 c 0,-23.748 -20.371,-43 -45.5,-43 -11.629,0 -22.233,4.128 -30.276,10.911 -22.519,-13.141 -50.638,-21.659 -81.45,-23.521 0.042,-8.426 1.017,-22.049 6.227,-31.391 7.063,-13.156 18.512,-12.561 31,-11 6.197,1.01 13.564,4.472 18.008,6.797 0.159,22.23 18.222,40.204 40.491,40.204 22.367,0 40.5,-18.133 40.5,-40.5 0,-22.367 -18.133,-40.5 -40.5,-40.5 -14.862,0 -27.847,8.011 -34.893,19.944 C 319.856,116.033 300.63,114.732 291,116 c -18.558,3.324 -23.552,8.151 -32,22 -7.215,11.828 -10.055,30.887 -8.967,41.212 -32.3,1.364 -61.816,10.021 -85.257,23.699 C 156.733,196.128 146.128,192 134.5,192 109.371,192 89,211.252 89,235 c 0,15.952 9.199,29.865 22.85,37.287 -0.557,3.685 -0.85,7.424 -0.85,11.213 0,57.714 66.262,104.5 148,104.5 81.738,0 148,-46.786 148,-104.5 0,-3.789 -0.293,-7.528 -0.85,-11.213 C 419.801,264.865 429,250.952 429,235 Z M 367,124 c 10.493,0 19,8.507 19,19 0,10.493 -8.507,19 -19,19 -10.493,0 -19,-8.507 -19,-19 0,-10.493 8.507,-19 19,-19 z m -251,97 c 8.384,-9.908 23.883,-8.384 30,-5 -9.24,6.508 -25.438,28.883 -27,35 -8.069,-6.247 -11.384,-20.092 -3,-30 z m 143,145 c -69.588,0 -126,-36.937 -126,-82.5 0,-45.563 56.412,-82.5 126,-82.5 69.588,0 126,36.937 126,82.5 0,45.563 -56.412,82.5 -126,82.5 z M 399,251 c -1.562,-6.117 -17.76,-28.492 -27,-35 6.117,-3.384 21.616,-4.908 30,5 8.384,9.908 5.069,23.753 -3,30 z m -171,14.5 c 0,-11.874 -9.626,-21.5 -21.5,-21.5 -11.874,0 -21.5,9.626 -21.5,21.5 0,11.874 9.626,21.5 21.5,21.5 11.874,0 21.5,-9.626 21.5,-21.5 z M 311.5,244 c -11.874,0 -21.5,9.626 -21.5,21.5 0,11.874 9.626,21.5 21.5,21.5 11.874,0 21.5,-9.626 21.5,-21.5 0,-11.874 -9.626,-21.5 -21.5,-21.5 z m -7.5,71 c -9.897,7.084 -33.651,12 -48,12 -14.349,0 -35.71,-5.075 -43,-12 -8.771,-8.876 -26.935,2.919 -14,16 9.333,8.816 38.552,17 57,17 18.448,0 55.27,-8.17 63,-17 10.178,-9.129 0.517,-26.396 -15,-16 z" />
        </g>
      </g>
      <g
         id="Clip_Light_20_">
        <g
           id="g14">
          <polygon
             style="fill:#fa5347"
             id="polygon16"
             points="355,354 355,512.02 512,354 " />
        </g>
      </g>
      <g
         style="opacity:0.10199998"
         id="Shadow_Clip_20_">
        <g
           id="g19">
          <polygon
             id="polygon21"
             points="198,512 355,512 355,353.98 " />
        </g>
      </g>
    </g>
    <path
       style="font-style:normal;font-weight:normal;font-size:299.34225464px;line-height:125%;font-family:sans-serif;letter-spacing:0px;word-spacing:0px;fill:#3a4750;fill-opacity:1;stroke:none;stroke-width:1px;stroke-linecap:butt;stroke-linejoin:miter;stroke-opacity:1;marker-end:"
       d="m 110.20771,1020.0156 c 0,0.7082 0,1.4163 0,2.1244 0.84878,0 1.69756,0 2.54634,0 0,-0.7592 0,-1.5184 0,-2.2776 -0.84878,0 -1.69756,0 -2.54634,0 l 0,0.077 0,0.077 z m 6.54043,0 c 0,0.9345 0,1.869 0,2.8035 -0.59732,0 -1.19463,0 -1.79195,0 0,0.8189 0,1.6378 0,2.4567 0.59732,0 1.19463,0 1.79195,0 0,3.1358 0,6.2716 0,9.4075 2.34201,0 4.68403,0 7.02605,0 0,-0.7891 0,-1.5782 0,-2.3672 -1.49324,0 -2.98648,0 -4.47971,0 0,-2.3468 0,-4.6936 0,-7.0403 1.52311,0 3.04623,0 4.56935,0 0,-0.8189 0,-1.6378 0,-2.4567 -1.52312,0 -3.04624,0 -4.56935,0 0,-0.9856 0,-1.9711 0,-2.9567 -0.84878,0 -1.69756,0 -2.54634,0 l 0,0.077 0,0.077 z M 50,1020.1949 c 0,4.8594 0,9.7187 0,14.578 0.878661,0 1.757323,0 2.635984,0 0,-2.0308 0,-4.0617 0,-6.0925 1.146241,0 2.292481,0 3.438722,0 1.373748,2.0308 2.747609,4.0616 4.121288,6.0925 1.019335,0 2.03867,0 3.058005,0 -1.373811,-2.0308 -2.747625,-4.0617 -4.121438,-6.0925 1.179314,0 2.358628,0 3.537942,0 0,-2.8796 0,-5.7591 0,-8.6387 -4.223501,0 -8.447002,0 -12.670503,0 l 0,0.077 0,0.077 z m 39.063269,0.089 c 0,0.8449 0,1.6898 0,2.5347 -2.866999,0 -5.733997,0 -8.600996,0 0,3.9846 0,7.9692 0,11.9538 3.71583,0 7.431658,0 11.147487,0 0,-4.8806 0,-9.7611 0,-14.6417 -0.84883,0 -1.697661,0 -2.546491,0 l 0,0.077 0,0.077 z m 14.424881,0 c 0,0.8449 0,1.6898 0,2.5347 -2.86705,0 -5.734096,0 -8.601143,0 0,3.9846 0,7.9692 0,11.9538 3.715828,0 7.431653,0 11.147483,0 0,-4.8806 0,-9.7611 0,-14.6417 -0.84878,0 -1.69756,0 -2.54634,0 l 0,0.077 0,0.077 z m -43.363989,2.1243 c 0,1.3015 0,2.603 0,3.9045 -2.496059,0 -4.992118,0 -7.488177,0 0,-1.3015 0,-2.603 0,-3.9045 2.496059,0 4.992118,0 7.488177,0 z m 5.823738,0.5636 c 0,3.9634 0,7.9267 0,11.8901 3.865132,0 7.730265,0 11.595397,0 0,-0.789 0,-1.578 0,-2.3671 -3.016352,0 -6.032703,0 -9.049055,0 0,-0.9132 0,-1.8265 0,-2.7398 3.016352,0 6.032703,0 9.049055,0 0,-2.3121 0,-4.6243 0,-6.9364 -3.865132,0 -7.730265,0 -11.595397,0 l 0,0.077 0,0.077 z m 42.467871,0 c 0,0.7081 0,1.4162 0,2.1244 0.59731,0 1.19463,0 1.79194,0 0,3.1955 0,6.391 0,9.5866 0.84878,0 1.69756,0 2.54634,0 0,-3.9548 0,-7.9095 0,-11.8642 -1.44609,0 -2.89219,0 -4.33828,0 l 0,0.077 0,0.077 z m -33.418816,2.3035 c 0,0.7042 0,1.4084 0,2.1126 -2.167571,0 -4.335142,0 -6.502713,0 0,-0.7042 0,-1.4084 0,-2.1126 2.167571,0 4.335142,0 6.502713,0 z m 14.066315,0 c 0,2.3467 0,4.6935 0,7.0403 -2.018218,0 -4.036436,0 -6.054653,0 -10e-7,-2.3468 0,-4.6936 0,-7.0403 2.018217,0 4.036435,0 6.054653,0 z m 14.424881,0 c 0,2.3467 0,4.6935 0,7.0403 -2.01827,0 -4.036534,0 -6.054801,0 0,-2.3468 0,-4.6936 0,-7.0403 2.018267,0 4.036531,0 6.054801,0 z"
       id="text4177"
       inkscape:connector-curvature="0" />
  </g>
</svg>
