<?xml version="1.0" encoding="UTF-8" standalone="no"?>
<!-- Created with Inkscape (http://www.inkscape.org/) -->

<svg
   xmlns:dc="http://purl.org/dc/elements/1.1/"
   xmlns:cc="http://creativecommons.org/ns#"
   xmlns:rdf="http://www.w3.org/1999/02/22-rdf-syntax-ns#"
   xmlns:svg="http://www.w3.org/2000/svg"
   xmlns="http://www.w3.org/2000/svg"
   xmlns:sodipodi="http://sodipodi.sourceforge.net/DTD/sodipodi-0.dtd"
   xmlns:inkscape="http://www.inkscape.org/namespaces/inkscape"
   width="228.808"
   height="50"
   viewBox="0 0 228.80799 49.999996"
   id="svg7605"
   version="1.1"
   inkscape:version="0.91 r13725"
   sodipodi:docname="stackoverflow.svg"
   inkscape:export-filename="C:\Users\10000_000\Desktop\twitter.png"
   inkscape:export-xdpi="90"
   inkscape:export-ydpi="90">
  <defs
     id="defs7607">
    <marker
       inkscape:stockid="Arrow1Lstart"
       orient="auto"
       refY="0"
       refX="0"
       id="Arrow1Lstart"
       style="overflow:visible"
       inkscape:isstock="true">
      <path
         id="path4254"
         d="M 0,0 5,-5 -12.5,0 5,5 0,0 Z"
         style="fill-rule:evenodd;stroke:#000000;stroke-width:1pt"
         transform="matrix(0.8,0,0,0.8,10,0)"
         inkscape:connector-curvature="0" />
    </marker>
  </defs>
  <sodipodi:namedview
     id="base"
     pagecolor="#ffffff"
     bordercolor="#666666"
     borderopacity="1.0"
     inkscape:pageopacity="0.0"
     inkscape:pageshadow="2"
     inkscape:zoom="2.8284271"
     inkscape:cx="92.71306"
     inkscape:cy="18.510808"
     inkscape:document-units="px"
     inkscape:current-layer="layer1"
     showgrid="true"
     showguides="false"
     inkscape:snap-page="false"
     inkscape:snap-grids="true"
     inkscape:snap-to-guides="true"
     inkscape:window-width="1366"
     inkscape:window-height="705"
     inkscape:window-x="-8"
     inkscape:window-y="-8"
     inkscape:window-maximized="1"
     units="px">
    <inkscape:grid
       type="xygrid"
       id="grid8437" />
  </sodipodi:namedview>
  <metadata
     id="metadata7610">
    <rdf:RDF>
      <cc:Work
         rdf:about="">
        <dc:format>image/svg+xml</dc:format>
        <dc:type
           rdf:resource="http://purl.org/dc/dcmitype/StillImage" />
        <dc:title></dc:title>
      </cc:Work>
    </rdf:RDF>
  </metadata>
  <g
     inkscape:label="Layer 1"
     inkscape:groupmode="layer"
     id="layer1"
     transform="translate(0,-1002.3622)">
    <rect
       style="color:#000000;clip-rule:nonzero;display:inline;overflow:visible;visibility:visible;opacity:1;isolation:auto;mix-blend-mode:normal;color-interpolation:sRGB;color-interpolation-filters:linearRGB;solid-color:#000000;solid-opacity:1;fill:#eeeeee;fill-opacity:1;fill-rule:nonzero;stroke:none;stroke-width:1;stroke-linecap:butt;stroke-linejoin:miter;stroke-miterlimit:4;stroke-dasharray:none;stroke-dashoffset:0;stroke-opacity:1;color-rendering:auto;image-rendering:auto;shape-rendering:auto;text-rendering:auto;enable-background:accumulate"
       id="rect7613"
       width="228.80797"
       height="50"
       x="4.7924073e-007"
       y="1002.3622" />
    <path
       style="font-style:normal;font-weight:normal;font-size:1220.33898926px;line-height:125%;font-family:sans-serif;letter-spacing:0px;word-spacing:0px;fill:#3a4750;fill-opacity:1;stroke:none;stroke-width:1px;stroke-linecap:butt;stroke-linejoin:miter;stroke-opacity:1;marker-end:"
       d="m 183.96735,1019.8996 c 0,4.9577 0,9.9154 0,14.8731 0.79954,0 1.59908,0 2.39862,0 0,-4.9702 0,-9.9404 0,-14.9106 -0.79954,0 -1.59908,0 -2.39862,0 l 0,0.019 0,0.019 z m -117.344287,0.2681 c 0,0.9706 0,1.9412 0,2.9118 -0.595813,0 -1.191626,0 -1.787439,0 0,0.7399 0,1.4799 0,2.2199 0.595813,0 1.191626,0 1.787439,0 0,3.128 0,6.2559 0,9.3839 2.259266,0 4.518531,0 6.777797,0 0,-0.7101 0,-1.4203 0,-2.1305 -1.48952,0 -2.979042,0 -4.468562,0 0,-2.4178 0,-4.8356 0,-7.2534 1.519315,0 3.038631,0 4.557945,0 0,-0.74 0,-1.48 0,-2.2199 -1.519314,0 -3.03863,0 -4.557945,0 0,-0.9831 0,-1.9662 0,-2.9493 -0.769744,0 -1.53949,0 -2.309235,0 l 0,0.019 0,0.019 z M 50,1020.3465 c 0,2.7532 0,5.5064 0,8.2596 3.336523,0 6.673046,0 10.009569,0 0,1.3454 0,2.6907 0,4.0361 -3.336523,0 -6.673046,0 -10.009569,0 0,0.7102 0,1.4203 0,2.1305 4.10628,0 8.212561,0 12.318841,0 0,-2.7955 0,-5.591 0,-8.3865 -3.336522,0 -6.673046,0 -10.009569,0 0,-1.3156 0,-2.6311 0,-3.9467 3.306741,0 6.613482,0 9.920223,0 0,-0.7102 0,-1.4204 0,-2.1305 -4.076498,0 -8.152997,0 -12.229495,0 l 0,0.019 0,0.019 z m 67.56459,0 c 0,4.8087 0,9.6175 0,14.4262 4.31481,0 8.62963,0 12.94445,0 0,-4.8212 0,-9.6425 0,-14.4637 -4.31482,0 -8.62964,0 -12.94445,0 l 0,0.019 0,0.019 z m 58.00186,0 c 0,1.5961 0,3.1923 0,4.7885 -0.83413,0 -1.66826,0 -2.50239,0 0,0.6804 0,1.3608 0,2.0412 0.83413,0 1.66826,0 2.50239,0 0,2.5321 0,5.0643 0,7.5965 0.79955,0 1.59911,0 2.39866,0 0,-2.5322 0,-5.0644 0,-7.5965 1.25119,0 2.50238,0 3.75357,0 0,-0.6804 0,-1.3608 0,-2.0412 -1.25119,0 -2.50238,0 -3.75357,0 0,-0.9283 0,-1.8566 0,-2.7849 1.25119,0 2.50238,0 3.75357,0 0,-0.6803 0,-1.3607 0,-2.0411 -2.05075,0 -4.10149,0 -6.15223,0 l 0,0.019 0,0.019 z m -71.40754,0.1787 c 0,4.779 0,9.5579 0,14.3369 0.79955,0 1.5991,0 2.39865,0 0,-1.7279 0,-3.4557 0,-5.1836 0.66647,0 1.33293,0 1.99939,0 1.31079,1.7279 2.62154,3.4558 3.93237,5.1836 0.92484,0 1.84969,0 2.77453,0 -1.58791,-2.1273 -3.17593,-4.2546 -4.76388,-6.3819 1.47021,-1.8002 2.94044,-3.6004 4.41063,-5.4007 -0.89612,0 -1.79225,0 -2.68837,0 -1.19163,1.4299 -2.38322,2.8598 -3.57484,4.2898 -0.69661,0 -1.39322,0 -2.08983,0 0,-2.2939 0,-4.5877 0,-6.8816 -0.79955,0 -1.5991,0 -2.39865,0 l 0,0.019 0,0.019 z m 24.04085,1.9143 c 0,3.4009 0,6.8018 0,10.2027 -2.7455,0 -5.49101,0 -8.23652,0 0,-3.4009 0,-6.8018 0,-10.2027 2.74551,0 5.49102,0 8.23652,0 z m 5.00728,0.6016 c 1.5224,3.9403 3.04481,7.8807 4.56721,11.821 0.85126,0 1.70253,0 2.5538,0 1.52896,-3.9573 3.05795,-7.9147 4.58691,-11.872 -0.80141,0 -1.60282,0 -2.40422,0 -1.15309,3.0452 -2.30608,6.0904 -3.45914,9.1356 -1.12346,-3.0452 -2.24694,-6.0904 -3.3704,-9.1356 -0.83129,0 -1.66257,0 -2.49386,0 0.007,0.017 0.0131,0.034 0.0197,0.051 z m -54.340164,0.076 c 0,0.7274 0,1.4549 0,2.1824 1.876797,0 3.753594,0 5.630391,0 0,0.8687 0,1.7374 0,2.6061 -2.800299,0 -5.600596,0 -8.400895,0 0,2.3189 0,4.6377 0,6.9566 3.59985,0 7.1997,0 10.79955,0 0,-3.9275 0,-7.8551 0,-11.7826 -2.676348,0 -5.352698,0 -8.029046,0 l 0,0.019 0,0.019 z m 11.439513,0 c 0,3.8852 0,7.7705 0,11.6557 3.629631,0 7.259265,0 10.888901,0 0,-0.7102 0,-1.4203 0,-2.1305 -2.889672,0 -5.779343,0 -8.669013,0 0,-2.4774 0,-4.9548 0,-7.4322 2.88967,0 5.779341,0 8.669013,0 0,-0.7102 0,-1.4203 0,-2.1305 -3.629636,0 -7.25927,0 -10.888901,0 l 0,0.019 0,0.019 z m 57.644361,0 c 0,3.915 0,7.8301 0,11.7451 3.7786,0 7.55719,0 11.33578,0 0,-0.7102 0,-1.4204 0,-2.1305 -3.00884,0 -6.01767,0 -9.0265,0 0,-0.9879 0,-1.9758 0,-2.9637 3.00883,0 6.01766,0 9.0265,0 0,-2.2295 0,-4.4589 0,-6.6884 -3.77859,0 -7.55718,0 -11.33578,0 l 0,0.019 0,0.019 z m 14.47813,0 c 0,3.8852 0,7.7705 0,11.6557 0.79956,0 1.59911,0 2.39866,0 0,-3.1578 0,-6.3155 0,-9.4733 1.75763,0 3.51526,0 5.27289,0 0,-0.74 0,-1.48 0,-2.2199 -2.55718,0 -5.11436,0 -7.67155,0 l 0,0.019 0,0.019 z m 27.88381,0 c 0,3.8852 0,7.7705 0,11.6557 3.62963,0 7.25927,0 10.8889,0 0,-3.8977 0,-7.7955 0,-11.6932 -3.62963,0 -7.25927,0 -10.8889,0 l 0,0.019 0,0.019 z m 14.29937,0 c 0,3.8852 0,7.7705 0,11.6557 4.73188,0 9.46377,0 14.19566,0 0,-3.8977 0,-7.7955 0,-11.6932 -0.76976,0 -1.53952,0 -2.30927,0 0,3.2173 0,6.4347 0,9.6521 -1.22621,0 -2.45241,0 -3.67862,0 0,-3.2174 0,-6.4348 0,-9.6521 -0.76976,0 -1.53951,0 -2.30927,0 0,3.2173 0,6.4347 0,9.6521 -1.22619,0 -2.45238,0 -3.67858,0 0,-3.2174 0,-6.4348 0,-9.6521 -0.73997,0 -1.47995,0 -2.21992,0 l 0,0.019 0,0.019 z m -5.71974,2.093 c 0,2.4774 0,4.9548 0,7.4322 -2.09012,0 -4.18024,0 -6.27036,0 0,-2.4774 0,-4.9548 0,-7.4322 2.09012,0 4.18024,0 6.27036,0 z m -41.91506,0.089 c 0,0.7793 0,1.5586 0,2.338 -2.23908,0 -4.47816,0 -6.71723,0 0,-0.7794 0,-1.5587 0,-2.338 2.23907,0 4.47815,0 6.71723,0 z m -72.479993,4.7366 c 0,0.8688 0,1.7375 0,2.6062 -2.03054,0 -4.061083,0 -6.091623,0 0,-0.8687 0,-1.7374 0,-2.6062 2.03054,0 4.061083,0 6.091623,0 z"
       id="text4177"
       inkscape:connector-curvature="0" />
    <g
       style="fill:none;fill-rule:evenodd;stroke:none;stroke-width:1"
       id="soical"
       transform="matrix(0.49999994,0,0,0.49999994,9.9999988,1012.3622)">
      <g
         id="social"
         transform="translate(-973,-438)">
        <g
           id="slices"
           transform="translate(173,138)" />
        <g
           style="fill:#ce6f2d"
           id="square-flat"
           transform="translate(173,138)">
          <path
             inkscape:connector-curvature="0"
             d="m 802.99594,300 54.00812,0 c 1.65461,0 2.99594,1.33731 2.99594,2.99594 l 0,54.00812 C 860,358.65867 858.66269,360 857.00406,360 l -54.00812,0 C 801.34133,360 800,358.66269 800,357.00406 l 0,-54.00812 C 800,301.34133 801.33731,300 802.99594,300 Z"
             id="square-39" />
        </g>
        <g
           style="fill:#ffffff"
           id="icon"
           transform="translate(182,150)">
          <path
             inkscape:connector-curvature="0"
             d="m 827.93422,320.01276 -15.38184,-3.16661 -0.78315,3.28369 17.67748,3.63939 0.65004,-2.72239 0.86723,0.4147 1.57448,-3.46431 -16.88705,-8.07415 -1.57449,3.46335 13.8573,6.62633 0,0 z m 6.91193,1.44878 0,10.38461 -27.6923,0 0,-10.38461 3.46153,0 0,6.92307 20.76924,0 0,-6.92307 3.46153,0 z m -23.07692,2.30769 18.46154,0 0,3.46154 -18.46154,0 0,-3.46154 z m 23.07692,-8.80639 -2.30353,3.03716 -15.00416,-11.65105 1.66619,-2.1951 1.72008,0 13.92142,10.80899 z"
             id="stackoverflow" />
        </g>
      </g>
    </g>
  </g>
</svg>
