<?xml version="1.0" encoding="UTF-8" standalone="no"?>
<!-- Created with Inkscape (http://www.inkscape.org/) -->

<svg
   xmlns:dc="http://purl.org/dc/elements/1.1/"
   xmlns:cc="http://creativecommons.org/ns#"
   xmlns:rdf="http://www.w3.org/1999/02/22-rdf-syntax-ns#"
   xmlns:svg="http://www.w3.org/2000/svg"
   xmlns="http://www.w3.org/2000/svg"
   xmlns:sodipodi="http://sodipodi.sourceforge.net/DTD/sodipodi-0.dtd"
   xmlns:inkscape="http://www.inkscape.org/namespaces/inkscape"
   width="130.24699"
   height="50"
   viewBox="0 0 130.24699 49.999996"
   id="svg7605"
   version="1.1"
   inkscape:version="0.91 r13725"
   sodipodi:docname="Steam.svg"
   inkscape:export-filename="C:\Users\10000_000\Desktop\twitter.png"
   inkscape:export-xdpi="90"
   inkscape:export-ydpi="90">
  <defs
     id="defs7607">
    <marker
       inkscape:stockid="Arrow1Lstart"
       orient="auto"
       refY="0"
       refX="0"
       id="Arrow1Lstart"
       style="overflow:visible"
       inkscape:isstock="true">
      <path
         id="path4254"
         d="M 0,0 5,-5 -12.5,0 5,5 0,0 Z"
         style="fill-rule:evenodd;stroke:#000000;stroke-width:1pt"
         transform="matrix(0.8,0,0,0.8,10,0)"
         inkscape:connector-curvature="0" />
    </marker>
  </defs>
  <sodipodi:namedview
     id="base"
     pagecolor="#ffffff"
     bordercolor="#666666"
     borderopacity="1.0"
     inkscape:pageopacity="0.0"
     inkscape:pageshadow="2"
     inkscape:zoom="4"
     inkscape:cx="98.711295"
     inkscape:cy="2.8932725"
     inkscape:document-units="px"
     inkscape:current-layer="layer1"
     showgrid="true"
     showguides="false"
     inkscape:snap-page="false"
     inkscape:snap-grids="true"
     inkscape:snap-to-guides="true"
     inkscape:window-width="1366"
     inkscape:window-height="705"
     inkscape:window-x="-8"
     inkscape:window-y="-8"
     inkscape:window-maximized="1"
     units="px">
    <inkscape:grid
       type="xygrid"
       id="grid8437" />
  </sodipodi:namedview>
  <metadata
     id="metadata7610">
    <rdf:RDF>
      <cc:Work
         rdf:about="">
        <dc:format>image/svg+xml</dc:format>
        <dc:type
           rdf:resource="http://purl.org/dc/dcmitype/StillImage" />
        <dc:title></dc:title>
      </cc:Work>
    </rdf:RDF>
  </metadata>
  <g
     inkscape:label="Layer 1"
     inkscape:groupmode="layer"
     id="layer1"
     transform="translate(0,-1002.3622)">
    <rect
       style="color:#000000;clip-rule:nonzero;display:inline;overflow:visible;visibility:visible;opacity:1;isolation:auto;mix-blend-mode:normal;color-interpolation:sRGB;color-interpolation-filters:linearRGB;solid-color:#000000;solid-opacity:1;fill:#eeeeee;fill-opacity:1;fill-rule:nonzero;stroke:none;stroke-width:1;stroke-linecap:butt;stroke-linejoin:miter;stroke-miterlimit:4;stroke-dasharray:none;stroke-dashoffset:0;stroke-opacity:1;color-rendering:auto;image-rendering:auto;shape-rendering:auto;text-rendering:auto;enable-background:accumulate"
       id="rect7613"
       width="130.24699"
       height="50"
       x="4.7924073e-007"
       y="1002.3622" />
    <g
       transform="matrix(0.05859375,0,0,0.05859375,9.9999991,1012.3622)"
       id="g4136">
      <rect
         y="0"
         x="1.5e-005"
         width="512"
         style="fill:#282828;fill-opacity:1;fill-rule:nonzero;stroke:none"
         ry="64"
         rx="64"
         id="rect2984"
         height="512" />
      <path
         inkscape:connector-curvature="0"
         style="fill:#ffffff;fill-opacity:1;fill-rule:evenodd"
         id="Steam"
         d="m 426.06701,205.07102 c 0,20.36448 -16.56892,36.88006 -37.00896,36.88006 -20.46223,0 -37.02233,-16.51558 -37.02233,-36.88006 0,-20.36449 16.5645,-36.87563 37.02233,-36.87563 20.44004,0 37.00896,16.51114 37.00896,36.87563 z m -14.91114,62.30678 -44.82675,38.19563 c 0.4844,3.04889 0.8133,6.14668 0.8133,9.32446 0,32.51562 -26.4622,58.88011 -59.0934,58.88011 -28.1512,0 -51.6579,-19.61781 -57.6135,-45.86675 l -110.8046,-37.45341 c -8.7556,6.62224 -19.6401,10.60002 -31.4801,10.60002 -28.799995,0 -52.151195,-23.26671 -52.151195,-51.9601 0,-28.68894 23.3512,-51.94676 52.151195,-51.94676 24.7645,0 45.449,17.20003 50.78681,40.24452 l 107.03569,36.18229 c 10.4267,-10.52891 24.8045,-17.12892 40.73791,-17.48448 l 16.03109,-48.5512 c -0.044,-0.96445 -0.1422,-1.91556 -0.1422,-2.88889 0,-36.68896 29.8623,-66.43124 66.69793,-66.43124 36.83562,0 66.70235,29.74228 66.70235,66.43124 0,29.06672 -18.76004,53.70676 -44.84452,62.72456 z M 140.94202,231.31551 c -6.2311,-11.17336 -18.1911,-18.74226 -31.9289,-18.74226 -20.168995,0 -36.520095,16.28892 -36.520095,36.37785 0,20.08892 16.3511,36.3734 36.520095,36.3734 3.7288,0 7.32,-0.56 10.7066,-1.59556 l -17.3511,-5.86223 c -13.982195,-7.45779 -19.244495,-24.7956 -11.755595,-38.72452 7.4934,-13.92003 24.897795,-19.15559 38.866795,-11.6978 l 11.4622,3.87112 z m 196.3381,-26.50227 c 0,28.49783 23.1912,51.60009 51.80015,51.60009 28.60894,0 51.81788,-23.10226 51.81788,-51.60009 0,-28.51117 -23.20894,-51.61343 -51.81788,-51.61343 -28.60895,0 -51.80015,23.10226 -51.80015,51.61343 z m 1.0223,115.13799 c 0,-21.69782 -17.6578,-39.28896 -39.4401,-39.28896 -3.0533,0 -6.0045,0.38222 -8.8578,1.03111 l 22.04,7.4489 c 13.9734,7.46669 19.2267,24.80005 11.7378,38.71563 -7.4889,13.93781 -24.8933,19.16893 -38.8623,11.71114 l -23.7511,-8.03113 c 4.96441,16.04003 19.9645,27.69783 37.6934,27.69783 21.7823,0 39.4401,-17.59559 39.4401,-39.28452 z" />
    </g>
    <path
       style="font-style:normal;font-weight:normal;font-size:315.07693481px;line-height:125%;font-family:sans-serif;letter-spacing:0px;word-spacing:0px;fill:#3a4750;fill-opacity:1;stroke:none;stroke-width:1px;stroke-linecap:butt;stroke-linejoin:miter;stroke-opacity:1;marker-end:"
       d="m 66.681704,1020.0079 c 0,0.938 0,1.876 0,2.8139 -0.597905,0 -1.19581,0 -1.793715,0 0,0.8147 0,1.6294 0,2.444 0.597905,0 1.19581,0 1.793715,0 0,3.139 0,6.2781 0,9.4171 2.339292,0 4.678584,0 7.017876,0 0,-0.7848 0,-1.5695 0,-2.3542 -1.494786,0 -2.989572,0 -4.484358,0 0,-2.3543 0,-4.7086 0,-7.0629 1.524673,0 3.049348,0 4.574022,0 0,-0.8146 0,-1.6293 0,-2.444 -1.524674,0 -3.049349,0 -4.574022,0 0,-0.9865 0,-1.9731 0,-2.9596 -0.844507,0 -1.689012,0 -2.533518,0 l 0,0.073 0,0.073 z M 50,1020.1874 c 0,2.799 0,5.5979 0,8.3969 3.348277,0 6.696555,0 10.044831,0 0,1.278 0,2.556 0,3.834 -3.348276,0 -6.696554,0 -10.044831,0 0,0.7848 0,1.5695 0,2.3542 4.19283,0 8.38566,0 12.578491,0 0,-2.8774 0,-5.7548 0,-8.6322 -3.348277,0 -6.696554,0 -10.044831,0 0,-1.2482 0,-2.4963 0,-3.7444 3.318388,0 6.636777,0 9.955167,0 0,-0.7848 0,-1.5695 0,-2.3542 -4.162943,0 -8.325884,0 -12.488827,0 l 0,0.073 0,0.073 z m 26.188407,2.7802 c 0,3.9649 0,7.9297 0,11.8946 3.863966,0 7.727932,0 11.591898,0 0,-0.7847 0,-1.5695 0,-2.3542 -3.019413,0 -6.038826,0 -9.058238,0 0,-0.9193 0,-1.8385 0,-2.7578 3.019412,0 6.038825,0 9.058238,0 0,-2.3095 0,-4.6189 0,-6.9284 -3.863966,0 -7.727932,0 -11.591898,0 l 0,0.073 0,0.073 z m 17.219691,0 c 0,0.7661 0,1.5321 0,2.2982 1.883426,0 3.766852,0 5.65028,0 0,0.7998 0,1.5995 0,2.3992 -2.810149,0 -5.620298,0 -8.430446,0 0,2.3991 0,4.7981 0,7.1972 3.68459,0 7.36918,0 11.053768,0 0,-4.0135 0,-8.0269 0,-12.0404 -2.757867,0 -5.515735,0 -8.273602,0 l 0,0.073 0,0.073 z m 11.479892,0 c 0,3.935 0,7.8699 0,11.8049 0.84455,0 1.6891,0 2.53366,0 0,-3.1988 0,-6.3975 0,-9.5963 1.30791,0 2.61582,0 3.92374,0 0,3.1988 0,6.3975 0,9.5963 0.81466,0 1.62933,0 2.44399,0 0,-3.1988 0,-6.3975 0,-9.5963 1.30792,0 2.61583,0 3.92375,0 0,3.1988 0,6.3975 0,9.5963 0.84455,0 1.6891,0 2.53365,0 0,-3.9835 0,-7.9671 0,-11.9507 -5.11959,0 -10.23919,0 -15.35879,0 l 0,0.073 0,0.073 z m -19.641344,2.2982 c 0,0.71 0,1.42 0,2.1301 -2.17486,0 -4.34972,0 -6.524579,0 0,-0.7101 0,-1.4201 0,-2.1301 2.174859,0 4.349719,0 6.524579,0 z m 13.811732,4.7534 c 0,0.7997 0,1.5994 0,2.3991 -1.965596,0 -3.931191,0 -5.896787,0 0,-0.7997 0,-1.5994 0,-2.3991 1.965596,0 3.931191,0 5.896787,0 z"
       id="text4174"
       inkscape:connector-curvature="0" />
  </g>
</svg>
