<?xml version="1.0" encoding="UTF-8" standalone="no"?>
<!-- Created with Inkscape (http://www.inkscape.org/) -->

<svg
   xmlns:dc="http://purl.org/dc/elements/1.1/"
   xmlns:cc="http://creativecommons.org/ns#"
   xmlns:rdf="http://www.w3.org/1999/02/22-rdf-syntax-ns#"
   xmlns:svg="http://www.w3.org/2000/svg"
   xmlns="http://www.w3.org/2000/svg"
   xmlns:sodipodi="http://sodipodi.sourceforge.net/DTD/sodipodi-0.dtd"
   xmlns:inkscape="http://www.inkscape.org/namespaces/inkscape"
   width="149.972"
   height="50"
   viewBox="0 0 149.972 49.999996"
   id="svg7605"
   version="1.1"
   inkscape:version="0.91 r13725"
   sodipodi:docname="telegram.svg"
   inkscape:export-filename="C:\Users\10000_000\Desktop\twitter.png"
   inkscape:export-xdpi="90"
   inkscape:export-ydpi="90">
  <defs
     id="defs7607">
    <marker
       inkscape:stockid="Arrow1Lstart"
       orient="auto"
       refY="0"
       refX="0"
       id="Arrow1Lstart"
       style="overflow:visible"
       inkscape:isstock="true">
      <path
         id="path4254"
         d="M 0,0 5,-5 -12.5,0 5,5 0,0 Z"
         style="fill-rule:evenodd;stroke:#000000;stroke-width:1pt"
         transform="matrix(0.8,0,0,0.8,10,0)"
         inkscape:connector-curvature="0" />
    </marker>
  </defs>
  <sodipodi:namedview
     id="base"
     pagecolor="#ffffff"
     bordercolor="#666666"
     borderopacity="1.0"
     inkscape:pageopacity="0.0"
     inkscape:pageshadow="2"
     inkscape:zoom="2"
     inkscape:cx="-14.660854"
     inkscape:cy="36.964035"
     inkscape:document-units="px"
     inkscape:current-layer="layer1"
     showgrid="true"
     showguides="false"
     inkscape:snap-page="false"
     inkscape:snap-grids="true"
     inkscape:snap-to-guides="true"
     inkscape:window-width="1366"
     inkscape:window-height="705"
     inkscape:window-x="-8"
     inkscape:window-y="-8"
     inkscape:window-maximized="1"
     units="px">
    <inkscape:grid
       type="xygrid"
       id="grid8437" />
  </sodipodi:namedview>
  <metadata
     id="metadata7610">
    <rdf:RDF>
      <cc:Work
         rdf:about="">
        <dc:format>image/svg+xml</dc:format>
        <dc:type
           rdf:resource="http://purl.org/dc/dcmitype/StillImage" />
        <dc:title></dc:title>
      </cc:Work>
    </rdf:RDF>
  </metadata>
  <g
     inkscape:label="Layer 1"
     inkscape:groupmode="layer"
     id="layer1"
     transform="translate(0,-1002.3622)">
    <rect
       style="color:#000000;clip-rule:nonzero;display:inline;overflow:visible;visibility:visible;opacity:1;isolation:auto;mix-blend-mode:normal;color-interpolation:sRGB;color-interpolation-filters:linearRGB;solid-color:#000000;solid-opacity:1;fill:#eeeeee;fill-opacity:1;fill-rule:nonzero;stroke:none;stroke-width:1;stroke-linecap:butt;stroke-linejoin:miter;stroke-miterlimit:4;stroke-dasharray:none;stroke-dashoffset:0;stroke-opacity:1;color-rendering:auto;image-rendering:auto;shape-rendering:auto;text-rendering:auto;enable-background:accumulate"
       id="rect7613"
       width="149.972"
       height="50"
       x="4.7924073e-007"
       y="1002.3622" />
    <g
       id="g4208"
       transform="matrix(0.05859375,0,0,0.05859146,10,1012.3622)">
      <g
         id="bg_4_">
        <g
           id="g4">
          <polygon
             style="fill:#279ed9"
             id="polygon6"
             points="355,512 512,354 512,0 0,0 0,512 " />
        </g>
      </g>
      <g
         id="Telegram_3_">
        <g
           id="Shape_Plane_3">
          <g
             id="g10">
            <path
               style="fill:#cbe0ee"
               inkscape:connector-curvature="0"
               id="path12"
               d="m 332,188 c -2.315,-1.232 -7,2 -7,2 L 161,296 c 0,0 23.749,78.48 25,83 1.46,6.397 7,9 7,9 l 6,-73 134,-121 c 0,0 1.315,-4.768 -1,-6 z" />
          </g>
        </g>
        <g
           id="Shape_Plane_2">
          <g
             id="g15">
            <path
               style="fill:#a8c6df"
               inkscape:connector-curvature="0"
               id="path17"
               d="m 199,314 c 0,0 -6.609,69 -7,72 -0.391,2.999 4.508,4.56 9,1 14.588,-11.561 42,-40 42,-40 l -44,-33 z" />
          </g>
        </g>
        <g
           id="Shape_Plane_1">
          <g
             id="g20">
            <path
               style="fill:#ffffff"
               inkscape:connector-curvature="0"
               id="path22"
               d="m 363,140 c -8.108,2.415 -82.503,29.93 -150,57 -59.772,23.973 -109.387,45.693 -114,48 -14.991,4.997 -30.601,15.853 -6,27 11.532,5.766 68,24 68,24 0,0 159.199,-102.936 164,-106 7.354,-5.005 12.149,-0.456 5,7 -3.166,3.064 -131,117 -131,117 2.216,-0.024 100.832,75.412 106,81 16.977,14.127 31.079,6.439 34,-9 0.605,-2.785 16.554,-69.893 29,-132 9,-44.912 16.226,-89.171 18,-99 2.603,-16.59 -3.482,-20.53 -23,-15 z" />
          </g>
        </g>
      </g>
      <g
         id="Clip_Light_4_">
        <g
           id="g25">
          <polygon
             style="fill:#46bdf0"
             id="polygon27"
             points="355,354 355,512.02 512,354 " />
        </g>
      </g>
      <g
         style="opacity:0.10199998"
         id="Shadow_Clip_4_">
        <g
           id="g30">
          <polygon
             id="polygon32"
             points="198,512 355,512 355,353.98 " />
        </g>
      </g>
    </g>
    <path
       style="font-style:normal;font-weight:normal;font-size:210.05128479px;line-height:125%;font-family:sans-serif;letter-spacing:0px;word-spacing:0px;fill:#3a4750;fill-opacity:1;stroke:none;stroke-width:1px;stroke-linecap:butt;stroke-linejoin:miter;stroke-opacity:1;marker-end:"
       d="m 75.501112,1020.0489 c 0,4.2996 0,8.5993 0,12.8989 0.788155,0 1.576311,0 2.364467,0 0,-4.3619 0,-8.7237 0,-13.0856 -0.788156,0 -1.576312,0 -2.364467,0 l 0,0.093 0,0.093 z M 50,1020.4317 c 0,0.6238 0,1.2477 0,1.8715 1.455029,0 2.910059,0 4.365088,0 0,3.5482 0,7.0964 0,10.6446 0.762575,0 1.52515,0 2.287725,0 0,-3.5482 0,-7.0964 0,-10.6446 1.455029,0 2.910058,0 4.365088,0 0,-0.686 0,-1.3721 0,-2.0582 -3.672634,0 -7.345267,0 -11.017901,0 l 0,0.093 0,0.093 z m 12.865397,2.3741 c 0,3.4062 0,6.8124 0,10.2186 3.340807,0 6.681615,0 10.022422,0 0,-0.7116 0,-1.4231 0,-2.1346 -2.578172,0 -5.156343,0 -7.734514,0 0,-0.7435 0,-1.487 0,-2.2305 2.578171,0 5.156342,0 7.734514,0 0,-2.0134 0,-4.0268 0,-6.0402 -3.340807,0 -6.681615,0 -10.022422,0 l 0,0.093 0,0.093 z m 17.996282,0 c 0,3.4062 0,6.8124 0,10.2186 3.340807,0 6.681614,0 10.022421,0 0,-0.7116 0,-1.4231 0,-2.1346 -2.578172,0 -5.156343,0 -7.734514,0 0,-0.7435 0,-1.487 0,-2.2305 2.578171,0 5.156342,0 7.734514,0 0,-2.0134 0,-4.0268 0,-6.0402 -3.340807,0 -6.681614,0 -10.022421,0 l 0,0.093 0,0.093 z m 12.329468,0 c 0,2.4872 0,4.9744 0,7.4616 2.552651,0 5.105302,0 7.657953,0 0,0.7946 0,1.5891 0,2.3836 -2.552651,0 -5.105302,0 -7.657953,0 0,0.7371 0,1.4741 0,2.2112 3.340807,0 6.681615,0 10.022423,0 0,-4.081 0,-8.162 0,-12.2431 -3.340809,0 -6.681616,0 -10.022423,0 l 0,0.093 0,0.093 z m 12.405843,0 c 0,3.3807 0,6.7613 0,10.142 0.78816,0 1.57632,0 2.36447,0 0,-2.7058 0,-5.4117 0,-8.1175 1.50607,0 3.01214,0 4.51821,0 0,-0.7371 0,-1.4741 0,-2.2112 -2.29422,0 -4.58845,0 -6.88268,0 l 0,0.093 0,0.093 z m 11.33399,0 c 0,0.6748 0,1.3497 0,2.0245 1.60816,0 3.21631,0 4.82446,0 0,0.6413 0,1.2827 0,1.9241 -2.39953,0 -4.79906,0 -7.19858,0 0,2.09 0,4.18 0,6.27 3.18768,0 6.37536,0 9.56305,0 0,-3.4685 0,-6.9369 0,-10.4053 -2.39631,0 -4.79262,0 -7.18893,0 l 0,0.093 0,0.093 z m 9.80222,0 c 0,3.3807 0,6.7613 0,10.142 0.76258,0 1.52515,0 2.28773,0 0,-2.7314 0,-5.4627 0,-8.1941 1.07532,0 2.15064,0 3.22596,0 0,2.7314 0,5.4627 0,8.1941 0.73712,0 1.47423,0 2.21135,0 0,-2.7314 0,-5.4627 0,-8.1941 1.07526,0 2.15052,0 3.22578,0 0,2.7314 0,5.4627 0,8.1941 0.76263,0 1.52527,0 2.28791,0 0,-3.4429 0,-6.8858 0,-10.3287 -4.41291,0 -8.82582,0 -13.23873,0 l 0,0.093 0,0.093 z m -56.133106,2.0245 c 0,0.5648 0,1.1296 0,1.6944 -1.815596,0 -3.631193,0 -5.446789,0 0,-0.5648 -10e-7,-1.1296 0,-1.6944 1.815596,0 3.631193,0 5.446789,0 z m 17.996281,0 c 0,0.5648 0,1.1296 0,1.6944 -1.815596,0 -3.631193,0 -5.446789,0 0,-0.5648 0,-1.1296 0,-1.6944 1.815596,0 3.631193,0 5.446789,0 z m 12.252725,0 c 0,1.0753 0,2.1506 0,3.226 -1.764495,0 -3.52899,0 -5.293484,0 0,-1.0754 0,-2.1507 0,-3.226 1.764494,0 3.528989,0 5.293484,0 z m 20.90634,4.0587 c 0,0.6414 0,1.2828 0,1.9242 -1.63689,0 -3.27379,0 -4.91068,0 0,-0.6414 0,-1.2828 0,-1.9242 1.63689,0 3.27379,0 4.91068,0 z"
       id="text4195"
       inkscape:connector-curvature="0" />
  </g>
</svg>
