<?xml version="1.0" encoding="UTF-8" standalone="no"?>
<!-- Created with Inkscape (http://www.inkscape.org/) -->

<svg
   xmlns:dc="http://purl.org/dc/elements/1.1/"
   xmlns:cc="http://creativecommons.org/ns#"
   xmlns:rdf="http://www.w3.org/1999/02/22-rdf-syntax-ns#"
   xmlns:svg="http://www.w3.org/2000/svg"
   xmlns="http://www.w3.org/2000/svg"
   xmlns:sodipodi="http://sodipodi.sourceforge.net/DTD/sodipodi-0.dtd"
   xmlns:inkscape="http://www.inkscape.org/namespaces/inkscape"
   width="139.998"
   height="50"
   viewBox="0 0 139.998 49.999996"
   id="svg7605"
   version="1.1"
   inkscape:version="0.91 r13725"
   sodipodi:docname="twitter.svg"
   inkscape:export-filename="C:\Users\10000_000\Desktop\twitter.png"
   inkscape:export-xdpi="90"
   inkscape:export-ydpi="90">
  <defs
     id="defs7607">
    <marker
       inkscape:stockid="Arrow1Lstart"
       orient="auto"
       refY="0"
       refX="0"
       id="Arrow1Lstart"
       style="overflow:visible"
       inkscape:isstock="true">
      <path
         id="path4254"
         d="M 0,0 5,-5 -12.5,0 5,5 0,0 Z"
         style="fill-rule:evenodd;stroke:#000000;stroke-width:1pt"
         transform="matrix(0.8,0,0,0.8,10,0)"
         inkscape:connector-curvature="0" />
    </marker>
  </defs>
  <sodipodi:namedview
     id="base"
     pagecolor="#ffffff"
     bordercolor="#666666"
     borderopacity="1.0"
     inkscape:pageopacity="0.0"
     inkscape:pageshadow="2"
     inkscape:zoom="2"
     inkscape:cx="59.1818"
     inkscape:cy="36.948498"
     inkscape:document-units="px"
     inkscape:current-layer="layer1"
     showgrid="true"
     showguides="false"
     inkscape:snap-page="false"
     inkscape:snap-grids="true"
     inkscape:snap-to-guides="true"
     inkscape:window-width="1366"
     inkscape:window-height="705"
     inkscape:window-x="-8"
     inkscape:window-y="-8"
     inkscape:window-maximized="1"
     units="px">
    <inkscape:grid
       type="xygrid"
       id="grid8437" />
  </sodipodi:namedview>
  <metadata
     id="metadata7610">
    <rdf:RDF>
      <cc:Work
         rdf:about="">
        <dc:format>image/svg+xml</dc:format>
        <dc:type
           rdf:resource="http://purl.org/dc/dcmitype/StillImage" />
        <dc:title></dc:title>
      </cc:Work>
    </rdf:RDF>
  </metadata>
  <g
     inkscape:label="Layer 1"
     inkscape:groupmode="layer"
     id="layer1"
     transform="translate(0,-1002.3622)">
    <rect
       style="color:#000000;clip-rule:nonzero;display:inline;overflow:visible;visibility:visible;opacity:1;isolation:auto;mix-blend-mode:normal;color-interpolation:sRGB;color-interpolation-filters:linearRGB;solid-color:#000000;solid-opacity:1;fill:#eeeeee;fill-opacity:1;fill-rule:nonzero;stroke:none;stroke-width:1;stroke-linecap:butt;stroke-linejoin:miter;stroke-miterlimit:4;stroke-dasharray:none;stroke-dashoffset:0;stroke-opacity:1;color-rendering:auto;image-rendering:auto;shape-rendering:auto;text-rendering:auto;enable-background:accumulate"
       id="rect7613"
       width="139.998"
       height="50"
       x="4.7924073e-007"
       y="1002.3622" />
    <g
       id="layer1-1"
       transform="matrix(0.06,0,0,0.06,10,979.22047)">
      <path
         d="m 0,552.36216 0,500.00004 500,0 0,-500.00004 z"
         id="rect2989-1"
         style="fill:#55acee;fill-opacity:1;stroke:none"
         inkscape:connector-curvature="0" />
      <g
         id="layer1-9"
         transform="translate(-549.00515,80.294372)" />
      <g
         id="layer1-6"
         transform="translate(-575.71429,39.999999)" />
      <g
         id="layer1-93"
         transform="matrix(0.99928945,0,0,0.99928945,474.7002,-40.81928)" />
      <path
         d="M 500,154.44196 500,500 174.28572,500 50.000001,375.71428 l 8.660713,2.45536 112.053576,-4.59821 -56.62947,-56.62947 3.26261,-28.61239 L 88.392859,259.375 360,154.28571 438.99833,93.440288 Z"
         id="path2998"
         style="opacity:0.3;fill:#000000;stroke:none;stroke-width:1px;stroke-linecap:butt;stroke-linejoin:miter;stroke-opacity:1"
         transform="translate(0,552.36218)"
         inkscape:connector-curvature="0" />
      <path
         d="m 324.8125,87.5 c -44.33849,1.123491 -79.90625,37.41422 -79.90625,82.03125 0,6.42284 0.68902,12.70195 2.09375,18.71875 -68.20709,-3.42657 -128.67859,-36.09686 -169.15625,-85.75 -7.064337,12.11489 -11.125,26.22697 -11.125,41.28125 0,28.46834 14.510108,53.56798 36.53125,68.28125 -13.446529,-0.43035 -26.12007,-4.13448 -37.1875,-10.28125 -0.006,0.34102 0,0.71336 0,1.0625 0,39.75502 28.297378,72.886 65.84375,80.4375 -6.88565,1.86757 -14.13844,2.875 -21.625,2.875 -5.29418,0 -10.427542,-0.50248 -15.4375,-1.46875 10.45028,32.60136 40.71883,56.34231 76.625,57 -28.08671,22.01304 -63.41917,35.125 -101.875,35.125 -6.617694,0 -13.170937,-0.36173 -19.59375,-1.125 36.328399,23.29604 79.44102,36.875 125.78125,36.875 150.9569,0 233.5,-125.05072 233.5,-233.5 0,-3.5565 -0.0646,-7.13221 -0.21875,-10.65625 16.02868,-11.5465 29.94317,-26.0097 40.9375,-42.46875 -14.70513,6.53653 -30.51982,10.96433 -47.125,12.9375 16.95432,-10.14987 29.96326,-26.22708 36.09375,-45.40625 -15.85815,9.41096 -33.42491,16.25106 -52.125,19.9375 C 371.87879,97.45878 350.54204,87.5 326.9375,87.5 c -0.70808,0 -1.42122,-0.01789 -2.125,0 z"
         id="rect2989"
         style="fill:#ffffff;fill-opacity:1;stroke:none"
         transform="translate(0,552.36218)"
         inkscape:connector-curvature="0" />
    </g>
    <path
       style="font-style:normal;font-weight:normal;font-size:174.5176239px;line-height:125%;font-family:sans-serif;letter-spacing:0px;word-spacing:0px;fill:#3a4750;fill-opacity:1;stroke:none;stroke-width:1px;stroke-linecap:butt;stroke-linejoin:miter;stroke-opacity:1"
       d="m 82.54075,1020.0361 c 0,0.7132 0,1.4265 0,2.1396 0.83583,0 1.67165,0 2.50747,0 0,-0.7712 0,-1.5423 0,-2.3135 -0.83582,0 -1.67164,0 -2.50747,0 l 0,0.087 0,0.087 z m 6.33459,0 c 0,0.9249 0,1.8495 0,2.7743 -0.57846,0 -1.15692,0 -1.7354,0 0,0.8308 0,1.6615 0,2.4922 0.57848,0 1.15694,0 1.7354,0 0,3.127 0,6.2539 0,9.3809 2.28209,0 4.56415,0 6.84623,0 0,-0.8009 0,-1.6019 0,-2.4028 -1.44625,0 -2.8925,0 -4.33876,0 0,-2.326 0,-4.6521 0,-6.9781 1.4752,0 2.95038,0 4.42558,0 0,-0.8307 0,-1.6614 0,-2.4922 -1.4752,0 -2.95038,0 -4.42558,0 0,-0.9827 0,-1.9654 0,-2.9482 -0.83581,0 -1.67164,0 -2.50747,0 l 0,0.087 0,0.087 z m 10.15265,0 c 0,0.9249 0,1.8495 0,2.7743 -0.57846,0 -1.15692,0 -1.7354,0 0,0.8308 0,1.6615 0,2.4922 0.57847,0 1.15694,0 1.7354,0 0,3.127 0,6.2539 0,9.3809 2.28208,0 4.56415,0 6.84623,0 0,-0.8009 0,-1.6019 0,-2.4028 -1.44625,0 -2.89251,0 -4.33877,0 0,-2.326 0,-4.6521 0,-6.9781 1.4752,0 2.95039,0 4.42559,0 0,-0.8307 0,-1.6614 0,-2.4922 -1.4752,0 -2.95039,0 -4.42559,0 0,-0.9827 0,-1.9654 0,-2.9482 -0.8358,0 -1.67163,0 -2.50746,0 l 0,0.087 0,0.087 z M 50,1020.2149 c 0,0.7132 0,1.4264 0,2.1395 1.648757,0 3.297514,0 4.946271,0 0,4.1396 0,8.2789 0,12.4184 0.835766,0 1.671533,0 2.507299,0 0,-4.1395 0,-8.2788 0,-12.4184 1.648757,0 3.297514,0 4.946272,0 0,-0.7711 0,-1.5423 0,-2.3135 -4.133281,0 -8.266563,0 -12.399842,0 l 0,0.087 0,0.087 z m 14.665025,2.7696 c 0,3.9295 0,7.8589 0,11.7883 4.682866,0 9.365735,0 14.048595,0 0,-3.9875 0,-7.9749 0,-11.9624 -0.83582,0 -1.67164,0 -2.50746,0 0,3.2163 0,6.4325 0,9.6491 -1.1022,0 -2.2044,0 -3.30659,0 0,-3.2166 0,-6.4328 0,-9.6491 -0.83577,0 -1.67153,0 -2.5073,0 0,3.2163 0,6.4325 0,9.6491 -1.102199,0 -2.204396,0 -3.306593,0 0,-3.2166 0,-6.4328 0,-9.6491 -0.806883,0 -1.613768,0 -2.420652,0 l 0,0.087 0,0.087 z m 16.140325,0 c 0,0.7132 0,1.4264 0,2.1395 0.57847,0 1.15694,0 1.7354,0 0,3.1864 0,6.3729 0,9.5595 0.83583,0 1.67165,0 2.50747,0 0,-3.9576 0,-7.9154 0,-11.8731 -1.41429,0 -2.82858,0 -4.24287,0 l 0,0.087 0,0.087 z m 27.42086,0 c 0,3.9592 0,7.9185 0,11.8777 3.75727,0 7.51453,0 11.27179,0 0,-0.801 0,-1.602 0,-2.4027 -2.92144,0 -5.84288,0 -8.76432,0 0,-0.8967 -1e-5,-1.7932 0,-2.6898 2.92144,0 5.84288,0 8.76432,0 0,-2.3196 0,-4.6394 0,-6.9593 -3.75726,0 -7.51452,0 -11.27179,0 l 0,0.087 0,0.087 z m 14.05767,0 c 0,3.9295 0,7.8589 0,11.7883 0.86471,0 1.72942,0 2.59412,0 0,-3.1567 0,-6.3134 0,-9.4702 1.70658,0 3.41315,0 5.11972,0 0,-0.8307 0,-1.6614 0,-2.4922 -2.57127,0 -5.14255,0 -7.71384,0 l 0,0.087 0,0.087 z m -5.29335,2.3181 c 0,0.688 0,1.3763 0,2.0644 -2.08562,0 -4.17124,0 -6.25685,0 0,-0.6881 -1e-5,-1.3764 0,-2.0644 2.08561,0 4.17123,0 6.25685,0 z"
       id="text8439-8"
       inkscape:connector-curvature="0" />
  </g>
</svg>
