<?xml version="1.0" encoding="UTF-8" standalone="no"?>
<!-- Created with Inkscape (http://www.inkscape.org/) -->

<svg
   xmlns:dc="http://purl.org/dc/elements/1.1/"
   xmlns:cc="http://creativecommons.org/ns#"
   xmlns:rdf="http://www.w3.org/1999/02/22-rdf-syntax-ns#"
   xmlns:svg="http://www.w3.org/2000/svg"
   xmlns="http://www.w3.org/2000/svg"
   xmlns:sodipodi="http://sodipodi.sourceforge.net/DTD/sodipodi-0.dtd"
   xmlns:inkscape="http://www.inkscape.org/namespaces/inkscape"
   width="142.73"
   height="50"
   viewBox="0 0 142.72999 49.999996"
   id="svg7605"
   version="1.1"
   inkscape:version="0.91 r13725"
   sodipodi:docname="wechat.svg"
   inkscape:export-filename="C:\Users\10000_000\Desktop\twitter.png"
   inkscape:export-xdpi="90"
   inkscape:export-ydpi="90">
  <defs
     id="defs7607">
    <marker
       inkscape:stockid="Arrow1Lstart"
       orient="auto"
       refY="0"
       refX="0"
       id="Arrow1Lstart"
       style="overflow:visible"
       inkscape:isstock="true">
      <path
         id="path4254"
         d="M 0,0 5,-5 -12.5,0 5,5 0,0 Z"
         style="fill-rule:evenodd;stroke:#000000;stroke-width:1pt"
         transform="matrix(0.8,0,0,0.8,10,0)"
         inkscape:connector-curvature="0" />
    </marker>
  </defs>
  <sodipodi:namedview
     id="base"
     pagecolor="#ffffff"
     bordercolor="#666666"
     borderopacity="1.0"
     inkscape:pageopacity="0.0"
     inkscape:pageshadow="2"
     inkscape:zoom="4"
     inkscape:cx="56.461295"
     inkscape:cy="-7.1067275"
     inkscape:document-units="px"
     inkscape:current-layer="layer1"
     showgrid="true"
     showguides="false"
     inkscape:snap-page="false"
     inkscape:snap-grids="true"
     inkscape:snap-to-guides="true"
     inkscape:window-width="1366"
     inkscape:window-height="705"
     inkscape:window-x="-8"
     inkscape:window-y="-8"
     inkscape:window-maximized="1"
     units="px">
    <inkscape:grid
       type="xygrid"
       id="grid8437" />
  </sodipodi:namedview>
  <metadata
     id="metadata7610">
    <rdf:RDF>
      <cc:Work
         rdf:about="">
        <dc:format>image/svg+xml</dc:format>
        <dc:type
           rdf:resource="http://purl.org/dc/dcmitype/StillImage" />
        <dc:title></dc:title>
      </cc:Work>
    </rdf:RDF>
  </metadata>
  <g
     inkscape:label="Layer 1"
     inkscape:groupmode="layer"
     id="layer1"
     transform="translate(0,-1002.3622)">
    <rect
       style="color:#000000;clip-rule:nonzero;display:inline;overflow:visible;visibility:visible;opacity:1;isolation:auto;mix-blend-mode:normal;color-interpolation:sRGB;color-interpolation-filters:linearRGB;solid-color:#000000;solid-opacity:1;fill:#eeeeee;fill-opacity:1;fill-rule:nonzero;stroke:none;stroke-width:1;stroke-linecap:butt;stroke-linejoin:miter;stroke-miterlimit:4;stroke-dasharray:none;stroke-dashoffset:0;stroke-opacity:1;color-rendering:auto;image-rendering:auto;shape-rendering:auto;text-rendering:auto;enable-background:accumulate"
       id="rect7613"
       width="142.73"
       height="50"
       x="4.7924073e-007"
       y="1002.3622" />
    <path
       style="font-style:normal;font-weight:normal;font-size:266.55096436px;line-height:125%;font-family:sans-serif;letter-spacing:0px;word-spacing:0px;fill:#3a4750;fill-opacity:1;stroke:none;stroke-width:1px;stroke-linecap:butt;stroke-linejoin:miter;stroke-opacity:1;marker-end:"
       d="m 125.60753,1020.0339 c 0,0.9258 0,1.8516 0,2.7775 -0.5958,0 -1.1916,0 -1.78741,0 0,0.8294 0,1.6589 0,2.4883 0.5958,0 1.19161,0 1.78741,0 0,3.1279 0,6.2559 0,9.3838 2.34873,0 4.69746,0 7.04619,0 0,-0.7996 0,-1.5992 0,-2.3988 -1.48951,0 -2.97901,0 -4.46852,0 0,-2.3283 0,-4.6567 0,-6.985 1.51929,0 3.03858,0 4.55787,0 0,-0.8294 0,-1.6589 0,-2.4883 -1.51929,0 -3.03858,0 -4.55787,0 0,-0.9831 0,-1.9661 0,-2.9492 -0.85922,0 -1.71845,0 -2.57767,0 l 0,0.086 0,0.086 z M 50,1020.2126 c 0,4.8534 0,9.7068 0,14.5602 4.821292,0 9.642585,0 14.463877,0 0,-4.9106 0,-9.8212 0,-14.7319 -0.859169,0 -1.718337,0 -2.577507,0 0,4.1111 0,8.2221 0,12.3331 -1.136785,0 -2.27357,0 -3.410355,0 0,-4.111 0,-8.222 0,-12.3331 -0.7996,0 -1.5992,0 -2.398799,0 0,4.1111 0,8.2221 0,12.3331 -1.196355,0 -2.392709,0 -3.589063,0 0,-4.111 0,-8.222 0,-12.3331 -0.829384,0 -1.658769,0 -2.488153,0 l 0,0.086 0,0.086 z m 32.530899,0 c 0,4.8534 0,9.7068 0,14.5602 3.748882,0 7.497764,0 11.246646,0 0,-0.7996 0,-1.5992 0,-2.3988 -2.830089,0 -5.660177,0 -8.490265,0 0,-3.3114 0,-6.6228 0,-9.9343 2.830088,0 5.660176,0 8.490265,0 0,-0.7996 0,-1.5992 0,-2.3988 -3.748882,0 -7.497764,0 -11.246646,0 l 0,0.086 0,0.086 z m 13.941838,0 c 0,4.8534 0,9.7068 0,14.5602 0.859225,0 1.718449,0 2.577674,0 0,-3.1875 0,-6.3751 0,-9.5626 1.970859,0 3.941729,0 5.912589,0 0,3.1875 0,6.3751 0,9.5626 0.85917,0 1.71834,0 2.57751,0 0,-3.9871 0,-7.9743 0,-11.9614 -2.83003,0 -5.66007,0 -8.490099,0 0,-0.9235 0,-1.847 0,-2.7705 -0.859225,0 -1.718449,0 -2.577674,0 l 0,0.086 0,0.086 z m -28.777379,2.7704 c 0,3.9598 0,7.9195 0,11.8792 3.86802,0 7.73604,0 11.604061,0 0,-0.7996 0,-1.5992 0,-2.3988 -3.008796,0 -6.017592,0 -9.026387,0 0,-0.8984 0,-1.7968 0,-2.6952 3.008795,0 6.017591,0 9.026387,0 0,-2.3189 0,-4.6379 0,-6.9568 -3.868021,0 -7.736041,0 -11.604061,0 l 0,0.086 0,0.086 z m 45.579032,0 c 0,0.7723 0,1.5445 0,2.3167 1.87682,0 3.75363,0 5.63045,0 0,0.7792 0,1.5585 0,2.3378 -2.8003,0 -5.60061,0 -8.40091,0 0,2.4082 0,4.8165 0,7.2247 3.68925,0 7.37851,0 11.06777,0 0,-4.0169 0,-8.0339 0,-12.0508 -2.76577,0 -5.53154,0 -8.29731,0 l 0,0.086 0,0.086 z m -36.552646,2.3167 c 0,0.6898 0,1.3797 0,2.0695 -2.14957,0 -4.299141,0 -6.448712,0 0,-0.6898 0,-1.3797 0,-2.0695 2.149571,0 4.299142,0 6.448712,0 z m 42.183096,4.7366 c 0,0.7792 0,1.5585 0,2.3377 -1.94108,0 -3.88216,0 -5.82324,0 0,-0.7792 0,-1.5585 0,-2.3377 1.94108,0 3.88216,0 5.82324,0 z"
       id="text4147"
       inkscape:connector-curvature="0" />
    <text
       xml:space="preserve"
       style="font-style:normal;font-weight:normal;font-size:40px;line-height:125%;font-family:sans-serif;letter-spacing:0px;word-spacing:0px;fill:#000000;fill-opacity:1;stroke:none;stroke-width:1px;stroke-linecap:butt;stroke-linejoin:miter;stroke-opacity:1"
       x="75"
       y="1077.3622"
       id="text4151"
       sodipodi:linespacing="125%"><tspan
         sodipodi:role="line"
         id="tspan4153"
         x="75"
         y="1077.3622" /></text>
    <g
       id="g4166"
       transform="matrix(0.05859375,0,0,0.05859146,10,1012.3622)">
      <g
         id="bg_1_">
        <g
           id="g4">
          <polygon
             style="fill:#51b419"
             id="polygon6"
             points="512,0 0,0 0,512 355,512 512,354 " />
        </g>
      </g>
      <g
         id="WeChat_3_">
        <g
           id="chat_1">
          <g
             id="g10">
            <path
               style="fill:#adcefc"
               inkscape:connector-curvature="0"
               id="path12"
               d="M 186.066,77 C 114.232,77 56,126.772 56,188.17 c 0,35.606 19.608,67.279 50.073,87.626 l -11.85,40.565 45.153,-24.43 c 14.496,4.769 30.228,7.409 46.689,7.409 71.833,0 130.066,-49.773 130.066,-111.171 C 316.131,126.771 257.899,77 186.066,77 Z" />
          </g>
        </g>
        <g
           id="chat_1_1_">
          <g
             id="g15">
            <path
               style="fill:#f6f6f6"
               inkscape:connector-curvature="0"
               id="path17"
               d="m 417,269.319 c 0,-51.574 -48.963,-93.383 -109.361,-93.383 -60.399,0 -109.362,41.809 -109.362,93.383 0,51.574 48.963,93.383 109.362,93.383 13.841,0 27.068,-2.218 39.257,-6.224 L 384.861,377 374.897,342.925 C 400.513,325.834 417,299.229 417,269.319 Z" />
          </g>
        </g>
        <g
           id="eyes">
          <g
             id="g20">
            <path
               style="clip-rule:evenodd;fill:#284043;fill-rule:evenodd"
               inkscape:connector-curvature="0"
               id="path22"
               d="m 140.941,131.255 c -9.969,0 -18.05,8.098 -18.05,18.086 0,9.987 8.082,18.085 18.05,18.085 9.968,0 18.05,-8.098 18.05,-18.085 0,-9.988 -8.081,-18.086 -18.05,-18.086 z m 90.25,0 c -9.969,0 -18.05,8.098 -18.05,18.086 0,9.987 8.082,18.085 18.05,18.085 9.968,0 18.05,-8.098 18.05,-18.085 0,-9.988 -8.081,-18.086 -18.05,-18.086 z m 43.001,94.682 c -7.916,0 -14.334,6.43 -14.334,14.361 0,7.931 6.418,14.361 14.334,14.361 7.917,0 14.334,-6.43 14.334,-14.361 0,-7.931 -6.417,-14.361 -14.334,-14.361 z m 73.262,0 c -7.916,0 -14.334,6.43 -14.334,14.361 0,7.931 6.418,14.361 14.334,14.361 7.917,0 14.334,-6.43 14.334,-14.361 0,-7.931 -6.417,-14.361 -14.334,-14.361 z" />
          </g>
        </g>
      </g>
      <g
         id="Clip_Light_1_">
        <g
           id="g25">
          <polygon
             style="fill:#6cd630"
             id="polygon27"
             points="355,354 355,512.02 512,354 " />
        </g>
      </g>
      <g
         style="opacity:0.10199998"
         id="Shadow_Clip_1_">
        <g
           id="g30">
          <polygon
             id="polygon32"
             points="198,512 355,512 355,353.98 " />
        </g>
      </g>
    </g>
  </g>
</svg>
