<?xml version="1.0" encoding="UTF-8" standalone="no"?>
<!-- Created with Inkscape (http://www.inkscape.org/) -->

<svg
   xmlns:dc="http://purl.org/dc/elements/1.1/"
   xmlns:cc="http://creativecommons.org/ns#"
   xmlns:rdf="http://www.w3.org/1999/02/22-rdf-syntax-ns#"
   xmlns:svg="http://www.w3.org/2000/svg"
   xmlns="http://www.w3.org/2000/svg"
   xmlns:sodipodi="http://sodipodi.sourceforge.net/DTD/sodipodi-0.dtd"
   xmlns:inkscape="http://www.inkscape.org/namespaces/inkscape"
   width="124.497"
   height="50"
   viewBox="0 0 124.497 49.999996"
   id="svg7605"
   version="1.1"
   inkscape:version="0.91 r13725"
   sodipodi:docname="weibo.svg"
   inkscape:export-filename="C:\Users\10000_000\Desktop\twitter.png"
   inkscape:export-xdpi="90"
   inkscape:export-ydpi="90">
  <defs
     id="defs7607">
    <marker
       inkscape:stockid="Arrow1Lstart"
       orient="auto"
       refY="0"
       refX="0"
       id="Arrow1Lstart"
       style="overflow:visible"
       inkscape:isstock="true">
      <path
         id="path4254"
         d="M 0,0 5,-5 -12.5,0 5,5 0,0 Z"
         style="fill-rule:evenodd;stroke:#000000;stroke-width:1pt"
         transform="matrix(0.8,0,0,0.8,10,0)"
         inkscape:connector-curvature="0" />
    </marker>
  </defs>
  <sodipodi:namedview
     id="base"
     pagecolor="#ffffff"
     bordercolor="#666666"
     borderopacity="1.0"
     inkscape:pageopacity="0.0"
     inkscape:pageshadow="2"
     inkscape:zoom="4"
     inkscape:cx="56.461295"
     inkscape:cy="2.8932725"
     inkscape:document-units="px"
     inkscape:current-layer="layer1"
     showgrid="true"
     showguides="false"
     inkscape:snap-page="false"
     inkscape:snap-grids="true"
     inkscape:snap-to-guides="true"
     inkscape:window-width="1366"
     inkscape:window-height="705"
     inkscape:window-x="-8"
     inkscape:window-y="-8"
     inkscape:window-maximized="1"
     units="px">
    <inkscape:grid
       type="xygrid"
       id="grid8437" />
  </sodipodi:namedview>
  <metadata
     id="metadata7610">
    <rdf:RDF>
      <cc:Work
         rdf:about="">
        <dc:format>image/svg+xml</dc:format>
        <dc:type
           rdf:resource="http://purl.org/dc/dcmitype/StillImage" />
        <dc:title></dc:title>
      </cc:Work>
    </rdf:RDF>
  </metadata>
  <g
     inkscape:label="Layer 1"
     inkscape:groupmode="layer"
     id="layer1"
     transform="translate(0,-1002.3622)">
    <rect
       style="color:#000000;clip-rule:nonzero;display:inline;overflow:visible;visibility:visible;opacity:1;isolation:auto;mix-blend-mode:normal;color-interpolation:sRGB;color-interpolation-filters:linearRGB;solid-color:#000000;solid-opacity:1;fill:#eeeeee;fill-opacity:1;fill-rule:nonzero;stroke:none;stroke-width:1;stroke-linecap:butt;stroke-linejoin:miter;stroke-miterlimit:4;stroke-dasharray:none;stroke-dashoffset:0;stroke-opacity:1;color-rendering:auto;image-rendering:auto;shape-rendering:auto;text-rendering:auto;enable-background:accumulate"
       id="rect7613"
       width="124.497"
       height="50"
       x="4.7924073e-007"
       y="1002.3622" />
    <path
       style="font-style:normal;font-variant:normal;font-weight:normal;font-stretch:normal;font-size:343.72027588px;line-height:125%;font-family:ZHSRXT2011-GB;-inkscape-font-specification:ZHSRXT2011-GB;letter-spacing:0px;word-spacing:0px;fill:#3a4750;fill-opacity:1;stroke:none;stroke-width:1px;stroke-linecap:butt;stroke-linejoin:miter;stroke-opacity:1;marker-end:"
       d="m 83.237749,1019.996 c 0,0.7034 0,1.4068 0,2.1102 0.837805,0 1.67561,0 2.513416,0 0,-0.748 0,-1.496 0,-2.244 -0.837806,0 -1.675611,0 -2.513416,0 l 0,0.067 0,0.067 z M 50,1020.1757 c 0,4.8656 0,9.7311 0,14.5967 4.820364,0 9.640728,0 14.461092,0 1e-6,-4.9102 1e-6,-9.8203 0,-14.7305 -0.837805,0 -1.67561,0 -2.513415,0 0,4.1322 0,8.2645 0,12.3968 -1.168458,0 -2.336917,0 -3.505375,0 0,-4.1323 0,-8.2646 0,-12.3968 -0.777912,0 -1.555825,0 -2.333737,0 0,4.1322 0,8.2645 0,12.3968 -1.228308,0 -2.456616,0 -3.684923,0 0,-4.1323 0,-8.2646 0,-12.3968 -0.807881,0 -1.615761,0 -2.423642,0 l 0,0.067 0,0.067 z m 39.07686,0 c 0,4.8955 0,9.791 0,14.6865 3.622591,0 7.245182,0 10.867773,0 0,-4.0118 0,-8.0237 0,-12.0355 -2.754861,0 -5.509722,0 -8.264583,0 0,-0.9283 0,-1.8565 0,-2.7848 -0.86773,0 -1.73546,0 -2.60319,0 l 0,0.067 0,0.067 z m -21.290203,2.7848 c 0,3.9672 0,7.9345 0,11.9017 3.862163,0 7.724326,0 11.586489,0 0,-0.7779 0,-1.5558 0,-2.3337 -3.024357,0 -6.048715,0 -9.073073,0 0,-0.9289 0,-1.8578 0,-2.7867 3.024358,0 6.048716,0 9.073073,0 0,-2.305 0,-4.6101 0,-6.9151 -3.862163,0 -7.724326,0 -11.586489,0 l 0,0.067 0,0.067 z m 13.654432,0 c 0,0.7034 0,1.4067 0,2.11 0.598887,0 1.197773,0 1.79666,0 0,3.2041 0,6.4081 0,9.6122 0.837805,0 1.67561,0 2.513416,0 0,-3.952 0,-7.904 0,-11.856 -1.436692,0 -2.873384,0 -4.310076,0 l 0,0.067 0,0.067 z m 21.919011,0 c 0,3.9373 0,7.8746 0,11.8119 3.71241,0 7.42482,0 11.13723,0 0,-3.9819 0,-7.9638 0,-11.9457 -3.71241,0 -7.42482,0 -11.13723,0 l 0,0.067 0,0.067 z m -5.928883,2.1999 c 0,2.3962 0,4.7923 0,7.1884 -1.917056,0 -3.834111,0 -5.751167,0 0,-2.3961 0,-4.7922 0,-7.1884 1.917056,0 3.834111,0 5.751167,0 z m 14.552693,0 c 0,2.4261 0,4.8522 0,7.2783 -2.03679,0 -4.07359,0 -6.11039,0 0,-2.4261 0,-4.8522 0,-7.2783 2.0368,0 4.0736,0 6.11039,0 z m -35.124179,0.09 c 0,0.7193 0,1.4386 0,2.1579 -2.186553,0 -4.373105,0 -6.559658,0 0,-0.7193 0,-1.4386 0,-2.1579 2.186553,0 4.373105,0 6.559658,0 z"
       id="text4147"
       inkscape:connector-curvature="0" />
    <g
       id="g4166"
       transform="matrix(0.11717651,0,0,0.11717697,10.001406,1012.3634)">
      <g
         style="enable-background:new"
         id="Background_1_">
        <g
           id="Background">
          <g
             id="g6">
            <path
               id="path8"
               style="clip-rule:evenodd;fill:#ffe591;fill-rule:evenodd"
               d="M 249.422,30.68 C 246.701,25.694 243.606,21.143 239.629,17.159 235.637,13.161 230.92,9.572 225.926,6.845 217.545,2.269 207.138,-0.01 196.924,-0.01 l -137.849,0 c -10.444,0 -20.542,2.344 -29.265,6.948 -5.022,2.649 -9.588,6.146 -13.502,10.126 -3.932,3.998 -7.491,8.488 -10.046,13.572 -4.289,8.533 -6.274,18.478 -6.274,28.65 l 0,137.43 c 0,10.326 1.671,20.678 6.296,29.134 2.681,4.9 6.191,9.86 10.087,13.795 3.934,3.97 8.583,7.225 13.503,9.955 8.465,4.7 18.842,6.413 29.201,6.413 l 137.849,0 c 10.568,0 20.399,-1.523 28.982,-6.401 4.739,-2.692 9.879,-6.113 13.687,-9.966 3.923,-3.968 7.2,-8.851 9.886,-13.799 4.566,-8.415 6.533,-18.874 6.533,-29.131 l 0,-137.431 c 0,-10.307 -1.981,-20.161 -6.59,-28.605 z"
               inkscape:connector-curvature="0" />
          </g>
        </g>
      </g>
      <g
         style="enable-background:new"
         id="Shape_4_1_">
        <g
           id="Shape_4">
          <g
             id="g12">
            <path
               id="path14"
               style="clip-rule:evenodd;fill:#ffffff;fill-rule:evenodd"
               d="m 169.217,151.074 c -2.088,-20.866 -29.861,-35.239 -62.04,-32.095 -32.171,3.145 -56.568,22.611 -54.478,43.479 2.09,20.876 29.865,35.248 62.039,32.11 32.178,-3.143 56.565,-22.611 54.479,-43.494 z"
               inkscape:connector-curvature="0" />
          </g>
        </g>
      </g>
      <g
         style="enable-background:new"
         id="Shape_3_1_">
        <g
           id="Shape_3">
          <g
             id="g18">
            <path
               id="path20"
               style="clip-rule:evenodd;fill:#cd201f;fill-rule:evenodd"
               d="m 179.092,125.276 c -2.738,-0.812 -4.615,-1.361 -3.18,-4.917 3.104,-7.715 3.425,-14.372 0.059,-19.121 -6.311,-8.908 -23.572,-8.427 -43.359,-0.239 0,-0.011 -6.212,2.687 -4.625,-2.184 3.044,-9.67 2.585,-17.771 -2.151,-22.444 -10.736,-10.616 -39.284,0.399 -63.764,24.585 -18.333,18.12 -28.979,37.325 -28.979,53.928 0,31.76 41.215,51.07 81.536,51.07 52.858,0 88.019,-30.345 88.019,-54.443 0,-14.559 -12.409,-22.819 -23.556,-26.235 z m -64.354,69.293 c -32.174,3.138 -59.949,-11.234 -62.039,-32.11 -2.09,-20.868 22.307,-40.335 54.478,-43.479 32.179,-3.145 59.952,11.229 62.04,32.095 2.086,20.882 -22.301,40.35 -54.479,43.494 z"
               inkscape:connector-curvature="0" />
          </g>
        </g>
      </g>
      <g
         style="enable-background:new"
         id="Shape_2_1_">
        <g
           id="Shape_2">
          <g
             id="g24">
            <path
               id="path26"
               style="clip-rule:evenodd;fill:#232323;fill-rule:evenodd"
               d="m 117.572,134.441 c -15.319,-3.905 -32.636,3.573 -39.29,16.802 -6.777,13.483 -0.225,28.456 15.254,33.354 16.032,5.063 34.93,-2.701 41.5,-17.255 6.48,-14.235 -1.61,-28.888 -17.464,-32.901 z m -11.698,34.448 c -3.115,4.863 -9.783,6.996 -14.806,4.749 -4.949,-2.204 -6.411,-7.861 -3.296,-12.604 3.076,-4.729 9.52,-6.834 14.505,-4.785 5.044,2.105 6.654,7.72 3.597,12.64 z m 10.257,-12.904 c -1.125,1.887 -3.615,2.794 -5.565,2.007 -1.917,-0.772 -2.518,-2.878 -1.429,-4.735 1.122,-1.844 3.513,-2.744 5.427,-1.999 1.944,0.694 2.642,2.828 1.567,4.727 z"
               inkscape:connector-curvature="0" />
          </g>
        </g>
      </g>
      <g
         style="enable-background:new"
         id="Shape_1_1_">
        <g
           id="Shape_1">
          <g
             id="g30">
            <path
               id="path32"
               style="clip-rule:evenodd;fill:#dd880c;fill-rule:evenodd"
               d="M 212.111,67.308 C 199.631,52.905 181.22,47.414 164.229,51.175 l -0.007,0 c -3.932,0.876 -6.438,4.901 -5.598,8.986 0.839,4.089 4.706,6.701 8.639,5.829 12.088,-2.672 25.168,1.236 34.043,11.467 8.863,10.23 11.271,24.185 7.475,36.416 l 0.002,0.004 c -1.236,3.986 0.856,8.247 4.689,9.535 3.817,1.288 7.922,-0.891 9.16,-4.864 0,-0.008 0,-0.022 0.003,-0.03 5.33,-17.207 1.96,-36.822 -10.524,-51.21 z m -42.49,10.156 c -3.383,0.751 -5.54,4.218 -4.815,7.743 0.726,3.51 4.052,5.767 7.429,5.001 l 0,0.007 c 4.048,-0.89 8.436,0.409 11.404,3.831 2.975,3.43 3.773,8.104 2.497,12.203 l 0.007,0 c -1.061,3.422 0.738,7.103 4.03,8.214 3.292,1.097 6.823,-0.773 7.884,-4.203 2.603,-8.383 0.977,-17.936 -5.111,-24.95 -6.075,-7.014 -15.045,-9.678 -23.325,-7.846 z"
               inkscape:connector-curvature="0" />
          </g>
        </g>
      </g>
    </g>
  </g>
</svg>
