<?xml version="1.0" encoding="UTF-8" standalone="no"?>
<!-- Created with Inkscape (http://www.inkscape.org/) -->

<svg
   xmlns:dc="http://purl.org/dc/elements/1.1/"
   xmlns:cc="http://creativecommons.org/ns#"
   xmlns:rdf="http://www.w3.org/1999/02/22-rdf-syntax-ns#"
   xmlns:svg="http://www.w3.org/2000/svg"
   xmlns="http://www.w3.org/2000/svg"
   xmlns:sodipodi="http://sodipodi.sourceforge.net/DTD/sodipodi-0.dtd"
   xmlns:inkscape="http://www.inkscape.org/namespaces/inkscape"
   width="123.195"
   height="50"
   viewBox="0 0 123.195 49.999996"
   id="svg7605"
   version="1.1"
   inkscape:version="0.91 r13725"
   sodipodi:docname="zhihu.svg"
   inkscape:export-filename="C:\Users\10000_000\Desktop\twitter.png"
   inkscape:export-xdpi="90"
   inkscape:export-ydpi="90">
  <defs
     id="defs7607">
    <marker
       inkscape:stockid="Arrow1Lstart"
       orient="auto"
       refY="0"
       refX="0"
       id="Arrow1Lstart"
       style="overflow:visible"
       inkscape:isstock="true">
      <path
         id="path4254"
         d="M 0,0 5,-5 -12.5,0 5,5 0,0 Z"
         style="fill-rule:evenodd;stroke:#000000;stroke-width:1pt"
         transform="matrix(0.8,0,0,0.8,10,0)"
         inkscape:connector-curvature="0" />
    </marker>
  </defs>
  <sodipodi:namedview
     id="base"
     pagecolor="#ffffff"
     bordercolor="#666666"
     borderopacity="1.0"
     inkscape:pageopacity="0.0"
     inkscape:pageshadow="2"
     inkscape:zoom="2"
     inkscape:cx="70.069522"
     inkscape:cy="13.725092"
     inkscape:document-units="px"
     inkscape:current-layer="layer1"
     showgrid="true"
     showguides="false"
     inkscape:snap-page="false"
     inkscape:snap-grids="true"
     inkscape:snap-to-guides="true"
     inkscape:window-width="1366"
     inkscape:window-height="705"
     inkscape:window-x="-8"
     inkscape:window-y="-8"
     inkscape:window-maximized="1"
     units="px">
    <inkscape:grid
       type="xygrid"
       id="grid8437" />
  </sodipodi:namedview>
  <metadata
     id="metadata7610">
    <rdf:RDF>
      <cc:Work
         rdf:about="">
        <dc:format>image/svg+xml</dc:format>
        <dc:type
           rdf:resource="http://purl.org/dc/dcmitype/StillImage" />
        <dc:title></dc:title>
      </cc:Work>
    </rdf:RDF>
  </metadata>
  <g
     inkscape:label="Layer 1"
     inkscape:groupmode="layer"
     id="layer1"
     transform="translate(0,-1002.3622)">
    <rect
       style="color:#000000;clip-rule:nonzero;display:inline;overflow:visible;visibility:visible;opacity:1;isolation:auto;mix-blend-mode:normal;color-interpolation:sRGB;color-interpolation-filters:linearRGB;solid-color:#000000;solid-opacity:1;fill:#eeeeee;fill-opacity:1;fill-rule:nonzero;stroke:none;stroke-width:1;stroke-linecap:butt;stroke-linejoin:miter;stroke-miterlimit:4;stroke-dasharray:none;stroke-dashoffset:0;stroke-opacity:1;color-rendering:auto;image-rendering:auto;shape-rendering:auto;text-rendering:auto;enable-background:accumulate"
       id="rect7613"
       width="123.195"
       height="50"
       x="4.7924073e-007"
       y="1002.3622" />
    <path
       style="font-style:normal;font-weight:normal;font-size:351.58798218px;line-height:125%;font-family:sans-serif;letter-spacing:0px;word-spacing:0px;fill:#3a4750;fill-opacity:1;stroke:none;stroke-width:1px;stroke-linecap:butt;stroke-linejoin:miter;stroke-opacity:1;marker-end:"
       d="m 80.491144,1019.9931 c 0,0.7026 0,1.4052 0,2.1078 0.836131,0 1.672261,0 2.508392,0 0,-0.7462 0,-1.4925 0,-2.2387 -0.836131,0 -1.672261,0 -2.508392,0 l 0,0.065 0,0.065 z m -30.015972,0.1797 c 0,0.7925 0,1.585 0,2.3775 2.597556,0 5.195112,0 7.792669,0 -2.755947,4.074 -5.511894,8.148 -8.267841,12.2221 4.349609,0 8.699218,0 13.048828,0 0,-0.8362 0,-1.6723 0,-2.5084 -2.777844,0 -5.555688,0 -8.333531,0 2.726001,-4.0741 5.451979,-8.1481 8.177995,-12.2221 -4.139374,0 -8.278747,0 -12.41812,0 l 0,0.065 0,0.065 z m 14.918076,0 c 0,4.8665 0,9.733 0,14.5996 0.836131,0 1.672262,0 2.508393,0 0,-3.2053 0,-6.4107 0,-9.616 2.009704,0 4.019408,0 6.029113,0 0,3.2053 0,6.4107 0,9.616 0.836131,0 1.672261,0 2.508391,0 10e-7,-3.9816 0,-7.9631 0,-11.9447 -2.845834,0 -5.69167,0 -8.537504,0 0,-0.9286 0,-1.8572 0,-2.7858 -0.836131,0 -1.672262,0 -2.508393,0 l 0,0.065 0,0.065 z m 20.939266,0 c 0,4.8665 0,9.733 0,14.5996 0.866122,0 1.732244,0 2.598366,0 0,-2.2168 0,-4.4335 0,-6.6503 2.399078,0 4.798155,0 7.197233,0 0,2.2168 0,4.4335 0,6.6503 0.866122,0 1.732244,0 2.598366,0 0,-4.9102 0,-9.8204 0,-14.7305 -0.866122,0 -1.732244,0 -2.598366,0 0,1.9771 0,3.9542 0,5.9313 -2.399078,0 -4.798155,0 -7.197233,0 0,-1.9771 0,-3.9542 0,-5.9313 -0.866122,0 -1.732244,0 -2.598366,0 l 0,0.065 0,0.065 z m -7.638793,2.7858 c 0,0.7027 0,1.4053 0,2.108 0.599141,0 1.198282,0 1.797423,0 0,3.2053 0,6.4106 0,9.6159 0.836131,0 1.672261,0 2.508392,0 0,-3.9516 0,-7.9032 0,-11.8548 -1.435272,0 -2.870543,0 -4.305815,0 l 0,0.066 0,0.065 z m 23.275889,0 c 0,3.9679 0,7.9357 0,11.9036 3.74186,0 7.48373,0 11.22559,0 0,-4.0115 0,-8.023 0,-12.0345 -0.86608,0 -1.73216,0 -2.59824,0 0,3.2653 0,6.5305 0,9.7958 -2.03965,0 -4.0793,0 -6.11896,0 0,-3.2653 0,-6.5305 0,-9.7958 -0.83613,0 -1.67226,0 -2.50839,0 l 0,0.066 0,0.065 z"
       id="text4177"
       inkscape:connector-curvature="0" />
    <g
       transform="matrix(0.11717651,0,0,0.11717651,10.001406,1012.3635)"
       id="g4148">
      <g
         style="enable-background:new"
         id="Background_1_">
        <g
           id="Background">
          <g
             id="g6">
            <path
               inkscape:connector-curvature="0"
               id="path8"
               style="clip-rule:evenodd;fill:#1989c8;fill-rule:evenodd"
               d="m 249.422,30.68 c -2.721,-4.986 -5.816,-9.537 -9.793,-13.521 -3.992,-3.998 -8.709,-7.588 -13.703,-10.314 -8.381,-4.576 -18.788,-6.856 -29.002,-6.856 l -137.849,0 c -10.444,0 -20.542,2.345 -29.265,6.948 -5.022,2.651 -9.588,6.147 -13.502,10.127 -3.932,3.998 -7.491,8.488 -10.046,13.572 -4.289,8.533 -6.274,18.477 -6.274,28.649 l 0,137.431 c 0,10.326 1.671,20.678 6.296,29.134 2.681,4.9 6.191,9.861 10.087,13.794 3.934,3.971 8.583,7.226 13.503,9.956 8.465,4.7 18.842,6.413 29.201,6.413 l 137.849,0 c 10.568,0 20.399,-1.523 28.982,-6.401 4.739,-2.692 9.879,-6.114 13.687,-9.966 3.923,-3.969 7.2,-8.851 9.886,-13.798 4.566,-8.416 6.533,-18.875 6.533,-29.132 l 0,-137.432 c 0,-10.306 -1.981,-20.16 -6.59,-28.604 z" />
          </g>
        </g>
      </g>
      <g
         style="enable-background:new"
         id="Shape_1_1_">
        <g
           id="Shape_1">
          <g
             id="g12">
            <path
               inkscape:connector-curvature="0"
               id="path14"
               style="clip-rule:evenodd;fill:#ffffff;fill-rule:evenodd"
               d="m 97.396,138.936 c 23.78,0 14.415,0.017 37.703,0.017 -0.188,-10.444 -2.423,-14.207 -3.933,-14.376 -23.826,0 -4.903,-0.009 -32.721,-0.009 0.061,-0.952 1.248,-24.032 1.711,-44.651 l 30.967,0 c 0.759,-7.608 -1.071,-14.187 -4.518,-14.604 -42.003,0 -16.319,0.046 -54.921,0.046 0.846,-3.268 1.864,-7.133 3.037,-10.841 1.802,-5.696 3.832,-11.117 4.768,-13.345 -0.765,-0.476 -2.093,-0.146 -5.421,0.646 -3.878,1.158 -6.114,2.305 -9.387,5.107 -1.708,1.462 -2.974,3.352 -3.993,5.457 -3.536,8.688 -10.581,32.93 -19.719,49.619 14.18,-0.85 21.152,-9.007 23.5,-15.481 0.874,-2.41 1.773,-4.649 2.288,-6.693 5.981,-0.046 10.551,-0.049 18.837,-0.049 0.087,8.2 -0.119,24.132 -1.449,44.707 -16.61,0 -24.322,-0.116 -33.836,-0.116 -4.892,1.327 -7.483,9.267 -8.266,14.46 0.046,0.046 0.092,0.092 0.138,0.138 21.417,0 17.475,0 40.296,0 -0.984,7.76 -1.297,11.573 -4.575,22.944 -5.571,16.796 -14.218,30.188 -26.335,42.239 -3.235,3.218 -7.735,7.293 -12.147,10.768 -0.138,0.184 -0.276,0.367 -0.414,0.552 4.15,3.599 18.522,-0.054 21.948,-1.242 2.776,-0.963 5.575,-1.706 7.592,-3.451 7.711,-6.67 17.196,-21.411 23.258,-43.514 21.914,25.576 26.99,33.265 32.509,39.648 l 0.552,0 c 1.743,-6.452 2.98,-16.668 0.69,-21.672 -0.153,-0.705 -0.728,-1.538 -1.335,-2.479 -10.986,-13.144 -10.833,-12.888 -22.761,-25.983 -7.073,5.667 -8.69,7.072 -8.69,7.072 0,0 1.647,-6.182 2.143,-8.358 1.581,-6.956 1.699,-10.107 2.484,-16.556 z M 216.435,63.021 c -35.401,0 -28.577,0.056 -70.083,0.056 -0.9,0 -2.043,0.842 -2.043,1.964 0,79.036 -0.008,11.016 -0.008,130.923 0,0.825 0.762,1.854 2.041,1.854 8.018,0 8.875,0.012 11.088,-0.01 0.637,0.004 1.936,7.142 4.764,14.982 15.087,-9.789 21.833,-13.955 25.261,-14.923 9.708,-0.046 27.491,-0.059 29.018,-0.059 0.787,0 1.738,-0.966 1.738,-1.902 0,-87.302 0.052,-41.637 0.052,-131.17 -0.001,-1.057 -1.186,-1.651 -1.828,-1.715 z M 203.377,181.97 c 0,0.567 -0.576,1.152 -1.053,1.152 -0.925,0 -9.195,0.008 -15.077,0.035 -0.208,0 -0.55,0.138 -0.82,0.324 -3.699,2.552 -9.214,6.085 -18.239,11.541 -1.552,-5.238 -2.928,-11.879 -3.314,-11.882 -1.34,0.014 0.373,0.006 -4.483,0.006 -0.775,0 -1.237,-0.623 -1.237,-1.123 0,-72.644 0.005,-55.591 0.005,-103.474 0,-0.68 0.692,-1.19 1.237,-1.19 25.146,0 20.291,-0.033 41.739,-0.033 0.523,0 1.275,0.503 1.275,1.143 -0.001,54.242 -0.033,50.61 -0.033,103.501 z" />
          </g>
        </g>
      </g>
    </g>
  </g>
</svg>
