<?xml version="1.0" encoding="UTF-8"?>
<svg width="144px" height="24px" viewBox="0 0 144 24" version="1.1" xmlns="http://www.w3.org/2000/svg" xmlns:xlink="http://www.w3.org/1999/xlink">
    <!-- Generator: Sketch 43.1 (39012) - http://www.bohemiancoding.com/sketch -->
    <title>logo</title>
    <desc>Created with Sketch.</desc>
    <defs></defs>
    <g id="logo" stroke="none" stroke-width="1" fill="none" fill-rule="evenodd">
        <g>
            <g>
                <polygon id="Shape" fill="#9563F9" points="0 14.1533966 0 4.94842951 8.44155384 0 16.8726386 4.92388605 16.8819444 9.19211103 4.07828135 16.6778671 8.43457446 19.2677867 12.7780721 16.682542 12.7780721 12.2296567 16.8761283 9.8477721 16.8761283 19.0527392 8.43341123 24 0 19.076114 0 14.8125639 12.7955205 7.32330168 8.44271707 4.73338203 4.09805624 7.31628926 4.09805624 11.7715121"></polygon>
                <path d="M20.8541667,1 L25.3981481,1 C27.1435272,1 28.4776188,1.49952684 29.400463,2.49859551 C30.3233071,3.49766417 30.7847222,4.89324947 30.7847222,6.68539326 L30.7847222,16.9747191 C30.7847222,19.0346545 30.2982302,20.5538341 29.3252315,21.5323034 C28.3522328,22.5107727 26.9529412,23 25.1273148,23 L20.8541667,23 L20.8541667,1 Z M23.8333333,20 L25.3150353,20 C26.2187729,20 26.8597865,19.7794894 27.2380952,19.3384615 C27.616404,18.8974337 27.8055556,18.2051329 27.8055556,17.2615385 L27.8055556,6.70769231 C27.8055556,5.84614954 27.6269124,5.17948954 27.2696208,4.70769231 C26.9123292,4.23589508 26.2608072,4 25.3150353,4 L23.8333333,4 L23.8333333,20 Z M33.7638889,1 L43.6944444,1 L43.6944444,4 L36.7430556,4 L36.7430556,10 L42.7013889,10 L42.7013889,13 L36.7430556,13 L36.7430556,20 L43.6944444,20 L43.6944444,23 L33.7638889,23 L33.7638889,1 Z M46.6736111,1 L49.6527778,1 L54.1215278,13 L58.5902778,1 L61.5694444,1 L61.5694444,23 L58.5902778,23 L58.5902778,9 L54.9310839,19 L53.2795894,19 L49.6527778,9 L49.6527778,23 L46.6736111,23 L46.6736111,1 Z M64.5486111,6.02762431 C64.5486111,5.11693836 64.7083114,4.31215819 65.0277169,3.61325967 C65.3471223,2.91436115 65.7676665,2.33724905 66.289362,1.88190608 C66.8110575,1.4265631 67.3966254,1.08241369 68.0460831,0.849447514 C68.6955408,0.61648134 69.3503121,0.5 70.0104167,0.5 C70.6705212,0.5 71.3252925,0.61648134 71.9747502,0.849447514 C72.624208,1.08241369 73.2097758,1.4265631 73.7314713,1.88190608 C74.2531669,2.33724905 74.673711,2.91436115 74.9931165,3.61325967 C75.3125219,4.31215819 75.4722222,5.11693836 75.4722222,6.02762431 L75.4722222,17.9723757 C75.4722222,18.9042404 75.3125219,19.7143152 74.9931165,20.4026243 C74.673711,21.0909335 74.2531669,21.6627509 73.7314713,22.1180939 C73.2097758,22.5734369 72.624208,22.9175863 71.9747502,23.1505525 C71.3252925,23.3835187 70.6705212,23.5 70.0104167,23.5 C69.3503121,23.5 68.6955408,23.3835187 68.0460831,23.1505525 C67.3966254,22.9175863 66.8110575,22.5734369 66.289362,22.1180939 C65.7676665,21.6627509 65.3471223,21.0909335 65.0277169,20.4026243 C64.7083114,19.7143152 64.5486111,18.9042404 64.5486111,17.9723757 L64.5486111,6.02762431 Z M67.5277778,18.1461538 C67.5277778,18.9525681 67.7736405,19.5464725 68.2653734,19.9278846 C68.7571063,20.3092968 69.3387815,20.5 70.0104167,20.5 C70.6820518,20.5 71.2637271,20.3092968 71.7554599,19.9278846 C72.2471928,19.5464725 72.4930556,18.9525681 72.4930556,18.1461538 L72.4930556,5.85384615 C72.4930556,5.04743187 72.2471928,4.45352755 71.7554599,4.07211538 C71.2637271,3.69070322 70.6820518,3.5 70.0104167,3.5 C69.3387815,3.5 68.7571063,3.69070322 68.2653734,4.07211538 C67.7736405,4.45352755 67.5277778,5.04743187 67.5277778,5.85384615 L67.5277778,18.1461538 Z M89.375,7.20303867 L86.1915476,7.20303867 L86.1915476,6.47237569 C86.1915476,5.73111968 86.0198926,5.09047231 85.6765774,4.55041436 C85.3332622,4.01035642 84.7558771,3.74033149 83.9444048,3.74033149 C83.5074581,3.74033149 83.1485431,3.82504519 82.8676488,3.99447514 C82.5867545,4.16390508 82.3682845,4.38098394 82.2122321,4.64571823 C82.0561798,4.91045252 81.9469448,5.21753969 81.8845238,5.56698895 C81.8221029,5.91643821 81.7908929,6.28176605 81.7908929,6.66298343 C81.7908929,7.10773703 81.8064979,7.48365408 81.8377083,7.79074586 C81.8689188,8.09783763 81.9469438,8.36256795 82.0717857,8.58494475 C82.1966276,8.80732155 82.378686,9.00322199 82.6179663,9.17265193 C82.8572466,9.34208188 83.1849516,9.51150928 83.6010913,9.68093923 L86.035496,10.6657459 C86.7429334,10.9410695 87.3151169,11.2640405 87.7520635,11.6346685 C88.1890101,12.0052965 88.5271185,12.4394542 88.7663988,12.9371547 C89.0056791,13.4348552 89.1669308,14.0066726 89.2501587,14.6526243 C89.3333867,15.298576 89.375,16.0345263 89.375,16.8604972 C89.375,17.8135407 89.28137,18.6977399 89.0941071,19.5131215 C88.9068443,20.3285032 88.5999459,21.0273912 88.1734028,21.6098066 C87.7468596,22.1922221 87.1798779,22.6528528 86.4724405,22.9917127 C85.7650031,23.3305726 84.9015263,23.5 83.8819841,23.5 C83.1121258,23.5 82.3942957,23.3623402 81.7284722,23.0870166 C81.0626488,22.8116929 80.4904654,22.4357759 80.0119048,21.9592541 C79.5333442,21.4827324 79.1536224,20.9162095 78.8727282,20.2596685 C78.5918339,19.6031275 78.4513889,18.8936502 78.4513889,18.1312155 L78.4513889,16.9240331 L81.6348413,16.9240331 L81.6348413,17.9406077 C81.6348413,18.5336125 81.8064963,19.0683678 82.1498115,19.5448895 C82.4931267,20.0214112 83.0705118,20.2596685 83.8819841,20.2596685 C84.4229657,20.2596685 84.8443007,20.1802494 85.146002,20.0214088 C85.4477032,19.8625683 85.6765766,19.6401948 85.832629,19.3542818 C85.9886813,19.0683687 86.087513,18.7136301 86.129127,18.2900552 C86.1707409,17.8664804 86.1915476,17.400555 86.1915476,16.8922652 C86.1915476,16.2992604 86.1707409,15.8121566 86.129127,15.4309392 C86.087513,15.0497219 85.9990847,14.7426347 85.8638393,14.5096685 C85.7285939,14.2767023 85.5413339,14.0860965 85.3020536,13.9378453 C85.0627733,13.7895941 84.7454716,13.6307559 84.3501389,13.461326 L82.0717857,12.5082873 C80.6985249,11.9364612 79.7778297,11.1793325 79.3096726,10.2368785 C78.8415155,9.29442439 78.6074405,8.11372717 78.6074405,6.69475138 C78.6074405,5.84760166 78.7218772,5.04282149 78.950754,4.28038674 C79.1796308,3.51795199 79.5177392,2.8614208 79.9650893,2.31077348 C80.4124394,1.76012616 80.9794212,1.32067383 81.6660516,0.992403315 C82.352682,0.664132797 83.1537388,0.5 84.069246,0.5 C84.8599114,0.5 85.5829432,0.648248978 86.2383631,0.944751381 C86.893783,1.24125378 87.4555631,1.63305465 87.9237202,2.12016575 C88.3918773,2.60727684 88.7507924,3.15262129 89.0004762,3.75621547 C89.25016,4.35980965 89.375,4.97927859 89.375,5.61464088 L89.375,7.20303867 Z M100.298611,7.17127072 L103.277778,7.17127072 L103.277778,5.90055249 C103.277778,5.11693899 103.139855,4.39157792 102.864005,3.72444751 C102.588154,3.05731711 102.207487,2.48549962 101.721991,2.0089779 C101.236494,1.53245618 100.662735,1.16183374 100.000694,0.897099448 C99.3386541,0.632365159 98.6214545,0.5 97.8490741,0.5 C97.0325576,0.5 96.2877734,0.632365159 95.6146991,0.897099448 C94.9416247,1.16183374 94.3623481,1.52716157 93.8768519,1.99309392 C93.3913556,2.45902627 93.016205,3.00966533 92.7513889,3.64502762 C92.4865728,4.28038992 92.3541667,4.96868874 92.3541667,5.70994475 L92.3541667,18.1629834 C92.3541667,19.2007418 92.5251912,20.0584681 92.8672454,20.7361878 C93.2092995,21.4139076 93.6451362,21.9592521 94.1747685,22.3722376 C94.7044008,22.7852231 95.3002282,23.0764264 95.9622685,23.2458564 C96.6243089,23.4152863 97.2753054,23.5 97.9152778,23.5 C98.6655902,23.5 99.366239,23.3570456 100.017245,23.0711326 C100.668252,22.7852196 101.236494,22.4040079 101.721991,21.9274862 C102.207487,21.4509645 102.588154,20.8950308 102.864005,20.2596685 C103.139855,19.6243062 103.277778,18.9571858 103.277778,18.2582873 L103.277778,16.8604972 L100.298611,16.8604972 L100.298611,18.0098479 C100.298611,19.3851209 99.196655,20.5 97.8159722,20.5 C96.4448486,20.5 95.3333333,19.3845825 95.3333333,18.0098479 L95.3333333,5.99015208 C95.3333333,4.61487906 96.4352894,3.5 97.8159722,3.5 C99.1870958,3.5 100.298611,4.61541748 100.298611,5.99015208 L100.298611,7.17127072 Z M106.256944,1 L116.1875,1 L116.1875,4 L109.236111,4 L109.236111,10 L115.194444,10 L115.194444,13 L109.236111,13 L109.236111,20 L116.1875,20 L116.1875,23 L106.256944,23 L106.256944,1 Z M119.166667,1 L122.145833,1 L127.111111,14.5 L127.111111,1 L130.090278,1 L130.090278,23 L127.111111,23 L122.145833,9.5 L122.145833,23 L119.166667,23 L119.166667,1 Z M133.069444,1 L143,1 L143,4 L136.048611,4 L136.048611,10 L142.006944,10 L142.006944,13 L136.048611,13 L136.048611,20 L143,20 L143,23 L133.069444,23 L133.069444,1 Z" id="DEMOSCENE" fill="#9B9B9B"></path>
            </g>
        </g>
    </g>
</svg>