<svg xmlns="http://www.w3.org/2000/svg" xmlns:xlink="http://www.w3.org/1999/xlink" viewBox="0 0 334.89 333.99" version="1.0"><g stroke="#b80000" stroke-width="2" fill="red" transform="translate(-169.84 -290.15)"><g id="d" stroke="#b80000" stroke-width="2" fill="red"><path id="a" d="M284.16 408.85l23.85 10.14 29.15-17.74v-23.06l-53 30.66z" stroke="#b80000" stroke-width="2" fill="red"/><use xlink:href="#a" transform="matrix(-1 0 0 1 674.33 -.073)" height="990" width="351.665"/></g><g id="c" transform="translate(0 -1.488)" stroke="#b80000" stroke-width="2" fill="red"><path id="b" d="M306.46 497.35l14.02-8.09 16.69 28.91v67.78l-75.81 39.67-76.26-44.02 70.21 18.32 58.46-43.4-7.31-59.17z" stroke="#b80000" stroke-width="2" fill="red"/><use xlink:href="#b" transform="matrix(-1 0 0 1 674.33 .006)" height="332.216" width="334.581"/></g><use xlink:href="#c" transform="scale(-1) rotate(60 821.948 -584.132)" height="332.216" width="334.581"/><use xlink:href="#c" transform="scale(-1) rotate(-60 -822.195 583.986)" height="332.216" width="334.581"/><use xlink:href="#d" transform="scale(-1) rotate(-60 -820.686 583.113)" height="332.216" width="334.581"/><use xlink:href="#d" transform="scale(-1) rotate(60 820.885 -584.774)" height="332.216" width="334.581"/></g><path d="M131.33 162.556l-1.981.011.908 1.726-58.037-33.358 1.105-.713.054-1.274 57.95 33.608zM204.59 164.14l.98-1.72-1.97-.04 57.93-33.62.06 1.31 1.08.69-58.08 33.38zM166.31 226.747l1 1.71 1.04-1.65.13 66.94-1.17-.6-1.13.59.13-66.99zM166.23 89.81l1.09-.68 1.12.63-.01 20.76-1.11-.63-1.13.72.04-20.8zM248.39 230.05l.05 1.29-1.11.65-17.98-10.38 1.1-.66-.06-1.33 18 10.43zM87.17 232.03l-1.13-.6-.02-1.29L104 219.77l.02 1.28 1.19.61-18.04 10.37z" fill-rule="evenodd" fill="red"/></svg>