<svg xmlns="http://www.w3.org/2000/svg" viewBox="18 268 180.928 147.722" height="147.722" width="180.928"><defs><filter id="b" color-interpolation-filters="sRGB"><feColorMatrix result="color1" values="180" type="hueRotate"/><feColorMatrix result="color2" values="-1 0 0 0 1 0 -1 0 0 1 0 0 -1 0 1 -0.21 -0.72 -0.07 2 0"/></filter><filter id="a" color-interpolation-filters="sRGB"><feColorMatrix result="color1" values="180" type="hueRotate"/><feColorMatrix result="color2" values="-1 0 0 0 1 0 -1 0 0 1 0 0 -1 0 1 -0.21 -0.72 -0.07 2 0"/></filter></defs><path stroke="#000" stroke-width="3" fill="none" d="M112.234 350.804c.328-5.895 3.22-11.094 7.574-14.78v0c4.278-3.622 10.032-5.829 16.31-5.833v0c6.276.004 12.03 2.211 16.308 5.832v0c4.355 3.687 7.246 8.886 7.578 14.781.332 6.062-2.102 11.7-6.379 15.871v0c-4.356 4.246-10.563 6.914-17.504 6.914v0c-6.945 0-13.156-2.668-17.516-6.914v0c-4.273-4.172-6.707-9.809-6.37-15.87z" filter="url(#a)"/><path stroke="#000" stroke-width="3" fill="none" d="M74.191 362.741c.04 2.301.782 6.786 1.883 10.297h0c2.32 7.414 6.258 14.278 11.742 20.328h0c5.625 6.211 12.543 11.207 20.543 14.746h0c8.41 3.727 17.524 5.63 26.973 5.61h0c9.453-.016 18.562-1.949 26.972-5.699h0c7.993-3.578 14.911-8.586 20.532-14.813h0c5.476-6.074 9.406-12.949 11.73-20.367h0a51.442 51.442 0 002.207-11.367h0a51.794 51.794 0 00-.363-11.289h0c-1.043-7.332-3.582-14.215-7.484-20.489-3.583-5.76-8.184-10.808-13.66-15.058h0l.007-.008h0l-55.262-42.437h0a7.93 7.93 0 00-.14-.118h0c-3.637-2.777-9.73-2.769-13.715.02h0c-4.039 2.824-4.492 7.484-.91 10.433h0l-.012.008h0l23.051 18.75-70.266.074h0-.097 0c-5.805.004-11.383 3.821-12.492 8.633h0c-1.13 4.907 2.816 8.973 8.851 8.996h0l-.008.024h0l35.614-.07-63.555 48.777h0c-.078.062-.164.121-.242.183h0c-5.989 4.59-7.93 12.227-4.157 17.06h0c3.836 4.913 11.981 4.917 18.04.02h0l34.683-28.38s-.504 3.832-.465 6.136zm89.121 12.825c-7.144 7.29-17.144 11.414-27.976 11.433h0c-10.836.02-20.84-4.074-27.989-11.344h0c-3.492-3.546-6.058-7.613-7.644-11.96h0a31.105 31.105 0 01-1.754-13.356h0a31.591 31.591 0 013.832-12.582h0c2.09-3.789 4.961-7.21 8.504-10.109h0c6.945-5.664 15.785-8.727 25.043-8.739h0c9.258-.01 18.094 3.028 25.043 8.668h0c3.54 2.883 6.41 6.293 8.496 10.075h0a31.594 31.594 0 013.84 12.57h0a31.133 31.133 0 01-1.758 13.36h0c-1.582 4.351-4.145 8.425-7.637 11.984z" filter="url(#b)"/></svg>