<svg xmlns="http://www.w3.org/2000/svg" height="292.667" width="400"><defs><filter id="a" color-interpolation-filters="sRGB"><feColorMatrix result="color1" values="180" type="hueRotate"/><feColorMatrix result="color2" values="-1 0 0 0 1 0 -1 0 0 1 0 0 -1 0 1 -0.21 -0.72 -0.07 2 0"/></filter></defs><path fill-rule="evenodd" d="M81 4.061c-24.77 6.062-24.306 5.918-27.035 8.383-7.559 6.829-8.265 20.038-1.983 37.108 4.091 11.118 4.171 10-.815 11.441-8.466 2.445-10.363 4.572-12.211 13.692-4.625 22.824 8.457 41.084 33.695 47.033 12.175 2.87 17.638 2.676 24.349-.867 5.32-2.809 54.492-17.871 56.755-17.385 1.444.31 14.972 12.747 14.409 13.247-.273.243-4.547 1.421-9.497 2.618-4.95 1.197-13.575 3.637-19.166 5.423-6.921 2.21-11.303 3.246-13.727 3.246-4.845 0-12.812 2.132-19.711 5.275-14.052 6.402-16.819 6.456-40.396.784L49 130.049l-8.667 1.524-8.666 1.524-3.187-1.313-3.188-1.312-8.479 2.57c-9.635 2.92-11.427 4.25-14.844 11.019L0 147.962l.045 17.186c.025 9.452.28 27.235.568 39.519L1.135 227l2.634 6c4.911 11.185 7.935 13.849 34.75 30.6 18.582 11.608 51.324 29.048 54.59 29.078 4.485.04 21.744-7.042 23.547-9.663 1.647-2.393 2.693-3.014 9.432-5.593 10.079-3.859 10.14-3.907 13.499-10.605 2.318-4.622 3.018-6.845 3.408-10.817.677-6.895.984-7.33 5.195-7.35 8.562-.04 15.975-3.038 18.157-7.344 2.768-5.462 6.249-6.061 16.538-2.85l7.922 2.473 9.439-2.338 9.438-2.338 3.032 3.126c3.672 3.786 7.2 4.824 12.734 3.746 1.952-.38 5.2-.651 7.217-.602 3.151.076 11.757-2.601 61.249-19.056l57.582-19.146 1.145-2.928c1.094-2.797 1.375-3.009 6.273-4.738 6.404-2.26 5.427-.498 8.172-14.741 2.154-11.179 2.588-12.602 4.979-16.309 8.332-12.919 11.962-32.577 8.422-45.605-1.939-7.136-6.772-16.536-8.961-17.429-9.135-3.727-12.726-6.756-16.481-13.902-4.961-9.442-21.249-17.94-30.587-15.958-3.801.806-5.062.463-5.116-1.392-.006-.191 5.998-1.876 13.342-3.745l13.354-3.397 2.405 1.912c3.295 2.619 3.653 2.571 23.594-3.119 20.327-5.799 20.274-5.766 25.298-15.804 7.192-14.37-.455-33.016-16.841-41.062C366.903-.57 358.948-1.124 338 3.142l-15.667 3.191-1.137 2.427-1.137 2.427-18.53 3.573L283 18.333l-2.784 2.54-2.784 2.539-32.216 7.206L213 37.824l-9.333-3.298c-10.55-3.728-15.277-3.97-21.393-1.095-2.744 1.29-6.258 5.143-6.284 6.89-.034 2.249-1.143 2.409-4.969.717-3.545-1.568-4.614-1.705-13.355-1.705h-9.501l-.582 8.299L147 55.93l-4.667-2.017c-4.555-1.969-4.864-2.01-12.972-1.696-7.183.277-8.759.143-11.666-.996-4.635-1.815-4.553-1.541-2.554-8.58 5.147-18.122 1.357-32.275-10.739-40.093C99.509-.614 100.319-.667 81 4.061m284.595 5.571c23.154 5.873 32.703 24.079 20.865 39.782-.655.869-23.238 7.919-25.367 7.919-.294 0 .064-.975.796-2.166 5.221-8.499 5.517-21.019.684-28.954-2.641-4.337-8.658-8.289-17.738-11.65-7.894-2.922-8.005-2.58 1.498-4.59 10.91-2.307 11.473-2.317 19.262-.341m-264.846.66c8.843 6.009 10.317 20.573 3.875 38.304l-.822 2.263-7.401-.426c-4.07-.235-11.546-.428-16.613-.43L70.576 50l1.3-1.833c5.043-7.114 4.933-22.35-.22-30.263l-1.582-2.43 13.13-3.341c15.628-3.978 14.565-3.866 17.545-1.841M67.094 17.5c8.812 9.965 6.377 31.967-3.537 31.967-7.329 0-11.824-15.483-7.629-26.273 2.538-6.526 7.978-9.3 11.166-5.694m274.402 2.456c9.617 2.46 14.714 6.095 17.704 12.626 4.349 9.499-3.896 28.92-10.012 23.582-.948-.827-1.662-.87-4.129-.248-1.641.413-3.133.751-3.317.751-.184 0 .455-1.725 1.42-3.834 3.986-8.704 1.789-14.218-6.971-17.496-7.611-2.847-26.081-3.238-30.635-.648l-2.112 1.201-8.833-4.3c-6.015-2.928-8.617-4.517-8.153-4.981.374-.375 8.9-2.283 18.945-4.241 21.068-4.107 27.724-4.552 36.093-2.412M60.145 23.04c-4.904 3.435-4.78 15.599.197 19.515 4.624 3.637 9.019.581 10.021-6.968 1.133-8.544-5.066-16.156-10.218-12.547m4.347 3.313c4.277 2.996 3.05 15.816-1.352 14.126-3.039-1.166-4.525-9.932-2.268-13.377 1.346-2.055 1.662-2.12 3.62-.749m226.666 7.393L299 37.491l-27.879 6.216-27.879 6.215-8.764-3.201-8.764-3.202 11.643-2.766c29.259-6.95 45.015-10.66 45.467-10.704.271-.027 4.021 1.636 8.334 3.697m36.587 2.974c14.693 2.043 18.373 10.463 8.681 19.857-1.944 1.884-13.915 5.95-17.888 6.075-.713.023-8.403-7.257-9.927-9.397l-1.356-1.904 1.958.392c2.587.517 4.373-.523 5.7-3.321 2.296-4.838.788-11.41-2.74-11.944-1.012-.153.914-.323 4.279-.378 3.365-.055 8.447.224 11.293.62m-19.078.164c0 .119-.75.922-1.667 1.783-.917.861-1.667 1.375-1.667 1.142 0-.233.657-1.035 1.459-1.783 1.412-1.315 1.875-1.597 1.875-1.142M227.09 50.951c17.917 6.006 34.677 11.651 37.243 12.545L269 65.122l.216 9.939c.407 18.753-.641 64.809-1.501 65.986-.454.62-2.141 1.24-3.922 1.441l-3.126.352V65.378l-9.167-2.92c-5.042-1.605-21.842-6.914-37.333-11.797-28.745-9.06-29.771-9.478-26-10.603 3.326-.992 4.169-.756 38.923 10.893m85.874-6.675c-.235 1.132-1.016 2.657-1.734 3.391L309.923 49l-1.009-1.333c-1.242-1.642-.795-5.291.875-7.136 1.697-1.874 3.821.632 3.175 3.745m-11.134 1.663c.59 4.049 2.099 8.402 6.497 18.751 3.15 7.413 5.625 13.58 5.5 13.705s-4.616-6.141-9.981-13.925c-14.081-20.429-11.468-19.385-34.826-13.919-13.37 3.129-16.578 3.446-18.222 1.803-.596-.596-.484-.625 23.869-6.153 29.559-6.711 26.228-6.678 27.163-.262m3.296-2.106c-.167.642-.305.117-.305-1.166 0-1.284.138-1.809.305-1.167.168.642.168 1.692 0 2.333m-90.351 11.9l35.058 12.06 4.834 1.661v35.273c0 19.4-.225 35.266-.5 35.257-.275-.009-16.7-6.986-36.5-15.504l-36-15.488-.19-7.576c-.148-5.947-.005-7.508.667-7.26 10.578 3.908 9.915 4.834 9.702-13.557l-.179-15.434L187 63.379a2713.64 2713.64 0 00-5.757-2.199c-1.07-.405-.586-4.336 1.764-14.347.475-2.025-1.997-2.718 31.768 8.9m-44.27-5.78c6.121 2.751 6.341 3.001 7.726 8.796.493 2.06-.278 2.224-14.064 2.987l-8.167.453V47.333h4.339c3.615 0 5.309.437 10.166 2.62m119.216.557c.396.27 2.856 3.555 5.467 7.3l4.748 6.811-1.743 1.37c-2.245 1.766-4.329 2.268-7.396 1.78-2.486-.395-3.162-.984-9.13-7.954L279 56.703l-5.97.697c-5.683.664-12.523-.129-11.338-1.314 1.711-1.712 26.468-6.637 28.029-5.576M72.267 56.088l3.933 1.507-2.6 1.131c-1.43.622-4.061 2.635-5.847 4.473-5.415 5.575-7.166 4.207-8.117-6.341l-.433-4.809 4.565 1.266c2.511.697 6.335 1.945 8.499 2.773M93 54.032c-8.344 2.415-9.808 2.51-14 .903l-4-1.533 10 .026c6.785.017 9.357.212 8 .604m11.294.323c1.817 1.374-2.552 1.355-4.961-.022-1.653-.945-1.645-.952 1-.955 1.467-.001 3.249.438 3.961.977m-5.023 3.577l2.27 1.21-4.817 1.087C86.233 62.599 83.845 62.84 81 61.82l-2.667-.956 7.334-1.719c9.661-2.265 9.89-2.316 10.666-2.373.367-.027 1.689.495 2.938 1.16m17.479 1.797c2.325.847 4.462.98 10.539.657 5.731-.305 9.039-.132 13.333.697 5.176 1 8.513 2.25 6.005 2.25-1.703 0-4.554 3.249-5.269 6.005-2.376 9.152-1.81 8.505-6.358 7.255-1.652-.454-4.062-2.053-6.333-4.201-2.131-2.015-6.611-5.041-10.697-7.225-10.668-5.705-11.444-9.161-1.22-5.438M278.721 61.5c.791.825 3.955 4.829 7.03 8.897 7.851 10.388 7.231 12.693-4.251 15.801l-6.167 1.669-.004-11.767c-.003-8.804-.24-12.219-.941-13.562-.833-1.598-.814-1.829.171-2.09 2.168-.574 2.74-.43 4.162 1.052m-172.587 6.037c-6.419 2.032-20.402 5.751-20.658 5.494-.346-.346.556-6.014 1.083-6.805.243-.363 4.791-1.56 10.108-2.659l9.666-1.999 1.801 2.383 1.8 2.382-3.8 1.204m-27.801-3.255l4 1.547-.111 3.128c-.186 5.2-.246 5.235-5.358 3.102-9.475-3.953-9.012-3.433-6.149-6.907 2.385-2.893 2.386-2.893 7.618-.87m97.983 1.885c-.597 2.835-.776 2.978-4.404 3.509-3.348.49-3.531.368-4.21-2.8-.444-2.066-.387-2.131 2.088-2.388 6.978-.724 7.03-.711 6.526 1.679m7.597-.458l2.606 1.043-2.235 3.321c-3.354 4.985-3.976 13.106-1.431 18.692l1.108 2.431-2.288-.702c-3.694-1.133-5.12-12.917-2.635-21.773 1.263-4.501 1.219-4.474 4.875-3.012m-19.81 1.124c1.673 3.073-.392 19.673-2.745 22.066-.305.311-3.07.356-6.143.1l-5.588-.466 1.851-3.766c2.859-5.815 4.135-15.086 2.499-18.144-.654-1.222-.427-1.29 4.309-1.29 4.499 0 5.082.151 5.817 1.5m-13.453 1.48c1.235 1.489.461 8.659-1.456 13.471-3.44 8.637-12.477 9.656-14.623 1.648l-1.036-3.867 3.203.633c4.529.896 4.911.569 6.572-5.643 2.14-8.004 4.331-9.867 7.34-6.242m-84.844 2.42c3.957 1.87 10.296 4.579 14.087 6.019C96.698 83.137 98.979 85.916 98.982 100c.002 9.321-2.369 14-7.094 14-.18 0 .099-2.025.621-4.5 3.577-16.979-.912-23.858-19.751-30.263-8.5-2.891-17.728-7.122-20.691-9.487-.747-.597-.415-.901 1.667-1.53 3.987-1.203 4.383-1.12 12.072 2.513m59.858 3.336c6.948 6.404 9.346 28.555 3.097 28.607-.602.005-1.78.193-2.618.417l-1.523.408 1.448-3.584c3.427-8.477 1.369-17.426-5.379-23.4-5.779-5.116-5.832-5.123-18.26-2.256C85.927 78.068 85.115 77.067 101 72.5c7.333-2.108 13.431-4.126 13.55-4.484.34-1.02 7.918 3.106 11.114 6.053m182.916 3.013c10.876 15.634 9.166 17.874-19.771 25.896-7.219 2.001-13.365 3.399-13.658 3.107-.292-.293-.446-3.776-.341-7.741l.19-7.21 7.333-1.946c11.894-3.158 15.036-8.314 9.664-15.858l-1.302-1.83 3.301-.317c2.17-.208 4.049-.901 5.486-2.023 1.201-.939 2.371-1.509 2.598-1.267.228.242 3.153 4.377 6.5 9.189m-119.913 3.675c0 10.535-.025 10.723-1.212 9.166-3.361-4.41-3.785-12.741-.888-17.428 2.151-3.48 2.1-3.681 2.1 8.262m-132.33-4.811c4.272 2.171 11.718 5.206 16.548 6.745 14.451 4.605 17.352 8.089 16.948 20.356-.42 12.767-1.779 13.724-15.166 10.685-20.146-4.573-30.89-18.425-27.958-36.043 1.144-6.879-.053-6.662 9.628-1.743M174.853 79.5c.186 3.758.555 7.508.82 8.333.474 1.473.384 1.5-5.001 1.5h-5.483l.476-1.833c.38-1.465 2.959-13.486 2.993-13.954.013-.184 2.837-.687 4.433-.789 1.348-.085 1.443.277 1.762 6.743m-58.048-1.667c8.1 6.166 9.729 13.137 5.273 22.56l-1.877 3.968-8.602 2.486c-9.129 2.639-10.603 2.904-9.912 1.787 2.748-4.446-.666-22.841-5.032-27.11l-2.109-2.061 8.227-2.005c10.508-2.561 10.162-2.571 14.032.375m218.075 4.833c2.633 1.1 5.684 2.719 6.781 3.599l1.994 1.599-3.834.479c-4.819.602-8.97-.4-13.243-3.198-6.742-4.413-.67-6.226 8.302-2.479m-13.452 2.583c1.335 1.419 3.985 3.321 5.889 4.225l3.461 1.646-6.555 1.859c-3.606 1.023-6.962 2.015-7.457 2.204-.695.266-.657-.128.167-1.719 1.217-2.354 1.437-8.49.329-9.175-.514-.318-.464-.629.167-1.029 1.322-.838 1.354-.822 3.999 1.989m-270.024-.653c-7.206 7.206 3.03 17.136 22.94 22.256l5.759 1.481 2.023-2.261c4.624-5.165.804-11.4-8.702-14.208-3.358-.992-9.1-3.317-12.761-5.167-7.552-3.816-7.545-3.815-9.259-2.101M71.49 94.743c8.278 2.578 10.859 5.368 8.257 8.926-2.603 3.56-27.08-8.143-27.08-12.948 0-4.094.322-4.141 6.545-.959 3.183 1.628 8.708 3.869 12.278 4.981m277.218.001c1.261 2.243 4.162 5.829 6.448 7.968 2.286 2.139 3.853 4.076 3.483 4.305-.666.412-2.671-1.475-7.433-6.997-3.807-4.413-1.695-4.891-75.373 17.056-1.009.3-1.166-.135-1.166-3.232v-3.58l33.166-9.231c18.242-5.078 33.767-9.468 34.5-9.757 3.101-1.221 4.022-.72 6.375 3.468m-179.041-2.345l6.666.371-.197 10.127-.198 10.126 10.198 4.295c17.825 7.507 17.695 7.443 16.197 8.008-4.801 1.814-6.643 1.545-11.185-1.63-5.096-3.562-9.388-5.579-13.291-6.245-2.622-.448-3.221-1.033-10.353-10.13-4.163-5.31-7.969-10.058-8.457-10.55-.776-.785-16.153 1.972-23.75 4.258-.931.28-.94-.185-.088-4.586l.949-4.898 13.421.241c7.381.133 16.421.409 20.088.613m181.194 12.159l3.057 3.891-33.992 10.346-33.991 10.346-2.566-1.858c-2.483-1.799-6.49-6.421-5.962-6.877.521-.45 11.426-3.814 33.926-10.463 38.319-11.325 35.195-10.899 39.528-5.385M369.153 114c5.846 11.765 5.68 25.418-.489 40.238-3.216 7.724-4.244 8.03-3.554 1.058 1.001-10.122.455-28.826-1.071-36.629-1.659-8.489-1.659-8.492-.206-8.881 2.415-.645 3.224-.004 5.32 4.214m-9.736 12.666c.789 6.489.408 28.485-.583 33.576l-.501 2.575-32.194 11.341c-17.707 6.238-32.357 11.179-32.556 10.981-.198-.198.005-3.26.451-6.803 1.048-8.324.445-31.571-.977-37.669-.556-2.384-1.021-4.996-1.034-5.805-.026-1.662-3.926-.317 39.31-13.557l25.667-7.86.823 3.444c.453 1.894 1.17 6.294 1.594 9.777m-173.514-2.467c5.02 3.002 12.42 9.856 11.352 10.516-.539.333-2.504-1.035-5.545-3.859-2.59-2.407-6.285-5.426-8.21-6.71-5.749-3.835-4.036-3.797 2.403.053m92.096 4.638c7.467 15.933 11.626 45.556 8.393 59.77-.612 2.692-.964 5.043-.783 5.225.182.181 15.869-4.77 34.861-11.002 39.373-12.922 38.018-12.493 37.393-11.832-.258.274-18.088 6.547-39.622 13.941l-39.153 13.443-2.988 11.81c-3.078 12.163-4.091 14.695-2.712 6.775.733-4.211.528-14.607-.305-15.44-.657-.656-27.863 7.992-28.241 8.977-.198.515.288 4.888 1.078 9.717 1.682 10.271 1.691 10.446.508 10.446-1.441 0-3.142-9.869-3.562-20.667l-.375-9.667 5.789-1.586c9.672-2.649 10.381-3.978 10.359-19.414-.031-21.631-3.963-28.001-14.864-24.079-4.139 1.49-5.051 1.266-5.112-1.254-.048-1.97-3.221-10.009-5.256-13.316-1.14-1.854-2.074-3.501-2.074-3.659 0-.159 3.975 1.378 8.834 3.415 19.414 8.139 25.235 9.342 30.29 6.26 3.133-1.91 3.405-2.85 3.926-13.569.56-11.513.35-11.263 3.616-4.294m-96.939-2.435c1.991 1.322 5.862 4.497 8.604 7.057l4.984 4.655-1.493 2.11c-.82 1.16-1.791 2.592-2.157 3.182a71.13 71.13 0 01-1.908 2.834c-2.003 2.835 1.471 6.803 3.943 4.505.349-.324 2.022-.787 3.719-1.029l3.086-.44 3.044 7.607c8.372 20.921 9.538 41.914 3.093 55.725-4.506 9.658-6.898 12.494-10.938 12.968-1.975.232-4.081.611-4.681.841-.779.299-.312-1.125 1.633-4.983 14.468-28.693 2.077-76.127-24.154-92.463-4.007-2.495-3.997-2.532.998-3.78 6.575-1.643 8.163-1.486 12.227 1.211m34.998 3.687c8.546 3.547 8.549 3.474-.241 5.203-4.116.809-8.084 1.614-8.817 1.787-1.218.288-8.333-5.758-8.333-7.081 0-.448 7.406-2.458 9.542-2.59.665-.041 4.197 1.165 7.849 2.681m-52.489.39c23.384 12.167 37.409 52.064 28.754 81.797-.899 3.089-1.282 3.702-1.769 2.833-.957-1.71-7.983-.952-17.946 1.938-.934.272-1.064-.961-1.105-10.536-.125-28.813-13.877-59.824-31.308-70.596-3.012-1.862-2.728-2.05 7.805-5.171 11.026-3.266 9.841-3.246 15.569-.265m121.309 1.828c.906.906 2.626 8.745 3.443 15.693.221 1.879-.243.758-1.242-3-.877-3.3-2.206-7.725-2.953-9.833-1.35-3.81-1.11-4.723.752-2.86M138.49 138.87c14.895 10.934 27.322 35.046 29.59 57.412 1.366 13.476-1.159 33.147-4.413 34.384-.846.322-2.392 2.155-3.436 4.074-2.225 4.091-4.396 5.123-12.052 5.733l-4.821.384 2.332-4.595c14.333-28.239-.78-85.069-25.605-96.288-3.828-1.73-3.816-2.001.128-3.046 6.31-1.672 14.546-.797 18.277 1.942m89.736-.037c3.348 4.459 7.774 15.023 7.774 18.556 0 .942-3.833 3.097-4.352 2.447-.074-.093-.658-1.819-1.298-3.836-1.356-4.275-4.197-9.604-7.431-13.936-2.72-3.643-2.821-4.259-.792-4.831 3.216-.905 4.463-.578 6.099 1.6m-25.116.879c.725 1.889-.388 4.288-1.989 4.288-2.029 0-3.121-1.202-3.121-3.434 0-3.149 3.974-3.814 5.11-.854m-140.567 2.073c13.422 3.117 13.529 3.155 12 4.355-1.977 1.55-1.452 2.003 7.636 6.595l6.513 3.29 7.154-.679c3.935-.373 7.782-.678 8.549-.679.767 0 5.807 3.316 11.2 7.369l9.805 7.369 2.319 5.089c9.617 21.104 13.649 61.45 7.909 79.153-3.692 11.388-4.976 13.344-9.833 14.984-2.214.748-4.09 1.287-4.167 1.198-.078-.089-.63-17.562-1.229-38.829l-1.088-38.667-4.489-10.413-4.489-10.412-33.956-15.921c-29.218-13.699-33.683-15.979-32-16.341 3.551-.765 4.512-.631 18.166 2.539m156.74 1.013c6.742 8.334 10.49 18.234 7.349 19.419-2.349.887-2.323.511-.495 6.942 2.357 8.291 1.806 23.956-1.183 33.624-.234.756.092 1.187 1.009 1.333 3.952.633-4.042 10.439-9.91 12.156-4.496 1.315-4.399 1.47-2.299-3.66 6.806-16.618 5.147-42.745-4.099-64.559-1.626-3.836-2.822-7.108-2.659-7.271.321-.321 6.824-1.966 8.14-2.059.442-.031 2.308 1.803 4.147 4.075M65.667 157.671c21.633 9.743 39.659 18.078 40.057 18.522.398.444 2.391 4.707 4.428 9.474l3.704 8.666.773 36c.424 19.8.832 37.412.905 39.137.113 2.661-.091 3.238-1.345 3.809-.813.37-2.163 1.727-3 3.017-1.206 1.857-5.497 4.367-7.474 4.371-.027 0 .031-18.982.128-42.182l.176-42.182-2.641-5.463c-4.973-10.282-6.55-12.198-14.142-17.173-20.77-13.612-44.902-26.069-62.729-32.381-2.582-.913-2.172-2.284.493-1.648.733.175 19.033 8.29 40.667 18.033m53.237-14.507c17.618 9.434 32.027 44.821 29.116 71.503-1.959 17.948-4.35 21.316-4.909 6.912-.742-19.165-2.886-30.889-8.152-44.579-1.692-4.4-3.361-8.75-3.709-9.667-.377-.995-4.264-4.34-9.652-8.304-10.649-7.836-19.521-15.682-17.778-15.724.649-.015 2.23-.619 3.513-1.342 3.009-1.696 6.921-1.29 11.571 1.201m-101.187 1.743c12.814 4.367 33.185 13.711 45.95 21.078 15.026 8.671 29.022 18.215 28.086 19.151-.172.171-12.561-5.979-27.532-13.667-54.669-28.074-50.564-26.267-52.607-23.149-1.683 2.569-1.151 76.276.575 79.486 1.329 2.471-2.026.468 47.144 28.14 20.35 11.452 37.442 21.252 37.982 21.777 1.095 1.065-.682 5.409-2.497 6.106-3.074 1.179-39.363-18.851-65.274-36.028l-14.123-9.362-2.703-5.817c-3.883-8.358-3.925-8.812-4.361-47.289l-.396-35 2.033-3.5c2.364-4.07 1.826-3.936 7.723-1.926m78.436 2.217c7.809 3.082 7.657 4.476-.559 5.129l-5.407.429-1.779-2.688c-1.899-2.871-1.805-3.043 1.925-3.532 1.1-.144 2.219-.307 2.487-.362.267-.055 1.767.406 3.333 1.024m112.587 7.636c7.64 20.932 7.984 45.285.84 59.407-.882 1.741-1.752 3.166-1.936 3.166-.183 0 .383-1.425 1.258-3.166 7.024-13.975 5.378-39.152-3.989-61.037-2.184-5.103-2.252-5.477-1.142-6.289 1.42-1.038 2.089.028 4.969 7.919m66.575-4.405c-1.442 1.738-1.629 7.213-.314 9.219 2.055 3.137 6.415 1.983 7.405-1.958 1.408-5.613-3.926-11.075-7.091-7.261M16.94 172.667c.597 11.55 1.438 28.758 1.871 38.242l.787 17.241 2.368 1.483c1.302.815 16.167 8.938 33.034 18.05a67256.612 67256.612 0 0137 19.999c4.806 2.604 6.387 3.801 6.558 4.96.211 1.444-.086 1.36-5.334-1.505C71.421 259.235 17.357 228.306 16 226.959l-1.667-1.655-.527-36.717c-.41-28.495-.346-36.936.283-37.694 1.472-1.773 1.743.298 2.851 21.774m4.005-19.596c.939.36 1.045 3.207.964 25.834l-.091 25.428-1.192-21.666c-1.235-22.472-1.49-30-1.014-30 .153 0 .753.182 1.333.404m258.274 2.63c-.329 2.799-1.886 2.909-1.886.132 0-1.252.205-2.482.456-2.733.819-.82 1.653.697 1.43 2.601M54.876 170.629c.299.288 1.1 9.489 1.782 20.447L57.897 211l-3.083 2.896a206.963 206.963 0 01-6.448 5.753L45 222.506l-8.513.747c-4.682.411-9.107.747-9.833.747-1.299 0-1.321-.554-1.321-34.389v-34.389l14.5 7.442c7.975 4.093 14.745 7.677 15.043 7.965m197.098-12.117c2.2 1.781 3.475 9.332 3.573 21.155.117 14.193.201 14.076-12.085 16.906l-5.539 1.275.539-3.757c1.176-8.209.554-21.339-1.274-26.888l-1.69-5.129 5.751-2.339c6.538-2.658 8.655-2.9 10.725-1.223m25.752 4.988c-1.547 2.388-1.655 7.328-.202 9.236 4.04 5.305 9.983-3.302 6.232-9.026-1.467-2.239-4.644-2.35-6.03-.21m-31.042.815c-1.835 1.953-1.77 21.561.083 25.446 1.105 2.317 5.022 3.021 6.817 1.227 1.135-1.135 1.601-17.432.661-23.116-.81-4.901-4.616-6.692-7.561-3.557m-12.706 3.852c1.803 5.24 2.474 16.704 1.415 24.158-.812 5.715-1.333 6.594-4.317 7.294l-1.924.452.479-2.869c1.712-10.231 1.583-21.194-.337-28.77-.682-2.692-.664-3.333.11-3.823 2.173-1.376 3.133-.629 4.574 3.558m47.748-1.168c.762 3.035-1.149 5.202-2.059 2.334-.491-1.545.142-4 1.032-4 .335 0 .797.75 1.027 1.666m-30.498 5.356c.232 4.601.151 4.978-1.068 4.978-1.95 0-2.865-6.06-1.469-9.731 1.128-2.967 2.253-.858 2.537 4.753M60.838 173.5c.979.746 1.03 1.949.486 11.5-.334 5.867-.659 11.867-.724 13.333-.098 2.234-1.7-18.108-1.877-23.833-.062-2.016.459-2.263 2.115-1m297.953 8.5l-1.214 6.333-4.868 1.715c-3.391 1.194-5.127 2.198-5.722 3.31-.732 1.368-5.753 3.23-35.154 13.032l-34.299 11.435 2.107-8.407 2.106-8.407 8.293-2.897c38.041-13.291 69.653-23.786 69.796-23.174.094.4-.377 3.577-1.045 7.06m-288.605 4.464c.434 9.715 1.754 17.862 4.08 25.189l1.604 5.051-5.768-3.108c-3.173-1.71-6.002-3.317-6.288-3.571-.285-.255-.159-8.144.282-17.532l.801-17.069 2.454 1.252 2.454 1.252.381 8.536m207.744-10.682c-2.424.631-3.717 6.061-2.203 9.251 1.916 4.039 5.643 3.972 7.357-.131 2.096-5.017-.855-10.239-5.154-9.12m2.403 4.885c.476 1.498-.133 4-.972 4-.77 0-1.443-3.012-.956-4.281.555-1.446 1.42-1.32 1.928.281m-202.13 7.971c.514 8.431 2.585 18.457 5.448 26.366 1.26 3.481 2.142 6.329 1.96 6.329-5.867 0-11.273-14.968-12.109-33.533l-.354-7.867 2.33 1.111 2.33 1.111.395 6.483m173.637-4.586c.31 5.26-1.996 6.277-2.844 1.255-.3-1.773-.173-3.026.375-3.686 1.352-1.629 2.284-.712 2.469 2.431m-162.962 9.541c.488 7.407 2.802 15.65 6.789 24.183C98.265 223.335 99.471 228 98.311 228c-3.081 0-7.25-3.765-9.404-8.492-4.135-9.072-7.567-23.428-7.572-31.667l-.002-3.827 3.573 1.752 3.572 1.752.4 6.075m5.971-2.426c2.88 3.182 3.82 7.277 3.762 16.388l-.055 8.778-1.643-3.471c-5.013-10.598-6.54-26.642-2.064-21.695m144.49 15.666c.003 3.025.202 7.134.442 9.131l.436 3.63-2.464-2.463c-2.664-2.664-5.188-3.106-10.586-1.852-2.645.614-3.187.121-1.452-1.319 1.191-.989 3.384-5.083 4.593-8.573.688-1.989 1.269-2.474 3.753-3.138 5.427-1.449 5.272-1.584 5.278 4.584m31.328 3.134c0 2.549-.317 6.113-.705 7.92l-.705 3.287-8.462 2.454c-4.654 1.35-8.962 2.599-9.575 2.775-1.377.395-1.637-.416-2.558-7.985-.865-7.106-2.199-5.821 10.083-9.714 13.059-4.139 11.922-4.26 11.922 1.263M73.333 221.615c7.15 3.82 15.7 8.419 19 10.219l6 3.273.183 11.012.182 11.011-2.727 1.89-2.726 1.889-4.456-2.18c-10.678-5.225-48.825-26.287-48.636-26.854.304-.912 18.727-17.121 19.514-17.167.366-.022 6.516 3.086 13.666 6.907M186 217.952c0 1.289-2.068 2.598-5.344 3.384-3.799.911-4.802.528-3.098-1.185 1.688-1.697 8.442-3.456 8.442-2.199m47.626.151c4.577 2.085 6.169 10.673 2.635 14.208-1.719 1.719-2.069 1.199-2.411-3.579-.231-3.23-.834-5.504-2.024-7.633-1.549-2.771-1.551-3.119-.024-3.713.074-.029.895.294 1.824.717m-4.533 4.743c1.768 3.42.891 11.898-1.431 13.825-1.243 1.031-1.243.751.005-2.235 1.788-4.281.481-12.363-2.275-14.066-.411-.254-.562-.761-.337-1.126.526-.85 2.772 1.153 4.038 3.602m-16.807-1.013c-.287.642-.648 2.594-.802 4.337-.228 2.583-.546 3.23-1.715 3.49-2.785.62-16.055 2.276-16.298 2.033-.912-.912 1.54-2.965 4.02-3.366 2.163-.35 3.4-1.091 5.176-3.099 1.683-1.903 3.261-2.889 5.666-3.54 4.451-1.205 4.557-1.201 3.953.145m9.575-.122c4.211 2.949 4.516 12.979.442 14.542-3.8 1.458-6.477-.472-7.542-5.437-1.538-7.173 2.488-12.335 7.1-9.105m-35.935 3.58c-1.822 2.464-5.388 3.628-8.438 2.753-1.431-.41-3.197-.315-5.517.297-3.012.795-3.366.782-3.025-.108.213-.555.387-1.39.387-1.856 0-.604.911-.772 3.167-.584 2.012.167 5.232-.307 8.833-1.303 6.647-1.837 6.555-1.853 4.593.801m-145.259.961c0 .139-1.636 1.514-3.635 3.057l-3.634 2.803-4.185-2.222-4.184-2.223 6.652-.743c8.376-.934 8.986-.98 8.986-.672m149.561 4.617c-.436.752-.934.815-2.228.28l-1.667-.689 2-.439c2.393-.525 2.629-.419 1.895.848m-91.561 33.454v2.989l-2.334-1.113c-1.283-.612-2.329-1.282-2.324-1.489.007-.305 3.885-3.185 4.491-3.335.092-.023.167 1.303.167 2.948" filter="url(#a)"/></svg>