<svg xmlns="http://www.w3.org/2000/svg" height="864" width="864"><defs><filter id="b" color-interpolation-filters="sRGB"><feColorMatrix result="color1" values="180" type="hueRotate"/><feColorMatrix result="color2" values="-1 0 0 0 1 0 -1 0 0 1 0 0 -1 0 1 -0.21 -0.72 -0.07 2 0"/></filter><filter id="a" color-interpolation-filters="sRGB"><feColorMatrix result="color1" values="180" type="hueRotate"/><feColorMatrix result="color2" values="-1 0 0 0 1 0 -1 0 0 1 0 0 -1 0 1 -0.21 -0.72 -0.07 2 0"/></filter></defs><path d="M842.974 204.987v8.028c-1.335 5.782-2.511 11.606-4.031 17.339-6.457 24.353-13.724 48.517-19.359 73.057-6.953 30.281-12.974 60.793-18.652 91.344-4.279 23.024-7.745 46.218-10.903 69.427a1140.82 1140.82 0 00-6.554 60.052c-1.676 20.329-2.752 40.724-3.458 61.111-.561 16.205-.135 32.443-.243 48.666a13.74 13.74 0 01-1.065 5.129c-6.353 14.986-14.359 29.052-23.816 42.298-15.68 21.958-34.382 41.152-54.282 59.236-16.814 15.278-34.956 28.769-54.764 39.941-8.433 4.756-17.411 8.074-26.979 9.833-11.816 2.172-22.544-.73-32.904-6.26-43.225-23.067-87.104-44.769-132.417-63.5-23.446-9.692-46.746-19.712-70.955-27.451-18.309-5.853-36.473-12.156-54.737-18.152-.801-.263-2.201.264-2.903.891-11.158 9.971-23.482 18.26-36.479 25.604-18.721 10.58-38.452 19.029-58.254 27.271-6.36 2.648-13.142 4.779-19.934 5.809-27.786 4.211-53.934-1.099-78.193-15.199-26.331-15.305-47.287-36.522-65.574-60.572-17.094-22.48-28.443-47.771-36.868-74.582-12.225-38.909-17.692-78.563-12.962-119.207 3.94-33.853 15.891-64.389 40.164-89.2 3.01-3.077 3.521-6.101 2.104-10.138-2.115-6.027-4.18-12.16-5.341-18.419-3.816-20.58-7.326-41.219-10.733-61.872-2.221-13.46-4.234-27.007-2.615-40.688.611-5.162 1.661-10.473 3.667-15.229 4.454-10.564 11.8-18.107 23.992-19.412.584-.062 1.143-.741 1.639-1.211 7.358-6.987 14.378-14.375 22.133-20.889 10.301-8.652 21.211-16.571 33.026-23.127 3.778-2.097 6.528-4.923 6.902-9.504.137-1.687.486-3.36.565-5.048.257-5.489 2.58-9.872 6.72-13.442 7.207-6.215 15.441-10.653 24.495-13.264 30.505-8.795 61.591-12.487 93.303-9.534 8.531.794 16.851 2.664 24.875 5.89 5.232 2.104 8.559 5.42 9.598 11.045.914 4.949 2.046 9.858 3.215 15.416 2.1-1.444 4.189-2.599 5.946-4.134 14.481-12.658 30.022-23.916 46.906-33.027 13.058-7.047 26.844-12.748 40.327-19.002 1.269-.588 2.666-1.091 4.042-1.224 12.506-1.201 25.002-2.836 37.54-3.329a1491.352 1491.352 0 0162.809-1.165c13.439.039 26.906.868 40.308 1.985 18.198 1.516 36.329 3.833 54.521 5.449 12.584 1.117 20.909 7.252 24.948 19.209.397 1.18.863 2.346 1.15 3.554 1.79 7.535 3.57 15.073 5.276 22.627.379 1.679 1.011 2.247 2.886 2.109 5.862-.431 11.753-.881 17.62-.759 18.173.377 36.342.957 54.509 1.581 7.654.263 15.349.418 22.935 1.358 12.282 1.522 24.508 3.542 36.725 5.555 14.012 2.308 27.747 5.631 40.55 12.062 12.94 6.5 21.993 16.167 25.321 30.635.195.852 1.296 1.851 2.179 2.125 3.398 1.057 6.877 1.853 10.329 2.733 5.609 1.435 10.28 3.951 11.75 10.171zm-452.096 67.967l-.28.662c.799.566 1.553 1.216 2.405 1.686 17.138 9.445 32.574 21.161 46.353 35.026 22.704 22.847 39.915 49.467 52.98 78.761 16.552 37.11 24.136 76.104 23.041 116.72-.355 13.19-1.389 26.375-4.971 39.154-2.095 7.477-4.26 14.896-4.73 22.696-.53 8.804-.789 17.637-1.693 26.403-3.574 34.659-7.321 69.302-11.096 103.94-.596 5.466-1.782 10.846-4.694 16.43-8.549-2.745-17.01-5.431-25.451-8.18-11.5-3.745-22.96-7.619-34.495-11.253-2.751-.867-5.733-1.002-8.609-1.473l-.269.939c2.048.993 4.038 2.137 6.155 2.949 5.069 1.944 10.309 3.476 15.283 5.628 21.407 9.264 42.788 18.588 64.092 28.085 25.118 11.198 50.523 21.799 74.539 35.337 8.935 5.036 18.095 9.62 28.191 11.943 6.112 1.406 12.081 1.118 17.604-2.077 1.148-.665 2.217-2.072 2.608-3.354 6.35-20.815 11.261-41.958 14.321-63.523 2.266-15.964 5.203-31.851 6.918-47.871 2.561-23.92 4.343-47.925 6.376-71.901.44-5.197.545-10.424.804-15.637l-.884-.512c-1.546 1.819-3.504 3.428-4.562 5.495-3.127 6.112-7.948 10.44-13.604 14.015-4.218 2.666-8.497 5.234-12.665 7.975-.753.495-1.485 1.572-1.573 2.446-1.651 16.489-2.665 33.062-4.909 49.467-3.055 22.32-6.717 44.57-10.754 66.735-1.938 10.638-6.984 20.192-14.536 28.124-4.171 4.382-9.259 4.146-13.27-.38-1.702-1.921-3.161-4.095-4.476-6.305-.551-.926-.86-2.367-.57-3.369 5.611-19.373 8.009-39.263 9.434-59.283 1.029-14.484 1.776-28.993 2.402-43.501.623-14.42.798-28.86 1.471-43.277.205-4.39 1.362-8.742 2.184-13.092.305-1.616 1.416-2.133 3.125-2.132 2.839.003 5.709-.159 8.513-.592 13.941-2.152 25.211-12.338 28.038-25.271 1.063-4.862 1.016-9.792-.205-14.583-3.189-12.525-7.218-24.672-17.51-33.496-3.854-3.307-7.695-6.64-11.692-9.77-5.508-4.312-8.705-9.816-9.238-16.796-.265-3.463-.374-6.939-.53-10.41-.627-13.887-.705-27.823-1.99-41.648-1.956-21.02-4.577-41.983-7.244-62.929-1.619-12.718-3.88-25.353-5.805-38.033-1.033-6.816-4.815-10.712-11.499-12.762-27.769-8.517-55.677-16.557-84.19-22.101-26.306-5.115-52.787-9.332-79.199-13.897-3.189-.55-6.428-.812-9.644-1.208zm-84.979 308.012c0-2.138.044-4.276-.007-6.414-.479-19.928-2.888-39.616-7.584-58.996-11.449-47.249-34.241-87.971-69.354-121.846-16.804-16.212-35.402-29.075-57.674-36.614-20.058-6.789-40.343-9.86-61.23-5.236-22.862 5.061-41.19 17.523-55.232 36.05-18.796 24.8-27.567 53.43-30.637 84.008-2.221 22.12-.847 44.143 2.529 66.073 5.406 35.123 17.216 67.892 35.797 98.221 8.113 13.243 18.25 24.815 28.947 35.959 11.443 11.922 23.375 23.267 37.359 32.255 24.741 15.9 51.289 25.065 81.154 21.851 21.673-2.333 40.05-11.542 55.275-27.027 11.518-11.715 19.819-25.567 26.346-40.562 10.794-24.802 14.362-50.939 14.311-77.722zm-15.711-318.537c4.251-.925 8.189-1.657 12.062-2.647 14.625-3.74 29.341-4.713 44.23-1.784 9.171 1.804 18.299 3.943 27.542 5.25 11.993 1.696 24.13 2.375 36.118 4.1 21.156 3.045 42.274 6.384 63.357 9.899 37.953 6.328 75.774 13.347 113.045 23.045 5.792 1.508 11.534 3.17 16.313 7 .827.663 1.707 1.682 1.892 2.663 2.159 11.459 4.301 22.924 6.212 34.427 1.182 7.11 2.187 14.266 2.846 21.439.486 5.286.1 10.646.427 15.954.834 13.51 2.501 27.002 2.629 40.513.158 16.647-.847 33.308-1.498 49.958-.106 2.711.758 4.034 3.202 5.234 15.886 7.804 28.425 19.183 36.582 35.083.792 1.543 1.525 3.115 2.626 5.372.219-1.871.462-2.923.445-3.972-.212-13.091-.245-26.189-.769-39.269-.455-11.391-1.846-22.75-2.164-34.141-.587-20.995-2.72-41.765-7.14-62.309a241.22 241.22 0 01-3.225-18.656c-.6-4.472 1.5-7.993 5.259-10.378 2.096-1.329 4.368-2.388 6.6-3.489 5.189-2.557 10.638-4.676 15.568-7.656 35.4-21.397 70.541-43.168 102.133-70.15 10.563-9.022 21.91-17.125 32.535-26.08 6.521-5.498 12.376-11.791 18.477-17.781 2.069-2.031 2.463-4.624 2.077-7.424-.77-5.57-5.644-9.967-12.915-11.501-.143.286-.348.579-.443.904-2.531 8.582-7.155 16.013-13.52 22.122-7.32 7.027-15.177 13.497-22.819 20.187-15.763 13.796-31.56 27.486-48.871 39.436-22.709 15.675-45.98 30.258-71.09 41.781a53.698 53.698 0 01-6.47 2.502c-6.801 2.108-12.264.327-16.49-5.389a33.127 33.127 0 01-3.162-5.254c-3.945-8.162-5.342-16.946-5.925-25.876-.06-.906.937-2.225 1.808-2.793 8.058-5.258 16.146-10.475 24.318-15.552 46.595-28.948 91.248-60.698 135.108-93.589 3.306-2.479 6.281-5.398 9.918-8.554-38.39-17.842-78.648-21.334-119.351-22.627.663.809 1.448 1.097 2.248 1.336 8.14 2.439 16.04 5.378 22.909 10.584 3.418 2.59 6.009 5.639 7.295 9.89 2.979 9.853 4.085 19.853 3.257 30.103-1.052 13.05-7.216 21.871-20.082 26.013-11.572 3.725-23.228 6.898-35.311 8.259-23.917 2.694-47.701 1.711-71.267-3.229-11.542-2.419-22.804-5.781-32.921-12.123-1.003-.629-2.043-1.543-2.536-2.577-1.606-3.368-3.389-6.744-4.323-10.32-1.45-5.543-2.257-11.254-3.384-17.143-1.218.516-2.969.986-4.419 1.922-3.814 2.463-7.442 5.215-11.245 7.7a36603.2 36603.2 0 01-76.815 50.054c-1.008.654-2.273 1.005-3.471 1.263-17.618 3.797-35.47 4.958-53.431 4.274-32.901-1.253-65.124-7.05-97.031-14.872-1.875-.46-3.865-.488-5.808-.624-1.794-.125-2.558.727-2.404 2.586.461 5.496.829 10.999 1.262 16.906zm313.873-111.506c.301-.21.602-.419.901-.629-.403-3.15-.737-6.311-1.224-9.448-1.603-10.366-4.481-20.309-9.543-29.586-1.685-3.087-3.895-4.92-7.397-5.324-2.741-.316-5.468-.786-8.185-1.277-29.462-5.324-59.197-7.95-89.098-7.748-23.696.161-47.402 1.085-71.068 2.353-11.255.603-22.52 2.297-33.612 4.387-15.526 2.926-29.036 10.772-41.693 19.806-12.033 8.588-23.391 18.117-35.226 26.991-7.011 5.255-11.372 12.08-12.944 20.516-3.197 17.156-6.093 34.369-8.981 51.581-.153.91.648 2.366 1.454 2.989 5.575 4.312 11.945 7.261 18.729 8.792a710.131 710.131 0 0036.663 7.232c19.063 3.255 38.193 6.143 57.572 6.725 13.509.406 26.897-.423 39.95-4.375 1.827-.553 2.624-1.479 2.775-3.31.517-6.214 1.028-12.43 1.686-18.63 1.191-11.24 2.489-22.469 3.736-33.703.317-2.858 1.688-4.843 4.323-6.204 2.762-1.426 5.265-3.344 7.97-4.892 30.691-17.562 61.352-35.181 92.139-52.574 7.968-4.501 16.35-8.269 24.542-12.371 3.11-1.558 5.704-.755 7.822 1.825 1.184 1.441 2.564 2.845 3.293 4.512 2.488 5.689 4.752 11.479 7.054 17.249 1.577 3.954 2.895 8.024 4.708 11.864.64 1.356 2.404 2.182 3.654 3.249zM78.995 215.502l.563.674c.416.048.831.126 1.247.139 21.104.658 42.207 1.318 63.311 1.958 8.729.265 17.46.434 26.186.757 2.212.082 4.677.325 5.481 2.927.407 1.316-2.529 2.664-5.567 2.547-7.922-.304-15.845-.604-23.763-1.001-17.527-.878-35.038-2.162-52.614-.997-7.261.481-14.534.368-20.219-5.402-.419-.425-1.057-.652-1.618-.918-1.875-.89-3.416-.847-4.902.998-1.267 1.573-2.932 2.865-4.557 4.101-4.777 3.632-8.147 8.4-11.345 13.378-3.154 4.909-2.986 9.557-.021 14.509 4.681 7.818 11.949 11.758 20.324 14.089 10.366 2.885 21.06 3.557 31.723 4.234 20.035 1.271 39.475-2.216 58.342-8.55 19.264-6.467 38.314-13.61 53.458-28.053 2.043-1.949 4.32-2.029 6.927-1.151 2.594.873 5.287 1.791 7.982 1.957 9.332.575 18.683.829 28.027 1.209 6.024.245 12.047.496 18.146.748-4.644-14.821-.986-29.723-.459-44.083-9.159 1.073-18.139 2.474-27.173 3.104-13.771.961-27.576 1.458-41.372 2.029-15.13.626-30.306 1.874-45.371-.477-12.865-2.007-25.664-4.543-32.122-18.244-1.43.884-2.776 1.738-4.143 2.557-12.63 7.571-24.994 15.542-35.856 25.56-3.807 3.511-7.092 7.585-10.615 11.401zm681.47 308.909c0-.859.05-1.658-.008-2.448-1.529-21.165.066-42.212 2.428-63.223 2.367-21.072 5.132-42.105 7.163-63.209 2.137-22.193 7.105-43.728 13.492-65.004 1.142-3.803 3.055-6.97 6.651-8.973 2.549-1.419 4.15-3.66 4.653-6.534a883.782 883.782 0 003.217-19.476c.243-1.599.036-3.266.036-5.104-5.888 5.343-11.729 10.273-17.102 15.67-2.842 2.854-5.319 6.287-7.174 9.865-4.502 8.69-8.695 17.55-12.742 26.464-11.471 25.266-19.659 51.714-27.988 78.116-9.846 31.208-18.018 62.836-23.102 95.165-2.876 18.29-4.957 36.727-6.753 55.161-2.143 21.982-3.726 44.022-5.275 66.058-.484 6.887-.075 13.837-.075 21.695 2.157-1.212 3.833-1.919 5.229-2.991 2.255-1.733 4.283-3.759 6.48-5.571 6.611-5.456 13.113-11.027 18.07-18.111.753-1.076 1.232-2.578 1.256-3.894.264-14.259.663-28.521.519-42.777-.153-15.138-.878-30.269-1.251-45.405-.02-.819.698-2.06 1.418-2.43 6.163-3.16 12.314-6.373 18.657-9.137 3.882-1.691 8.093-2.622 12.201-3.907zm-413.797 70.933l.8.221c1.036-2.42 2.221-4.787 3.081-7.268 3.445-9.944 3.707-20.244 3.357-30.628-.651-19.308-2.986-38.407-7.918-57.077-12.687-48.029-36.484-89.744-72.181-124.412-15.965-15.504-33.906-28.322-54.533-37.06-10.443-4.424-21.069-8.308-32.525-9.048-5.852-.378-11.724-.476-17.588-.59-2.564-.05-5.279-.326-7.676.365-9.228 2.661-18.369 5.628-27.509 8.585-1.956.633-3.773 1.696-6.09 2.761 3.966 0 7.352.152 10.719-.034 5.578-.31 11.191-.534 16.7-1.379 3.647-.561 3.522-.997 4.838 2.456.266.698 1.073 1.6 1.712 1.671 2.192.244 4.537.61 6.6.072 2.008-.524 3.015.043 4.367 1.283 3.015 2.767 6.527 5.235 10.762 4.209 2.947-.714 4.186.271 5.796 2.345 2.841 3.661 4.729 4.095 8.761 2.593 1.958-.729 2.901.707 2.654 1.833-.692 3.165 1.779 3.78 3.426 5.189 2.217 1.896 4.304 2.67 6.733.275.976-.962 2.257-1.381 3.528-.066 1.163 1.203 1.465 2.23.393 3.737-.495.696-.75 2.401-.334 2.769 2.186 1.938 4.424 4.097 7.055 5.127 1.242.487 3.407-1.374 5.15-2.18.484-.224.975-.708 1.429-.671 1.307.108 2.598.422 3.894.655-.424 1.177-.572 2.598-1.342 3.47-1.012 1.146-2.515 1.859-3.788 2.747 3.13 5.509 5.136 6.397 9.462 3.815 1.236-.738 2.997-2.625 4.374-.579 1.313 1.95-.748 3.115-1.98 4.289-1.321 1.258-2.298 2.431-.765 4.288 1.318 1.597 2.441 2.835 4.538 1.046.623-.532 1.688-.874 2.488-.779.849.1 1.909.645 2.34 1.332.328.523.074 1.761-.364 2.356-2.273 3.091-2.179 2.923.359 5.672 1.346 1.457 2.284.426 3.501.262 1.278-.172 2.614.09 3.925.163-.359 1.164-.67 2.345-1.097 3.482-.24.64-.992 1.227-.961 1.808.19 3.55 4.563 5.991 7.671 4.417 1.61-.816 3.548-2.448 4.994-.382 1.521 2.175-.632 3.538-2.129 4.722-1.897 1.5-1.73 2.896-.487 4.807 1.245 1.913 2.364 1.995 4.138.842.557-.362 1.936-.33 2.294.082.514.59.583 1.699.558 2.578-.016.552-.56 1.085-.853 1.635-1.543 2.89-.977 3.727 2.305 3.911 1.201.067 2.369.723 3.552 1.109-.374 1.092-.799 2.171-1.104 3.281-.242.883-.751 2.056-.394 2.648.443.731 1.639 1.326 2.547 1.384 1.295.08 2.643-.633 3.934-.539 1.235.09 3.088.444 3.502 1.27.896 1.784-.811 2.6-2.259 3.184-3.011 1.215-3.207 1.645-1.974 4.6 1.225 2.934 2.414 3.313 5.893 2.109 1.231-.427 2.71-1.4 3.625.558.907 1.942.546 3.427-1.549 4.339-.961.418-1.86.979-3.232 1.713 1.135 1.97 1.79 4.328 3.334 5.371 1.083.732 3.371-.404 5.134-.548.701-.057 1.862.11 2.065.534.371.776.554 2.045.151 2.699-.718 1.17-2.004 1.974-2.908 3.052-.569.68-1.352 1.669-1.222 2.366.777 4.177 2.976 5.463 7.002 4.617.901-.189 1.951.33 2.932.524-.292 1.168-.224 2.712-.959 3.416-1.157 1.107-2.856 1.649-4.261 2.396.802 3.929 1.863 7.532 7.152 6.805.623-.086 1.391.89 2.091 1.372-.481.694-.824 1.579-1.468 2.051-3.422 2.512-3.447 2.477-2.087 6.43.116.336.196.685.316 1.02 1.333 3.716 1.769 3.895 5.671 3.304.987-.149 2.074.36 3.115.567-.417 1.207-.619 2.565-1.327 3.566-.491.695-1.639 1.071-2.564 1.28-1.399.316-2.599.939-2.069 2.417.413 1.148 1.445 2.299 2.511 2.922.908.529 2.301.148 3.395.465 1.113.323 2.121 1.007 3.175 1.533-.828 1.054-1.443 2.484-2.522 3.094-3.852 2.173-4.001 2.1-2.595 6.057.278.782 1.485 1.578 2.367 1.719 1.275.203 2.697-.469 3.958-.235 1.065.196 1.989 1.149 2.976 1.768-.673.908-1.17 2.1-2.064 2.652-1.094.678-2.538.767-3.792 1.219-.643.231-1.471.557-1.752 1.086-1.228 2.308 1.49 6.568 4.061 6.518 1.158-.022 2.361-.23 3.46.016.834.188 2.036.86 2.163 1.5.14.696-.573 1.964-1.265 2.343-1.374.753-3.038.958-4.484 1.607-.76.342-1.786 1.081-1.88 1.754-.577 4.13 1.626 6.32 5.66 5.813 1.899-.238 3.581-.153 4.464 2.6-2.031.756-4.024 1.604-6.084 2.239-2.535.781-2.018 2.761-2.022 4.584-.005 1.999 1.545 1.544 2.687 1.705 1.146.162 2.403.033 3.425.469 1.328.566 2.472 1.564 3.856 2.482-2.771 2.713-6.974.853-9.018 4.634 2.208.192 4.078.175 5.849.583.982.227 1.8 1.166 2.692 1.783-.77.73-1.435 1.662-2.339 2.139-1.079.569-2.499.531-3.517 1.164-.834.519-1.295 1.637-1.921 2.487.9.406 1.77 1.027 2.708 1.156.929.128 1.979-.503 2.882-.323 1.145.228 2.194.938 3.284 1.438-.835.742-1.56 1.842-2.532 2.146-1.661.52-2.362 1.308-2.154 3.035.105.875-.048 1.779-.062 2.671-.078 4.951 1.295 6.101 6.077 4.887.642-.162 1.448-1.011 1.57-1.655.541-2.88.828-5.806 1.283-8.702.113-.719.309-1.645.81-2.046 3.056-2.441 6.072-4.98 9.374-7.05 2.867-1.796 6.165-2.688 9.751-2.213 1.625 9.306-2.347 18.209-1.656 27.344zm-74.25-309.302c2.986 0 6.047.426 8.948-.073 13.621-2.344 27.052-1.379 40.235 2.36 33.016 9.365 60.661 27.498 83.92 52.467 22.718 24.388 38.313 53.018 49.395 84.257 1.302 3.667 2.506 7.368 3.806 11.203 11.897-5.985 23.616-11.731 34.247-19.269-.131-.565-.173-.826-.252-1.075-12.632-40.072-32.814-75.479-63.883-104.303-14.714-13.65-30.122-26.253-48.516-34.653-22.685-10.359-46.334-14.484-71.087-9.859-13.963 2.607-26.128 9.074-36.813 18.945zm376.017 473.097c1.363-.803 2.129-1.241 2.884-1.699 25.16-15.247 47.595-33.867 67.982-55.008 17.577-18.227 32.661-38.403 46.447-59.59 3.844-5.906 5.959-12.273 5.618-19.416-.468-9.787-1.207-19.586-1.101-29.371.293-27.088.649-54.183 1.59-81.253.713-20.562 2.088-41.11 3.685-61.624 1.044-13.402 3.208-26.712 4.473-40.102.548-5.8.092-11.696.092-17.581-1.872-.381-1.829.914-2.005 2.227-.734 5.469-1.381 10.959-2.375 16.385-2.406 13.14-5.173 26.206-5.576 39.643-.584 19.411-1.286 38.821-2.164 58.221-.292 6.444-1.278 12.856-1.943 19.252-11.033.621-20.805 3.543-29.827 9.04-1.976 1.203-2.393 2.485-2.35 4.709.36 18.703.569 37.409.765 56.115.08 7.539.014 15.079.014 22.62l.793.422c1.103-1.043 2.371-1.961 3.27-3.157 1.439-1.916 2.569-4.063 3.952-6.026 1.286-1.825 2.966-3.131 5.393-2.81 2.454.325 2.899 2.427 3.465 4.258 3.058 9.901 2.906 19.49-3.006 28.457-7.708 11.688-15.391 23.468-25.204 33.489-11.84 12.089-24.238 23.633-36.48 35.323-3.728 3.562-7.562 7.061-11.675 10.152-3.155 2.37-5.13 1.461-6.544-2.208-1.549-4.021-2.276-4.521-5.964-2.414-2.041 1.167-3.876 3.143-5.087 5.181-1.136 1.911-1.621 4.35-1.883 6.615-1.014 8.791-2.514 17.444-5.941 25.673-.506 1.209-.745 2.529-1.298 4.477zm-431.61-483.283c-1.37.499-2.289.776-3.161 1.161-6.027 2.659-11.995 5.458-18.072 7.995-32.064 13.388-65.145 21.207-100.19 17.912-13.522-1.271-26.533-4.304-38.186-11.718-.232-.147-.53-.191-1.703-.594l16.411 70.233c.859-.426 1.188-.551 1.477-.737 24.908-16.06 52.014-27.148 80.339-35.461 6.357-1.866 12.789-3.165 19.498-2.304 1.211.155 2.649-.061 3.741-.597 12.545-6.157 25.029-12.441 37.564-18.619 4.789-2.36 4.874-2.28 4.369-7.402-.637-6.457-1.351-12.905-2.087-19.869zM704.417 172.94c-4.857-2.507-9.104-5.143-13.673-6.971-12.319-4.928-25.362-6.341-38.482-6.887-19.102-.796-38.14.318-57.101 2.647-11.171 1.372-22.121 3.8-32.605 7.994-2.208.884-4.389 2.03-6.284 3.452-2.592 1.945-2.511 4.296.133 6.097a30.493 30.493 0 006.132 3.201c12.583 4.863 25.747 6.997 39.119 8.055 14.169 1.122 28.376 1.095 42.449-.683 14.03-1.772 27.986-4.25 41.882-6.908 6.673-1.275 12.82-4.263 18.43-9.997zM281.52 125.299c-5.038-1.741-9.453-3.657-14.061-4.782-11.79-2.879-23.814-2.88-35.868-2.342-17.731.791-35.463 1.866-52.733 6.145-9.114 2.258-17.93 5.756-26.82 8.864-3.062 1.071-5.644 2.989-7.269 5.988-.986 1.82-.935 3.132 1.237 3.937 2.084.771 4.085 1.786 6.198 2.455 9.203 2.916 18.744 3.282 28.281 3.477 16.803.343 33.481-1.091 50.002-4.108 12.083-2.207 24.17-4.501 35.655-9.067 5.587-2.223 10.78-5.115 15.378-10.567zm179.462 429.186c12.789-4.929 25.111-10.41 36.912-17.058 1.951-1.099 2.766-2.362 2.838-4.544.541-16.37 1.268-32.735 1.699-49.108.13-4.939-.49-9.901-.786-15.197-1.09.379-1.781.514-2.369.838-9.896 5.46-19.755 10.988-29.688 16.379-1.676.91-1.864 2.076-1.778 3.688.671 12.586-.094 25.104-2.085 37.536-1.447 9.038-3.107 18.043-4.743 27.466zM50.416 254.25c0 3.438-.224 6.127.047 8.765.543 5.284 2.325 10.237 6.48 13.688 8.241 6.845 17.55 11.938 28.013 14.395 9.724 2.283 19.66 1.608 29.534.876 4.849-.359 9.687-.864 15.028-1.348-.719-2.833-1.306-5.224-1.937-7.603-.53-1.998-.181-3.464 2.081-4.052 2.063-.538 4.064-1.362 6.15-1.754 5.685-1.07 11.442-1.781 17.096-2.988 20.464-4.367 38.604-13.88 55.656-25.659 2.075-1.434 3.768-3.487 5.42-5.437.703-.829.846-2.131 1.245-3.218l-.579-.419c-1.278.742-2.569 1.461-3.831 2.23-26.49 16.143-54.684 27.631-85.856 30.335-18.05 1.566-35.98.196-53.438-5.067-6.344-1.913-12.404-4.44-16.827-9.813-.943-1.148-2.531-1.765-4.282-2.931zm236.98 119.153c1.925 2.558 3.396 4.433 4.783 6.369 3.991 5.573 5.668 6.207 11.799 3.274a14488.71 14488.71 0 0072.149-34.785c4.615-2.239 9.06-4.827 14.425-7.705-3.623-3.334-6.675-6.398-10.041-9.068-.899-.713-2.986-.729-4.14-.207-19.131 8.653-38.26 17.316-57.26 26.251-10.619 4.995-21.002 10.49-31.715 15.871zm-28.784-24.998c1.037 1.467 1.625 2.843 2.657 3.658 3.136 2.478 6.418 4.772 9.691 7.071 1.927 1.354 3.89 1.31 6.01.162 4.062-2.2 8.14-4.404 12.358-6.271 5.203-2.302 10.626-4.104 15.833-6.397 19.778-8.708 39.509-17.525 59.252-26.313.13-.059.186-.285.542-.865-3.991-2.608-7.954-5.289-12.015-7.812-1.927-1.197-3.941-1.095-6.097-.083-5.151 2.418-10.351 4.751-15.629 6.872-19.229 7.726-38.521 15.291-57.735 23.053-4.915 1.985-9.633 4.47-14.867 6.925zm168.664 42.747c-2.597-3.888-4.831-7.381-7.232-10.755-.941-1.323-2.24-1.629-3.944-.803-9.209 4.466-18.599 8.574-27.704 13.24-18.699 9.582-37.251 19.447-55.876 29.174-2.339 1.221-4.75 2.305-7.674 3.715 2.241 3.527 4.26 6.739 6.316 9.928.97 1.505 2.032 1.643 3.773.798 18.424-8.933 36.954-17.65 55.357-26.626 12.155-5.927 24.151-12.177 36.984-18.671zm-118.686 8.761c1.66 3.117 2.861 5.702 4.358 8.102 2.151 3.448 3.824 3.848 7.337 1.892 3.345-1.862 6.502-4.085 9.925-5.78 21.375-10.583 42.796-21.073 64.216-31.567 5.169-2.532 10.389-4.959 15.693-7.485-1.219-2.388-2.163-4.505-3.338-6.484-2.699-4.543-4.915-5.248-9.775-3.31-.662.264-1.335.506-1.975.816-19.154 9.257-38.392 18.348-57.42 27.856-9.778 4.885-19.185 10.519-29.021 15.96zm31.6 55.966c1.185 2.516 2.121 4.813 3.324 6.961.885 1.581 2.152 1.926 4.014.975a1130.414 1130.414 0 0124.401-12.091c20.534-9.878 41.144-19.597 61.633-29.566 7.544-3.671 7.714-4.865 3.774-12.462-.081-.158-.155-.32-.229-.482-.803-1.77-1.732-2.183-3.706-1.169-8.392 4.309-16.901 8.39-25.362 12.564-18.112 8.936-36.267 17.785-54.297 26.882-4.654 2.349-8.91 5.486-13.552 8.388zm-103.073-119.44c4.387 3.535 8.744 6.793 14.024 3.126.719-.5 1.601-.764 2.409-1.136 23.189-10.68 46.37-21.375 69.576-32.02 3.119-1.431 6.356-2.601 9.803-3.999-4.677-3.799-8.851-5.906-15.059-3.608-22.49 8.324-44.351 17.974-65.507 29.239-5.076 2.704-10.077 5.547-15.246 8.398zm250.026 243.672c-4.105 1.05-5.975 3.959-7.749 6.918-11.344 18.917-28.985 29.687-48.784 37.601-1.425.569-3.345.389-4.901.011-1.771-.43-2.65-1.697-1.362-3.608 2.334-3.463 4.308-7.218 6.966-10.404 8.206-9.843 14.616-20.83 20.892-31.911 1.505-2.656 2.604-5.541 3.889-8.321l-.961-.626c-1.337 1.653-2.828 3.205-3.983 4.977-5.191 7.961-9.776 16.377-15.547 23.886-7.314 9.517-15.585 18.296-23.393 27.437-1.472 1.724-2.708 3.648-4.256 5.759 1.237.306 1.899.561 2.579.622 7.312.671 14.625.731 21.743-1.285 17.528-4.967 31.427-15.152 42.182-29.768 4.841-6.583 9.09-13.503 12.685-21.288zm-127.778-64.25c5.715-3.026 11.34-5.851 16.82-8.932 24.135-13.568 47.607-28.352 72.997-39.612 1.358-.603 2.656-1.502 3.744-2.519 1.651-1.543 1.361-3.305.095-5.035-1.22-1.668-2.411-1.748-4.272-.714-26.544 14.754-53.141 29.413-79.712 44.116-2.88 1.595-5.797 3.166-8.487 5.047-2.762 1.93-3.041 3.901-1.185 7.649zM209.562 183.589c7.16.705 13.733-.256 20.217-1.908.6-.153 1.188-1.468 1.289-2.302.976-8.132 1.875-16.273 2.718-24.42.126-1.215-.016-2.5-.272-3.702-.328-1.534-1.27-2.153-2.97-1.747-1.98.474-4.032.647-6.05.967-3.772.6-7.562 1.122-11.296 1.903-.671.14-1.545 1.346-1.591 2.105-.316 5.22-.316 10.46-.657 15.678-.29 4.422-.9 8.821-1.388 13.426zM352.28 490.328c2.56-1.104 4.933-1.961 7.15-3.119 3.39-1.768 6.621-3.842 10.009-5.615 23.811-12.462 47.655-24.86 71.449-37.354 1.933-1.016 3.946-2.308 5.208-4.004.76-1.02.136-3.07.134-4.658-1.313.022-2.876-.418-3.904.135a11444.347 11444.347 0 00-65.039 35.201c-7.267 3.962-14.421 8.129-21.626 12.204-3.389 1.916-4.165 3.275-3.381 7.21zM213.9 327.441c2.764 1.237 4.685 1.949 6.455 2.933 1.665.924 3.01.723 4.7-.084 25.058-11.971 50.156-23.86 75.244-35.77.923-.438 1.843-.886 2.764-1.33-1.476-.354-2.909-.598-4.228-.313-7.288 1.574-14.933 2.337-21.747 5.117-18.609 7.594-36.888 16.005-55.232 24.238-2.617 1.174-4.869 3.157-7.956 5.209zm-24.949-174.065c-.49 3.374-1.109 6.341-1.319 9.338a490.914 490.914 0 00-.988 19.962c-.023.794 1.118 2.317 1.736 2.327 4.769.071 9.542-.134 14.312-.287 1.49-.047 1.814-.951 1.819-2.337.009-2.665.118-5.341.388-7.992.594-5.837 1.492-11.649 1.924-17.496.304-4.119-.025-4.372-4.251-4.302-4.438.075-8.871.498-13.621.787zm172.557 445.497l.605.787c2.336-.735 4.784-1.23 6.984-2.258 4.431-2.066 8.711-4.455 13.083-6.654 19.4-9.764 38.994-19.174 57.271-31.01 1.332-.862 2.981-1.704 3.646-2.989.6-1.157.051-2.91.009-4.4-1.025.144-2.187.025-3.055.475a1087.575 1087.575 0 00-18.629 9.901 21641.202 21641.202 0 00-52.287 28.464c-1.398.763-2.843 1.604-3.925 2.737-1.412 1.478-2.484 3.283-3.702 4.947zm-.587-55.353l.741.653c4.002-2.245 7.988-4.521 12.011-6.729 24.338-13.366 48.694-26.702 73.016-40.1 2.166-1.194 4.214-2.653 6.147-4.201 1.15-.92 1.987-2.248 1.037-3.918-.417.052-.703.019-.922.123-12.181 5.863-24.571 11.337-36.476 17.715-14.113 7.562-27.833 15.859-41.664 23.938-3.062 1.789-6.083 3.767-8.739 6.096-2.031 1.782-3.456 4.257-5.151 6.423zM254.014 145.898l-.811-.976c-4.442 1.11-8.9 2.164-13.305 3.404-.535.151-1.063 1.285-1.121 2.001-.25 3.104-.318 6.224-.464 9.337-.311 6.647-.628 13.293-.958 20.265 1.409 0 2.376.144 3.285-.027 2.62-.494 5.192-1.339 7.828-1.619 2.307-.246 2.888-1.447 3.05-3.432.225-2.75.686-5.481.912-8.231.568-6.905 1.061-13.815 1.584-20.722zm97.257 479.965l.733.869c3.888-1.689 7.879-3.179 11.648-5.103a7743.11 7743.11 0 0059.546-30.696c2.316-1.207 4.442-2.991 6.241-4.898 1.029-1.092 1.217-2.975 1.786-4.501-1.561-.037-2.4.238-3.172.641-13.804 7.201-27.694 14.243-41.367 21.686-10.857 5.91-21.47 12.271-32.121 18.552-1.319.776-2.207 2.282-3.294 3.45zM257.06 175.769c2.329-.566 3.976-.901 5.585-1.368 6.3-1.825 7.017-2.696 7.767-9.188.051-.442.164-.878.196-1.321.605-8.147 1.203-16.294 1.85-25.103-4.696 1.661-8.645 2.963-12.496 4.509-.664.267-1.258 1.557-1.292 2.397-.155 3.811.064 7.64-.153 11.446-.344 6.024-.928 12.033-1.457 18.628zm241.283 259.842c-.973.285-1.661.445-2.321.688-11.547 4.224-21.686 11.046-32.058 17.433-.431.266-.928.997-.854 1.417.482 2.764 1.112 5.501 1.745 8.486 1.285-.582 2.187-.916 3.017-1.379a9800.807 9800.807 0 0027.95-15.619c4.707-2.642 4.956-3.307 3.421-8.59-.221-.754-.544-1.478-.9-2.436zm-330.001-250.47c3.747.056 7.072.219 10.388.106 1.652-.056 2.213-1.109 2.162-2.938-.106-3.804.085-7.628.372-11.428.381-5.052 1.038-10.083 1.396-15.137.056-.792-.746-2.285-1.321-2.376-3.114-.494-6.282-.649-9.358-.915l-3.639 32.688zm490.633 7.549c.388 3.094 1.045 5.731.98 8.35-.158 6.482-.626 12.958-1.008 19.433-.415 7.018.556 7.759 7.594 6.061 1.474-.355 2.048-.938 2.163-2.436.489-6.386 1.417-12.759 1.523-19.147.063-3.827-1.027-7.688-1.766-11.5-.131-.673-1.107-1.712-1.649-1.685-2.545.127-5.077.567-7.837.924zm24.519 30.044c.512-11.388 3.077-22.5.95-34.426-3.157.769-5.989 1.353-8.734 2.215-.557.175-1.118 1.414-1.101 2.147.082 3.459.603 6.918.527 10.368-.154 6.993-.593 13.979-.936 21.438l9.294-1.742zm-527.339-71.762c-.806 9.479-1.57 18.702-2.382 27.92-.375 4.267.356 5.156 4.667 5.294.888.028 1.878.157 2.642-.174.712-.309 1.592-1.103 1.704-1.795 1.159-7.21 2.323-14.426 3.197-21.675 1.023-8.492-.372-9.855-9.097-9.68-.261.006-.52.077-.731.11zm444.768 75.762c0-10.075.19-19.15-.073-28.212-.151-5.199.69-4.192-4.917-5.145-.262-.044-.531-.048-.797-.066-1.481-.1-2.316.504-2.511 2.06-.263 2.117-.823 4.208-.952 6.33a898.423 898.423 0 00-1.015 21.012c-.027.739.47 2.04.961 2.167 2.772.716 5.615 1.156 9.304 1.854zm-16.259-3.062c.669-7.92 1.336-15.525 1.941-23.134.196-2.462 1.234-5.726.075-7.191-1.258-1.592-4.624-1.521-7.076-2.157-.146-.038-.333.08-.701.178-.266.912-.746 1.91-.829 2.94-.59 7.338-1.276 14.675-1.578 22.026-.261 6.34.394 6.823 6.896 7.333.434.035.874.005 1.272.005zm30.928-19.202c-.232-2.542-.404-4.85-.68-7.145-.081-.673-.367-1.818-.719-1.883-2.327-.43-4.709-.826-7.045-.702-.403.021-.915 2.571-.961 3.966-.265 7.921-.297 15.851-.626 23.769-.185 4.417-.233 4.59 4.173 4.973.706.062 1.523.227 2.105-.047.648-.305 1.486-1.012 1.556-1.621.814-7.164 1.499-14.342 2.197-21.31zm12.082 24.001c.191-3.35.433-6.183.499-9.02.155-6.568.478-13.148.247-19.706-.182-5.172-1.167-5.735-6.245-4.883-.701.117-1.683 1.196-1.76 1.912-.226 2.109.026 4.265-.065 6.395-.331 7.64-.77 15.275-1.036 22.917-.026.779.755 2.22 1.276 2.276 2.328.25 4.698.109 7.084.109zm14.125-33.718h-6.538c-1.519 0-2.214.462-1.935 2.251.409 2.622.672 5.306.606 7.954-.166 6.66-.622 13.312-.823 19.972-.132 4.366.046 4.333 4.438 4.26 2.42-.04 3.499-.925 3.62-3.398.175-3.546.861-7.076.899-10.618.074-6.717-.158-13.438-.267-20.421zM283.8 132.718c-6.066 2.131-7.508 3.637-7.122 8.868.261 3.537.155 7.113.024 10.665-.184 5.031-.542 10.056-.825 15.085 4.546.044 7.989-3.159 9.372-8.896 2.082-8.629.835-17.081-1.449-25.722zm178.178 315.344c1.911-.912 3.694-1.699 5.42-2.596 9.366-4.87 18.039-11.117 28.292-14.234.365-.111.943-.594.903-.805-.403-2.145-.835-4.295-1.491-6.37-.087-.272-1.663-.452-2.249-.129-9.81 5.406-19.617 10.817-29.318 16.411-3.944 2.274-3.98 3.143-1.557 7.723zM142.351 145.903c-.547 3.825-1.09 6.707-1.349 9.613-.543 6.12-.924 12.268.909 18.258 1.004 3.284 2.562 6.247 6.153 7.575.142-.315.32-.539.336-.773a6472.76 6472.76 0 001.994-29.526c.03-.469-.146-1.229-.468-1.4-2.305-1.225-4.674-2.333-7.575-3.747zm201.823 499.131c2.205-.876 4.233-1.533 6.13-2.461 11.744-5.739 23.587-11.294 35.14-17.399 9.182-4.853 18.005-10.387 26.957-15.672.787-.464 1.342-1.32 2.005-1.993l-.492-.712c-.817.361-1.661.675-2.448 1.092-6.129 3.249-12.179 6.654-18.382 9.752-12.888 6.436-25.841 12.743-38.809 19.017-1.795.868-3.794 1.422-5.76 1.8-2.342.448-4.79 3.667-4.341 6.576zm302.242-416.177c1.961-.154 3.437-.04 4.74-.46.775-.25 1.723-1.275 1.836-2.061.771-5.376 1.685-10.769 1.877-16.18.168-4.749-.313-9.561-.957-14.284-.339-2.479-5.283-3.35-6.957-1.417-.278.32-.327.999-.229 1.458 1.529 7.161 1.073 14.355.463 21.562-.307 3.615-.497 7.239-.773 11.382zM256.44 297.214l-.497-.996c-19.727 7.488-39.021 15.935-58.15 26.565 4.587 1.214 7.952 2.694 12.183.063 14.568-9.058 29.312-17.862 45.13-24.667.493-.211.892-.638 1.334-.965zm432.329-76.423l1.069.326c1.699-.921 4.452-.212 4.742-3.312.787-8.412 1.671-16.816 2.314-25.239.199-2.596-.251-5.241-.427-8.268l-7.673 2.521c2.346 6.357 1.417 12.635.877 18.923-.43 5.006-.61 10.032-.902 15.049zm-122.491-32.527c-.535 4.533-1.238 8.669-1.46 12.831-.265 4.958-.405 9.959-.052 14.902.263 3.671 2.55 4.972 6.219 4.318.03-.49.062-1.011.097-1.532.575-8.426 1.064-16.858 1.768-25.273.287-3.435.19-3.935-3.146-4.785-1.012-.257-2.08-.287-3.426-.461zm-11.136-4.062c-.172 2.493-.426 4.795-.471 7.103-.108 5.598-.337 11.208-.087 16.793.141 3.15 1.296 6.165 4.396 7.933.632-8.829 1.094-17.443 1.93-26.02.375-3.846-.873-5.423-5.768-5.809zM325.956 594.913c-.517-.276-1.333-1.023-2.22-1.121-1.88-.209-3.601 2.03-3.273 4.559.144 1.109 1.144 2.863 1.959 2.987 2.344.357 3.574-1.843 3.534-6.425zm-6.2 14.959l2.118 3.47c.826-1.331 2.042-2.585 2.33-4.024.168-.843-1.143-1.981-1.789-2.986l-2.659 3.54zm-.433 14.893c3.08-1.071 4.221-3.287 3.299-5.188-.185-.383-.749-.794-1.147-.804-.405-.009-1.1.394-1.184.735-.386 1.557-.601 3.158-.968 5.257z" filter="url(#a)"/><path d="M526.673 711.722c-2.097-4.36-2.849-8.985-2.299-13.729 1.024-8.845 2.49-17.642 3.386-26.497 1.407-13.918 2.801-27.851 3.644-41.811 1.311-21.699 2.654-43.418 3.062-65.146.463-24.59.221-49.207-.31-73.8-.372-17.271-1.335-34.557-2.772-51.773-1.57-18.818-3.664-37.609-6.149-56.331-1.85-13.936-4.6-27.755-7.127-41.594-.879-4.807-2.354-9.501-3.423-14.277-.326-1.455-.371-3.022-.257-4.516.216-2.818 2.265-3.971 4.389-2.132 2.005 1.733 4.074 4.046 4.797 6.492 2.741 9.288 5.624 18.621 7.208 28.143 2.995 18.009 4.948 36.189 7.666 54.248 3.376 22.434 4.68 45.014 5.4 67.646.736 23.157 2.138 46.322 1.923 69.473-.188 20.195-1.979 40.393-3.5 60.557-1.556 20.615-3.569 41.197-5.535 61.779-1.076 11.265-2.379 22.51-3.76 33.741-.651 5.297-2.671 8.046-6.343 9.527zm56.988-164.411c-4.737-1.682-7.028-4.339-8.335-7.958-4.884-13.526 4.449-29.452 18.609-31.752 4.373-.71 7.377 1.247 8.514 5.345.471 1.692 0 2.8-1.479 3.504-1.277.608-2.585 1.392-3.944 1.553-9.042 1.075-12.694 7.271-14.669 15.133-.737 2.936-.537 5.759.566 8.635.58 1.511.467 3.291.738 5.54zm10.443-11.11c.013-7.685 5.1-12.812 12.224-12.291.698.051 1.41.201 2.07.437 5.614 2 8.715 9.793 6.479 16.229-1.926 5.545-8.428 8.505-14.232 6.48-4.166-1.453-6.549-5.41-6.541-10.855zm9.7 6.318c1.618-.752 3.035-1.074 3.971-1.925 1.365-1.242 1.771-2.946.857-4.74-3.129.61-4.304 2.084-4.828 6.665zm-337.328 37.763c-.591 20.162-3.753 39.616-12.698 57.853-4.021 8.196-8.923 15.812-14.792 22.819-10.53 12.574-23.83 19.404-40.325 20.122-13.417.583-26.354-1.605-38.623-6.826-21.351-9.085-40.776-21.256-56.814-38.233-18.702-19.799-31.949-42.877-40.671-68.665-5.908-17.469-10.413-35.186-11.102-53.696-.942-25.334 3.256-49.649 14.238-72.695 8.43-17.691 21.269-30.605 39.646-37.685 9.07-3.493 18.577-3.188 28-2.112 23.648 2.702 43.549 13.762 61.932 28.158 21.613 16.926 36.827 38.756 48.722 63.159 9.255 18.987 16.429 38.692 19.565 59.653 1.393 9.32 1.973 18.762 2.922 28.148zm-94.508-151.559l.667-.941c-1.311-1.03-2.561-2.151-3.942-3.077-7.877-5.282-16.211-9.742-25.329-12.395-6.644-1.933-13.314-1.735-19.093 2.803-16.24 12.753-28.404 28.375-32.426 49.062-1.708 8.782-2.675 17.84-2.748 26.783-.201 24.724 4.374 48.678 12.922 71.913 11.484 31.214 29.427 57.616 56.63 77.271 8.906 6.435 18.046 12.456 28.702 15.669 4.037 1.217 8.141 1.981 12.374.921 4.37-1.095 7.587-4.446 8.219-8.351-10.394-6.09-20.801-11.924-30.939-18.193-12.692-7.849-24.268-17.126-32.116-30.077-15.805-26.082-28.035-53.582-32.515-84.103-1.848-12.591-3.113-25.119-.498-37.73 4.158-20.049 14.519-35.418 33.591-44.066 8.389-3.802 17.334-5.24 26.501-5.489zm-1.299 57.732c-.002 7.899 1.14 13.818 3.977 19.729 4.906 10.22 11.899 18.765 20.843 25.727 7.239 5.636 15.154 7.815 24.482 6.64 17.118-2.155 34.396-21.663 21.778-42.13-.094-.151-.171-.312-.269-.462-8.565-13.12-17.043-26.298-25.744-39.329-3.274-4.903-8.255-7.104-14.116-6.421-3.497.407-7.163 1.007-10.31 2.472-14.259 6.637-20.968 18.11-20.641 33.774zm-27.291 86.193c.118 24.478 22.038 48.072 47.478 49.589 10.805.644 17.769-3.698 23.157-13.997 1.837-3.512.875-5.681-2.854-7.204a35.71 35.71 0 00-6.118-1.858c-7.49-1.58-14.111-4.966-19.961-9.778-9.913-8.154-16.847-18.503-21.746-30.297-.919-2.214-1.923-4.419-3.145-6.475-3.137-5.278-7.424-5.504-11.252-.677a16.031 16.031 0 00-1.719 2.695c-2.71 5.346-3.951 11.035-3.84 18.002zm-10.712-108.439c.02 7.582 1.404 13.579 3.809 17.675 4.019 6.847 10.498 8.23 16.999 3.63 9.754-6.903 14.711-23.564 10.308-34.644-3.299-8.303-10.493-11.326-18.617-7.6-2.311 1.06-4.51 2.562-6.429 4.239-5.427 4.745-5.847 11.313-6.07 16.7zm38.272 244.08c-.643.438-1.169.765-1.663 1.138-2.417 1.825-3.941 1.81-5.999-.453-1.306-1.438-2.36-2.685-4.663-2.006-.696.205-2.131-.768-2.666-1.572-2.468-3.72-2.021-11.438.688-15.009.214-.283.424-.655.721-.775 1.18-.477 2.49-1.34 3.561-1.121.674.137 1.008 1.94 1.72 3.484 3.126 1.603 3.126 1.603 5.439 10.94 1.097-2.301 2.056-3.934 2.662-5.688.615-1.779 1.655-2.449 3.406-1.988 1.715.451 2.877 1.395 2.582 3.413-.23 1.567-.44 3.138-.66 4.707l.704.442c.668-.928 1.451-1.796 1.972-2.8.524-1.012.592-2.297 1.233-3.194.408-.573 1.666-1.091 2.242-.865.947.371 2.047 1.223 2.372 2.126.623 1.732.633 3.673 1.105 5.473.692 2.638 2.451 3.227 4.204 1.16 1.324-1.56 1.99-3.694 2.868-5.611.549-1.198.849-2.97 2.586-2.267 1.086.44 2.18 1.729 2.549 2.869.533 1.65.31 3.53.623 5.273.123.681.825 1.257 1.263 1.881.655-.525 1.667-.931 1.894-1.601.562-1.667.622-3.5 1.157-5.179.406-1.272 1.236-2.41 1.876-3.608 1.128.629 2.494 1.035 3.339 1.932 2.369 2.512 4.591 5.176 6.685 7.921.298.393-.232 2.078-.737 2.283-1.065.435-2.578.731-3.531.284-2.198-1.031-3.358-.306-4.877 1.328-3.04 3.27-6.599 3.363-10.383 1.012-.864-.537-2.257-.68-3.271-.437-3.25.778-6.319.956-9.213-1.101-.399-.284-1.135-.351-1.626-.21-4.74 1.366-6.11 1.106-10.162-2.181zm-63.263-35.461c-6.111.96-7.043.142-7.426-6.124-.031-.516-1.177-1.317-1.86-1.381-4.183-.385-5.527-1.948-4.042-5.949.821-2.214 2.529-4.23 4.23-5.946 1.39-1.402 3.657-1.739 5.035-.093.715.854.244 2.702.328 4.527 4.664 2.513 4.664 2.513 2.972 8.178 1.159-.166 2.257-.094 3.148-.49 3.843-1.707 6.929 1.21 5.271 4.972-.1.225-.051.515-.094 1.056 3.137 1.064 7.978 1.209 4.289 7.152l.733.293c1.504-.41 3.098-.632 4.489-1.283 1.516-.709 2.74-2.12 4.289-2.652 1.145-.394 2.922-.289 3.818.388.644.487.554 2.332.328 3.48-.233 1.18-1.254 2.198-1.517 3.379-.276 1.239-.062 2.588-.062 4.599 2.535-1.501 4.261-2.75 6.169-3.582 1.539-.671 3.794-1.641 4.817-1.006 1.03.64 1.001 3.085 1.294 4.764.13.744-.09 1.55-.151 2.328l.612.479 6.595-6.731c2.256 2.576 2.682 5.269.594 7.76-2.374 2.831-5.258 5.274-8.162 7.581-.429.341-2.575-.71-3.25-1.619-1.19-1.604-1.858-3.596-2.726-5.387-7.927 1.578-8.874 1.037-12.453-7.21-4.176 2.873-7.042.643-9.78-2.517-1.263-1.456-3.059-2.453-4.304-3.922-1.226-1.447-2.062-3.226-3.184-5.044zM40.258 526.704c-2.12-.84-4.49-1.573-6.628-2.735-.782-.425-1.576-2.029-1.351-2.802.273-.941 1.516-2.046 2.512-2.253 3.174-.659 6.079.286 8.079 2.892.711.927 1.046 2.52.8 3.645-.124.561-1.941.751-3.412 1.253zm2.13 12.415c-2.558-1.506-5.371-2.715-7.583-4.622-1.473-1.269.044-2.796 1.381-3.574 2.954-1.717 9.49 1.637 9.804 5.048.211 2.3-1.59 2.412-3.602 3.148zM208.106 398.74c-1.62 6.097-5.771 10.274-10.362 10.561-.794-6.002 4.364-11.383 10.362-10.561zM34.599 506.73c2.423 1.059 4.7 1.807 6.668 3.045.694.437 1.113 2.259.783 3.108-.333.859-1.872 1.943-2.67 1.795-2.208-.413-4.455-1.16-6.386-2.289-1.064-.623-1.523-2.28-2.255-3.471 1.225-.693 2.449-1.388 3.86-2.188zm220.054 159.185c2.259-2.165 4.574-1.899 6.832-.777 1.412.701 2.749 1.651 3.913 2.717.701.642 1.004 1.717 1.487 2.598-1.135.587-2.268 1.663-3.404 1.667-3.214.013-5.721-1.711-7.686-4.188-.433-.547-.7-1.225-1.142-2.017zm-63.014-278.839c-2.739 3.833-4.579 8.4-9.297 10.511-1.625-2.563-.613-6.428 2.398-9.403 2.385-2.358 4.414-2.734 6.899-1.108zm26.423 41.61c1.644-2.488 3.162-5.074 4.996-7.413.675-.862 2.052-1.487 3.179-1.616 2.253-.259 3.277 1.38 2.068 3.265-1.23 1.919-2.506 3.973-4.25 5.346-1.336 1.052-3.434 1.138-5.193 1.654l-.8-1.236zM40.484 542.327c1.74.633 3.736 1.135 5.51 2.062 2.206 1.15 2.055 3.219-.142 4.44-2.812 1.563-8.588-.479-9.633-3.516-.176-.511.225-1.613.679-1.866.97-.54 2.15-.703 3.586-1.12zm159.587-149.035c-1.461 5.389-4.08 8.274-8.66 9.642-1.275-2.579-.382-6.064 2.201-8.53 1.909-1.821 4.012-2.424 6.459-1.112zm16.146 12.949c-2.36 4.833-5.184 7.327-9.442 8.429-1.304-2.593-.365-5.745 2.406-8.081 2.407-2.029 4.515-2.166 7.036-.348zm-41.098-12.289c-1.424-3.492-.539-7.598 2.075-9.842 1.609-1.381 3.348-1.882 5.395-.252-1.804 3.895-1.81 9.006-7.47 10.094zm46.926 16.765c1.148 3.146-.166 5.126-1.78 6.942-1.715 1.929-3.782 3.381-6.516 2.889-.491-.088-1.279-1.691-1.059-2.031 1.132-1.749 2.35-3.55 3.924-4.875 1.452-1.222 3.392-1.865 5.431-2.925zM45.016 582.337c.223-4.782 5.594-7.912 9.471-5.825 1.794.965 1.569 3.245-.587 4.645-2.695 1.746-5.697 1.555-8.884 1.18zm223.287 78.836c-1.61-.705-3.81-1.538-5.859-2.647-.599-.325-1.173-1.537-1.024-2.171.157-.67 1.305-1.701 1.82-1.597 3.153.644 6.262 1.525 9.319 2.528.127.042-.109 2.304-.725 3.115-.436.573-1.8.44-3.531.772zM47.633 561.172c-2.436-.498-4.317-.674-6.043-1.288-2.405-.856-2.577-2.819-.555-4.388 2.165-1.68 6.929-1.256 8.532.959.517.714.75 2.131.383 2.858-.443.881-1.661 1.371-2.317 1.859zm4.419 32.346c-1.377-.537-2.894-.702-3.112-1.323-.263-.751.292-2.308.99-2.775 1.914-1.283 4.011-2.426 6.197-3.106.854-.266 2.902.689 3.049 1.379.218 1.018-.454 2.791-1.323 3.356-1.78 1.154-3.942 1.72-5.801 2.469zM34.21 495.576c2.066.917 4.204 1.333 5.47 2.612.869.878.646 2.958.59 4.491-.007.211-2.013.752-2.838.448a19.782 19.782 0 01-5.056-2.765c-.688-.521-1.341-2.098-1.034-2.686.472-.901 1.785-1.364 2.868-2.1zm12.147 75.45c-1.163-.12-1.732-.066-2.208-.251-.957-.37-1.862-.87-2.789-1.316.609-1.088.961-2.538 1.88-3.19 2.127-1.511 4.655-1.695 7.042-.551.73.351 1.55 1.397 1.555 2.13.004.755-.776 1.887-1.495 2.196-1.425.611-3.043.77-3.985.982zm227.101 77.495c-2.015-.646-3.744-1.073-5.352-1.776-.665-.29-1.588-1.276-1.488-1.759.188-.905.856-1.992 1.644-2.435 1.77-.994 6.958.618 8.054 2.372.259.415.305 1.385.028 1.637-.849.772-1.902 1.32-2.886 1.961zM55.665 602.826c-.649-1.133-1.461-1.916-1.504-2.74-.146-2.768 4.418-5.577 6.972-4.422 1.288.582 1.5 3.76.123 4.615-1.54.956-3.314 1.535-5.591 2.547zm4.055 8.746c-1.747-2.241-1.803-4.156-.349-5.393 1.291-1.098 3.167-1.765 4.878-2.032 1.428-.224 2.035 1.966.667 3.406-1.459 1.539-3.375 2.646-5.196 4.019zm258.085-390.09c-1.438 1.825-2.422 3.332-3.657 4.596-3.422 3.504-8.02 2.697-9.43-2.005-1.053-3.511-1.682-7.403-1.348-11.02.568-6.162 1.981-12.252 3.188-18.343.225-1.134.435-3.021 2.396-2.504 1.81.477 3.262 1.663 3.061 3.787-.335 3.544-.994 7.062-1.248 10.61-.213 2.983-.044 5.995-.044 9.539 2.906-1.493 4.093-3.617 5.06-5.892 1.458-3.434 2.767-6.933 4.329-10.317.383-.831 1.435-1.759 2.288-1.88 1.588-.227 2.996.432 3.141 2.411.3 4.079.521 8.166.939 12.232.201 1.959.772 3.879 1.176 5.817l1.169.267c1.36-2.196 2.978-4.278 4.019-6.617 1.515-3.404 2.543-7.021 3.928-10.487.521-1.303.91-2.999 3.099-2.594 2.077.385 2.521 1.938 2.502 3.534-.037 3.019-.412 6.032-.564 9.052-.143 2.841-.249 5.707 2.611 8.421.9-1.786 1.921-3.216 2.359-4.807.895-3.253 1.3-6.646 2.271-9.871.402-1.337 1.738-2.393 2.649-3.577 1.217 1.299 3.097 2.422 3.498 3.936.641 2.418.28 5.096.374 7.664.109 3.01-.027 6.065.461 9.016.446 2.696 2.238 3.154 4.109 1.114 1.219-1.33 2.17-3.074 2.736-4.799 1.246-3.798 2.061-7.737 3.27-11.549.699-2.204 1.162-4.941 4.379-4.916 2.105.018 3.185 1.88 3.531 5.805.228 2.572.295 5.162.613 7.721.158 1.272.718 2.495 1.252 4.253 4.425-3.027 7.185-6.607 8.359-11.377.362-1.467.332-3.111 1.012-4.393.566-1.066 2.001-2.474 2.885-2.366 1.128.138 2.618 1.469 3 2.606.603 1.793.438 3.852.55 5.8.184 3.189.207 6.395.567 9.563.099.873 1.014 2.025 1.818 2.314.542.195 1.88-.718 2.285-1.454 1.277-2.321 2.354-4.761 3.37-7.212.951-2.296 1.621-4.71 2.607-6.99.793-1.834 2.171-3.107 4.404-2.678 2.186.42 2.751 2.151 2.785 4.012.06 3.29-.148 6.585-.07 9.874.036 1.538.476 3.066.757 4.748 3.235-.842 4.605-2.983 5.599-5.396.981-2.382 1.595-4.929 2.718-7.234.898-1.842 2.318-3.429 3.727-5.443 2.333 2.892 2.581 5.746 2.544 8.528-.077 5.987-1.606 11.629-4.911 16.688-4.183 6.404-8.796 7.022-14.613 2.039-.667-.571-1.357-1.115-2.034-1.67-6.559 7.69-14.518 5.245-18.113-3.526-3.014 3.044-5.218 7.562-10.241 7.281-5.296-.296-6.475-4.808-7.676-9.916-1.366 1.661-2.339 2.688-3.123 3.844-.645.949-1.015 2.08-1.596 3.079-1.955 3.363-5.423 3.619-7.861.546-.769-.969-1.327-2.105-1.985-3.162-.65-1.043-1.305-2.083-2.357-3.762-1.371 1.734-2.353 3.236-3.597 4.474-1.117 1.111-2.572 2.745-3.787 2.669-1.397-.086-2.848-1.652-3.979-2.854-.745-.792-.831-2.165-1.458-3.115-.587-.889-1.499-1.563-2.267-2.332-.749.819-1.647 1.549-2.204 2.482-.583.976-.788 2.168-1.243 3.229-1.199 2.791-2.39 3.561-5.218 2.367-2.02-.853-3.875-2.402-5.404-4.018-1.233-1.305-1.875-3.176-3.367-5.842zm118.46-33.057c-1.999 2.514-4.651 2.939-7.337 3.101-29.916 1.8-59.645.314-89.168-5.001-6.392-1.151-12.858-1.875-19.261-2.968-1.897-.324-3.766-1.083-5.52-1.911-2.592-1.223-3.509-3.133-2.74-5.066.772-1.943 3.179-3.014 5.604-2.517 5.315 1.09 10.588 2.547 15.958 3.184 17.68 2.094 35.366 4.251 53.106 5.683 13.836 1.117 27.758 1.163 41.639 1.746 2.984.124 5.819.801 7.719 3.749zM345.27 554.729c-1.966 7.854-8.738 11.782-13.876 8.171 4.266-3.226 6.803-9.094 13.876-8.171zm-11.818-8.94c1.934-2.46 4.176-4.269 7.346-4.383 2.199-.078 2.725.866 1.786 2.811-1.694 3.507-7.158 5.375-9.132 1.572zm130.172-121.796c-1.276-1.062-2.999-1.875-3.754-3.227-3.14-5.628-2.807-7.182 2.818-10.145 4.54-2.392 9.413-4.158 14.164-6.14 2.539-1.06 4.476.067 5.548 2.269.919 1.889 1.351 4.029 1.851 6.094.104.432-.301 1.291-.703 1.496a1325.745 1325.745 0 01-17.865 8.903c-.452.222-1.052.142-1.583.202l-.476.548zm-4.729-28.016c3.183-1.672 6.146-3.283 9.158-4.792 1.889-.946 2.721-2.264 2.426-4.444-.219-1.615-.043-3.282-.043-5.315 4.041.971 6.001 3.213 7.191 6.366 1.131 2.999-.11 5.181-2.33 7.015-5.315 4.392-11.492 7.007-18.141 8.562-.731.171-1.88-.055-2.39-.552-2.397-2.339-4.236-5.099-4.457-8.543-.069-1.087.429-3.013 1.032-3.172 1.174-.311 2.865-.007 3.868.707 1.392.989 2.346 2.592 3.686 4.168z" clip-rule="evenodd" fill-rule="evenodd" filter="url(#b)"/></svg>