<svg xmlns="http://www.w3.org/2000/svg" viewBox="0 0 1000 1000"><defs><filter id="a" color-interpolation-filters="sRGB"><feColorMatrix result="color1" values="180" type="hueRotate"/><feColorMatrix result="color2" values="-1 0 0 0 1 0 -1 0 0 1 0 0 -1 0 1 -0.21 -0.72 -0.07 2 0"/></filter><filter id="b" color-interpolation-filters="sRGB"><feColorMatrix result="color1" values="180" type="hueRotate"/><feColorMatrix result="color2" values="-1 0 0 0 1 0 -1 0 0 1 0 0 -1 0 1 -0.21 -0.72 -0.07 2 0"/></filter></defs><path d="M138.32 119.09l-6.41 5.63-.58 228.04c-.39 168.41.19 229.21 1.75 233.28 1.36 2.91 4.47 7.19 7.19 9.13 4.66 3.88 9.71 3.88 359.74 3.88h354.88l5.05-4.08c2.91-2.14 6.02-7.19 7.19-11.07 1.55-5.05 1.94-76.73 1.55-233.09l-.58-226.1-6.41-5.63-6.22-5.63H144.54l-6.22 5.64zm701.6 224.55v189.38H160.08V154.24h679.84v189.4zM70.34 737.56C1.38 875.86 4.29 867.7 17.5 880.13l6.8 6.41h951.4l6.8-6.41c13.21-12.43 16.12-4.27-52.83-142.57l-62.55-124.9H132.88l-62.54 124.9zm802.22-43.71c17.29 36.32 31.86 67.21 32.63 68.96 1.17 3.11-27.97 3.3-404.99 3.3-223.38 0-406.16-.58-406.16-1.16s14.57-31.66 32.44-68.96l32.24-67.79h682.37l31.47 65.65zm-273.5 83.53c0 .78 3.11 19.04 6.8 40.6 3.69 21.56 6.8 40.98 6.8 43.32 0 3.88-.58 3.88-112.66 3.88H387.34v-4.47c0-2.33 3.11-21.76 6.8-43.12 3.69-21.37 6.8-39.43 6.8-40.4 0-.78 44.68-1.36 99.06-1.36 54.58-.01 99.06.58 99.06 1.55z" filter="url(#a)"/><path d="M165.13 637.13c-2.33 6.22-.97 6.8 13.6 6.22 13.01-.58 15.35-1.17 17.87-5.05l2.72-4.27H182.8c-13.21 0-16.7.58-17.67 3.1zm39.82.59c-1.17 1.94-1.36 4.08-.78 4.86.58.58 7.58 1.17 15.34 1.17 12.04 0 14.57-.58 16.32-3.69.97-2.14 1.94-4.27 1.94-4.86 0-.58-6.99-1.16-15.54-1.16-13.01-.01-15.73.57-17.28 3.68zm39.82-.59c-2.33 6.22-.97 6.8 14.57 6.22 14.37-.58 16.12-.97 17.48-5.05 1.55-4.27 1.36-4.27-14.57-4.27-13.02 0-16.51.58-17.48 3.1zm40.98-1.74c-.78.58-1.36 2.91-1.36 4.86 0 3.11 1.75 3.5 14.18 3.5 13.99 0 18.84-1.94 18.84-7.19 0-1.94-4.08-2.53-15.15-2.53-8.35 0-15.93.58-16.51 1.36zm38.65 1.94c-2.14 5.24 1.36 6.6 16.32 6.02 12.63-.58 14.37-.97 15.73-5.05 1.55-4.27 1.36-4.27-14.57-4.27-13.4 0-16.5.58-17.48 3.3zm39.63 1.55c0 5.05 0 5.05 16.12 4.47 14.76-.58 15.93-.97 16.51-5.05.58-4.08.19-4.27-15.93-4.27-16.51 0-16.7 0-16.7 4.85zm40.21-.77c-1.36 5.25 1.16 6.02 17.29 5.25 12.24-.58 13.4-.97 13.98-5.05.58-4.08.19-4.27-14.76-4.27-13.99-.01-15.54.38-16.51 4.07zm39.82.19c.58 4.27 1.55 4.47 16.12 4.47s15.54-.19 16.12-4.47c.58-4.08.19-4.27-16.12-4.27-16.32 0-16.71.19-16.12 4.27zm40.4.58c0 4.86.19 4.86 15.54 4.86 15.34 0 15.54 0 15.54-4.86s-.2-4.86-15.54-4.86c-15.35.01-15.54.01-15.54 4.86zm39.24-.58c.58 4.08 1.75 4.47 16.7 5.05 15.93.58 15.93.58 15.93-4.47 0-4.86-.2-4.86-16.71-4.86-16.12.01-16.51.2-15.92 4.28zm40.79 0c.58 4.08 1.75 4.47 14.96 5.05 15.15.58 18.65-.78 16.51-6.02-.97-2.72-4.08-3.3-16.7-3.3-14.97 0-15.36.19-14.77 4.27zm38.46-2.52c0 6.8 2.52 7.96 17.67 7.96 15.15 0 15.35 0 15.35-4.86s-.19-4.86-16.51-4.86c-9.13.01-16.51.78-16.51 1.76zm41.18 2.52c.58 4.08 1.75 4.47 16.7 5.05 15.73.58 17.09 0 14.76-6.22-.97-2.53-4.27-3.11-16.71-3.11-14.95.01-15.34.2-14.75 4.28zm38.46-3.11c0 .58.97 2.72 1.94 4.86 1.75 3.11 4.27 3.69 16.32 3.69 7.77 0 14.57-.58 15.15-1.17.58-.58.78-2.72.19-4.86-.97-3.3-2.91-3.69-17.29-3.69-8.93.01-16.31.59-16.31 1.17zm40.59 3.11c1.36 4.08 3.11 4.47 17.48 5.05 15.54.58 16.9 0 14.57-6.22-.97-2.53-4.47-3.11-17.48-3.11-15.93.01-16.12.01-14.57 4.28zm39.05-3.11c0 .58.97 2.72 1.94 4.86 1.75 3.11 4.27 3.69 17.48 3.69 8.55 0 15.54-.58 15.54-1.17 0-.58-.97-2.72-1.94-4.86-1.75-3.11-4.27-3.69-17.48-3.69-8.55.01-15.54.59-15.54 1.17zm41.18 3.11c2.52 3.88 4.86 4.47 17.87 5.05 14.57.58 15.93 0 13.6-6.22-.97-2.53-4.47-3.11-17.68-3.11h-16.51l2.72 4.28zm-647.22 16.9c-4.66 9.13-4.47 9.32 17.09 8.35l15.93-.78 2.91-6.8c1.55-3.69 2.91-7.19 2.91-7.57 0-.39-7.77-.78-17.48-.78h-17.48l-3.88 7.58zm46.62-6.8c0 .39-1.36 3.88-2.91 7.77l-2.91 6.99h36.51l2.14-6.02c1.17-3.5 2.14-6.99 2.14-7.77 0-.97-7.77-1.75-17.48-1.75-9.53 0-17.49.39-17.49.78zm41.18 6.41c-1.17 3.89-1.94 7.38-1.75 7.58.39.39 30.11 1.36 33.6.97 1.36-.19 2.91-2.33 3.5-4.86.58-2.52 1.75-6.02 2.33-7.77.97-2.72-1.17-3.11-17.09-3.11h-18.45l-2.14 7.19zm45.65-5.83c-.58.97-1.55 4.47-2.33 7.77l-1.36 6.41 12.43.39c23.31.58 23.7.58 25.83-9.71l1.36-6.21h-17.68c-9.51-.01-17.87.58-18.25 1.35zm41.76 6.41l-1.94 7.77 10.1.39c11.07.39 25.06-.39 26.03-1.36.39-.39 1.36-3.88 2.33-7.58l1.55-6.99h-36.13l-1.94 7.77zm45.45-5.43c-3.88 12.24-3.5 13.21 4.08 13.6 7.19.19 28.55-.58 28.94-1.17.19 0 .78-3.5 1.55-7.58l1.36-7.19H395.1c-12.42 0-17.86.78-18.25 2.34zm42.34 4.46c-.58 3.88-.78 7.38-.39 7.77 1.16 1.17 10.49 1.75 24.47 1.36l12.04-.39v-15.54h-34.77l-1.35 6.8zm43.9.78c0 4.27.97 7.77 2.52 8.35 1.17.39 9.52.39 18.45 0l15.93-.78v-15.15h-36.9v7.58zm44.68.19v7.77h34.96v-15.54h-34.96v7.77zm42.73-.19v7.77l16.51.58c19.81.78 20.39.58 20.39-5.25 0-10.1-1.17-10.68-19.62-10.68H550.5v7.58zm43.9-.39c.78 4.08 1.36 7.58 1.55 7.77.78.97 33.99 1.36 34.97.39.58-.58.58-4.27-.2-8.16l-1.17-7.19h-36.51l1.36 7.19zm44.09-.19c.58 3.88 1.36 7.38 1.75 7.58.78.78 22.53 1.55 29.91 1.36l6.22-.39-1.94-7.77-1.94-7.77h-35.16l1.16 6.99zm43.13-.78c.78 3.5 2.14 7.19 2.91 8.16 1.75 1.75 32.63 2.14 34.38.39.58-.58.39-3.89-.58-7.38l-1.94-6.41-18.07-.58-18.06-.58 1.36 6.4zm44.09 0c1.17 3.5 2.72 7.19 3.69 8.16 1.56 1.75 75.17 2.14 76.92.58.39-.58-.78-4.08-2.53-7.97l-3.5-6.99h-76.72l2.14 6.22zm83.13-5.24c0 1.94 6.22 13.6 7.77 14.57.97.58 8.16.78 16.32.39l14.76-.78-3.88-7.57-3.88-7.58h-15.54c-8.55-.01-15.55.38-15.55.97zm-657.7 20c-2.14 1.36-8.55 12.63-8.55 14.96 0 .58 13.79.97 30.69.97h30.5l3.11-7.58c1.94-4.27 2.72-8.16 2.14-8.74-1.56-1.74-55.36-1.35-57.89.39zm66.43 2.72c-1.55 2.53-3.3 6.41-4.08 8.74-1.17 4.47-.97 4.47 17.09 4.47h18.45l2.91-7.38c1.55-3.88 2.53-7.77 1.94-8.74-.39-.78-8.16-1.36-17.09-1.36-14.95 0-16.69.39-19.22 4.27zm46.04-1.94c-1.16 1.36-2.91 5.44-4.08 8.74l-2.14 6.41h37.88l1.94-7.77c1.17-4.27 1.75-8.16 1.17-8.74-2.33-2.14-33.02-.97-34.77 1.36zm44.67 0c-1.16 1.36-2.72 5.44-3.5 8.74l-1.36 6.41h18.65c17.68 0 18.65-.19 19.62-4.47 2.72-12.63 3.5-12.04-14.76-12.63-11.85-.38-17.29.2-18.65 1.95zm44.48.97c-.97 1.94-2.33 5.83-3.11 8.74l-1.17 5.44h38.46l.97-7.38c.39-3.88.39-7.77 0-8.74-.39-.78-8.16-1.36-17.09-1.36-13.59 0-16.7.58-18.06 3.3zm44.29 1.75c-4.47 11.85-3.69 12.43 16.32 12.43h18.07l1.16-7.19c.78-3.89.78-7.77.19-8.74-.58-.78-8.35-1.55-17.48-1.55-15.93 0-16.51.19-18.26 5.05zm46.04-3.69c-.39.78-1.36 4.86-2.14 8.74l-1.36 7.38h39.24l-.58-8.35-.58-8.16-16.9-.58c-9.14-.2-17.1.19-17.68.97zm44.67-.2c-.78.78-1.36 4.86-1.36 8.94v7.38h37.1l-.58-8.35-.58-8.16-16.51-.58c-9.13-.2-17.29 0-18.07.77zm44.68 0c-.78.78-1.36 4.86-1.36 8.94v7.38h38.08l-.97-8.35-1.17-8.16-16.51-.58c-9.14-.2-17.29 0-18.07.77zm44.29.97c-.78 1.17-.78 5.05-.2 8.74l1.36 6.6h37.1l-1.36-7.19c-.78-4.08-1.75-7.96-2.14-8.74-1.55-2.32-33.41-1.73-34.76.59zm44.86-.58c-.58.97-.58 4.86.2 8.74l1.16 7.19h38.08l-2.53-8.35-2.33-8.16-16.71-.58c-9.32-.2-17.28.19-17.87 1.16zm44.68 0c-.58.97-.19 4.86.97 8.74l1.94 7.19h36.72l-1.17-5.44c-2.91-11.65-3.5-12.04-21.17-12.04-8.94 0-16.71.78-17.29 1.55zm44.68 0c-.58.97 0 4.86 1.17 8.74l2.14 7.19h38.08l-3.5-8.35-3.5-8.16-16.7-.58c-9.15-.2-17.11.19-17.69 1.16zm44.67.2c-2.53 3.88 4.47 15.34 10.49 17.48 4.66 1.55 6.99 4.27 10.29 11.85l4.08 9.71h47.59l-3.88-9.32c-2.14-5.05-6.22-13.99-9.13-19.81l-5.25-10.68-26.61-.58c-14.76-.21-26.99.38-27.58 1.35zm64.3-.59c-.58.78.58 4.66 2.72 8.74l3.69 7.58h15.54c8.55 0 15.54-.39 15.54-.97 0-2.33-6.41-13.6-8.55-14.96-2.53-1.74-27.2-1.94-28.94-.39zm-681.6 25.45c-3.11 3.69-7.38 11.27-7.38 13.01 0 .58 16.9 1.17 37.49 1.17h37.29l3.11-7.58c1.94-4.27 2.72-8.16 2.14-8.74-.58-.58-16.51-1.17-35.35-1.17-30.31.01-34.77.4-37.3 3.31zm83.14-1.94c-1.36 1.36-6.99 13.79-6.99 15.34 0 .39 8.74.78 19.23.78h19.23l2.14-6.02c3.88-11.27 3.69-11.46-14.96-11.46-9.52 0-17.88.58-18.65 1.36zm43.9 3.88c-.97 3.11-2.53 6.99-3.3 8.74-1.36 3.11.39 3.5 18.06 3.5h19.42l2.14-6.02c3.88-11.27 3.69-11.46-16.12-11.46-18.26 0-18.26 0-20.2 5.24zm47.39-2.91c-.58 1.36-1.75 5.44-2.91 8.74l-1.94 6.41h19.23c10.49 0 19.62-.58 20.01-1.55.39-.78 1.36-4.66 2.14-8.74l1.36-7.19h-18.65c-13.22 0-18.85.77-19.24 2.33zm45.45 2.72c-4.66 11.85-3.88 12.43 17.29 12.43h19.23l.97-7.38c.39-3.88.39-7.77 0-8.74-.39-.78-8.74-1.36-18.26-1.36-16.9 0-17.48.19-19.23 5.05zm46.62 0c-4.66 11.85-3.88 12.43 17.48 12.43h19.42v-17.48h-17.48c-17.09 0-17.67.19-19.42 5.05zm45.84.97c-2.33 11.85-2.72 11.46 18.26 11.46h19.42v-17.48h-36.32l-1.36 6.02zm46.81-4.86c-.78.78-1.36 4.86-1.36 8.94v7.38h39.04l-.58-8.35-.58-8.16-17.48-.58c-9.71-.2-18.26 0-19.04.77zm46.23.78c-.58.97-.58 4.86.2 8.74l1.17 6.8h38.46l-1.17-6.41c-1.94-11.46-1.36-11.07-20-11.07-9.53 0-18.07.77-18.66 1.94zm45.65.78c0 1.36.58 5.44 1.17 8.74l1.36 6.02h38.46l-1.36-7.38c-.78-3.88-1.75-7.77-2.14-8.74-.39-.78-9.13-1.36-19.23-1.36-14.18 0-18.26.58-18.26 2.72zm46.62 0c0 1.36.58 5.44 1.17 8.74l1.36 6.02h19.04c10.68 0 19.23-.58 19.23-1.55 0-.78-.97-4.66-2.14-8.74l-1.94-7.19h-18.26c-14.38 0-18.46.58-18.46 2.72zm46.62.97c0 2.14.78 6.02 1.94 8.74 1.75 4.86 2.33 5.05 20.4 5.05 11.46 0 18.45-.78 18.45-1.94s-1.36-5.05-2.72-8.74l-2.91-6.8h-17.48c-16.13 0-17.68.39-17.68 3.69zm46.23-2.53c-.78.58-.19 4.27 1.17 8.16l2.52 7.19 19.62.58 19.62.58-3.5-8.35-3.5-8.35-17.29-.58c-9.71-.2-18.06 0-18.64.77zm101.39.78c0 .97 1.55 4.86 3.3 8.74l3.3 6.8h16.12c8.93 0 16.12-.39 16.12-.97s-1.75-4.66-3.88-8.74l-3.88-7.77h-15.54c-8.74 0-15.54.77-15.54 1.94zM122.2 723.38l-4.86 9.71h55.94l3.11-7.77c1.75-4.27 3.11-8.74 3.11-9.71 0-1.17-10.29-1.94-26.22-1.94h-26.22l-4.86 9.71zm66.43-7.38c-.58 1.36-2.33 5.83-4.08 9.71l-3.11 7.38h40.4l3.11-9.13c1.75-5.05 3.11-9.32 3.11-9.71 0-.39-8.74-.58-19.23-.58-13.6 0-19.42.77-20.2 2.33zm48.17-.58c-.58 1.16-2.33 5.44-3.89 9.71l-2.72 7.96h40.4l1.94-7.38c3.5-12.24 3.88-12.04-16.12-12.04-10.09 0-18.83.77-19.61 1.75zm45.45 6.41c-1.17 4.66-2.52 8.93-3.11 9.71-.39.97 8.35 1.55 19.42 1.55h20.4l2.14-8.55c1.17-4.86 2.14-9.13 2.14-9.71 0-.58-8.74-1.17-19.42-1.17h-19.23l-2.34 8.17zm49.92-6.61c-.58.97-1.55 5.44-2.33 9.71l-1.36 8.16h19.62c21.37 0 21.76-.19 21.76-14.18v-5.25H351.6c-10.1.01-18.84.78-19.43 1.56zm46.62 4.47c-2.72 13.79-3.11 13.4 18.06 13.4h19.23l1.17-6.02c2.72-13.79 3.11-13.4-18.06-13.4h-19.04l-1.36 6.02zm48.76-4.66c-.78.58-1.36 5.05-1.36 9.71v8.35h38.27l1.16-8.16c.58-4.47.58-8.93.19-9.71-1.16-1.94-36.51-2.14-38.26-.19zm47.2 8.35v9.71h38.85v-19.42h-38.84v9.71zm48.56 0v9.71h39.04l-.58-9.32-.58-9.13-18.84-.58-19.04-.58v9.9zm46.62-6.02c0 1.94.58 6.41 1.17 9.71l1.36 6.02h38.27v-5.44c0-13.79-.58-13.99-21.56-13.99-17.5.01-19.24.4-19.24 3.7zm48.56 1.55c0 13.99.39 14.18 21.76 14.18h19.62l-1.36-8.16c-.78-4.27-1.75-8.74-2.33-9.71-.58-.78-9.33-1.55-19.42-1.55H618.5v5.24zm46.62-4.08c0 .58.97 4.86 2.14 9.71l2.14 8.55h19.23c21.37 0 21.56-.19 17.09-13.4l-2.14-6.02h-19.23c-10.49 0-19.23.58-19.23 1.16zm48.56 1.17c0 1.36.97 5.83 2.14 9.71l1.94 7.38h60.02c40.4 0 60.22-.58 60.22-1.94 0-1.16-1.75-5.63-3.88-9.71l-3.89-7.77h-58.27c-45.27 0-58.28.58-58.28 2.33zm126.25-1.56c0 .39 1.75 4.66 3.88 9.71l4.08 8.93h34.77l-4.86-9.71-4.86-9.71h-16.51c-9.12.01-16.5.4-16.5.78zm-726.07 26.81c-2.91 3.88-8.16 14.76-8.16 17.09 0 1.36 6.6 1.94 19.81 1.55l20.01-.58 4.27-8.74c2.33-4.86 4.27-9.32 4.27-10.29.2-2.53-38.07-1.56-40.2.97zm46.23 5.83c-6.02 13.21-6.22 13.21 15.54 13.21h19.62l3.69-8.35c6.02-13.01 6.22-13.01-15.54-13.01h-19.62l-3.69 8.15zm49.72-.39c-5.44 13.6-5.44 13.6 16.32 13.6 21.37 0 20.98.19 24.86-14.18l1.94-7.19H212.9l-3.1 7.77zm50.31-1.56c-5.83 14.37-6.02 14.18 16.12 14.76 22.14.58 21.17 1.17 24.67-14.76l1.36-6.22h-39.43l-2.72 6.22zm50.5-3.88c-2.72 8.16-4.27 16.9-3.3 17.87.58.58 64.29 1.17 141.6 1.17h140.44v-4.66c0-2.52-.58-7.38-1.17-10.68l-1.17-6.02h-137.9c-108.39-.01-137.91.57-138.5 2.32zm286.51 3.88c0 15.15.2 15.15 22.73 15.15h20.2l-1.36-9.32c-.58-5.05-1.56-9.71-2.14-10.68-.39-.78-9.52-1.36-20.2-1.36h-19.23v6.21zm49.34.98c2.72 14.96 1.36 14.18 23.7 14.18h20.59l-1.36-6.41c-3.5-15.54-2.72-14.96-24.47-14.96H645.3l1.16 7.19zm47.78-6.61c0 .39 1.36 5.25 2.91 10.68l3.11 10.1h20.2c11.27 0 20.39-.19 20.39-.58 0-.39-1.36-5.25-2.91-10.68l-3.11-10.1h-20.2c-11.26 0-20.39.19-20.39.58zm51.67 3.69c.58 2.53 2.33 7.38 3.88 10.68l2.53 6.41h19.42c21.75 0 21.56.19 16.51-13.02l-3.3-8.35h-20.2c-20.2.01-20.2.01-18.84 4.28zm49.34-3.88c0 .39 1.75 4.86 3.69 10.29l3.69 9.71 20.78.58c16.32.39 20.59 0 19.81-1.94-.58-1.36-2.52-6.22-4.27-10.88l-3.3-8.16h-20.2c-11.07.01-20.2.2-20.2.4zm50.69.97c0 .78 1.94 5.44 4.27 10.29l4.27 8.74 20.01.58c22.34.58 22.53.39 15.35-12.24l-4.47-7.77-19.81-.58c-10.88-.19-19.81.2-19.62.98z" filter="url(#b)"/></svg>