<svg xmlns="http://www.w3.org/2000/svg" xmlns:xlink="http://www.w3.org/1999/xlink" width="5120" height="2880" viewBox="0 0 1354.667 762"><defs><linearGradient id="p"><stop offset="0" stop-color="#232629"/><stop offset="1" stop-color="#232629" stop-opacity="0"/></linearGradient><linearGradient id="o"><stop offset="0" stop-color="#232629"/><stop offset="1" stop-color="#232629" stop-opacity="0"/></linearGradient><linearGradient id="n"><stop offset="0" stop-color="#232629"/><stop offset="1" stop-color="#232629" stop-opacity="0"/></linearGradient><linearGradient id="m"><stop offset="0" stop-color="#232629"/><stop offset="1" stop-color="#232629" stop-opacity="0"/></linearGradient><linearGradient id="l"><stop offset="0" stop-color="#232629"/><stop offset="1" stop-color="#232629" stop-opacity="0"/></linearGradient><linearGradient id="k"><stop offset="0" stop-color="#232629"/><stop offset="1" stop-color="#232629" stop-opacity="0"/></linearGradient><linearGradient id="j"><stop offset="0" stop-color="#232629"/><stop offset="1" stop-color="#232629" stop-opacity="0"/></linearGradient><linearGradient id="i"><stop offset="0" stop-color="#232629"/><stop offset="1" stop-color="#232629" stop-opacity="0"/></linearGradient><linearGradient id="h"><stop offset="0" stop-color="#16a085"/><stop offset="1" stop-color="#16a085" stop-opacity="0"/></linearGradient><linearGradient id="g"><stop offset="0" stop-color="#232629"/><stop offset="1" stop-color="#232629" stop-opacity="0"/></linearGradient><linearGradient id="f"><stop offset="0" stop-color="#232629"/><stop offset="1" stop-color="#232629" stop-opacity="0"/></linearGradient><linearGradient id="e"><stop offset="0" stop-color="#fcfcfc"/><stop offset="1" stop-color="#fcfcfc" stop-opacity="0"/></linearGradient><linearGradient id="d"><stop offset="0" stop-color="#31363b"/><stop offset="1" stop-color="#31363b" stop-opacity="0"/></linearGradient><linearGradient id="c"><stop offset="0" stop-color="#3daee9"/><stop offset="1" stop-color="#3daee9" stop-opacity="0"/></linearGradient><linearGradient id="b"><stop offset="0" stop-color="#ed1515"/><stop offset="1" stop-color="#ed1515" stop-opacity="0"/></linearGradient><linearGradient id="a"><stop offset="0" stop-color="#3daee9"/><stop offset="1" stop-color="#3daee9" stop-opacity="0"/></linearGradient><linearGradient xlink:href="#a" id="q" x1="0" y1="-465" x2="1354.667" y2="297" gradientUnits="userSpaceOnUse"/><linearGradient xlink:href="#b" id="r" x1="0" y1="297" x2="1354.667" y2="-465" gradientUnits="userSpaceOnUse"/><linearGradient xlink:href="#c" id="w" x1="0" y1="440.322" x2="0" y2="0" gradientUnits="userSpaceOnUse"/><linearGradient xlink:href="#d" id="v" x1="0" y1="353.862" x2="0" y2="2880" gradientUnits="userSpaceOnUse"/><linearGradient xlink:href="#e" id="u" x1="0" y1="298.016" x2="0" y2="2880" gradientUnits="userSpaceOnUse"/><linearGradient xlink:href="#f" id="x" x1="728.3" y1="75.476" x2="1057.776" y2="-247.385" gradientUnits="userSpaceOnUse"/><linearGradient xlink:href="#g" id="y" x1="1005.417" y1="285.75" x2="1346.729" y2="-53.925" gradientUnits="userSpaceOnUse"/><linearGradient xlink:href="#f" id="z" x1="292.554" y1="0" x2="791.86" y2="499.306" gradientUnits="userSpaceOnUse"/><linearGradient xlink:href="#f" id="A" x1="960.043" y1="240.376" x2="1354.667" y2="635" gradientUnits="userSpaceOnUse"/><linearGradient gradientTransform="translate(-1354.667 465)" xlink:href="#c" id="s" x1="0" y1="-465" x2="1354.667" y2="297" gradientUnits="userSpaceOnUse"/><linearGradient xlink:href="#h" id="t" x1="193.349" y1="563.054" x2="1548.016" y2="-198.946" gradientUnits="userSpaceOnUse" gradientTransform="translate(-1548.016 198.946)"/><linearGradient xlink:href="#f" id="B" x1="452.701" y1="43.808" x2="168.255" y2="328.255" gradientUnits="userSpaceOnUse"/><linearGradient xlink:href="#l" id="F" x1="25.198" y1="223.384" x2="27.461" y2="215.836" gradientUnits="userSpaceOnUse"/><linearGradient xlink:href="#m" id="G" x1="73.39" y1="223.962" x2="70.87" y2="216.088" gradientUnits="userSpaceOnUse"/><linearGradient xlink:href="#n" id="S" x1="467.9" y1="291.23" x2="471.593" y2="298.405" gradientUnits="userSpaceOnUse"/><linearGradient xlink:href="#n" id="R" x1="508.72" y1="282.12" x2="508.21" y2="287.502" gradientUnits="userSpaceOnUse"/><linearGradient xlink:href="#n" id="Q" x1="536.769" y1="272.613" x2="541.263" y2="277.77" gradientUnits="userSpaceOnUse"/><linearGradient xlink:href="#n" id="P" x1="535.541" y1="264.498" x2="534.312" y2="257.771" gradientUnits="userSpaceOnUse"/><linearGradient xlink:href="#n" id="O" x1="504.566" y1="262.534" x2="507.469" y2="255.135" gradientUnits="userSpaceOnUse"/><linearGradient xlink:href="#n" id="N" x1="468.157" y1="265.503" x2="466.217" y2="259" gradientUnits="userSpaceOnUse"/><linearGradient xlink:href="#n" id="M" x1="418.454" y1="256.761" x2="422.293" y2="250.931" gradientUnits="userSpaceOnUse"/><linearGradient xlink:href="#n" id="T" x1="416.532" y1="286.286" x2="413.238" y2="292.789" gradientUnits="userSpaceOnUse"/><linearGradient xlink:href="#n" id="H" x1="142.162" y1="221.672" x2="144.451" y2="214.721" gradientUnits="userSpaceOnUse"/><linearGradient xlink:href="#n" id="I" x1="235.541" y1="242.161" x2="234.361" y2="234.986" gradientUnits="userSpaceOnUse"/><linearGradient xlink:href="#n" id="J" x1="292.163" y1="246.624" x2="294.725" y2="239.225" gradientUnits="userSpaceOnUse"/><linearGradient xlink:href="#n" id="K" x1="344.194" y1="250.492" x2="340.413" y2="245.559" gradientUnits="userSpaceOnUse"/><linearGradient xlink:href="#n" id="L" x1="376.551" y1="242.933" x2="376.85" y2="236.206" gradientUnits="userSpaceOnUse"/><linearGradient xlink:href="#n" id="U" x1="379.161" y1="287.922" x2="386.75" y2="292.182" gradientUnits="userSpaceOnUse"/><linearGradient xlink:href="#n" id="V" x1="333.966" y1="305.47" x2="334.254" y2="313.318" gradientUnits="userSpaceOnUse"/><linearGradient xlink:href="#n" id="W" x1="287.92" y1="287.426" x2="281.859" y2="293.928" gradientUnits="userSpaceOnUse"/><linearGradient xlink:href="#n" id="X" x1="247.606" y1="281.369" x2="251.995" y2="288.768" gradientUnits="userSpaceOnUse"/><linearGradient xlink:href="#n" id="Y" x1="193.142" y1="300.763" x2="195.149" y2="309.284" gradientUnits="userSpaceOnUse"/><linearGradient xlink:href="#n" id="Z" x1="146.86" y1="286.723" x2="141.036" y2="289.862" gradientUnits="userSpaceOnUse"/><linearGradient xlink:href="#n" id="aa" x1="108.962" y1="278.45" x2="113.734" y2="286.073" gradientUnits="userSpaceOnUse"/><linearGradient xlink:href="#n" id="ab" x1="36.773" y1="305.434" x2="39.481" y2="314.627" gradientUnits="userSpaceOnUse"/><linearGradient xlink:href="#o" id="ac" x1="31.75" y1="370.151" x2="29.315" y2="364.689" gradientUnits="userSpaceOnUse"/><linearGradient xlink:href="#o" id="ad" x1="85.101" y1="361.351" x2="87.416" y2="356.23" gradientUnits="userSpaceOnUse"/><linearGradient xlink:href="#o" id="ae" x1="129.374" y1="360.866" x2="125.823" y2="357.282" gradientUnits="userSpaceOnUse"/><linearGradient xlink:href="#o" id="af" x1="153.482" y1="354.429" x2="156.262" y2="348.626" gradientUnits="userSpaceOnUse"/><linearGradient xlink:href="#o" id="ag" x1="180.778" y1="354.523" x2="176.813" y2="349.743" gradientUnits="userSpaceOnUse"/><linearGradient xlink:href="#o" id="ah" x1="212.628" y1="356.153" x2="215.857" y2="348.301" gradientUnits="userSpaceOnUse"/><linearGradient xlink:href="#o" id="ai" x1="275.832" y1="377.619" x2="277.657" y2="370.791" gradientUnits="userSpaceOnUse"/><linearGradient xlink:href="#o" id="aj" x1="333.792" y1="378.341" x2="332.297" y2="372.196" gradientUnits="userSpaceOnUse"/><linearGradient xlink:href="#o" id="ak" x1="384.686" y1="362.777" x2="381.818" y2="356.291" gradientUnits="userSpaceOnUse"/><linearGradient xlink:href="#o" id="al" x1="420.191" y1="360.019" x2="422.317" y2="354.215" gradientUnits="userSpaceOnUse"/><linearGradient xlink:href="#o" id="am" x1="472.045" y1="366.056" x2="471.623" y2="360.081" gradientUnits="userSpaceOnUse"/><linearGradient xlink:href="#o" id="an" x1="540.953" y1="325.046" x2="536.642" y2="322.486" gradientUnits="userSpaceOnUse"/><linearGradient xlink:href="#o" id="ao" x1="587.313" y1="275.917" x2="585.273" y2="271.479" gradientUnits="userSpaceOnUse"/><linearGradient xlink:href="#o" id="ap" x1="643.884" y1="216.955" x2="637.084" y2="215.077" gradientUnits="userSpaceOnUse"/><linearGradient xlink:href="#o" id="aq" x1="674.47" y1="157.514" x2="668.646" y2="152.052" gradientUnits="userSpaceOnUse"/><linearGradient xlink:href="#o" id="ar" x1="714.305" y1="101.348" x2="708.67" y2="98.276" gradientUnits="userSpaceOnUse"/><linearGradient xlink:href="#o" id="as" x1="736.83" y1="78.331" x2="738.839" y2="71.673" gradientUnits="userSpaceOnUse"/><linearGradient xlink:href="#o" id="at" x1="774.82" y1="116.118" x2="780.079" y2="112.192" gradientUnits="userSpaceOnUse"/><linearGradient xlink:href="#o" id="au" x1="810.011" y1="182.281" x2="817.555" y2="180.404" gradientUnits="userSpaceOnUse"/><linearGradient xlink:href="#o" id="av" x1="839.246" y1="216.458" x2="843.835" y2="206.728" gradientUnits="userSpaceOnUse"/><linearGradient xlink:href="#o" id="aw" x1="889.971" y1="241.97" x2="894.439" y2="235.996" gradientUnits="userSpaceOnUse"/><linearGradient xlink:href="#o" id="ax" x1="938.259" y1="270.389" x2="940.776" y2="264.415" gradientUnits="userSpaceOnUse"/><linearGradient xlink:href="#o" id="ay" x1="1000.143" y1="314.345" x2="1003.942" y2="310.077" gradientUnits="userSpaceOnUse"/><linearGradient xlink:href="#o" id="az" x1="1065.008" y1="367.678" x2="1068.951" y2="361.192" gradientUnits="userSpaceOnUse"/><linearGradient xlink:href="#o" id="aA" x1="1103.847" y1="380.71" x2="1102.311" y2="373.199" gradientUnits="userSpaceOnUse"/><linearGradient xlink:href="#o" id="aB" x1="1160.582" y1="386.648" x2="1162.037" y2="380.503" gradientUnits="userSpaceOnUse"/><linearGradient xlink:href="#o" id="aC" x1="1221.747" y1="386.039" x2="1217.128" y2="382.967" gradientUnits="userSpaceOnUse"/><linearGradient xlink:href="#o" id="aD" x1="1269.876" y1="380.981" x2="1270.497" y2="375.348" gradientUnits="userSpaceOnUse"/><linearGradient xlink:href="#o" id="aE" x1="1335.809" y1="395.192" x2="1338.621" y2="389.389" gradientUnits="userSpaceOnUse"/><linearGradient xlink:href="#p" id="aF" x1="1330.705" y1="245.605" x2="1328.217" y2="238.944" gradientUnits="userSpaceOnUse"/><linearGradient xlink:href="#p" id="aG" x1="1291.173" y1="274.849" x2="1286.246" y2="270.93" gradientUnits="userSpaceOnUse"/><linearGradient xlink:href="#p" id="aH" x1="1262.158" y1="288.353" x2="1266.334" y2="283.063" gradientUnits="userSpaceOnUse"/><linearGradient xlink:href="#p" id="aI" x1="1228.132" y1="278.626" x2="1228.79" y2="271.573" gradientUnits="userSpaceOnUse"/><linearGradient xlink:href="#p" id="aJ" x1="1195.156" y1="288.076" x2="1190.996" y2="282.002" gradientUnits="userSpaceOnUse"/><linearGradient xlink:href="#p" id="aK" x1="1170.632" y1="283.677" x2="1175.842" y2="280.738" gradientUnits="userSpaceOnUse"/><linearGradient xlink:href="#p" id="aL" x1="1136.413" y1="264.629" x2="1137.772" y2="259.34" gradientUnits="userSpaceOnUse"/><linearGradient xlink:href="#p" id="aM" x1="1079.083" y1="275.101" x2="1076.621" y2="270.007" gradientUnits="userSpaceOnUse"/><linearGradient xlink:href="#p" id="aN" x1="1025.205" y1="288.437" x2="1025.834" y2="282.167" gradientUnits="userSpaceOnUse"/><linearGradient xlink:href="#p" id="aO" x1="1028.144" y1="298.329" x2="1025.105" y2="302.835" gradientUnits="userSpaceOnUse"/><linearGradient xlink:href="#p" id="aP" x1="1071.426" y1="302.081" x2="1072.288" y2="309.33" gradientUnits="userSpaceOnUse"/><linearGradient xlink:href="#p" id="aQ" x1="1140.624" y1="316.922" x2="1138.272" y2="321.232" gradientUnits="userSpaceOnUse"/><linearGradient xlink:href="#p" id="aR" x1="1207.755" y1="333.033" x2="1210.706" y2="336.755" gradientUnits="userSpaceOnUse"/><linearGradient xlink:href="#p" id="aS" x1="1250.562" y1="328.463" x2="1248.688" y2="331.989" gradientUnits="userSpaceOnUse"/><linearGradient xlink:href="#p" id="aT" x1="1290.406" y1="328.616" x2="1294.503" y2="334.298" gradientUnits="userSpaceOnUse"/><linearGradient xlink:href="#p" id="aU" x1="1329.069" y1="321.274" x2="1327.237" y2="328.915" gradientUnits="userSpaceOnUse"/><radialGradient xlink:href="#i" id="D" cx="1609.524" cy="480" fx="1609.524" fy="480" r="121.576" gradientUnits="userSpaceOnUse"/><radialGradient xlink:href="#j" id="E" cx="1979.728" cy="702.864" fx="1979.728" fy="702.864" r="228.948" gradientUnits="userSpaceOnUse"/><radialGradient xlink:href="#k" id="C" cx="1733.894" cy="565.364" fx="1733.894" fy="565.364" r="328.61" gradientUnits="userSpaceOnUse"/></defs><path fill="#8e44ad" d="M0 0h1354.667v762H0z"/><path fill="url(#q)" d="M0-465h1354.667v762H0z" transform="translate(0 465)"/><path opacity=".6" fill="url(#r)" d="M0-465h1354.667v762H0z" transform="translate(0 465)"/><g><path transform="scale(.26458)" d="M2752.63 285.264l-115.788 215.789 136.842-157.895 78.947 147.367-13.586 79.545 136.387 163.563-104.477-41.553 7.992 87.92 105.264 205.264-163.158-100-131.578 310.525 178.947 47.37 23.887 163.765 100.16-192.041 112.795-113.83 112.978 107.478 147.627 40.235 107.815 78.603 427.23 175.957-112.117-158.19 332.256 103.286-184.211-115.791-300-278.947-168.084-61.303-179.283-133.434 172.824 230.455-193.227-60.795-74.336-127.554-110.525-115.79-42.105-194.738-205.264-278.947zm1368.423 1163.158l94.736 52.63h368.422l-363.158-73.683zm463.158 52.63l127.935 19.434 272.065-61.539-342.106-36.841zm400-42.105L5120 1643.158V1527.37zm-272.065 61.54l-292.915 82.59 240.384 50 144.23 96.153 96.155-46.154zM4900 1703.076l220 119.232-177.894-241.297zm220 119.232l-316.154-73.078L5120 1945.385zm-700.77-219.233l-61.539 192.309-303.845-7.694 140.369 221.854L4369.23 1880l307.694-53.846zm-365.384 184.615l-34.615-203.845L3850 1814.616zM3850 1814.615l-338.46 138.461 426.92 246.154-203.845-196.154zm0 0l-434.615-273.076L3369.23 1730l142.31 223.076 73.075-234.615zm-338.46 138.461l-392.31 23.078-65.384 84.615zm-457.694 107.693l126.923 203.846 500 123.076zm65.384-84.615l-265.384-128.845 125-123.079-182.51-2.697 57.51 125.774-265.385-128.846-34.615 92.308zm-565.384-165.385l-180.77-46.154v111.54zm-180.77 65.385l188.463 157.692h257.691zm188.463 157.692l200 211.539L3234.615 2430zM3234.615 2430l838.461 450h242.309zm-473.076-184.615l365.385 403.845 357.691 146.155zm-388.463-480.77l215.385-46.154 153.848-123.076zm369.233-169.23L3369.23 1730l-278.845-96.154-48.076-230.77-92.8 182.192-137.97-47.577-248.41-123.99zm-179.18-181.684l52.66-196.86L2442.105 1180l-478.947 189.475-284.21 21.05-152.632-52.63-136.841 63.158-231.77 53.1 194.926 10.058 284.21 110.525-45.962-119.494 183.617 92.653 141.293-41.579L2205.264 1380l-152.633 168.422 336.844-5.264zm-173.654 129.457l-43.32 140.688 150-103.846zm0 0l-343.32 106.072L1857.69 1830l288.463-111.54zm-243.32 175.303l-105.77 163.463 182.691 51.922zm76.921 215.385l-88.46 50 338.46 192.308zM1857.691 1830l-111.537 69.23 169.23 234.616zm57.694 303.846l596.154 361.539-276.924-253.846zm-169.23-234.616l-540.891-282.388 190.89 201.619zm-350-80.77l-242.31 69.231 292.31 153.848zm-242.31 69.231l-161.536 161.54 323.076 142.308zm0 0l-207.69-203.845L850 1737.69zm-303.845-150l-76.922 184.618 219.23 126.921zm96.154-53.845l-250-76.922-119.23-100-96.762 33.804 192.914 135.426zm-273.078-7.692l-365.385 65.385 246.155 53.846zm-119.23 119.23L488.46 1980l119.23 96.154 103.848-111.539zm53.845 280.77l138.463 115.385L1100 2283.846zm0 0L0 2210.77v146.155zM0 2356.924v142.307l746.154-307.692zM488.46 1980l-323.075-23.076 176.924 111.537zm-323.075-23.076l142.306-215.385L0 1918.461v88.463zm142.306-215.385l-173.076-103.848L0 1664.211zM0 1664.211l257.895-326.316L0 1453.684zm257.895-326.316l222.267 202.834 56.68-223.887-100 100zm278.947-21.053l110.527 121.053 73.684-126.317-73.684 57.897zm184.21-5.264l88.12 163.07 152.82 73.74 64.332-50.878 178.94 119.332 131.037-52.719-178.596-109.97-194.547-47.837zm615.249 252.545l236.775 173.568 115.385-34.615zm-688.932-126.228l-70.445 69.029 192.306 46.152zm-167.207 102.834l-184.008-29.96-161.539 126.922zm835.223 650.81L1330.77 2880h88.46zm737.246-643.117l-244.94 112.347-46.152 111.54zm-89.473-178.947l210.526-210.528 215.79-189.472-263.158 115.789zm426.317-400l147.367-252.633 100-215.79-163.158 173.684zm652.834 433.601l76.921-84.615-226.921 88.463zm76.921-84.615l296.155 223.078 485.53-38.213-466.3-42.557zm900 265.385l338.461 211.539-165.384-188.461 23.482-105.871zm-1150.808-340.688l-141.498 44.533-50 84.618zM5120 2122.308l-546.924 211.538L5120 2218.46zM1692.309 2180l350 700H2150zm426.922 192.309L2565.385 2880h111.539zm-1038.462 23.076L823.077 2880h100zM5120 2426.155l-789.23 34.614 789.23 50zM819.23 2487.69l-180.77 57.694L0 2880h230.77zm-180.77 57.694L0 2683.845v84.616zm3223.08-38.461L4788.46 2880h238.464zM2673.075 2580l453.848 300h146.152z" opacity=".03" fill="url(#u)"/><path transform="scale(.26458)" d="M2773.684 343.158l-136.842 157.895 215.789-10.528zm-136.842 157.895l-100 215.789-147.367 252.633 118.724-113.967 247.065 185.02-128.34-298.989L2878.947 780l-247.064-158.703zm-4.96 120.244l239.073 70.783 104.477 41.553-136.387-163.563zM2878.948 780l-57.894 105.264 163.158 100zM2508.2 855.508L2442.106 1180l173.683 36.842-52.66 196.86 113.795-41.393 50-84.618 141.498-44.533-178.947-47.369zm360.223 387.65l-191.498 129.15 215.385 34.616zm23.887 163.766l-80.77 130.767 230.77-134.615zm150-3.848l373.076 138.463-296.155-223.078zm76.921-84.615l-13.966-217.408-112.795 113.83zm0 0l315.385 142.308-68.746-212.003-147.627-40.235zm315.385 142.308l466.3 42.557-427.231-175.957zm466.3 42.557l220.138-54.904-332.256-103.285zm0 0l-485.53 38.213L3850 1814.615l-112.44-201.406zM3850 1814.616l269.23 261.538L4688.46 2130l-494.245-120.455zm0 0l-115.385 188.46 203.846 196.154zm0 0l-265.385-96.155-73.076 234.615zm-338.46 138.46l-457.694 107.693 446.373 6.29 438.242 132.171zm-457.694 107.693l65.384-84.615-565.384-165.385zm-500-250l34.615-92.308-215.385 46.154zm-180.77-46.154L2496.154 1580l-150 103.846zm-26.922-80.77l43.32-140.687-243.32 175.303zm-200 34.616l76.922 123.078 150 34.615zm243.32-175.303l-336.843 5.264-291.092 223.887 284.615-123.079zm0 0l106.68 36.842 66.975-166.299zm-336.843 5.264L2205.264 1380l-289.475 126.316zm535.83 170.039L3369.23 1730l-626.922-134.615zM2442.106 1180l-52.631-210.525-215.791 189.472-210.526 210.528zm642.105-394.736l110.525 115.789 74.336 127.554 193.227 60.795-172.824-230.455zM536.84 1316.842l-56.679 223.887 96.762-33.805 70.445-69.03zm-56.679 223.887l-345.547 96.962 173.076 103.848zm-172.47 200.81l-142.307 215.385L488.46 1980zm0 0L0 1841.54v76.922zm-173.077-103.848l161.54-126.921-38.26-172.875L0 1664.21zm1023.09-183.539l178.596 109.971 300.54 10.613-284.21-110.525zm479.137 120.584l170.85 86.033-33.196-112.874-183.617-92.653zm-300.541-10.613l-131.037 52.719 540.89 282.389-173.078-161.54zm409.853 335.108l-350-80.77 519.23 315.385zm-540.89-282.39l-178.94-119.331-64.332 50.879zm-243.272-68.452l-152.82-73.74 136.982 209.197zm-15.838 135.457l207.692 203.845 26.924-130.767zm0 0l-273.078-7.692-119.23 119.23L850 1737.692zm-392.308 111.539l157.693 169.23 280.77 84.616zm600 92.306l338.463 326.924-46.155-173.076zm338.463 326.924l73.076 326.924 211.539 184.615zm3491.902-755.668l-272.065 61.54L4900 1703.076zm-272.065 61.54l-127.935-19.434h-368.422l203.442 102.023zm-496.357-19.434l-23.482 105.87 165.384 188.462zm588.057 248.177L5120 2122.31v-176.924zm-126.922 76.924L4369.23 1880l473.079 50zM1857.69 1830l276.924 153.846 88.461-50zm703.848 203.846l-88.463 142.308 288.463 69.23zm200 211.539l723.076 550-250-365.385zM3234.615 2430l550 450h288.461zM342.31 2068.46L0 2103.077v107.693zm265.382 7.694L0 2356.924l746.154-165.385zm138.463 115.385l-107.693 353.846 180.77-57.694zm0 0L0 2499.23v76.924zm73.076 296.152L230.77 2880h115.384zm-180.77 57.694L0 2768.46V2880zM1692.31 2180L2150 2880h146.154zm-376.924 11.54L1419.23 2880h115.385zM5120 2218.46l-546.924 115.386L5120 2318.46zm-2885.385 23.08l276.924 253.845 11.537-161.54zm-115.384 130.769L2676.923 2880h176.922zm-915.385 19.23L1111.539 2880h50zm-123.076 3.846L923.076 2880h73.078zm996.154 57.691l300 426.924H2450zM1750 2456.924L1873.076 2880h73.078zm2580.77 3.846L5120 2583.845v-73.077zm-3407.694 42.306L561.54 2880h69.23zm2938.463 3.848L5026.924 2880H5120v-84.615zM2673.076 2580l600 300h203.848zm-1150 30.77L1626.924 2880H1700z" opacity=".03" fill="url(#v)"/><path d="M0 384.62l68.235-30.635 47.346 20.888 26.458-26.459 29.244 13.926 19.496-15.318 64.057 25.066 51.473 12.656 61.323-14.049 36.206-16.71 40.383 13.925 75.198-5.57 43.169-75.197 69.627-30.636 22.28-77.983 43.17-45.954L728.3 75.476l22.281 6.962 54.31 73.805 11.14 51.525 54.31 19.495 47.434 35.304 44.473 16.22 79.375 73.805 48.739 30.636 26.458-5.57 96.086 19.496 15.318-20.889 90.515 9.748 35.928 18.103V0H0z" opacity=".3" fill="url(#w)"/><path d="M728.3 75.476L803.776 0h550.89v404.116l-35.927-18.103-90.515-9.748-15.318 20.889-96.086-19.496-26.458 5.57-48.74-30.636-79.374-73.805-44.473-16.22-47.435-35.304-54.31-19.495-11.14-51.525-54.309-73.805z" opacity=".1" fill="url(#x)"/><path d="M728.3 75.476l-30.636 57.094 36.206-41.776 20.889 38.99 50.131 26.46-54.309-73.806zm31.307 107.637l2.114 23.262 25.529-12.268zm56.424 24.655l-26.459 52.916 32.029 30.636zm-26.459 52.916l-43.168-26.458-34.814 82.16zm-678.7-49.27l-60.475 20.16L0 215.193v100.794l89.454-25.199 45.357-27.718 23.939 45.358 71.815-16.38 37.798-23.938 39.058 37.798 62.996-1.26 17.638-31.498 59.217 28.978 42.837-22.678 32.758 3.78 30.238-22.68-35.278 7.56-22.678-10.08-51.657 15.12-44.097-28.978-42.837-2.52-23.939 17.639-68.036-21.42-47.877 7.56zm1243.795 25.199l-46.87 17.64-34.017 42.836-21.419-16.378-41.577-3.78-31.498 22.678-15.12-28.978-51.656-11.34-65.516 31.498-41.577-5.039 36.537 20.159 66.776-7.56 83.155 47.877 36.538-28.978 47.877 23.938 30.238-25.198 48.129 11.34zm-489.725 35.54l25.61 58.25 25.515-42.165zM646.14 312.207l-62.664 52.917 57.17-22.722 51.448-20.447zm145.617 9.23l-32.82 7.48 6.32 43.33zM190.78 347.022l-19.496 15.318v18.103zm-48.74 1.392l-26.458 26.459 11.462 32.778zm-73.804 5.57L0 384.62v21.21zm335.603 0l-36.206 16.711 53.288 14.338zm-36.206 16.711l-61.323 14.05 51.575 2.66zm151.787-8.355l-75.198 5.57 62.665 30.636zm-264.583 9.748l-.309 37.59 17.021-13.462zm648.818 35.778l-12.212 49.863 56.987-3.053zm-757.116 67.163l-17.3 48.846-85.48-6.106L0 531v130.256l197.42-81.41 93.622 24.423 56.987-24.423 46.811 6.105-12.212-45.793-77.34-40.705-42.74 42.74zm236.09 65.128l65.129 36.635 59.022-12.212zm124.15 24.423l147.557 11.194-89.551-50.881zm511.868-84.463l-30.53 49.864-59.021-13.23-103.799 6.106-17.3 22.388-62.075-7.123h-68.18l178.084 104.815-14.246-43.758 132.291 32.564 68.181-49.863 103.798 69.199 208.818-9.159v-80.393l-73.473-50.881-171.475 21.046-19.84 17.624zM730.657 594.09l-63.093 23.406-3.053 42.74zM285.954 633.78l-69.2 24.423 27.477 4.07z" opacity=".03" fill="#eff0f1"/><path d="M1005.417 285.75l41.577 5.04 65.516-31.498 51.657 11.339 15.119 28.978 31.498-22.679 41.577 3.78 21.419 16.38 34.018-42.838 46.869-17.64V.001h-63.5z" opacity=".1" fill="url(#y)"/><path d="M110.873 211.414l-60.476 20.16 84.414 31.497zm23.938 51.657l95.754 28.978-13.859-46.616zm81.895-17.638l51.657 22.678-3.78-30.238zm-166.31-13.86L0 215.195v50.397zm1304.27 5.04l-46.868 17.64 46.869 73.074zm-998.108 5.04l31.497 31.498 11.34-28.978zm31.497 31.498l59.217 28.978-3.78-28.978zm55.437 0l46.617 6.3 5.04-21.42zm669.018-13.86l-3.78 39.058 55.437-27.718zm98.274 17.64l17.639 40.317 23.938-36.537zM146.538 475.028l-17.3 48.846 59.023-4.07zm158.75 24.423l-42.74 42.74 64.11-2.544zm-261.53 18.317L0 531v25.44zm521.026 7.124l-58.005 39.687 73.778 5.597z" opacity=".03" fill="#fcfcfc"/><path d="M728.3 75.476l-30.636 57.094-43.169 45.954-22.28 77.983-69.627 30.636-43.17 75.197-75.197 5.57-40.383-13.925-36.206 16.71-61.323 14.05-51.473-12.657-64.057-25.066-19.496 15.318-29.244-13.926-26.458 26.459-47.346-20.888L0 384.62v55.702l35.617-7.016 45.713-12.827-22.816 26.565 45.712-12.827 25.522 17.916 22.816-26.566 25.52 17.915 36.127 1.018-30.02-19.335-6.106-20.353 25.44 6.106 10.568-20.75 40.434 19.51-4.19 35.84 36.373-26.784 32.183 9.055 97.317 31.975-62.647-45.923 46.588 18.382 32.93-15.574 45.204 22.763-8.783-29.865 41.187 15.002-3.803-26.003 38.295-16.71-2.09 27.85-1.713 26.673 46.276-27.368-4.178-43.866-.696-27.85-7.66-30.637 71.02 5.57 41.469-40.839-23.981-45.016L695.04 196.2l1.312-31.814 54.812-13.554 36.086 43.276-11.603 39.423-13.926-27.155-15.317 27.851-51.364-38.027 33.957 79.107 60.575-14.622 2.185 60.754 29.844-30.118 23.673-52.916 25.066-11.14-54.31-19.496-11.14-51.525-54.309-73.805zm142.04 151.787l22.863 30.487-28.261 14.402-43.341 19.168 56.146 9.957 38.32-13.04 3.012 62.963 21.585-36.206 21.584-36.207-44.473-16.22zm91.908 51.524l20.102 38.557-41.686-2.35 34.934 59.483 6.752-57.133 20.103 38.557 39.17-3.31zm79.375 73.805l4.784 16.973 43.955 13.663zm48.739 30.636l25.066 13.926h48.739l5.088 26.993 77.5-21.852 35.993-8.14 24.85 24.154 47.069 16.443v-30.636l-35.928-18.103-90.515-9.748-15.318 20.889-96.086-19.496zm0 0l-58.245 14.527-123.375-11.26-5.088 21.37 85.242 18.963 29.75 53.289 44.775-61.058 9.159 53.934 80.393 2.036-44.776-27.985 1.017-21.879 24.986 10.926-18.772-38.937-38.537 3.99zm-186.708 24.638l-39.179-29.512-59.53-7.123 12.72 61.057zm-98.71-36.635l-9.667-10.685-3.52-39.108-32.82 7.48-25.334 17.087 31.654 26.244zm-39.687 1.018l-56.988-9.159 35.617 43.758zm-6.32-43.33l30.635-68.235-77.982 55.702zm-47.347-12.533l-19.496 5.57 29.405 18.746zm-19.496 5.57l-54.309 21.585 47.343 4.458zm-54.309 21.585l8.355-31.333-62.664 52.917zm-54.309 21.584l48.74 43.169 45.945-34.252zm94.685 8.917l-17.72 44 65.128 4.07zm-17.72 44l-32.565 48.846 48.847-22.388zm586.314-15.747l-13.898 35.081 63.601 13.23zM541.378 436.36l-24.932 23.914 51.39-5.597zm-63.093 3.053l-31.546 11.194 19.335 18.317zm-12.211 29.511l-4.07 33.582 29.51-18.318zm-4.07 33.582l-45.794-42.74-25.762 5.382zm-143.111-74.716l-6.481 37.064 31.734-10.39zM50.397 231.573l39.057 59.216 45.357-27.718zm306.16 10.08l-23.938 17.639 55.436 13.859zm-139.85 3.78l13.858 46.616 37.798-23.938zm1091.09 8.82l-34.017 42.836 32.758 18.899zm-195.287 5.039l-65.516 31.497 61.736 7.56zm-559.405 1.26l-35.278 7.56 5.04 15.118zM443.492 273.15l3.78 28.978 42.837-22.678zm767.292 3.78l-31.498 22.678 49.137 17.639zm-359.29 42.826l-26.198 29.086 65.257-18.44zm-63.341 136.446l-33.073 32.564 70.216 34.09zm37.143 66.654l103.799-6.106-37.653-59.022z" opacity=".06" fill="#fcfcfc"/><path d="M0 315.988l89.454-25.199 45.357-27.718 23.939 45.358 71.815-16.38 37.798-23.938 39.058 37.798 62.996-1.26 17.638-31.498 59.217 28.978 42.837-22.678 32.758 3.78 30.238-22.68 21.364 21.364-11.881 5.228-43.17 75.197-75.197 5.57-40.383-13.925-36.206 16.71-61.323 14.05-51.473-12.657-64.057-25.066-19.496 15.318-29.244-13.926-26.458 26.459-47.346-20.888L0 384.62z" opacity=".1" fill="url(#z)"/><path d="M1005.417 285.75l95.298 95.299 16.105-3.39 96.086 19.495 15.318-20.889 90.515 9.748 35.928 18.103v-76.789l-48.13-11.339-30.237 25.198-47.877-23.938-36.538 28.978-83.155-47.877-66.776 7.56z" opacity=".1" fill="url(#A)"/><path d="M332.619 259.292l37.798 45.357 17.638-31.498zm0 0l-64.256 8.82 39.058 37.797zm-197.808 3.78l23.939 45.357 71.815-16.38zM0 265.591v50.396l89.454-25.199zm1046.994 25.197l-5.04 15.12 66.776-7.56zm61.736 7.56l83.155 47.877-12.6-46.617zm165.05-1.26l-45.357 20.159 47.877 23.938zM1030.348 531l-15.264 24.931-29.511-6.614-59.473-2.407-35.166 41.585-66.146-16.281-58.005 18.317 26.458 27.985 62.584 24.422 106.497 44.342L1141.78 762l-152.574-85.582 32.494-13.128 154.17 49.355L1330.04 762l-141.368-52.662 15.948-4.119 150.047 34.393-118.161-43.087 118.16-32.217v-77.34l-72.353 15.264v-12.72l-72.353 27.985-120.08-68.181zm-703.69 8.65l-21.37 21.37-14.246 43.249 43.073 20.83L352.1 762l-2.896-129.605 11.726-12.038L406.034 762l-34.615-152.286 23.421-23.764L478.921 762l-65.237-179.311 34.073-5.897-65.129-36.635-32.564 2.544zm121.099 37.143L568.854 762 487.26 594.586l73.454 33.087 30.529-34.6 63.093-17.299-147.556-11.194zm-156.715 27.476l-28.494-62.076-36.635 34.6-65.128-27.476-62.075 52.408L0 623.603v108.886l91.587-88.533 91.586-17.3 23.915-7.633zm439.615-10.177l-66.146 66.146 42.74 22.388 12.879-45.442 107.202 63.76zM285.954 633.78l-41.723 28.493-27.476-4.07L133.429 762l99.836-90.242 19.398 15.927L244.231 762l20.86-64.11z" opacity=".03" fill="#232629"/><circle r="79.375" cy="149.586" cx="458.759" opacity=".1" fill="#fcfcfc"/><path d="M728.3 75.476l-30.636 57.094-43.169 45.954-22.28 77.983-69.627 30.636-43.17 75.197 55.702-55.702 71.02 5.57 20.735-20.42 44.715 24.598-23.981-45.017 8.704-20.54 15.706-15.076-16.979-39.554 25.682 19.013 41-8.837 19.726 7.443 34.583-6.05-11.14-51.525-54.31-73.805zm87.73 132.292l5.571 83.552 43.341-19.168 51.125 16.086 24.597 26.756 41.686 2.35-6.752 57.133 26.855-18.576 39.17-3.31-79.375-73.804-44.473-16.22-47.435-35.304zm225.593 144.824l4.784 16.973-29.122 7.263 43.954 13.664 15.652 10.652-13.47 17.915 52.007-21.905 26.913 13.496 21.826-13.496 43.838 16.067 38.75-10.926 24.852 24.155 11.14-32.296 18.527-4.19 11.13 14.416 24.299 6.003 17.964-6.267-35.928-18.103-90.515-9.748-15.318 20.889-96.086-19.496-26.458 5.57zM646.14 312.208l-8.355 31.333 28.585-11.361zM519.42 362.34l-75.198 5.57-40.383-13.925-36.206 16.71-61.323 14.05 23.627 14.548 27.948-11.887 37.598 14.621 25.438-16.994 24.291 12.257 30.343-14.062zm-213.11 22.404l-51.473-12.656-64.057-25.066-19.496 15.318-29.244-13.926-26.458 26.459-47.346-20.888L0 384.62v21.21l34.117-25.923v17.247l39.18-20.3 24.342 3.964 23.673 10.444 13.23-13.23 36.741 2.41 42.81 9.725 40.589.716 16.866 5.333zm-195.436-173.33l-60.476 20.16L0 215.193v25.2l25.198 8.188 44.727 12.6 22.68-13.86 30.237-10.08 52.917 17.01 47.877 14.49 18.899-11.97 23.938-3.78 34.018 10.71 32.128-4.41-68.036-21.42-47.877 7.56zm221.746 47.878l39.687-1.89 21.419 1.26 49.767 14.489-44.097-28.978-42.837-2.52zm110.873 13.859l23.309 3.15 28.348-18.27zm51.657-15.12l27.718 25.2 30.238-22.68-35.278 7.56zm859.518-21.418l-46.87 17.64-34.017 42.836-21.419-16.378-41.577-3.78-31.498 22.678-15.12-28.978-51.656-11.34-65.516 31.498-41.577-5.039 36.537 20.159 35.908-11.34 32.758-15.748 25.828 5.67 7.56 14.488 41.577 23.939 18.27-14.49 15.748-11.339 20.789 1.89 10.709 8.19 23.938 11.969 15.12-12.6 17.009-21.418 24.064 5.67 23.435-8.82z" opacity=".03" fill="#fcfcfc"/><g fill="#cfcfcf"><path d="M866.39 139.027l15.394 38.484-3.732-21.598z" opacity=".1"/><path d="M888.519 174.625l-15.394-38.485 3.732 21.598z" opacity=".1"/><path d="M895.735 146.242l-38.485 15.394 21.598-3.732z" opacity=".1"/><path d="M860.136 168.371l38.485-15.394-21.598 3.733z" opacity=".1"/><path d="M883.207 137.635L865.04 174.89l13.492-17.274z" opacity=".1"/><path d="M871.703 177.941l18.166-37.256-13.491 17.273z" opacity=".1"/><path d="M898.57 163.54l-37.257-18.166 17.274 13.49z" opacity=".1"/><path d="M858.264 152.036l37.256 18.166-17.274-13.491z" opacity=".1"/></g><g fill="#cfcfcf"><path d="M1024.032 44.821l15.394 38.485-3.733-21.598z" opacity=".3"/><path d="M1046.16 80.42l-15.393-38.485 3.732 21.598z" opacity=".3"/><path d="M1053.377 52.037l-38.485 15.394 21.598-3.733z" opacity=".3"/><path d="M1017.778 74.166l38.485-15.394-21.598 3.732z" opacity=".3"/><path d="M1040.848 43.43l-18.166 37.256 13.491-17.274z" opacity=".3"/><path d="M1029.344 83.735l18.167-37.256-13.492 17.274z" opacity=".3"/><path d="M1056.211 69.334l-37.256-18.166 17.274 13.491z" opacity=".3"/><path d="M1015.905 57.83l37.257 18.167-17.274-13.492z" opacity=".3"/></g><g fill="#cfcfcf"><path d="M1247.63 213.617l15.395 38.484-3.733-21.597z" opacity=".3"/><path d="M1269.76 249.215l-15.395-38.485 3.733 21.598z" opacity=".3"/><path d="M1276.975 220.833l-38.485 15.393 21.598-3.732z" opacity=".3"/><path d="M1241.377 242.961l38.485-15.394-21.598 3.733z" opacity=".3"/><path d="M1264.447 212.225l-18.166 37.256 13.491-17.274z" opacity=".3"/><path d="M1252.943 252.531l18.166-37.256-13.49 17.273z" opacity=".3"/><path d="M1279.81 238.13l-37.256-18.166 17.274 13.491z" opacity=".3"/><path d="M1239.504 226.626l37.256 18.166-17.273-13.491z" opacity=".3"/></g><g fill="#cfcfcf"><path d="M1210.348 110.189l15.394 38.484-3.732-21.598z" opacity=".1"/><path d="M1232.477 145.787l-15.394-38.485 3.733 21.598z" opacity=".1"/><path d="M1239.693 117.405l-38.485 15.393 21.598-3.732z" opacity=".1"/><path d="M1204.095 139.533l38.485-15.394-21.598 3.733z" opacity=".1"/><path d="M1227.165 108.797l-18.166 37.256 13.49-17.274z" opacity=".1"/><path d="M1215.66 149.103l18.167-37.256-13.491 17.273z" opacity=".1"/><path d="M1242.528 134.702l-37.256-18.166 17.274 13.491z" opacity=".1"/><path d="M1202.222 123.198l37.256 18.166-17.274-13.491z" opacity=".1"/></g><g fill="#cfcfcf"><path d="M901.267 41.637l15.394 38.485-3.732-21.598z" opacity=".1"/><path d="M923.396 77.236l-15.394-38.485 3.732 21.598z" opacity=".1"/><path d="M930.612 48.853l-38.485 15.394 21.598-3.732z" opacity=".1"/><path d="M895.013 70.982l38.485-15.394-21.598 3.733z" opacity=".1"/><path d="M918.083 40.246l-18.166 37.256 13.491-17.274z" opacity=".1"/><path d="M906.58 80.552l18.166-37.256-13.492 17.273z" opacity=".1"/><path d="M933.447 66.15L896.19 47.985l17.274 13.492z" opacity=".1"/><path d="M893.14 54.647l37.257 18.166-17.274-13.491z" opacity=".1"/></g><g fill="#cfcfcf"><path d="M1034.761 158.295l15.394 38.485-3.732-21.598z" opacity=".1"/><path d="M1056.89 193.893l-15.394-38.485 3.733 21.598z" opacity=".1"/><path d="M1064.106 165.51l-38.485 15.395 21.598-3.733z" opacity=".1"/><path d="M1028.508 187.64l38.484-15.395-21.598 3.733z" opacity=".1"/><path d="M1051.578 156.903l-18.167 37.256 13.492-17.274z" opacity=".1"/><path d="M1040.074 197.21l18.166-37.257-13.491 17.274z" opacity=".1"/><path d="M1066.941 182.808l-37.256-18.166 17.273 13.491z" opacity=".1"/><path d="M1026.635 171.304l37.256 18.166-17.274-13.491z" opacity=".1"/></g><g fill="#cfcfcf"><path d="M972.223 99.365l15.394 38.485-3.732-21.598z" opacity=".1"/><path d="M994.352 134.963l-15.394-38.485 3.733 21.598z" opacity=".1"/><path d="M1001.568 106.58l-38.485 15.395 21.598-3.733z" opacity=".1"/><path d="M965.97 128.71l38.485-15.395-21.598 3.733z" opacity=".1"/><path d="M989.04 97.973l-18.166 37.256 13.49-17.273z" opacity=".1"/><path d="M977.536 138.28l18.166-37.257-13.491 17.274z" opacity=".1"/><path d="M1004.403 123.878l-37.256-18.166 17.274 13.491z" opacity=".1"/><path d="M964.097 112.374l37.256 18.166-17.274-13.49z" opacity=".1"/></g><g fill="#cfcfcf"><path d="M1290.926 136.647l15.394 38.485-3.732-21.598z" opacity=".1"/><path d="M1313.055 172.245l-15.394-38.484 3.732 21.598z" opacity=".1"/><path d="M1320.27 143.863l-38.484 15.394 21.598-3.733z" opacity=".1"/><path d="M1284.672 165.992l38.485-15.394-21.598 3.732z" opacity=".1"/><path d="M1307.743 135.255l-18.167 37.257 13.492-17.274z" opacity=".1"/><path d="M1296.239 175.561l18.166-37.256-13.491 17.274z" opacity=".1"/><path d="M1323.106 161.16l-37.257-18.166 17.274 13.491z" opacity=".1"/><path d="M1282.8 149.656l37.256 18.167-17.274-13.492z" opacity=".1"/></g><g fill="#cfcfcf"><path d="M586.172 63.285l15.394 38.485-3.732-21.598z" opacity=".1"/><path d="M608.301 98.884l-15.394-38.485 3.733 21.598z" opacity=".1"/><path d="M615.517 70.501l-38.485 15.394 21.598-3.732z" opacity=".1"/><path d="M579.919 92.63l38.484-15.394-21.598 3.732z" opacity=".1"/><path d="M602.989 61.893L584.822 99.15l13.492-17.274z" opacity=".1"/><path d="M591.485 102.2l18.166-37.257-13.491 17.274z" opacity=".1"/><path d="M618.352 87.799l-37.256-18.167 17.273 13.492z" opacity=".1"/><path d="M578.046 76.295l37.256 18.166-17.274-13.491z" opacity=".1"/></g><g fill="#cfcfcf"><path d="M101.504 122.215l15.394 38.485-3.733-21.598z" opacity=".1"/><path d="M123.633 157.814l-15.394-38.485 3.732 21.598z" opacity=".1"/><path d="M130.848 129.431l-38.484 15.394 21.598-3.732z" opacity=".1"/><path d="M95.25 151.56l38.485-15.394-21.598 3.732z" opacity=".1"/><path d="M118.32 120.823l-18.166 37.257 13.491-17.274z" opacity=".1"/><path d="M106.816 161.13l18.167-37.257-13.492 17.274z" opacity=".1"/><path d="M133.683 146.728l-37.256-18.166 17.274 13.491z" opacity=".1"/><path d="M93.377 135.225l37.257 18.166-17.274-13.492z" opacity=".1"/></g><g fill="#cfcfcf"><path d="M268.672 27.206l15.394 38.485-3.732-21.598z" opacity=".1"/><path d="M290.801 62.804L275.407 24.32l3.733 21.598z" opacity=".1"/><path d="M298.017 34.422l-38.485 15.394 21.598-3.733z" opacity=".1"/><path d="M262.419 56.55l38.484-15.394-21.598 3.733z" opacity=".1"/><path d="M285.489 25.814L267.322 63.07l13.492-17.274z" opacity=".1"/><path d="M273.985 66.12l18.166-37.256-13.491 17.274z" opacity=".1"/><path d="M300.852 51.719l-37.256-18.166 17.273 13.491z" opacity=".1"/><path d="M260.546 40.215l37.256 18.166-17.274-13.491z" opacity=".1"/></g><g fill="#cfcfcf"><path d="M250.633 309.829l15.394 38.485-3.733-21.598z" opacity=".1"/><path d="M272.761 345.427l-15.394-38.485 3.733 21.598z" opacity=".1"/><path d="M279.977 317.045l-38.485 15.394 21.598-3.733z" opacity=".1"/><path d="M244.379 339.173l38.485-15.393-21.598 3.732z" opacity=".1"/><path d="M267.449 308.437l-18.166 37.256 13.491-17.273z" opacity=".1"/><path d="M255.945 348.743l18.166-37.256-13.491 17.274z" opacity=".1"/><path d="M282.812 334.342l-37.256-18.166 17.274 13.491z" opacity=".1"/><path d="M242.506 322.838l37.256 18.167-17.273-13.492z" opacity=".1"/></g><g fill="#cfcfcf"><path d="M1094.894 321.855l15.394 38.485-3.733-21.598z" opacity=".1"/><path d="M1117.023 357.454l-15.394-38.485 3.732 21.598z" opacity=".1"/><path d="M1124.239 329.071l-38.485 15.394 21.598-3.732z" opacity=".1"/><path d="M1088.64 351.2l38.485-15.394-21.598 3.732z" opacity=".1"/><path d="M1111.71 320.463l-18.166 37.257 13.491-17.274z" opacity=".1"/><path d="M1100.206 360.77l18.167-37.257-13.492 17.274z" opacity=".1"/><path d="M1127.074 346.369l-37.257-18.167 17.274 13.492z" opacity=".1"/><path d="M1086.767 334.865l37.257 18.166-17.274-13.491z" opacity=".1"/></g><g fill="#cfcfcf"><path d="M1274.624 59.01l15.393 38.484-3.732-21.598z" opacity=".1"/><path d="M1296.752 94.608l-15.394-38.485 3.733 21.598z" opacity=".1"/><path d="M1303.968 66.225l-38.485 15.394 21.598-3.732z" opacity=".1"/><path d="M1268.37 88.354l38.485-15.394-21.598 3.732z" opacity=".1"/><path d="M1291.44 57.617l-18.166 37.257 13.49-17.274z" opacity=".1"/><path d="M1279.936 97.924l18.166-37.257-13.491 17.274z" opacity=".1"/><path d="M1306.803 83.522l-37.256-18.166 17.274 13.491z" opacity=".1"/><path d="M1266.497 72.018l37.256 18.167-17.274-13.492z" opacity=".1"/></g><g fill="#cfcfcf"><path d="M35.492 31.08l15.394 38.486-3.733-21.598z" opacity=".1"/><path d="M57.62 66.68L42.226 28.193l3.733 21.598z" opacity=".1"/><path d="M64.836 38.297L26.351 53.69l21.598-3.733z" opacity=".1"/><path d="M29.238 60.426l38.485-15.394-21.598 3.732z" opacity=".1"/><path d="M52.308 29.69L34.142 66.944l13.491-17.273z" opacity=".1"/><path d="M40.804 69.995L58.97 32.74 45.48 50.013z" opacity=".1"/><path d="M67.671 55.594L30.415 37.428l17.274 13.491z" opacity=".1"/><path d="M27.365 44.09l37.256 18.167-17.273-13.492z" opacity=".1"/></g><g fill="#cfcfcf"><path d="M913.623 216.956l7.15 17.873-1.734-10.03z" opacity=".1"/><path d="M923.9 233.489l-7.15-17.873 1.734 10.03z" opacity=".1"/><path d="M927.251 220.307l-17.873 7.15 10.03-1.734z" opacity=".1"/><path d="M910.719 230.584l17.873-7.149-10.03 1.734z" opacity=".1"/><path d="M921.433 216.31l-8.437 17.302 6.266-8.022z" opacity=".1"/><path d="M916.09 235.029l8.437-17.303-6.266 8.023z" opacity=".1"/><path d="M928.568 228.34l-17.303-8.436 8.022 6.266z" opacity=".1"/><path d="M909.849 222.998l17.302 8.437-8.022-6.266z" opacity=".1"/></g><g fill="#cfcfcf"><path d="M781.459 73.277l7.149 17.873-1.734-10.03z" opacity=".1"/><path d="M791.735 89.81l-7.149-17.874 1.734 10.03z" opacity=".1"/><path d="M795.087 76.628l-17.873 7.15 10.03-1.734z" opacity=".1"/><path d="M778.554 86.905l17.873-7.15-10.03 1.734z" opacity=".1"/><path d="M789.268 72.63l-8.436 17.303 6.265-8.022z" opacity=".1"/><path d="M783.926 91.35l8.436-17.303-6.265 8.022z" opacity=".1"/><path d="M796.403 84.661l-17.302-8.437 8.022 6.266z" opacity=".1"/><path d="M777.684 79.319l17.303 8.436-8.022-6.265z" opacity=".1"/></g><g fill="#cfcfcf"><path d="M1249.519 160.211l7.15 17.873-1.734-10.03z" opacity=".1"/><path d="M1259.796 176.744l-7.15-17.873 1.734 10.03z" opacity=".1"/><path d="M1263.147 163.563l-17.873 7.149 10.03-1.734z" opacity=".1"/><path d="M1246.615 173.84l17.873-7.15-10.03 1.734z" opacity=".1"/><path d="M1257.329 159.565l-8.437 17.302 6.266-8.022z" opacity=".1"/><path d="M1251.986 178.284l8.437-17.303-6.266 8.023z" opacity=".1"/><path d="M1264.464 171.596l-17.303-8.437 8.023 6.266z" opacity=".1"/><path d="M1245.745 166.253l17.302 8.437-8.022-6.266z" opacity=".1"/></g><g fill="#cfcfcf"><path d="M1116.597 99.105l7.15 17.873-1.734-10.03z" opacity=".1"/><path d="M1126.874 115.638l-7.149-17.873 1.734 10.03z" opacity=".1"/><path d="M1130.226 102.456l-17.873 7.15 10.03-1.734z" opacity=".1"/><path d="M1113.693 112.733l17.873-7.149-10.03 1.734z" opacity=".1"/><path d="M1124.407 98.459l-8.437 17.302 6.266-8.022z" opacity=".1"/><path d="M1119.065 117.178l8.436-17.303-6.265 8.022z" opacity=".1"/><path d="M1131.542 110.49l-17.302-8.437 8.022 6.265z" opacity=".1"/><path d="M1112.823 105.147l17.303 8.437-8.022-6.266z" opacity=".1"/></g><g fill="#cfcfcf"><path d="M1144.946 344.79l7.149 17.873-1.734-10.03z" opacity=".1"/><path d="M1155.223 361.322l-7.15-17.873 1.734 10.03z" opacity=".1"/><path d="M1158.574 348.14l-17.873 7.15 10.03-1.733z" opacity=".1"/><path d="M1142.041 358.418l17.873-7.15-10.03 1.734z" opacity=".1"/><path d="M1152.755 344.143l-8.436 17.303 6.265-8.022z" opacity=".1"/><path d="M1147.413 362.862l8.437-17.302-6.266 8.022z" opacity=".1"/><path d="M1159.89 356.174l-17.302-8.437 8.022 6.266z" opacity=".1"/><path d="M1141.171 350.832l17.303 8.436-8.022-6.265z" opacity=".1"/></g><g fill="#cfcfcf"><path d="M995.015 175.96l7.15 17.873-1.734-10.03z" opacity=".1"/><path d="M1005.292 192.493l-7.15-17.873 1.734 10.03z" opacity=".1"/><path d="M1008.643 179.312l-17.873 7.149 10.03-1.734z" opacity=".1"/><path d="M992.11 189.589l17.874-7.15-10.03 1.734z" opacity=".1"/><path d="M1002.825 175.314l-8.437 17.302 6.266-8.022z" opacity=".1"/><path d="M997.482 194.033l8.437-17.303-6.266 8.023z" opacity=".1"/><path d="M1009.96 187.345l-17.303-8.437 8.023 6.266z" opacity=".1"/><path d="M991.24 182.002l17.303 8.437-8.022-6.266z" opacity=".1"/></g><g fill="#cfcfcf"><path d="M547.478 62.932l7.15 17.873-1.734-10.03z" opacity=".1"/><path d="M557.755 79.465l-7.15-17.873 1.734 10.03z" opacity=".1"/><path d="M561.106 66.283l-17.873 7.15 10.03-1.734z" opacity=".1"/><path d="M544.574 76.56l17.873-7.149-10.03 1.734z" opacity=".1"/><path d="M555.288 62.286l-8.437 17.302 6.266-8.022z" opacity=".1"/><path d="M549.945 81.005l8.437-17.303-6.266 8.022z" opacity=".1"/><path d="M562.423 74.317L545.12 65.88l8.023 6.265z" opacity=".1"/><path d="M543.704 68.974l17.302 8.437-8.022-6.266z" opacity=".1"/></g><g fill="#cfcfcf"><path d="M85.153 67.11l7.15 17.873-1.734-10.03z" opacity=".1"/><path d="M95.43 83.642L88.281 65.77l1.734 10.03z" opacity=".1"/><path d="M98.782 70.461l-17.873 7.15 10.03-1.734z" opacity=".1"/><path d="M82.25 80.738l17.872-7.15-10.03 1.734z" opacity=".1"/><path d="M92.963 66.463l-8.436 17.303 6.265-8.022z" opacity=".1"/><path d="M87.62 85.182l8.437-17.302-6.265 8.022z" opacity=".1"/><path d="M100.098 78.494l-17.302-8.437 8.022 6.266z" opacity=".1"/><path d="M81.38 73.152l17.302 8.436-8.022-6.265z" opacity=".1"/></g><g fill="#cfcfcf"><path d="M60.088 170.158l7.149 17.873-1.734-10.03z" opacity=".1"/><path d="M70.365 186.69l-7.15-17.872 1.734 10.03z" opacity=".1"/><path d="M73.716 173.51l-17.873 7.148 10.03-1.733z" opacity=".1"/><path d="M57.183 183.786l17.873-7.149-10.03 1.733z" opacity=".1"/><path d="M67.897 169.512l-8.436 17.302 6.265-8.022z" opacity=".1"/><path d="M62.555 188.23l8.437-17.302-6.266 8.022z" opacity=".1"/><path d="M75.032 181.542l-17.302-8.436 8.022 6.265z" opacity=".1"/><path d="M56.314 176.2l17.302 8.437-8.022-6.266z" opacity=".1"/></g><g fill="#cfcfcf"><path d="M181.239 61.54l7.15 17.873-1.734-10.03z" opacity=".1"/><path d="M191.516 78.072l-7.15-17.873 1.734 10.03z" opacity=".1"/><path d="M194.867 64.89l-17.873 7.15 10.03-1.733z" opacity=".1"/><path d="M178.335 75.168l17.873-7.15-10.03 1.734z" opacity=".1"/><path d="M189.049 60.893l-8.437 17.303 6.266-8.022z" opacity=".1"/><path d="M183.706 79.612l8.437-17.302-6.266 8.022z" opacity=".1"/><path d="M196.184 72.924l-17.303-8.437 8.022 6.266z" opacity=".1"/><path d="M177.465 67.581l17.302 8.437-8.022-6.265z" opacity=".1"/></g><g fill="#cfcfcf"><path d="M257.829 140.915l7.15 17.873-1.734-10.03z" opacity=".1"/><path d="M268.106 157.447l-7.15-17.873 1.734 10.03z" opacity=".1"/><path d="M271.457 144.266l-17.873 7.15 10.03-1.734z" opacity=".1"/><path d="M254.925 154.543l17.873-7.15-10.03 1.734z" opacity=".1"/><path d="M265.639 140.268l-8.437 17.303 6.266-8.022z" opacity=".1"/><path d="M260.296 158.987l8.437-17.302-6.266 8.022z" opacity=".1"/><path d="M272.774 152.3l-17.303-8.438 8.022 6.266z" opacity=".1"/><path d="M254.055 146.956l17.302 8.437-8.022-6.265z" opacity=".1"/></g><g fill="#cfcfcf"><path d="M401.26 309.412l7.15 17.873-1.733-10.03z" opacity=".1"/><path d="M411.538 325.945l-7.15-17.873 1.734 10.03z" opacity=".1"/><path d="M414.89 312.764l-17.874 7.149 10.03-1.734z" opacity=".1"/><path d="M398.357 323.04l17.873-7.149-10.03 1.734z" opacity=".1"/><path d="M409.07 308.766l-8.436 17.303 6.266-8.023z" opacity=".1"/><path d="M403.728 327.485l8.437-17.303-6.266 8.023z" opacity=".1"/><path d="M416.206 320.797l-17.303-8.437 8.022 6.266z" opacity=".1"/><path d="M397.487 315.454l17.302 8.437-8.022-6.266z" opacity=".1"/></g><g fill="#cfcfcf"><path d="M287.072 347.011l7.15 17.873-1.734-10.03z" opacity=".1"/><path d="M297.35 363.544l-7.15-17.873 1.733 10.03z" opacity=".1"/><path d="M300.7 350.362l-17.873 7.15 10.03-1.734z" opacity=".1"/><path d="M284.168 360.64l17.873-7.15-10.03 1.734z" opacity=".1"/><path d="M294.882 346.365l-8.437 17.302 6.266-8.022z" opacity=".1"/><path d="M289.54 365.084l8.436-17.303-6.265 8.022z" opacity=".1"/><path d="M302.017 358.396l-17.302-8.437 8.022 6.265z" opacity=".1"/><path d="M283.298 353.053l17.303 8.437-8.023-6.266z" opacity=".1"/></g><g fill="#cfcfcf"><path d="M117.182 302.45l7.15 17.873-1.734-10.03z" opacity=".1"/><path d="M127.459 318.982l-7.15-17.873 1.734 10.03z" opacity=".1"/><path d="M130.81 305.8l-17.873 7.15 10.03-1.733z" opacity=".1"/><path d="M114.278 316.078l17.873-7.15-10.03 1.734z" opacity=".1"/><path d="M124.992 301.803l-8.437 17.303 6.266-8.022z" opacity=".1"/><path d="M119.65 320.522l8.436-17.302-6.266 8.022z" opacity=".1"/><path d="M132.127 313.834l-17.303-8.437 8.022 6.266z" opacity=".1"/><path d="M113.408 308.492l17.302 8.436-8.022-6.265z" opacity=".1"/></g><g fill="#cfcfcf"><path d="M1305.414 329.454l7.149 17.873-1.733-10.03z" opacity=".1"/><path d="M1315.69 345.986l-7.149-17.873 1.734 10.03z" opacity=".1"/><path d="M1319.042 332.805l-17.873 7.15 10.03-1.734z" opacity=".1"/><path d="M1302.51 343.082l17.872-7.15-10.03 1.734z" opacity=".1"/><path d="M1313.224 328.807l-8.437 17.303 6.265-8.022z" opacity=".1"/><path d="M1307.88 347.526l8.438-17.302-6.266 8.022z" opacity=".1"/><path d="M1320.358 340.838l-17.302-8.437 8.022 6.266z" opacity=".1"/><path d="M1301.64 335.496l17.302 8.436-8.022-6.265z" opacity=".1"/></g><path d="M0 762V553.849l44.908 120.355 31.477-72.49 50.648 93.708 27.307-44.95 20.846 55.958 31.435-134.98 25.253 112.493 22.193-55.099 21.689 65.293 50.246-88.25L367.326 762l31.375-96.423L442.321 762l28.315-97.188L529.561 762l47.2-106.516L610.678 762z" opacity=".1" fill="#232629"/><path d="M0 762V623.603l29.859 80.023 20.929-48.198 33.675 62.305 18.156-29.887 13.86 37.206 20.901-89.746 16.79 74.795 14.756-36.635 14.421 43.413 33.408-58.677L244.23 762l20.861-64.11L294.095 762l18.826-64.62L352.099 762l31.383-70.822L406.034 762zM1354.667 762V553.849l-44.908 120.355-31.478-72.49-50.648 93.708-27.306-44.95-20.846 55.958-31.435-134.98-25.254 112.493-22.192-55.099-21.69 65.293-50.245-88.25L987.341 762l-31.376-96.423L912.345 762l-28.315-97.188L825.105 762l-47.199-106.517L743.988 762z" opacity=".1" fill="#232629"/><path d="M1354.667 762V623.603l-29.859 80.022-20.93-48.197-33.674 62.305-18.156-29.887-13.86 37.206-20.901-89.746-16.791 74.795-14.755-36.635-14.421 43.413-33.408-58.677L1110.436 762l-20.861-64.11-29.003 64.11-18.826-64.62-39.179 64.62-31.382-70.822L948.633 762z" opacity=".1" fill="#232629"/><path d="M678.758 623.603l-29.859 80.023-20.929-48.198-33.675 62.305-18.156-29.887-13.86 37.206-20.9-89.746-16.791 74.795-14.756-36.635-14.42 43.413-33.409-58.677L434.527 762h488.461l-27.475-103.798-33.408 58.677-14.42-43.413-14.756 36.635-16.79-74.795-20.902 89.746-13.86-37.206-18.156 29.887-33.675-62.305-20.93 48.198zM922.988 762h49.865l-29.003-64.11zm49.865 0h58.005l-39.179-64.62zm58.005 0h53.934l-22.552-70.822zm-596.33 0l-20.862-64.11L384.663 762zm-49.865 0l-18.825-64.62-39.18 64.62zm-58.004 0l-31.382-70.822L272.724 762z" opacity=".1" fill="#232629"/><path d="M0 762V521.632l51.858 138.984 36.35-83.71 58.487 108.212 31.533-51.908 24.072 64.62 36.3-155.872 29.163 129.904 25.627-63.627 25.046 75.399 58.022-101.91L424.178 762l36.232-111.347L510.782 762l32.697-112.23L611.524 762l54.504-123.003L705.197 762z" opacity=".1" fill="#232629"/><path d="M1354.667 762V521.632l-51.859 138.984-36.35-83.71-58.486 108.212-31.533-51.908-24.073 64.62-36.3-155.872-29.162 129.904-25.627-63.627-25.046 75.399-58.023-101.91L930.488 762l-36.232-111.347L843.885 762l-32.697-112.23L743.143 762l-54.505-123.003L649.47 762z" opacity=".1" fill="#232629"/><path d="M394.941 102.388l-137.42 136.6 7.062-1.115 68.036 21.419 23.939-17.639 42.837 2.52 44.097 28.978 51.657-15.12 21.574 9.59 47.49-47.49c-23.894 26.296-60.344 23.264-77.379 3.7-21.143 8.565-53.522 10.579-85.432-19.376-23.288-21.862-32.827-66.448-6.46-102.067z" opacity=".1" fill="url(#B)"/><path transform="scale(.26458)" d="M1733.895 236.754a328.61 328.61 0 00-328.612 328.61 328.61 328.61 0 00328.612 328.61 328.61 328.61 0 00328.609-328.61 328.61 328.61 0 00-328.61-328.61zm0 28.61a300 300 0 01300 300 300 300 0 01-300 300 300 300 0 01-300-300 300 300 0 01300-300z" opacity=".9" fill="url(#C)"/><circle r="26.458" cy="127" cx="425.853" opacity=".1" fill="#fcfcfc"/><path transform="scale(.26458)" d="M1609.523 358.424A121.576 121.576 0 001487.947 480a121.576 121.576 0 00121.576 121.576A121.576 121.576 0 001731.1 480a121.576 121.576 0 00-121.577-121.576zm0 21.576a100 100 0 01100 100 100 100 0 01-100 100 100 100 0 01-100-100 100 100 0 01100-100z" opacity=".3" fill="url(#D)"/><circle r="52.917" cy="185.966" cx="523.803" opacity=".1" fill="#fcfcfc"/><path transform="scale(.26458)" d="M1979.727 473.916a228.948 228.948 0 00-228.948 228.947 228.948 228.948 0 00228.948 228.95 228.948 228.948 0 00228.949-228.95 228.948 228.948 0 00-228.95-228.947zm0 28.947a200 200 0 01200 200 200 200 0 01-200 200 200 200 0 01-200-200 200 200 0 01200-200z" opacity=".6" fill="url(#E)"/><path d="M0 215.195l50.397 16.378.114-11.728L0 203.008z" opacity=".1" fill="url(#F)"/><path d="M50.397 231.573l60.476-20.159-1.672-10.812-58.69 19.243z" opacity=".1" fill="url(#G)"/><path d="M110.873 211.414l-1.672-10.812 108.571 34.945-1.066 9.886z" opacity=".1" fill="url(#H)"/><path d="M217.772 235.547l49.774-6.524-2.963 8.85-47.877 7.56z" opacity=".1" fill="url(#I)"/><path d="M264.583 237.873l68.036 21.419-.533-10.177-64.54-20.092z" opacity=".1" fill="url(#J)"/><path d="M332.619 259.292l23.939-17.639-3.102-8.48-21.37 15.942z" opacity=".1" fill="url(#K)"/><path d="M356.558 241.653l42.837 2.52 2.568-8.287-48.507-2.713z" opacity=".1" fill="url(#L)"/><path d="M399.395 244.173l44.097 28.978 2.568-9.789-44.097-27.476z" opacity=".1" fill="url(#M)"/><path d="M443.492 273.15l51.657-15.118 1.114-9.595-50.203 14.925z" opacity=".1" fill="url(#N)"/><path d="M495.149 258.032l22.678 10.08 4.216-9.838-25.78-9.837z" opacity=".1" fill="url(#O)"/><path d="M522.043 258.274l45.454-9.498-14.392 11.776-35.278 7.56z" opacity=".1" fill="url(#P)"/><path d="M522.867 283.23l7.317 8.287 28.47-25.417-5.283-5.44-.266-.108z" opacity=".1" fill="url(#Q)"/><path d="M522.867 283.23l-32.758-3.78 5.476 9.014 34.6 3.053z" opacity=".1" fill="url(#R)"/><path d="M490.11 279.45l-42.838 22.679 1.841 9.4 46.472-23.065z" opacity=".1" fill="url(#S)"/><path d="M447.272 302.129l-59.217-28.978 4.75 11.242 56.308 27.137z" opacity=".1" fill="url(#T)"/><path d="M388.055 273.15l-17.638 31.499 5.766 9.255 16.621-29.51z" opacity=".1" fill="url(#U)"/><path d="M370.417 304.649l-62.996 1.26-4.846 9.352 73.608-1.357z" opacity=".1" fill="url(#V)"/><path d="M302.575 315.261l-35.956-35.956 1.744-11.194 39.058 37.798z" opacity=".1" fill="url(#W)"/><path d="M268.363 268.111l-37.798 23.938 3.15 9.305 32.904-22.049z" opacity=".1" fill="url(#X)"/><path d="M233.715 301.354l-78.018 19.335 3.053-12.26 71.815-16.38z" opacity=".1" fill="url(#Y)"/><path d="M155.697 320.689l-24.084-42.74 3.198-14.878 23.939 45.358z" opacity=".1" fill="url(#Z)"/><path d="M134.811 263.071L89.454 290.79l5.185 8.869 36.974-21.71z" opacity=".1" fill="url(#aa)"/><path d="M89.454 290.79L0 315.987v12.163l94.64-28.493z" opacity=".1" fill="url(#ab)"/><path d="M0 384.62l68.235-30.635-.887-7.862L0 375.227z" opacity=".1" fill="url(#ac)"/><path d="M68.235 353.985l47.346 20.888-1.57-9.026-46.663-19.724z" opacity=".1" fill="url(#ad)"/><path d="M114.011 365.847l27.18-27.18.848 9.747-26.458 26.459z" opacity=".1" fill="url(#ae)"/><path d="M141.191 338.667l29.345 13.71.747 9.963-29.244-13.926z" opacity=".1" fill="url(#af)"/><path d="M170.536 352.377l20.445-16.597-.202 11.242-19.496 15.318z" opacity=".1" fill="url(#ag)"/><path d="M190.981 335.78l66.867 25.497-3.012 10.81-64.057-25.065z" opacity=".1" fill="url(#ah)"/><path d="M254.836 372.088l51.473 12.656.367-9.276-48.828-14.192z" opacity=".1" fill="url(#ai)"/><path d="M306.676 375.468l58.208-12.748 2.748 7.975-61.323 14.05z" opacity=".1" fill="url(#aj)"/><path d="M364.884 362.72l37.042-17.078 1.912 8.343-36.206 16.71z" opacity=".1" fill="url(#ak)"/><path d="M401.926 345.642l43.777 14.432-1.482 7.836-40.383-13.925z" opacity=".1" fill="url(#al)"/><path d="M445.703 360.074l68.791-5.773 4.925 8.04-75.198 5.569z" opacity=".1" fill="url(#am)"/><path d="M514.494 354.301l42.093-75.767 6 8.609-43.168 75.197z" opacity=".1" fill="url(#an)"/><path d="M556.587 278.534l69.032-28.864 6.596 6.837-69.627 30.636z" opacity=".1" fill="url(#ao)"/><path d="M625.62 249.67l20.685-78.412 8.19 7.266-22.28 77.983z" opacity=".1" fill="url(#ap)"/><path d="M646.305 171.258l46.663-47.385 4.696 8.697-43.169 45.954z" opacity=".1" fill="url(#aq)"/><path d="M692.968 123.873l30.547-59.892 4.785 11.495-30.636 57.094z" opacity=".1" fill="url(#ar)"/><path d="M723.515 63.981l31.029 9.621-3.963 8.836-22.28-6.962z" opacity=".1" fill="url(#as)"/><path d="M750.581 82.438l54.31 73.805 7.62-4.228-57.967-78.413z" opacity=".1" fill="url(#at)"/><path d="M804.89 156.243l11.14 51.525 5.622-12.698-9.14-43.055z" opacity=".1" fill="url(#au)"/><path d="M816.03 207.768l54.31 19.495 3.026-8.621-51.715-23.572z" opacity=".1" fill="url(#av)"/><path d="M870.34 227.263l47.435 35.304 4.659-8.086-49.068-35.839z" opacity=".1" fill="url(#aw)"/><path d="M917.775 262.567l44.473 16.22 3.962-7.469-43.776-16.837z" opacity=".1" fill="url(#ax)"/><path d="M962.248 278.787l79.375 73.805 5.165-6.95-80.578-74.324z" opacity=".1" fill="url(#ay)"/><path d="M1041.623 352.592l48.739 30.636 2.487-10.045-46.061-27.541z" opacity=".1" fill="url(#az)"/><path d="M1090.362 383.228l26.458-5.57-.278-8.685-23.693 4.21z" opacity=".1" fill="url(#aA)"/><path d="M1116.82 377.658l96.086 19.496-3.28-10.381-93.084-17.8z" opacity=".1" fill="url(#aB)"/><path d="M1209.627 386.773l14.672-21.407 3.925 10.9-15.318 20.888z" opacity=".1" fill="url(#aC)"/><path d="M1228.224 376.265l90.515 9.748 1.772-8.621-96.212-12.026z" opacity=".1" fill="url(#aD)"/><path d="M1318.74 386.013l35.927 18.103v-9.646l-34.156-17.078z" opacity=".1" fill="url(#aE)"/><path d="M1354.667 236.613l-46.87 17.64-3.346-7.915 50.216-19.568z" opacity=".1" fill="url(#aF)"/><path d="M1307.798 254.252l-34.018 42.837-1.024-9.685 31.695-41.066z" opacity=".1" fill="url(#aG)"/><path d="M1273.78 297.09l-21.419-16.38 3.859-7.362 16.536 14.056z" opacity=".1" fill="url(#aH)"/><path d="M1252.361 280.71l-41.577-3.78-2.244-7.44 47.68 3.858z" opacity=".1" fill="url(#aI)"/><path d="M1210.784 276.93l-31.498 22.68.866-10.553 28.388-19.568z" opacity=".1" fill="url(#aJ)"/><path d="M1179.286 299.61l-15.12-28.979 6.13-5.237 9.856 23.663z" opacity=".1" fill="url(#aK)"/><path d="M1164.167 270.631l-51.657-11.34.945-7.716 56.84 13.82z" opacity=".1" fill="url(#aL)"/><path d="M1112.51 259.292l-65.516 31.497-.63-7.769 67.09-31.445z" opacity=".1" fill="url(#aM)"/><path d="M1046.994 290.79l-41.577-5.04 6.72-6.72 34.227 3.99z" opacity=".1" fill="url(#aN)"/><path d="M1005.417 285.75l36.537 20.159-1.68 7.35-20.788-13.44z" opacity=".1" fill="url(#aO)"/><path d="M1041.955 305.909l66.775-7.56-.63 7.77-67.826 7.14z" opacity=".1" fill="url(#aP)"/><path d="M1108.73 298.35l83.155 47.876 1.05 6.51-84.835-46.617z" opacity=".1" fill="url(#aQ)"/><path d="M1191.885 346.226l36.538-28.978 1.68 8.19-37.168 27.298z" opacity=".1" fill="url(#aR)"/><path d="M1228.423 317.248l47.877 23.938.21 6.72-46.407-22.469z" opacity=".1" fill="url(#aS)"/><path d="M1276.3 341.186l30.238-25.198 1.68 10.92-31.708 20.998z" opacity=".1" fill="url(#aT)"/><path d="M1306.538 315.988l48.129 11.34v9.029l-46.45-9.45z" opacity=".1" fill="url(#aU)"/></g></svg>