<svg xmlns="http://www.w3.org/2000/svg" viewBox="-60 -75 210 260"><g fill="#D70751"><path d="M64.525 62.053c-4.125.058.78 2.125 6.165 2.954 1.488-1.16 2.838-2.336 4.04-3.48-3.354.822-6.765.84-10.205.526m22.14-5.52c2.457-3.39 4.246-7.102 4.878-10.94-.55 2.737-2.035 5.1-3.435 7.593-7.71 4.854-.726-2.883-.004-5.824-8.29 10.436-1.138 6.257-1.44 9.17m8.176-21.264c.496-7.428-1.463-5.08-2.122-2.245.766.4 1.377 5.237 2.12 2.245M48.883-66.264c2.2.395 4.757.698 4.398 1.224 2.41-.528 2.96-1.015-4.39-1.224"/><path d="M53.28-65.04l-1.555.32 1.448-.127.108-.193"/><path d="M121.93 38.085c.247 6.67-1.95 9.907-3.932 15.637l-3.564 1.78c-2.92 5.667.282 3.6-1.807 8.106-4.556 4.05-13.823 12.67-16.79 13.457-2.162-.047 1.47-2.554 1.944-3.537-6.09 4.188-4.89 6.285-14.21 8.83l-.27-.607c-23 10.82-54.94-10.62-54.52-39.87-.24 1.86-.7 1.4-1.21 2.15-1.19-15.05 6.95-30.17 20.68-36.34 13.43-6.65 29.16-3.92 38.78 5.04C81.73 5.8 71.22-1.53 58.76-.84c-12.212.19-23.63 7.95-27.44 16.37-6.25 3.933-6.977 15.172-9.7 17.23-3.667 26.94 6.894 38.58 24.76 52.27 2.81 1.89.79 2.18 1.174 3.623-5.936-2.78-11.372-6.976-15.84-12.114 2.37 3.47 4.93 6.84 8.238 9.5-5.597-1.9-13.075-13.57-15.257-14.04 9.645 17.27 39.142 30.3 54.585 23.84-7.14.26-16.22.14-24.25-2.83-3.37-1.74-7.96-5.33-7.14-6.01 21.08 7.87 42.86 5.96 61.09-8.66 4.64-3.62 9.71-9.77 11.18-9.85-2.204 3.31.38 1.59-1.32 4.52 4.63-7.46-2.004-3.04 4.78-12.88l2.51 3.45c-.93-6.19 7.688-13.71 6.814-23.5 1.973-2.997 2.204 3.22.105 10.11 2.91-7.64.76-8.87 1.51-15.17.81 2.12 1.87 4.37 2.41 6.602-1.9-7.383 1.94-12.434 2.89-16.725-.94-.41-2.93 3.27-3.38-5.45.06-3.79 1.05-1.988 1.43-2.92-.748-.43-2.698-3.33-3.88-8.9.86-1.31 2.3 3.39 3.47 3.584-.757-4.43-2.05-7.806-2.107-11.203-3.42-7.15-1.21.957-3.985-3.07-3.64-11.352 3.02-2.632 3.47-7.79 5.52 7.994 8.664 20.39 10.11 25.52-1.106-6.26-2.886-12.32-5.06-18.187 1.68.704-2.7-12.876 2.18-3.88-5.21-19.17-22.3-37.09-38.026-45.495 1.923 1.76 4.353 3.97 3.48 4.313-7.82-4.654-6.444-5.02-7.565-6.98-6.37-2.59-6.79.205-11.01 0-12-6.364-14.316-5.69-25.366-9.68l.5 2.35c-7.956-2.65-9.27 1.007-17.865.01-.528-.41 2.75-1.48 5.45-1.87-7.69 1.014-7.33-1.516-14.858.28 1.86-1.303 3.82-2.164 5.795-3.27-6.27.38-14.97 3.65-12.29.676C20.15-62.47 1.98-56.06-8.218-46.5l-.32-2.143c-4.67 5.608-20.37 16.748-21.62 24.01l-1.25.292c-2.43 4.11-4.002 8.78-5.93 13.01-3.18 5.41-4.66 2.08-4.203 2.93-6.257 12.68-9.36 23.33-12.047 32.07 1.92 2.85.05 17.2.77 28.68-3.14 56.71 39.8 111.77 86.74 124.48 6.88 2.46 17.11 2.36 25.82 2.62-10.267-2.93-11.594-1.55-21.594-5.04-7.21-3.4-8.79-7.28-13.9-11.71l2.02 3.57c-10.02-3.55-5.83-4.39-13.98-6.97l2.16-2.82c-3.25-.25-8.6-5.48-10.07-8.37l-3.55.14c-4.27-5.27-6.54-9.07-6.38-12.01l-1.14 2.05c-1.3-2.24-15.71-19.76-8.234-15.68-1.39-1.27-3.24-2.07-5.24-5.71l1.52-1.74c-3.6-4.63-6.62-10.56-6.39-12.54 1.92 2.592 3.25 3.075 4.566 3.52-9.08-22.54-9.59-1.24-16.47-22.94l1.455-.118c-1.12-1.687-1.796-3.51-2.69-5.3l.63-6.316c-6.54-7.563-1.83-32.15-.887-45.638.658-5.48 5.46-11.32 9.117-20.475l-2.24-.36c4.26-7.43 24.304-29.82 33.587-28.665 4.5-5.65-.89-.02-1.77-1.44 9.88-10.23 12.988-7.227 19.65-9.066 7.19-4.27-6.17 1.66-2.76-1.63 12.43-3.18 8.81-7.22 25.02-8.83 1.71.97-3.962 1.5-5.39 2.76 10.356-5.07 32.77-3.92 47.328 2.81C101-31.17 119.98-7.83 120.73 14.13l.852.23c-.43 8.722 1.33 18.82-1.73 28.09l2.1-4.388"/><path d="M19.5 67.715l-.578 2.893c2.71 3.683 4.86 7.673 8.323 10.552-2.49-4.863-4.34-6.872-7.745-13.445m6.41-.25c-1.436-1.588-2.285-3.498-3.236-5.4.91 3.344 2.77 6.22 4.504 9.142l-1.27-3.743m113.412-24.65l-.605 1.52c-1.11 7.892-3.51 15.7-7.19 22.94 4.06-7.638 6.69-15.994 7.79-24.46M49.698-68.243c2.79-1.022 6.855-.56 9.814-1.233-3.855.324-7.693.517-11.484 1.005l1.67.22M-48.22-16.18c.643 5.95-4.476 8.26 1.135 4.337 3.007-6.77-1.175-1.87-1.134-4.335m-6.59 27.537c1.29-3.97 1.53-6.35 2.02-8.65-3.57 4.56-1.64 5.54-2.02 8.64"/></g></svg>