<svg xmlns="http://www.w3.org/2000/svg" width="608" height="608"><path d="M304 4C138.315 4 4 138.315 4 304s134.315 300 300 300 300-134.315 300-300S469.685 4 304 4zm0 25c125.967 0 232.154 84.7 264.72 200.25-28.05 57.852-67.96 109.94-116.564 152.03-23.348 20.22-48.84 38.247-77 50.94-28.16 12.69-59.132 19.892-89.97 18.124-23.167-1.33-46.053-7.783-66.342-19.03 53.77-29.138 102.286-67.985 142-114.502 26.067-30.532 48.874-65.23 57.656-104.406 4.39-19.587 5.135-40.1 1.03-59.75-4.102-19.65-13.187-38.374-26.936-53-13.432-14.288-31.065-24.41-49.97-29.625-18.903-5.21-39.02-5.61-58.312-2.09-38.58 7.05-73.028 29.48-100.656 57.32-48.698 49.07-78.803 118.31-73.28 187.22 2.76 34.46 14.307 68.32 34.093 96.66 4.41 6.33 9.27 12.36 14.46 18.07-28.83 10.087-58.67 17.268-88.94 21.31C44.01 406.51 29 357.018 29 304 29 152.123 152.12 29 304 29zm1.75 55.562c19.33.027 38.794 5.88 54.22 17.532 13.896 10.498 24.193 25.434 30.03 41.843 5.837 16.41 7.335 34.23 5.344 51.532-3.983 34.6-21.44 66.34-42.53 94.06-37.346 49.08-86.983 88.37-142.19 115.87-5.65 2.81-11.39 5.49-17.155 8.06-12.02-10.52-22.31-22.98-30.16-36.88-16.4-29.04-21.81-63.53-18.63-96.72 3.18-33.2 14.57-65.19 29.87-94.81 17.74-34.35 41.92-66.89 75.78-85.57 16.93-9.338 36.07-14.966 55.4-14.94zm270.78 182.625C578.143 279.23 579 291.517 579 304c0 151.878-123.122 275-275 275-85.296 0-161.528-38.83-211.97-99.78 31.135-7.072 61.564-17.23 90.75-30.158 12.765 9.72 26.86 17.693 41.845 23.438 43.15 16.543 92.142 14.15 135.813-.97 43.67-15.117 82.396-42.252 116.156-73.81 40.216-37.596 74.124-81.908 99.937-130.533z"/></svg>