<svg xmlns="http://www.w3.org/2000/svg" width="566.533" height="566.611" viewBox="0 0 453.22642 453.28901"><g fill="#0068c8"><path d="M137.35 27.117c55.808-25.495 122.7-25.495 178.497.032 45.505 20.348 83.706 56.717 105.94 101.365 31.138 60.21 31.275 135.426.275 195.712-3.843 8.586-9.21 16.347-14.04 24.394-6.384 8.693-12.577 17.576-20.158 25.305-6.28 7.443-13.69 13.785-20.974 20.222-3.865-26.606-8.375-53.118-13.595-79.492-5.685-25.336-11.085-50.767-18.782-75.595-10.037-32.875-22.128-65.548-40.678-94.664-9.03-13.52-19.555-26.384-32.97-35.775 5.78-7.146 5.92-16.94 6.766-25.664-.094-3.06 2.553-5.05 4.183-7.326 4.585-5.94 9.582-11.562 13.817-17.766-8.523 1.1-16.612 4.086-24.68 6.903-8.872 3.62-17.914 7.697-24.775 14.558-2.51 2.498-6.437 2.085-9.56 3.303-15.818 5.23-30.397 13.5-44.807 21.726-14.473 7.877-28.29 16.845-42.35 25.39-32.822 20.878-65.22 42.423-97.068 64.753-11.456 7.95-22.922 15.902-34.378 23.854 1.334-28.448 7.56-56.887 19.894-82.646C49.6 87.816 89.366 48.547 137.35 27.117z"/><path d="M208.605 195.884c3.653-3.177 7.58-6.332 12.282-7.75 4.012-.593 8.057.455 11.995 1.122 12.208 3.06 21.97 11.73 30.588 20.487 13.626 14.8 24.33 32.006 33.997 49.57 13.234 23.76 23.663 48.905 34.08 73.987 8.207 21.24 16.19 42.573 23.24 64.235.774 1.1.732 4.574 2.7 3.717l.742-.202c-15.427 11.806-32.632 21.186-50.525 28.693-51.032 20.56-109.868 20.73-161.016.487-25.03-10.154-48.482-24.48-68.185-43.018-4.13-3.832-8.64-7.39-11.922-12.027 1.546 1.546 3.09 3.09 4.616 4.658 33.403-46.924 66.31-94.208 100.57-140.518 11.488-15.11 22.934-30.42 36.835-43.44zM80.03 211.48c6.225-1.515 12.62-2.775 19.057-2.52 1.98.095 4.775.688 4.764 3.207.033 3.325-1.28 6.522-2.582 9.53-6.014 12.81-14.516 24.203-22.245 35.997-15.67 22.838-31.275 45.728-46.998 68.534-16.337-31.467-24.712-67.062-23.98-102.5.063 3.103.094 6.216.073 9.33.784.634 1.578 1.27 2.382 1.894 22.69-9.158 45.855-17.226 69.53-23.473zM125.25 236.148c4.192-3.356 8.162-8.586 14.102-8.13-2.986 9-8.428 16.908-13.034 25.123-22.043 37.937-45.516 75.015-68.163 112.59 1.567 1.726 3.102 3.473 4.606 5.262-5.452-4.838-9.094-11.265-13.625-16.908-4.204-5.072-7.158-10.99-10.853-16.422 13.574-16.802 26.914-33.795 40.868-50.28 14.738-17.618 29.233-35.575 46.1-51.234z"/></g><path d="M259.045 85.886c7.62-2.66 15.26-5.48 23.31-6.52-4 5.86-8.72 11.17-13.05 16.78-1.54 2.15-4.04 4.03-3.95 6.92-.8 8.24-.93 17.49-6.39 24.24 12.67 8.87 22.61 21.02 31.14 33.79 17.52 27.5 28.94 58.36 38.42 89.41 7.27 23.45 12.37 47.47 17.74 71.4 4.93 24.91 9.19 49.95 12.84 75.08l.03.2c-2.8 2.03-5.3 4.49-8.21 6.32l-.7.19c-1.86.81-1.82-2.47-2.55-3.51-6.66-20.46-14.2-40.61-21.95-60.67-9.84-23.69-19.69-47.44-32.19-69.88-9.13-16.59-19.24-32.84-32.11-46.82-8.14-8.27-17.36-16.46-28.89-19.35-3.72-.63-7.54-1.62-11.33-1.06-4.44 1.34-8.15 4.32-11.6 7.32-13.13 12.3-23.94 26.76-34.79 41.03-32.36 43.74-63.44 88.4-94.99 132.72-1.44-1.48-2.9-2.94-4.36-4.4-1.26-1.27-2.44-2.61-3.61-3.96-1.42-1.69-2.87-3.34-4.35-4.97 21.39-35.49 43.56-70.51 64.38-106.34 4.35-7.76 9.49-15.23 12.31-23.73-5.61-.43-9.36 4.51-13.32 7.68-15.93 14.79-29.62 31.75-43.54 48.39-13.18 15.57-25.78 31.62-38.6 47.49-2.15-3.5-4.19-7.07-5.91-10.8 14.85-21.54 29.59-43.16 44.39-64.73 7.3-11.14 15.33-21.9 21.01-34 1.23-2.84 2.47-5.86 2.44-9 .01-2.38-2.63-2.94-4.5-3.03-6.08-.24-12.12.95-18 2.38-22.36 5.9-44.24 13.52-65.67 22.17-.76-.59-1.51-1.19-2.25-1.79.02-2.94-.01-5.88-.07-8.81-.03-1.7-.03-3.39-.03-5.08 10.82-7.51 21.65-15.02 32.47-22.53 30.08-21.09 60.68-41.44 91.68-61.16 13.28-8.07 26.33-16.54 40-23.98 13.61-7.77 27.38-15.58 42.32-20.52 2.95-1.15 6.66-.76 9.03-3.12 6.48-6.48 15.02-10.33 23.4-13.75z" fill="#fff"/></svg>