<svg xmlns="http://www.w3.org/2000/svg" width="184.252" height="262.205"><path d="M76.968 109.724h-.01c-6.673 0-12.107-5.427-12.114-12.095-.01-6.696 5.425-12.13 12.104-12.138 6.683 0 12.116 5.427 12.124 12.095 0 6.69-5.425 12.126-12.104 12.134zm32.718-8.884c-6.23 0-11.303-5.065-11.307-11.29-.01-6.243 5.06-11.317 11.292-11.322 6.24 0 11.31 5.065 11.316 11.29 0 6.242-5.06 11.317-11.296 11.323h-.01zm-9.306-32.285c0 5.576-4.52 10.095-10.096 10.095-5.575 0-10.095-4.52-10.095-10.095 0-5.575 4.52-10.095 10.09-10.095 5.575 0 10.095 4.52 10.095 10.095zm15.344-16.96c0 5.13-4.158 9.288-9.288 9.288s-9.287-4.158-9.287-9.288 4.153-9.287 9.282-9.287c5.13 0 9.288 4.158 9.288 9.287zM94.726 35.04c0 4.46-3.616 8.076-8.076 8.076-4.46 0-8.076-3.616-8.076-8.077 0-4.46 3.615-8.08 8.076-8.08 4.46 0 8.076 3.615 8.076 8.075z" fill="#2397d4"/><path style="text-indent:0;text-align:start;line-height:normal;text-transform:none;block-progression:tb;-inkscape-font-specification:Sans" d="M43.212 120.637c-10.45 13.545-18.926 28.78-18.926 47.238 0 40.006 30.358 73 68 73 37.64 0 68-32.994 68-73 0-18.46-8.49-33.212-19.53-47.238-4.14-4.345-10.118-3.7-14.47-.92-12.732 6.59-19.606 9.222-34 9.158-13.922-.063-21.237-2.336-33.97-9.278-4.352-2.66-10.964-3.305-15.104 1.04zm9.074 11.238c13.198 7.297 24.97 11 40 11 15.043 0 26.795-3.703 40-11 7.205 10.16 14 22.758 14 36 0 32.8-24.176 59-54 59-29.826 0-55-26.2-55-59 0-13.225 7.78-25.832 15-36z" color="#000" fill="#262f45" overflow="visible" font-family="Sans"/></svg>