<svg xmlns="http://www.w3.org/2000/svg" viewBox="0 0 160 160"><path d="M152 80c0 39.764-32.236 72-72 72-39.765 0-72-32.236-72-72S40.234 8 80 8c39.763 0 72 32.235 72 72z" fill="#87a556"/><path d="M80 35.97c-18.13 0-33.733 11.046-40.47 26.75l5.19 3.06C50.33 51.834 64.006 42.03 80 42.03c2.057 0 4.068.184 6.03.5v-6.124c-1.973-.274-3.98-.437-6.03-.437zm18.03 3.874L98 46.562c1 .538 1.963 1.13 2.906 1.75l5.688-3.343c-2.643-2.02-5.502-3.75-8.563-5.13zM80 50.937c-12.63 0-23.43 8.156-27.406 19.47l5.375 3.187C60.72 64.01 69.49 57.03 80 57.03c2.077 0 4.087.27 6 .782v-6.218c-1.938-.412-3.946-.657-6-.657zm35.313 2.782l-5.22 3.09c4.937 6.4 7.877 14.45 7.877 23.19 0 8.9-3.05 17.06-8.157 23.53l5.218 3.09c5.64-7.4 9-16.64 9-26.628 0-9.835-3.24-18.94-8.71-26.28zm-13.033 7.71L97 64.53c3.708 4.08 5.97 9.493 5.97 15.47 0 6.152-2.408 11.68-6.314 15.78L102 98.938c4.39-5.096 7.063-11.728 7.063-18.937 0-7.05-2.562-13.51-6.782-18.56zM36.32 74.71c-.217 1.73-.343 3.492-.343 5.282 0 1.782.135 3.525.344 5.25l5.78-3.407c-.03-.61-.06-1.225-.06-1.844 0-.62.036-1.232.066-1.843L36.32 74.71zM57.977 86.4L52.6 89.56c3.966 11.327 14.766 19.5 27.405 19.5 2.055 0 4.063-.244 6-.656v-6.25c-1.912.503-3.922.78-6 .78-10.502 0-19.27-6.954-22.03-16.53zM44.72 94.22l-5.19 3.06c6.737 15.704 22.34 26.75 40.47 26.75 2.027 0 4.018-.165 5.97-.436V117.5c-1.947.307-3.933.47-5.97.47-15.993 0-29.67-9.803-35.28-23.75zm55.78 17.75c-.806.516-1.653 1.01-2.5 1.468l-.03 6.718c2.917-1.315 5.677-2.92 8.218-4.812l-5.688-3.375z" style="text-indent:0;text-align:start;line-height:normal;text-transform:none;block-progression:tb;-inkscape-font-specification:Sans" color="#000" fill="#fff" overflow="visible" font-family="Sans"/><path d="M92.03 27.47L92 60.53 120 44 92.03 27.47zm-63 36L29 96.53 57 80 29.03 63.47zM92 100l-.03 33.03 28-16.53L92 100z" fill="#fff" fill-rule="evenodd"/></svg>