<svg xmlns="http://www.w3.org/2000/svg" xmlns:xlink="http://www.w3.org/1999/xlink" width="190" height="189.125"><defs><filter color-interpolation-filters="sRGB" id="c"><feGaussianBlur stdDeviation="1.628"/></filter><linearGradient xlink:href="#a" id="d" gradientUnits="userSpaceOnUse" gradientTransform="translate(196.35 -38.224) scale(1.09126)" x1="61.429" y1="362.143" x2="116.429" y2="408.571"/><linearGradient id="a"><stop offset="0" stop-color="#c7f994"/><stop offset="1" stop-color="#87cf3e"/></linearGradient><linearGradient xlink:href="#b" id="e" gradientUnits="userSpaceOnUse" gradientTransform="translate(0 80)" x1="70.492" y1="416.389" x2="113.642" y2="375.88"/><linearGradient id="b"><stop offset="0" stop-color="#3d3d3d"/><stop offset="1" stop-opacity=".114"/></linearGradient><filter color-interpolation-filters="sRGB" id="f"><feGaussianBlur stdDeviation=".401"/></filter><filter color-interpolation-filters="sRGB" id="g"><feGaussianBlur stdDeviation=".16"/></filter></defs><path transform="matrix(1.58456 0 0 1.58456 -435.12 -640.77)" d="M331.79 510.933c-21.29 0-39.765-16.14-39.765-37.41l-.02-21.993v-6.586H278.51v-36.65l56.92.267 17.806.04c21.31 0 39.765 16.12 39.765 37.41v64.923h-61.21z" opacity=".26" fill-rule="evenodd" overflow="visible" filter="url(#c)" enable-background="accumulate"/><path d="M354.825 425.265V375.82c0-16.52-14.487-29.91-32.36-29.91h-18.552v-.04l-50.176-.22v18.042h7.703c5.376 0 6.326 3.71 6.326 8.848l.04 31.894c0 16.52 14.486 29.91 32.34 29.91h44.083c5.65 0 10.595-3.58 10.595-9.08z" fill="url(#d)" fill-rule="evenodd" transform="matrix(1.51933 0 0 1.51933 -363.933 -504.006)"/><path transform="translate(-59.185 -648.896) scale(1.59302)" d="M142.938 500.53c-10.752-7.408-18.367-15.92-24.782-27.186-12.644-23.358-9.688-34.954-41-37.688-9.036 0-15.05-2-24.562-2v3.313s3.758 1.906 7.062 1.906c4.927 0 5.782 3.418 5.782 8.125l.03 29.156c0 15.138 13.296 27.406 29.657 27.406H135.5c2.964 0 5.626-1.167 7.438-3.03z" opacity=".175" fill="url(#e)" filter="url(#f)"/><path transform="translate(-59.185 -648.896) scale(1.59302)" d="M105.518 438.54c-3.836 0-7.245 1.425-9.984 4.19-2.738 2.767-4.176 6.22-4.176 10.116v19.694h8.933v-19.694c0-1.494.49-2.66 1.555-3.738 1.07-1.08 2.203-1.57 3.673-1.57 1.502 0 2.618.487 3.69 1.57 1.066 1.077 1.554 2.244 1.554 3.738v19.694h8.933v-19.694c0-1.494.487-2.66 1.553-3.738 1.072-1.083 2.188-1.57 3.69-1.57 1.47 0 2.604.49 3.673 1.57 1.068 1.077 1.555 2.244 1.555 3.738l.05 23.012c0 4.91-4.676 9.046-10.682 9.046l-28.806-.113c-4.634 0-8.593-4.51-8.593-10.308v-43.335h-8.447v45.002c0 4.774 1.747 8.96 5.146 12.347 2.905 2.867 6.4 4.564 10.325 4.984v.163h32.074c4.93 0 9.26-1.833 12.752-5.39H134c2.97-3.052 4.708-6.71 5.13-10.825l-.032-24.582c0-3.897-1.437-7.35-4.175-10.115-2.74-2.765-6.148-4.19-9.985-4.19-3.766 0-7.06 1.4-9.726 3.965-2.657-2.56-5.93-3.965-9.694-3.965z" fill-opacity=".08" fill-rule="evenodd" overflow="visible" filter="url(#g)" enable-background="accumulate"/><path d="M107.77 50.08c-6.11 0-11.542 2.268-15.906 6.676-4.36 4.405-6.65 9.905-6.65 16.112v31.374h14.23V72.868c0-2.38.776-4.24 2.474-5.955 1.705-1.72 3.51-2.5 5.852-2.5 2.393 0 4.17.775 5.878 2.5 1.7 1.716 2.475 3.576 2.475 5.955v31.374h14.23V72.868c0-2.38.777-4.24 2.475-5.955 1.708-1.725 3.486-2.5 5.878-2.5 2.343 0 4.148.78 5.852 2.5 1.7 1.716 2.475 3.576 2.475 5.955l.077 36.66c0 7.82-7.447 14.41-17.014 14.41l-45.888-.18c-7.383 0-13.69-7.187-13.69-16.422V38.302H57.063v71.69c0 7.605 2.783 14.275 8.198 19.67 4.628 4.567 10.194 7.528 16.447 8.197h51.095c7.852 0 14.75-2.92 20.315-8.586h.026c4.732-4.863 7.5-10.69 8.172-17.246l-.052-39.16c0-6.207-2.29-11.707-6.65-16.112-4.364-4.408-9.795-6.677-15.907-6.677-6 0-11.25 2.23-15.493 6.315-4.233-4.078-9.446-6.316-15.442-6.316z" fill="#fff" fill-rule="evenodd" overflow="visible" enable-background="accumulate"/><path d="M99.402 123.805v14.054h33.425c7.852 0 14.71-2.93 20.274-8.595h.048c4.733-4.863 7.494-10.678 8.167-17.235v-7.976H147.12v5.46c0 7.82-7.432 14.386-17 14.386l-30.718-.095z" opacity=".3" fill="#52a800" fill-rule="evenodd" overflow="visible" enable-background="accumulate"/><path d="M91.643 166.31c-32.346 0-60.417-24.523-60.417-56.84l-.03-39.24V60.222H10.69v-49.86l86.48.41 27.053.057c32.375 0 60.417 24.492 60.417 56.84v98.64H91.643zm79.82-26.46V67.67c0-24.115-21.148-43.663-47.24-43.663H97.14v-.058l-73.244-.32v23.415H32.1c5.57 0 12.274 5.235 12.274 12.917l.058 49.48c0 24.113 21.148 43.66 47.21 43.66h64.352c8.25 0 15.47-5.224 15.47-13.253z" fill="#fff" fill-rule="evenodd" overflow="visible" enable-background="accumulate"/></svg>