<svg xmlns="http://www.w3.org/2000/svg" xmlns:xlink="http://www.w3.org/1999/xlink" width="256" height="256" version="1"><defs><pattern xlink:href="#a" id="g" patternTransform="translate(-298.35 240.866)"/><linearGradient id="c"><stop offset="0"/><stop offset="1" stop-opacity="0"/></linearGradient><linearGradient id="b"><stop offset="0" stop-color="#fff"/><stop offset="1" stop-color="#fff" stop-opacity="0"/></linearGradient><filter id="d"><feGaussianBlur stdDeviation=".43"/></filter><filter x="-.03" width="1.07" y="-.1" height="1.21" id="i"><feGaussianBlur stdDeviation="1.28"/></filter><pattern patternUnits="userSpaceOnUse" width="3.25" height="2.79" patternTransform="translate(-298.35 240.866)" id="a"><path opacity=".99" d="M.07 0h1.06v.93H.07zm1.06.93H2.2v.93H1.12zM2.2 0h1.05v.93H2.2zm0 1.86h1.05v.93H2.2zm-2.2 0h1.06v.93H0z" stroke-width="6" stroke-linejoin="round"/></pattern><filter id="e"><feGaussianBlur stdDeviation="3.18"/></filter><linearGradient xlink:href="#b" id="h" gradientUnits="userSpaceOnUse" gradientTransform="matrix(1.9254 0 0 2.425 -118.53 -149.307)" x1="127.32" y1="16.18" x2="127.32" y2="119.03"/><linearGradient xlink:href="#c" id="f" gradientUnits="userSpaceOnUse" gradientTransform="translate(-21.56 -74.596) scale(1.4156)" x1="124.39" y1="131.96" x2="122.35" y2="92.97"/></defs><path transform="matrix(2.4207 0 0 3.276 -109.3 -158.537)" d="M149.9 88.06a51.97 33.94 0 1 1-103.94 0 51.97 33.94 0 1 1 103.95 0z" opacity=".99" fill="#7b7b7b" stroke="#8f8f8f" stroke-linejoin="round" filter="url(#d)"/><path transform="matrix(2.104 0 0 2.3375 -142.62 -185.36)" d="M187.86 131.54a59.64 48.04 0 1 1-119.3 0 59.64 48.04 0 1 1 119.3 0z" opacity=".99" fill="#3e5495" stroke="#3d5292" stroke-width=".9" stroke-linejoin="round"/><path d="M250.08 115.67a123.63 106.13 0 1 1-247.27 0 123.63 106.13 0 1 1 247.3 0z" opacity=".99" fill="#4962ae"/><g font-family="Bitstream Vera Sans"><text style="line-height:125%" x="-181.64" y="178.6" transform="matrix(1.6264 0 0 1.2972 354.763 -79.327)" font-size="17.95" fill="#fff0ff" stroke="#fff0ff" stroke-width="5" filter="url(#e)"><tspan x="-181.64" y="178.6" style="text-align:start;line-height:125%" font-size="144" font-family="Courier 10 Pitch">S</tspan></text><text style="line-height:125%" x="53.02" y="166.26" transform="matrix(1.149 0 0 .9164 -1.58 0)" font-size="25.41" fill="#4962ae"><tspan x="53.02" y="166.26" style="text-align:start;line-height:125%" font-size="203.85" font-family="Courier 10 Pitch">S</tspan></text><text style="line-height:125%" x="53.02" y="166.26" transform="matrix(1.149 0 0 .9164 -1.58 0)" font-size="25.41" fill="url(#f)"><tspan x="53.02" y="166.26" style="text-align:start;line-height:125%" font-size="203.85" font-family="Courier 10 Pitch">S</tspan></text><text style="line-height:125%" x="53.02" y="166.26" transform="matrix(1.149 0 0 .9164 -1.58 0)" font-size="25.41" fill="url(#g)"><tspan x="53.02" y="166.26" style="text-align:start;line-height:125%" font-size="203.85" font-family="Courier 10 Pitch">S</tspan></text></g><path d="M129 14.9C59.4 16.07 11.38 61.17 11.03 107.72c73.62 20.72 156.68 21.98 232.14-3.47-6.47-51.78-60.4-90.3-114.15-89.37z" fill="url(#h)" fill-rule="evenodd"/><g fill="none"><path d="M91.47 126.97l.48 21.56h74.58" transform="matrix(2 0 0 2 -126.938 -117.062)" stroke="#fff" stroke-width="6" filter="url(#i)"/><path d="M55 137.38l.96 43.12h149.16" stroke="#000" stroke-width="5.88"/></g></svg>