<svg xmlns="http://www.w3.org/2000/svg" viewBox="0 0 168 168"><path d="M83.793.294C37.598.294.143 37.744.143 83.942c0 46.2 37.456 83.65 83.65 83.65 46.193 0 83.648-37.45 83.648-83.65 0-46.198-37.454-83.648-83.647-83.648zm.4 11.584c39.803 0 72.096 32.267 72.096 72.064 0 39.803-32.298 72.065-72.097 72.065-21.492 0-40.777-9.42-53.98-24.34 5.43-4.214 14.51-3.186 25.696-1.91 5.36.61 11.47 1.308 17.776 1.448 17.62.102 36.58-3.113 48.28-8.227 7.564-3.318 12.408-5.502 15.436-8.258 1.092-.895 1.664-2.39 2.248-3.943l.4-1.047c.49-1.254 1.195-3.95 1.51-5.423.14-.644.21-1.337-.246-1.694l-1.633.308c-5.134 3.08-17.96 8.943-29.978 9.183-14.89.312-44.902-14.99-48.032-16.606l-.308-.37c-.75-1.79-5.242-12.453-6.193-14.696 21.602 14.227 39.512 22.1 53.24 23.324 15.26 1.356 27.165-6.977 32.257-10.537.994-.678 1.752-1.21 2.064-1.325l.34-.555c-.845-5.363-8.853-31.322-14.882-37.557-1.672-1.71-3-3.375-5.7-4.96-21.823-12.72-73.643-20.38-76.07-20.735l-.4.124-.154.338-.216 11.954c-1.778-.588-7.292-2.394-15.19-4.56 10.307-12.75 26.1-24.064 53.735-24.064zm19.04 38.143c.368-.005.74-.012 1.11 0 12.225.44 21.83 10.737 21.412 22.954-.217 5.91-2.71 11.37-7.025 15.405-4.328 4.054-9.953 6.168-15.896 5.976C90.63 93.9 81.024 83.603 81.42 71.403c.21-5.92 2.714-11.415 7.056-15.436 4.053-3.8 9.24-5.863 14.758-5.946zm-.585 6.533c-3.56.217-6.92 1.663-9.55 4.13-3 2.813-4.77 6.624-4.9 10.752-.282 8.528 6.392 15.705 14.913 16.02 4.142.128 8.067-1.322 11.09-4.128 3.017-2.828 4.772-6.673 4.9-10.783.286-8.542-6.42-15.692-14.942-15.99-.515-.02-1.002-.032-1.51 0zm4.067 7.733c3.787 0 6.84 2.058 6.84 4.59 0 2.522-3.053 4.592-6.84 4.592-3.8 0-6.87-2.074-6.87-4.59 0-2.534 3.07-4.592 6.87-4.592z"/></svg>