<svg xmlns="http://www.w3.org/2000/svg" width="118.327" height="146.107" viewBox="0 0 118.32656 146.10699"><g fill="#56347c"><path d="M108.327 68.65v20.914c0 .64-.43.808-.955.372L96.698 81.1c-.526-.436-.954-1.306-.954-1.946V76.52l-3.335-2.71c-3.58-2.91-6.443-8.814-6.443-13.135 0-4.32 2.884-5.446 6.442-2.514l3.334 2.713V58.24c0-.64.428-.807.954-.372l10.674 8.836c.527.435.955 1.306.955 1.947zM92.6 62c-1.884-1.55-3.41-.955-3.41 1.332s1.526 5.4 3.41 6.95l3.144 2.556v-8.282L92.6 62z"/><path d="M107.516 114.742c.023-.017.045-.034.066-.052.07-.058.136-.12.195-.188l.023-.022c.062-.075.118-.157.168-.24.014-.023.025-.048.038-.072.038-.07.07-.142.096-.217.008-.02.016-.037.023-.058.03-.092.052-.188.066-.285.005-.024.004-.048.006-.072.004-.048.012-.094.013-.14l.012-.8L80.78 90.1l.115-67.833-.772-.582c-.007-.006-.014-.008-.02-.013-.056-.04-.118-.073-.177-.107-.04-.023-.077-.05-.117-.068-.052-.024-.106-.04-.16-.057-.053-.02-.107-.04-.16-.055-.045-.01-.09-.012-.134-.02-.068-.01-.137-.024-.205-.026-.007 0-.015-.003-.022-.004-.042 0-.08.008-.12.01-.065.003-.128.004-.193.014-.055.01-.107.025-.16.038-.055.015-.11.028-.162.047-.053.02-.102.045-.15.068-.053.024-.104.047-.152.077-.024.016-.05.032-.074.05-.063.023-.125.04-.185.072L59.836 30.78l3.78 3 .148 52.89-27.565-22.69-.017-27.547-.016-24.71c0-.017-.004-.034-.006-.052 0-.06-.01-.12-.018-.18-.007-.055-.014-.11-.026-.163-.012-.05-.03-.1-.046-.148-.02-.062-.04-.123-.07-.18-.007-.017-.008-.032-.016-.047-.015-.03-.035-.053-.05-.082-.035-.055-.067-.11-.106-.162-.03-.042-.066-.082-.1-.12-.038-.045-.078-.086-.12-.126-.04-.037-.082-.07-.125-.103-.044-.035-.09-.068-.138-.1-.046-.027-.092-.052-.14-.074-.052-.025-.104-.05-.16-.07-.05-.02-.102-.035-.154-.05-.054-.013-.107-.027-.163-.037-.06-.012-.122-.016-.184-.02-.033 0-.065-.01-.1-.01-.018 0-.034.005-.05.005-.063.002-.126.01-.188.02-.053.007-.107.014-.157.026-.052.014-.103.032-.154.05-.06.018-.117.04-.172.065-.016.01-.032.012-.047.02L10.953 21.56c-.03.016-.056.038-.085.055-.054.032-.108.063-.158.1-.046.032-.087.067-.127.103-.042.038-.083.075-.12.116-.038.04-.073.085-.106.13-.034.043-.067.087-.095.135-.028.045-.054.093-.077.14-.025.053-.05.104-.07.158-.02.05-.034.103-.05.156-.014.054-.027.107-.036.164-.01.06-.016.12-.02.18-.002.035-.01.07-.01.105l.035 53.116c0 .01.004.02.003.03v.07c0 .015.003.028.004.042.007.078.018.156.036.23l.01.048.02.06c.028.1.06.194.106.285l.002.003v.002l.003.004c.044.09.102.176.162.256l.037.05.03.038c.05.06.106.114.164.165l.03.03c.02.016.04.027.057.043.01.006.014.015.023.02l24.692 20.54-.56 14.048c-.002.027 0 .053 0 .08v.085c.002.01.002.022.003.033.003.043.01.086.017.13l.012.078c.005.03.012.057.02.084l.016.056.008.028c.007.017.01.036.017.053.025.075.053.145.087.214v.002c.002 0 .002.002.003.003.045.09.102.174.163.255.01.014.02.03.03.042l.026.03c.06.07.124.14.196.202.008.006.016.01.024.018l.014.01c.007.005.01.012.017.018l27.94 22.13c.525.414 1.24.488 1.84.188l41.97-21.018c.008-.003.013-.008.02-.012.085-.044.164-.095.24-.152zm-82.64-47.02l-8.7-6.72.005 5.776 4.432 3.078-7.317 3.664-.03-49.264 11.433-5.726.12 12.565-8.123-6.49.003 5.777 8.164 6.487.126 6.21-8.38-6.695.003 5.777 8.42 6.7-.033 6.74-8.263-6.6.004 5.776 8.302 6.602.05 6.235zm18.038 31.726L15.02 76.51l19.275-9.652 27.892 22.938zM28.282 16.736l3.85-1.928.417 49.072-3.85 1.928z"/><path d="M48.26 51.142l.005 8.362-6.878-5.385-.005-8.363M41.382 30.764l6.878 5.385.005 8.36-6.88-5.384M54 40.558c2.668 3.394 5.392 10.023 5.392 16.148 0 6.123-2.724 8.21-5.39 7.16V40.557z"/></g></svg>