<svg xmlns="http://www.w3.org/2000/svg" xmlns:xlink="http://www.w3.org/1999/xlink" width="181.122" height="179.148" version="1"><defs><linearGradient id="e"><stop offset="0" stop-color="#19377F"/><stop offset=".5" stop-color="#3365A2"/><stop offset="1" stop-color="#5D9DCB"/></linearGradient><linearGradient id="d"><stop offset="0" stop-color="#215C21"/><stop offset="1" stop-color="#215C21" stop-opacity="0"/></linearGradient><linearGradient id="c"><stop offset="0" stop-color="#DAFF00" stop-opacity=".604"/><stop offset="1" stop-color="#FFF300" stop-opacity="0"/></linearGradient><linearGradient id="b"><stop offset="0" stop-opacity=".432"/><stop offset="1" stop-color="#FFF300" stop-opacity="0"/></linearGradient><linearGradient id="a"><stop offset="0" stop-color="#FFF300"/><stop offset="1" stop-color="#FFF300" stop-opacity="0"/></linearGradient><linearGradient id="j"><stop offset="0" stop-color="#729FCF"/><stop offset="1" stop-color="#386EA6"/></linearGradient><linearGradient id="i"><stop offset="0" stop-color="#fff"/><stop offset="1" stop-color="#fff" stop-opacity="0"/></linearGradient><linearGradient id="h"><stop offset="0"/><stop offset="1" stop-opacity="0"/></linearGradient><linearGradient id="g"><stop offset="0" stop-opacity="0"/><stop offset=".5"/><stop offset="1" stop-opacity="0"/></linearGradient><linearGradient id="f"><stop offset="0" stop-color="#FFF"/><stop offset="1" stop-color="#FFF" stop-opacity="0"/></linearGradient><linearGradient xlink:href="#f" id="k" gradientUnits="userSpaceOnUse" x1="33.112" y1="43.543" x2="25.368" y2="2.44"/><linearGradient xlink:href="#f" id="l" gradientUnits="userSpaceOnUse" x1="29.854" y1="50.395" x2="21.795" y2="15.465"/></defs><path d="M103.934 159.77c-3.8-.514-7.977-1.534-9.832-2.4-4.286-2-8.387-4.842-9.85-6.823-.382-.52-1.333-1.445-2.11-2.06-3.098-2.438-4.906-5.006-8.597-12.204-.42-.818-1.73-7.44-2.212-11.178-.38-2.955-.35-8.858.06-11.56.51-3.352 1.55-7.76 2.054-8.703.424-.792 1.478-4.206 1.805-5.848.124-.62.402-1.346.617-1.612.215-.266.66-1.426.988-2.58.328-1.15 1.093-3.1 1.7-4.326 1.36-2.75 1.997-4.798 2.002-6.422.002-.682.242-2.06.533-3.062.713-2.453.438-9.362-.477-11.977-.695-1.987-2.392-5.322-4.175-8.206-3.693-5.978-14.253-13.33-20.537-14.303-2.41-.372-10.382.04-13.81.715-2.933.577-5.697 1.86-7.114 3.305-3.635 3.705-5.76 6.207-6.596 7.77-1.207 2.256-1.956 5.716-2.16 9.99-.235 4.856-.032 5.87 2.122 10.622 1.818 4.007 6.706 8.058 12.084 10.01 2.51.912 3.466 1.08 7.092 1.255 5 .24 7.13-.123 9.372-1.594.873-.572 2.24-1.425 3.038-1.893 3.642-2.14 5.544-6.173 5.53-11.724-.01-3.44-1.237-6.55-3.315-8.402-1.292-1.15-5.85-3.894-7.176-4.317-2.307-.737-5.285-.27-8.462 1.328-1.547.78-3.087 1.79-3.423 2.25-.336.46-1.097 2.13-1.69 3.708-.595 1.58-1.2 2.87-1.345 2.87-.578 0-.43-2.503.262-4.426.988-2.75 1.98-4.183 3.94-5.68 2.208-1.687 4.373-2.522 7.3-2.813 3.804-.38 4.4-.274 7.69 1.375 3.83 1.918 4.987 3.05 6.877 6.722 2.255 4.384 2.532 5.59 2.032 8.873-.57 3.73-1.847 7.498-3.335 9.832-1.357 2.127-3.886 4.065-8.43 6.46-3.26 1.717-4.373 2.017-8.704 2.344-4.74.36-7.504.05-11.12-1.24-1.597-.567-3.582-1.227-4.412-1.464-1.105-.317-2.536-1.3-5.36-3.68-4.85-4.087-5.63-5.41-6.572-11.145-.35-2.128-.682-4.91-.737-6.185-.055-1.274-.192-2.462-.302-2.64-.23-.376.305-6.857.844-10.194.444-2.75.647-3.17 3.82-7.868 1.883-2.79 3.122-4.234 4.88-5.694 5.692-4.724 9.41-6.683 15.87-8.362 4.482-1.164 4.494-1.165 9.994-1.02 5.818.156 8.914.52 11.006 1.293 14.14 5.23 19.72 9.81 26.965 22.134 2.317 3.943 4.53 6.76 8.527 10.863 2.942 3.02 3.883 3.776 5.762 4.634 3.028 1.383 6.57 1.887 13.368 1.9 6.474.013 8.923-.477 11.745-2.35.897-.596 2.355-1.403 3.24-1.794.883-.39 1.9-.973 2.256-1.294.356-.322 1.446-1.003 2.42-1.515 2.24-1.176 4.854-3.795 5.808-5.82 1.15-2.44 2.908-5.336 3.883-6.397.664-.723.97-1.505 1.213-3.1.178-1.175.628-2.73 1-3.46.935-1.832 1.25-5.703.573-7.014-.276-.534-.71-2.072-.964-3.418-.903-4.777-5.63-10.35-11.053-13.03-1.968-.972-2.802-1.18-5.875-1.458-6.387-.578-11.063.407-14.745 3.11-3.48 2.55-4.984 3.81-4.984 4.175 0 .38-1.603 2.254-2.114 2.47-.71.298-2.077 2.572-2.077 3.45 0 .52-.284 1.588-.63 2.372-1.322 2.988-1.09 5.408.998 10.423 1.19 2.853 1.552 3.52 2.73 4.997 1.58 1.98 3.24 2.9 6.18 3.417 3.422.603 5.135.56 7.3-.186 4.284-1.473 7.265-3.986 8.806-7.422.693-1.545.78-2.125.666-4.52-.114-2.408-.266-2.986-1.23-4.675-.607-1.06-1.666-2.538-2.354-3.286-.688-.747-1.2-1.51-1.14-1.695.18-.537 3.422 1.828 4.445 3.24 1.57 2.167 2.074 4.344 1.844 7.958-.252 3.968-1.335 6.287-4.398 9.42-2.365 2.417-4.74 3.58-8.7 4.26-3.226.552-7.32-.2-9.905-1.823-3.135-1.965-5.087-3.98-6.868-7.086-1.463-2.552-1.738-3.34-2.414-6.932-.806-4.277-.805-7.768.004-8.725.224-.266.58-1.32.787-2.34.21-1.022.706-2.255 1.104-2.74.398-.486 1.19-1.862 1.758-3.058.837-1.758 1.28-2.298 2.315-2.827.705-.36 1.282-.798 1.282-.974 0-.177.496-.558 1.103-.847.606-.29 1.174-.797 1.26-1.128.093-.356.93-.94 2.04-1.428 1.035-.454 2.672-1.195 3.637-1.648.965-.452 3.65-1.29 5.964-1.862 4.002-.99 4.4-1.03 8.077-.812 3.694.22 3.954.283 5.766 1.394 1.043.64 2.42 1.333 3.062 1.54.64.208 2.298 1.19 3.685 2.187 1.386.996 3.005 2.103 3.597 2.462.593.358 2.035 1.632 3.204 2.83 2.427 2.488 4.973 7.125 5.81 10.584.275 1.128.788 3.067 1.142 4.308.55 1.93.615 2.838.448 6.286-.517 10.74-4.17 19.004-11.242 25.444-.886.807-2.665 2.515-3.952 3.794-2.605 2.59-5.713 4.728-9.587 6.596-1.418.684-3.385 1.667-4.37 2.184-3.01 1.58-7.615 2.277-15.05 2.277-7.27 0-8.077.11-16.423 2.242-2.986.763-3.966 1.178-5.69 2.408-2.914 2.08-6.276 6.41-8.9 11.468-.415.798-1.013 1.74-1.33 2.095-1.05 1.176-1.863 3.586-1.92 5.697-.138 5.197.076 14.417.362 15.58.444 1.8 1.27 3.696 2.108 4.834 1.088 1.475 2.905 4.795 3.328 6.08.228.69.992 1.66 1.915 2.433.845.707 1.952 1.886 2.46 2.62 1.105 1.594 5.1 3.76 7.494 4.063.84.106 1.82.376 2.183.6.36.225 1.45.572 2.417.773 2.1.433 6.85-.163 9.593-1.204 1.685-.64 5.662-2.965 7.78-4.547 1.586-1.187 3.75-4.258 4.384-6.228.3-.93.723-1.982.94-2.336 1.117-1.827 1.38-5.542.846-11.975-.205-2.464-.47-3.656-1.07-4.835-.44-.86-1.135-2.263-1.545-3.118-1.256-2.616-7.302-6.992-9.73-7.042-.403-.008-1.707-.218-2.896-.465-2.283-.475-5.616-.235-6.995.503-1.696.907-3.862 2.53-5.25 3.93-1.23 1.246-1.662 2.01-2.335 4.14-.772 2.444-.806 2.825-.536 5.944.33 3.812.98 5.575 2.794 7.582 1.446 1.6 2.678 2.272 5.94 3.242 2.37.704 4.61.75 6.69.137 1.22-.36.806.37-.56.987-1.93.87-6.49.538-9.5-.693-3.008-1.23-5.63-3.66-7.025-6.513-1.004-2.052-1.047-2.298-1.047-6.008 0-3.69.046-3.958.995-5.803.547-1.064 1.33-2.587 1.738-3.384.41-.798 1.597-2.27 2.638-3.275 1.538-1.48 2.363-1.986 4.387-2.686 5.57-1.927 12.35-1.427 16.515 1.218 3.81 2.418 7.15 5.232 8.42 7.093 2.333 3.42 4.02 7.46 4.266 10.222.118 1.33.347 3.69.507 5.246.276 2.667.23 3.082-.82 7.253-1.642 6.515-2.54 8.246-5.725 11.047-1.44 1.267-3.16 2.58-3.818 2.92-.66.338-1.676 1.025-2.257 1.525-1.576 1.356-4.566 2.955-5.525 2.955-.464 0-1.752.346-2.862.77-2.193.835-6.263 1.833-7.222 1.77-.33-.022-1.904-.216-3.5-.433z" opacity=".502" fill="none" stroke="#002568" stroke-width="5.1200399999999995" stroke-linejoin="round" overflow="visible"/><path d="M103.934 159.77c-3.8-.514-7.977-1.534-9.832-2.4-4.286-2-8.387-4.842-9.85-6.823-.382-.52-1.333-1.445-2.11-2.06-3.098-2.438-4.906-5.006-8.597-12.204-.42-.818-1.73-7.44-2.212-11.178-.38-2.955-.35-8.858.06-11.56.51-3.352 1.55-7.76 2.054-8.703.424-.792 1.478-4.206 1.805-5.848.124-.62.402-1.346.617-1.612.215-.266.66-1.426.988-2.58.328-1.15 1.093-3.1 1.7-4.326 1.36-2.75 1.997-4.798 2.002-6.422.002-.682.242-2.06.533-3.062.713-2.453.438-9.362-.477-11.977-.695-1.987-2.392-5.322-4.175-8.206-3.693-5.978-14.253-13.33-20.537-14.303-2.41-.372-10.382.04-13.81.715-2.933.577-5.697 1.86-7.114 3.305-3.635 3.705-5.76 6.207-6.596 7.77-1.207 2.256-1.956 5.716-2.16 9.99-.235 4.856-.032 5.87 2.122 10.622 1.818 4.007 6.706 8.058 12.084 10.01 2.51.912 3.466 1.08 7.092 1.255 5 .24 7.13-.123 9.372-1.594.873-.572 2.24-1.425 3.038-1.893 3.642-2.14 5.544-6.173 5.53-11.724-.01-3.44-1.237-6.55-3.315-8.402-1.292-1.15-5.85-3.894-7.176-4.317-2.307-.737-5.285-.27-8.462 1.328-1.547.78-3.087 1.79-3.423 2.25-.336.46-1.097 2.13-1.69 3.708-.595 1.58-1.2 2.87-1.345 2.87-.578 0-.43-2.503.262-4.426.988-2.75 1.98-4.183 3.94-5.68 2.208-1.687 4.373-2.522 7.3-2.813 3.804-.38 4.4-.274 7.69 1.375 3.83 1.918 4.987 3.05 6.877 6.722 2.255 4.384 2.532 5.59 2.032 8.873-.57 3.73-1.847 7.498-3.335 9.832-1.357 2.127-3.886 4.065-8.43 6.46-3.26 1.717-4.373 2.017-8.704 2.344-4.74.36-7.504.05-11.12-1.24-1.597-.567-3.582-1.227-4.412-1.464-1.105-.317-2.536-1.3-5.36-3.68-4.85-4.087-5.63-5.41-6.572-11.145-.35-2.128-.682-4.91-.737-6.185-.055-1.274-.192-2.462-.302-2.64-.23-.376.305-6.857.844-10.194.444-2.75.647-3.17 3.82-7.868 1.883-2.79 3.122-4.234 4.88-5.694 5.692-4.724 9.41-6.683 15.87-8.362 4.482-1.164 4.494-1.165 9.994-1.02 5.818.156 8.914.52 11.006 1.293 14.14 5.23 19.72 9.81 26.965 22.134 2.317 3.943 4.53 6.76 8.527 10.863 2.942 3.02 3.883 3.776 5.762 4.634 3.028 1.383 6.57 1.887 13.368 1.9 6.474.013 8.923-.477 11.745-2.35.897-.596 2.355-1.403 3.24-1.794.883-.39 1.9-.973 2.256-1.294.356-.322 1.446-1.003 2.42-1.515 2.24-1.176 4.854-3.795 5.808-5.82 1.15-2.44 2.908-5.336 3.883-6.397.664-.723.97-1.505 1.213-3.1.178-1.175.628-2.73 1-3.46.935-1.832 1.25-5.703.573-7.014-.276-.534-.71-2.072-.964-3.418-.903-4.778-5.63-10.35-11.053-13.03-1.968-.972-2.802-1.18-5.875-1.458-6.387-.578-11.063.407-14.745 3.11-3.48 2.55-4.984 3.81-4.984 4.175 0 .38-1.603 2.254-2.114 2.47-.71.298-2.077 2.572-2.077 3.45 0 .52-.284 1.588-.63 2.372-1.322 2.988-1.09 5.408.998 10.423 1.19 2.853 1.552 3.52 2.73 4.997 1.58 1.98 3.24 2.9 6.18 3.417 3.422.603 5.135.56 7.3-.186 4.284-1.473 7.265-3.986 8.806-7.422.693-1.545.78-2.125.666-4.52-.114-2.408-.266-2.986-1.23-4.675-.607-1.06-1.666-2.538-2.354-3.286-.688-.747-1.2-1.51-1.14-1.695.18-.537 3.422 1.828 4.445 3.24 1.57 2.167 2.074 4.344 1.844 7.958-.252 3.968-1.335 6.287-4.398 9.42-2.365 2.417-4.74 3.58-8.7 4.26-3.226.552-7.32-.2-9.905-1.823-3.135-1.965-5.087-3.98-6.868-7.086-1.463-2.552-1.738-3.34-2.414-6.932-.806-4.277-.805-7.768.004-8.725.224-.266.58-1.32.787-2.34.21-1.022.706-2.255 1.104-2.74.398-.486 1.19-1.862 1.758-3.058.837-1.758 1.28-2.298 2.315-2.827.705-.36 1.282-.798 1.282-.974 0-.177.496-.558 1.103-.847.606-.29 1.174-.797 1.26-1.128.093-.356.93-.94 2.04-1.428 1.035-.454 2.672-1.195 3.637-1.648.965-.452 3.65-1.29 5.964-1.862 4.002-.99 4.4-1.03 8.077-.812 3.694.22 3.954.283 5.766 1.394 1.043.64 2.42 1.333 3.062 1.54.64.208 2.298 1.19 3.685 2.187 1.386.996 3.005 2.103 3.598 2.462.592.358 2.034 1.632 3.203 2.83 2.427 2.488 4.973 7.125 5.81 10.584.275 1.128.788 3.067 1.142 4.308.55 1.93.615 2.838.448 6.286-.517 10.74-4.17 19.004-11.242 25.444-.886.807-2.665 2.515-3.952 3.794-2.605 2.59-5.713 4.728-9.587 6.596-1.418.684-3.385 1.667-4.37 2.184-3.01 1.58-7.615 2.277-15.05 2.277-7.27 0-8.077.11-16.423 2.242-2.986.763-3.966 1.178-5.69 2.408-2.914 2.08-6.276 6.41-8.9 11.468-.415.798-1.013 1.74-1.33 2.095-1.05 1.176-1.863 3.586-1.92 5.697-.138 5.197.076 14.417.362 15.58.444 1.8 1.27 3.696 2.108 4.834 1.088 1.475 2.905 4.795 3.328 6.08.228.69.992 1.66 1.915 2.433.845.707 1.952 1.886 2.46 2.62 1.105 1.594 5.1 3.76 7.494 4.063.84.106 1.82.376 2.183.6.36.225 1.45.572 2.417.773 2.1.433 6.85-.163 9.593-1.204 1.685-.64 5.662-2.965 7.78-4.547 1.586-1.187 3.75-4.258 4.384-6.228.3-.93.723-1.982.94-2.336 1.117-1.827 1.38-5.542.846-11.975-.205-2.464-.47-3.656-1.07-4.835-.44-.86-1.135-2.263-1.545-3.118-1.256-2.616-7.302-6.992-9.73-7.042-.403-.008-1.707-.218-2.896-.465-2.283-.475-5.616-.235-6.995.503-1.696.907-3.862 2.53-5.25 3.93-1.23 1.246-1.662 2.01-2.335 4.14-.772 2.444-.806 2.825-.536 5.944.332 3.812.98 5.575 2.794 7.582 1.446 1.6 2.678 2.272 5.94 3.242 2.37.704 4.61.75 6.69.137 1.22-.36.806.37-.56.987-1.93.87-6.49.538-9.5-.693-3.008-1.23-5.63-3.66-7.025-6.513-1.004-2.052-1.047-2.298-1.047-6.008 0-3.69.046-3.958.995-5.803.547-1.064 1.33-2.587 1.738-3.384.41-.798 1.597-2.27 2.638-3.275 1.538-1.48 2.363-1.986 4.387-2.686 5.57-1.927 12.35-1.427 16.515 1.218 3.81 2.418 7.15 5.232 8.42 7.093 2.333 3.42 4.02 7.46 4.266 10.222.118 1.33.347 3.69.507 5.246.276 2.667.23 3.082-.82 7.253-1.642 6.515-2.54 8.246-5.725 11.047-1.44 1.267-3.158 2.58-3.818 2.92-.66.338-1.676 1.025-2.257 1.525-1.576 1.356-4.566 2.955-5.525 2.955-.464 0-1.752.346-2.862.77-2.193.835-6.263 1.833-7.222 1.77-.33-.022-1.904-.216-3.5-.433z" fill="#004db1" overflow="visible"/><path d="M20.156 24.125L41.47 19.28c.023-.022.07-.073.093-.093 2.07-1.886 3.13-4.29 3.28-7.437.05-1.01.037-1.278-.124-1.844-.105-.363-.265-.95-.345-1.28-.245-1.014-.977-2.366-1.688-3.095-.342-.35-.763-.706-.937-.81-.174-.106-.656-.46-1.063-.75-.406-.293-.874-.565-1.062-.626-.188-.06-.6-.25-.906-.438-.532-.325-.607-.373-1.69-.437-1.076-.065-1.2-.04-2.374.25-.678.166-1.467.43-1.75.56-.282.134-.76.337-1.062.47-.326.143-.567.302-.594.406-.025.097-.197.26-.375.344-.178.085-.312.198-.313.25 0 .052-.168.176-.375.28-.303.156-.442.33-.687.845-.167.35-.383.733-.5.875-.117.142-.283.513-.344.813-.06.3-.153.61-.218.687-.237.28-.237 1.31 0 2.563.198 1.05.258 1.283.687 2.03.522.91 1.113 1.487 2.03 2.063.76.475 1.963.693 2.907.53 1.16-.198 1.84-.54 2.532-1.248.897-.918 1.238-1.588 1.312-2.75.068-1.06-.102-1.71-.562-2.344-.3-.414-1.23-1.095-1.282-.938-.018.054.11.28.313.5.202.22.51.66.688.97.282.494.34.637.374 1.343.034.7.016.89-.187 1.342-.45 1.007-1.34 1.725-2.594 2.157-.634.217-1.122.238-2.125.06-.86-.15-1.35-.418-1.81-1-.346-.432-.466-.632-.814-1.467-.612-1.47-.668-2.156-.28-3.032.1-.228.186-.565.186-.717 0-.258.387-.913.594-1 .15-.064.625-.608.625-.72 0-.106.45-.47 1.47-1.218 1.08-.79 2.44-1.107 4.313-.938.9.082 1.142.153 1.718.438 1.59.785 2.987 2.413 3.25 3.813.076.394.202.843.282 1 .2.384.087 1.525-.187 2.062-.11.214-.23.687-.28 1.03-.072.47-.182.696-.376.908-.287.31-.79 1.16-1.126 1.874-.28.594-1.032 1.344-1.688 1.688-.285.15-.614.344-.718.438-.105.093-.398.26-.657.375-.258.114-.705.356-.968.53-.826.55-1.54.692-3.437.688-1.99-.003-3.02-.156-3.906-.56-.552-.253-.827-.46-1.69-1.345-1.17-1.202-1.82-2.033-2.5-3.188-2.12-3.61-3.762-4.936-7.905-6.468-.613-.228-1.514-.33-3.22-.376-1.61-.043-1.624-.06-2.936.28-1.894.493-2.96 1.086-4.626 2.47-.516.428-.886.84-1.438 1.656-.93 1.377-.995 1.507-1.125 2.313-.157.977-.317 2.86-.25 2.968.034.054.08.41.095.782.016.374.116 1.19.22 1.813.275 1.68.484 2.053 1.905 3.25.828.698 1.27 1 1.594 1.094.243.068.814.27 1.28.436 1.06.378 1.862.45 3.25.344 1.27-.096 1.61-.184 2.563-.688 1.332-.7 2.072-1.25 2.47-1.875.435-.683.8-1.782.968-2.875.147-.96.067-1.34-.594-2.625-.553-1.076-.877-1.406-2-1.968-.963-.484-1.134-.487-2.25-.376-.856.085-1.508.318-2.155.812-.574.44-.867.85-1.156 1.656-.204.564-.233 1.313-.064 1.313.043 0 .2-.38.375-.844.175-.46.403-.958.5-1.093.1-.134.548-.428 1-.656.932-.467 1.825-.62 2.5-.405.39.124 1.716.944 2.095 1.28.61.544.966 1.462.97 2.47.003 1.626-.56 2.81-1.626 3.438-.235.137-.62.363-.876.53-.657.432-1.285.54-2.75.47-1.063-.05-1.36-.077-2.094-.344-1.575-.573-3-1.764-3.53-2.94-.632-1.39-.695-1.7-.626-3.124.06-1.252.27-2.276.625-2.937.244-.46.872-1.166 1.936-2.25.415-.424 1.234-.8 2.094-.97 1.004-.198 3.326-.328 4.03-.22 1.842.286 4.95 2.438 6.033 4.19.522.844 1.015 1.823 1.218 2.405.27.766.366 2.78.157 3.5-.085.294-.155.706-.156.906 0 .477-.194 1.07-.593 1.876-.1.202-.183.463-.28.72z" opacity=".797" fill="url(#k)" overflow="visible" transform="translate(8.82 10.57) scale(3.41336)"/><path d="M20.156 24.125c-.076.2-.176.414-.218.563-.097.337-.22.672-.282.75-.063.077-.15.286-.187.468-.097.48-.408 1.487-.532 1.72-.148.275-.445 1.548-.594 2.53-.12.792-.143 2.54-.032 3.407.142 1.095.534 3.04.657 3.28 1.08 2.11 1.592 2.85 2.5 3.563.227.18.512.442.624.594.428.58 1.65 1.414 2.906 2 .543.254 1.762.568 2.875.72.467.062.904.117 1 .124.28.018 1.483-.287 2.125-.532.325-.123.708-.218.844-.218.28 0 1.163-.478 1.625-.875.17-.148.462-.34.655-.44.193-.098.703-.47 1.125-.843.933-.82 1.176-1.34 1.656-3.25.308-1.222.33-1.343.25-2.124-.047-.456-.12-1.142-.156-1.532-.072-.808-.566-1.997-1.25-3-.372-.544-1.353-1.353-2.47-2.06-1.22-.776-3.18-.94-4.81-.376-.594.205-.832.347-1.282.78-.306.295-.662.736-.782.97-.12.233-.37.688-.53 1-.28.54-.282.606-.282 1.687 0 1.088.018 1.15.312 1.75.41.837 1.18 1.578 2.063 1.94.88.36 2.215.44 2.78.186.4-.18.514-.386.156-.28-.61.18-1.274.143-1.968-.063-.957-.285-1.296-.47-1.72-.938-.53-.588-.715-1.102-.812-2.22-.08-.912-.07-1.033.157-1.75.197-.623.295-.853.656-1.218.405-.41 1.064-.86 1.56-1.125.405-.216 1.364-.295 2.032-.156.35.073.726.123.844.125.71.016 2.507 1.297 2.875 2.064.12.25.31.654.44.906.175.345.25.715.31 1.438.157 1.884.078 2.964-.25 3.5-.062.103-.192.414-.28.687-.186.577-.816 1.465-1.28 1.813-.622.463-1.79 1.156-2.282 1.343-.804.306-2.198.472-2.813.345-.284-.06-.582-.153-.688-.22-.105-.065-.41-.155-.656-.186-.7-.09-1.863-.722-2.186-1.19-.15-.214-.47-.542-.72-.75-.27-.225-.495-.516-.56-.718-.126-.376-.652-1.348-.97-1.78-.246-.334-.495-.88-.625-1.407-.085-.34-.136-3.04-.095-4.563.016-.618.255-1.343.563-1.687.092-.104.253-.36.375-.594.768-1.48 1.77-2.765 2.625-3.374.504-.36.78-.495 1.656-.718 2.445-.625 2.682-.657 4.812-.657 2.178 0 3.524-.192 4.407-.655.288-.15.865-.425 1.28-.625 1.135-.547 2.05-1.18 2.813-1.938.346-.344.787-.776 1.063-1.03l-21.314 4.843z" opacity=".363" fill="url(#l)" overflow="visible" transform="translate(8.82 10.57) scale(3.41336)"/></svg>