<?xml version="1.0" encoding="UTF-8" standalone="no"?>
<!-- Created with Inkscape (http://www.inkscape.org/) -->

<svg
   xmlns:dc="http://purl.org/dc/elements/1.1/"
   xmlns:cc="http://creativecommons.org/ns#"
   xmlns:rdf="http://www.w3.org/1999/02/22-rdf-syntax-ns#"
   xmlns:svg="http://www.w3.org/2000/svg"
   xmlns="http://www.w3.org/2000/svg"
   xmlns:sodipodi="http://sodipodi.sourceforge.net/DTD/sodipodi-0.dtd"
   xmlns:inkscape="http://www.inkscape.org/namespaces/inkscape"
   width="200"
   height="225"
   viewBox="0 0 199.99999 224.99998"
   id="svg7605"
   version="1.1"
   inkscape:version="0.91 r13725"
   sodipodi:docname="add-wechat.svg"
   inkscape:export-filename="C:\Users\10000_000\Desktop\twitter.png"
   inkscape:export-xdpi="90"
   inkscape:export-ydpi="90">
  <defs
     id="defs7607">
    <marker
       inkscape:stockid="Arrow1Lstart"
       orient="auto"
       refY="0"
       refX="0"
       id="Arrow1Lstart"
       style="overflow:visible"
       inkscape:isstock="true">
      <path
         id="path4254"
         d="M 0,0 5,-5 -12.5,0 5,5 0,0 Z"
         style="fill-rule:evenodd;stroke:#000000;stroke-width:1pt"
         transform="matrix(0.8,0,0,0.8,10,0)"
         inkscape:connector-curvature="0" />
    </marker>
  </defs>
  <sodipodi:namedview
     id="base"
     pagecolor="#ffffff"
     bordercolor="#666666"
     borderopacity="1.0"
     inkscape:pageopacity="0.0"
     inkscape:pageshadow="2"
     inkscape:zoom="1.4820956"
     inkscape:cx="168.89363"
     inkscape:cy="115.9799"
     inkscape:document-units="px"
     inkscape:current-layer="layer1"
     showgrid="true"
     showguides="false"
     inkscape:snap-page="false"
     inkscape:snap-grids="true"
     inkscape:snap-to-guides="true"
     inkscape:window-width="1366"
     inkscape:window-height="705"
     inkscape:window-x="-8"
     inkscape:window-y="-8"
     inkscape:window-maximized="1"
     units="px">
    <inkscape:grid
       type="xygrid"
       id="grid8437" />
  </sodipodi:namedview>
  <metadata
     id="metadata7610">
    <rdf:RDF>
      <cc:Work
         rdf:about="">
        <dc:format>image/svg+xml</dc:format>
        <dc:type
           rdf:resource="http://purl.org/dc/dcmitype/StillImage" />
        <dc:title></dc:title>
      </cc:Work>
    </rdf:RDF>
  </metadata>
  <g
     inkscape:label="Layer 1"
     inkscape:groupmode="layer"
     id="layer1"
     transform="translate(0,-827.36222)">
    <rect
       style="color:#000000;clip-rule:nonzero;display:inline;overflow:visible;visibility:visible;opacity:1;isolation:auto;mix-blend-mode:normal;color-interpolation:sRGB;color-interpolation-filters:linearRGB;solid-color:#000000;solid-opacity:1;fill:#eeeeee;fill-opacity:1;fill-rule:nonzero;stroke:none;stroke-width:1;stroke-linecap:butt;stroke-linejoin:miter;stroke-miterlimit:4;stroke-dasharray:none;stroke-dashoffset:0;stroke-opacity:1;color-rendering:auto;image-rendering:auto;shape-rendering:auto;text-rendering:auto;enable-background:accumulate"
       id="rect7613-9"
       width="199.99997"
       height="224.99997"
       x="0"
       y="827.36218" />
    <text
       xml:space="preserve"
       style="font-style:normal;font-weight:normal;font-size:40px;line-height:125%;font-family:sans-serif;letter-spacing:0px;word-spacing:0px;fill:#000000;fill-opacity:1;stroke:none;stroke-width:1px;stroke-linecap:butt;stroke-linejoin:miter;stroke-opacity:1"
       x="49.999996"
       y="1002.3622"
       id="text4151"
       sodipodi:linespacing="125%"><tspan
         sodipodi:role="line"
         id="tspan4153"
         x="49.999996"
         y="1002.3622" /></text>
    <rect
       style="opacity:1;fill:#3a4750;fill-opacity:1;stroke:none;stroke-width:1;stroke-miterlimit:4;stroke-dasharray:none;stroke-opacity:1"
       id="rect4212"
       width="199.99997"
       height="24.999996"
       x="0"
       y="827.36224" />
    <g
       id="g4245"
       transform="translate(11.39566,24.999988)">
      <path
         inkscape:connector-curvature="0"
         id="text4147"
         d="m 134.23598,807.53394 c 0,0.9258 0,1.8516 0,2.7775 -0.5958,0 -1.1916,0 -1.78741,0 0,0.8294 0,1.6589 0,2.4883 0.5958,0 1.19161,0 1.78741,0 0,3.1279 0,6.2559 0,9.3838 2.34872,0 4.69745,0 7.04618,0 0,-0.7996 0,-1.5992 0,-2.3988 -1.48951,0 -2.97901,0 -4.46852,0 0,-2.3283 0,-4.6567 0,-6.985 1.51929,0 3.03858,0 4.55787,0 0,-0.8294 0,-1.6589 0,-2.4883 -1.51929,0 -3.03858,0 -4.55787,0 0,-0.9831 0,-1.9661 0,-2.9492 -0.85922,0 -1.71845,0 -2.57766,0 l 0,0.086 0,0.086 z m -75.607524,0.1787 c 0,4.8534 0,9.7068 0,14.5602 4.821291,0 9.642584,0 14.463875,0 0,-4.9106 0,-9.8212 0,-14.7319 -0.859169,0 -1.718336,0 -2.577506,0 0,4.1111 0,8.2221 0,12.3331 -1.136785,0 -2.27357,0 -3.410355,0 0,-4.111 0,-8.222 0,-12.3331 -0.7996,0 -1.5992,0 -2.398799,0 0,4.1111 0,8.2221 0,12.3331 -1.196355,0 -2.392708,0 -3.589062,0 0,-4.111 0,-8.222 0,-12.3331 -0.829384,0 -1.658769,0 -2.488153,0 l 0,0.086 0,0.086 z m 32.530897,0 c 0,4.8534 0,9.7068 0,14.5602 3.74888,0 7.49776,0 11.246637,0 0,-0.7996 0,-1.5992 0,-2.3988 -2.830087,0 -5.660167,0 -8.490257,0 0,-3.3114 0,-6.6228 0,-9.9343 2.83009,0 5.66017,0 8.490257,0 0,-0.7996 0,-1.5992 0,-2.3988 -3.748877,0 -7.497757,0 -11.246637,0 l 0,0.086 0,0.086 z m 13.941827,0 c 0,4.8534 0,9.7068 0,14.5602 0.85923,0 1.71845,0 2.57768,0 0,-3.1875 0,-6.3751 0,-9.5626 1.97086,0 3.94173,0 5.91259,0 0,3.1875 0,6.3751 0,9.5626 0.85917,0 1.71834,0 2.57751,0 0,-3.9871 0,-7.9743 0,-11.9614 -2.83003,0 -5.66007,0 -8.4901,0 0,-0.9235 0,-1.847 0,-2.7705 -0.85923,0 -1.71845,0 -2.57768,0 l 0,0.086 0,0.086 z m -28.777368,2.7704 c 0,3.9598 0,7.9195 0,11.8792 3.868019,0 7.736039,0 11.60406,0 0,-0.7996 0,-1.5992 0,-2.3988 -3.008796,0 -6.017592,0 -9.026386,0 0,-0.8984 0,-1.7968 0,-2.6952 3.008794,0 6.01759,0 9.026386,0 0,-2.3189 0,-4.6379 0,-6.9568 -3.868021,0 -7.736041,0 -11.60406,0 l 0,0.086 0,0.086 z m 45.579028,0 c 0,0.7723 0,1.5445 0,2.3167 1.87682,0 3.75363,0 5.63045,0 0,0.7792 0,1.5585 0,2.3378 -2.8003,0 -5.60061,0 -8.40091,0 0,2.4082 0,4.8165 0,7.2247 3.68925,0 7.37851,0 11.06777,0 0,-4.0169 0,-8.0339 0,-12.0508 -2.76577,0 -5.53154,0 -8.29731,0 l 0,0.086 0,0.086 z m -36.552643,2.3167 c 0,0.6898 0,1.3797 0,2.0695 -2.14957,0 -4.299141,0 -6.448711,0 0,-0.6898 0,-1.3797 0,-2.0695 2.14957,0 4.299141,0 6.448711,0 z m 42.183093,4.7366 c 0,0.7792 0,1.5585 0,2.3377 -1.94108,0 -3.88216,0 -5.82324,0 0,-0.7792 0,-1.5585 0,-2.3377 1.94108,0 3.88216,0 5.82324,0 z"
         style="font-style:normal;font-weight:normal;font-size:266.55096436px;line-height:125%;font-family:sans-serif;letter-spacing:0px;word-spacing:0px;fill:#eeeeee;fill-opacity:1;stroke:none;stroke-width:1px;stroke-linecap:butt;stroke-linejoin:miter;stroke-opacity:1" />
      <g
         transform="translate(0,1.1332116)"
         id="g4233">
        <g
           id="WeChat_3_"
           transform="matrix(0.0390625,0,0,0.03906097,33.649639,804.86219)">
          <g
             id="chat_1">
            <g
               id="g10">
              <path
                 d="M 186.066,77 C 114.232,77 56,126.772 56,188.17 c 0,35.606 19.608,67.279 50.073,87.626 l -11.85,40.565 45.153,-24.43 c 14.496,4.769 30.228,7.409 46.689,7.409 71.833,0 130.066,-49.773 130.066,-111.171 C 316.131,126.771 257.899,77 186.066,77 Z"
                 id="path12"
                 inkscape:connector-curvature="0"
                 style="fill:#adcefc" />
            </g>
          </g>
          <g
             id="chat_1_1_">
            <g
               id="g15">
              <path
                 d="m 417,269.319 c 0,-51.574 -48.963,-93.383 -109.361,-93.383 -60.399,0 -109.362,41.809 -109.362,93.383 0,51.574 48.963,93.383 109.362,93.383 13.841,0 27.068,-2.218 39.257,-6.224 L 384.861,377 374.897,342.925 C 400.513,325.834 417,299.229 417,269.319 Z"
                 id="path17"
                 inkscape:connector-curvature="0"
                 style="fill:#f6f6f6" />
            </g>
          </g>
          <g
             id="eyes">
            <g
               id="g20">
              <path
                 d="m 140.941,131.255 c -9.969,0 -18.05,8.098 -18.05,18.086 0,9.987 8.082,18.085 18.05,18.085 9.968,0 18.05,-8.098 18.05,-18.085 0,-9.988 -8.081,-18.086 -18.05,-18.086 z m 90.25,0 c -9.969,0 -18.05,8.098 -18.05,18.086 0,9.987 8.082,18.085 18.05,18.085 9.968,0 18.05,-8.098 18.05,-18.085 0,-9.988 -8.081,-18.086 -18.05,-18.086 z m 43.001,94.682 c -7.916,0 -14.334,6.43 -14.334,14.361 0,7.931 6.418,14.361 14.334,14.361 7.917,0 14.334,-6.43 14.334,-14.361 0,-7.931 -6.417,-14.361 -14.334,-14.361 z m 73.262,0 c -7.916,0 -14.334,6.43 -14.334,14.361 0,7.931 6.418,14.361 14.334,14.361 7.917,0 14.334,-6.43 14.334,-14.361 0,-7.931 -6.417,-14.361 -14.334,-14.361 z"
                 id="path22"
                 inkscape:connector-curvature="0"
                 style="clip-rule:evenodd;fill:#284043;fill-rule:evenodd" />
            </g>
          </g>
        </g>
      </g>
    </g>
    <g
       transform="matrix(0.20689082,0,0,0.20689082,2.2440723,854.60629)"
       id="#000000ff">
      <path
         style="opacity:1;fill:#000000"
         inkscape:connector-curvature="0"
         d="m 109.99,109.99 c 58.34,0.01 116.68,0.01 175.02,0 -0.01,58.34 -0.01,116.68 0,175.02 -58.34,-0.01 -116.68,-0.01 -175.02,0 0.01,-58.34 0.01,-116.68 0,-175.02 m 25,25 c 0.01,41.67 0.01,83.34 0,125.02 41.67,-0.01 83.34,-0.01 125.02,0 -0.01,-41.68 -0.01,-83.35 0,-125.02 -41.68,0.01 -83.35,0.01 -125.02,0 z"
         id="path6" />
      <path
         style="opacity:1;fill:#000000"
         inkscape:connector-curvature="0"
         d="m 359.99,110 c 8.33,0 16.67,0 25.01,0 0,8.34 0,16.68 0,25.02 -8.34,-0.03 -16.67,-0.07 -25,-0.02 0,-8.34 0.02,-16.67 -0.01,-25 z"
         id="path8" />
      <path
         style="opacity:1;fill:#000000"
         inkscape:connector-curvature="0"
         d="m 535,109.99 c 33.33,0.01 66.66,0.01 100,0 -0.01,8.33 -0.01,16.66 0,24.99 -8.34,0.01 -16.67,0.02 -25,0.04 -0.01,8.32 -0.01,16.64 0,24.96 8.33,0.01 16.67,0.02 25.01,0.04 -0.03,16.65 -0.03,33.31 0,49.96 -8.34,0.01 -16.68,0.02 -25.01,0.04 -0.01,8.32 -0.01,16.64 0,24.96 8.33,0.01 16.67,0.02 25.01,0.04 -0.08,24.99 0.05,49.98 -0.02,74.97 16.67,0.01 33.34,0 50.01,0.02 0,16.66 -0.01,33.32 0.01,49.98 -8.35,0.01 -16.68,0.02 -25.01,0.02 -0.01,8.32 -0.01,16.65 0,24.99 8.32,-0.01 16.65,-0.01 24.99,0 -0.01,-8.34 0,-16.67 0.02,-25.01 16.65,-0.01 33.32,0.02 49.98,0.01 0,8.32 0.01,16.66 0.02,24.99 8.31,0 16.65,0.01 24.98,0.01 0.02,16.66 0.02,33.32 0,49.99 8.33,-0.01 16.68,0.01 25.02,0.01 -0.02,8.33 -0.01,16.67 -0.01,25.01 -16.67,-0.02 -33.33,0 -49.99,-0.02 -0.03,-16.67 -0.04,-33.35 0,-50.02 -16.67,0.07 -33.34,0.07 -50,0 0,16.66 -0.03,33.33 -0.02,50 -8.34,0.01 -16.67,0.03 -24.99,0.06 0,8.33 0,16.67 0,25.01 16.65,-0.09 33.31,-0.09 49.97,0 0.01,-8.35 0.03,-16.69 0.06,-25.02 8.31,-0.02 16.65,-0.02 24.98,-0.03 -0.01,8.33 0,16.66 -0.01,24.99 8.33,0.01 16.66,0.03 25,0.05 -0.02,8.31 -0.02,16.63 0,24.96 -16.66,-0.01 -33.32,0.02 -49.97,0.02 -0.03,8.31 -0.05,16.63 -0.06,24.96 -8.34,0.01 -16.66,0.03 -24.97,0.06 0,8.32 0,16.65 0,24.98 24.99,-0.07 49.99,0.04 75,-0.01 -0.01,16.66 -0.02,33.32 0,49.99 -8.35,0 -16.68,0.01 -25.01,0.03 0.02,16.65 0.02,33.3 0,49.96 8.32,0 16.67,0.02 25.01,0.02 -0.03,8.32 -0.02,16.66 0.01,24.99 -8.35,0 -16.68,0.01 -25.01,0.02 -0.01,8.32 -0.01,16.64 0,24.97 8.32,0.01 16.66,0.01 25,0.04 -0.01,8.31 -0.01,16.63 0,24.96 -8.34,0.01 -16.68,0.01 -25,0.04 -0.01,8.31 -0.01,16.63 0,24.96 8.32,0.01 16.66,0.01 25,0.04 -0.01,8.31 -0.01,16.64 0,24.98 -25,0 -50,0 -74.99,0 -0.02,-16.68 -0.01,-33.35 -0.02,-50.01 -16.66,0.02 -33.32,0.02 -49.98,0 -0.01,8.32 -0.01,16.66 -0.01,25 -8.34,0 -16.67,0.01 -25,0.02 0,8.32 -0.01,16.65 0,24.99 8.32,-0.02 16.65,-0.02 24.99,0 -0.01,-8.35 0,-16.67 0.01,-25.01 8.32,0 16.66,0.01 24.99,0.01 0.01,16.66 0.01,33.34 0.02,50.01 24.99,-0.08 49.99,0.05 74.99,-0.02 -0.01,8.33 -0.01,16.66 0,25.02 -41.66,-0.01 -83.32,-0.01 -124.98,0 -0.02,-8.35 -0.03,-16.67 -0.04,-24.99 -8.33,-0.03 -16.66,-0.04 -24.98,-0.04 -0.01,-24.99 -0.01,-49.98 0,-74.96 8.33,-0.03 16.67,-0.03 25.01,-0.04 -0.03,-16.66 -0.03,-33.31 0,-49.96 -8.34,-0.02 -16.67,-0.03 -24.99,-0.04 -0.02,-8.34 -0.03,-16.67 -0.04,-24.99 -24.99,0.07 -49.99,-0.06 -74.98,0.02 -0.01,-8.34 -0.01,-16.68 0,-25.01 33.33,0.01 66.65,-0.02 99.98,0 0.01,-8.34 0.02,-16.68 0.04,-25.01 24.99,0.07 49.98,-0.06 74.98,0.02 -0.01,-8.34 -0.01,-16.67 0,-24.99 -8.34,-0.02 -16.67,-0.03 -24.99,-0.04 -0.02,-16.66 -0.01,-33.32 -0.02,-49.98 -8.33,-0.01 -16.66,-0.01 -24.97,0 -0.02,8.33 -0.03,16.66 -0.04,25 -8.33,-0.01 -16.65,-0.01 -24.96,0 -0.02,-8.34 -0.03,-16.67 -0.04,-24.99 -8.34,-0.01 -16.66,-0.02 -24.99,-0.01 0,-8.33 0.01,-16.66 0.02,-24.98 8.31,-0.03 16.63,-0.04 24.96,-0.05 0.01,-8.32 0.03,-16.63 0.06,-24.94 8.32,-0.03 16.64,-0.05 24.97,-0.06 -0.01,-8.32 -0.01,-16.63 0,-24.94 -8.33,-0.03 -16.65,-0.05 -24.97,-0.06 -0.03,-8.33 -0.05,-16.64 -0.06,-24.96 C 601.64,435 593.33,435 585.01,435 c -0.02,-8.34 -0.02,-16.67 -0.02,-25 -8.34,0 -16.67,0 -24.99,0 0,8.32 0,16.65 0,24.99 8.32,-0.01 16.67,0.01 25.01,0.01 -0.02,8.33 -0.02,16.66 -0.02,25 -24.99,0.01 -49.98,-0.01 -74.98,0 -0.01,-8.34 -0.02,-16.67 -0.01,-25 8.33,-0.01 16.67,-0.01 25.01,-0.01 -0.03,-16.66 -0.03,-33.32 -0.01,-49.98 8.33,-0.02 16.66,-0.02 25,-0.02 -0.01,-8.33 -0.01,-16.66 0,-24.99 -8.34,0 -16.67,0 -24.99,0 -0.02,8.33 0,16.67 -0.01,25.01 -8.34,-0.02 -16.66,-0.02 -24.98,-0.02 -0.03,-8.33 -0.04,-16.66 -0.05,-24.99 -24.99,0 -49.98,0 -74.97,0 0,8.32 0,16.64 0,24.97 8.32,0.02 16.64,0.04 24.97,0.06 0.01,8.32 0.03,16.64 0.06,24.96 16.65,-0.01 33.3,0.02 49.96,0.02 -0.01,8.32 0.01,16.66 0.01,24.99 -8.34,-0.01 -16.67,0 -25,0.01 0.01,33.33 -0.02,66.66 0,99.99 -16.67,-0.02 -33.34,0.03 -50.01,0 0.02,16.66 0.02,33.32 0,49.99 16.67,0.01 33.33,0 50.01,0.02 0,24.99 0,49.98 0,74.97 -8.34,0.01 -16.67,0.02 -25,0.04 -0.01,24.99 -0.01,49.99 0,74.99 16.66,-0.03 33.33,-0.03 50,0 -0.01,-8.34 -0.01,-16.67 0,-24.99 -8.34,-0.03 -16.67,-0.03 -25,-0.04 -0.01,-8.33 -0.01,-16.66 0,-24.98 25,-0.01 50.01,-0.01 75.01,0 -0.03,16.66 -0.03,33.32 0,49.98 -8.34,0.01 -16.68,0.01 -25.01,0.04 -0.01,8.31 -0.01,16.63 0,24.96 8.33,0.01 16.67,0.01 25.01,0.04 -0.03,16.66 -0.03,33.32 0,49.99 -8.34,-0.03 -16.67,-0.03 -25,0 -0.02,-8.35 -0.02,-16.68 -0.02,-25.01 -8.34,-0.01 -16.66,0.01 -24.99,0 -0.01,-8.36 -0.01,-16.69 -0.01,-25.03 -16.67,0.06 -33.33,0.06 -49.99,0 0,8.34 0,16.69 0,25.05 16.66,-0.04 33.33,-0.05 50,-0.02 -0.01,8.32 0,16.65 0.01,24.99 8.32,-0.01 16.66,0.01 25,0.02 -0.02,8.31 -0.02,16.65 -0.01,24.99 -25,0.01 -49.99,-0.01 -74.98,0 -0.02,-8.35 -0.03,-16.68 -0.04,-25 -8.33,-0.01 -16.65,-0.01 -24.96,0 -0.02,8.32 -0.03,16.65 -0.04,25 -24.99,0 -49.99,0 -74.98,0 -0.01,-8.34 -0.01,-16.67 0,-24.99 16.66,-0.02 33.33,-0.01 50,-0.02 0,-8.33 0,-16.66 0,-24.97 -8.34,-0.03 -16.68,-0.03 -25.01,-0.04 0.02,-16.66 0.03,-33.31 0,-49.96 8.32,-0.03 16.66,-0.03 24.99,-0.04 0,-8.34 0.03,-16.65 0.03,-24.97 8.32,-0.02 16.66,-0.02 24.99,-0.02 0.01,-33.33 -0.01,-66.65 0.01,-99.98 -8.34,-0.01 -16.67,-0.02 -25,-0.01 -0.01,-8.34 -0.02,-16.67 -0.02,-25 -8.34,0 -16.67,0 -24.99,0 0,8.32 0,16.65 0,24.99 8.33,-0.01 16.67,0.01 25.01,0.01 -0.03,16.67 -0.02,33.35 -0.01,50.03 -16.67,-0.07 -33.34,-0.07 -50,0 0,-33.33 0,-66.67 0,-100 8.32,-0.03 16.64,-0.05 24.97,-0.06 0.01,-8.32 0.04,-16.63 0.06,-24.94 8.32,-0.03 16.63,-0.05 24.96,-0.06 -0.01,-8.33 0.01,-16.64 0.02,-24.96 8.32,-0.02 16.65,-0.02 24.97,-0.02 0.01,-8.33 0.03,-16.64 0.05,-24.96 8.33,-0.03 16.67,-0.05 25.01,-0.06 -0.09,-16.65 -0.09,-33.3 0,-49.94 -8.34,-0.03 -16.68,-0.05 -25.01,-0.06 -0.02,-8.33 -0.05,-16.64 -0.06,-24.96 C 426.64,410 418.33,410 410.01,410 c -0.01,-8.34 -0.02,-16.67 -0.02,-25 -8.34,0 -16.67,0 -24.99,0 0,8.32 0,16.65 0,24.99 8.33,-0.01 16.67,0.01 25.01,0.01 -0.03,16.67 -0.02,33.34 -0.01,50.01 -16.67,-0.03 -33.33,-0.03 -50,-0.01 -0.02,-16.67 -0.01,-33.34 0,-50 -8.33,0 -16.65,0 -24.97,0 -0.02,8.32 -0.05,16.64 -0.06,24.97 -8.32,0.01 -16.63,0.04 -24.94,0.06 -0.02,8.32 -0.04,16.63 -0.06,24.96 -8.33,-0.01 -16.64,0 -24.96,0.01 -0.02,-8.33 -0.02,-16.66 -0.02,-24.98 -8.33,-0.02 -16.66,-0.04 -24.99,-0.05 0.01,-8.33 0.02,-16.65 0,-24.97 16.66,0.02 33.33,-0.03 50,0 0.01,-25 0,-50 0,-75.01 -33.33,0.02 -66.66,0 -99.99,0.01 -0.01,-8.34 0,-16.67 -0.01,-25 33.33,0.01 66.66,-0.01 99.99,0 0.01,-16.67 0,-33.33 0.02,-50 8.33,0 16.66,0 25,0 -0.07,24.99 0.05,49.99 -0.02,74.98 8.33,0.01 16.67,0.02 25.02,0.04 -0.02,8.32 -0.03,16.65 0,24.98 -8.35,0 -16.68,0.01 -25.01,0.01 0,8.32 0,16.65 0,24.99 8.32,-0.01 16.65,-0.01 24.98,0 0.01,-8.34 0.02,-16.67 0.03,-25 8.32,0 16.65,-0.01 24.98,0 0,-8.34 0.01,-16.66 0.02,-24.98 8.32,-0.02 16.65,-0.03 24.98,-0.04 -0.01,-8.33 0.01,-16.65 0.01,-24.97 8.33,-0.02 16.66,-0.02 24.99,-0.02 -0.01,-8.33 0.01,-16.66 0.01,-24.98 8.33,-0.02 16.66,-0.02 25,-0.02 -0.01,-8.33 -0.01,-16.66 0,-24.99 -8.33,0 -16.66,0 -24.99,0 -0.01,8.33 -0.01,16.67 -0.01,25.01 -8.34,-0.01 -16.67,-0.02 -24.99,-0.01 -0.02,-8.34 -0.02,-16.67 -0.02,-25 -8.33,0 -16.65,0 -24.97,0 -0.02,8.33 -0.02,16.67 -0.03,25 -8.34,-0.01 -16.66,-0.01 -24.99,0 -0.02,-16.67 0.01,-33.33 0,-50 16.67,0.04 33.34,-0.04 50.01,0 -0.08,-16.67 0.05,-33.33 -0.01,-50 16.66,0.04 33.33,-0.04 50,0 -0.01,-8.33 -0.01,-16.66 0,-24.98 -8.34,-0.02 -16.67,-0.03 -25,-0.04 -0.01,-8.33 -0.01,-16.65 0,-24.98 24.99,-0.01 49.99,0 74.98,0 0.01,8.33 0.02,16.65 0.04,24.98 8.32,0.01 16.65,0.02 24.99,0.04 0,16.66 -0.04,33.32 -0.01,49.98 -8.35,0 -16.68,0.01 -25.01,0.01 0.01,16.66 0.02,33.32 0,49.98 -8.34,0.01 -16.66,0.01 -24.99,0.02 0,8.32 0,16.65 0,24.98 8.32,0 16.67,0.01 25.01,0.01 -0.02,8.33 -0.02,16.66 -0.02,24.99 -16.67,0 -33.33,0.02 -49.99,0.02 0,8.32 0,16.65 0,24.99 25,0 50,0 75.01,0 -0.02,-16.67 -0.04,-33.33 0,-49.99 8.33,-0.02 16.68,-0.02 25.02,-0.02 -0.07,-16.65 -0.07,-33.31 0,-49.96 -8.34,-0.02 -16.68,-0.04 -25.02,-0.06 -0.01,-8.33 0,-16.65 -0.01,-24.97 8.32,0 16.66,-0.01 24.99,0 0,-8.33 0.01,-16.66 0.03,-24.98 8.32,-0.02 16.64,-0.03 24.98,-0.04 -0.01,-8.32 -0.01,-16.64 0,-24.96 -8.34,-0.02 -16.66,-0.03 -24.98,-0.04 -0.02,-8.32 -0.03,-16.64 -0.04,-24.96 -8.33,-0.02 -16.66,-0.03 -24.98,-0.04 -0.01,-8.33 -0.01,-16.66 0,-24.99 m -100,100 c -0.01,8.34 -0.01,16.68 0,25.02 16.66,-0.03 33.33,-0.03 50,0 0,-8.34 0,-16.68 0,-25.02 -16.67,0.03 -33.34,0.03 -50,0 M 585,260 c -0.01,16.67 0.01,33.33 0,50 8.34,-0.05 16.66,-0.01 25.01,0.02 -0.03,-16.67 -0.03,-33.35 0,-50.02 -8.34,0 -16.68,0 -25.01,0 m -25,49.98 c -0.01,8.34 -0.01,16.68 0,25.02 8.33,-0.01 16.66,-0.01 25,-0.01 -0.03,-8.33 -0.02,-16.66 0,-24.99 -8.34,0.05 -16.68,0 -25,-0.02 m 25,25.01 c 0.03,16.68 -0.04,33.35 0,50.02 16.67,-0.03 33.34,-0.03 50.01,0 -0.03,-16.67 -0.03,-33.34 0,-50.01 -16.67,-0.01 -33.34,0.01 -50.01,-0.01 M 635,410 c -0.01,8.33 -0.01,16.66 0,25 8.33,0 16.66,0 25,0 -0.01,-8.34 -0.01,-16.67 0,-25 -8.34,-0.01 -16.67,-0.01 -25,0 m 0,225 c -0.01,25 -0.01,50 0,75 25,0 50,0 75,0 0,-25 0,-50 0,-75 -25,-0.01 -50,-0.01 -75,0 z"
         id="path10" />
      <path
         style="opacity:1;fill:#000000"
         inkscape:connector-curvature="0"
         d="m 659.99,109.99 c 58.34,0.01 116.68,0.01 175.02,0 -0.01,58.34 -0.01,116.68 0,175.02 -58.34,-0.01 -116.68,-0.01 -175.02,0 0.01,-58.34 0.01,-116.68 0,-175.02 m 25,25 c 0.01,41.67 0.01,83.34 0,125.02 41.67,-0.01 83.34,-0.01 125.02,0 -0.01,-41.68 -0.01,-83.35 0,-125.02 -41.68,0.01 -83.35,0.01 -125.02,0 z"
         id="path12-7" />
      <path
         style="opacity:1;fill:#000000"
         inkscape:connector-curvature="0"
         d="m 334.99,134.98 c 8.33,0.03 16.67,0.07 25.01,0.02 -0.02,8.34 -0.02,16.68 0.01,25.02 -8.34,-0.03 -16.67,-0.07 -25,-0.02 0,-8.34 0.01,-16.68 -0.02,-25.02 z"
         id="path14" />
      <path
         style="opacity:1;fill:#000000"
         inkscape:connector-curvature="0"
         d="m 160,160 c 25,0 50,0 75,0 0,25 0,50 0,75 -25,0 -50,0 -75,0 0,-25 0,-50 0,-75 z"
         id="path16" />
      <path
         style="opacity:1;fill:#000000"
         inkscape:connector-curvature="0"
         d="m 310,159.98 c 8.33,0.02 16.67,0.07 25.01,0.02 -0.04,8.33 -0.06,16.67 -0.01,25 -8.34,-0.01 -16.67,-0.02 -25,0.01 0,-8.35 -0.01,-16.69 0,-25.03 z"
         id="path18" />
      <path
         style="opacity:1;fill:#000000"
         inkscape:connector-curvature="0"
         d="m 385,160 c 8.33,0 16.67,0 25.02,0 -0.03,8.33 -0.06,16.67 -0.02,25 -8.34,-0.01 -16.67,-0.01 -25,0 0,-8.33 -0.01,-16.67 0,-25 z"
         id="path20" />
      <path
         style="opacity:1;fill:#000000"
         inkscape:connector-curvature="0"
         d="m 710,160 c 25,0 50,0 75,0 0,25 0,50 0,75 -25,0 -50,0 -75,0 -0.01,-25 -0.01,-50 0,-75 z"
         id="path22-7" />
      <path
         style="opacity:1;fill:#000000"
         inkscape:connector-curvature="0"
         d="m 335,185 c 8.33,0.01 16.67,0.02 25,-0.01 0.01,16.67 -0.02,33.34 0,50.01 -8.34,-0.02 -16.67,-0.01 -25,0 -0.04,-16.67 0.04,-33.33 0,-50 z"
         id="path24" />
      <path
         style="opacity:1;fill:#000000"
         inkscape:connector-curvature="0"
         d="m 509.99,259.99 c 8.33,0.01 16.66,0.01 25,0.02 0,8.33 0,16.66 0.02,25 -8.34,-0.01 -16.67,-0.01 -25,-0.01 -0.01,-8.34 -0.03,-16.68 -0.02,-25.01 z"
         id="path26" />
      <path
         style="opacity:1;fill:#000000"
         inkscape:connector-curvature="0"
         d="m 384.99,285 c 8.34,0 16.67,0 25.02,0 -0.01,8.33 -0.01,16.67 -0.01,25.01 -8.34,-0.01 -16.67,-0.02 -25.01,-0.01 0.01,-8.34 0.03,-16.67 0,-25 z"
         id="path28" />
      <path
         style="opacity:1;fill:#000000"
         inkscape:connector-curvature="0"
         d="m 110,310 c 25,-0.01 50,0 75.01,0 -0.02,8.33 -0.03,16.66 0,24.99 -8.34,0 -16.68,0.01 -25.01,0.02 0,8.32 0,16.66 0,24.99 8.32,-0.01 16.65,-0.01 24.98,0 0.01,-8.34 0.02,-16.67 0.03,-25.01 8.33,0.01 16.66,0.04 25,0.01 -0.03,16.66 -0.01,33.33 -0.01,50 -25,0 -50,0 -75,0 0.04,-16.67 -0.04,-33.33 0,-49.99 -8.33,-0.01 -16.67,-0.02 -25,-0.03 0,-8.33 0,-16.65 0,-24.98 z"
         id="path30" />
      <path
         style="opacity:1;fill:#000000"
         inkscape:connector-curvature="0"
         d="m 759.99,310 c 8.33,0 16.66,-0.01 25.01,0 -0.01,8.34 -0.01,16.68 0,25.02 -8.35,-0.03 -16.67,-0.07 -25,-0.02 0,-8.34 0.01,-16.67 -0.01,-25 z"
         id="path32" />
      <path
         style="opacity:1;fill:#000000"
         inkscape:connector-curvature="0"
         d="m 735,334.98 c 8.32,0.02 16.67,0.07 25,0.02 -0.04,8.33 -0.05,16.67 0.01,25 -8.36,-0.01 -16.68,-0.01 -25.02,0 -0.01,-8.35 0.02,-16.68 0.01,-25.02 z"
         id="path34" />
      <path
         style="opacity:1;fill:#000000"
         inkscape:connector-curvature="0"
         d="m 810.02,335 c 8.32,-0.01 16.65,-0.01 24.99,0 -0.03,16.66 -0.03,33.32 0,49.98 -8.34,0.01 -16.68,0.02 -25.01,0.04 -0.01,8.31 -0.01,16.64 0,24.96 8.32,0.01 16.65,0.02 25,0.04 0,24.98 0,49.97 0,74.96 -8.35,0.01 -16.68,0.02 -25,0.04 -0.01,8.31 -0.01,16.63 0,24.96 8.32,0.01 16.65,0.02 25,0.04 0,24.98 0,49.97 0,74.96 -8.34,0.01 -16.67,0.02 -24.98,0.04 -0.03,8.32 -0.04,16.64 -0.04,24.98 -8.34,-0.01 -16.67,-0.01 -24.99,0 0,-16.67 0.03,-33.33 0.01,-49.99 8.32,-0.02 16.66,-0.02 25,-0.02 -0.01,-8.33 -0.01,-16.66 0,-24.98 -8.35,-0.01 -16.67,-0.01 -25,-0.02 0,-25 0,-49.99 0,-74.98 8.32,-0.02 16.66,-0.02 25,-0.02 -0.01,-8.33 -0.01,-16.66 0,-24.98 C 801.66,435 793.34,435 785.01,435 c -0.03,-16.67 -0.03,-33.33 0,-49.99 C 776.65,385 768.32,385 759.99,385 c 0,-8.34 0.01,-16.67 0.02,-25 16.65,0.02 33.31,-0.03 49.98,0 0,-8.34 0,-16.67 0.03,-25 z"
         id="path36" />
      <path
         style="opacity:1;fill:#000000"
         inkscape:connector-curvature="0"
         d="m 259.99,360 c 8.33,0 16.67,-0.01 25.01,0 0,8.34 0,16.68 0,25.02 -8.34,-0.03 -16.66,-0.07 -24.99,-0.02 0.01,-8.34 0.01,-16.67 -0.02,-25 z"
         id="path38" />
      <path
         style="opacity:1;fill:#000000"
         inkscape:connector-curvature="0"
         d="m 110,384.98 c 8.33,0.02 16.67,0.06 25,0.02 -0.01,8.33 -0.01,16.66 0,25 -8.33,-0.01 -16.67,0 -25,0 0,-8.34 0,-16.68 0,-25.02 z"
         id="path40" />
      <path
         style="opacity:1;fill:#000000"
         inkscape:connector-curvature="0"
         d="m 234.99,384.98 c 8.34,0.02 16.68,0.07 25.02,0.02 -0.05,8.33 -0.06,16.66 -0.01,25 -8.34,-0.01 -16.66,-0.01 -24.99,0 -0.01,-8.35 0,-16.68 -0.02,-25.02 z"
         id="path42" />
      <path
         style="opacity:1;fill:#000000"
         inkscape:connector-curvature="0"
         d="m 159.99,410 c 25.01,-0.01 50.01,0 75.02,0 -0.02,8.32 -0.02,16.65 -0.02,24.98 -8.33,0.01 -16.65,0.03 -24.98,0.05 0,8.32 -0.01,16.65 -0.02,24.97 -8.33,-0.01 -16.65,-0.01 -24.97,-0.01 -0.02,-8.33 -0.04,-16.65 -0.05,-24.97 C 176.65,435 168.33,435 160,434.99 c 0.01,-8.34 0.02,-16.66 -0.01,-24.99 z"
         id="path44" />
      <path
         style="opacity:1;fill:#000000"
         inkscape:connector-curvature="0"
         d="m 135,434.99 c 8.33,0.01 16.67,0.03 25,0 -0.01,8.33 -0.01,16.66 -0.01,25.01 -8.33,-0.01 -16.67,-0.02 -25,0 0.01,-8.34 0.02,-16.67 0.01,-25.01 z"
         id="path46" />
      <path
         style="opacity:1;fill:#000000"
         inkscape:connector-curvature="0"
         d="m 110,459.99 c 8.33,0 16.66,0.03 24.99,0.01 0.02,8.33 0.01,16.65 0.02,24.99 16.66,-0.01 33.31,0.02 49.96,0.02 0.02,8.32 0.04,16.65 0.06,24.98 16.65,-0.01 33.31,0.01 49.96,0.02 0,8.33 0.01,16.65 0.02,24.99 -25,-0.05 -50,0.05 -75,0 -0.01,8.32 -0.01,16.66 -0.01,25 -8.34,-0.02 -16.66,-0.01 -24.99,0 0,-8.34 -0.02,-16.66 -0.02,-24.99 -8.33,-0.02 -16.66,-0.02 -24.99,-0.03 0,-25 0,-49.99 0,-74.99 z"
         id="path48" />
      <path
         style="opacity:1;fill:#000000"
         inkscape:connector-curvature="0"
         d="m 209.99,460 c 25.01,0 50.01,0 75.02,0 -0.01,8.33 -0.03,16.66 -0.02,25 -25,-0.01 -49.99,0.01 -74.98,0 -0.01,-8.33 -0.01,-16.67 -0.02,-25 z"
         id="path50" />
      <path
         style="opacity:1;fill:#000000"
         inkscape:connector-curvature="0"
         d="m 335,460 c 8.33,0 16.66,0 25,0 0.01,8.33 -0.01,16.66 -0.01,25 -8.33,-0.01 -16.67,-0.01 -24.99,-0.01 0,-8.34 0,-16.66 0,-24.99 z"
         id="path52" />
      <path
         style="opacity:1;fill:#000000"
         inkscape:connector-curvature="0"
         d="m 359.99,485 c 16.67,0.02 33.33,0.01 50,-0.01 0,8.34 0,16.67 0.02,25.02 -16.67,-0.03 -33.34,-0.01 -50,-0.01 -0.01,-8.34 -0.01,-16.68 -0.02,-25 z"
         id="path54" />
      <path
         style="opacity:1;fill:#000000"
         inkscape:connector-curvature="0"
         d="m 535.01,485 c 8.33,0 16.66,0 24.99,0 -0.01,8.32 -0.01,16.65 0,24.99 -8.34,0 -16.68,0 -25.01,0.01 0.01,-8.34 0.01,-16.68 0.02,-25 z"
         id="path56" />
      <path
         style="opacity:1;fill:#000000"
         inkscape:connector-curvature="0"
         d="m 260.01,510 c 8.33,0 16.65,0 24.98,0 0,8.33 0.01,16.66 0.02,25 -8.35,-0.01 -16.68,-0.01 -25.02,0 0.01,-8.34 0.02,-16.68 0.02,-25 z"
         id="path58" />
      <path
         style="opacity:1;fill:#000000"
         inkscape:connector-curvature="0"
         d="m 310.01,510 c 8.33,0 16.66,0 24.99,0 -0.01,8.32 -0.01,16.65 0,24.99 -8.34,0 -16.67,0 -25,0.02 0,-8.34 0,-16.69 0.01,-25.01 z"
         id="path60" />
      <path
         style="opacity:1;fill:#000000"
         inkscape:connector-curvature="0"
         d="m 510.02,510.01 c 8.32,-0.01 16.64,-0.02 24.97,-0.01 0,8.33 0,16.66 0.02,25.01 16.66,-0.03 33.32,-0.03 49.98,-0.01 -0.01,8.32 -0.01,16.66 0.02,24.99 -8.35,0 -16.68,0.01 -25.01,0.02 -0.01,8.32 -0.01,16.64 0,24.97 8.33,0.01 16.66,0.02 25,0.04 -0.01,8.32 -0.01,16.65 0,24.99 -16.67,-0.03 -33.33,-0.03 -49.99,0 -0.02,-16.67 -0.01,-33.34 -0.02,-50 -16.67,-0.02 -33.34,-0.01 -50,-0.02 0.01,-8.34 0.03,-16.66 0.01,-24.99 8.32,-0.01 16.64,-0.02 24.97,-0.01 0.01,-8.34 0.02,-16.66 0.05,-24.98 z"
         id="path62" />
      <path
         style="opacity:1;fill:#000000"
         inkscape:connector-curvature="0"
         d="m 235.01,535 c 8.33,0 16.65,-0.01 24.98,0 0.01,8.32 0.01,16.66 0.02,24.99 8.32,0 16.66,0.01 24.99,0.01 0,8.32 -0.01,16.64 -0.02,24.97 -8.33,0.01 -16.66,0.03 -24.98,0.06 0,8.31 0,16.63 0,24.96 16.66,-0.01 33.33,0.01 49.99,0.02 0,8.32 0,16.65 0.01,24.99 -33.33,0 -66.66,-0.01 -99.99,0 -0.01,-8.33 -0.02,-16.66 -0.03,-24.98 C 201.65,610 193.33,609.99 185,610 c -0.01,-8.35 0.01,-16.67 0,-24.99 16.67,-0.03 33.33,-0.03 50,0 -0.01,-16.67 -0.02,-33.34 0.01,-50.01 z"
         id="path64" />
      <path
         style="opacity:1;fill:#000000"
         inkscape:connector-curvature="0"
         d="m 285.01,535 c 8.32,-0.01 16.65,-0.01 24.99,0.01 0,8.32 -0.01,16.65 -0.01,24.99 -8.33,0 -16.66,-0.01 -24.99,0 0,-8.33 0,-16.67 0.01,-25 z"
         id="path66" />
      <path
         style="opacity:1;fill:#000000"
         inkscape:connector-curvature="0"
         d="m 760,535.01 c 8.33,-0.01 16.65,-0.02 25,-0.02 -0.01,8.33 -0.01,16.68 0,25.02 -8.35,-0.03 -16.67,-0.04 -25,-0.01 0,-8.33 -0.01,-16.67 0,-24.99 z"
         id="path68" />
      <path
         style="opacity:1;fill:#000000"
         inkscape:connector-curvature="0"
         d="m 110,559.99 c 8.33,0 16.67,0.04 25.01,0.01 -0.02,8.32 -0.02,16.66 -0.02,25 -8.33,-0.02 -16.66,-0.02 -24.99,0.01 0,-8.35 0,-16.69 0,-25.02 z"
         id="path70" />
      <path
         style="opacity:1;fill:#000000"
         inkscape:connector-curvature="0"
         d="m 160,560 c 8.33,0 16.66,-0.01 24.99,0.01 0.01,8.33 0,16.65 0.01,25 -8.33,-0.01 -16.67,-0.02 -25,-0.01 0,-8.34 0,-16.68 0,-25 z"
         id="path72" />
      <path
         style="opacity:1;fill:#000000"
         inkscape:connector-curvature="0"
         d="m 309.99,560 c 8.34,0 16.67,0 25.01,0.01 -0.01,8.33 -0.01,16.65 0,24.99 -8.33,-0.01 -16.67,-0.01 -24.99,0 -0.01,-8.34 -0.01,-16.68 -0.02,-25 z"
         id="path74" />
      <path
         style="opacity:1;fill:#000000"
         inkscape:connector-curvature="0"
         d="m 134.99,585 c 8.34,0 16.67,-0.01 25.01,0 -0.01,8.32 -0.01,16.67 0,25.01 -8.34,-0.05 -16.67,-0.07 -25,-0.01 0.02,-8.34 0.04,-16.67 -0.01,-25 z"
         id="path76" />
      <path
         style="opacity:1;fill:#000000"
         inkscape:connector-curvature="0"
         d="m 110,609.98 c 8.33,0.01 16.66,0.07 25,0.02 -0.02,8.32 -0.02,16.66 0.01,25 -8.34,-0.01 -16.67,-0.01 -25.01,0 0,-8.35 0,-16.69 0,-25.02 z"
         id="path78" />
      <path
         style="opacity:1;fill:#000000"
         inkscape:connector-curvature="0"
         d="m 160,610.01 c 8.33,0 16.66,-0.01 25,-0.01 -0.01,8.32 -0.01,16.66 0,25 -8.34,-0.01 -16.67,-0.01 -25.01,0 0.01,-8.34 0.04,-16.67 0.01,-24.99 z"
         id="path80" />
      <path
         style="opacity:1;fill:#000000"
         inkscape:connector-curvature="0"
         d="m 310,635 c 8.33,0 16.65,-0.01 24.99,0.01 -0.01,16.67 0.02,33.33 0.02,50.01 24.99,-0.11 49.99,0.06 74.98,-0.03 0,8.33 0,16.67 0.02,25.02 -25,-0.05 -50,0.02 -75,-0.02 -0.01,8.33 -0.02,16.66 -0.03,25.01 -8.33,-0.01 -16.66,-0.01 -24.99,0 C 310,701.66 310,668.33 310,635 Z"
         id="path82" />
      <path
         style="opacity:1;fill:#000000"
         inkscape:connector-curvature="0"
         d="m 759.99,635 c 25,-0.01 50,0 75.01,0 0,25 0,50 0,75 -8.34,-0.01 -16.67,-0.01 -24.98,0 -0.03,-8.34 -0.04,-16.66 -0.04,-24.98 -8.33,-0.02 -16.65,-0.03 -24.96,-0.04 -0.03,-8.33 -0.04,-16.65 -0.04,-24.96 C 776.64,660 768.32,659.99 760,660 c 0,-8.34 0.02,-16.67 -0.01,-25 z"
         id="path84" />
      <path
         style="opacity:1;fill:#000000"
         inkscape:connector-curvature="0"
         d="m 109.99,659.99 c 58.34,0.01 116.68,0.01 175.02,0 -0.01,58.34 -0.01,116.68 0,175.02 -58.34,-0.01 -116.68,-0.01 -175.02,0 0.01,-58.34 0.01,-116.68 0,-175.02 m 25,25 c 0.01,41.67 0.01,83.34 0,125.02 41.67,-0.01 83.34,-0.01 125.02,0 -0.01,-41.68 -0.01,-83.35 0,-125.02 -41.68,0.01 -83.35,0.01 -125.02,0 z"
         id="path86" />
      <path
         style="opacity:1;fill:#000000"
         inkscape:connector-curvature="0"
         d="m 660,660 c 8.33,-0.01 16.66,-0.01 25,0 -0.01,8.33 -0.01,16.66 0,25 -8.34,-0.01 -16.67,-0.01 -25,0 -0.01,-8.34 -0.01,-16.67 0,-25 z"
         id="path88" />
      <path
         style="opacity:1;fill:#000000"
         inkscape:connector-curvature="0"
         d="m 160,710 c 25,-0.01 50,-0.01 75,0 0,25 0,50 0,75 -25,0 -50,0 -75,0 0,-25 0,-50 0,-75 z"
         id="path90" />
      <path
         style="opacity:1;fill:#000000"
         inkscape:connector-curvature="0"
         d="m 785,734.99 c 16.67,0.02 33.34,0.02 50.01,0 -0.03,16.67 -0.03,33.35 0,50.03 -8.35,-0.04 -16.68,-0.08 -25.01,-0.02 -0.01,-8.34 -0.03,-16.67 0,-24.99 -8.35,-0.02 -16.68,-0.03 -25,-0.02 -0.01,-8.35 -0.01,-16.68 0,-25 z"
         id="path92" />
      <path
         style="opacity:1;fill:#000000"
         inkscape:connector-curvature="0"
         d="m 310,759.99 c 16.67,0.02 33.33,0.02 50,0 0,8.32 0,16.65 0,24.99 -8.34,0.01 -16.67,0.01 -24.99,0.04 -0.02,16.65 -0.01,33.31 -0.02,49.98 -8.33,-0.01 -16.66,-0.01 -24.99,0 -0.01,-25.01 0,-50.01 0,-75.01 z"
         id="path94" />
      <path
         style="opacity:1;fill:#000000"
         inkscape:connector-curvature="0"
         d="m 784.99,784.98 c 8.32,0.01 16.67,0.07 25.01,0.02 -0.02,8.32 0.01,16.65 0,24.99 8.32,0 16.66,0 25,0.02 -0.01,8.33 -0.01,16.66 0,25 -16.68,-0.03 -33.35,-0.03 -50.01,0 0.02,-16.68 0.02,-33.36 0,-50.03 z"
         id="path96" />
    </g>
  </g>
</svg>
