<?xml version="1.0" encoding="UTF-8" standalone="no"?>
<svg
   xmlns:dc="http://purl.org/dc/elements/1.1/"
   xmlns:cc="http://creativecommons.org/ns#"
   xmlns:rdf="http://www.w3.org/1999/02/22-rdf-syntax-ns#"
   xmlns:svg="http://www.w3.org/2000/svg"
   xmlns="http://www.w3.org/2000/svg"
   xmlns:sodipodi="http://sodipodi.sourceforge.net/DTD/sodipodi-0.dtd"
   xmlns:inkscape="http://www.inkscape.org/namespaces/inkscape"
   width="400pt"
   height="400pt"
   viewBox="0 0 400 400"
   version="1.1"
   id="svg2"
   inkscape:version="0.91 r13725"
   sodipodi:docname="1.svg">
  <metadata
     id="metadata20">
    <rdf:RDF>
      <cc:Work
         rdf:about="">
        <dc:format>image/svg+xml</dc:format>
        <dc:type
           rdf:resource="http://purl.org/dc/dcmitype/StillImage" />
        <dc:title></dc:title>
      </cc:Work>
    </rdf:RDF>
  </metadata>
  <defs
     id="defs18" />
  <sodipodi:namedview
     pagecolor="#ffffff"
     bordercolor="#666666"
     borderopacity="1"
     objecttolerance="10"
     gridtolerance="10"
     guidetolerance="10"
     inkscape:pageopacity="0"
     inkscape:pageshadow="2"
     inkscape:window-width="1366"
     inkscape:window-height="705"
     id="namedview16"
     showgrid="true"
     showguides="false"
     inkscape:zoom="0.6675088"
     inkscape:cx="289.0938"
     inkscape:cy="294.28526"
     inkscape:window-x="-8"
     inkscape:window-y="-8"
     inkscape:window-maximized="1"
     inkscape:current-layer="svg2">
    <inkscape:grid
       type="xygrid"
       id="grid4150" />
  </sodipodi:namedview>
  <g
     id="#ffffffff">
    <path
       fill="#ffffff"
       opacity="1.00"
       d=" M 243.05 170.88 C 245.39 170.28 248.13 168.65 250.15 170.82 C 263.98 181.97 277.65 193.33 291.47 204.50 C 293.33 206.04 295.34 207.45 296.91 209.30 C 297.86 212.76 297.24 216.45 297.38 220.00 C 297.01 232.99 298.51 246.01 297.14 258.98 C 295.02 279.16 287.69 299.05 274.99 315.01 C 260.27 334.19 237.88 347.66 213.74 350.42 C 202.50 351.18 191.01 351.11 180.12 347.84 C 152.88 340.44 130.51 319.41 119.08 293.89 C 115.06 284.59 112.09 274.82 110.49 264.81 C 108.84 254.29 109.24 243.61 109.19 233.00 C 109.22 226.48 109.10 219.95 109.28 213.43 C 120.16 210.66 130.60 206.48 141.35 203.27 C 175.30 192.63 209.11 181.55 243.05 170.88 M 125.80 221.99 C 125.83 223.38 125.86 224.77 125.90 226.17 C 132.92 226.33 139.96 226.23 146.99 226.24 C 145.30 229.26 143.23 232.38 143.50 236.00 C 143.33 241.96 148.30 247.31 154.17 247.86 C 160.61 248.80 167.08 243.50 167.49 237.01 C 168.10 233.05 165.91 229.50 164.01 226.23 C 170.43 226.25 176.86 226.31 183.29 226.17 C 183.32 224.78 183.35 223.38 183.38 221.99 C 164.18 221.96 144.99 221.96 125.80 221.99 M 223.62 221.99 C 223.64 223.38 223.67 224.78 223.71 226.18 C 229.81 226.31 235.91 226.25 242.02 226.25 C 240.38 229.00 238.39 231.79 238.27 235.12 C 237.92 240.21 241.29 245.09 245.92 247.03 C 252.53 250.05 261.12 245.80 262.60 238.66 C 263.88 234.14 261.78 229.74 259.15 226.17 C 266.47 226.29 273.79 226.33 281.11 226.15 C 281.14 224.77 281.17 223.39 281.21 222.02 C 262.01 221.93 242.81 221.98 223.62 221.99 M 172.94 297.92 C 172.69 299.70 172.43 301.48 172.18 303.26 C 175.02 303.76 177.93 303.98 180.79 303.49 C 185.78 302.28 189.52 306.88 194.09 308.05 C 205.10 312.66 216.58 307.41 226.96 303.65 C 226.54 301.77 226.09 299.90 225.62 298.04 C 218.39 299.95 211.62 303.78 204.02 304.12 C 198.27 304.30 192.96 301.54 188.34 298.39 C 189.77 296.62 191.18 294.84 192.58 293.05 C 191.10 291.83 189.61 290.62 188.12 289.43 C 184.51 294.24 179.25 298.19 172.94 297.92 Z"
       id="path5" />
  </g>
  <circle
     style="opacity:1;fill:#eeeeee;fill-opacity:1;stroke:none;stroke-width:1;stroke-miterlimit:4;stroke-dasharray:none;stroke-opacity:1"
     id="path4154"
     cx="200"
     cy="200"
     r="200" />
  <g
     id="#000000ff"
     style="fill-opacity:1;fill:#3a4750">
    <path
       d=" M 194.54 58.35 C 209.31 57.66 224.11 58.07 238.89 58.08 C 242.69 65.34 246.10 72.80 249.90 80.05 C 250.46 81.54 251.99 82.06 253.42 82.35 C 270.68 86.11 287.37 94.44 299.05 107.94 C 307.34 117.70 313.19 129.45 316.40 141.82 C 323.44 165.87 321.79 191.20 321.99 215.94 C 318.88 218.57 315.80 221.22 312.80 223.96 C 319.74 229.66 321.76 239.34 319.75 247.81 C 317.83 256.70 311.94 266.12 302.29 267.69 C 298.53 288.47 289.44 308.48 275.21 324.20 C 262.52 338.52 245.63 349.30 227.01 353.94 C 204.66 360.01 180.21 356.87 159.73 346.25 C 130.12 330.77 109.96 300.09 104.72 267.41 C 100.10 266.95 95.68 264.91 92.88 261.11 C 86.70 253.24 84.07 241.74 88.43 232.42 C 89.79 229.15 93.00 227.43 96.06 226.06 C 91.94 222.81 88.04 219.31 84.02 215.94 C 84.13 202.06 83.58 188.14 84.61 174.28 C 86.01 160.72 88.66 147.19 93.48 134.40 C 100.52 116.14 111.43 99.19 126.15 86.17 C 144.82 69.30 169.48 59.65 194.54 58.35 M 243.05 170.88 C 209.11 181.55 175.30 192.63 141.35 203.27 C 130.60 206.48 120.16 210.66 109.28 213.43 C 109.10 219.95 109.22 226.48 109.19 233.00 C 109.24 243.61 108.84 254.29 110.49 264.81 C 112.09 274.82 115.06 284.59 119.08 293.89 C 130.51 319.41 152.88 340.44 180.12 347.84 C 191.01 351.11 202.50 351.18 213.74 350.42 C 237.88 347.66 260.27 334.19 274.99 315.01 C 287.69 299.05 295.02 279.16 297.14 258.98 C 298.51 246.01 297.01 232.99 297.38 220.00 C 297.24 216.45 297.86 212.76 296.91 209.30 C 295.34 207.45 293.33 206.04 291.47 204.50 C 277.65 193.33 263.98 181.97 250.15 170.82 C 248.13 168.65 245.39 170.28 243.05 170.88 Z"
       id="path8"
       fill="#000000"
       opacity="1.00"
       style="fill-opacity:1;fill:#3a4750" />
    <path
       d=" M 125.80 221.99 C 144.99 221.96 164.18 221.96 183.38 221.99 C 183.35 223.38 183.32 224.78 183.29 226.17 C 176.86 226.31 170.43 226.25 164.01 226.23 C 165.91 229.50 168.10 233.05 167.49 237.01 C 167.08 243.50 160.61 248.80 154.17 247.86 C 148.30 247.31 143.33 241.96 143.50 236.00 C 143.23 232.38 145.30 229.26 146.99 226.24 C 139.96 226.23 132.92 226.33 125.90 226.17 C 125.86 224.77 125.83 223.38 125.80 221.99 Z"
       id="path10"
       fill="#000000"
       opacity="1.00"
       style="fill-opacity:1;fill:#3a4750" />
    <path
       d=" M 223.62 221.99 C 242.81 221.98 262.01 221.93 281.21 222.02 C 281.17 223.39 281.14 224.77 281.11 226.15 C 273.79 226.33 266.47 226.29 259.15 226.17 C 261.78 229.74 263.88 234.14 262.60 238.66 C 261.12 245.80 252.53 250.05 245.92 247.03 C 241.29 245.09 237.92 240.21 238.27 235.12 C 238.39 231.79 240.38 229.00 242.02 226.25 C 235.91 226.25 229.81 226.31 223.71 226.18 C 223.67 224.78 223.64 223.38 223.62 221.99 Z"
       id="path12"
       fill="#000000"
       opacity="1.00"
       style="fill-opacity:1;fill:#3a4750" />
    <path
       d=" M 172.94 297.92 C 179.25 298.19 184.51 294.24 188.12 289.43 C 189.61 290.62 191.10 291.83 192.58 293.05 C 191.18 294.84 189.77 296.62 188.34 298.39 C 192.96 301.54 198.27 304.30 204.02 304.12 C 211.62 303.78 218.39 299.95 225.62 298.04 C 226.09 299.90 226.54 301.77 226.96 303.65 C 216.58 307.41 205.10 312.66 194.09 308.05 C 189.52 306.88 185.78 302.28 180.79 303.49 C 177.93 303.98 175.02 303.76 172.18 303.26 C 172.43 301.48 172.69 299.70 172.94 297.92 Z"
       id="path14"
       fill="#000000"
       opacity="1.00"
       style="fill-opacity:1;fill:#3a4750" />
  </g>
</svg>
