<?xml version="1.0" encoding="UTF-8" standalone="no"?>
<!-- Created with Inkscape (http://www.inkscape.org/) -->

<svg
   xmlns:dc="http://purl.org/dc/elements/1.1/"
   xmlns:cc="http://creativecommons.org/ns#"
   xmlns:rdf="http://www.w3.org/1999/02/22-rdf-syntax-ns#"
   xmlns:svg="http://www.w3.org/2000/svg"
   xmlns="http://www.w3.org/2000/svg"
   xmlns:xlink="http://www.w3.org/1999/xlink"
   xmlns:sodipodi="http://sodipodi.sourceforge.net/DTD/sodipodi-0.dtd"
   xmlns:inkscape="http://www.inkscape.org/namespaces/inkscape"
   version="1.1"
   width="302.08685"
   height="314.46661"
   id="svg2"
   inkscape:version="0.48.1 r9760"
   sodipodi:docname="gullSolid.svg">
  <sodipodi:namedview
     pagecolor="#ffffff"
     bordercolor="#666666"
     borderopacity="1"
     objecttolerance="10"
     gridtolerance="10"
     guidetolerance="10"
     inkscape:pageopacity="0"
     inkscape:pageshadow="2"
     inkscape:window-width="1366"
     inkscape:window-height="748"
     id="namedview3063"
     showgrid="false"
     inkscape:zoom="1.7596591"
     inkscape:cx="151.04343"
     inkscape:cy="157.23331"
     inkscape:window-x="-2"
     inkscape:window-y="-3"
     inkscape:window-maximized="1"
     inkscape:current-layer="svg2" />
  <defs
     id="defs4">
    <linearGradient
       id="linearGradient7927">
      <stop
         id="stop7929"
         style="stop-color:#696969;stop-opacity:1"
         offset="0" />
      <stop
         id="stop7931"
         style="stop-color:#696969;stop-opacity:0"
         offset="1" />
    </linearGradient>
    <linearGradient
       id="linearGradient7907">
      <stop
         id="stop7909"
         style="stop-color:#e6f3fa;stop-opacity:1"
         offset="0" />
      <stop
         id="stop7911"
         style="stop-color:#e6f3fa;stop-opacity:0"
         offset="1" />
    </linearGradient>
    <linearGradient
       id="linearGradient7895">
      <stop
         id="stop7897"
         style="stop-color:#7eb2ec;stop-opacity:1"
         offset="0" />
      <stop
         id="stop7899"
         style="stop-color:#2065ac;stop-opacity:1"
         offset="1" />
    </linearGradient>
    <linearGradient
       x1="102.13333"
       y1="10.927078"
       x2="103.10371"
       y2="91.927078"
       id="linearGradient7913"
       xlink:href="#linearGradient7907"
       gradientUnits="userSpaceOnUse" />
    <radialGradient
       cx="94.249657"
       cy="152.48552"
       r="65"
       fx="94.249657"
       fy="152.48552"
       id="radialGradient7933"
       xlink:href="#linearGradient7927"
       gradientUnits="userSpaceOnUse"
       gradientTransform="matrix(0.7548551,-7.7757466e-4,1.1391408e-4,0.11058653,23.199159,173.31196)" />
    <filter
       x="0"
       y="0"
       width="1"
       height="1"
       color-interpolation-filters="sRGB"
       id="filter3016">
      <feMorphology
         result="result0"
         in="SourceGraphic"
         radius="4"
         id="feMorphology3018" />
      <feGaussianBlur
         result="result91"
         stdDeviation="8"
         in="result0"
         id="feGaussianBlur3020" />
      <feComposite
         in2="result91"
         operator="in"
         in="SourceGraphic"
         id="feComposite3022" />
    </filter>
    <radialGradient
       inkscape:collect="always"
       xlink:href="#linearGradient7927"
       id="radialGradient3068"
       gradientUnits="userSpaceOnUse"
       gradientTransform="matrix(1.2368068,-0.00127403,1.8664471e-4,0.18119262,38.722047,270.85856)"
       cx="94.249657"
       cy="152.48552"
       fx="94.249657"
       fy="152.48552"
       r="65" />
  </defs>
  <metadata
     id="metadata7">
    <rdf:RDF>
      <cc:Work
         rdf:about="">
        <dc:format>image/svg+xml</dc:format>
        <dc:type
           rdf:resource="http://purl.org/dc/dcmitype/StillImage" />
        <dc:title />
      </cc:Work>
    </rdf:RDF>
  </metadata>
  <path
     inkscape:connector-curvature="0"
     style="opacity:0.53211012;color:#000000;fill:url(#radialGradient3068);fill-opacity:1;fill-rule:nonzero;marker:none;visibility:visible;display:inline;overflow:visible;enable-background:accumulate"
     id="path7915"
     d="m 264.50448,293.98575 a 106.5005,20.480865 0 0 1 -213.000995,0 106.5005,20.480865 0 1 1 213.000995,0 z" />
  <path
     inkscape:connector-curvature="0"
     style="opacity:0.53211012;color:#000000;fill:#ffffff;fill-opacity:1;fill-rule:evenodd;marker:none;visibility:visible;display:inline;overflow:visible;enable-background:accumulate"
     id="path3024"
     d="m 301.43392,150.24201 a 150.36149,150.00603 0 0 1 -300.72298,0 150.36149,150.00603 0 1 1 300.72298,0 z" />
  <path
     inkscape:connector-curvature="0"
     style="color:#000000;fill:#4a87c8;fill-opacity:1;fill-rule:nonzero;stroke:none;stroke-width:2.5;marker:none;visibility:visible;display:inline;overflow:visible;enable-background:accumulate"
     id="OOoLogo"
     d="M 151.39891,0 C 68.18096,0 0.71094,67.47001 0.71094,150.68796 c 0,11.10611 1.20127,21.93758 3.48175,32.35977 0.13834,-0.17951 0.29002,-0.37156 0.46082,-0.51202 21.03881,-10.70864 56.62589,-18.78782 104.55482,0.97284 38.6378,-26.8534 92.35362,-34.62728 140.14032,-16.17988 1.84924,1.20271 2.92424,3.31147 -0.20481,4.40338 -4.68706,-0.34621 -8.50464,-0.59542 -13.46617,-0.61442 -48.85096,0 -92.73203,17.97646 -119.35224,54.37669 -0.94704,1.33183 -2.3746,3.24558 -4.35219,1.99689 -0.0655,-0.0606 -0.14254,-0.10618 -0.2048,-0.15353 -26.2106,-24.65404 -61.19765,-34.25595 -100.04903,-33.89583 -0.3658,0.003 -4.86421,0 -4.86421,0 18.42744,62.4009 76.17329,107.93416 144.54371,107.93416 83.21795,0 150.68796,-67.47002 150.68796,-150.68796 C 302.08687,67.47001 234.61686,0 151.39891,0 z m 87.45329,80.18259 c 13.17805,-0.15105 26.60887,2.46311 39.16966,8.08994 1.09518,0.79752 1.6984,2.14538 -0.25601,2.71371 -2.86338,-0.36416 -5.20124,-0.64711 -8.24355,-0.81923 -29.96048,-1.58194 -57.45497,7.9789 -74.95997,29.44124 -0.62396,0.78614 -1.59249,1.9563 -2.76492,1.12645 -0.0383,-0.0393 -0.0659,-0.0713 -0.1024,-0.10241 -15.27668,-15.96917 -36.31265,-22.80031 -60.26494,-24.06501 -9.00975,-0.47571 -17.77695,0.423 -26.11311,2.4577 -1.8962,0.26956 -2.9053,-1.0324 -0.97284,-2.4577 25.43198,-14.90837 58.44222,-16.5899 87.19728,-2.91853 13.81853,-8.56017 30.36761,-13.27196 47.3108,-13.46616 z" />
</svg>
