<?xml version="1.0" encoding="iso-8859-1"?>
<!-- Generator: Adobe Illustrator 19.1.0, SVG Export Plug-In . SVG Version: 6.00 Build 0)  -->
<svg version="1.1" id="Capa_1" xmlns="http://www.w3.org/2000/svg" xmlns:xlink="http://www.w3.org/1999/xlink" x="0px" y="0px"
	 viewBox="0 0 319.43 319.43" style="enable-background:new 0 0 319.43 319.43;" xml:space="preserve">
<g>
	<path style="fill:#FFFFFF;" d="M124.791,183.432c0-4.507,3.668-8.173,8.174-8.173h75.665c-0.094-4.427-3.716-8-8.165-8h-81.5
		c-4.506,0-8.174,3.666-8.174,8.173v43.885c0,4.507,3.668,8.173,8.174,8.173h5.835c-0.001-0.058-0.009-0.114-0.009-0.173V183.432z"
		/>
	<path style="fill:#FFFFFF;" d="M109.375,297.523c-22.424-21.704-35.283-53.794-35.283-88.041c0-44.716,22.25-85.427,56.682-103.716
		c2.451-1.302,3.982-3.85,3.982-6.624v-5.925c0-5.908,3.742-10.9,8.172-10.9h51.431c-0.98-4.553-4.177-8-7.856-8h-53.574
		c-4.43,0-8.172,4.992-8.172,10.9v5.925c0,2.774-1.531,5.322-3.982,6.624c-34.432,18.289-56.682,59-56.682,103.716
		c0,34.247,12.859,66.337,35.283,88.041c2.188,2.119,2.877,5.352,1.744,8.18c-0.287,0.718-0.434,1.486-0.434,2.282
		c0,2.713,1.584,4.444,2.674,4.444h8.131C112.004,301.945,111.24,299.33,109.375,297.523z"/>
	<rect x="147.393" y="38.835" style="fill:#FFFFFF;" width="10.5" height="20.482"/>
	<path style="fill:#FFFFFF;" d="M88.677,23.694c13.869-4.59,28.914-5.557,41.816-5.891h72.448C202.48,16.13,201.362,15,200.33,15
		h-77.721c-12.902,0.334-27.947,1.301-41.816,5.891c-1.688,0.56-4.662,2.445-3.467,6.376c1.299,4.267,5.555,2.613,6.016,2.467
		c0.561-0.181,1.116-0.354,1.672-0.527C84.471,25.862,87.118,24.211,88.677,23.694z"/>
	<path style="fill:#FFA6BB;" d="M198.656,97.766c-2.451-1.302-3.982-3.85-3.982-6.624v-5.924c0-1.001-0.115-1.972-0.315-2.9h-51.431
		c-4.43,0-8.172,4.992-8.172,10.9v5.925c0,2.774-1.531,5.322-3.982,6.624c-34.432,18.289-56.682,59-56.682,103.716
		c0,34.247,12.859,66.337,35.283,88.041c1.865,1.807,2.629,4.422,2.115,6.906h104.713c1.09,0,2.674-1.731,2.674-4.444
		c0-0.812-0.15-1.592-0.449-2.319c-1.162-2.835-0.482-6.093,1.717-8.226c22.365-21.706,35.193-53.765,35.193-87.957
		C255.338,156.766,233.09,116.055,198.656,97.766z M200.465,242.489h-81.5c-12.777,0-23.174-10.396-23.174-23.173v-43.885
		c0-12.777,10.396-23.173,23.174-23.173h81.5c12.779,0,23.174,10.395,23.174,23.173v43.885
		C223.639,232.094,213.244,242.489,200.465,242.489z"/>
	<path style="fill:#BA82AA;" d="M208.639,219.316v-43.885c0-0.059-0.008-0.115-0.009-0.173l0,0h-75.665
		c-4.506,0-8.174,3.666-8.174,8.173v43.885c0,0.059,0.008,0.115,0.009,0.173h75.665
		C204.973,227.489,208.639,223.823,208.639,219.316z"/>
	<path style="fill:#7F3960;" d="M200.465,152.259h-81.5c-12.777,0-23.174,10.395-23.174,23.173v43.885
		c0,12.777,10.396,23.173,23.174,23.173h81.5c12.779,0,23.174-10.396,23.174-23.173v-43.885
		C223.639,162.654,213.244,152.259,200.465,152.259z M118.965,227.489c-4.506,0-8.174-3.666-8.174-8.173v-43.885
		c0-4.507,3.668-8.173,8.174-8.173h81.5c4.449,0,8.072,3.573,8.165,8c0.001,0.058,0.009,0.114,0.009,0.173v43.885
		c0,4.507-3.666,8.173-8.174,8.173H124.8H118.965z"/>
	<path style="fill:#BA82AA;" d="M130.493,17.804c-12.902,0.334-27.947,1.301-41.816,5.891c-1.559,0.517-4.206,2.168-3.663,5.512l0,0
		c10.94-3.406,21.117-5.371,38.512-5.371h76.805c1.338,0,2.834-1.89,2.834-4.418c0-0.578-0.086-1.117-0.223-1.613l0,0H130.493z"/>
	<path style="fill:none;" d="M203.164,19.417c0-0.578-0.086-1.117-0.223-1.613C202.48,16.13,201.362,15,200.33,15h-77.721
		c-12.902,0.334-27.947,1.301-41.816,5.891c-1.688,0.56-4.662,2.445-3.467,6.376c1.299,4.267,5.555,2.613,6.016,2.467
		c0.561-0.181,1.116-0.354,1.672-0.527c10.94-3.406,21.117-5.371,38.512-5.371h76.805C201.668,23.835,203.164,21.945,203.164,19.417
		z"/>
	<rect x="157.893" y="38.835" style="fill:#BA82AA;" width="14.145" height="20.482"/>
	<polygon style="fill:none;" points="147.393,59.317 157.893,59.317 172.037,59.317 172.037,38.835 157.893,38.835 147.393,38.835 	
		"/>
	<path style="fill:none;" d="M203.164,19.417c0-0.578-0.086-1.117-0.223-1.613C202.48,16.13,201.362,15,200.33,15h-77.721
		c-12.902,0.334-27.947,1.301-41.816,5.891c-1.688,0.56-4.662,2.445-3.467,6.376c1.299,4.267,5.555,2.613,6.016,2.467
		c0.561-0.181,1.116-0.354,1.672-0.527c10.94-3.406,21.117-5.371,38.512-5.371h76.805C201.668,23.835,203.164,21.945,203.164,19.417
		z"/>
	<path style="fill:#7F3960;" d="M270.338,201.482c0-48.476-23.67-92.958-60.664-114.736v-1.528
		c0-14.081-10.105-25.565-22.637-25.885V38.835h13.293c9.834,0,17.834-8.711,17.834-19.418S210.164,0,200.33,0h-77.818
		c-0.064,0-0.129,0.001-0.193,0.003c-14.02,0.36-30.477,1.432-46.244,6.649c-5.527,1.834-9.854,5.498-12.184,10.317
		c-2.311,4.778-2.543,10.26-0.656,15.435c2.693,7.389,10.365,12.55,18.656,12.55c2.047,0,4.064-0.312,6.02-0.934
		c10.453-3.363,19.225-5.186,35.615-5.186h8.867v20.498c-12.529,0.319-22.637,11.804-22.637,25.885v1.529
		c-36.994,21.778-60.664,66.261-60.664,114.735c0,36.709,13.352,71.331,36.773,95.729c-0.119,0.915-0.18,1.84-0.18,2.774
		c0,10.722,7.928,19.444,17.674,19.444h112.844c9.746,0,17.674-8.723,17.674-19.444c0-0.976-0.064-1.941-0.195-2.895
		C257.031,272.697,270.338,238.12,270.338,201.482z M123.525,23.835c-17.395,0-27.571,1.965-38.512,5.371
		c-0.556,0.174-1.111,0.347-1.672,0.527c-0.461,0.146-4.717,1.8-6.016-2.467c-1.195-3.931,1.779-5.816,3.467-6.376
		c13.869-4.59,28.914-5.557,41.816-5.891h77.721c1.032,0,2.15,1.13,2.611,2.804c0.137,0.496,0.223,1.035,0.223,1.613
		c0,2.528-1.496,4.418-2.834,4.418H123.525z M172.037,38.835v20.482h-14.145h-10.5V38.835h10.5H172.037z M100.686,299.985
		c0-0.796,0.146-1.565,0.434-2.282c1.133-2.828,0.443-6.06-1.744-8.18c-22.424-21.704-35.283-53.794-35.283-88.041
		c0-44.716,22.25-85.427,56.682-103.716c2.451-1.302,3.982-3.85,3.982-6.624v-5.925c0-5.908,3.742-10.9,8.172-10.9h53.574
		c3.68,0,6.876,3.447,7.856,8c0.2,0.929,0.315,1.899,0.315,2.9v5.924c0,2.774,1.531,5.322,3.982,6.624
		c34.434,18.289,56.682,59,56.682,103.717c0,34.192-12.828,66.251-35.193,87.957c-2.199,2.134-2.879,5.392-1.717,8.226
		c0.299,0.728,0.449,1.508,0.449,2.319c0,2.713-1.584,4.444-2.674,4.444H111.49h-8.131
		C102.27,304.43,100.686,302.698,100.686,299.985z"/>
</g>
<g>
</g>
<g>
</g>
<g>
</g>
<g>
</g>
<g>
</g>
<g>
</g>
<g>
</g>
<g>
</g>
<g>
</g>
<g>
</g>
<g>
</g>
<g>
</g>
<g>
</g>
<g>
</g>
<g>
</g>
</svg>
