<?xml version="1.0" encoding="iso-8859-1"?>
<!-- Generator: Adobe Illustrator 19.0.0, SVG Export Plug-In . SVG Version: 6.00 Build 0)  -->
<svg version="1.1" id="Layer_1" xmlns="http://www.w3.org/2000/svg" xmlns:xlink="http://www.w3.org/1999/xlink" x="0px" y="0px"
	 viewBox="0 0 512.001 512.001" style="enable-background:new 0 0 512.001 512.001;" xml:space="preserve">
<polygon style="fill:#FF8081;" points="503.619,366.799 256,494.323 256,376.127 503.619,248.603 "/>
<polygon style="fill:#FFA6BB;" points="8.381,366.799 256,494.323 256,376.127 8.381,248.603 "/>
<polyline style="fill:#FCCFEF;" points="503.619,248.603 256,121.079 8.381,248.603 256,376.127 503.619,248.603 "/>
<path style="fill:#FFEDED;" d="M235.387,100.878c3.665,13.98,28.373,18.808,57.194,19.59v0.011
	c19.355,0.536,40.554-0.749,58.501-2.302c20.149-1.754,36.207,16.327,32.396,36.185c-11.365,59.094-61.329,115.986-61.329,115.986
	c-10.326,11.89-36.051,20.305-66.145,20.305c-30.106,0-55.83-8.415-66.156-20.305c-54.501-104.185-64.815-169.838-63.206-207.643
	c1.039-24.16,20.551-43.46,44.723-44.331c77.745-2.783,123.574,2.101,123.574,27.546C294.938,74.929,226.994,68.817,235.387,100.878
	z"/>
<path style="fill:#E6D5D5;" d="M294.938,45.919c0,0,2.548,44.711-2.358,74.549c-28.82-0.782-53.528-5.61-57.194-19.59
	C226.994,68.817,294.938,74.929,294.938,45.919z"/>
<path d="M511.849,247.109c-0.044-0.241-0.087-0.483-0.151-0.717c-0.039-0.143-0.094-0.281-0.14-0.421
	c-0.069-0.209-0.137-0.418-0.222-0.619c-0.06-0.145-0.134-0.283-0.203-0.424c-0.093-0.189-0.184-0.377-0.291-0.558
	c-0.082-0.139-0.173-0.27-0.262-0.405c-0.114-0.171-0.229-0.341-0.357-0.504c-0.101-0.13-0.209-0.251-0.317-0.375
	c-0.134-0.153-0.27-0.303-0.417-0.446c-0.12-0.117-0.244-0.229-0.371-0.339c-0.153-0.134-0.31-0.263-0.473-0.384
	c-0.136-0.103-0.275-0.199-0.418-0.294c-0.084-0.056-0.16-0.12-0.246-0.173c-0.094-0.057-0.193-0.098-0.289-0.152
	c-0.082-0.045-0.154-0.101-0.237-0.143l-121.744-62.7c2.481-7.379,4.535-14.915,5.995-22.511
	c2.333-12.139-1.063-24.352-9.317-33.506c-8.182-9.074-19.859-13.674-32.029-12.614c-19.369,1.683-35.223,2.38-48.211,2.396
	c3.189-29.031,1.284-64.413,1.155-66.697c-0.097-7.31-2.854-13.635-8.209-18.802c-15.228-14.69-50.005-19.376-124.034-16.718
	c-28.394,1.02-51.582,24.013-52.79,52.344c-0.429,10.043-0.001,20.945,1.271,32.405c0.511,4.601,4.657,7.915,9.254,7.406
	c4.601-0.511,7.916-4.654,7.406-9.254c-1.178-10.612-1.576-20.651-1.183-29.842c0.838-19.651,16.934-35.599,36.644-36.308
	c41.108-1.477,97.422-1.836,111.794,12.03c2.14,2.065,3.094,4.266,3.094,7.136c0,7.463-9.973,11.819-25.186,17.612
	c-8.811,3.356-17.923,6.826-24.621,12.096c-10.758,8.464-11.396,18.622-9.774,26.076c-0.355,9.993-2.274,77.578,8.62,128.418
	c0.843,3.935,4.319,6.627,8.187,6.627c0.582,0,1.172-0.061,1.765-0.188c4.526-0.97,7.409-5.425,6.439-9.951
	c-7.614-35.528-8.661-81.019-8.559-106.288c8.371,3.96,19.882,6.536,34.659,7.772c3.515,0.294,7.202,0.515,11.068,0.666
	c0.323,0.012,0.772,0.302,1.095,0.393c0.354,0.099,0.714,0.174,1.078,0.225c1.376,0.191,2.79,0.042,4.091-0.444
	c15.832,0.293,34.45-0.503,56.399-2.412c6.891-0.593,13.497,2.004,18.129,7.141c4.702,5.215,6.636,12.183,5.304,19.115
	c-1.798,9.352-4.638,18.685-8.118,27.748c-0.268,0.698-0.541,1.395-0.816,2.089c-0.383,0.966-0.772,1.927-1.168,2.885
	c-0.177,0.428-0.354,0.856-0.533,1.283c-14.74,35.007-37.984,64.96-45.977,74.726c-1.477,1.805-2.926,3.658-4.656,5.232
	c-6.989,6.364-16.452,9.474-25.458,11.713c-10.622,2.641-21.583,3.819-32.519,3.819c-12.293,0-24.831-1.483-36.65-4.929
	c-9.992-2.933-18.019-7.016-22.586-11.847c-14.695-28.174-28.083-57.098-38.99-86.961c-0.004-0.012-0.009-0.023-0.013-0.036
	c-5.937-16.252-10.744-31.786-14.395-46.535c-1.113-4.493-5.659-7.235-10.15-6.122c-4.493,1.112-7.234,5.657-6.122,10.149
	c2.898,11.709,6.516,23.892,10.793,36.49L4.544,241.154c-0.016,0.008-0.028,0.019-0.044,0.026c-0.312,0.163-0.611,0.345-0.898,0.545
	c-0.058,0.04-0.113,0.085-0.17,0.127c-0.225,0.165-0.441,0.341-0.648,0.527c-0.067,0.06-0.135,0.12-0.201,0.183
	c-0.242,0.234-0.475,0.477-0.688,0.739c-0.021,0.026-0.039,0.055-0.06,0.082c-0.193,0.242-0.371,0.496-0.536,0.759
	c-0.045,0.072-0.088,0.142-0.131,0.215c-0.156,0.265-0.301,0.538-0.427,0.821c-0.015,0.031-0.031,0.061-0.045,0.093
	c-0.139,0.32-0.256,0.649-0.354,0.988c-0.019,0.065-0.034,0.131-0.05,0.196c-0.073,0.273-0.131,0.551-0.175,0.834
	c-0.015,0.088-0.029,0.175-0.04,0.265C0.03,247.897,0,248.246,0,248.604V366.8c0,3.139,1.753,6.014,4.544,7.45l247.619,127.524
	c0.096,0.049,0.198,0.085,0.295,0.13c0.133,0.061,0.266,0.122,0.4,0.177c0.207,0.084,0.417,0.155,0.628,0.222
	c0.133,0.041,0.265,0.086,0.399,0.122c0.234,0.061,0.47,0.105,0.707,0.146c0.115,0.019,0.228,0.047,0.343,0.061
	c0.353,0.046,0.708,0.073,1.065,0.073c0.355,0,0.711-0.027,1.064-0.073c0.114-0.015,0.227-0.041,0.341-0.06
	c0.238-0.04,0.476-0.085,0.711-0.146c0.133-0.035,0.263-0.078,0.394-0.12c0.213-0.067,0.425-0.14,0.635-0.225
	c0.133-0.054,0.264-0.113,0.396-0.174c0.098-0.046,0.2-0.082,0.298-0.131l162.116-83.49c4.115-2.119,5.733-7.173,3.613-11.289
	c-2.119-4.115-7.172-5.733-11.289-3.614l-149.897,77.197v-99.342l121.889-62.774l108.967-56.118v99.341l-49.663,25.577
	c-4.115,2.119-5.733,7.173-3.613,11.289c2.119,4.115,7.171,5.734,11.289,3.613l54.207-27.916c2.79-1.437,4.544-4.312,4.544-7.45
	V248.604c0-0.379-0.028-0.754-0.078-1.124C511.905,247.355,511.871,247.234,511.849,247.109z M285.331,111.801
	c-36.462-2.016-41.22-10.703-41.833-13.041c-0.001-0.006-0.002-0.011-0.004-0.018c-0.002-0.009-0.004-0.018-0.007-0.027
	c-1.848-7.124,1.367-10.957,23.844-19.517c6.509-2.479,13.665-5.204,19.868-8.877C287.261,82.84,286.907,98.321,285.331,111.801z
	 M256,366.701l-150.652-77.586c-4.116-2.12-9.17-0.501-11.289,3.613c-2.119,4.116-0.501,9.169,3.614,11.289l149.946,77.222v99.342
	L16.763,361.69v-99.34l49.514,25.5c4.116,2.119,9.17,0.501,11.289-3.614c2.12-4.116,0.502-9.17-3.613-11.289l-47.265-24.341
	c0,0,116.863-60.184,116.866-60.187c-3.718,1.928,27.367,62.828,30.159,68.524c2.843,5.797,5.713,11.574,8.705,17.296
	c0.303,0.579,0.673,1.121,1.101,1.614c12.241,14.083,40.692,23.183,72.48,23.183c9.935,0,19.542-0.888,28.43-2.539
	c1.989-0.37,3.938-0.781,5.85-1.225c14.875-3.455,27.297-9.133,35.202-16.367c0.588-0.538,1.157-1.081,1.693-1.635
	c0.027-0.028,0.057-0.055,0.084-0.083c0.413-0.429,0.811-0.864,1.192-1.303c0.006-0.007,0.021-0.023,0.027-0.031
	c0.041-0.047,0.097-0.112,0.166-0.19c0.013-0.016,0.023-0.027,0.038-0.044c3.244-3.732,32.744-38.313,51.022-81.401l105.606,54.388
	L256,366.701z"/>
<g>
</g>
<g>
</g>
<g>
</g>
<g>
</g>
<g>
</g>
<g>
</g>
<g>
</g>
<g>
</g>
<g>
</g>
<g>
</g>
<g>
</g>
<g>
</g>
<g>
</g>
<g>
</g>
<g>
</g>
</svg>
