<svg xmlns="http://www.w3.org/2000/svg" height="130" width="1000" version="1.1" preserveAspectRatio="xMinYMin meet"><path d="m0,3.8125c-20.973,0-37.969,16.996-37.969,37.968,1.1888,302.07,1078.3,354.02,1076,0.375,0-20.973-17-37.968-38-37.968-8.75,0-16.8,2.9948-23.22,7.9685-11.79,0.406-22.61,4.272-31.25,10.5-2.33-0.272-4.68-0.437-7.09-0.437-16.54,0-31.44,6.612-41.94,17.187-9.76-9.338-23.56-15.187-38.88-15.187-17.22,0-32.55,7.395-42.34,18.843-2.99-0.416-6.07-0.656-9.19-0.656-4.96,0-9.76,0.563-14.37,1.594-9.62-8.516-22.27-13.719-36.13-13.719-11.21,0-21.64,3.413-30.31,9.219-5.14-14.748-19.46-25.375-36.34-25.375-16.33,0-30.27,9.943-35.82,23.937-5.8-8.35-15.66-13.843-26.84-13.843-10.67,0-20.11,5.024-26,12.75-4.99-14.392-19.95-24.844-37.62-24.844-16.35,0-30.38,8.933-36.35,21.656-6.75-5.926-15.59-9.562-25.28-9.562-1.48,0-2.93,0.117-4.37,0.281-7.47-5.165-17.7-8.344-28.97-8.344-16.34,0-30.45,6.688-37.19,16.406-1.38-0.154-2.8-0.25-4.22-0.25-10.61,0-20.21,4.416-27.16,11.563-5.92-7.032-15.07-11.563-25.37-11.563-16.18,0-29.57,11.141-31.94,25.688-3.66-0.93-7.52-1.438-11.5-1.438-8.4,0-16.25,2.217-22.9,6.063h-5.44c-6.91-12.053-20.11-20.219-35.28-20.219-8.27,0-15.97,2.436-22.38,6.594-6.37-10.071-17.05-16.688-29.15-16.688-9.41,0-17.95,3.998-24.28,10.5-8.67-6.546-19.95-10.5-32.29-10.5-15.72,0-29.71,6.439-38.78,16.469-2.85-0.202-5.73-0.312-8.69-0.312-12.674,0-24.55,1.933-34.745,5.281-9.409-9.134-22.174-15.308-36.488-16.938-2.94-18.009-17.434-31.869-35.156-32.718-0.0623-0.003-0.1252,0.0026-0.1876,0-1.489-0.1775-2.9944-0.2813-4.5312-0.2813z" stroke="#82745A" stroke-width="2" fill="none"/></svg>