<?xml version="1.0" encoding="UTF-8" standalone="no"?>
<!-- Generator: Adobe Illustrator 19.2.1, SVG Export Plug-In . SVG Version: 6.00 Build 0)  -->

<svg
   xmlns:dc="http://purl.org/dc/elements/1.1/"
   xmlns:cc="http://creativecommons.org/ns#"
   xmlns:rdf="http://www.w3.org/1999/02/22-rdf-syntax-ns#"
   xmlns:svg="http://www.w3.org/2000/svg"
   xmlns="http://www.w3.org/2000/svg"
   xmlns:xlink="http://www.w3.org/1999/xlink"
   xmlns:sodipodi="http://sodipodi.sourceforge.net/DTD/sodipodi-0.dtd"
   xmlns:inkscape="http://www.inkscape.org/namespaces/inkscape"
   version="1.1"
   id="Layer_1"
   x="0px"
   y="0px"
   viewBox="0 0 1500 1500"
   xml:space="preserve"
   sodipodi:docname="academicgrowth.svg"
   width="1500"
   height="1500"
   inkscape:version="0.92.3 (2405546, 2018-03-11)"><metadata
   id="metadata59"><rdf:RDF><cc:Work
       rdf:about=""><dc:format>image/svg+xml</dc:format><dc:type
         rdf:resource="http://purl.org/dc/dcmitype/StillImage" /><dc:title></dc:title></cc:Work></rdf:RDF></metadata><defs
   id="defs57" /><sodipodi:namedview
   pagecolor="#ffffff"
   bordercolor="#666666"
   borderopacity="1"
   objecttolerance="10"
   gridtolerance="10"
   guidetolerance="10"
   inkscape:pageopacity="0"
   inkscape:pageshadow="2"
   inkscape:window-width="1600"
   inkscape:window-height="837"
   id="namedview55"
   showgrid="false"
   fit-margin-top="0"
   fit-margin-left="0"
   fit-margin-right="0"
   fit-margin-bottom="0"
   inkscape:zoom="0.34940787"
   inkscape:cx="178.28705"
   inkscape:cy="695.78229"
   inkscape:window-x="-8"
   inkscape:window-y="-8"
   inkscape:window-maximized="1"
   inkscape:current-layer="Layer_1" />
<style
   type="text/css"
   id="style2">
	.st0{clip-path:url(#SVGID_2_);fill:#FFDB0B;}
	.st1{clip-path:url(#SVGID_2_);fill:#9F8AC0;}
	.st2{clip-path:url(#SVGID_2_);fill:none;stroke:#5D6883;stroke-width:2;stroke-linecap:round;}
	.st3{clip-path:url(#SVGID_2_);fill:#5D6883;}
	.st4{clip-path:url(#SVGID_2_);fill:#6D788E;}
	.st5{clip-path:url(#SVGID_2_);fill:none;stroke:#5D6883;stroke-width:2;stroke-linecap:round;stroke-linejoin:round;}
</style>
<g
   id="g52"
   transform="matrix(25.172696,0,0,25.172696,15.52194,-1.6700812)">
	<defs
   id="defs5">
		<rect
   id="SVGID_1_"
   y="0"
   width="58.299999"
   height="59.700001"
   x="0" />
	</defs>
	<clipPath
   id="SVGID_2_">
		<use
   xlink:href="#SVGID_1_"
   style="overflow:visible"
   id="use7"
   x="0"
   y="0"
   width="100%"
   height="100%" />
	</clipPath>
	<path
   class="st0"
   d="M 25.3,14.1 C 17,11 6.8,17.7 2.7,29 -1.4,40.3 2.1,51.9 10.4,55 18.9,58 29,51.3 33.1,40 37.2,28.7 33.7,17.1 25.3,14.1"
   clip-path="url(#SVGID_2_)"
   id="path10"
   inkscape:connector-curvature="0"
   style="fill:#ffdb0b" />
	<path
   class="st1"
   d="m 31.5,43.6 c 3.5,-5.1 2.3,-11 4.1,-10.4 8.4,3 9.8,-1.5 5.7,9.8 C 37.2,54.3 27.1,61 18.7,57.9 L 16.2,57 c -2.8,-1 4.5,-2.4 9,-5.5 z"
   clip-path="url(#SVGID_2_)"
   id="path12"
   inkscape:connector-curvature="0"
   style="fill:#9f8ac0" />
	<path
   class="st2"
   d="m 26.5,14.5 c 2,0.7 5.3,1.9 7.1,2.6 8.4,3 11.8,14.7 7.7,25.9 C 37.2,54.3 27.1,61 18.7,57.9 L 16.2,57 c -2.8,-1 -1.5,-0.6 -4.6,-1.7"
   clip-path="url(#SVGID_2_)"
   id="path14"
   inkscape:connector-curvature="0"
   style="fill:none;stroke:#5d6883;stroke-width:2;stroke-linecap:round" />
	<path
   class="st3"
   d="m 14.7,56.7 c -1.5,0 -3.1,-0.3 -4.5,-0.8 C 5.8,54.3 2.5,50.5 1,45.3 -0.5,40.2 -0.2,34.3 1.8,28.6 6.1,16.8 16.8,9.9 25.7,13.1 v 0 c 8.9,3.2 12.6,15.5 8.3,27.2 -3.5,9.9 -11.6,16.4 -19.3,16.4 z m 6.4,-42.4 c -6.9,0 -14.2,6 -17.4,15 -1.9,5.3 -2.2,10.7 -0.8,15.4 1.4,4.6 4.2,7.9 7.9,9.2 7.9,2.9 17.4,-3.6 21.3,-14.3 C 36.1,28.9 32.9,17.9 25,15 23.7,14.5 22.4,14.3 21.1,14.3 Z"
   clip-path="url(#SVGID_2_)"
   id="path16"
   inkscape:connector-curvature="0"
   style="fill:#5d6883" />
	<line
   class="st1"
   x1="23"
   y1="54.200001"
   x2="28.5"
   y2="57.200001"
   clip-path="url(#SVGID_2_)"
   id="line18"
   style="fill:#9f8ac0" />
	<line
   class="st2"
   x1="23"
   y1="54.200001"
   x2="28.5"
   y2="57.200001"
   clip-path="url(#SVGID_2_)"
   id="line20"
   style="fill:none;stroke:#5d6883;stroke-width:2;stroke-linecap:round" />
	<line
   class="st1"
   x1="28.5"
   y1="49.400002"
   x2="34.700001"
   y2="52.799999"
   clip-path="url(#SVGID_2_)"
   id="line22"
   style="fill:#9f8ac0" />
	<line
   class="st2"
   x1="28.5"
   y1="49.400002"
   x2="34.700001"
   y2="52.799999"
   clip-path="url(#SVGID_2_)"
   id="line24"
   style="fill:none;stroke:#5d6883;stroke-width:2;stroke-linecap:round" />
	<line
   class="st1"
   x1="31.700001"
   y1="44.599998"
   x2="37.900002"
   y2="48"
   clip-path="url(#SVGID_2_)"
   id="line26"
   style="fill:#9f8ac0" />
	<line
   class="st2"
   x1="31.700001"
   y1="44.599998"
   x2="37.900002"
   y2="48"
   clip-path="url(#SVGID_2_)"
   id="line28"
   style="fill:none;stroke:#5d6883;stroke-width:2;stroke-linecap:round" />
	<line
   class="st1"
   x1="34.5"
   y1="39.900002"
   x2="40.700001"
   y2="43.200001"
   clip-path="url(#SVGID_2_)"
   id="line30"
   style="fill:#9f8ac0" />
	<line
   class="st2"
   x1="34.5"
   y1="39.900002"
   x2="40.700001"
   y2="43.200001"
   clip-path="url(#SVGID_2_)"
   id="line32"
   style="fill:none;stroke:#5d6883;stroke-width:2;stroke-linecap:round" />
	<line
   class="st1"
   x1="35.400002"
   y1="34.900002"
   x2="42.299999"
   y2="38.599998"
   clip-path="url(#SVGID_2_)"
   id="line34"
   style="fill:#9f8ac0" />
	<line
   class="st2"
   x1="35.400002"
   y1="34.900002"
   x2="42.299999"
   y2="38.599998"
   clip-path="url(#SVGID_2_)"
   id="line36"
   style="fill:none;stroke:#5d6883;stroke-width:2;stroke-linecap:round" />
	<path
   class="st4"
   d="m 20.3,6.7 7.4,14.2 c 0.8,1.6 2.4,2.6 4.2,2.6 L 48.8,22.1 43,35.3 H 42.9 C 37.1,33.3 31,32.1 24.8,31.9 h -0.9 l -0.6,-1 C 20.4,25.7 16.6,21 12.3,16.9 12.2,16.8 12.1,16.7 12,16.6 Z"
   clip-path="url(#SVGID_2_)"
   id="path38"
   inkscape:connector-curvature="0"
   style="fill:#6d788e" />
	<path
   class="st5"
   d="m 20.3,6.7 7.4,14.2 c 0.8,1.6 2.4,2.6 4.2,2.6 L 48.8,22.1 43,35.3 H 42.9 C 37.1,33.3 31,32.1 24.8,31.9 h -0.9 l -0.6,-1 C 20.4,25.7 16.6,21 12.3,16.9 12.2,16.8 12.1,16.7 12,16.6 Z"
   clip-path="url(#SVGID_2_)"
   id="path40"
   inkscape:connector-curvature="0"
   style="fill:none;stroke:#5d6883;stroke-width:2;stroke-linecap:round;stroke-linejoin:round" />
	<path
   class="st4"
   d="M 26.8,25.3 12.8,4 C 11.7,2.4 12.7,0.8 14.7,1.1 l 24.8,3.4 c 0.7,0.1 1.4,0.4 1.9,0.9 0.3,0.2 0.5,0.5 0.7,0.8 l 14.5,20.5 c 1.1,1.6 0.2,3.2 -1.7,3 L 52.3,29.4 29.7,27 c -1.1,-0.1 -2.2,-0.8 -2.9,-1.7"
   clip-path="url(#SVGID_2_)"
   id="path42"
   inkscape:connector-curvature="0"
   style="fill:#6d788e" />
	<path
   class="st5"
   d="M 26.8,25.3 12.8,4 C 11.7,2.4 12.7,0.8 14.7,1.1 l 24.8,3.4 c 0.7,0.1 1.4,0.4 1.9,0.9 0.3,0.2 0.5,0.5 0.7,0.8 l 14.5,20.5 c 1.1,1.6 0.2,3.2 -1.7,3 L 52.3,29.4 29.7,27 c -1.1,-0.1 -2.2,-0.8 -2.9,-1.7 z"
   clip-path="url(#SVGID_2_)"
   id="path44"
   inkscape:connector-curvature="0"
   style="fill:none;stroke:#5d6883;stroke-width:2;stroke-linecap:round;stroke-linejoin:round" />
	<path
   class="st0"
   d="m 54.7,52 v 0 c 1.5,0 2.6,-1.2 2.6,-2.6 0,-1.5 -1.2,-2.6 -2.6,-2.6 -1.4,0 -2.7,1.1 -2.7,2.6 0,1.5 1.2,2.6 2.7,2.6"
   clip-path="url(#SVGID_2_)"
   id="path46"
   inkscape:connector-curvature="0"
   style="fill:#ffdb0b" />
	<path
   class="st5"
   d="m 54.7,52 v 0 c 1.5,0 2.6,-1.2 2.6,-2.6 0,-1.5 -1.2,-2.6 -2.6,-2.6 -1.4,0 -2.7,1.1 -2.7,2.6 0,1.5 1.2,2.6 2.7,2.6 z"
   clip-path="url(#SVGID_2_)"
   id="path48"
   inkscape:connector-curvature="0"
   style="fill:none;stroke:#5d6883;stroke-width:2;stroke-linecap:round;stroke-linejoin:round" />
	<polyline
   class="st5"
   points="37,15.3 54.7,29.5 54.7,46.8  "
   clip-path="url(#SVGID_2_)"
   id="polyline50"
   style="fill:none;stroke:#5d6883;stroke-width:2;stroke-linecap:round;stroke-linejoin:round" />
</g>
</svg>