<?xml version="1.0" encoding="UTF-8" standalone="no"?>
<svg
   xmlns:dc="http://purl.org/dc/elements/1.1/"
   xmlns:cc="http://creativecommons.org/ns#"
   xmlns:rdf="http://www.w3.org/1999/02/22-rdf-syntax-ns#"
   xmlns:svg="http://www.w3.org/2000/svg"
   xmlns="http://www.w3.org/2000/svg"
   xmlns:sodipodi="http://sodipodi.sourceforge.net/DTD/sodipodi-0.dtd"
   xmlns:inkscape="http://www.inkscape.org/namespaces/inkscape"
   height="32"
   version="1.1"
   viewBox="0 0 27.237763 32"
   width="27.237762"
   id="svg10"
   sodipodi:docname="androidorange.svg"
   inkscape:version="0.92.3 (2405546, 2018-03-11)">
  <metadata
     id="metadata14">
    <rdf:RDF>
      <cc:Work
         rdf:about="">
        <dc:format>image/svg+xml</dc:format>
        <dc:type
           rdf:resource="http://purl.org/dc/dcmitype/StillImage" />
        <dc:title></dc:title>
      </cc:Work>
    </rdf:RDF>
  </metadata>
  <sodipodi:namedview
     pagecolor="#ffffff"
     bordercolor="#666666"
     borderopacity="1"
     objecttolerance="10"
     gridtolerance="10"
     guidetolerance="10"
     inkscape:pageopacity="0"
     inkscape:pageshadow="2"
     inkscape:window-width="1600"
     inkscape:window-height="837"
     id="namedview12"
     showgrid="false"
     inkscape:pagecheckerboard="false"
     inkscape:zoom="3.6875"
     inkscape:cx="-35.382348"
     inkscape:cy="31.203389"
     inkscape:window-x="-8"
     inkscape:window-y="-8"
     inkscape:window-maximized="1"
     inkscape:current-layer="svg10"
     fit-margin-top="0"
     fit-margin-left="0"
     fit-margin-right="0"
     fit-margin-bottom="0" />
  <desc
     id="desc4" />
  <defs
     id="defs6" />
  <g
     id="Page-1"
     style="fill:#ff7519;fill-opacity:1;fill-rule:evenodd;stroke:none;stroke-width:1"
     transform="matrix(0.06258677,0,0,0.06258677,-0.02503471,0)">
    <path
       d="M 276.13635,50.428754 304.47169,1.723653 c 0.94147,-1.61827003 3.10127,-2.21194125 4.77992,-1.25013923 1.69036,0.96850753 2.26025,3.08089753 1.29902,4.73313243 L 282.42114,53.557922 c 36.2044,19.200567 62.69362,54.080908 70.25756,95.500968 v 0 H 83.321303 C 90.847562,107.84517 117.11102,73.106162 153.03853,53.846029 L 125.44939,5.3272769 c -0.94151,-1.6557631 -0.37965,-3.8587069 1.29909,-4.84279248 1.69044,-0.99094648 3.81888,-0.41141162 4.78016,1.27910318 L 159.3405,50.674023 C 177.11943,42.292784 197.00785,37.603106 218,37.603106 c 20.78648,0 40.49077,4.598239 58.13635,12.825648 z M 158.33548,107.26297 c 7.75337,0 14.03871,-6.23756 14.03871,-13.931973 0,-7.694416 -6.28534,-13.931973 -14.03871,-13.931973 -7.75336,0 -14.03871,6.237557 -14.03871,13.931973 0,7.694413 6.28535,13.931973 14.03871,13.931973 z m 147.40645,303.02041 h 21.06165 c 15.50476,0 28.07384,-12.46793 28.07384,-27.84927 V 166.47385 H 81.122581 v 215.96026 c 0,15.38073 12.564236,27.84927 28.073839,27.84927 h 21.06164 v 0 80.11287 c 0,11.5394 9.45782,20.89393 21.0361,20.89393 h 21.10201 c 11.61791,0 21.03609,-9.36473 21.03609,-20.89393 v -80.11287 h 49.13548 v 80.11287 c 0,11.5394 9.45782,20.89393 21.03609,20.89393 h 21.10201 c 11.61792,0 21.03609,-9.36473 21.03609,-20.89393 z M 277.66452,107.26297 c 7.75336,0 14.03871,-6.23756 14.03871,-13.931973 0,-7.694416 -6.28535,-13.931973 -14.03871,-13.931973 -7.75337,0 -14.03871,6.237557 -14.03871,13.931973 0,7.694413 6.28534,13.931973 14.03871,13.931973 z M 0.4,197.81502 v 118.43331 c 0,17.30925 14.138189,31.34117 31.587097,31.34117 17.445072,0 31.587096,-14.06113 31.587096,-31.34117 V 197.81502 c 0,-17.30925 -14.138189,-31.34117 -31.587096,-31.34117 C 14.542025,166.47385 0.4,180.53499 0.4,197.81502 Z m 403.6129,-31.34117 c -17.44507,0 -31.58709,14.06114 -31.58709,31.34117 v 118.43331 c 0,17.30925 14.13819,31.34117 31.58709,31.34117 v 0 c 17.44507,0 31.5871,-14.06113 31.5871,-31.34117 V 197.81502 c 0,-17.30925 -14.13819,-31.34117 -31.5871,-31.34117 z"
       id="android"
       inkscape:connector-curvature="0"
       style="fill:#ff7519;fill-opacity:1" />
  </g>
</svg>
