<?xml version="1.0" encoding="UTF-8" standalone="no"?>
<svg
   xmlns:dc="http://purl.org/dc/elements/1.1/"
   xmlns:cc="http://creativecommons.org/ns#"
   xmlns:rdf="http://www.w3.org/1999/02/22-rdf-syntax-ns#"
   xmlns:svg="http://www.w3.org/2000/svg"
   xmlns="http://www.w3.org/2000/svg"
   xmlns:sodipodi="http://sodipodi.sourceforge.net/DTD/sodipodi-0.dtd"
   xmlns:inkscape="http://www.inkscape.org/namespaces/inkscape"
   viewBox="409 2286 1500 1499.9999"
   version="1.1"
   id="svg92"
   sodipodi:docname="cryptolock.svg"
   width="1500"
   height="1500"
   inkscape:version="0.92.3 (2405546, 2018-03-11)">
  <metadata
     id="metadata96">
    <rdf:RDF>
      <cc:Work
         rdf:about="">
        <dc:format>image/svg+xml</dc:format>
        <dc:type
           rdf:resource="http://purl.org/dc/dcmitype/StillImage" />
        <dc:title></dc:title>
      </cc:Work>
    </rdf:RDF>
  </metadata>
  <sodipodi:namedview
     pagecolor="#ffffff"
     bordercolor="#666666"
     borderopacity="1"
     objecttolerance="10"
     gridtolerance="10"
     guidetolerance="10"
     inkscape:pageopacity="0"
     inkscape:pageshadow="2"
     inkscape:window-width="1600"
     inkscape:window-height="837"
     id="namedview94"
     showgrid="false"
     fit-margin-top="0"
     fit-margin-left="0"
     fit-margin-right="0"
     fit-margin-bottom="0"
     inkscape:zoom="0.32441134"
     inkscape:cx="59.997998"
     inkscape:cy="633.81576"
     inkscape:window-x="-8"
     inkscape:window-y="-8"
     inkscape:window-maximized="1"
     inkscape:current-layer="svg92" />
  <defs
     id="defs4">
    <style
       id="style2">.a{fill:#79a1e8;}.b{fill:#473cba;}.c{fill:#d7ecf9;}.d{fill:#b3d4e5;}.e{fill:#f9d015;}.f{fill:#fbb03b;}.g{fill:#4b31aa;}.h{fill:#f7931e;}.i{fill:#fff;}.j{fill:#cfddf7;}</style>
  </defs>
  <g
     transform="matrix(11.663621,0,0,11.663621,259.4861,2286.0467)"
     id="g90">
    <path
       class="a"
       d="m 53.062,63.143 c -6.209,6.234 -6.23,13.673 7.857,23.512 15.988,11.166 52.538,-12.543 66.614,-6.619 14.076,5.924 48,0.143 26.652,-33 -16.752,-26 -6.44,-43.311 -33.309,-46.731 C 94.007,-3.115 67.133,22.6 68.132,40.537 69.131,58.474 58.831,57.351 53.062,63.143 Z"
       transform="translate(-23.938)"
       id="path6"
       inkscape:connector-curvature="0"
       style="fill:#79a1e8" />
    <path
       class="b"
       d="M 109.684,154.818 H 44.7 a 6.383,6.383 0 0 1 -6.383,-6.383 V 83.244 A 6.383,6.383 0 0 1 44.7,76.861 h 64.983 a 6.383,6.383 0 0 1 6.383,6.383 v 65.191 a 6.382,6.382 0 0 1 -6.382,6.383 z"
       transform="translate(-15.873,-57.556)"
       id="path8"
       inkscape:connector-curvature="0"
       style="fill:#473cba" />
    <path
       class="c"
       d="M 92.487,154.818 H 27.5 a 6.383,6.383 0 0 1 -6.383,-6.383 V 83.244 A 6.383,6.383 0 0 1 27.5,76.861 h 64.987 a 6.383,6.383 0 0 1 6.383,6.383 v 65.191 a 6.382,6.382 0 0 1 -6.383,6.383 z"
       transform="translate(-2.995,-57.556)"
       id="path10"
       inkscape:connector-curvature="0"
       style="fill:#d7ecf9" />
    <path
       class="d"
       d="m 92.488,76.861 h -1.482 l -69.884,69.884 v 1.69 a 6.383,6.383 0 0 0 6.383,6.383 h 64.983 a 6.383,6.383 0 0 0 6.383,-6.383 V 83.244 a 6.383,6.383 0 0 0 -6.383,-6.383 z"
       transform="translate(-2.996,-57.556)"
       id="path12"
       inkscape:connector-curvature="0"
       style="fill:#b3d4e5" />
    <path
       class="e"
       d="M 98.869,83.244 A 6.383,6.383 0 0 0 92.486,76.861 H 27.5 a 6.383,6.383 0 0 0 -6.383,6.383 v 4.25 h 77.752 z"
       transform="translate(-2.995,-57.556)"
       id="path14"
       inkscape:connector-curvature="0"
       style="fill:#f9d015" />
    <path
       class="f"
       d="m 275.518,83.244 a 6.383,6.383 0 0 0 -6.383,-6.383 h -1.482 l -10.632,10.632 h 18.5 v -4.25 z"
       transform="translate(-179.644,-57.556)"
       id="path16"
       inkscape:connector-curvature="0"
       style="fill:#fbb03b" />
    <g
       transform="translate(17.121,18.3)"
       id="g26">
      <path
         class="g"
         d="m 93.811,72.86 h -69.3 a 7.4,7.4 0 0 0 -7.388,7.387 v 65.191 a 7.4,7.4 0 0 0 7.388,7.387 h 69.3 a 7.4,7.4 0 0 0 7.387,-7.387 V 80.247 A 7.4,7.4 0 0 0 93.811,72.86 Z M 19.13,80.247 a 5.384,5.384 0 0 1 5.378,-5.378 h 64.983 a 5.384,5.384 0 0 1 5.378,5.378 v 3.245 H 19.13 Z m 5.378,70.569 A 5.384,5.384 0 0 1 19.13,145.438 V 85.5 h 75.739 v 59.937 a 5.384,5.384 0 0 1 -5.378,5.378 z m 74.68,-5.378 a 5.381,5.381 0 0 1 -4.57,5.31 7.364,7.364 0 0 0 2.26,-5.31 V 80.247 a 7.364,7.364 0 0 0 -2.26,-5.31 5.381,5.381 0 0 1 4.57,5.31 z"
         transform="translate(-17.121,-72.86)"
         id="path18"
         inkscape:connector-curvature="0"
         style="fill:#4b31aa" />
      <path
         class="g"
         d="M 45,90.058 A 2.084,2.084 0 1 0 47.084,92.142 2.087,2.087 0 0 0 45,90.058 Z"
         transform="translate(-36.438,-85.738)"
         id="path20"
         inkscape:connector-curvature="0"
         style="fill:#4b31aa" />
      <path
         class="g"
         d="M 70.8,90.058 A 2.084,2.084 0 1 0 72.884,92.142 2.087,2.087 0 0 0 70.8,90.058 Z"
         transform="translate(-55.753,-85.738)"
         id="path22"
         inkscape:connector-curvature="0"
         style="fill:#4b31aa" />
      <path
         class="g"
         d="m 96.59,90.058 a 2.084,2.084 0 1 0 2.085,2.084 2.087,2.087 0 0 0 -2.085,-2.084 z"
         transform="translate(-75.069,-85.738)"
         id="path24"
         inkscape:connector-curvature="0"
         style="fill:#4b31aa" />
    </g>
    <path
       class="a"
       d="M 83.682,203.041 H 58.9 a 4.354,4.354 0 0 1 -4.354,-4.354 v 0 a 4.354,4.354 0 0 1 4.354,-4.354 h 24.782 a 4.354,4.354 0 0 1 4.354,4.354 v 0 a 4.354,4.354 0 0 1 -4.354,4.354 z"
       transform="translate(-28.025,-145.523)"
       id="path28"
       inkscape:connector-curvature="0"
       style="fill:#79a1e8" />
    <path
       class="g"
       d="M 80.687,201.05 H 55.9 a 5.3585,5.3585 0 0 1 0,-10.717 h 24.787 a 5.3585,5.3585 0 0 1 0,10.717 z M 55.9,192.342 a 3.35,3.35 0 0 0 0,6.7 h 24.787 a 3.35,3.35 0 0 0 0,-6.7 z"
       transform="translate(-25.03,-142.527)"
       id="path30"
       inkscape:connector-curvature="0"
       style="fill:#4b31aa" />
    <path
       class="a"
       d="M 83.682,252.374 H 58.9 a 4.354,4.354 0 0 1 -4.354,-4.354 v 0 a 4.353,4.353 0 0 1 4.354,-4.354 h 24.782 a 4.353,4.353 0 0 1 4.354,4.354 v 0 a 4.354,4.354 0 0 1 -4.354,4.354 z"
       transform="translate(-28.025,-182.465)"
       id="path32"
       inkscape:connector-curvature="0"
       style="fill:#79a1e8" />
    <path
       class="g"
       d="M 80.687,250.384 H 55.9 a 5.3585,5.3585 0 1 1 0,-10.717 h 24.787 a 5.3585,5.3585 0 0 1 0,10.717 z M 55.9,241.676 a 3.35,3.35 0 1 0 0,6.7 h 24.787 a 3.35,3.35 0 1 0 0,-6.7 z"
       transform="translate(-25.03,-179.469)"
       id="path34"
       inkscape:connector-curvature="0"
       style="fill:#4b31aa" />
    <path
       class="h"
       d="m 123.45,299.919 h -12.809 a 3.267,3.267 0 0 1 -3.267,-3.267 v 0 a 3.267,3.267 0 0 1 3.267,-3.267 h 12.809 a 3.266,3.266 0 0 1 3.267,3.267 v 0 a 3.266,3.266 0 0 1 -3.267,3.267 z"
       transform="translate(-67.584,-219.696)"
       id="path36"
       inkscape:connector-curvature="0"
       style="fill:#f7931e" />
    <g
       transform="translate(30.038,52.244)"
       id="g54">
      <path
         class="g"
         d="m 120.455,297.928 h -12.809 a 4.2715,4.2715 0 0 1 0,-8.543 h 12.809 a 4.2715,4.2715 0 1 1 0,8.543 z m -12.809,-6.534 a 2.262,2.262 0 0 0 0,4.524 h 12.809 a 2.262,2.262 0 1 0 0,-4.524 z"
         transform="translate(-94.627,-268.943)"
         id="path38"
         inkscape:connector-curvature="0"
         style="fill:#4b31aa" />
      <path
         class="g"
         d="m 84.454,210.009 h -14.9 a 1.0045,1.0045 0 1 1 0,-2.009 h 14.9 a 1.0045,1.0045 0 1 1 0,2.009 z"
         transform="translate(-68.546,-208)"
         id="path40"
         inkscape:connector-curvature="0"
         style="fill:#4b31aa" />
      <path
         class="g"
         d="m 69.7,259.259 h -0.146 a 1.0045,1.0045 0 0 1 0,-2.009 H 69.7 a 1.0045,1.0045 0 0 1 0,2.009 z"
         transform="translate(-68.546,-244.88)"
         id="path42"
         inkscape:connector-curvature="0"
         style="fill:#4b31aa" />
      <path
         class="g"
         d="m 85.763,259.259 h -0.146 a 1.0045,1.0045 0 0 1 0,-2.009 h 0.146 a 1.0045,1.0045 0 0 1 0,2.009 z"
         transform="translate(-80.577,-244.88)"
         id="path44"
         inkscape:connector-curvature="0"
         style="fill:#4b31aa" />
      <path
         class="g"
         d="m 101.829,259.259 h -0.147 a 1.0045,1.0045 0 0 1 0,-2.009 h 0.147 a 1.0045,1.0045 0 0 1 0,2.009 z"
         transform="translate(-92.607,-244.88)"
         id="path46"
         inkscape:connector-curvature="0"
         style="fill:#4b31aa" />
      <path
         class="g"
         d="m 117.9,259.259 h -0.147 a 1.0045,1.0045 0 0 1 0,-2.009 h 0.147 a 1.0045,1.0045 0 0 1 0,2.009 z"
         transform="translate(-104.639,-244.88)"
         id="path48"
         inkscape:connector-curvature="0"
         style="fill:#4b31aa" />
      <path
         class="g"
         d="m 133.963,259.259 h -0.146 a 1.0045,1.0045 0 1 1 0,-2.009 h 0.146 a 1.0045,1.0045 0 0 1 0,2.009 z"
         transform="translate(-116.67,-244.88)"
         id="path50"
         inkscape:connector-curvature="0"
         style="fill:#4b31aa" />
      <path
         class="g"
         d="m 150.03,259.259 h -0.146 a 1.0045,1.0045 0 0 1 0,-2.009 h 0.146 a 1.0045,1.0045 0 0 1 0,2.009 z"
         transform="translate(-128.702,-244.88)"
         id="path52"
         inkscape:connector-curvature="0"
         style="fill:#4b31aa" />
    </g>
    <g
       transform="translate(18.818,69.513)"
       id="g62">
      <ellipse
         class="b"
         cx="20.344999"
         cy="2.3199999"
         rx="20.344999"
         ry="2.3199999"
         transform="translate(60.686,54.448)"
         id="ellipse56"
         style="fill:#473cba" />
      <ellipse
         class="b"
         cx="39.637001"
         cy="2.0090001"
         rx="39.637001"
         ry="2.0090001"
         transform="translate(0,37.487)"
         id="ellipse58"
         style="fill:#473cba" />
      <path
         class="b"
         d="m 310.986,318.433 h -33.2 a 5.061,5.061 0 0 1 -5.061,-5.061 v -36.618 h 43.325 v 36.618 a 5.061,5.061 0 0 1 -5.064,5.061 z"
         transform="translate(-210.22,-276.754)"
         id="path60"
         inkscape:connector-curvature="0"
         style="fill:#473cba" />
    </g>
    <path
       class="i"
       d="m 283.581,318.433 h -33.2 a 5.061,5.061 0 0 1 -5.061,-5.061 v -36.618 h 43.325 v 36.618 a 5.061,5.061 0 0 1 -5.064,5.061 z"
       transform="translate(-170.88,-207.241)"
       id="path64"
       inkscape:connector-curvature="0"
       style="fill:#ffffff" />
    <path
       class="j"
       d="m 281.858,276.754 -36.539,36.539 v 0.079 a 5.061,5.061 0 0 0 5.061,5.061 h 33.2 a 5.061,5.061 0 0 0 5.061,-5.061 v -36.618 z"
       transform="translate(-170.881,-207.241)"
       id="path66"
       inkscape:connector-curvature="0"
       style="fill:#cfddf7" />
    <path
       class="b"
       d="m 299.641,153.99 v 0 a 15.221,15.221 0 0 0 -15.221,15.221 v 15.615 h 6.973 V 169.3 a 8.248,8.248 0 0 1 8.248,-8.248 v 0 a 8.248,8.248 0 0 1 8.248,8.248 v 15.524 h 6.973 V 169.211 A 15.221,15.221 0 0 0 299.641,153.99 Z"
       transform="translate(-200.161,-115.312)"
       id="path68"
       inkscape:connector-curvature="0"
       style="fill:#473cba" />
    <path
       class="f"
       d="m 291.975,153.99 v 0 a 15.221,15.221 0 0 0 -15.221,15.221 v 15.615 h 6.973 V 169.3 a 8.248,8.248 0 0 1 8.248,-8.248 v 0 a 8.248,8.248 0 0 1 8.248,8.248 v 15.524 H 307.2 V 169.211 A 15.221,15.221 0 0 0 291.975,153.99 Z"
       transform="translate(-194.42,-115.312)"
       id="path70"
       inkscape:connector-curvature="0"
       style="fill:#fbb03b" />
    <path
       class="g"
       d="m 287.469,224.513 a 6.073,6.073 0 0 0 6.066,-6.066 v -36.618 a 1,1 0 0 0 -1,-1 h -8.941 v -14.61 a 16.244,16.244 0 0 0 -16.225,-16.226 h -1.925 a 16.244,16.244 0 0 0 -16.226,16.226 v 14.61 h -6.891 a 1,1 0 0 0 -1,1 v 36.618 a 6.073,6.073 0 0 0 6.066,6.066 z m -21.061,-72.487 a 14.241,14.241 0 0 1 13.246,14.189 v 14.61 h -4.963 V 166.3 a 9.109,9.109 0 0 0 -5.6,-8.5 9.245,9.245 0 0 0 -3.652,-0.753 9.342,9.342 0 0 0 -9.252,9.252 v 14.52 h -4.964 v -14.61 A 14.224,14.224 0 0 1 264.74,152.02 Z m -6.287,14.274 a 6.336,6.336 0 1 1 12.561,0 v 14.52 h -12.561 z m 24.521,16.529 v 35.613 a 4.061,4.061 0 0 1 -4.057,4.056 h -33.2 a 4.061,4.061 0 0 1 -4.056,-4.056 v -35.608 z m 6.883,35.613 a 4.061,4.061 0 0 1 -4.056,4.056 h -2.378 a 6.041,6.041 0 0 0 1.561,-4.056 v -35.608 h 4.874 z"
       transform="translate(-167.884,-112.316)"
       id="path72"
       inkscape:connector-curvature="0"
       style="fill:#4b31aa" />
    <path
       class="e"
       d="m 293.228,341.356 h -21.784 a 5.434,5.434 0 0 1 -5.434,-5.434 v 0 a 5.434,5.434 0 0 1 5.434,-5.434 h 21.784 a 5.434,5.434 0 0 1 5.434,5.434 v 0 a 5.434,5.434 0 0 1 -5.434,5.434 z"
       transform="translate(-186.375,-247.479)"
       id="path74"
       inkscape:connector-curvature="0"
       style="fill:#f9d015" />
    <path
       class="f"
       d="m 314.028,330.487 h -9.373 l -10.868,10.868 h 20.241 a 5.434,5.434 0 1 0 0,-10.868 z"
       transform="translate(-207.175,-247.478)"
       id="path76"
       inkscape:connector-curvature="0"
       style="fill:#fbb03b" />
    <g
       transform="translate(78.631,82.004)"
       id="g88">
      <path
         class="g"
         d="m 290.233,339.365 h -21.784 a 6.439,6.439 0 1 1 0,-12.878 h 21.784 a 6.439,6.439 0 1 1 0,12.878 z M 268.449,328.5 a 4.43,4.43 0 1 0 0,8.859 h 21.784 a 4.43,4.43 0 1 0 0,-8.859 z"
         transform="translate(-262.01,-326.487)"
         id="path78"
         inkscape:connector-curvature="0"
         style="fill:#4b31aa" />
      <path
         class="g"
         d="m 285.173,344.87 -0.5,-0.289 0.5,-0.289 a 0.75358161,0.75358161 0 0 0 -0.754,-1.305 l -0.5,0.289 V 342.7 a 0.754,0.754 0 0 0 -1.507,0 v 0.579 l -0.5,-0.289 a 0.75358161,0.75358161 0 1 0 -0.754,1.305 l 0.5,0.289 -0.5,0.289 a 0.75358161,0.75358161 0 1 0 0.754,1.305 l 0.5,-0.289 v 0.579 a 0.754,0.754 0 0 0 1.507,0 v -0.579 l 0.5,0.289 a 0.75358161,0.75358161 0 1 0 0.754,-1.305 z"
         transform="translate(-276.066,-338.061)"
         id="path80"
         inkscape:connector-curvature="0"
         style="fill:#4b31aa" />
      <path
         class="g"
         d="m 312.222,344.87 -0.5,-0.289 0.5,-0.289 a 0.75358161,0.75358161 0 1 0 -0.754,-1.305 l -0.5,0.289 V 342.7 a 0.754,0.754 0 0 0 -1.507,0 v 0.579 l -0.5,-0.289 a 0.75358161,0.75358161 0 1 0 -0.754,1.305 l 0.5,0.289 -0.5,0.289 a 0.754,0.754 0 1 0 0.754,1.305 l 0.5,-0.289 v 0.579 a 0.754,0.754 0 0 0 1.507,0 v -0.579 l 0.5,0.289 a 0.7533316,0.7533316 0 1 0 0.753,-1.305 z"
         transform="translate(-296.321,-338.061)"
         id="path82"
         inkscape:connector-curvature="0"
         style="fill:#4b31aa" />
      <path
         class="g"
         d="m 339.271,344.87 -0.5,-0.289 0.5,-0.289 a 0.754,0.754 0 0 0 -0.754,-1.305 l -0.5,0.289 V 342.7 a 0.754,0.754 0 0 0 -1.507,0 v 0.579 l -0.5,-0.289 a 0.75358161,0.75358161 0 1 0 -0.754,1.305 l 0.5,0.289 -0.5,0.289 a 0.75358161,0.75358161 0 1 0 0.754,1.305 l 0.5,-0.289 v 0.579 a 0.754,0.754 0 0 0 1.507,0 v -0.579 l 0.5,0.289 a 0.754,0.754 0 1 0 0.754,-1.305 z"
         transform="translate(-316.576,-338.061)"
         id="path84"
         inkscape:connector-curvature="0"
         style="fill:#4b31aa" />
      <path
         class="g"
         d="m 366.32,344.87 -0.5,-0.289 0.5,-0.289 a 0.75358161,0.75358161 0 0 0 -0.754,-1.305 l -0.5,0.289 V 342.7 a 0.754,0.754 0 1 0 -1.507,0 v 0.579 l -0.5,-0.289 a 0.754,0.754 0 0 0 -0.754,1.305 l 0.5,0.289 -0.5,0.289 a 0.754,0.754 0 1 0 0.754,1.305 l 0.5,-0.289 v 0.579 a 0.754,0.754 0 0 0 1.507,0 v -0.579 l 0.5,0.289 a 0.75358161,0.75358161 0 0 0 0.754,-1.305 z"
         transform="translate(-336.831,-338.061)"
         id="path86"
         inkscape:connector-curvature="0"
         style="fill:#4b31aa" />
    </g>
  </g>
</svg>
