<?xml version="1.0" encoding="UTF-8" standalone="no"?>
<!-- Created with Inkscape (http://www.inkscape.org/) -->

<svg
   xmlns:dc="http://purl.org/dc/elements/1.1/"
   xmlns:cc="http://creativecommons.org/ns#"
   xmlns:rdf="http://www.w3.org/1999/02/22-rdf-syntax-ns#"
   xmlns:svg="http://www.w3.org/2000/svg"
   xmlns="http://www.w3.org/2000/svg"
   xmlns:sodipodi="http://sodipodi.sourceforge.net/DTD/sodipodi-0.dtd"
   xmlns:inkscape="http://www.inkscape.org/namespaces/inkscape"
   width="300mm"
   height="300mm"
   viewBox="0 0 300 300"
   version="1.1"
   id="svg8"
   inkscape:version="0.92.3 (2405546, 2018-03-11)"
   sodipodi:docname="favicon.svg"
   inkscape:export-filename="C:\Users\pgeor\Downloads\Peryx\img\social-logo.png"
   inkscape:export-xdpi="25.4"
   inkscape:export-ydpi="25.4">
  <defs
     id="defs2" />
  <sodipodi:namedview
     id="base"
     pagecolor="#ffffff"
     bordercolor="#666666"
     borderopacity="1.0"
     inkscape:pageopacity="0.0"
     inkscape:pageshadow="2"
     inkscape:zoom="0.35"
     inkscape:cx="-890.85489"
     inkscape:cy="560"
     inkscape:document-units="mm"
     inkscape:current-layer="layer1"
     showgrid="false"
     fit-margin-top="0"
     fit-margin-left="0"
     fit-margin-right="0"
     fit-margin-bottom="0"
     inkscape:window-width="1600"
     inkscape:window-height="837"
     inkscape:window-x="-8"
     inkscape:window-y="-8"
     inkscape:window-maximized="1" />
  <metadata
     id="metadata5">
    <rdf:RDF>
      <cc:Work
         rdf:about="">
        <dc:format>image/svg+xml</dc:format>
        <dc:type
           rdf:resource="http://purl.org/dc/dcmitype/StillImage" />
        <dc:title />
      </cc:Work>
    </rdf:RDF>
  </metadata>
  <g
     inkscape:label="Layer 1"
     inkscape:groupmode="layer"
     id="layer1"
     transform="translate(0,3)">
    <circle
       style="opacity:1;fill:#c4502c;fill-opacity:1;stroke:none;stroke-width:0.89832842;stroke-miterlimit:4;stroke-dasharray:none"
       id="path830"
       cx="150"
       cy="147"
       r="150" />
    <g
       transform="scale(0.88601953,1.1286433)"
       id="text4570"
       style="fill:#490e0e;fill-opacity:1">
      <path
         d="m 72.000604,211.6415 20.523352,-7.09449 q 1.900311,-0.63343 3.167184,-1.90031 1.266874,-1.39356 1.266874,-4.18068 V 61.643672 q 0,-2.533747 -1.393561,-3.800621 -1.266874,-1.266873 -3.040497,-1.90031 L 72.000604,48.594874 V 38.333198 H 266.59239 v 10.261676 l -20.26998,7.347867 q -2.027,0.760124 -3.42056,2.026998 -1.39356,1.140186 -1.39356,3.673933 V 198.46602 q 0,2.78712 1.39356,4.18068 1.39356,1.26688 3.42056,1.90031 l 20.26998,7.09449 v 10.51506 H 188.67966 V 211.6415 l 20.26998,-7.09449 q 2.15368,-0.76012 3.42056,-2.027 1.39356,-1.26687 1.39356,-4.05399 V 55.435991 H 124.70255 V 198.46602 q 0,2.78712 1.26687,4.05399 1.26687,1.26688 3.42056,2.027 l 20.39666,7.09449 v 10.51506 H 72.000604 Z"
         id="path815"
         style="fill:#490e0e;fill-opacity:1" />
    </g>
  </g>
</svg>
