<?xml version="1.0" encoding="UTF-8" standalone="no"?>
<!-- Created with Inkscape (http://www.inkscape.org/) -->

<svg
   xmlns:dc="http://purl.org/dc/elements/1.1/"
   xmlns:cc="http://creativecommons.org/ns#"
   xmlns:rdf="http://www.w3.org/1999/02/22-rdf-syntax-ns#"
   xmlns:svg="http://www.w3.org/2000/svg"
   xmlns="http://www.w3.org/2000/svg"
   xmlns:sodipodi="http://sodipodi.sourceforge.net/DTD/sodipodi-0.dtd"
   xmlns:inkscape="http://www.inkscape.org/namespaces/inkscape"
   width="8.6808596mm"
   height="8.4666662mm"
   viewBox="0 0 8.6808597 8.4666662"
   version="1.1"
   id="svg1370"
   inkscape:version="0.92.3 (2405546, 2018-03-11)"
   sodipodi:docname="githubgray.svg">
  <defs
     id="defs1364" />
  <sodipodi:namedview
     id="base"
     pagecolor="#ffffff"
     bordercolor="#666666"
     borderopacity="1.0"
     inkscape:pageopacity="0.0"
     inkscape:pageshadow="2"
     inkscape:zoom="0.35"
     inkscape:cx="669.08879"
     inkscape:cy="-538.61386"
     inkscape:document-units="mm"
     inkscape:current-layer="layer1"
     showgrid="false"
     fit-margin-top="0"
     fit-margin-left="0"
     fit-margin-right="0"
     fit-margin-bottom="0"
     inkscape:pagecheckerboard="true"
     inkscape:window-width="1600"
     inkscape:window-height="837"
     inkscape:window-x="-8"
     inkscape:window-y="-8"
     inkscape:window-maximized="1" />
  <metadata
     id="metadata1367">
    <rdf:RDF>
      <cc:Work
         rdf:about="">
        <dc:format>image/svg+xml</dc:format>
        <dc:type
           rdf:resource="http://purl.org/dc/dcmitype/StillImage" />
        <dc:title></dc:title>
      </cc:Work>
    </rdf:RDF>
  </metadata>
  <g
     inkscape:label="Layer 1"
     inkscape:groupmode="layer"
     id="layer1"
     transform="translate(401.54759,2.1415846)">
    <path
       inkscape:connector-curvature="0"
       id="path28"
       style="fill:#4c4c4c;fill-opacity:1;fill-rule:evenodd;stroke:none;stroke-width:0.0718772"
       d="m -397.20707,-2.1415846 c -2.39689,0 -4.34052,1.94320025 -4.34052,4.3405204 0,1.9176836 1.24369,3.5446962 2.96831,4.1186353 0.21693,0.04018 0.29657,-0.094159 0.29657,-0.208803 0,-0.1034316 -0.004,-0.4454232 -0.006,-0.8081156 -1.20753,0.2625675 -1.46234,-0.5121252 -1.46234,-0.5121252 -0.19744,-0.5016308 -0.48193,-0.6351066 -0.48193,-0.6351066 -0.39382,-0.2693956 0.0297,-0.2638614 0.0297,-0.2638614 0.43586,0.03062 0.66537,0.4473639 0.66537,0.4473639 0.38713,0.6634983 1.01541,0.4716579 1.26309,0.3607516 0.039,-0.2804651 0.15145,-0.4720175 0.27558,-0.5804086 -0.96409,-0.1096842 -1.97756,-0.4819366 -1.97756,-2.1451031 0,-0.4738145 0.16956,-0.8610888 0.44722,-1.1650575 -0.0451,-0.1093253 -0.19363,-0.55079503 0.0421,-1.14866949 0,0 0.36448,-0.11658494 1.19388,0.44499186 0.34623,-0.09617181 0.71755,-0.14440138 1.08642,-0.14612646 0.36887,0.0017198 0.74048,0.04995465 1.08736,0.14612646 0.82845,-0.5615768 1.19244,-0.44499186 1.19244,-0.44499186 0.23626,0.59787446 0.0877,1.03934419 0.0426,1.14866949 0.27831,0.3039687 0.44665,0.691243 0.44665,1.1650575 0,1.6671917 -1.01541,2.0341969 -1.98194,2.1416529 0.15568,0.1346982 0.2944,0.3988468 0.2944,0.803803 0,0.5807677 -0.005,1.0481854 -0.005,1.1911491 0,0.1155785 0.0781,0.2508512 0.29807,0.2083002 1.72376,-0.5745867 2.96587,-2.2010237 2.96587,-4.1181325 0,-2.39732015 -1.94334,-4.3405204 -4.34052,-4.3405204" />
  </g>
</svg>
