<?xml version="1.0" encoding="UTF-8" standalone="no"?>
<!-- Generator: Adobe Illustrator 18.1.1, SVG Export Plug-In . SVG Version: 6.00 Build 0)  -->

<svg
   xmlns:dc="http://purl.org/dc/elements/1.1/"
   xmlns:cc="http://creativecommons.org/ns#"
   xmlns:rdf="http://www.w3.org/1999/02/22-rdf-syntax-ns#"
   xmlns:svg="http://www.w3.org/2000/svg"
   xmlns="http://www.w3.org/2000/svg"
   xmlns:sodipodi="http://sodipodi.sourceforge.net/DTD/sodipodi-0.dtd"
   xmlns:inkscape="http://www.inkscape.org/namespaces/inkscape"
   version="1.1"
   id="Layer_1"
   x="0px"
   y="0px"
   viewBox="0 0 1500 1500"
   enable-background="new 0 0 60 60"
   xml:space="preserve"
   sodipodi:docname="independent.svg"
   width="1500"
   height="1500"
   inkscape:version="0.92.3 (2405546, 2018-03-11)"><metadata
   id="metadata12"><rdf:RDF><cc:Work
       rdf:about=""><dc:format>image/svg+xml</dc:format><dc:type
         rdf:resource="http://purl.org/dc/dcmitype/StillImage" /><dc:title /></cc:Work></rdf:RDF></metadata><defs
   id="defs10" /><sodipodi:namedview
   pagecolor="#ffffff"
   bordercolor="#666666"
   borderopacity="1"
   objecttolerance="10"
   gridtolerance="10"
   guidetolerance="10"
   inkscape:pageopacity="0"
   inkscape:pageshadow="2"
   inkscape:window-width="1600"
   inkscape:window-height="837"
   id="namedview8"
   showgrid="false"
   inkscape:zoom="0.34766083"
   inkscape:cx="167.34799"
   inkscape:cy="971.80631"
   inkscape:window-x="-8"
   inkscape:window-y="-8"
   inkscape:window-maximized="1"
   inkscape:current-layer="Layer_1" />
<g
   id="Forma_1_6_"
   transform="matrix(30.06012,0,0,30.06012,-157.81562,-153.30661)"
   inkscape:label="Ανεξάρτητο"><title
   id="title814">Ανεξάρτητο</title>
	<g
   id="g4">
		<path
   d="m 30,27.1 c 6.1,0 11,-5 11,-11 0,-6.1 -5,-11 -11,-11 -6.1,0 -11,5 -11,11 0,6 4.9,11 11,11 z m 21.5,14.6 c 0,-4.2 -2.7,-7.9 -6.7,-9.2 v 0 l -5.8,-1 c -0.5,-0.2 -1,0.1 -1.2,0.6 l -6.6,18.2 c -0.4,1 -1.9,1 -2.2,0 L 22.4,32.1 c -0.1,-0.4 -0.5,-0.6 -0.9,-0.6 -0.1,0 -6.1,1 -6.1,1 -4,1.3 -6.7,5.1 -6.7,9.3 V 55 h 43 z m -19,-10.5 c -0.3,-0.3 -0.7,-0.4 -1.1,-0.4 h -3 c -0.4,0 -0.8,0.1 -1.1,0.4 -0.4,0.5 -0.5,1.1 -0.2,1.6 l 1.6,2.4 -0.7,6.2 1.5,3.9 c 0.1,0.4 0.7,0.4 0.8,0 l 1.5,-3.9 -0.7,-6.2 1.6,-2.4 c 0.3,-0.5 0.2,-1.2 -0.2,-1.6 z"
   id="path2"
   inkscape:connector-curvature="0"
   style="fill:#2e358e" />
	</g>
</g>
</svg>