<?xml version="1.0" encoding="UTF-8" standalone="no"?>
<!-- Creator: CorelDRAW X6 -->

<svg
   xmlns:dc="http://purl.org/dc/elements/1.1/"
   xmlns:cc="http://creativecommons.org/ns#"
   xmlns:rdf="http://www.w3.org/1999/02/22-rdf-syntax-ns#"
   xmlns:svg="http://www.w3.org/2000/svg"
   xmlns="http://www.w3.org/2000/svg"
   xmlns:sodipodi="http://sodipodi.sourceforge.net/DTD/sodipodi-0.dtd"
   xmlns:inkscape="http://www.inkscape.org/namespaces/inkscape"
   xml:space="preserve"
   width="300"
   height="300"
   version="1.1"
   style="clip-rule:evenodd;fill-rule:evenodd;image-rendering:optimizeQuality;shape-rendering:geometricPrecision;text-rendering:geometricPrecision"
   viewBox="0 0 3125 3125"
   id="svg35"
   sodipodi:docname="language.svg"
   inkscape:version="0.92.3 (2405546, 2018-03-11)"><metadata
   id="metadata39"><rdf:RDF><cc:Work
       rdf:about=""><dc:format>image/svg+xml</dc:format><dc:type
         rdf:resource="http://purl.org/dc/dcmitype/StillImage" /><dc:title></dc:title></cc:Work></rdf:RDF></metadata><sodipodi:namedview
   pagecolor="#ffffff"
   bordercolor="#666666"
   borderopacity="1"
   objecttolerance="10"
   gridtolerance="10"
   guidetolerance="10"
   inkscape:pageopacity="0"
   inkscape:pageshadow="2"
   inkscape:window-width="1600"
   inkscape:window-height="837"
   id="namedview37"
   showgrid="false"
   units="px"
   inkscape:zoom="0.55625733"
   inkscape:cx="508.9781"
   inkscape:cy="345.15491"
   inkscape:window-x="-8"
   inkscape:window-y="-8"
   inkscape:window-maximized="1"
   inkscape:current-layer="svg35" />
 <defs
   id="defs4">
  <style
   type="text/css"
   id="style2">
   <![CDATA[
    .fil2 {fill:black}
    .fil3 {fill:white}
    .fil0 {fill:black;fill-rule:nonzero}
    .fil1 {fill:white;fill-rule:nonzero}
   ]]>
  </style>
 </defs>
 <g
   id="__x0023_Layer_1_1"
   transform="matrix(0.08053293,0,0,0.08053293,-438.62251,-481.58683)">
  <metadata
   id="CorelCorpID_0Corel-Layer" />
  <g
   id="_156598800">
   <polygon
   class="fil0"
   points="24834,10967 11880,6395 11880,34591 24834,30400 "
   id="polygon7"
   style="fill:#000000;fill-rule:nonzero" />
   <polygon
   class="fil1"
   points="24523,10953 37974,6381 37974,34577 24523,30386 "
   id="polygon9"
   style="fill:#ffffff;fill-rule:nonzero" />
   <polygon
   class="fil1"
   points="8520,39527 24523,34193 24523,10950 8520,16284 "
   id="polygon11"
   style="fill:#ffffff;fill-rule:nonzero" />
   <polygon
   class="fil0"
   points="35279,40143 31815,39878 34083,43609 "
   id="polygon13"
   style="fill:#000000;fill-rule:nonzero" />
   <g
   id="g19">
    <path
   class="fil0"
   d="m 13962,18962 c -85,-83 111,682 383,958 483,487 860,550 1061,558 444,18 993,-111 1319,-247 315,-134 867,-416 1076,-828 44,-88 165,-236 89,-600 -58,-281 -236,-379 -454,-363 -218,15 -877,191 -1196,289 -319,97 -976,297 -1263,359 -286,62 -916,-29 -1016,-125 z"
   id="path15"
   inkscape:connector-curvature="0"
   style="fill:#000000;fill-rule:nonzero" />
    <path
   class="fil0"
   d="m 22036,28113 c -126,-46 -2735,-1127 -3105,-1304 -303,-146 -1045,-459 -1394,-602 983,-1516 1604,-2661 1687,-2835 153,-319 1194,-2356 1218,-2481 24,-127 53,-597 30,-708 -23,-114 -405,105 -923,281 -519,175 -1505,817 -1886,897 -382,80 -1604,543 -2230,750 -625,208 -1808,568 -2295,700 -487,131 -913,142 -1185,224 0,0 36,382 109,496 72,114 329,395 629,473 300,79 796,47 1022,-4 226,-53 617,-244 670,-327 53,-85 -27,-346 62,-425 90,-78 1281,-357 1731,-492 450,-138 2171,-731 2404,-701 -74,245 -1458,2987 -1904,3805 -446,818 -3037,4416 -3588,5051 -419,482 -1433,1716 -1784,1994 89,24 717,-29 831,-100 713,-439 1901,-1918 2284,-2368 1137,-1333 2136,-2734 2928,-3936 h 1 c 154,64 1402,1081 1728,1306 326,225 1610,942 1889,1061 278,120 1348,614 1393,447 45,-168 -193,-1153 -320,-1200 z"
   id="path17"
   inkscape:connector-curvature="0"
   style="fill:#000000;fill-rule:nonzero" />
   </g>
   <path
   class="fil2"
   d="m 16007,41701 c 250,153 486,278 750,403 528,264 1125,542 1694,750 778,292 1556,528 2333,708 431,97 903,181 1361,250 42,0 1278,153 1528,153 h 1250 c 486,-42 944,-69 1431,-139 389,-56 819,-125 1236,-222 306,-69 625,-139 931,-236 292,-83 625,-194 944,-306 208,-69 431,-167 653,-250 181,-83 403,-181 611,-264 250,-111 542,-264 819,-403 222,-111 472,-250 708,-389 181,-97 597,-417 819,-417 250,0 417,222 417,417 0,403 -542,528 -792,708 -264,181 -583,319 -861,472 -556,292 -1125,542 -1667,750 -708,264 -1486,514 -2181,681 -264,56 -528,125 -792,167 -139,28 -1583,250 -1986,250 h -1833 c -486,-42 -1000,-97 -1486,-167 -431,-69 -889,-153 -1319,-250 -333,-69 -694,-167 -1014,-264 -556,-153 -1097,-347 -1625,-556 -958,-361 -1958,-833 -2903,-1458 -167,-111 -181,-222 -181,-347 0,-208 153,-403 403,-403 222,0 667,319 750,361 z"
   id="path21"
   inkscape:connector-curvature="0"
   style="fill:#000000" />
   <path
   class="fil2"
   d="M 24090,33882 8951,38924 V 16591 l 15139,-5042 z m 847,-22986 v 0 23333 c -14,69 -42,139 -97,208 -28,42 -83,97 -125,111 -347,139 -15986,5389 -16194,5389 -167,0 -319,-111 -403,-292 0,-14 -14,-28 -14,-56 V 16242 c 28,-69 42,-167 97,-222 111,-153 306,-181 431,-222 236,-83 15639,-5250 15861,-5250 139,0 444,97 444,347 z"
   id="path23"
   inkscape:connector-curvature="0"
   style="fill:#000000" />
   <path
   class="fil2"
   d="M 37549,33993 24952,30076 V 11257 L 37549,6979 Z m 847,-27569 v 0 28097 c -14,319 -236,458 -444,458 -181,0 -1486,-444 -1708,-514 -1750,-542 -3514,-1083 -5250,-1625 -389,-125 -792,-250 -1167,-375 -333,-97 -694,-208 -1028,-319 -1486,-458 -3000,-917 -4486,-1417 -56,-14 -194,-208 -194,-250 V 10854 c 28,-69 56,-153 125,-208 111,-125 4875,-1708 6750,-2333 500,-181 6764,-2333 6958,-2333 250,0 444,181 444,444 z"
   id="path25"
   inkscape:connector-curvature="0"
   style="fill:#000000" />
   <polygon
   class="fil0"
   points="41593,39878 24764,34514 24834,11162 41593,16497 "
   id="polygon27"
   style="fill:#000000;fill-rule:nonzero" />
   <g
   id="g31">
    <path
   class="fil3"
   d="m 33109,21598 -1652,3992 3037,921 z m -991,-3769 v 0 l 2168,657 3950,14236 -2227,-676 -800,-2923 -4603,-1395 -990,2381 -2228,-676 4729,-11605 z"
   id="path29"
   inkscape:connector-curvature="0"
   style="fill:#ffffff" />
   </g>
  </g>
 </g>
</svg>