<?xml version="1.0" encoding="UTF-8" standalone="no"?>
<!-- Created with Inkscape (http://www.inkscape.org/) -->

<svg
   xmlns:dc="http://purl.org/dc/elements/1.1/"
   xmlns:cc="http://creativecommons.org/ns#"
   xmlns:rdf="http://www.w3.org/1999/02/22-rdf-syntax-ns#"
   xmlns:svg="http://www.w3.org/2000/svg"
   xmlns="http://www.w3.org/2000/svg"
   xmlns:sodipodi="http://sodipodi.sourceforge.net/DTD/sodipodi-0.dtd"
   xmlns:inkscape="http://www.inkscape.org/namespaces/inkscape"
   width="500"
   height="135"
   viewBox="0 0 132.29167 35.71875"
   version="1.1"
   id="svg8"
   inkscape:version="0.92.3 (2405546, 2018-03-11)"
   sodipodi:docname="logogr.svg"
   inkscape:export-filename="C:\Users\pgeor\Pictures\back-monero\images\moneroIcon-trans84x84.png"
   inkscape:export-xdpi="7.112"
   inkscape:export-ydpi="7.112">
  <defs
     id="defs2" />
  <sodipodi:namedview
     id="base"
     pagecolor="#ffffff"
     bordercolor="#666666"
     borderopacity="1.0"
     inkscape:pageopacity="0.0"
     inkscape:pageshadow="2"
     inkscape:zoom="2.8"
     inkscape:cx="199.95147"
     inkscape:cy="110.08996"
     inkscape:document-units="mm"
     inkscape:current-layer="layer1"
     showgrid="false"
     fit-margin-top="0"
     fit-margin-left="0"
     fit-margin-right="0"
     fit-margin-bottom="0"
     inkscape:window-width="1600"
     inkscape:window-height="837"
     inkscape:window-x="-8"
     inkscape:window-y="-8"
     inkscape:window-maximized="1"
     units="px" />
  <metadata
     id="metadata5">
    <rdf:RDF>
      <cc:Work
         rdf:about="">
        <dc:format>image/svg+xml</dc:format>
        <dc:type
           rdf:resource="http://purl.org/dc/dcmitype/StillImage" />
        <dc:title />
      </cc:Work>
    </rdf:RDF>
  </metadata>
  <g
     inkscape:label="Layer 1"
     inkscape:groupmode="layer"
     id="layer1"
     transform="translate(0,-261.28125)">
    <circle
       style="opacity:1;fill:#c4502c;fill-opacity:1;stroke:none;stroke-width:0.10695797;stroke-miterlimit:4;stroke-dasharray:none"
       id="path830"
       cx="17.859501"
       cy="279.1405"
       r="17.859501" />
    <g
       transform="scale(0.88601953,1.1286433)"
       id="text4570"
       style="fill:#490e0e;fill-opacity:1">
      <path
         d="m 8.5726321,257.01529 2.4435789,-0.8447 q 0.226257,-0.0754 0.377096,-0.22626 0.150838,-0.16592 0.150838,-0.49776 v -16.29053 q 0,-0.30168 -0.165922,-0.45251 -0.150838,-0.15084 -0.362012,-0.22626 l -2.4435789,-0.87486 v -1.22179 H 31.741381 v 1.22179 l -2.413411,0.87486 q -0.241341,0.0905 -0.407263,0.24134 -0.165922,0.13575 -0.165922,0.43743 v 16.29053 q 0,0.33184 0.165922,0.49776 0.165922,0.15084 0.407263,0.22626 l 2.413411,0.8447 v 1.25195 h -9.27655 v -1.25195 l 2.413412,-0.8447 q 0.256425,-0.0905 0.407263,-0.24134 0.165922,-0.15084 0.165922,-0.48268 V 238.41693 H 14.847502 v 17.02964 q 0,0.33184 0.150838,0.48268 0.150838,0.15084 0.407263,0.24134 l 2.428495,0.8447 v 1.25195 H 8.5726321 Z"
         id="path817"
         style="fill:#490e0e;fill-opacity:1" />
    </g>
    <g
       style="font-style:normal;font-variant:normal;font-weight:normal;font-stretch:normal;font-size:22.47901726px;line-height:125%;font-family:'Noto Sans';-inkscape-font-specification:'Noto Sans, Normal';font-variant-ligatures:normal;font-variant-caps:normal;font-variant-numeric:normal;font-feature-settings:normal;text-align:start;letter-spacing:0px;word-spacing:0px;writing-mode:lr-tb;text-anchor:start;opacity:1;fill:#4d4d4d;fill-opacity:1;stroke:none;stroke-width:0.56198049px;stroke-linecap:butt;stroke-linejoin:miter;stroke-opacity:1"
       id="text817">
      <path
         d="m 43.557513,287.16565 v -16.05002 h 12.048753 v 16.05002 h -2.000632 v -14.27418 h -8.025009 v 14.27418 z"
         style="font-style:normal;font-variant:normal;font-weight:normal;font-stretch:normal;font-size:22.47901726px;font-family:'Noto Sans';-inkscape-font-specification:'Noto Sans, Normal';font-variant-ligatures:normal;font-variant-caps:normal;font-variant-numeric:normal;font-feature-settings:normal;text-align:start;writing-mode:lr-tb;text-anchor:start;fill:#4d4d4d;fill-opacity:1;stroke-width:0.56198049px"
         id="path820" />
      <path
         d="m 68.94686,287.16565 h -8.969127 v -16.05002 h 8.969127 v 1.77584 h -6.946016 v 5.01282 h 6.541394 v 1.75337 h -6.541394 v 5.73215 h 6.946016 z"
         style="font-style:normal;font-variant:normal;font-weight:normal;font-stretch:normal;font-size:22.47901726px;font-family:'Noto Sans';-inkscape-font-specification:'Noto Sans, Normal';font-variant-ligatures:normal;font-variant-caps:normal;font-variant-numeric:normal;font-feature-settings:normal;text-align:start;writing-mode:lr-tb;text-anchor:start;fill:#4d4d4d;fill-opacity:1;stroke-width:0.56198049px"
         id="path822" />
      <path
         d="m 76.739,271.11563 q 3.147063,0 4.58572,1.23635 1.438657,1.23634 1.438657,3.48424 0,1.32627 -0.606934,2.49518 -0.584454,1.14643 -2.000632,1.86575 -1.393699,0.71933 -3.798954,0.71933 h -1.843279 v 6.24917 h -2.023112 v -16.05002 z m -0.179832,1.73089 h -2.04559 v 6.33908 h 1.618489 q 2.29286,0 3.41681,-0.74181 1.123951,-0.74181 1.123951,-2.51765 0,-1.55105 -1.011555,-2.31534 -0.989077,-0.76428 -3.102105,-0.76428 z"
         style="font-style:normal;font-variant:normal;font-weight:normal;font-stretch:normal;font-size:22.47901726px;font-family:'Noto Sans';-inkscape-font-specification:'Noto Sans, Normal';font-variant-ligatures:normal;font-variant-caps:normal;font-variant-numeric:normal;font-feature-settings:normal;text-align:start;writing-mode:lr-tb;text-anchor:start;fill:#4d4d4d;fill-opacity:1;stroke-width:0.56198049px"
         id="path824" />
      <path
         d="m 90.281907,279.00577 4.181097,-7.89014 h 2.180465 l -5.350006,9.82333 v 6.22669 h -2.023112 v -6.13677 l -5.350006,-9.91325 h 2.202944 z"
         style="font-style:normal;font-variant:normal;font-weight:normal;font-stretch:normal;font-size:22.47901726px;font-family:'Noto Sans';-inkscape-font-specification:'Noto Sans, Normal';font-variant-ligatures:normal;font-variant-caps:normal;font-variant-numeric:normal;font-feature-settings:normal;text-align:start;writing-mode:lr-tb;text-anchor:start;fill:#4d4d4d;fill-opacity:1;stroke-width:0.56198049px"
         id="path826" />
      <path
         d="m 97.888945,272.89147 v -1.77584 h 9.980685 v 1.77584 z m 0.899161,6.76619 v -1.75337 h 8.182364 v 1.75337 z m -1.348741,7.50799 v -1.77584 h 10.879845 v 1.77584 z"
         style="font-style:normal;font-variant:normal;font-weight:normal;font-stretch:normal;font-size:22.47901726px;font-family:'Noto Sans';-inkscape-font-specification:'Noto Sans, Normal';font-variant-ligatures:normal;font-variant-caps:normal;font-variant-numeric:normal;font-feature-settings:normal;text-align:start;writing-mode:lr-tb;text-anchor:start;fill:#4d4d4d;fill-opacity:1;stroke-width:0.56198049px"
         id="path828" />
    </g>
  </g>
</svg>
