<?xml version="1.0" encoding="UTF-8" standalone="no"?>
<!-- Created with Inkscape (http://www.inkscape.org/) -->

<svg
   xmlns:dc="http://purl.org/dc/elements/1.1/"
   xmlns:cc="http://creativecommons.org/ns#"
   xmlns:rdf="http://www.w3.org/1999/02/22-rdf-syntax-ns#"
   xmlns:svg="http://www.w3.org/2000/svg"
   xmlns="http://www.w3.org/2000/svg"
   xmlns:sodipodi="http://sodipodi.sourceforge.net/DTD/sodipodi-0.dtd"
   xmlns:inkscape="http://www.inkscape.org/namespaces/inkscape"
   width="500"
   height="135"
   viewBox="0 0 132.29167 35.71875"
   version="1.1"
   id="svg8"
   inkscape:version="0.92.3 (2405546, 2018-03-11)"
   sodipodi:docname="logoen.svg"
   inkscape:export-filename="C:\Users\pgeor\Pictures\back-monero\images\moneroIcon-trans84x84.png"
   inkscape:export-xdpi="7.112"
   inkscape:export-ydpi="7.112">
  <defs
     id="defs2" />
  <sodipodi:namedview
     id="base"
     pagecolor="#ffffff"
     bordercolor="#666666"
     borderopacity="1.0"
     inkscape:pageopacity="0.0"
     inkscape:pageshadow="2"
     inkscape:zoom="2.8"
     inkscape:cx="59.722016"
     inkscape:cy="110.08996"
     inkscape:document-units="mm"
     inkscape:current-layer="layer1"
     showgrid="false"
     fit-margin-top="0"
     fit-margin-left="0"
     fit-margin-right="0"
     fit-margin-bottom="0"
     inkscape:window-width="1600"
     inkscape:window-height="837"
     inkscape:window-x="-8"
     inkscape:window-y="-8"
     inkscape:window-maximized="1"
     units="px" />
  <metadata
     id="metadata5">
    <rdf:RDF>
      <cc:Work
         rdf:about="">
        <dc:format>image/svg+xml</dc:format>
        <dc:type
           rdf:resource="http://purl.org/dc/dcmitype/StillImage" />
        <dc:title />
      </cc:Work>
    </rdf:RDF>
  </metadata>
  <g
     inkscape:label="Layer 1"
     inkscape:groupmode="layer"
     id="layer1"
     transform="translate(0,-261.28125)">
    <circle
       style="opacity:1;fill:#c4502c;fill-opacity:1;stroke:none;stroke-width:0.10695797;stroke-miterlimit:4;stroke-dasharray:none"
       id="path830"
       cx="17.859501"
       cy="279.1405"
       r="17.859501" />
    <g
       transform="scale(0.88601953,1.1286433)"
       id="text4570"
       style="fill:#490e0e;fill-opacity:1">
      <path
         d="m 8.5726321,257.01529 2.4435789,-0.8447 q 0.226257,-0.0754 0.377096,-0.22626 0.150838,-0.16592 0.150838,-0.49776 v -16.29053 q 0,-0.30168 -0.165922,-0.45251 -0.150838,-0.15084 -0.362012,-0.22626 l -2.4435789,-0.87486 v -1.22179 H 31.741381 v 1.22179 l -2.413411,0.87486 q -0.241341,0.0905 -0.407263,0.24134 -0.165922,0.13575 -0.165922,0.43743 v 16.29053 q 0,0.33184 0.165922,0.49776 0.165922,0.15084 0.407263,0.22626 l 2.413411,0.8447 v 1.25195 h -9.27655 v -1.25195 l 2.413412,-0.8447 q 0.256425,-0.0905 0.407263,-0.24134 0.165922,-0.15084 0.165922,-0.48268 V 238.41693 H 14.847502 v 17.02964 q 0,0.33184 0.150838,0.48268 0.150838,0.15084 0.407263,0.24134 l 2.428495,0.8447 v 1.25195 H 8.5726321 Z"
         id="path817"
         style="fill:#490e0e;fill-opacity:1"
         inkscape:connector-curvature="0" />
    </g>
    <g
       aria-label=""
       style="font-style:normal;font-weight:normal;font-size:22.01634216px;line-height:125%;font-family:sans-serif;letter-spacing:0px;word-spacing:0px;fill:#4d4d4d;fill-opacity:1;stroke:none;stroke-width:0.55040854px;stroke-linecap:butt;stroke-linejoin:miter;stroke-opacity:1"
       id="text8458">
      <path
         d="m 45.729534,272.90015 v 6.03084 h 2.730543 q 1.515773,0 2.343536,-0.78476 0.827763,-0.78476 0.827763,-2.23604 0,-1.44052 -0.827763,-2.22528 -0.827763,-0.78476 -2.343536,-0.78476 z M 43.558,271.11562 h 4.902077 q 2.698291,0 4.074313,1.22552 1.386771,1.21477 1.386771,3.56905 0,2.37579 -1.386771,3.59056 -1.376022,1.21477 -4.074313,1.21477 h -2.730543 v 6.4501 H 43.558 Z"
         style="fill:#4d4d4d;fill-opacity:1;stroke-width:0.55040854px"
         id="path818"
         inkscape:connector-curvature="0" />
      <path
         d="m 56.845207,271.11562 h 10.148158 v 1.82753 h -7.976624 v 4.75157 h 7.643369 v 1.82753 h -7.643369 v 5.81584 h 8.170127 v 1.82753 H 56.845207 Z"
         style="fill:#4d4d4d;fill-opacity:1;stroke-width:0.55040854px"
         id="path820"
         inkscape:connector-curvature="0" />
      <path
         d="m 78.388542,279.6405 q 0.698761,0.23651 1.354521,1.01052 0.66651,0.77401 1.333021,2.12853 l 2.203784,4.38607 H 80.947082 L 78.8938,283.0483 q -0.795513,-1.61252 -1.548024,-2.13928 -0.741762,-0.52676 -2.031782,-0.52676 h -2.365037 v 6.78336 h -2.171533 v -16.05 H 75.6795 q 2.752043,0 4.106564,1.15027 1.354521,1.15027 1.354521,3.4723 0,1.51577 -0.709511,2.51554 -0.698761,0.99977 -2.042532,1.38677 z m -5.439585,-6.74035 v 5.69759 H 75.6795 q 1.569524,0 2.365037,-0.72027 0.806262,-0.73101 0.806262,-2.13928 0,-1.40827 -0.806262,-2.11778 -0.795513,-0.72026 -2.365037,-0.72026 z"
         style="fill:#4d4d4d;fill-opacity:1;stroke-width:0.55040854px"
         id="path822"
         inkscape:connector-curvature="0" />
      <path
         d="m 82.462855,271.11562 h 2.332786 l 4.450569,6.6006 4.418319,-6.6006 h 2.332786 l -5.676088,8.40663 v 7.64337 h -2.182284 v -7.64337 z"
         style="fill:#4d4d4d;fill-opacity:1;stroke-width:0.55040854px"
         id="path824"
         inkscape:connector-curvature="0" />
      <path
         d="m 97.351837,271.11562 h 2.332786 l 3.988307,5.96634 4.00982,-5.96634 h 2.33278 l -5.16008,7.70787 5.50409,8.34213 h -2.33279 l -4.51507,-6.82636 -4.547318,6.82636 h -2.343537 l 5.729835,-8.56788 z"
         style="fill:#4d4d4d;fill-opacity:1;stroke-width:0.55040854px"
         id="path826"
         inkscape:connector-curvature="0" />
    </g>
  </g>
</svg>
