<?xml version="1.0" encoding="UTF-8" standalone="no"?>
<svg
   xmlns:dc="http://purl.org/dc/elements/1.1/"
   xmlns:cc="http://creativecommons.org/ns#"
   xmlns:rdf="http://www.w3.org/1999/02/22-rdf-syntax-ns#"
   xmlns:svg="http://www.w3.org/2000/svg"
   xmlns="http://www.w3.org/2000/svg"
   xmlns:sodipodi="http://sodipodi.sourceforge.net/DTD/sodipodi-0.dtd"
   xmlns:inkscape="http://www.inkscape.org/namespaces/inkscape"
   version="1.1"
   viewBox="0 0 1500 1500.0001"
   id="svg72"
   sodipodi:docname="peryxcash.svg"
   width="1500"
   height="1500"
   inkscape:version="0.92.3 (2405546, 2018-03-11)">
  <metadata
     id="metadata78">
    <rdf:RDF>
      <cc:Work
         rdf:about="">
        <dc:format>image/svg+xml</dc:format>
        <dc:type
           rdf:resource="http://purl.org/dc/dcmitype/StillImage" />
        <dc:title></dc:title>
      </cc:Work>
    </rdf:RDF>
  </metadata>
  <defs
     id="defs76" />
  <sodipodi:namedview
     pagecolor="#ffffff"
     bordercolor="#666666"
     borderopacity="1"
     objecttolerance="10"
     gridtolerance="10"
     guidetolerance="10"
     inkscape:pageopacity="0"
     inkscape:pageshadow="2"
     inkscape:window-width="1600"
     inkscape:window-height="837"
     id="namedview74"
     showgrid="false"
     fit-margin-top="0"
     fit-margin-left="0"
     fit-margin-right="0"
     fit-margin-bottom="0"
     inkscape:pagecheckerboard="true"
     inkscape:zoom="0.26222222"
     inkscape:cx="418.29081"
     inkscape:cy="981.13112"
     inkscape:window-x="-8"
     inkscape:window-y="-8"
     inkscape:window-maximized="1"
     inkscape:current-layer="svg72" />
  <g
     transform="matrix(1.7877858,0,0,1.7877858,-56.689231,-365.31172)"
     id="g70">
    <g
       transform="matrix(8.244,0,0,8.244,-178.2,-1482)"
       id="g68">
      <g
         transform="matrix(-0.68503,0,0,0.68503,-5.127,-30.388)"
         id="g64">
        <g
           transform="translate(-6.4286,-72.643)"
           id="g6">
          <path
             transform="translate(6.4286,84.643)"
             d="m -190.89,425.76 45,30.536 0.53572,0.35715 8.9286,-3.3929 18.929,-8.75 17.143,-8.75 18.571,-10 27.679,-16.607 7.8571,-4.8214 -43.571,-21.964 -36.786,19.464 -17.679,8.3928 -24.286,8.75 z"
             id="path2"
             inkscape:connector-curvature="0"
             style="fill:#ffffff" />
          <path
             d="m -83.204,466.29 c -55.31,31.494 -76.664,35.629 -103.59,44.233 l 47.499,31.839 c 35.855,-14.363 69.041,-32.88 101.07,-53.217 l -44.981,-22.854 z m -0.31477,1.6395 41.707,21.182 c -29.705,18.86 -63.73,37.898 -96.981,51.217 l -44.036,-29.51 c 24.971,-7.9789 48.018,-13.682 99.31,-42.889 z"
             id="path4"
             inkscape:connector-curvature="0"
             style="fill:#005500" />
        </g>
        <g
           transform="translate(-6.4286,-76.643)"
           id="g12">
          <path
             transform="translate(6.4286,84.643)"
             d="m -190.89,425.76 45,30.536 0.53572,0.35715 8.9286,-3.3929 18.929,-8.75 17.143,-8.75 18.571,-10 27.679,-16.607 7.8571,-4.8214 -43.571,-21.964 -36.786,19.464 -17.679,8.3928 -24.286,8.75 z"
             id="path8"
             inkscape:connector-curvature="0"
             style="fill:#ffffff" />
          <path
             d="m -83.204,466.29 c -55.31,31.494 -76.664,35.629 -103.59,44.233 l 47.499,31.839 c 35.855,-14.363 69.041,-32.88 101.07,-53.217 l -44.981,-22.854 z m -0.31477,1.6395 41.707,21.182 c -29.705,18.86 -63.73,37.898 -96.981,51.217 l -44.036,-29.51 c 24.971,-7.9789 48.018,-13.682 99.31,-42.889 z"
             id="path10"
             inkscape:connector-curvature="0"
             style="fill:#005500" />
        </g>
        <g
           transform="translate(-6.4286,-80.643)"
           id="g18">
          <path
             transform="translate(6.4286,84.643)"
             d="m -190.89,425.76 45,30.536 0.53572,0.35715 8.9286,-3.3929 18.929,-8.75 17.143,-8.75 18.571,-10 27.679,-16.607 7.8571,-4.8214 -43.571,-21.964 -36.786,19.464 -17.679,8.3928 -24.286,8.75 z"
             id="path14"
             inkscape:connector-curvature="0"
             style="fill:#ffffff" />
          <path
             d="m -83.204,466.29 c -55.31,31.494 -76.664,35.629 -103.59,44.233 l 47.499,31.839 c 35.855,-14.363 69.041,-32.88 101.07,-53.217 l -44.981,-22.854 z m -0.31477,1.6395 41.707,21.182 c -29.705,18.86 -63.73,37.898 -96.981,51.217 l -44.036,-29.51 c 24.971,-7.9789 48.018,-13.682 99.31,-42.889 z"
             id="path16"
             inkscape:connector-curvature="0"
             style="fill:#005500" />
        </g>
        <g
           transform="translate(-6.4286,-84.643)"
           id="g24">
          <path
             transform="translate(6.4286,84.643)"
             d="m -190.89,425.76 45,30.536 0.53572,0.35715 8.9286,-3.3929 18.929,-8.75 17.143,-8.75 18.571,-10 27.679,-16.607 7.8571,-4.8214 -43.571,-21.964 -36.786,19.464 -17.679,8.3928 -24.286,8.75 z"
             id="path20"
             inkscape:connector-curvature="0"
             style="fill:#ffffff" />
          <path
             d="m -83.204,466.29 c -55.31,31.494 -76.664,35.629 -103.59,44.233 l 47.499,31.839 c 35.855,-14.363 69.041,-32.88 101.07,-53.217 l -44.981,-22.854 z m -0.31477,1.6395 41.707,21.182 c -29.705,18.86 -63.73,37.898 -96.981,51.217 l -44.036,-29.51 c 24.971,-7.9789 48.018,-13.682 99.31,-42.889 z"
             id="path22"
             inkscape:connector-curvature="0"
             style="fill:#005500" />
        </g>
        <g
           transform="translate(-6.4286,-88.643)"
           id="g30">
          <path
             transform="translate(6.4286,84.643)"
             d="m -190.89,425.76 45,30.536 0.53572,0.35715 8.9286,-3.3929 18.929,-8.75 17.143,-8.75 18.571,-10 27.679,-16.607 7.8571,-4.8214 -43.571,-21.964 -36.786,19.464 -17.679,8.3928 -24.286,8.75 z"
             id="path26"
             inkscape:connector-curvature="0"
             style="fill:#ffffff" />
          <path
             d="m -83.204,466.29 c -55.31,31.494 -76.664,35.629 -103.59,44.233 l 47.499,31.839 c 35.855,-14.363 69.041,-32.88 101.07,-53.217 l -44.981,-22.854 z m -0.31477,1.6395 41.707,21.182 c -29.705,18.86 -63.73,37.898 -96.981,51.217 l -44.036,-29.51 c 24.971,-7.9789 48.018,-13.682 99.31,-42.889 z"
             id="path28"
             inkscape:connector-curvature="0"
             style="fill:#005500" />
        </g>
        <g
           transform="translate(-6.4286,-92.643)"
           id="g36">
          <path
             transform="translate(6.4286,84.643)"
             d="m -190.89,425.76 45,30.536 0.53572,0.35715 8.9286,-3.3929 18.929,-8.75 17.143,-8.75 18.571,-10 27.679,-16.607 7.8571,-4.8214 -43.571,-21.964 -36.786,19.464 -17.679,8.3928 -24.286,8.75 z"
             id="path32"
             inkscape:connector-curvature="0"
             style="fill:#ffffff" />
          <path
             d="m -83.204,466.29 c -55.31,31.494 -76.664,35.629 -103.59,44.233 l 47.499,31.839 c 35.855,-14.363 69.041,-32.88 101.07,-53.217 l -44.981,-22.854 z m -0.31477,1.6395 41.707,21.182 c -29.705,18.86 -63.73,37.898 -96.981,51.217 l -44.036,-29.51 c 24.971,-7.9789 48.018,-13.682 99.31,-42.889 z"
             id="path34"
             inkscape:connector-curvature="0"
             style="fill:#005500" />
        </g>
        <g
           transform="translate(-6.4286,-96.643)"
           id="g42">
          <path
             transform="translate(6.4286,84.643)"
             d="m -190.89,425.76 45,30.536 0.53572,0.35715 8.9286,-3.3929 18.929,-8.75 17.143,-8.75 18.571,-10 27.679,-16.607 7.8571,-4.8214 -43.571,-21.964 -36.786,19.464 -17.679,8.3928 -24.286,8.75 z"
             id="path38"
             inkscape:connector-curvature="0"
             style="fill:#ffffff" />
          <path
             d="m -83.204,466.29 c -55.31,31.494 -76.664,35.629 -103.59,44.233 l 47.499,31.839 c 35.855,-14.363 69.041,-32.88 101.07,-53.217 l -44.981,-22.854 z m -0.31477,1.6395 41.707,21.182 c -29.705,18.86 -63.73,37.898 -96.981,51.217 l -44.036,-29.51 c 24.971,-7.9789 48.018,-13.682 99.31,-42.889 z"
             id="path40"
             inkscape:connector-curvature="0"
             style="fill:#005500" />
        </g>
        <g
           transform="translate(-6.4286,-100.64)"
           id="g48">
          <path
             transform="translate(6.4286,84.643)"
             d="m -190.89,425.76 45,30.536 0.53572,0.35715 8.9286,-3.3929 18.929,-8.75 17.143,-8.75 18.571,-10 27.679,-16.607 7.8571,-4.8214 -43.571,-21.964 -36.786,19.464 -17.679,8.3928 -24.286,8.75 z"
             id="path44"
             inkscape:connector-curvature="0"
             style="fill:#ffffff" />
          <path
             d="m -83.204,466.29 c -55.31,31.494 -76.664,35.629 -103.59,44.233 l 47.499,31.839 c 35.855,-14.363 69.041,-32.88 101.07,-53.217 l -44.981,-22.854 z m -0.31477,1.6395 41.707,21.182 c -29.705,18.86 -63.73,37.898 -96.981,51.217 l -44.036,-29.51 c 24.971,-7.9789 48.018,-13.682 99.31,-42.889 z"
             id="path46"
             inkscape:connector-curvature="0"
             style="fill:#005500" />
        </g>
        <g
           transform="translate(0,-14)"
           id="g60">
          <path
             d="m -180.71,422.01 c 0,0 5.7143,3.9286 6.4286,7.1429 0.71428,3.2143 23.929,16.786 23.929,16.786 h 11.429 l 7.8571,-1.7857 19.643,-9.2857 15.714,-6.7857 18.929,-10.357 17.857,-10.714 v -11.429 l -25.714,-12.143 -12.857,1.7857 -11.786,7.1429 -28.929,12.857 -37.5,13.214 z"
             id="path50"
             inkscape:connector-curvature="0"
             style="fill:#ffffff" />
          <g
             id="g58"
             style="fill:#165016">
            <path
               d="m -89.656,378.78 c -54.911,30.016 -76.111,33.956 -102.84,42.156 l 47.156,30.344 c 35.597,-13.688 68.543,-31.337 100.34,-50.719 z m 10.906,8.5312 14.875,7.6875 c -0.9554,1.9163 -1.5,4.0371 -1.5,6.2812 0,2.5503 0.69236,4.9573 1.9062,7.0625 -21.464,13.908 -45.382,24.753 -69.875,34.875 -2.7124,-2.49 -6.6914,-4.0625 -11.125,-4.0625 -3.6237,0 -6.9301,1.0668 -9.5,2.8125 l -17.438,-11.312 c 1.1274,-1.7778 1.75,-3.8069 1.75,-5.9688 0,-2.267 -0.7069,-4.3796 -1.9375,-6.2188 19.455,-5.1345 54.124,-20.98 72.031,-29.938 2.5773,1.2709 5.8241,2.0312 9.375,2.0312 4.567,0 8.657,-1.2607 11.438,-3.25 z"
               id="path52"
               inkscape:connector-curvature="0" />
            <path
               d="m -146.37,410.12 c -1.5855,7.1141 1.2005,14.034 8.4028,18.389 7.2023,4.3546 17.172,5.1465 26.662,2.8117 z"
               id="path54"
               inkscape:connector-curvature="0"
               style="color:#000000" />
            <path
               d="m -82.423,417.97 c 1.5061,-6.5519 -1.1403,-12.925 -7.9818,-16.935 -6.8415,-4.0104 -16.311,-4.7397 -25.327,-2.5895 z"
               id="path56"
               inkscape:connector-curvature="0"
               style="color:#000000" />
          </g>
        </g>
        <path
           d="m -145.18,393.79 40.714,25 -0.89285,31.786 22.143,-11.964 -0.35714,-31.429 -39.286,-23.393 z"
           id="path62"
           inkscape:connector-curvature="0"
           style="fill:#005500" />
      </g>
      <path
         d="m 124.71,249.11 -0.23122,1.707 -1.4884,1.3655 1.9519,1.2153 -1.2374,1.565 1.3494,1.0156 -0.99378,1.6914 1.4318,1.5874 -1.8144,1.4742 1.9074,1.1218 -2.3305,1.5684 2.18,0.94732 -1.546,1.3737 1.3247,1.099 -1.6521,1.832 2.0049,1.2319 -29.358,20.062 0.93191,-1.9185 11.432,-8.709 -9.1054,4.4767 14.148,-10.47 -12.561,6.858 14.3,-10.961 -12.24,6.9675 13.368,-10.335 -11.803,6.4965 13.054,-10.199 -11.688,6.3594 11.837,-9.3386 -11.314,6.1406 12.808,-9.6155 -11.31,5.9195 12.437,-9.3478 -10.473,6.2377 z"
         id="path66"
         inkscape:connector-curvature="0"
         style="fill:#165016" />
    </g>
  </g>
</svg>
