<?xml version="1.0" encoding="UTF-8" standalone="no"?>
<svg
   xmlns:dc="http://purl.org/dc/elements/1.1/"
   xmlns:cc="http://creativecommons.org/ns#"
   xmlns:rdf="http://www.w3.org/1999/02/22-rdf-syntax-ns#"
   xmlns:svg="http://www.w3.org/2000/svg"
   xmlns="http://www.w3.org/2000/svg"
   xmlns:sodipodi="http://sodipodi.sourceforge.net/DTD/sodipodi-0.dtd"
   xmlns:inkscape="http://www.inkscape.org/namespaces/inkscape"
   viewBox="0 0 1500 1500"
   version="1.1"
   id="svg20"
   sodipodi:docname="peryxclassified.svg"
   width="1500"
   height="1500"
   inkscape:version="0.92.3 (2405546, 2018-03-11)">
  <metadata
     id="metadata24">
    <rdf:RDF>
      <cc:Work
         rdf:about="">
        <dc:format>image/svg+xml</dc:format>
        <dc:type
           rdf:resource="http://purl.org/dc/dcmitype/StillImage" />
        <dc:title></dc:title>
      </cc:Work>
    </rdf:RDF>
  </metadata>
  <sodipodi:namedview
     pagecolor="#ffffff"
     bordercolor="#666666"
     borderopacity="1"
     objecttolerance="10"
     gridtolerance="10"
     guidetolerance="10"
     inkscape:pageopacity="0"
     inkscape:pageshadow="2"
     inkscape:window-width="1600"
     inkscape:window-height="837"
     id="namedview22"
     showgrid="false"
     fit-margin-top="0"
     fit-margin-left="0"
     fit-margin-right="0"
     fit-margin-bottom="0"
     inkscape:zoom="0.26971429"
     inkscape:cx="200.18471"
     inkscape:cy="340.75419"
     inkscape:window-x="-8"
     inkscape:window-y="-8"
     inkscape:window-maximized="1"
     inkscape:current-layer="svg20" />
  <defs
     id="defs12">
    <linearGradient
       id="b"
       x1="122.60653"
       x2="231.83356"
       y1="375.27271"
       y2="511.23862"
       gradientTransform="scale(1.3471162,0.74232647)"
       gradientUnits="userSpaceOnUse">
      <stop
         stop-color="#ff0"
         offset="0"
         id="stop2" />
      <stop
         stop-color="#9ac705"
         offset="1"
         id="stop4" />
    </linearGradient>
    <linearGradient
       id="a"
       x1="17.264717"
       gradientTransform="scale(1.0753308,0.92994639)"
       y1="120.49012"
       x2="337.90463"
       y2="120.49012"
       gradientUnits="userSpaceOnUse">
      <stop
         stop-color="#baf52a"
         offset="0"
         id="stop7" />
      <stop
         stop-color="#c5ff05"
         offset="1"
         id="stop9" />
    </linearGradient>
  </defs>
  <g
     id="g837"
     transform="matrix(3.6099526,0,0,3.6099526,-67.019799,-48.061341)">
    <path
       id="path14"
       d="m 43.649,117.48 c 84.843,38.71 306.95,5.8019 313.61,7.9493 6.5792,4.6505 -37.939,231.25 -27.828,277.91 -34.389,-0.3754 -233.91,6.3983 -294.8,-6.4364 -23.164,-110.36 -2.9712,-279.81 9.018,-279.42 z"
       style="fill:url(#a);fill-rule:evenodd;stroke:#004d00;stroke-width:10.86600018;stroke-linejoin:bevel"
       inkscape:connector-curvature="0" />
    <path
       id="path16"
       d="m 214.67,376.99 c -8.9309,6.3351 -21.968,5.5853 -29.29,-7.1361 -6.2668,-11.86 -110.89,-193.72 -113.86,-199.5 -8.6595,-15.695 -3.9563,-27.318 5.5401,-34.163 13.054,-9.5549 124.45,-89.292 134.17,-95.926 10.658,-7.7271 22.968,-8.1772 32.002,7.3211 7.1673,12.484 108.98,189.76 115.03,200.03 6.3989,11.055 2.7533,25.354 -7.4391,32.036 -7.5817,5.1119 -131.2,93.687 -136.15,97.344 z"
       inkscape:connector-curvature="0"
       style="fill:#ffffeb;fill-rule:evenodd;stroke:#005800;stroke-width:10.89000034" />
    <path
       id="path18"
       d="m 34.672,401.88 c 19.626,-37.463 83.688,-145.52 86.661,-200.6 3.0623,-5.3407 117.21,-7.5912 118.16,-4.8543 2.594,1.6519 -24.976,57.395 -32.363,63.408 -0.167,6.2477 123.79,19.213 220.65,0.0398 10.69,3.5695 -81.386,144.74 -98.39,145.75 -19.478,-1.1435 -273.93,6.1238 -294.72,-3.7459 z"
       style="fill:url(#b);fill-rule:evenodd;stroke:#004300;stroke-width:10.86600018;stroke-linejoin:bevel"
       inkscape:connector-curvature="0" />
  </g>
</svg>
