<?xml version="1.0" encoding="UTF-8" standalone="no"?>
<!-- Created with Inkscape (http://www.inkscape.org/) -->

<svg
   xmlns:dc="http://purl.org/dc/elements/1.1/"
   xmlns:cc="http://creativecommons.org/ns#"
   xmlns:rdf="http://www.w3.org/1999/02/22-rdf-syntax-ns#"
   xmlns:svg="http://www.w3.org/2000/svg"
   xmlns="http://www.w3.org/2000/svg"
   xmlns:sodipodi="http://sodipodi.sourceforge.net/DTD/sodipodi-0.dtd"
   xmlns:inkscape="http://www.inkscape.org/namespaces/inkscape"
   version="1.1"
   id="svg2"
   xml:space="preserve"
   width="1500"
   height="1500"
   viewBox="0 0 1500 1500"
   sodipodi:docname="private.svg"
   inkscape:version="0.92.3 (2405546, 2018-03-11)"><metadata
     id="metadata8"><rdf:RDF><cc:Work
         rdf:about=""><dc:format>image/svg+xml</dc:format><dc:type
           rdf:resource="http://purl.org/dc/dcmitype/StillImage" /><dc:title></dc:title></cc:Work></rdf:RDF></metadata><defs
     id="defs6"><clipPath
       clipPathUnits="userSpaceOnUse"
       id="clipPath18"><path
         d="M 0,135.714 H 135.714 V 0 H 0 Z"
         id="path16"
         inkscape:connector-curvature="0" /></clipPath></defs><sodipodi:namedview
     pagecolor="#ffffff"
     bordercolor="#666666"
     borderopacity="1"
     objecttolerance="10"
     gridtolerance="10"
     guidetolerance="10"
     inkscape:pageopacity="0"
     inkscape:pageshadow="2"
     inkscape:window-width="1600"
     inkscape:window-height="837"
     id="namedview4"
     showgrid="false"
     inkscape:zoom="1.3042133"
     inkscape:cx="934.948"
     inkscape:cy="680.08438"
     inkscape:window-x="-8"
     inkscape:window-y="-8"
     inkscape:window-maximized="1"
     inkscape:current-layer="g10" /><g
     id="g10"
     inkscape:groupmode="layer"
     inkscape:label="blinded-icon-2797396"
     transform="matrix(1.3333333,0,0,-1.3333333,0,1500)"><g
       id="g12"
       transform="matrix(9.1589259,0,0,9.1589259,-53.161153,-44.478491)"><g
         id="g14"
         clip-path="url(#clipPath18)"><g
           id="g20"
           transform="translate(128.6353,66.2717)"><path
             d="m 0,0 c 0,-33.919 -27.497,-61.415 -61.415,-61.415 -33.919,0 -61.416,27.496 -61.416,61.415 0,33.919 27.497,61.415 61.416,61.415 C -27.497,61.415 0,33.919 0,0"
             style="fill:#0090b0;fill-opacity:1;fill-rule:nonzero;stroke:none"
             id="path22"
             inkscape:connector-curvature="0" /></g><g
           id="g24"
           transform="translate(67.3219,4.8563)"><path
             d="m 0,0 c -33.919,0 -61.415,27.497 -61.415,61.415 0,33.919 27.496,61.416 61.415,61.416"
             style="fill:#00a5cb;fill-opacity:1;fill-rule:nonzero;stroke:none"
             id="path26"
             inkscape:connector-curvature="0" /></g><g
           id="g28"
           transform="translate(110.368,63.108)"><path
             d="m 0,0 c 0.151,-3.99 -20.916,-23.865 -43.249,-23.865 -16.731,0 -30.268,12.689 -39.168,15.571 -4.246,1.374 -3.745,3.889 -3.557,5.015 0.816,4.909 20.392,29.331 42.725,29.331 C -20.915,26.052 0.272,4.661 0,0 Z"
             style="fill:#00a5cb;fill-opacity:1;fill-rule:nonzero;stroke:none"
             id="path30"
             inkscape:connector-curvature="0" /></g><g
           id="g32"
           transform="translate(109.5954,63.096)"><path
             d="m 0,0 c 0.149,-3.683 -20.636,-22.028 -42.672,-22.028 -16.508,0 -29.864,11.713 -38.645,14.372 -4.189,1.269 -3.695,3.59 -3.51,4.629 0.805,4.531 20.12,27.073 42.155,27.073 C -20.637,24.046 0.268,4.302 0,0 Z"
             style="fill:#038faf;fill-opacity:1;fill-rule:nonzero;stroke:none"
             id="path34"
             inkscape:connector-curvature="0" /></g><g
           id="g36"
           transform="translate(109.1381,63.0655)"><path
             d="m 0,0 c 0.148,-3.611 -20.411,-21.599 -42.205,-21.599 -16.327,0 -29.538,11.484 -38.223,14.092 -4.143,1.244 -3.654,3.52 -3.472,4.539 0.797,4.443 19.901,26.546 41.695,26.546 C -20.411,23.578 0.265,4.218 0,0 Z"
             style="fill:#038faf;fill-opacity:1;fill-rule:nonzero;stroke:none"
             id="path38"
             inkscape:connector-curvature="0" /></g><g
           id="g40"
           transform="translate(106.6939,63.0634)"><path
             d="m 0,0 c 0.14,-3.592 -19.356,-21.483 -40.023,-21.483 -15.483,0 -28.011,11.423 -36.246,14.017 -3.93,1.237 -3.466,3.501 -3.293,4.514 0.755,4.419 18.872,26.403 39.539,26.403 C -19.355,23.451 0.252,4.195 0,0 Z"
             style="fill:#ffffff;fill-opacity:1;fill-rule:nonzero;stroke:none"
             id="path42"
             inkscape:connector-curvature="0" /></g><g
           id="g44"
           transform="translate(86.038,65.6931)"><path
             d="m 0,0 c 0,-10.695 -8.67,-19.365 -19.365,-19.365 -10.695,0 -19.364,8.67 -19.364,19.365 0,10.695 8.669,19.365 19.364,19.365 C -8.67,19.365 0,10.695 0,0"
             style="fill:#00a5cb;fill-opacity:1;fill-rule:nonzero;stroke:none"
             id="path46"
             inkscape:connector-curvature="0" /></g><g
           id="g48"
           transform="translate(72.7067,49.5171)"><path
             d="m 0,0 -3.627,7.677 1.149,-8.413 -2.413,8.141 -0.148,-8.489 -1.142,8.414 -1.443,-8.368 0.156,8.49 -2.703,-8.049 1.45,8.366 -3.9,-7.542 2.711,8.046 -5.006,-6.858 3.907,7.539 -5.994,-6.014 5.011,6.854 -6.841,-5.028 5.999,6.008 -7.529,-3.925 6.846,5.023 -8.04,-2.73 7.532,3.918 -8.363,-1.47 8.043,2.722 -8.489,-0.177 8.365,1.464 -8.417,1.121 8.489,0.169 -8.147,2.393 8.416,-1.129 -7.686,3.609 8.145,-2.4 -7.046,4.739 7.683,-3.615 -6.239,5.759 7.041,-4.746 -5.287,6.645 6.234,-5.765 -4.211,7.373 5.281,-6.649 -3.036,7.93 4.205,-7.377 -1.79,8.3 3.029,-7.932 -0.502,8.476 1.782,-8.302 0.798,8.453 0.494,-8.477 2.079,8.233 -0.805,-8.453 3.311,7.819 -2.086,-8.231 4.466,7.223 -3.318,-7.816 5.516,6.455 -4.473,-7.217 6.437,5.538 -5.522,-6.451 7.207,4.49 L 1.137,20.232 8.945,23.57 1.734,19.086 9.961,21.193 2.15,17.862 10.601,18.688 2.373,16.589 10.851,16.116 2.4,15.297 10.707,13.535 2.229,14.016 10.17,11.007 1.865,12.776 9.253,8.59 1.316,11.606 7.977,6.342 0.594,10.534 6.374,4.314 -0.283,9.585 4.48,2.556 -1.295,8.781 2.339,1.107 -2.418,8.141 0.003,0.002 Z"
             style="fill:#ffffff;fill-opacity:1;fill-rule:nonzero;stroke:none"
             id="path50"
             inkscape:connector-curvature="0" /></g><g
           id="g52"
           transform="translate(75.5279,65.6931)"><path
             d="m 0,0 c 0.046,-4.642 -3.679,-8.442 -8.321,-8.488 -4.642,-0.046 -8.442,3.679 -8.488,8.321 -10e-4,0.056 -10e-4,0.111 0,0.167 -0.046,4.642 3.679,8.442 8.321,8.488 C -3.846,8.534 -0.046,4.809 0,0.167 0.001,0.111 0.001,0.056 0,0"
             style="fill:#0090b0;fill-opacity:1;fill-rule:nonzero;stroke:none"
             id="path54"
             inkscape:connector-curvature="0" /></g><g
           id="g56"
           transform="translate(107.2648,113.1383)"><path
             d="m 0,0 -87.127,-86.264 c 1.967,-2.437 4.135,-4.695 6.449,-6.808 L 6.875,-6.386 C 4.741,-4.095 2.461,-1.948 0,0"
             style="fill:#ffffff;fill-opacity:1;fill-rule:nonzero;stroke:none"
             id="path58"
             inkscape:connector-curvature="0" /></g></g></g></g></svg>