<?xml version="1.0" encoding="UTF-8" standalone="no"?>
<svg
   xmlns:dc="http://purl.org/dc/elements/1.1/"
   xmlns:cc="http://creativecommons.org/ns#"
   xmlns:rdf="http://www.w3.org/1999/02/22-rdf-syntax-ns#"
   xmlns:svg="http://www.w3.org/2000/svg"
   xmlns="http://www.w3.org/2000/svg"
   xmlns:sodipodi="http://sodipodi.sourceforge.net/DTD/sodipodi-0.dtd"
   xmlns:inkscape="http://www.inkscape.org/namespaces/inkscape"
   version="1.1"
   id="Layer_1"
   x="0px"
   y="0px"
   viewBox="34.6 117.4 1500 1499.9999"
   enable-background="new 34.6 117.4 517 580.4"
   xml:space="preserve"
   sodipodi:docname="vault.svg"
   width="1500"
   height="1500"
   inkscape:version="0.92.3 (2405546, 2018-03-11)"><metadata
   id="metadata43"><rdf:RDF><cc:Work
       rdf:about=""><dc:format>image/svg+xml</dc:format><dc:type
         rdf:resource="http://purl.org/dc/dcmitype/StillImage" /><dc:title></dc:title></cc:Work></rdf:RDF></metadata><defs
   id="defs41" /><sodipodi:namedview
   pagecolor="#ffffff"
   bordercolor="#666666"
   borderopacity="1"
   objecttolerance="10"
   gridtolerance="10"
   guidetolerance="10"
   inkscape:pageopacity="0"
   inkscape:pageshadow="2"
   inkscape:window-width="1600"
   inkscape:window-height="837"
   id="namedview39"
   showgrid="false"
   inkscape:zoom="0.40661611"
   inkscape:cx="258.5"
   inkscape:cy="798.02015"
   inkscape:window-x="-8"
   inkscape:window-y="-8"
   inkscape:window-maximized="1"
   inkscape:current-layer="Layer_1" />
<g
   id="g36"
   transform="matrix(2.5844245,0,0,2.5844245,27.105179,-186.01142)">
	<path
   stroke-miterlimit="10"
   d="m 49.4,191.6 h 487.4 c 4.3,0 7.8,5.3 7.8,11.8 V 679 c 0,6.6 -3.5,11.8 -7.8,11.8 H 49.4 c -4.3,0 -7.8,-5.3 -7.8,-11.8 V 203.4 c 0,-6.5 3.5,-11.8 7.8,-11.8 z"
   id="path2"
   inkscape:connector-curvature="0"
   style="fill:#be2624;stroke:#ffffff;stroke-width:14;stroke-miterlimit:10" />
	<path
   stroke-miterlimit="10"
   d="m 430.2,124.3 c 1.6,0 106.7,66.7 106.7,66.7 6.1,2.3 -489.6,0 -489.6,0 -4.3,0 111.5,-66.7 111.5,-66.7 2.4,-0.9 271.4,0 271.4,0 z"
   id="path4"
   inkscape:connector-curvature="0"
   style="fill:#be2624;stroke:#ffffff;stroke-width:13;stroke-miterlimit:10" />
	<path
   stroke-miterlimit="10"
   d="m 87.3,230.3 h 403.8 c 3.6,0 6.5,4.4 6.5,9.8 v 394 c 0,5.4 -2.9,9.8 -6.5,9.8 H 87.3 c -3.6,0 -6.5,-4.4 -6.5,-9.8 v -394 c 0.1,-5.4 3,-9.8 6.5,-9.8 z"
   id="path6"
   inkscape:connector-curvature="0"
   style="fill:none;stroke:#ffffff;stroke-width:15;stroke-miterlimit:10" />
	<path
   d="m 113,350.5 h 3.1 c 4.3,0 7.8,5.3 7.8,11.8 v 0 174.5 c 0,6.5 -3.5,11.8 -7.8,11.8 v 0 H 113 c -4.3,0 -7.8,-5.3 -7.8,-11.8 v 0 -174.4 c 0,-6.6 3.5,-11.9 7.8,-11.9 v 0"
   id="path8"
   inkscape:connector-curvature="0"
   style="fill:#ffffff" />
	<path
   d="m 456.9,564.1 33.6,-0.4 c 0,0 -0.9,-8.7 6.4,-8.7 7.3,0 6.4,8.6 6.4,8.6 l 8.8,-0.2 c 6,0 1.9,31.3 1.9,31.3 h -10.2 c -3.7,0 1.8,7.4 -6.7,7.4 -8.5,0 -1.6,-7.4 -7.6,-7.4 H 457 c -6,0 -10.8,-5.8 -10.8,-13 v -4.6 c -0.1,-7.1 4.7,-12.9 10.7,-13 z"
   id="path10"
   inkscape:connector-curvature="0"
   style="fill:#ffffff" />
	<path
   d="m 461.4,572.3 c 0,1.7 -1.4,3.1 -3.1,3.1 -1.7,0 -3.1,-1.4 -3.1,-3.1 0,-1.7 1.4,-3.1 3.1,-3.1 1.7,0 3.1,1.4 3.1,3.1"
   id="path12"
   inkscape:connector-curvature="0"
   style="fill:#be2624" />
	<path
   d="m 461.4,586.3 c 0,1.7 -1.4,3.1 -3.1,3.1 -1.7,0 -3.1,-1.4 -3.1,-3.1 0,-1.7 1.4,-3.1 3.1,-3.1 1.7,0 3.1,1.3 3.1,3.1"
   id="path14"
   inkscape:connector-curvature="0"
   style="fill:#be2624" />
	<path
   d="m 456.3,326.7 33.6,-0.4 c 0,0 -0.9,-8.7 6.4,-8.7 7.3,0 6.4,8.6 6.4,8.6 l 8.8,-0.2 c 6,0 1.9,31.3 1.9,31.3 h -10.2 c -3.7,0 1.8,7.4 -6.7,7.4 -8.5,0 -1.6,-7.4 -7.6,-7.4 h -32.5 c -6,0 -10.8,-5.8 -10.8,-13 v -4.6 c -0.1,-7.2 4.7,-12.9 10.7,-13 z"
   id="path16"
   inkscape:connector-curvature="0"
   style="fill:#ffffff" />
	<path
   d="m 460.9,334.9 c 0,1.7 -1.4,3.1 -3.1,3.1 -1.7,0 -3.1,-1.4 -3.1,-3.1 0,-1.7 1.4,-3.1 3.1,-3.1 1.7,0 3.1,1.3 3.1,3.1"
   id="path18"
   inkscape:connector-curvature="0"
   style="fill:#be2624" />
	<path
   d="m 460.9,348.8 c 0,1.7 -1.4,3.1 -3.1,3.1 -1.7,0 -3.1,-1.4 -3.1,-3.1 0,-1.7 1.4,-3.1 3.1,-3.1 1.7,0 3.1,1.4 3.1,3.1"
   id="path20"
   inkscape:connector-curvature="0"
   style="fill:#be2624" />
	<g
   transform="matrix(0.20491,0,0,0.20491,-7.6478,754.21745)"
   id="g34">
		<path
   d="m 765,-1047.4 -16.1,-27.9 c -8,-13.9 2.5,-35.1 23.6,-47.2 v 0 l 628.8,-363 c 21.1,-12.2 44.7,-10.7 52.7,3.2 v 0 l 16.1,27.9 c 8,13.9 -2.5,35.1 -23.6,47.2 v 0 l -628.8,363 c -21.1,12.1 -44.7,10.7 -52.7,-3.2 v 0"
   id="path22"
   inkscape:connector-curvature="0"
   style="fill:#ffffff" />
		<g
   id="g32">
			<path
   d="m 2259.7,-1065.9 -16.1,27.9 c -8,13.9 -31.6,15.3 -52.7,3.2 v 0 l -628.8,-363 c -21.1,-12.2 -31.6,-33.3 -23.6,-47.2 v 0 l 16.1,-27.9 c 8,-13.9 31.6,-15.3 52.7,-3.2 v 0 l 628.8,363 c 21.1,12.2 31.6,33.3 23.6,47.2 v 0"
   id="path24"
   inkscape:connector-curvature="0"
   style="fill:#ffffff" />
			<path
   d="m 1496.1,-1850.6 c -206.1,0 -373.2,167.1 -373.2,373.2 0,206.1 167.1,373.2 373.2,373.2 206.1,0 373.2,-167.1 373.2,-373.2 v -3 c -1.6,-204.9 -168.2,-370.2 -373.2,-370.2 z m 4.1,126.1 c 133.4,0 241.9,107.6 243,241 v 2 c 0,134.2 -108.8,243 -243,243 -134.2,0 -243,-108.8 -243,-243 0,-134.2 108.8,-243 243,-243 z"
   id="path26"
   inkscape:connector-curvature="0"
   style="fill:#ffffff" />
			<path
   d="m 1639.4,-1481.6 c 0,74.9 -60.8,135.7 -135.7,135.7 -74.9,0 -135.7,-60.8 -135.7,-135.7 0,-74.9 60.8,-135.7 135.7,-135.7 74.5,0 135.1,60.1 135.7,134.6"
   id="path28"
   inkscape:connector-curvature="0"
   style="fill:#ffffff" />
			<path
   d="m 1487.6,-2368.9 h 32.3 c 16.1,0 29.1,19.7 29.1,44.1 v 0 726.1 c 0,24.3 -13,44.1 -29.1,44.1 h -32.3 c -16.1,0 -29.1,-19.7 -29.1,-44.1 v 0 -726.1 c 0,-24.3 13,-44.1 29.1,-44.1"
   id="path30"
   inkscape:connector-curvature="0"
   style="fill:#ffffff" />
		</g>
	</g>
</g>
</svg>