<svg xmlns="http://www.w3.org/2000/svg" viewBox="409 2286 120 128.6"><defs><style>.a{fill:#79a1e8;}.b{fill:#473cba;}.c{fill:#d7ecf9;}.d{fill:#b3d4e5;}.e{fill:#f9d015;}.f{fill:#fbb03b;}.g{fill:#4b31aa;}.h{fill:#f7931e;}.i{fill:#fff;}.j{fill:#cfddf7;}</style></defs><g transform="translate(391.879 2286)"><path class="a" d="M53.062,63.143c-6.209,6.234-6.23,13.673,7.857,23.512,15.988,11.166,52.538-12.543,66.614-6.619s48,.143,26.652-33c-16.752-26-6.44-43.311-33.309-46.731S67.133,22.6,68.132,40.537,58.831,57.351,53.062,63.143Z" transform="translate(-23.938 0)"/><path class="b" d="M109.684,154.818H44.7a6.383,6.383,0,0,1-6.383-6.383V83.244A6.383,6.383,0,0,1,44.7,76.861h64.983a6.383,6.383,0,0,1,6.383,6.383v65.191A6.382,6.382,0,0,1,109.684,154.818Z" transform="translate(-15.873 -57.556)"/><path class="c" d="M92.487,154.818H27.5a6.383,6.383,0,0,1-6.383-6.383V83.244A6.383,6.383,0,0,1,27.5,76.861H92.487a6.383,6.383,0,0,1,6.383,6.383v65.191A6.382,6.382,0,0,1,92.487,154.818Z" transform="translate(-2.995 -57.556)"/><path class="d" d="M92.488,76.861H91.006L21.122,146.745v1.69a6.383,6.383,0,0,0,6.383,6.383H92.488a6.383,6.383,0,0,0,6.383-6.383V83.244A6.383,6.383,0,0,0,92.488,76.861Z" transform="translate(-2.996 -57.556)"/><path class="e" d="M98.869,83.244a6.383,6.383,0,0,0-6.383-6.383H27.5a6.383,6.383,0,0,0-6.383,6.383v4.25H98.869Z" transform="translate(-2.995 -57.556)"/><path class="f" d="M275.518,83.244a6.383,6.383,0,0,0-6.383-6.383h-1.482L257.021,87.493h18.5v-4.25Z" transform="translate(-179.644 -57.556)"/><g transform="translate(17.121 18.3)"><path class="g" d="M93.811,72.86h-69.3a7.4,7.4,0,0,0-7.388,7.387v65.191a7.4,7.4,0,0,0,7.388,7.387h69.3a7.4,7.4,0,0,0,7.387-7.387V80.247A7.4,7.4,0,0,0,93.811,72.86ZM19.13,80.247a5.384,5.384,0,0,1,5.378-5.378H89.491a5.384,5.384,0,0,1,5.378,5.378v3.245H19.13Zm5.378,70.569a5.384,5.384,0,0,1-5.378-5.378V85.5H94.869v59.937a5.384,5.384,0,0,1-5.378,5.378Zm74.68-5.378a5.381,5.381,0,0,1-4.57,5.31,7.364,7.364,0,0,0,2.26-5.31V80.247a7.364,7.364,0,0,0-2.26-5.31,5.381,5.381,0,0,1,4.57,5.31Z" transform="translate(-17.121 -72.86)"/><path class="g" d="M45,90.058a2.084,2.084,0,1,0,2.084,2.084A2.087,2.087,0,0,0,45,90.058Z" transform="translate(-36.438 -85.738)"/><path class="g" d="M70.8,90.058a2.084,2.084,0,1,0,2.084,2.084A2.087,2.087,0,0,0,70.8,90.058Z" transform="translate(-55.753 -85.738)"/><path class="g" d="M96.59,90.058a2.084,2.084,0,1,0,2.085,2.084A2.087,2.087,0,0,0,96.59,90.058Z" transform="translate(-75.069 -85.738)"/></g><path class="a" d="M83.682,203.041H58.9a4.354,4.354,0,0,1-4.354-4.354h0a4.354,4.354,0,0,1,4.354-4.354H83.682a4.354,4.354,0,0,1,4.354,4.354h0A4.354,4.354,0,0,1,83.682,203.041Z" transform="translate(-28.025 -145.523)"/><path class="g" d="M80.687,201.05H55.9a5.358,5.358,0,0,1,0-10.717H80.687a5.358,5.358,0,0,1,0,10.717ZM55.9,192.342a3.349,3.349,0,0,0,0,6.7H80.687a3.349,3.349,0,0,0,0-6.7Z" transform="translate(-25.03 -142.527)"/><path class="a" d="M83.682,252.374H58.9a4.354,4.354,0,0,1-4.354-4.354h0a4.353,4.353,0,0,1,4.354-4.354H83.682a4.353,4.353,0,0,1,4.354,4.354h0A4.354,4.354,0,0,1,83.682,252.374Z" transform="translate(-28.025 -182.465)"/><path class="g" d="M80.687,250.384H55.9a5.358,5.358,0,1,1,0-10.717H80.687a5.358,5.358,0,0,1,0,10.717ZM55.9,241.676a3.349,3.349,0,1,0,0,6.7H80.687a3.349,3.349,0,1,0,0-6.7Z" transform="translate(-25.03 -179.469)"/><path class="h" d="M123.45,299.919H110.641a3.267,3.267,0,0,1-3.267-3.267h0a3.267,3.267,0,0,1,3.267-3.267H123.45a3.266,3.266,0,0,1,3.267,3.267h0A3.266,3.266,0,0,1,123.45,299.919Z" transform="translate(-67.584 -219.696)"/><g transform="translate(30.038 52.244)"><path class="g" d="M120.455,297.928H107.646a4.271,4.271,0,0,1,0-8.543h12.809a4.271,4.271,0,1,1,0,8.543Zm-12.809-6.534a2.262,2.262,0,0,0,0,4.524h12.809a2.262,2.262,0,1,0,0-4.524Z" transform="translate(-94.627 -268.943)"/><path class="g" d="M84.454,210.009h-14.9a1,1,0,1,1,0-2.009h14.9a1,1,0,1,1,0,2.009Z" transform="translate(-68.546 -208)"/><path class="g" d="M69.7,259.259h-.146a1,1,0,0,1,0-2.009H69.7a1,1,0,0,1,0,2.009Z" transform="translate(-68.546 -244.88)"/><path class="g" d="M85.763,259.259h-.146a1,1,0,0,1,0-2.009h.146a1,1,0,0,1,0,2.009Z" transform="translate(-80.577 -244.88)"/><path class="g" d="M101.829,259.259h-.147a1,1,0,0,1,0-2.009h.147a1,1,0,0,1,0,2.009Z" transform="translate(-92.607 -244.88)"/><path class="g" d="M117.9,259.259h-.147a1,1,0,0,1,0-2.009h.147a1,1,0,0,1,0,2.009Z" transform="translate(-104.639 -244.88)"/><path class="g" d="M133.963,259.259h-.146a1,1,0,1,1,0-2.009h.146a1,1,0,0,1,0,2.009Z" transform="translate(-116.67 -244.88)"/><path class="g" d="M150.03,259.259h-.146a1,1,0,0,1,0-2.009h.146a1,1,0,0,1,0,2.009Z" transform="translate(-128.702 -244.88)"/></g><g transform="translate(18.818 69.513)"><ellipse class="b" cx="20.345" cy="2.32" rx="20.345" ry="2.32" transform="translate(60.686 54.448)"/><ellipse class="b" cx="39.637" cy="2.009" rx="39.637" ry="2.009" transform="translate(0 37.487)"/><path class="b" d="M310.986,318.433h-33.2a5.061,5.061,0,0,1-5.061-5.061V276.754h43.325v36.618A5.061,5.061,0,0,1,310.986,318.433Z" transform="translate(-210.22 -276.754)"/></g><path class="i" d="M283.581,318.433h-33.2a5.061,5.061,0,0,1-5.061-5.061V276.754h43.325v36.618A5.061,5.061,0,0,1,283.581,318.433Z" transform="translate(-170.88 -207.241)"/><path class="j" d="M281.858,276.754l-36.539,36.539v.079a5.061,5.061,0,0,0,5.061,5.061h33.2a5.061,5.061,0,0,0,5.061-5.061V276.754Z" transform="translate(-170.881 -207.241)"/><path class="b" d="M299.641,153.99h0a15.221,15.221,0,0,0-15.221,15.221v15.615h6.973V169.3a8.248,8.248,0,0,1,8.248-8.248h0a8.248,8.248,0,0,1,8.248,8.248v15.524h6.973V169.211A15.221,15.221,0,0,0,299.641,153.99Z" transform="translate(-200.161 -115.312)"/><path class="f" d="M291.975,153.99h0a15.221,15.221,0,0,0-15.221,15.221v15.615h6.973V169.3a8.248,8.248,0,0,1,8.248-8.248h0a8.248,8.248,0,0,1,8.248,8.248v15.524H307.2V169.211A15.221,15.221,0,0,0,291.975,153.99Z" transform="translate(-194.42 -115.312)"/><path class="g" d="M287.469,224.513a6.073,6.073,0,0,0,6.066-6.066V181.829a1,1,0,0,0-1-1h-8.941v-14.61a16.244,16.244,0,0,0-16.225-16.226h-1.925a16.244,16.244,0,0,0-16.226,16.226v14.61h-6.891a1,1,0,0,0-1,1v36.618a6.073,6.073,0,0,0,6.066,6.066Zm-21.061-72.487a14.241,14.241,0,0,1,13.246,14.189v14.61h-4.963V166.3a9.109,9.109,0,0,0-5.6-8.5,9.245,9.245,0,0,0-3.652-.753,9.342,9.342,0,0,0-9.252,9.252v14.52h-4.964v-14.61a14.224,14.224,0,0,1,13.517-14.189ZM260.121,166.3a6.336,6.336,0,1,1,12.561,0v14.52H260.121Zm24.521,16.529v35.613a4.061,4.061,0,0,1-4.057,4.056h-33.2a4.061,4.061,0,0,1-4.056-4.056V182.834Zm6.883,35.613a4.061,4.061,0,0,1-4.056,4.056h-2.378a6.041,6.041,0,0,0,1.561-4.056V182.834h4.874Z" transform="translate(-167.884 -112.316)"/><path class="e" d="M293.228,341.356H271.444a5.434,5.434,0,0,1-5.434-5.434h0a5.434,5.434,0,0,1,5.434-5.434h21.784a5.434,5.434,0,0,1,5.434,5.434h0A5.434,5.434,0,0,1,293.228,341.356Z" transform="translate(-186.375 -247.479)"/><path class="f" d="M314.028,330.487h-9.373l-10.868,10.868h20.241a5.434,5.434,0,1,0,0-10.868Z" transform="translate(-207.175 -247.478)"/><g transform="translate(78.631 82.004)"><path class="g" d="M290.233,339.365H268.449a6.439,6.439,0,1,1,0-12.878h21.784a6.439,6.439,0,1,1,0,12.878ZM268.449,328.5a4.43,4.43,0,1,0,0,8.859h21.784a4.43,4.43,0,1,0,0-8.859Z" transform="translate(-262.01 -326.487)"/><path class="g" d="M285.173,344.87l-.5-.289.5-.289a.753.753,0,0,0-.754-1.305l-.5.289V342.7a.754.754,0,0,0-1.507,0v.579l-.5-.289a.753.753,0,1,0-.754,1.305l.5.289-.5.289a.753.753,0,1,0,.754,1.305l.5-.289v.579a.754.754,0,0,0,1.507,0v-.579l.5.289a.753.753,0,1,0,.754-1.305Z" transform="translate(-276.066 -338.061)"/><path class="g" d="M312.222,344.87l-.5-.289.5-.289a.753.753,0,1,0-.754-1.305l-.5.289V342.7a.754.754,0,0,0-1.507,0v.579l-.5-.289a.753.753,0,1,0-.754,1.305l.5.289-.5.289a.754.754,0,1,0,.754,1.305l.5-.289v.579a.754.754,0,0,0,1.507,0v-.579l.5.289a.753.753,0,1,0,.753-1.305Z" transform="translate(-296.321 -338.061)"/><path class="g" d="M339.271,344.87l-.5-.289.5-.289a.754.754,0,0,0-.754-1.305l-.5.289V342.7a.754.754,0,0,0-1.507,0v.579l-.5-.289a.753.753,0,1,0-.754,1.305l.5.289-.5.289a.753.753,0,1,0,.754,1.305l.5-.289v.579a.754.754,0,0,0,1.507,0v-.579l.5.289a.754.754,0,1,0,.754-1.305Z" transform="translate(-316.576 -338.061)"/><path class="g" d="M366.32,344.87l-.5-.289.5-.289a.753.753,0,0,0-.754-1.305l-.5.289V342.7a.754.754,0,1,0-1.507,0v.579l-.5-.289a.754.754,0,0,0-.754,1.305l.5.289-.5.289a.754.754,0,1,0,.754,1.305l.5-.289v.579a.754.754,0,0,0,1.507,0v-.579l.5.289a.753.753,0,0,0,.754-1.305Z" transform="translate(-336.831 -338.061)"/></g></g></svg>