<?xml version="1.0" encoding="UTF-8" standalone="no"?>
<!-- Generator: Adobe Illustrator 19.0.0, SVG Export Plug-In . SVG Version: 6.00 Build 0)  -->

<svg
   xmlns:dc="http://purl.org/dc/elements/1.1/"
   xmlns:cc="http://creativecommons.org/ns#"
   xmlns:rdf="http://www.w3.org/1999/02/22-rdf-syntax-ns#"
   xmlns:svg="http://www.w3.org/2000/svg"
   xmlns="http://www.w3.org/2000/svg"
   xmlns:sodipodi="http://sodipodi.sourceforge.net/DTD/sodipodi-0.dtd"
   xmlns:inkscape="http://www.inkscape.org/namespaces/inkscape"
   version="1.1"
   id="Layer_1"
   x="0px"
   y="0px"
   viewBox="0 0 512 512"
   style="enable-background:new 0 0 512 512;"
   xml:space="preserve"
   sodipodi:docname="loli.svg"
   inkscape:version="0.92.3 (2405546, 2018-03-11)"><metadata
   id="metadata49"><rdf:RDF><cc:Work
       rdf:about=""><dc:format>image/svg+xml</dc:format><dc:type
         rdf:resource="http://purl.org/dc/dcmitype/StillImage" /></cc:Work></rdf:RDF></metadata><defs
   id="defs47" /><sodipodi:namedview
   pagecolor="#ffffff"
   bordercolor="#666666"
   borderopacity="1"
   objecttolerance="10"
   gridtolerance="10"
   guidetolerance="10"
   inkscape:pageopacity="0"
   inkscape:pageshadow="2"
   inkscape:window-width="1920"
   inkscape:window-height="1025"
   id="namedview45"
   showgrid="false"
   inkscape:zoom="0.4609375"
   inkscape:cx="-1.0847458"
   inkscape:cy="102.83245"
   inkscape:window-x="0"
   inkscape:window-y="27"
   inkscape:window-maximized="1"
   inkscape:current-layer="Layer_1" />
<g
   id="g6"
   style="fill:#ffffff">
	<g
   id="g4"
   style="fill:#ffffff">
		<path
   d="M352.063,39.727c-52.969-52.969-139.156-52.969-192.126,0c-13.13,13.13-23,28.3-29.621,44.5    c1.603,15.288,8.325,29.457,19.347,40.478c26.26,26.26,68.993,26.26,95.254,0c0.003-0.004,0.007-0.007,0.011-0.01    c38.486-38.475,101.098-38.472,139.579,0.01c2.596,2.596,5.003,5.311,7.248,8.111C391.021,99.025,377.793,65.458,352.063,39.727z"
   id="path2"
   style="fill:#ffffff" />
	</g>
</g>
<g
   id="g12"
   style="fill:#ffffff">
	<g
   id="g10"
   style="fill:#ffffff">
		<path
   d="M362.339,146.874c-12.722-12.722-29.637-19.727-47.627-19.727c-17.99,0-34.903,7.004-47.624,19.725    c-0.001,0-0.003,0.002-0.003,0.002c-19.24,19.24-44.521,28.863-69.795,28.864c-25.278,0.003-50.55-9.618-69.795-28.864    c-2.58-2.58-4.993-5.283-7.248-8.085c0.74,33.783,13.968,67.341,39.692,93.065c22.499,22.499,50.993,35.436,80.388,38.822v225.65    c0,8.657,7.018,15.675,15.675,15.675c8.657-0.001,15.675-7.018,15.675-15.675V270.674c29.395-3.385,57.888-16.321,80.388-38.821    c13.11-13.11,22.969-28.255,29.589-44.427C380.101,172.607,373.671,158.206,362.339,146.874z"
   id="path8"
   style="fill:#ffffff" />
	</g>
</g>
<g
   id="g14">
</g>
<g
   id="g16">
</g>
<g
   id="g18">
</g>
<g
   id="g20">
</g>
<g
   id="g22">
</g>
<g
   id="g24">
</g>
<g
   id="g26">
</g>
<g
   id="g28">
</g>
<g
   id="g30">
</g>
<g
   id="g32">
</g>
<g
   id="g34">
</g>
<g
   id="g36">
</g>
<g
   id="g38">
</g>
<g
   id="g40">
</g>
<g
   id="g42">
</g>
</svg>