<?xml version="1.0" encoding="UTF-8" standalone="no"?>
<svg
   xmlns:dc="http://purl.org/dc/elements/1.1/"
   xmlns:cc="http://creativecommons.org/ns#"
   xmlns:rdf="http://www.w3.org/1999/02/22-rdf-syntax-ns#"
   xmlns:svg="http://www.w3.org/2000/svg"
   xmlns="http://www.w3.org/2000/svg"
   xmlns:sodipodi="http://sodipodi.sourceforge.net/DTD/sodipodi-0.dtd"
   xmlns:inkscape="http://www.inkscape.org/namespaces/inkscape"
   version="1.1"
   width="24"
   height="24"
   viewBox="0 0 24 24"
   id="svg4"
   sodipodi:docname="zoo.svg"
   inkscape:version="0.92.3 (2405546, 2018-03-11)">
  <metadata
     id="metadata10">
    <rdf:RDF>
      <cc:Work
         rdf:about="">
        <dc:format>image/svg+xml</dc:format>
        <dc:type
           rdf:resource="http://purl.org/dc/dcmitype/StillImage" />
      </cc:Work>
    </rdf:RDF>
  </metadata>
  <defs
     id="defs8" />
  <sodipodi:namedview
     pagecolor="#ffffff"
     bordercolor="#666666"
     borderopacity="1"
     objecttolerance="10"
     gridtolerance="10"
     guidetolerance="10"
     inkscape:pageopacity="0"
     inkscape:pageshadow="2"
     inkscape:window-width="1920"
     inkscape:window-height="1025"
     id="namedview6"
     showgrid="false"
     inkscape:zoom="9.8333333"
     inkscape:cx="8.5348123"
     inkscape:cy="9.0015198"
     inkscape:window-x="0"
     inkscape:window-y="27"
     inkscape:window-maximized="1"
     inkscape:current-layer="svg4" />
  <path
     d="M8.35,3C9.53,2.83 10.78,4.12 11.14,5.9C11.5,7.67 10.85,9.25 9.67,9.43C8.5,9.61 7.24,8.32 6.87,6.54C6.5,4.77 7.17,3.19 8.35,3M15.5,3C16.69,3.19 17.35,4.77 17,6.54C16.62,8.32 15.37,9.61 14.19,9.43C13,9.25 12.35,7.67 12.72,5.9C13.08,4.12 14.33,2.83 15.5,3M3,7.6C4.14,7.11 5.69,8 6.5,9.55C7.26,11.13 7,12.79 5.87,13.28C4.74,13.77 3.2,12.89 2.41,11.32C1.62,9.75 1.9,8.08 3,7.6M21,7.6C22.1,8.08 22.38,9.75 21.59,11.32C20.8,12.89 19.26,13.77 18.13,13.28C17,12.79 16.74,11.13 17.5,9.55C18.31,8 19.86,7.11 21,7.6M19.33,18.38C19.37,19.32 18.65,20.36 17.79,20.75C16,21.57 13.88,19.87 11.89,19.87C9.9,19.87 7.76,21.64 6,20.75C5,20.26 4.31,18.96 4.44,17.88C4.62,16.39 6.41,15.59 7.47,14.5C8.88,13.09 9.88,10.44 11.89,10.44C13.89,10.44 14.95,13.05 16.3,14.5C17.41,15.72 19.26,16.75 19.33,18.38Z"
     id="path2"
     style="fill:#ccffaa" />
</svg>
