<?xml version="1.0" encoding="UTF-8" ?>
<!DOCTYPE svg PUBLIC "-//W3C//DTD SVG 1.1//EN" "http://www.w3.org/Graphics/SVG/1.1/DTD/svg11.dtd">
<svg width="293px" height="31px" viewBox="0 0 293 31" version="1.1" xmlns="http://www.w3.org/2000/svg">
<g id="#0000000b">
</g>
<g id="#fcfcfcff">
<path fill="#fcfcfc" opacity="1.00" d=" M 4.32 3.65 C 18.12 3.88 31.98 3.29 45.76 3.94 C 48.33 7.24 48.28 13.75 45.76 17.11 C 33.48 17.53 21.17 17.14 8.88 17.29 C 8.86 20.48 8.85 23.68 8.90 26.87 C 7.39 26.88 5.87 26.89 4.36 26.90 C 4.40 19.15 4.47 11.40 4.32 3.65 M 8.88 8.70 C 8.86 10.03 8.86 11.36 8.88 12.69 C 19.55 12.68 30.23 12.71 40.90 12.68 C 43.37 13.00 43.57 8.98 41.17 8.76 C 30.41 8.59 19.64 8.75 8.88 8.70 Z" />
<path fill="#fcfcfc" opacity="1.00" d=" M 52.25 3.74 C 66.60 3.75 80.94 3.78 95.29 3.73 C 95.29 5.39 95.29 7.06 95.30 8.72 C 82.57 8.63 69.84 8.78 57.11 8.64 C 57.02 9.99 56.90 11.33 56.78 12.68 C 69.62 12.69 82.46 12.71 95.31 12.67 C 95.30 14.22 95.30 15.76 95.30 17.31 C 82.49 17.25 69.69 17.28 56.88 17.30 C 56.86 18.64 56.85 19.99 56.85 21.33 C 69.67 21.35 82.49 21.36 95.31 21.33 C 95.29 23.18 95.29 25.03 95.30 26.88 C 80.97 26.85 66.64 26.83 52.31 26.89 C 52.33 19.18 52.43 11.46 52.25 3.74 Z" />
<path fill="#fcfcfc" opacity="1.00" d=" M 100.03 3.76 C 101.61 3.75 103.20 3.74 104.79 3.73 C 104.68 6.72 104.67 9.70 104.68 12.68 C 116.04 12.70 127.40 12.70 138.75 12.68 C 138.78 9.73 138.76 6.77 138.74 3.81 C 140.27 3.81 141.80 3.81 143.33 3.81 C 143.28 11.50 143.28 19.20 143.33 26.89 C 141.79 26.88 140.26 26.88 138.73 26.87 C 138.77 23.67 138.77 20.48 138.76 17.29 C 127.40 17.28 116.04 17.26 104.68 17.30 C 104.68 20.49 104.68 23.69 104.74 26.88 C 103.20 26.88 101.66 26.88 100.13 26.88 C 100.14 19.18 100.31 11.46 100.03 3.76 Z" />
<path fill="#fcfcfc" opacity="1.00" d=" M 148.04 3.75 C 162.42 3.75 176.80 3.76 191.18 3.74 C 191.18 5.40 191.18 7.06 191.18 8.72 C 184.72 8.67 178.26 8.70 171.80 8.70 C 171.83 14.75 171.79 20.81 171.85 26.87 C 170.30 26.87 168.74 26.88 167.19 26.88 C 167.28 20.82 167.23 14.75 167.24 8.68 C 160.84 8.71 154.44 8.69 148.05 8.70 C 148.06 7.05 148.06 5.40 148.04 3.75 Z" />
<path fill="#fcfcfc" opacity="1.00" d=" M 195.91 26.85 C 196.92 19.37 193.65 10.37 198.01 3.88 C 210.98 3.53 224.03 3.53 237.00 3.88 C 241.55 10.26 238.02 19.39 239.13 26.87 C 237.58 26.88 236.02 26.89 234.47 26.89 C 234.23 21.25 235.08 15.39 234.11 9.88 C 230.18 7.20 224.38 9.41 219.72 8.70 C 219.74 14.71 219.65 20.71 219.79 26.72 C 218.23 26.78 216.68 26.86 215.12 26.93 C 215.16 20.85 215.15 14.77 215.14 8.69 C 210.54 9.42 204.73 7.17 200.94 9.92 C 200.38 15.54 200.85 21.24 200.76 26.89 C 199.14 26.88 197.53 26.86 195.91 26.85 Z" />
<path fill="#fcfcfc" opacity="1.00" d=" M 243.91 3.74 C 245.47 3.74 247.03 3.74 248.59 3.74 C 248.45 9.65 248.53 15.56 248.51 21.48 C 261.38 21.51 274.24 21.51 287.11 21.47 C 287.10 23.27 287.10 25.06 287.10 26.86 C 272.70 26.87 258.31 26.84 243.91 26.87 C 243.90 19.16 243.90 11.45 243.91 3.74 Z" />
</g>
</svg>
