<?xml version="1.0" encoding="UTF-8" standalone="no"?>
<svg
   xmlns:dc="http://purl.org/dc/elements/1.1/"
   xmlns:cc="http://creativecommons.org/ns#"
   xmlns:rdf="http://www.w3.org/1999/02/22-rdf-syntax-ns#"
   xmlns:svg="http://www.w3.org/2000/svg"
   xmlns="http://www.w3.org/2000/svg"
   xmlns:sodipodi="http://sodipodi.sourceforge.net/DTD/sodipodi-0.dtd"
   xmlns:inkscape="http://www.inkscape.org/namespaces/inkscape"
   height="288"
   width="288"
   version="1.1"
   id="svg6"
   sodipodi:docname="favicon.svg"
   inkscape:version="0.92.5 (2060ec1f9f, 2020-04-08)">
  <metadata
     id="metadata12">
    <rdf:RDF>
      <cc:Work
         rdf:about="">
        <dc:format>image/svg+xml</dc:format>
        <dc:type
           rdf:resource="http://purl.org/dc/dcmitype/StillImage" />
      </cc:Work>
    </rdf:RDF>
  </metadata>
  <defs
     id="defs10">
    <filter
       style="color-interpolation-filters:sRGB;"
       inkscape:label="Drop Shadow"
       id="filter1072">
      <feFlood
         flood-opacity="0.498039"
         flood-color="rgb(0,0,0)"
         result="flood"
         id="feFlood1062" />
      <feComposite
         in="flood"
         in2="SourceGraphic"
         operator="out"
         result="composite1"
         id="feComposite1064" />
      <feGaussianBlur
         in="composite1"
         stdDeviation="10"
         result="blur"
         id="feGaussianBlur1066" />
      <feOffset
         dx="4.57967e-15"
         dy="4.57967e-15"
         result="offset"
         id="feOffset1068" />
      <feComposite
         in="offset"
         in2="SourceGraphic"
         operator="atop"
         result="composite2"
         id="feComposite1070" />
    </filter>
  </defs>
  <sodipodi:namedview
     pagecolor="#ffffff"
     bordercolor="#666666"
     borderopacity="1"
     objecttolerance="10"
     gridtolerance="10"
     guidetolerance="10"
     inkscape:pageopacity="0"
     inkscape:pageshadow="2"
     inkscape:window-width="768"
     inkscape:window-height="480"
     id="namedview8"
     showgrid="false"
     inkscape:zoom="0.81944444"
     inkscape:cx="144"
     inkscape:cy="144"
     inkscape:window-x="0"
     inkscape:window-y="0"
     inkscape:window-maximized="0"
     inkscape:current-layer="svg6" />
  <svg
     enable-background="new 0 0 537.993 537.993"
     height="288"
     viewBox="0 0 537.993 537.993"
     width="288"
     version="1.1"
     id="svg4"
     style="filter:url(#filter1072)">
    <path
       d="m535.892 69.273c-1.147-7.46-7.924-12.77-15.396-12.135-18.883 1.568-36.254 5.171-53.12 11.036-26.556 9.215-50.526 22.663-71.3 39.987l-.308-.086c-14.421-3.867-29.328-7.866-44.305-11.164-22.579-4.957-45.793-7.843-68.993-8.569-21.208-.665-43.206.343-67.381 3.097-24.638 2.791-49.336 8.058-73.413 15.628-.21.065-.397.119-.567.166-1.97-1.857-3.953-3.192-5.603-4.301-.621-.429-1.265-.84-1.849-1.304-21.19-16.97-46.129-29.802-74.134-38.137-13.444-4.004-26.71-6.356-40.545-7.206-7.178-.46-13.558 4.47-14.967 11.506-.182.913-.383 1.801-.574 2.681-.497 2.28-1.013 4.632-1.363 7.236-3.068 22.953-2.728 46.419.99 69.745 4.587 28.742 13.229 55.232 25.692 78.808-6.198 14.209-10.097 30.103-11.889 48.472-3.624 37.075 3.206 72.854 20.302 106.335 13.562 26.546 33.085 49.106 58.047 67.047 22.906 16.461 44.463 24.021 70.319 31.83 25.86 7.812 52.794-18.394 103.458-18.053 47.781.304 59.902 19.845 93.234 19.845 0 0 1.218-.275 1.204-.275 18.337-5.021 34.737-11.397 50.143-19.49 27.872-14.626 51.054-34.909 68.896-60.294 19.695-28.012 31.298-59.897 34.504-94.77 2.525-27.56-1.115-54.252-10.889-79.539l1.956-4.331c5.596-12.405 11.383-25.219 16.186-38.447 7.761-21.406 12.134-44.354 13.366-70.146.573-12.12.904-28.212-1.701-45.172zm-307.604 270.333s-55.298 5.619-85.933-25.015c-30.635-30.645-25.013-85.936-25.013-85.936s55.293-5.612 85.928 25.022c30.639 30.634 25.018 85.929 25.018 85.929zm172.963-25.015c-30.635 30.634-85.93 25.015-85.93 25.015s-5.614-55.295 25.02-85.928c30.631-30.635 85.926-25.022 85.926-25.022s5.624 55.301-25.016 85.935z"
       fill="#fff"
       id="path2" />
  </svg>
</svg>
