<svg enable-background="new 0 0 92.001 92.001" viewBox="0 0 92.001 92.001" xmlns="http://www.w3.org/2000/svg" xmlns:xlink="http://www.w3.org/1999/xlink"><filter id="a" color-interpolation-filters="sRGB"><feColorMatrix result="color1" type="hueRotate" values="180"/><feColorMatrix result="fbSourceGraphic" values="-1 0 0 0 1 0 -1 0 0 1 0 0 -1 0 1 -0.21 -0.72 -0.07 2 0"/><feColorMatrix in="fbSourceGraphic" result="fbSourceGraphicAlpha" values="0 0 0 -1 0 0 0 0 -1 0 0 0 0 -1 0 0 0 0 1 0"/><feColorMatrix in="fbSourceGraphic" result="color1" type="hueRotate" values="180"/><feColorMatrix result="color2" values="-1 0 0 0 1 0 -1 0 0 1 0 0 -1 0 1 -0.21 -0.72 -0.07 2 0"/></filter><g filter="url(#a)"><path d="m22.366 30.569c1.004 0 1.974.152 2.887.434 3.448-3.864 7.271-7.379 11.411-10.5-.173-.731-.275-1.489-.275-2.274 0-1.084.184-2.125.51-3.1-4.637-3.328-9.682-6.12-15.047-8.279-5.031 3.109-9.418 7.162-12.914 11.912 2.596 4.596 5.682 8.883 9.189 12.784 1.284-.62 2.72-.977 4.239-.977zm-9.786 9.786c0-1.374.287-2.682.798-3.868-3.142-3.448-5.986-7.17-8.479-11.135-3.128 6.21-4.899 13.22-4.899 20.647 0 8.602 2.366 16.647 6.476 23.533 1.468-8.277 4.254-16.096 8.103-23.268-1.251-1.642-1.999-3.685-1.999-5.909zm33.596-31.914c2.585 0 4.929 1.009 6.678 2.646 5.106-2.197 10.485-3.881 16.078-4.958-6.752-3.891-14.578-6.129-22.932-6.129-5.694 0-11.146 1.043-16.18 2.936 3.996 1.972 7.803 4.276 11.385 6.873 1.458-.864 3.155-1.368 4.971-1.368zm14.636 46.097c.609-1.268 1.474-2.389 2.543-3.281-2.888-8.891-7.465-17.021-13.359-24.016-1.173.498-2.464.774-3.82.774-2.123 0-4.082-.684-5.686-1.832-3.547 2.696-6.83 5.719-9.815 9.018.932 1.497 1.479 3.261 1.479 5.154 0 1.023-.158 2.007-.448 2.933 8.585 5.736 18.463 9.668 29.106 11.25zm12.695 13.211c.135 1.853.206 3.723.206 5.609 0 3.321-.212 6.592-.612 9.805 7.799-5.698 13.739-13.787 16.734-23.193-3.547.858-7.188 1.471-10.902 1.828-.874 2.678-2.867 4.845-5.426 5.951zm-14.988-6.633c-11.354-1.881-21.883-6.213-31.046-12.421-1.487.912-3.232 1.449-5.105 1.449-.688 0-1.358-.073-2.007-.208-4.387 8.317-7.19 17.593-7.996 27.428 4.38 4.696 9.724 8.479 15.727 11.019 7.451-11.462 17.872-20.943 30.427-27.267zm18.361-49.21c-7.371.711-14.412 2.561-20.967 5.342.035.323.051.649.051.98 0 1.545-.368 3.001-1.005 4.301 6.548 7.688 11.635 16.648 14.846 26.456 3.979.071 7.382 2.509 8.845 5.971 4.428-.449 8.74-1.296 12.894-2.518.294-2.104.457-4.251.457-6.439 0-13.52-5.834-25.677-15.121-34.093zm-13.437 54.439c-11.72 5.49-21.519 13.945-28.616 24.282 3.577.893 7.318 1.374 11.173 1.374 6.939 0 13.514-1.546 19.413-4.297.948-4.637 1.45-9.433 1.45-14.346 0-1.775-.08-3.532-.213-5.273-1.183-.379-2.267-.973-3.207-1.74z" fill="#030104"/></g></svg>