<svg enable-background="new 0 0 1000 1000" viewBox="0 0 1000 1000" xmlns="http://www.w3.org/2000/svg" xmlns:xlink="http://www.w3.org/1999/xlink"><filter id="a" color-interpolation-filters="sRGB"><feColorMatrix result="color1" type="hueRotate" values="180"/><feColorMatrix result="fbSourceGraphic" values="-1 0 0 0 1 0 -1 0 0 1 0 0 -1 0 1 -0.21 -0.72 -0.07 2 0"/><feColorMatrix in="fbSourceGraphic" result="fbSourceGraphicAlpha" values="0 0 0 -1 0 0 0 0 -1 0 0 0 0 -1 0 0 0 0 1 0"/><feColorMatrix in="fbSourceGraphic" result="color1" type="hueRotate" values="180"/><feColorMatrix result="color2" values="-1 0 0 0 1 0 -1 0 0 1 0 0 -1 0 1 -0.21 -0.72 -0.07 2 0"/></filter><g filter="url(#a)"><path d="m391.2 649.9 245-122.5c22.5-11.3 22.5-43.5 0-54.8l-245-122.5c-20.4-10.2-44.3 4.6-44.3 27.4v245c0 22.8 23.9 37.5 44.3 27.4zm507.2-517.4h-796.8c-50.4 0-91.6 41.5-91.6 92.3v550.3c0 51 40.9 92.4 91.6 92.4h796.9c50.4 0 91.6-41.5 91.6-92.4v-550.3c-.1-51-41-92.3-91.7-92.3zm-704.6 642.8c0 17.1-13.1 30.9-30.9 30.9h-60.6c-17.1 0-30.9-13.1-30.9-30.9v-60.6c0-17.1 13.1-30.9 30.9-30.9h60.7c17 0 30.9 13.1 30.9 30.9v60.6zm0-245c0 17.1-13.1 30.9-30.9 30.9h-60.6c-17.1 0-30.9-13.1-30.9-30.9v-60.6c0-17.1 13.1-30.9 30.9-30.9h60.7c17 0 30.9 13.1 30.9 30.9v60.6zm0-245c0 17.1-13.1 30.9-30.9 30.9h-60.6c-17.1 0-30.9-13.1-30.9-30.9v-60.6c0-17.1 13.1-30.9 30.9-30.9h60.7c17 0 30.9 13.1 30.9 30.9v60.6zm551.2 521h-490v-612.6h490zm183.8-31c0 17.1-13.1 30.9-30.9 30.9h-60.7c-17 0-30.9-13.1-30.9-30.9v-60.6c0-17.1 13.1-30.9 30.9-30.9h60.7c17 0 30.9 13.1 30.9 30.9zm0-245c0 17.1-13.1 30.9-30.9 30.9h-60.7c-17 0-30.9-13.1-30.9-30.9v-60.6c0-17.1 13.1-30.9 30.9-30.9h60.7c17 0 30.9 13.1 30.9 30.9zm0-245c0 17.1-13.1 30.9-30.9 30.9h-60.7c-17 0-30.9-13.1-30.9-30.9v-60.6c0-17.1 13.1-30.9 30.9-30.9h60.7c17 0 30.9 13.1 30.9 30.9z"/></g></svg>