<svg xmlns="http://www.w3.org/2000/svg" width="986.79" height="60.53" viewBox="0 0 986.79 60.53"><defs><style>.a{fill:#fff;}</style></defs><title>logos</title><path class="a" d="M72.18,43.24a36.09,36.09,0,0,0,4.56-11l-8.18-2.33a38.57,38.57,0,0,1-2.24,6.29L55.15,22.51c-1.6-2-1.89-2.85-1.89-4.27,0-.67.29-2.69,3.55-2.79,4.34-.14,9.34,4.11,9.34,4.11l4.27-7.31s-5.82-4.9-13.06-4.9c-8,0-13,4.22-13,11,0,3.33,1.13,6,4.12,9.56-5.82,3.6-8.23,7.41-8.23,12.85,0,8,5.45,12.76,14.57,12.76a18.91,18.91,0,0,0,11.75-4.08l2.89,3.41H80ZM55.07,45.17c-3.76,0-5.92-1.72-5.92-4.7,0-2.46,1.31-4.26,4.6-6.27L61.18,43a9.78,9.78,0,0,1-6.12,2.13" transform="translate(0 0)"/><path class="a" d="M108.67,35.08c.76-.31,1.67-.72,2.36-1h0c3.85-2.1,7.62-6,7.73-12,.13-9-6.62-14.09-17.63-14.09H80.83V53h10.1V36.48h7.33s10.59,16.83,17.14,18.87L123,50.19a48.9,48.9,0,0,1-14.35-15.11M90.92,27.29V17.06h10.94c4.25,0,6.69,1.86,6.69,5s-2.83,5.21-6.5,5.21Z" transform="translate(0 0)"/><path class="a" d="M27.73,34.88v18H17.63v-18C12.16,26.46,5.47,16.29,0,7.88H12.29L22.84,25c3.48-5.66,7.27-11.58,10.69-17.18h12Z" transform="translate(0 0)"/><polygon class="a" points="560.85 50.66 563.2 53.01 578.89 53.01 581.25 50.66 578.89 48.31 563.2 48.31 560.85 50.66"/><polygon class="a" points="527.9 50.66 530.25 53.01 545.94 53.01 548.3 50.66 545.94 48.31 530.25 48.31 527.9 50.66"/><polygon class="a" points="496.52 9.87 498.88 12.22 514.57 12.22 516.92 9.87 514.57 7.51 498.88 7.51 496.52 9.87"/><polygon class="a" points="496.52 31.83 498.88 34.19 514.57 34.19 516.92 31.83 514.57 29.48 498.88 29.48 496.52 31.83"/><polygon class="a" points="617.33 31.83 619.68 34.19 635.38 34.19 637.73 31.83 635.38 29.48 619.68 29.48 617.33 31.83"/><polygon class="a" points="617.33 9.87 619.68 12.22 635.38 12.22 637.73 9.87 635.38 7.51 619.68 7.51 617.33 9.87"/><polygon class="a" points="650.28 50.66 652.63 53.01 668.32 53.01 670.68 50.66 668.32 48.31 652.63 48.31 650.28 50.66"/><polygon class="a" points="573.4 9.87 575.75 12.22 586.74 12.22 589.09 9.87 586.74 7.51 575.75 7.51 573.4 9.87"/><polygon class="a" points="590.66 9.87 593.01 12.22 604 12.22 606.35 9.87 604 7.51 593.01 7.51 590.66 9.87"/><polygon class="a" points="495.74 31.05 498.09 28.7 498.09 13.01 495.74 10.65 493.38 13.01 493.38 28.7 495.74 31.05"/><polygon class="a" points="517.7 31.05 520.06 28.7 520.06 13.01 517.7 10.65 515.35 13.01 515.35 28.7 517.7 31.05"/><polygon class="a" points="495.74 53.01 498.09 50.66 498.09 34.97 495.74 32.62 493.38 34.97 493.38 50.66 495.74 53.01"/><polygon class="a" points="527.12 29.48 529.47 27.13 529.47 9.87 527.12 7.51 524.76 9.87 524.76 27.13 527.12 29.48"/><polygon class="a" points="527.12 49.88 529.47 47.52 529.47 31.83 527.12 29.48 524.76 31.83 524.76 47.52 527.12 49.88"/><polygon class="a" points="549.08 49.88 551.43 47.52 551.43 31.83 549.08 29.48 546.73 31.83 546.73 47.52 549.08 49.88"/><polygon class="a" points="549.08 29.48 551.43 27.13 551.43 9.87 549.08 7.51 546.73 9.87 546.73 27.13 549.08 29.48"/><polygon class="a" points="560.07 49.88 562.42 47.52 562.42 31.83 560.07 29.48 557.71 31.83 557.71 47.52 560.07 49.88"/><polygon class="a" points="560.07 29.48 562.42 27.13 562.42 9.87 560.07 7.51 557.71 9.87 557.71 27.13 560.07 29.48"/><polygon class="a" points="589.88 53.01 592.23 50.66 592.23 34.97 589.88 32.62 587.52 34.97 587.52 50.66 589.88 53.01"/><polygon class="a" points="589.88 32.62 592.23 30.26 592.23 13.01 589.88 10.65 587.52 13.01 587.52 30.26 589.88 32.62"/><polygon class="a" points="616.55 31.05 618.9 28.7 618.9 13.01 616.55 10.65 614.19 13.01 614.19 28.7 616.55 31.05"/><polygon class="a" points="616.55 53.01 618.9 51.45 618.9 34.97 616.55 32.62 614.19 34.97 614.19 51.45 616.55 53.01"/><polygon class="a" points="638.51 31.05 640.87 28.7 640.87 13.01 638.51 10.65 636.16 13.01 636.16 28.7 638.51 31.05"/><polygon class="a" points="649.5 49.88 651.85 47.52 651.85 31.83 649.5 29.48 647.14 31.83 647.14 47.52 649.5 49.88"/><polygon class="a" points="649.5 29.48 651.85 27.13 651.85 9.87 649.5 7.51 647.14 9.87 647.14 27.13 649.5 29.48"/><polygon class="a" points="671.46 49.88 673.82 47.52 673.82 31.83 671.46 29.48 669.11 31.83 669.11 47.52 671.46 49.88"/><polygon class="a" points="671.46 29.48 673.82 27.13 673.82 9.87 671.46 7.51 669.11 9.87 669.11 27.13 671.46 29.48"/><polygon class="a" points="604 53.01 606.35 50.66 606.35 47.52 604 45.17 601.64 47.52 601.64 50.66 604 53.01"/><polygon class="a" points="640.87 53.01 640.87 49.09 622.82 34.97 619.68 34.97 619.68 38.89 637.73 53.01 640.87 53.01"/><path class="a" d="M799.39,7.91,819.73,53h-6.47l-4-9.14H784L780,53H773.5L793.81,7.91Zm7.57,31-1.81-4.25h-17.1L786.24,39ZM796.08,16.4,790.4,29.66h12.41l-5.75-13.25-.26-.85h-.33Zm55,25.08a16.16,16.16,0,0,1-5.44,8.29A14.85,14.85,0,0,1,836,52.91a16.52,16.52,0,0,1-6.43-1.25,15.57,15.57,0,0,1-5.16-3.47A16.18,16.18,0,0,1,821,43a16.69,16.69,0,0,1-1.26-6.48A17.18,17.18,0,0,1,821,30,16,16,0,0,1,836,20a15.5,15.5,0,0,1,9.7,3.07,14.51,14.51,0,0,1,5.34,8.36v.45h-6.49a9,9,0,0,0-3.14-4.47,8.84,8.84,0,0,0-5.44-1.6,9.07,9.07,0,0,0-7.18,3,11.42,11.42,0,0,0-2.61,7.77,12.75,12.75,0,0,0,.69,4.25,10.06,10.06,0,0,0,2,3.39A8.68,8.68,0,0,0,832,46.39a10.11,10.11,0,0,0,4.08.78,8.74,8.74,0,0,0,5.44-1.67,9,9,0,0,0,3.1-4.41h6.52Zm12.08-18a8.11,8.11,0,0,1,1.94-1.92,12.6,12.6,0,0,1,2.11-1.22,8.86,8.86,0,0,1,2-.62,10.18,10.18,0,0,1,1.68-.16,3.63,3.63,0,0,1,.49,0h.35a1.07,1.07,0,0,0,.33.06v6.07l-.2-.06h-.4a5,5,0,0,0-.59,0,8.73,8.73,0,0,0-5.56,1.73,6.05,6.05,0,0,0-2.2,5.06V53H857V20.38h5.44l.33,3.14ZM890,19.85a16.56,16.56,0,0,1,6.53,1.27,16.33,16.33,0,0,1,5.2,3.54,15.81,15.81,0,0,1,3.47,5.26,17.23,17.23,0,0,1,1.19,6.59A16.71,16.71,0,0,1,905.15,43a15.83,15.83,0,0,1-8.66,8.66A16.94,16.94,0,0,1,890,52.9a16.69,16.69,0,0,1-6.49-1.24A15.91,15.91,0,0,1,874.82,43a16.69,16.69,0,0,1-1.24-6.49A17.18,17.18,0,0,1,874.82,30a15.77,15.77,0,0,1,3.46-5.29A16.25,16.25,0,0,1,890,19.89ZM890,47a10.59,10.59,0,0,0,4.15-.78A9.4,9.4,0,0,0,897.34,44a9.66,9.66,0,0,0,2.06-3.33,12,12,0,0,0,.72-4.21,12.45,12.45,0,0,0-.72-4.31,10,10,0,0,0-2.06-3.4,9.61,9.61,0,0,0-3.2-2.25,10.22,10.22,0,0,0-4.15-.82,10,10,0,0,0-4.12.82,9,9,0,0,0-3.1,2.25,10.51,10.51,0,0,0-2,3.39,12.42,12.42,0,0,0-.72,4.31,12,12,0,0,0,.72,4.21,10.2,10.2,0,0,0,2,3.33,8.8,8.8,0,0,0,3.1,2.19A10.34,10.34,0,0,0,890,47Zm39.06-27.43a16.26,16.26,0,0,1,4.54.65,11.25,11.25,0,0,1,4,2.09A10.34,10.34,0,0,1,940.44,26a13.75,13.75,0,0,1,1.08,5.75V53h-6.14V32.18a6.08,6.08,0,0,0-2.09-5.06,8.33,8.33,0,0,0-5.35-1.67,13.78,13.78,0,0,0-3.63.45,9.12,9.12,0,0,0-2.94,1.34,6.5,6.5,0,0,0-2,2.21,6.13,6.13,0,0,0-.72,3V53h-6.14V20.38h5.55l.33,3.14h.34a14.11,14.11,0,0,1,1.51-1.27A12.07,12.07,0,0,1,922.43,21a15.66,15.66,0,0,1,2.9-1,16,16,0,0,1,3.72-.4Zm20.37.78h6.14V53h-6.14Zm25.92,12.84q2.35.59,4.44,1.31a13.85,13.85,0,0,1,3.63,1.81A8.36,8.36,0,0,1,985.87,39a9.26,9.26,0,0,1-.06,8.16,10.48,10.48,0,0,1-2.65,3.23,12.7,12.7,0,0,1-3.88,2.16,14.22,14.22,0,0,1-4.77.78,15.49,15.49,0,0,1-5-.78,11.22,11.22,0,0,1-4-2.31A9.83,9.83,0,0,1,963,46.65a11.79,11.79,0,0,1-.75-5h5.94a7.09,7.09,0,0,0,.55,3,4.94,4.94,0,0,0,1.51,1.92,6.21,6.21,0,0,0,2.12,1,9,9,0,0,0,2.41.33A6.21,6.21,0,0,0,979,46.58a4.11,4.11,0,0,0,1.57-3.23,3.14,3.14,0,0,0-.2-1.11,2.72,2.72,0,0,0-.91-1.08,9.18,9.18,0,0,0-2-1.14,25.23,25.23,0,0,0-3.56-1.18q-2.09-.53-4-1.18a12.56,12.56,0,0,1-3.33-1.7,7.64,7.64,0,0,1-2.29-2.65,8.5,8.5,0,0,1-.85-4,7.86,7.86,0,0,1,.85-3.63,9.68,9.68,0,0,1,2.32-2.94,10.88,10.88,0,0,1,3.47-2,12.52,12.52,0,0,1,4.28-.72,11.31,11.31,0,0,1,8.1,2.84q3,2.84,2.88,7.87h-6a6.73,6.73,0,0,0-.43-2.58,4.22,4.22,0,0,0-2.72-2.51,6.35,6.35,0,0,0-1.81-.26,4.87,4.87,0,0,0-3.51,1.28,3.44,3.44,0,0,0-1.27,2.45,3.17,3.17,0,0,0,.16,1,2.72,2.72,0,0,0,.75,1,6.4,6.4,0,0,0,1.71,1,16.69,16.69,0,0,0,3.18,1.07Z" transform="translate(0 0)"/><path class="a" d="M216.67,30.26c0,16.72,39,30.27,87,30.27h0c48,0,87-13.55,87-30.27h0c0-16.73-39-30.26-87-30.26h0c-48,0-87,13.52-87,30.26m3.07,0C219.74,15,257.31,2.6,303.67,2.6h0C350,2.6,387.6,15,387.6,30.26h0c0,15.27-37.57,27.66-83.93,27.66h0c-46.36,0-83.94-12.39-83.94-27.66" transform="translate(0 0)"/><path class="a" d="M352.89,20c-.34,0-.52,0-.68.36h0c-.53,1-7,10.78-8.25,12.68h0c-.2.29-.45.25-.49-.08h0a4.08,4.08,0,0,0-2.62-3h0a6.69,6.69,0,0,0-3.49-.41h0a12.44,12.44,0,0,0-5.73,2.69h0c-2.53,1.92-4.71,4.41-7.53,6.25h0c-1.54,1-3.64,1.87-5,.57h0c-1.27-1.18-1.13-3.8.82-5.83h0a.23.23,0,0,1,.42.15h0a2.58,2.58,0,0,0,.74,2.46h0a2.78,2.78,0,0,0,3.11.34h0A4.07,4.07,0,0,0,326.35,33h0a3.55,3.55,0,0,0-3-4h-.25a6.52,6.52,0,0,0-4.69,1.7h0a8.92,8.92,0,0,0-1.84,2h0c-.16.23-.41.25-.4-.09h0c.07-2.65-1-4.14-3.21-4.2h0a8,8,0,0,0-4.92,2h0a45.59,45.59,0,0,0-4.37,4.46h0c-.18.19-.34.18-.39-.18h0a9,9,0,0,0-1.3-4.67h0a1.08,1.08,0,0,0-1.4-.34h0a10,10,0,0,0-1.65,1h0a.93.93,0,0,0-.28,1h0a12.25,12.25,0,0,1-.45,8.13h0a9,9,0,0,1-5.11,5.09h0a3.37,3.37,0,0,1-4-1.06h0c-1.3-1.8-.77-4.92,1.16-7.53h0a14.6,14.6,0,0,1,6.62-4.7h0a.39.39,0,0,0,.27-.55h0c-.14-.41-.35-1-.44-1.23h0c-.23-.61-.86-.7-1.63-.61h0a13.93,13.93,0,0,0-5,1.68h0c-4.19,2.24-6.28,6.58-7.2,8.89h0a9,9,0,0,1-1.32,2.47h0a23.9,23.9,0,0,1-3,2.91h0a.53.53,0,0,0-.12.61h0a6.7,6.7,0,0,0,1.17,1.53h0a.68.68,0,0,0,.65-.13h0a15.68,15.68,0,0,0,2.92-2.57h0c.22-.26.44-.15.55.25h0a6.51,6.51,0,0,0,4.19,4.46h0c3.82,1.24,7.82-.63,10.82-3.89h0a43.37,43.37,0,0,0,3.33-4.3h0c1.23-1.54,3.69-5,6.6-7.18h0c1.07-.82,2.34-1.44,3-1h0c.51.33.68,1.1-.14,2.59h0c-3,5.43-7.34,11.79-8.14,13.34h0a.3.3,0,0,0,.26.48h4.5a.53.53,0,0,0,.46-.29h0c2.28-3.56,4.42-7,6.72-10.45h0a.13.13,0,0,1,.25,0h0a5.81,5.81,0,0,0,.73,2.66h0a4,4,0,0,0,3.43,2h0a6.55,6.55,0,0,0,2.81-.61h0a9.77,9.77,0,0,0,2.31-1.23h0c.34-.24.41.16.39.22h0c-.53,2.83.12,6.19,2.94,7.58h0c3.37,1.66,7.07-.68,9.22-2.78h0c.21-.2.43-.18.45.26h0a3.89,3.89,0,0,0,1.08,2.46h0c1.78,1.79,5.39,1.08,9-1.71h0a45.24,45.24,0,0,0,6.94-7h0a.31.31,0,0,0,0-.43h0c-.33-.34-.82-.75-1.15-1.06h0a.41.41,0,0,0-.5,0h0C351,41.13,349,43.56,346,45.58h0c-1,.69-2.56,1.23-3.26.29h0a1.57,1.57,0,0,1,0-1.56h0c.82-2.16,14.34-22.71,15-23.93h0c.12-.21,0-.36-.27-.36h-4.66m-21.4,25.26a2.14,2.14,0,0,1-1-2.11,13.22,13.22,0,0,1,2.83-6.72c2-2.39,4.9-4.26,6.27-3.37,1.13.73,1.1,2.77.39,4.23-.15.31.3.65.43.69s.13,0,0,.24a24,24,0,0,1-1.84,3,21,21,0,0,1-2.31,2.5,12.14,12.14,0,0,1-3.69,1.8Z" transform="translate(0 0)"/><path class="a" d="M281.12,7.53a33.64,33.64,0,0,0-3.88.15h0c-8.3.7-16.19,5.37-16.21,12.46h0a6.12,6.12,0,0,0,6.51,6.39h0c4.66-.16,8.47-3.88,10.48-8.6h0c.76-1.78-.65-2.53-1.32-1.5h0a11.85,11.85,0,0,1-4.7,4.18h0c-2.19,1.08-4.53.78-5.24-1h0c-1-2.51,1.08-6.26,5.81-8h0c6.84-2.53,14-.85,20.9.44h0c.1,0,.47.2.14.37h0a20.12,20.12,0,0,0-4.33,2.85h0a36.22,36.22,0,0,0-4.55,4.39h0c-1.36,1.66-2.33,3.14-3.6,4.78h0a.5.5,0,0,1-.4.22h0c-3.12.53-6.15.88-9,2.82h0a1.23,1.23,0,0,0-.48,1.65h0a1.08,1.08,0,0,0,1.52.17h0a9.37,9.37,0,0,1,5.57-2h0c.09,0,.13,0,.15.07h0v.15h0a82.41,82.41,0,0,1-6.15,7.85h0a45.4,45.4,0,0,1-3.64,3.69h0c-5.24,4.87-10.88,4.79-12.91,1.73h0a5.18,5.18,0,0,1-.26-5.35h0a10.39,10.39,0,0,1,4.58-4.22h0a1.09,1.09,0,0,0,.17-1.79h0a2.33,2.33,0,0,0-2-.42h0a11.16,11.16,0,0,0-6.18,4h0a10.88,10.88,0,0,0-2.25,7.84h0c.51,5.39,4.92,8.5,10,8.46h0c4,0,7.79-1.23,12.29-5.86h0c4.23-4.3,8.09-10.72,11.68-16.67h0c.11-.19.19-.29.74-.36h0c2.26-.28,5.61-.61,7.75-.73h0c.48,0,.58,0,.77.22h0a7,7,0,0,0,2.07,1.67h0a1.51,1.51,0,0,0,.74.27h0a.94.94,0,0,0,.73-.34h0a.7.7,0,0,0,.17-.79h0c-.13-.22-1.62-1-1.67-1.38h0a.27.27,0,0,1,.2-.26h0a4.86,4.86,0,0,0,3-2.42h0c.68-1.31.79-3.07-.45-4h0a3.16,3.16,0,0,0-4.06.47h0a4.92,4.92,0,0,0-1.54,4.3h0c0,.25,0,.34-.33.37h0c-2,.15-3.89.22-6,.33h0c-.14,0-.18-.08-.1-.18h0c2.43-4.29,6.07-7.29,10.1-10.29h0c.26-.2.18-.58.17-.9h0c7.29,1.59,14.33,4.53,21.9,4.47h0a18.39,18.39,0,0,0,9-2.07h0c2.52-1.38,3.54-2.64,3.61-4h0a1.15,1.15,0,0,0-1.47-1.29h0a63.75,63.75,0,0,1-22.54.81h0c-8.6-1-16.9-3.2-25.48-3.2h0m13.18,15.31a3.21,3.21,0,0,1,1-2.65,1.16,1.16,0,0,1,1.38-.17c.41.34.22,1.11-.2,1.79a3.37,3.37,0,0,1-1.89,1.36h-.06C294.42,23.12,294.33,22.92,294.31,22.79Z" transform="translate(0 0)"/></svg>