<svg id="Слой_1" data-name="Слой 1" xmlns="http://www.w3.org/2000/svg" viewBox="0 0 14.44 16"><defs><style>.cls-1{fill:#fff;}</style></defs><title>discord</title><path class="cls-1" d="M13.49,0a1.77,1.77,0,0,1,1.74,1.65V16l-1.79-1.52-1-.89-1.07-.93.45,1.47H2.48A1.65,1.65,0,0,1,.79,12.48V1.65A1.68,1.68,0,0,1,2.48,0ZM9.41,3.79h0l-.14.13A5.24,5.24,0,0,1,11.3,5a7.14,7.14,0,0,0-2.49-.76,6.5,6.5,0,0,0-1.65,0H7a5.87,5.87,0,0,0-1.88.49l-.49.22a4.72,4.72,0,0,1,2.14-1l-.09-.09a3.94,3.94,0,0,0-2.31.84A10.41,10.41,0,0,0,3.19,9.31a2.93,2.93,0,0,0,2.5,1.21s.27-.36.53-.67A2.62,2.62,0,0,1,4.8,8.91L5,9.05h0l.05,0h0l0,0c.23.09.45.18.63.27A5.26,5.26,0,0,0,7,9.71a6.65,6.65,0,0,0,2.14,0,6,6,0,0,0,1.2-.35c.27-.14.58-.27.94-.49a2.65,2.65,0,0,1-1.47.93,8.28,8.28,0,0,0,.53.67,3.49,3.49,0,0,0,2.59-1.16A10.41,10.41,0,0,0,11.7,4.63a4.07,4.07,0,0,0-2.29-.84Zm.11,2.94a.89.89,0,1,1-.85.89A.87.87,0,0,1,9.52,6.73Zm-3,0a.89.89,0,1,1-.85.89A.87.87,0,0,1,6.49,6.73Z" transform="translate(-0.79 0)"/></svg>