<svg id="Capa_1" data-name="Capa 1" xmlns="http://www.w3.org/2000/svg" viewBox="0 0 52 48.35"><defs><style>.cls-1{fill:#fff;}</style></defs><title>donate</title><path class="cls-1" d="M51.91,16.24C51.15,7.89,45.24,1.83,37.84,1.83a14,14,0,0,0-12,6.9,13.47,13.47,0,0,0-11.69-6.9C6.76,1.83.85,7.89.09,16.24a14.8,14.8,0,0,0,.44,5.48,23.5,23.5,0,0,0,7.2,12L25.84,50.17,44.27,33.73a23.5,23.5,0,0,0,7.2-12A14.8,14.8,0,0,0,51.91,16.24ZM16,9.9a8,8,0,0,0-8,8,1,1,0,0,1-2,0,10,10,0,0,1,10-10,1,1,0,0,1,0,2Z" transform="translate(0 -1.83)"/></svg>