<svg id="Layer_1" data-name="Layer 1" xmlns="http://www.w3.org/2000/svg" viewBox="0 0 512 341.33"><defs><style>.cls-1{fill:#fff;}</style></defs><title>latest</title><path class="cls-1" d="M256,85.33C85.33,85.33,0,256,0,256S85.33,426.67,256,426.67,512,256,512,256,426.67,85.33,256,85.33ZM256,384A128,128,0,1,1,384,256,128,128,0,0,1,256,384Z" transform="translate(0 -85.33)"/><path class="cls-1" d="M333,219.21A28.44,28.44,0,1,1,292.79,179,85.37,85.37,0,0,0,174.44,281.14a42.66,42.66,0,1,1,56.42,56.43A85.37,85.37,0,0,0,333,219.21Z" transform="translate(0 -85.33)"/></svg>