<svg width="141" height="34" xmlns="http://www.w3.org/2000/svg">
 <!-- Created with Method Draw - http://github.com/duopixel/Method-Draw/ -->
 <defs>
  <linearGradient y2="0" x2="1" y1="0" x1="0" id="svg_30">
   <stop offset="1" stop-color="#ffffff"/>
   <stop offset="1" stop-color="#000000"/>
  </linearGradient>
 </defs>
 <g>
  <title>background</title>
  <rect fill="url(#svg_30)" id="canvas_background" height="36" width="143" y="-1" x="-1"/>
  <g display="none" overflow="visible" y="0" x="0" height="100%" width="100%" id="canvasGrid">
   <rect fill="url(#gridpattern)" stroke-width="0" y="0" x="0" height="100%" width="100%"/>
  </g>
 </g>
 <g>
  <title>Layer 1</title>
  <defs>
   <style>.cls-1{fill:red;}.cls-2{fill:#fff;}</style>
  </defs>
  <g id="svg_25">
   <g transform="matrix(0.271003, 0, 0, 0.271003, 0, 0)" id="svg_12">
    <g id="svg_13">
     <path id="svg_14" d="m162.905167,28.91571c-1.799988,-6.700012 -7.099976,-12 -13.799988,-13.799988c-12.100037,-3.299988 -60.799988,-3.299988 -60.799988,-3.299988s-48.700012,0.099976 -60.799988,3.399963c-6.700012,1.799988 -12,7.100037 -13.800049,13.799988c-3.199951,12.100037 -3.199951,37.400024 -3.199951,37.400024s0,25.299988 3.299988,37.5c1.799988,6.700012 7.099976,12 13.799988,13.799988c12.099976,3.299988 60.799988,3.299988 60.799988,3.299988s48.700012,0 60.800049,-3.299988c6.699951,-1.799988 12,-7.099976 13.799927,-13.799988c3.300049,-12.099976 3.300049,-37.5 3.300049,-37.5s-0.099976,-25.299988 -3.400024,-37.5z" fill="#FF0000"/>
     <polygon id="svg_15" points="72.80519104003906,89.81573486328125 113.20515441894531,66.41571044921875 72.80519104003906,43.01568603515625 " fill="#FFFFFF"/>
    </g>
    <g id="svg_16">
     <g id="svg_17">
      <path id="svg_18" d="m236.505569,111.115723c-3.100037,-2.100037 -5.299988,-5.299988 -6.600098,-9.700012c-1.300049,-4.400024 -1.900024,-10.200012 -1.900024,-17.5l0,-9.900024c0,-7.299988 0.700073,-13.299988 2.200073,-17.699951c1.500061,-4.5 3.799988,-7.700012 7.000122,-9.700012c3.199951,-2 7.299927,-3.100037 12.399902,-3.100037c5,0 9.100082,1 12.100082,3.100037c3,2.099976 5.299927,5.299988 6.699951,9.700012c1.400024,4.399963 2.099976,10.299988 2.099976,17.599976l0,9.900024c0,7.299988 -0.699951,13.099976 -2.099976,17.5c-1.400024,4.399963 -3.599976,7.599976 -6.699951,9.699951c-3.100098,2 -7.300034,3.100037 -12.499985,3.100037c-5.400024,0.099976 -9.600098,-1 -12.700073,-3zm17.300049,-10.700012c0.900024,-2.200012 1.299927,-5.900024 1.299927,-10.900024l0,-21.299988c0,-4.899963 -0.399902,-8.5 -1.299927,-10.700012c-0.900024,-2.299988 -2.400024,-3.399963 -4.5,-3.399963c-2.099976,0 -3.5,1.099976 -4.400024,3.399963c-0.900024,2.300049 -1.300049,5.800049 -1.300049,10.700012l0,21.299988c0,5 0.400024,8.700012 1.200073,10.900024c0.799927,2.200012 2.299927,3.299988 4.5,3.299988c2.099976,0 3.599976,-1.099976 4.5,-3.299988z" fill="#282828"/>
      <path id="svg_19" d="m473.005554,84.115723l0,3.5c0,4.399963 0.099976,7.700012 0.400024,9.899963c0.300049,2.200012 0.800049,3.800049 1.599976,4.800049c0.800049,1 2.099976,1.5 3.800049,1.5c2.299927,0 3.900024,-0.900024 4.699951,-2.700012c0.900024,-1.799988 1.300049,-4.799988 1.400024,-8.900024l13.300049,0.799988c0.099976,0.600037 0.099976,1.400024 0.099976,2.400024c0,6.299988 -1.700073,11 -5.200073,14.099976c-3.5,3.100037 -8.299927,4.700012 -14.599976,4.700012c-7.599976,0 -12.900024,-2.399963 -15.900024,-7.099976c-3,-4.700012 -4.599976,-12.100037 -4.599976,-22l0,-12.100037c0,-10.199951 1.599976,-17.699951 4.700073,-22.399963c3.199951,-4.700012 8.599976,-7.100037 16.199951,-7.100037c5.300049,0 9.300049,1 12.099976,2.900024c2.800049,1.900024 4.800049,4.900024 6,9c1.200073,4.099976 1.700073,9.700012 1.700073,16.900024l0,11.699951l-25.700073,0l0,0.100037zm2,-28.799988c-0.799927,1 -1.299927,2.5 -1.599976,4.699951c-0.300049,2.200012 -0.400024,5.5 -0.400024,10l0,4.900024l11.200073,0l0,-4.900024c0,-4.399963 -0.100098,-7.699951 -0.400024,-10c-0.300049,-2.299988 -0.800049,-3.899963 -1.599976,-4.799988c-0.800049,-0.899963 -2,-1.399963 -3.600098,-1.399963c-1.699951,0.099976 -2.899902,0.599976 -3.599976,1.5z" fill="#282828"/>
      <path id="svg_20" d="m199.105179,82.815735l-17.5,-63.200012l15.299988,0l6.099976,28.599976c1.600037,7.100037 2.700073,13.100037 3.5,18l0.400024,0c0.5,-3.599976 1.699951,-9.5 3.5,-17.899963l6.300171,-28.700012l15.300171,0l-17.700256,63.099976l0,30.299988l-15.100037,0l0,-30.199951l-0.100037,0z" fill="#282828"/>
      <path id="svg_21" d="m320.10553,44.815735l0,68.299988l-12,0l-1.299927,-8.400024l-0.300049,0c-3.299927,6.300049 -8.199951,9.5 -14.699951,9.5c-4.5,0 -7.900024,-1.5 -10,-4.5c-2.200073,-3 -3.200073,-7.599976 -3.200073,-13.899963l0,-51l15.400024,0l0,50.099976c0,3 0.300049,5.200012 1,6.5c0.700073,1.299988 1.800049,1.900024 3.300049,1.900024c1.299927,0 2.599976,-0.400024 3.799927,-1.200012c1.200073,-0.799988 2.100098,-1.900024 2.700073,-3.100037l0,-54.199951l15.299927,0z" fill="#282828"/>
      <path id="svg_22" d="m399.005554,44.815735l0,68.299988l-12,0l-1.299927,-8.400024l-0.300049,0c-3.300049,6.300049 -8.199951,9.5 -14.699951,9.5c-4.5,0 -7.900024,-1.5 -10,-4.5c-2.200073,-3 -3.200073,-7.599976 -3.200073,-13.899963l0,-51l15.400024,0l0,50.099976c0,3 0.300049,5.200012 1,6.5c0.699951,1.299988 1.800049,1.900024 3.300049,1.900024c1.299927,0 2.599976,-0.400024 3.799927,-1.200012c1.200073,-0.799988 2.099976,-1.900024 2.700073,-3.100037l0,-54.199951l15.299927,0z" fill="#282828"/>
      <path id="svg_23" d="m361.905579,32.015686l-15.300049,0l0,81.100037l-15,0l0,-81.100037l-15.299927,0l0,-12.399963l45.5,0l0,12.399963l0.099976,0z" fill="#282828"/>
      <path id="svg_24" d="m449.805603,55.715698c-0.900024,-4.299988 -2.400024,-7.399963 -4.5,-9.399963c-2.099976,-1.900024 -4.900024,-2.900024 -8.599976,-2.900024c-2.800049,0 -5.5,0.799988 -7.900024,2.400024c-2.5,1.599976 -4.299927,3.699951 -5.700073,6.299988l-0.099854,0l0,-36l-14.800049,0l0,96.899963l12.699951,0l1.600098,-6.5l0.299927,0c1.200073,2.300049 3,4.100037 5.299927,5.5c2.400146,1.300049 5,2 7.900146,2c5.199951,0 9,-2.399963 11.5,-7.199951c2.399902,-4.800049 3.699951,-12.300049 3.699951,-22.400024l0,-10.799988c0,-7.600037 -0.5,-13.600037 -1.400024,-17.900024zm-14.099976,27.900024c0,5 -0.199951,8.899963 -0.600098,11.700012c-0.399902,2.799988 -1.099854,4.799988 -2.099854,6c-1,1.199951 -2.300049,1.799988 -3.900146,1.799988c-1.299927,0 -2.399902,-0.299988 -3.5,-0.900024c-1.099854,-0.599976 -1.899902,-1.5 -2.599854,-2.700012l0,-38.799988c0.5,-1.899963 1.399902,-3.399963 2.699951,-4.599976c1.300049,-1.200012 2.599976,-1.799988 4.099976,-1.799988c1.599976,0 2.799927,0.599976 3.599976,1.799988c0.900024,1.200012 1.400024,3.299988 1.800049,6.200012c0.300049,2.899963 0.5,7 0.5,12.399963l0,8.900024z" fill="#282828"/>
     </g>
    </g>
   </g>
  </g>
  <rect rx="8" id="svg_26" height="25" width="88.999997" y="5" x="47.499996" stroke-width="1.5" stroke="#000" fill="#fff"/>
  <path id="svg_27" d="m123.5,165" opacity="0.5" fill-opacity="null" stroke-opacity="null" stroke-width="1.5" stroke="#000" fill="#fff"/>
  <text xml:space="preserve" text-anchor="start" font-family="Helvetica, Arial, sans-serif" font-size="21" id="svg_28" y="24" x="60.127424" fill-opacity="null" stroke-opacity="null" stroke-width="0" stroke="#000" fill="#000000">bilibili</text>
 </g>
</svg>