<?xml version="1.0" encoding="utf-8"?>
<!-- Generator: Adobe Illustrator 16.0.4, SVG Export Plug-In . SVG Version: 6.00 Build 0)  -->
<!DOCTYPE svg PUBLIC "-//W3C//DTD SVG 1.1//EN" "http://www.w3.org/Graphics/SVG/1.1/DTD/svg11.dtd">
<svg version="1.1" id="Layer_1" xmlns="http://www.w3.org/2000/svg" xmlns:xlink="http://www.w3.org/1999/xlink" x="0px" y="0px"
	 width="31.812px" height="23.107px" viewBox="0 0 31.812 23.107" enable-background="new 0 0 31.812 23.107" xml:space="preserve">
<path d="M7.152,1.581L7.152,1.581H2.434v15.38h4.718V1.581z M6.505,16.316H3.079V2.227h3.426V16.316z M5.987,4.497H3.595v-0.66
	h2.392V4.497z M3.598,4.927h2.394v0.661H3.598V4.927z M5.987,14.6H3.595v-0.661h2.392V14.6z M12.181,2.937l3.259,14.215l4.6-1.054
	L16.602,1.106l-4.421,1.012V1.589H7.463V16.97h4.718V2.937z M16.118,1.88l3.146,13.733l-3.341,0.766L12.777,2.645L16.118,1.88z
	 M11.536,16.325H8.11v-1.52h3.427V16.325z M10.967,13.075v0.615H8.6v-0.615H10.967z M8.6,12.662v-0.615h2.367v0.615H8.6z
	 M11.536,10.932H8.11V2.237h3.427V10.932z M11.02,4.497H8.626v-0.66h2.394V4.497z M16.904,11.751l-1.791-7.815l0.597-0.137
	l1.791,7.815L16.904,11.751z M16.295,11.889l-0.599,0.136l-1.773-7.819l0.599-0.136L16.295,11.889z M22.267,3.25v4.089l3.102,2.065
	l-3.24,2.008l0.016,0.023l-0.008,0.003v4.103h-0.428h-0.815v1.386h10.438v-1.385h-0.002h-1.537v-4.097l-3.142-2.038l3.278-2.033
	L29.917,7.35l0.005-0.005V3.25h1.407V1.864h-1.407h-0.65H22.92h-0.653h-1.375V3.25h0.815H22.267z M29.138,11.919v3.623h-6.351
	v-3.738l3.203-1.985L29.138,11.919z M22.92,3.25h6.352v3.732L26.02,8.998l-3.1-2.012V3.25z M28.883,6.661l-2.866,1.78l-2.704-1.787
	V5.125h5.57V6.661z M25.973,13.917l1.427,0.56l1.396,0.171v0.586h-5.648v-0.586l1.534-0.206L25.973,13.917z M31.813,18.419v4.688H0
	v-4.688h0.045V0h1.133v18.333h30.571v0.086H31.813z"/>
</svg>
