<svg xmlns="http://www.w3.org/2000/svg" width="402" height="27.93" viewBox="0 0 402 27.93">
	<defs>
		<style>
			.a {
				fill: none;
				stroke: #50A0A0;
				stroke-linecap: round;
				stroke-miterlimit: 10;
				stroke-width: 2px;
				animation: fill 5s;
			}
			@keyframes fill {
				0% {
					stroke-dasharray: 0, 200;
				}
				100% {
					stroke-dasharray: 200, 0;
				}
			}
		</style>
	</defs>
	<title>sands_logo</title>
	<line class="a" x1="1" y1="1.77" x2="41" y2="1.77"/>
	<line class="a" x1="21" y1="25.77" x2="21" y2="1.77"/>
	<path class="a" d="M137,25.77H105a8,8,0,0,1-8-8v-8a8,8,0,0,1,8-8h32" transform="translate(0 0)"/>
	<line class="a" x1="137" y1="13.77" x2="105" y2="13.77"/>
	<line class="a" x1="49" y1="25.77" x2="49" y2="1.77"/>
	<line class="a" x1="89" y1="25.77" x2="89" y2="1.77"/>
	<line class="a" x1="49" y1="13.77" x2="89" y2="13.77"/>
	<path class="a" d="M209,1.77H175a6,6,0,0,0-6,6h0a6,6,0,0,0,6,6h28a6,6,0,0,1,6,6h0a6,6,0,0,1-6,6H169" transform="translate(0 0)"/>
	<polyline class="a" points="265 25.77 265 1.77 305 25.77 305 1.77"/>
	<path class="a" d="M313,25.77h32a8,8,0,0,0,8-8v-8a8,8,0,0,0-8-8H313Z" transform="translate(0 0)"/>
	<path class="a" d="M401,1.77H367a6,6,0,0,0-6,6h0a6,6,0,0,0,6,6h28a6,6,0,0,1,6,6h0a6,6,0,0,1-6,6H361" transform="translate(0 0)"/>
	<polyline class="a" points="257 25.77 237 1.77 217 25.77 247.69 14.88"/>
</svg>