<?xml version="1.0" encoding="UTF-8" standalone="no"?>
<svg
   xmlns:dc="http://purl.org/dc/elements/1.1/"
   xmlns:cc="http://creativecommons.org/ns#"
   xmlns:rdf="http://www.w3.org/1999/02/22-rdf-syntax-ns#"
   xmlns:svg="http://www.w3.org/2000/svg"
   xmlns="http://www.w3.org/2000/svg"
   xmlns:sodipodi="http://sodipodi.sourceforge.net/DTD/sodipodi-0.dtd"
   xmlns:inkscape="http://www.inkscape.org/namespaces/inkscape"
   width="1792"
   height="1792"
   viewBox="0 0 1792 1792"
   version="1.1"
   id="svg4"
   sodipodi:docname="logo.svg"
   inkscape:version="0.92.3 (2405546, 2018-03-11)">
  <metadata
     id="metadata10">
    <rdf:RDF>
      <cc:Work
         rdf:about="">
        <dc:format>image/svg+xml</dc:format>
        <dc:type
           rdf:resource="http://purl.org/dc/dcmitype/StillImage" />
        <dc:title></dc:title>
      </cc:Work>
    </rdf:RDF>
  </metadata>
  <defs
     id="defs8" />
  <sodipodi:namedview
     pagecolor="#ffffff"
     bordercolor="#666666"
     borderopacity="1"
     objecttolerance="10"
     gridtolerance="10"
     guidetolerance="10"
     inkscape:pageopacity="0"
     inkscape:pageshadow="2"
     inkscape:window-width="1115"
     inkscape:window-height="612"
     id="namedview6"
     showgrid="false"
     inkscape:zoom="0.13169643"
     inkscape:cx="-49.355932"
     inkscape:cy="896"
     inkscape:window-x="0"
     inkscape:window-y="0"
     inkscape:window-maximized="0"
     inkscape:current-layer="svg4" />
  <path
     d="M576 1152v128h-128v-128h128zm0-768v128h-128v-128h128zm768 0v128h-128v-128h128zm-1024 1023h384v-383h-384v383zm0-767h384v-384h-384v384zm768 0h384v-384h-384v384zm-256 256v640h-640v-640h640zm512 512v128h-128v-128h128zm256 0v128h-128v-128h128zm0-512v384h-384v-128h-128v384h-128v-640h384v128h128v-128h128zm-768-768v640h-640v-640h640zm768 0v640h-640v-640h640z"
     fill="#fff"
     id="path2"
     style="fill:#000000" />
</svg>
