<svg id="svg" version="1.1" width="400" height="479.296875" viewBox="0 0 400 479.296875" xmlns="http://www.w3.org/2000/svg" xmlns:xlink="http://www.w3.org/1999/xlink" ><g id="svgg"><path id="path0" d="M200.000 96.206 C 200.000 97.482,202.832 100.088,208.789 104.294 C 214.850 108.574,214.591 108.091,211.924 110.149 C 210.732 111.068,209.210 112.444,208.539 113.208 C 207.081 114.868,207.704 115.148,200.314 109.515 C 185.723 98.394,185.188 101.775,199.704 113.372 L 205.072 117.661 204.267 118.792 C 203.824 119.414,202.698 121.557,201.765 123.555 L 200.067 127.188 193.491 123.944 C 179.777 117.181,181.937 121.292,196.283 129.261 C 201.332 132.065,201.076 132.082,202.174 128.883 C 204.858 121.063,210.454 113.320,215.477 110.473 L 216.642 109.813 227.950 117.429 C 246.422 129.871,265.829 142.151,270.952 144.640 C 276.792 147.477,277.250 174.005,271.670 186.283 C 270.113 189.710,270.926 188.923,272.834 185.156 C 278.225 174.515,279.636 157.529,275.932 147.876 C 275.746 147.391,275.991 147.266,277.126 147.266 C 279.613 147.266,281.888 145.546,283.536 142.422 C 284.623 140.360,284.060 138.879,282.681 140.173 C 281.310 141.461,278.457 142.560,276.464 142.570 C 272.439 142.588,256.857 133.008,226.563 111.891 C 201.049 94.107,200.000 93.487,200.000 96.206 M211.798 140.100 C 210.919 140.290,210.930 140.327,212.331 141.877 C 218.209 148.384,216.753 161.447,210.009 162.712 C 207.590 163.166,204.160 160.951,202.074 157.586 C 200.660 155.306,202.051 163.447,203.969 168.676 C 205.038 171.592,204.583 171.306,210.571 172.826 C 216.695 174.381,223.479 176.679,228.599 178.934 C 233.730 181.195,233.418 181.172,234.351 179.344 C 242.512 163.347,227.234 136.762,211.798 140.100 M306.280 148.047 C 306.235 153.158,307.818 156.191,310.973 157.041 C 312.749 157.519,312.727 157.422,311.736 160.302 C 309.535 166.698,307.813 178.065,307.813 186.187 L 307.813 190.933 310.645 193.083 C 313.814 195.489,317.157 197.269,320.203 198.174 L 322.242 198.779 322.670 197.339 C 324.747 190.341,322.693 176.277,319.016 172.327 C 317.326 170.512,316.851 170.601,317.837 172.547 C 321.250 179.289,315.072 190.000,310.558 185.168 C 308.867 183.358,308.482 181.144,309.200 177.362 C 309.892 173.711,313.915 161.158,315.188 158.676 C 316.124 156.851,316.011 156.918,321.680 154.855 C 326.558 153.080,326.508 153.135,324.608 151.608 L 323.030 150.340 319.816 151.583 C 310.361 155.237,309.082 154.857,307.067 147.789 L 306.305 145.117 306.280 148.047 M224.228 158.496 C 226.433 161.290,223.235 166.471,220.438 164.638 C 218.489 163.362,218.330 160.150,220.125 158.355 C 221.422 157.058,223.140 157.117,224.228 158.496 M337.500 162.682 C 337.500 163.021,337.839 163.281,338.281 163.281 C 338.711 163.281,339.063 163.200,339.063 163.100 C 339.063 163.000,338.711 162.730,338.281 162.500 C 337.658 162.166,337.500 162.203,337.500 162.682 M319.375 189.752 C 321.776 191.355,320.179 195.014,317.319 194.463 C 316.416 194.290,315.500 192.416,315.822 191.402 C 316.342 189.761,318.139 188.927,319.375 189.752 " stroke="none" fill="#000000" fill-rule="evenodd"></path><path id="path1" d="M200.391 97.778 C 200.391 97.846,200.962 98.417,201.660 99.048 L 202.930 100.195 201.782 98.926 C 200.713 97.742,200.391 97.477,200.391 97.778 M191.992 107.031 C 193.050 108.105,194.004 108.984,194.111 108.984 C 194.219 108.984,193.441 108.105,192.383 107.031 C 191.325 105.957,190.371 105.078,190.264 105.078 C 190.156 105.078,190.934 105.957,191.992 107.031 M275.489 162.695 C 275.493 163.555,275.573 163.860,275.667 163.374 C 275.760 162.888,275.757 162.185,275.659 161.812 C 275.561 161.438,275.485 161.836,275.489 162.695 M338.281 163.281 C 337.363 163.575,337.382 163.596,338.597 163.633 C 339.368 163.656,339.792 163.514,339.648 163.281 C 339.516 163.066,339.373 162.908,339.332 162.930 C 339.291 162.951,338.818 163.109,338.281 163.281 M275.489 168.555 C 275.493 169.414,275.573 169.720,275.667 169.234 C 275.760 168.748,275.757 168.045,275.659 167.671 C 275.561 167.298,275.485 167.695,275.489 168.555 " stroke="none" fill="#232323" fill-rule="evenodd"></path><path id="path2" d="M275.497 165.625 C 275.497 166.592,275.573 166.987,275.666 166.504 C 275.759 166.021,275.759 165.229,275.666 164.746 C 275.573 164.263,275.497 164.658,275.497 165.625 M307.558 187.500 C 307.558 189.326,307.626 190.073,307.708 189.160 C 307.790 188.247,307.790 186.753,307.708 185.840 C 307.626 184.927,307.558 185.674,307.558 187.500 M256.752 297.070 C 256.755 298.145,256.831 298.538,256.921 297.944 C 257.011 297.350,257.008 296.471,256.916 295.991 C 256.823 295.510,256.749 295.996,256.752 297.070 " stroke="none" fill="#535353" fill-rule="evenodd"></path><path id="path3" d="M208.764 112.598 L 207.617 113.867 208.887 112.720 C 209.585 112.089,210.156 111.518,210.156 111.450 C 210.156 111.149,209.834 111.414,208.764 112.598 M284.506 125.391 C 284.506 127.002,284.575 127.661,284.660 126.855 C 284.744 126.050,284.744 124.731,284.660 123.926 C 284.575 123.120,284.506 123.779,284.506 125.391 " stroke="none" fill="#686868" fill-rule="evenodd"></path><path id="path4" d="M281.758 241.797 C 281.758 242.979,281.831 243.462,281.920 242.871 C 282.010 242.280,282.010 241.313,281.920 240.723 C 281.831 240.132,281.758 240.615,281.758 241.797 " stroke="none" fill="#a1a1a1" fill-rule="evenodd"></path><path id="path5" d="M289.160 21.754 C 289.536 21.852,290.151 21.852,290.527 21.754 C 290.903 21.655,290.596 21.575,289.844 21.575 C 289.092 21.575,288.784 21.655,289.160 21.754 M200.481 149.609 C 200.481 150.361,200.562 150.669,200.660 150.293 C 200.758 149.917,200.758 149.302,200.660 148.926 C 200.562 148.550,200.481 148.857,200.481 149.609 M275.091 162.109 C 275.091 162.861,275.171 163.169,275.269 162.793 C 275.368 162.417,275.368 161.802,275.269 161.426 C 275.171 161.050,275.091 161.357,275.091 162.109 M248.536 168.164 C 248.540 169.023,248.620 169.329,248.714 168.843 C 248.807 168.357,248.804 167.654,248.706 167.281 C 248.608 166.907,248.532 167.305,248.536 168.164 " stroke="none" fill="#cecece" fill-rule="evenodd"></path><path id="path6" d="M275.195 22.310 C 271.239 22.731,263.366 23.812,262.196 24.094 C 261.512 24.259,262.510 24.829,266.493 26.550 C 301.748 41.780,337.508 63.819,366.250 88.031 C 369.601 90.854,372.955 93.676,373.703 94.302 L 375.063 95.439 374.429 93.921 C 367.505 77.349,342.892 49.352,330.841 44.341 C 326.260 42.436,319.922 39.336,319.922 39.001 C 319.922 38.528,321.616 38.592,326.696 39.258 C 336.119 40.493,348.597 44.612,362.775 51.167 C 367.554 53.376,367.336 53.098,360.352 48.074 C 334.026 29.139,302.017 19.454,275.195 22.310 M214.594 111.662 C 208.022 116.430,201.903 127.092,200.613 136.023 L 200.347 137.866 202.522 135.776 C 218.793 120.142,245.643 136.790,248.436 164.244 C 249.095 170.723,247.409 180.028,244.756 184.556 C 243.528 186.651,243.518 186.878,244.629 187.385 C 246.432 188.207,253.734 193.935,257.028 197.110 L 260.437 200.397 262.348 198.865 C 273.594 189.847,278.211 168.188,273.016 148.819 L 272.228 145.880 268.438 143.774 C 261.730 140.048,248.639 131.738,232.367 120.879 L 216.492 110.285 214.594 111.662 M204.457 140.630 C 200.693 143.042,199.603 151.387,202.344 156.804 C 206.972 165.950,215.625 162.990,215.625 152.261 C 215.625 143.951,209.397 137.465,204.457 140.630 M324.414 154.322 C 323.555 154.730,321.424 155.536,319.679 156.112 C 316.526 157.153,316.499 157.173,315.460 159.293 C 314.565 161.116,314.516 161.382,315.117 161.119 C 324.306 157.096,332.608 179.305,328.920 198.047 C 328.509 200.136,329.057 201.070,329.703 199.380 C 332.952 190.876,337.129 170.977,337.097 164.147 L 337.085 161.523 335.255 160.156 C 334.249 159.404,331.947 157.603,330.141 156.152 C 326.512 153.240,326.618 153.274,324.414 154.322 M220.820 158.400 C 218.666 159.909,219.022 164.453,221.295 164.453 C 222.857 164.453,223.720 163.815,224.225 162.287 C 225.252 159.173,223.147 156.769,220.820 158.400 M311.927 171.589 C 309.753 173.763,308.552 180.869,309.914 183.502 C 312.612 188.721,318.366 184.276,318.357 176.980 C 318.351 171.496,314.907 168.609,311.927 171.589 M316.875 190.313 C 315.679 191.508,316.565 194.141,318.164 194.141 C 319.318 194.141,319.922 193.403,319.922 191.992 C 319.922 190.581,319.318 189.844,318.164 189.844 C 317.713 189.844,317.133 190.055,316.875 190.313 M149.564 443.508 C 145.350 445.014,143.327 448.840,144.687 452.734 C 145.487 455.025,145.508 454.941,144.070 455.229 C 137.233 456.596,134.093 465.489,138.754 470.282 C 143.879 475.551,150.101 473.921,152.429 466.699 C 153.455 463.515,153.427 463.521,154.860 466.264 C 158.902 473.998,165.492 470.540,161.757 462.645 C 161.134 461.328,160.431 460.131,160.195 459.985 C 159.229 459.388,159.883 458.984,161.816 458.984 C 168.665 458.982,170.974 449.790,165.165 445.654 C 163.092 444.177,157.389 444.158,158.038 445.629 C 159.110 448.058,158.405 450.740,156.463 451.625 C 155.591 452.023,155.573 452.107,156.093 453.353 C 158.316 458.672,153.848 464.808,149.164 462.868 C 146.769 461.876,146.498 457.424,148.789 456.707 C 149.211 456.575,149.189 456.746,148.691 457.457 C 147.236 459.535,148.456 461.906,150.945 461.836 C 154.809 461.726,156.630 457.480,154.668 453.155 C 153.872 451.401,154.050 450.803,155.371 450.787 C 156.222 450.777,157.422 449.258,157.422 448.191 C 157.422 444.758,153.165 442.221,149.564 443.508 M112.945 469.981 C 103.312 471.500,92.940 474.639,87.500 477.682 L 84.961 479.102 100.194 479.204 C 117.682 479.321,116.227 479.508,116.588 477.100 C 116.743 476.072,117.266 473.861,117.751 472.186 C 118.303 470.279,118.472 469.155,118.203 469.180 C 117.967 469.202,115.601 469.563,112.945 469.981 " stroke="none" fill="#ffffff" fill-rule="evenodd"></path><path id="path7" d="M213.970 130.459 C 209.314 131.300,205.240 133.471,201.988 136.846 L 200.264 138.635 200.150 143.829 C 200.071 147.453,200.135 148.492,200.362 147.266 C 201.495 141.167,205.745 137.872,209.766 139.975 C 210.450 140.333,211.067 140.377,211.828 140.123 C 218.698 137.823,228.464 144.346,233.258 154.437 C 233.884 155.756,234.282 156.396,234.141 155.859 C 234.001 155.322,233.639 154.399,233.339 153.809 L 232.792 152.734 238.831 152.734 C 244.599 152.734,244.881 152.771,245.127 153.545 C 245.268 153.991,245.459 154.281,245.551 154.189 C 245.642 154.097,245.176 152.750,244.515 151.195 C 238.636 137.380,225.401 128.396,213.970 130.459 M201.051 156.881 C 201.308 159.527,201.496 159.895,201.526 157.813 C 201.539 156.846,201.396 155.811,201.208 155.514 C 200.997 155.181,200.937 155.706,201.051 156.881 M314.994 161.803 C 313.435 163.000,312.827 164.382,310.730 171.484 L 310.441 172.461 311.532 171.379 C 314.735 168.201,319.384 170.795,321.711 177.058 C 322.209 178.397,322.624 179.316,322.635 179.102 C 322.671 178.375,328.055 178.873,328.245 179.621 C 328.337 179.980,328.335 179.482,328.241 178.516 C 327.103 166.848,320.036 157.931,314.994 161.803 M236.440 166.602 C 236.443 167.676,236.519 168.069,236.608 167.475 C 236.698 166.881,236.696 166.002,236.603 165.522 C 236.510 165.042,236.437 165.527,236.440 166.602 M323.585 188.672 C 323.585 191.143,323.649 192.153,323.726 190.918 C 323.804 189.683,323.804 187.661,323.726 186.426 C 323.649 185.190,323.585 186.201,323.585 188.672 " stroke="none" fill="#711146" fill-rule="evenodd"></path><path id="path8" d="" stroke="none" fill="#0f5474" fill-rule="evenodd"></path><path id="path9" d="M225.781 257.312 C 225.781 259.487,228.350 270.963,230.528 278.516 C 233.076 287.352,239.869 303.792,241.180 304.296 C 242.155 304.670,255.824 309.121,256.597 309.316 C 257.054 309.432,257.094 307.914,256.851 299.603 C 256.662 293.116,256.696 289.802,256.952 289.896 C 257.165 289.975,260.821 293.978,265.075 298.792 C 269.330 303.606,272.886 307.319,272.978 307.044 C 273.845 304.441,268.841 281.994,264.528 269.142 L 262.628 263.480 256.006 262.828 C 246.313 261.874,230.998 258.950,226.345 257.164 C 226.035 257.045,225.781 257.112,225.781 257.312 M69.336 462.338 C 58.152 465.085,48.796 469.071,36.999 476.119 L 32.005 479.102 38.635 479.208 L 45.265 479.315 48.906 476.474 C 54.321 472.249,60.723 468.210,67.754 464.582 C 71.202 462.802,73.848 461.354,73.633 461.363 C 73.418 461.372,71.484 461.811,69.336 462.338 " stroke="none" fill="#632e86" fill-rule="evenodd"></path><path id="path10" d="M256.694 292.676 C 256.750 295.658,256.925 295.333,257.114 291.894 C 257.176 290.766,257.095 289.843,256.934 289.844 C 256.772 289.844,256.665 291.118,256.694 292.676 M257.159 307.227 C 257.161 308.730,257.232 309.298,257.316 308.487 C 257.401 307.677,257.399 306.446,257.313 305.753 C 257.227 305.060,257.158 305.723,257.159 307.227 " stroke="none" fill="#4160a9" fill-rule="evenodd"></path><path id="path11" d="" stroke="none" fill="#006db6" fill-rule="evenodd"></path><path id="path12" d="" stroke="none" fill="#0055ff" fill-rule="evenodd"></path><path id="path13" d="M200.099 150.195 C 200.103 151.055,200.183 151.360,200.276 150.874 C 200.370 150.388,200.366 149.685,200.268 149.312 C 200.171 148.938,200.094 149.336,200.099 150.195 M239.011 152.636 L 232.906 152.754 233.974 155.381 C 235.288 158.609,236.241 162.332,236.576 165.541 C 236.716 166.876,236.878 167.969,236.936 167.969 C 237.339 167.969,247.533 164.271,247.811 164.024 C 248.182 163.695,247.130 157.682,246.390 155.900 C 246.158 155.341,245.996 154.751,246.031 154.590 C 246.065 154.429,245.899 154.297,245.661 154.297 C 245.424 154.297,245.334 154.024,245.462 153.691 C 245.614 153.295,245.537 153.181,245.242 153.364 C 244.939 153.551,244.872 153.428,245.039 152.994 C 245.176 152.636,245.250 152.383,245.203 152.431 C 245.156 152.479,242.370 152.571,239.011 152.636 M234.962 178.613 C 234.539 179.741,234.138 180.776,234.071 180.913 C 233.972 181.115,236.306 182.489,243.029 186.188 C 243.283 186.327,244.971 183.621,245.427 182.343 C 245.621 181.798,236.970 176.563,235.875 176.563 C 235.795 176.563,235.384 177.485,234.962 178.613 M322.815 179.492 C 323.836 183.559,324.101 193.616,323.243 195.777 C 322.965 196.479,323.812 196.737,327.148 196.964 L 328.710 197.070 329.031 194.141 C 329.425 190.546,329.051 180.714,328.514 180.534 C 328.300 180.462,328.125 180.081,328.125 179.687 C 328.125 179.072,327.735 178.952,325.372 178.841 C 322.783 178.719,322.630 178.758,322.815 179.492 M287.184 222.741 C 286.328 224.543,285.144 227.378,284.554 229.040 L 283.482 232.062 284.497 234.097 C 286.675 238.467,286.863 243.510,285.033 248.551 L 284.094 251.138 285.226 253.121 C 286.371 255.125,287.109 255.376,287.109 253.761 C 287.109 248.660,291.675 239.466,296.353 235.148 L 298.633 233.043 295.461 229.900 C 292.850 227.313,291.976 226.113,290.515 223.111 L 288.741 219.464 287.184 222.741 " stroke="none" fill="#bb1c76" fill-rule="evenodd"></path><path id="path14" d="M202.124 136.426 L 200.977 137.695 202.246 136.548 C 202.944 135.917,203.516 135.346,203.516 135.278 C 203.516 134.977,203.193 135.242,202.124 136.426 M199.700 146.094 C 199.700 146.846,199.780 147.153,199.879 146.777 C 199.977 146.401,199.977 145.786,199.879 145.410 C 199.780 145.034,199.700 145.342,199.700 146.094 " stroke="none" fill="#a64190" fill-rule="evenodd"></path><path id="path15" d="" stroke="none" fill="#5555ff" fill-rule="evenodd"></path><path id="path16" d="M252.539 84.766 C 253.597 85.840,254.551 86.719,254.658 86.719 C 254.766 86.719,253.988 85.840,252.930 84.766 C 251.872 83.691,250.918 82.813,250.811 82.813 C 250.703 82.813,251.481 83.691,252.539 84.766 M348.438 84.961 C 349.166 85.713,349.851 86.328,349.958 86.328 C 350.065 86.328,349.557 85.713,348.828 84.961 C 348.099 84.209,347.415 83.594,347.308 83.594 C 347.200 83.594,347.709 84.209,348.438 84.961 M361.523 91.406 C 364.095 93.984,366.287 96.094,366.394 96.094 C 366.501 96.094,364.485 93.984,361.914 91.406 C 359.343 88.828,357.151 86.719,357.043 86.719 C 356.936 86.719,358.952 88.828,361.523 91.406 M352.734 89.648 C 353.463 90.400,354.147 91.016,354.255 91.016 C 354.362 91.016,353.854 90.400,353.125 89.648 C 352.396 88.896,351.712 88.281,351.605 88.281 C 351.497 88.281,352.006 88.896,352.734 89.648 M367.969 98.169 C 367.969 98.236,368.540 98.808,369.238 99.439 L 370.508 100.586 369.361 99.316 C 368.291 98.133,367.969 97.867,367.969 98.169 M380.890 113.207 C 380.873 113.488,380.671 113.601,380.440 113.459 C 380.209 113.316,380.253 113.575,380.538 114.035 C 381.081 114.912,381.541 114.228,381.116 113.176 C 380.970 112.815,380.913 112.823,380.890 113.207 M360.263 117.578 C 360.263 118.545,360.339 118.940,360.432 118.457 C 360.525 117.974,360.525 117.183,360.432 116.699 C 360.339 116.216,360.263 116.611,360.263 117.578 M360.653 125.000 C 360.653 125.967,360.729 126.362,360.823 125.879 C 360.916 125.396,360.916 124.604,360.823 124.121 C 360.729 123.638,360.653 124.033,360.653 125.000 M361.028 130.469 C 361.028 131.221,361.109 131.528,361.207 131.152 C 361.305 130.776,361.305 130.161,361.207 129.785 C 361.109 129.409,361.028 129.717,361.028 130.469 M313.867 133.984 C 316.223 136.348,318.239 138.281,318.346 138.281 C 318.453 138.281,316.614 136.348,314.258 133.984 C 311.902 131.621,309.886 129.688,309.779 129.688 C 309.672 129.688,311.511 131.621,313.867 133.984 M321.875 141.602 C 322.604 142.354,323.288 142.969,323.395 142.969 C 323.503 142.969,322.994 142.354,322.266 141.602 C 321.537 140.850,320.853 140.234,320.745 140.234 C 320.638 140.234,321.146 140.850,321.875 141.602 " stroke="none" fill="#988175" fill-rule="evenodd"></path><path id="path17" d="M248.828 81.445 C 249.557 82.197,250.241 82.813,250.349 82.813 C 250.456 82.813,249.948 82.197,249.219 81.445 C 248.490 80.693,247.806 80.078,247.698 80.078 C 247.591 80.078,248.099 80.693,248.828 81.445 M350.000 86.450 C 350.000 86.518,350.571 87.089,351.270 87.720 L 352.539 88.867 351.392 87.598 C 350.322 86.414,350.000 86.149,350.000 86.450 M255.664 88.281 C 256.503 89.141,257.278 89.844,257.385 89.844 C 257.493 89.844,256.894 89.141,256.055 88.281 C 255.216 87.422,254.441 86.719,254.334 86.719 C 254.226 86.719,254.825 87.422,255.664 88.281 M366.406 96.680 C 367.135 97.432,367.819 98.047,367.927 98.047 C 368.034 98.047,367.526 97.432,366.797 96.680 C 366.068 95.928,365.384 95.313,365.276 95.313 C 365.169 95.313,365.677 95.928,366.406 96.680 M284.466 121.484 C 284.466 122.236,284.546 122.544,284.644 122.168 C 284.743 121.792,284.743 121.177,284.644 120.801 C 284.546 120.425,284.466 120.732,284.466 121.484 M360.645 122.070 C 360.650 122.930,360.730 123.235,360.823 122.749 C 360.917 122.263,360.913 121.560,360.815 121.187 C 360.717 120.813,360.641 121.211,360.645 122.070 M307.796 127.832 C 309.415 129.557,309.766 129.867,309.766 129.574 C 309.766 129.511,308.931 128.676,307.910 127.718 L 306.055 125.977 307.796 127.832 M319.727 139.844 C 320.566 140.703,321.340 141.406,321.448 141.406 C 321.555 141.406,320.956 140.703,320.117 139.844 C 319.278 138.984,318.504 138.281,318.396 138.281 C 318.289 138.281,318.887 138.984,319.727 139.844 M278.216 162.500 C 278.216 163.252,278.296 163.560,278.394 163.184 C 278.493 162.808,278.493 162.192,278.394 161.816 C 278.296 161.440,278.216 161.748,278.216 162.500 M337.988 163.941 C 338.364 164.039,338.979 164.039,339.355 163.941 C 339.731 163.843,339.424 163.763,338.672 163.763 C 337.920 163.763,337.612 163.843,337.988 163.941 " stroke="none" fill="#558ec6" fill-rule="evenodd"></path><path id="path18" d="M276.172 15.870 C 265.176 17.232,261.873 17.700,257.227 18.554 C 244.013 20.983,227.623 25.385,212.305 30.621 C 201.615 34.275,201.172 34.448,201.172 34.977 C 201.172 35.611,202.398 39.203,202.746 39.589 C 202.911 39.771,206.309 38.764,210.297 37.350 C 241.432 26.314,272.445 20.229,291.171 21.482 C 316.290 23.163,342.045 33.422,364.928 50.861 C 370.696 55.258,370.549 55.426,363.746 52.211 C 349.024 45.253,334.247 40.385,325.586 39.640 C 324.082 39.511,322.412 39.328,321.875 39.235 C 320.470 38.990,323.508 40.580,328.711 42.814 C 335.128 45.568,342.140 51.097,351.761 60.987 C 367.905 77.583,376.719 93.280,381.420 113.808 C 381.831 115.601,381.174 114.953,377.138 109.576 C 365.619 94.232,354.402 83.572,342.383 76.549 C 341.021 75.753,340.898 75.733,341.427 76.392 C 342.000 77.107,349.186 85.196,353.231 89.680 C 355.321 91.996,355.733 92.981,357.627 100.195 C 359.596 107.696,360.137 111.339,360.760 121.289 C 362.142 143.350,364.759 159.091,368.944 170.508 C 369.732 172.656,370.474 174.736,370.593 175.129 C 371.223 177.202,352.058 165.717,340.393 157.030 C 320.306 142.073,302.050 123.306,285.385 100.480 C 282.833 96.985,280.701 94.172,280.647 94.230 C 280.593 94.288,281.139 97.324,281.861 100.977 C 283.890 111.241,285.717 129.484,284.615 128.474 C 284.472 128.343,282.932 125.794,281.191 122.809 C 263.886 93.139,241.741 71.158,218.900 60.979 C 214.549 59.040,206.255 56.114,205.957 56.413 C 205.610 56.759,206.368 61.787,206.787 61.926 C 237.661 72.107,266.885 101.871,284.823 141.406 C 286.334 144.736,287.619 147.510,287.678 147.571 C 288.663 148.580,290.315 128.878,289.864 121.496 C 289.453 114.765,289.472 114.652,290.717 116.249 C 301.208 129.705,321.181 149.164,335.561 159.939 C 337.809 161.623,340.352 163.664,341.211 164.473 C 347.705 170.588,368.439 181.848,382.529 186.911 C 386.560 188.359,386.558 188.328,382.242 182.757 C 373.197 171.085,368.520 153.746,366.819 125.586 C 366.204 115.394,365.672 110.026,364.893 106.152 C 364.515 104.272,364.243 102.734,364.288 102.734 C 364.524 102.734,372.120 112.477,374.643 116.016 C 379.074 122.229,380.316 124.213,384.419 131.626 C 386.496 135.378,388.346 138.498,388.531 138.560 C 389.060 138.737,388.424 122.046,387.714 117.126 C 384.672 96.042,374.385 76.196,357.203 58.262 L 352.670 53.530 354.948 54.530 C 366.833 59.747,381.855 67.746,397.989 77.450 C 403.626 80.841,382.636 57.792,372.478 49.438 C 351.390 32.093,325.896 20.432,300.586 16.554 C 296.820 15.977,279.275 15.486,276.172 15.870 M134.024 68.652 C 123.417 79.258,116.340 91.063,111.137 106.831 C 108.416 115.078,108.416 115.062,111.185 117.490 C 113.871 119.846,113.695 119.955,114.838 115.234 C 118.298 100.945,125.313 87.286,134.872 76.225 C 136.532 74.304,137.892 72.496,137.894 72.206 C 137.896 71.917,138.336 69.961,138.871 67.860 C 139.406 65.760,139.844 63.958,139.844 63.856 C 139.844 63.097,138.342 64.335,134.024 68.652 M262.891 263.386 C 262.891 263.443,263.692 265.860,264.670 268.757 C 268.910 281.302,272.215 295.536,273.284 305.859 C 273.613 309.031,274.241 309.552,264.629 298.675 L 257.227 290.298 257.098 293.294 C 257.027 294.941,257.091 299.336,257.239 303.060 L 257.509 309.831 259.259 310.581 C 260.222 310.994,261.461 311.445,262.012 311.583 L 263.015 311.835 262.776 308.456 C 262.474 304.170,262.215 304.055,268.177 310.862 C 272.920 316.278,278.600 320.749,279.542 319.807 C 279.905 319.444,278.820 306.389,277.897 300.021 C 277.351 296.250,276.740 291.950,276.541 290.466 C 276.341 288.982,275.836 286.697,275.418 285.388 C 275.000 284.079,274.287 281.689,273.834 280.078 C 273.381 278.467,272.021 274.028,270.812 270.215 L 268.613 263.281 265.752 263.281 C 264.178 263.281,262.891 263.328,262.891 263.386 M148.102 443.031 C 144.414 444.856,142.412 449.895,143.921 453.553 C 144.117 454.029,143.738 454.344,142.319 454.886 C 138.535 456.332,135.547 460.606,135.547 464.575 C 135.547 472.826,146.015 477.524,151.067 471.541 L 151.940 470.508 152.713 471.484 C 153.139 472.021,154.241 473.999,155.161 475.879 L 156.836 479.296 158.887 479.297 C 160.015 479.297,160.938 479.228,160.938 479.145 C 160.938 479.061,160.663 477.546,160.328 475.778 C 159.616 472.026,159.692 471.675,161.278 471.358 C 164.080 470.797,164.581 464.111,162.048 461.059 C 161.508 460.409,161.479 460.429,163.826 459.833 C 167.566 458.884,169.300 456.633,169.297 452.734 C 169.292 446.104,164.556 442.186,158.502 443.805 C 156.964 444.216,156.719 444.171,155.317 443.219 C 153.360 441.891,150.553 441.818,148.102 443.031 M154.881 443.703 C 158.433 445.751,158.588 451.172,155.096 451.172 C 154.656 451.172,154.297 451.216,154.297 451.270 C 154.297 451.323,154.649 452.292,155.078 453.422 C 156.006 455.863,156.073 457.828,155.281 459.360 C 153.601 462.610,149.062 463.237,147.823 460.391 C 147.482 459.607,147.291 459.431,147.281 459.893 C 147.249 461.369,149.482 463.011,151.206 462.779 C 155.370 462.221,157.518 457.697,155.693 453.329 C 155.140 452.006,155.146 451.990,156.462 451.214 C 158.244 450.162,158.683 448.064,157.633 445.611 C 157.217 444.640,159.029 444.035,161.778 444.226 C 170.663 444.846,171.314 458.662,162.488 459.300 C 160.342 459.455,160.174 459.530,160.680 460.107 C 161.867 461.461,162.986 464.299,163.182 466.453 C 163.711 472.297,157.994 472.460,154.701 466.695 C 153.422 464.454,153.631 464.326,152.300 468.164 C 150.966 472.010,146.957 474.406,143.440 473.459 C 133.972 470.910,133.792 458.176,143.182 455.216 L 145.199 454.581 144.575 453.364 C 141.520 447.409,149.057 440.343,154.881 443.703 M85.938 453.781 C 67.936 455.624,57.665 458.451,43.941 465.338 C 36.430 469.106,21.883 478.117,21.877 479.004 C 21.876 479.165,24.000 479.297,26.598 479.297 L 31.321 479.297 35.469 476.693 C 47.689 469.022,67.981 460.938,75.000 460.945 C 75.322 460.945,72.686 462.398,69.141 464.173 C 60.690 468.405,52.372 473.678,47.461 477.918 L 45.898 479.268 53.408 479.282 L 60.918 479.297 64.150 476.683 C 71.815 470.487,83.019 464.066,91.992 460.728 L 95.898 459.274 103.125 459.503 C 109.581 459.707,118.844 460.554,121.266 461.162 C 122.228 461.403,125.433 456.491,124.730 455.853 C 124.377 455.532,116.516 454.495,109.961 453.904 C 105.990 453.546,89.078 453.459,85.938 453.781 M151.953 477.239 C 151.953 478.654,152.394 479.297,153.362 479.297 C 154.595 479.297,154.541 478.896,153.125 477.539 C 152.029 476.489,151.953 476.469,151.953 477.239 " stroke="none" fill="#1b98d1" fill-rule="evenodd"></path><path id="path19" d="M230.078 31.413 C 223.245 33.424,203.671 39.949,203.271 40.349 C 203.169 40.451,203.434 41.917,203.861 43.607 C 204.907 47.747,205.859 52.929,205.859 54.476 L 205.859 55.740 210.840 57.390 C 236.768 65.979,261.695 88.880,281.242 122.070 L 284.462 127.539 284.224 122.403 C 283.907 115.577,283.050 109.167,281.268 100.293 C 280.459 96.265,279.931 92.969,280.094 92.969 C 280.258 92.969,282.709 96.136,285.541 100.007 C 293.065 110.292,306.016 126.146,306.498 125.663 C 306.703 125.458,303.558 116.316,300.895 109.375 C 285.668 69.693,265.996 42.236,245.439 31.973 C 239.097 28.806,238.952 28.801,230.078 31.413 M167.608 458.367 C 167.119 458.887,166.205 459.525,165.576 459.786 C 164.802 460.106,164.496 460.463,164.629 460.891 C 165.296 463.050,166.839 470.376,167.394 474.023 C 167.754 476.387,168.113 478.540,168.192 478.809 C 168.486 479.814,173.438 479.445,173.435 478.418 C 173.425 475.010,169.380 457.422,168.606 457.422 C 168.545 457.422,168.096 457.847,167.608 458.367 " stroke="none" fill="#ec4141" fill-rule="evenodd"></path><path id="path20" d="M241.924 166.338 L 236.777 168.164 236.650 170.606 L 236.523 173.049 242.234 173.048 L 247.945 173.047 248.187 171.582 C 248.498 169.697,248.506 165.868,248.200 165.071 C 247.880 164.237,247.801 164.253,241.924 166.338 M323.047 197.211 C 323.047 197.421,322.948 197.850,322.828 198.164 C 322.660 198.600,323.236 198.876,325.269 199.333 C 328.308 200.016,328.102 200.077,328.484 198.371 L 328.775 197.070 325.911 196.950 C 324.228 196.880,323.047 196.987,323.047 197.211 M286.044 241.406 C 286.044 242.373,286.120 242.769,286.213 242.285 C 286.306 241.802,286.306 241.011,286.213 240.527 C 286.120 240.044,286.044 240.439,286.044 241.406 " stroke="none" fill="#d9539d" fill-rule="evenodd"></path><path id="path21" d="M135.109 76.079 C 126.283 85.612,118.821 100.107,114.852 115.424 L 113.741 119.715 118.382 124.485 C 123.651 129.900,128.079 135.665,131.897 142.080 C 133.338 144.502,134.617 146.483,134.739 146.481 C 134.861 146.479,136.329 142.474,138.002 137.580 L 141.043 128.682 140.026 125.979 C 135.626 114.289,134.499 96.907,136.938 78.352 C 137.617 73.183,137.698 73.283,135.109 76.079 M92.188 460.713 C 83.649 463.842,72.309 470.312,64.408 476.563 L 61.198 479.102 72.621 479.205 L 84.043 479.309 86.260 477.941 C 92.189 474.281,102.673 471.103,114.615 469.345 C 119.178 468.673,119.529 468.566,119.536 467.848 C 119.539 467.592,120.129 466.035,120.848 464.389 L 122.155 461.394 120.941 461.170 C 117.198 460.479,108.706 459.724,102.734 459.551 L 95.898 459.353 92.188 460.713 " stroke="none" fill="#5fbb4e" fill-rule="evenodd"></path><path id="path22" d="M254.688 25.236 C 252.217 25.753,247.581 26.812,244.386 27.590 L 238.576 29.003 241.263 30.048 C 265.458 39.462,290.846 76.018,305.712 122.852 L 306.828 126.367 311.520 131.203 C 328.452 148.658,347.091 162.885,367.343 173.810 C 369.735 175.100,370.361 175.311,370.127 174.749 C 365.009 162.413,361.767 144.764,360.558 122.656 C 359.956 111.647,358.929 105.421,356.179 96.094 L 354.969 91.992 351.365 88.086 C 345.206 81.411,340.236 75.591,340.590 75.470 C 341.051 75.313,346.872 78.782,350.000 81.077 C 359.061 87.727,370.778 99.999,378.808 111.248 C 379.773 112.601,380.645 113.626,380.745 113.526 C 381.075 113.196,380.017 108.884,378.242 103.320 L 376.498 97.852 373.816 95.248 C 359.234 81.091,328.538 59.442,302.344 44.840 C 288.622 37.192,261.248 24.042,259.496 24.258 C 259.322 24.279,257.158 24.720,254.688 25.236 M282.752 235.059 C 281.974 238.502,282.139 245.792,283.057 248.621 L 283.814 250.953 284.771 248.817 C 286.268 245.472,286.208 237.798,284.661 234.863 C 283.327 232.332,283.368 232.328,282.752 235.059 " stroke="none" fill="#ef7135" fill-rule="evenodd"></path><path id="path23" d="M176.758 8.775 C 165.430 14.575,145.572 43.181,140.547 60.938 C 139.730 63.827,137.891 71.705,137.891 72.318 C 137.891 72.588,137.407 73.343,136.816 73.996 C 135.943 74.961,135.917 75.038,136.676 74.408 L 137.610 73.633 137.373 75.000 C 134.406 92.096,135.470 113.459,139.893 125.586 L 141.033 128.711 137.997 137.594 C 136.327 142.480,134.861 146.479,134.739 146.481 C 134.617 146.483,133.338 144.502,131.897 142.080 C 128.073 135.655,123.650 129.898,118.352 124.454 C 115.782 121.813,113.810 119.510,113.969 119.334 C 114.128 119.159,114.055 119.131,113.807 119.273 C 113.550 119.420,112.203 118.410,110.682 116.929 C 98.867 105.432,83.240 97.177,75.288 98.230 C 61.130 100.105,60.705 111.480,73.618 142.969 L 76.581 150.195 73.349 147.044 C 49.663 123.952,31.937 115.146,15.959 118.532 C -4.277 122.822,3.213 146.189,37.313 185.156 C 43.082 191.749,46.228 195.108,59.360 208.697 L 63.046 212.511 58.967 211.108 C 41.016 204.932,27.964 206.618,21.611 215.934 C 15.205 225.325,19.686 235.836,35.547 248.622 C 42.969 254.606,45.256 256.094,84.839 280.690 L 97.998 288.867 95.191 289.550 C 86.561 291.648,81.403 296.687,80.496 303.906 C 78.615 318.868,93.034 330.464,122.266 337.499 C 125.166 338.198,130.000 339.363,133.008 340.090 C 141.282 342.090,150.073 344.650,150.221 345.104 C 151.136 347.912,154.291 355.966,156.040 359.961 C 162.477 374.660,163.404 377.763,163.391 384.570 C 163.370 395.420,158.953 406.201,147.627 423.047 C 143.699 428.890,142.303 430.870,134.924 441.076 C 124.456 455.552,120.279 463.563,117.748 474.008 C 116.397 479.585,116.303 479.297,119.469 479.297 L 122.141 479.297 122.638 477.051 C 124.896 466.834,128.955 459.270,141.243 442.382 C 171.211 401.196,174.830 388.108,163.420 362.207 C 159.787 353.960,157.079 347.078,157.419 346.952 C 157.835 346.799,164.897 349.437,167.272 350.634 C 170.975 352.500,169.483 350.732,164.439 347.277 C 157.512 342.533,148.668 338.539,138.867 335.729 C 128.005 332.614,123.428 321.777,131.750 318.875 C 135.883 317.434,150.026 318.364,157.568 320.572 C 159.078 321.015,157.602 319.857,148.735 313.646 C 118.147 292.220,106.009 279.884,102.169 266.321 C 98.737 254.202,100.809 247.919,108.540 247.004 C 114.767 246.266,125.360 254.712,139.317 271.543 C 142.680 275.599,145.489 278.860,145.560 278.789 C 145.630 278.719,144.286 274.805,142.574 270.092 C 130.680 237.363,128.076 211.250,135.972 203.874 C 139.889 200.215,147.449 206.962,153.888 219.863 C 156.454 225.004,156.711 226.055,161.883 252.539 C 164.528 266.083,169.277 284.057,173.420 296.203 C 176.653 305.683,181.192 316.678,181.232 315.128 C 181.264 313.903,178.540 300.912,175.727 288.867 C 169.889 263.875,169.098 260.268,166.601 247.237 C 159.612 210.765,151.272 182.334,140.788 159.239 L 138.332 153.829 141.243 145.372 C 142.844 140.720,144.251 136.650,144.370 136.328 C 144.535 135.883,144.788 136.024,145.425 136.914 C 146.545 138.479,150.868 143.012,151.059 142.821 C 151.142 142.738,150.746 141.990,150.178 141.159 C 140.378 126.826,138.112 89.567,145.545 64.960 C 150.957 47.040,164.042 26.454,176.496 16.265 C 179.685 13.657,179.829 13.637,182.048 15.527 C 192.121 24.109,201.028 47.046,204.525 73.408 C 204.921 76.390,205.383 75.366,205.838 70.504 C 207.108 56.924,204.015 39.927,198.088 27.919 C 190.902 13.357,182.513 5.829,176.758 8.775 M283.878 21.376 C 284.571 21.462,285.802 21.463,286.612 21.379 C 287.423 21.294,286.855 21.224,285.352 21.222 C 283.848 21.220,283.185 21.289,283.878 21.376 M292.676 21.754 C 293.052 21.852,293.667 21.852,294.043 21.754 C 294.419 21.655,294.111 21.575,293.359 21.575 C 292.607 21.575,292.300 21.655,292.676 21.754 M321.730 39.371 C 321.625 39.541,322.142 39.610,322.879 39.524 C 323.616 39.438,324.219 39.299,324.219 39.215 C 324.219 38.921,321.919 39.066,321.730 39.371 M166.707 53.417 C 164.653 57.760,163.730 60.264,162.353 65.234 C 158.531 79.023,159.237 99.863,163.865 109.858 L 164.455 111.133 164.261 109.180 C 162.657 93.040,164.171 71.811,168.226 53.583 C 169.493 47.887,169.330 47.869,166.707 53.417 M345.703 55.273 C 346.432 56.025,347.116 56.641,347.224 56.641 C 347.331 56.641,346.823 56.025,346.094 55.273 C 345.365 54.521,344.681 53.906,344.573 53.906 C 344.466 53.906,344.974 54.521,345.703 55.273 M354.297 63.867 C 355.026 64.619,355.710 65.234,355.817 65.234 C 355.925 65.234,355.416 64.619,354.688 63.867 C 353.959 63.115,353.274 62.500,353.167 62.500 C 353.060 62.500,353.568 63.115,354.297 63.867 M218.001 66.555 C 218.400 66.918,222.266 68.743,222.266 68.568 C 222.266 68.348,218.535 66.406,218.112 66.406 C 217.962 66.406,217.912 66.473,218.001 66.555 M244.124 84.473 C 245.743 86.197,246.094 86.507,246.094 86.214 C 246.094 86.151,245.259 85.316,244.238 84.359 L 242.383 82.617 244.124 84.473 M252.930 93.359 C 253.988 94.434,254.941 95.313,255.049 95.313 C 255.156 95.313,254.378 94.434,253.320 93.359 C 252.262 92.285,251.309 91.406,251.201 91.406 C 251.094 91.406,251.872 92.285,252.930 93.359 M81.892 105.115 C 90.335 107.694,101.367 115.497,113.060 127.160 C 124.544 138.613,132.692 152.554,141.595 175.977 C 144.657 184.032,150.781 202.732,150.781 204.025 C 150.781 204.224,149.610 203.290,148.177 201.951 C 140.573 194.837,132.903 195.827,128.872 204.444 C 124.566 213.645,124.917 228.450,129.914 248.416 C 130.637 251.304,131.189 253.705,131.142 253.750 C 131.094 253.795,129.473 252.437,127.539 250.731 C 117.174 241.587,111.287 239.631,103.220 242.649 C 91.183 247.153,92.636 268.895,106.048 284.965 C 107.126 286.256,108.271 287.646,108.594 288.055 C 108.916 288.463,107.773 287.919,106.055 286.846 C 104.336 285.773,92.646 278.510,80.078 270.707 C 37.929 244.537,30.543 238.879,26.018 229.297 C 21.218 219.135,31.316 211.268,45.898 213.808 C 59.075 216.103,68.827 220.761,99.316 239.321 C 100.457 240.015,97.917 237.512,85.059 225.273 C 40.612 182.964,17.775 155.301,11.695 136.403 C 8.332 125.954,14.571 121.789,29.032 124.831 C 44.828 128.154,63.489 143.134,90.420 174.108 C 95.130 179.526,99.038 183.905,99.103 183.839 C 99.169 183.774,96.427 178.023,93.011 171.059 C 76.434 137.272,67.825 112.936,70.474 107.353 C 71.906 104.335,76.434 103.448,81.892 105.115 M267.578 111.719 C 268.037 112.363,268.500 112.891,268.608 112.891 C 268.715 112.891,268.428 112.363,267.969 111.719 C 267.510 111.074,267.046 110.547,266.939 110.547 C 266.832 110.547,267.119 111.074,267.578 111.719 M289.453 116.406 C 289.453 117.051,289.521 117.578,289.604 117.578 C 289.687 117.578,289.832 117.051,289.927 116.406 C 290.022 115.762,289.954 115.234,289.776 115.234 C 289.598 115.234,289.453 115.762,289.453 116.406 M289.975 122.266 C 289.975 123.877,290.044 124.536,290.128 123.730 C 290.213 122.925,290.213 121.606,290.128 120.801 C 290.044 119.995,289.975 120.654,289.975 122.266 M296.094 123.169 C 296.094 123.236,296.665 123.808,297.363 124.439 L 298.633 125.586 297.486 124.316 C 296.416 123.133,296.094 122.867,296.094 123.169 M300.195 127.734 C 301.034 128.594,301.809 129.297,301.916 129.297 C 302.024 129.297,301.425 128.594,300.586 127.734 C 299.747 126.875,298.972 126.172,298.865 126.172 C 298.757 126.172,299.356 126.875,300.195 127.734 M289.965 132.227 C 289.967 133.516,290.040 133.996,290.127 133.294 C 290.214 132.592,290.212 131.537,290.123 130.950 C 290.034 130.363,289.963 130.938,289.965 132.227 M302.344 130.180 C 302.344 130.235,305.815 133.707,310.059 137.894 L 317.773 145.508 310.160 137.793 C 303.086 130.625,302.344 129.902,302.344 130.180 M319.922 147.461 C 320.651 148.213,321.335 148.828,321.442 148.828 C 321.550 148.828,321.041 148.213,320.313 147.461 C 319.584 146.709,318.899 146.094,318.792 146.094 C 318.685 146.094,319.193 146.709,319.922 147.461 M278.224 159.961 C 278.228 160.820,278.308 161.126,278.401 160.640 C 278.495 160.154,278.491 159.451,278.393 159.077 C 278.296 158.704,278.219 159.102,278.224 159.961 M278.216 164.844 C 278.216 165.596,278.296 165.903,278.394 165.527 C 278.493 165.151,278.493 164.536,278.394 164.160 C 278.296 163.784,278.216 164.092,278.216 164.844 M338.798 163.952 C 337.573 164.106,337.554 164.141,337.308 166.722 C 336.591 174.226,333.766 187.288,330.840 196.625 L 329.633 200.477 328.391 200.211 C 327.707 200.065,325.391 199.625,323.242 199.233 C 317.561 198.198,313.355 196.125,308.801 192.116 L 306.958 190.494 308.210 192.528 C 311.431 197.764,316.158 201.435,322.526 203.649 C 332.287 207.041,333.552 209.103,330.056 215.920 C 323.504 228.700,313.216 233.198,302.344 228.036 C 297.224 225.605,291.907 218.250,291.178 212.589 C 290.812 209.747,290.717 209.777,287.988 213.604 C 277.626 228.136,274.357 243.811,279.452 254.540 L 280.784 257.344 275.076 257.630 C 252.724 258.747,231.038 254.101,200.195 241.586 C 190.349 237.591,190.317 237.592,195.771 241.808 C 201.901 246.545,208.490 250.305,215.625 253.138 C 219.712 254.760,219.922 254.912,219.922 256.247 C 219.922 269.519,229.146 295.013,246.529 329.785 C 250.154 337.036,253.030 342.969,252.920 342.969 C 252.810 342.969,249.779 341.492,246.185 339.687 C 232.562 332.847,219.073 327.468,210.797 325.576 C 206.652 324.628,206.923 324.994,212.750 328.221 C 246.222 346.753,275.777 360.794,295.667 367.613 L 300.381 369.230 299.595 370.333 C 299.163 370.940,295.078 375.061,290.518 379.492 C 285.958 383.923,282.674 387.379,283.222 387.173 C 304.385 379.201,321.211 356.516,318.347 339.818 L 317.849 336.914 316.741 341.326 C 315.011 348.220,315.424 347.949,310.726 345.271 C 291.928 334.553,288.704 326.422,293.371 301.498 C 296.252 286.114,305.768 273.378,315.510 271.866 C 330.119 269.600,353.606 284.553,365.528 303.711 C 392.291 346.719,373.420 399.186,321.928 424.930 C 303.886 433.950,295.857 434.307,280.664 426.768 C 261.060 417.039,234.308 396.146,209.570 371.244 C 199.129 360.733,189.430 351.456,189.162 351.724 C 188.885 352.000,190.896 355.609,193.643 359.766 C 205.387 377.538,232.140 402.145,260.547 421.304 C 264.307 423.840,267.458 425.974,267.549 426.047 C 267.861 426.295,265.937 436.505,264.435 442.578 C 261.134 455.923,256.410 467.227,250.525 475.871 C 249.377 477.557,248.438 479.024,248.438 479.131 C 248.438 479.238,250.055 479.276,252.033 479.214 L 255.628 479.102 256.944 476.882 L 258.259 474.663 263.798 474.879 C 275.302 475.328,290.727 472.446,298.915 468.317 C 311.925 461.757,317.088 451.984,314.510 438.799 L 313.809 435.215 316.377 434.149 C 376.114 409.360,400.754 349.117,370.846 300.977 C 355.436 276.171,326.645 260.553,309.053 267.456 C 303.492 269.638,290.625 284.952,290.625 289.388 C 290.625 289.796,290.288 289.868,289.272 289.677 C 285.472 288.964,277.781 289.307,276.813 290.233 C 276.627 290.411,276.713 292.084,277.006 293.994 C 277.296 295.886,277.589 297.145,277.657 296.791 C 277.877 295.653,283.999 294.866,287.381 295.543 L 288.531 295.773 287.849 298.960 C 286.694 304.362,285.878 312.042,285.839 317.881 C 285.819 320.948,285.691 323.409,285.554 323.350 C 282.202 321.898,280.074 320.063,280.012 318.571 L 279.947 316.992 279.792 318.481 C 279.707 319.300,279.488 319.915,279.306 319.848 C 275.572 318.474,273.054 316.443,268.177 310.868 C 262.222 304.062,262.474 304.178,262.772 308.398 C 263.037 312.145,263.089 312.093,260.182 310.948 C 258.516 310.291,244.363 305.597,241.406 304.721 C 238.337 303.811,228.954 277.261,226.162 261.583 C 225.185 256.099,224.991 256.469,228.346 257.433 C 237.779 260.143,249.916 262.160,261.578 262.956 L 268.664 263.440 270.846 270.294 C 272.046 274.064,273.484 278.818,274.041 280.859 C 275.618 286.641,275.310 286.523,277.979 282.374 C 281.210 277.353,283.712 273.363,287.382 267.383 C 289.096 264.590,290.877 262.132,291.340 261.920 C 291.909 261.660,292.110 261.309,291.960 260.835 C 291.817 260.385,292.852 258.220,294.859 254.774 C 296.576 251.826,299.734 246.338,301.876 242.578 L 305.770 235.742 310.405 235.871 C 320.573 236.155,327.841 231.544,334.089 220.846 C 338.822 212.742,339.002 207.864,334.725 203.587 L 332.837 201.699 334.989 195.731 C 340.532 180.358,343.416 162.889,340.271 163.734 C 340.144 163.769,339.481 163.867,338.798 163.952 M208.226 174.754 C 233.192 185.076,247.798 192.877,260.492 202.669 C 264.743 205.947,264.092 204.695,258.628 199.082 C 250.952 191.196,241.345 184.848,229.207 179.643 C 222.736 176.868,216.191 174.647,209.570 172.981 C 197.969 170.062,197.709 170.405,208.226 174.754 M234.766 199.748 C 234.766 200.140,238.672 201.999,241.559 202.981 C 246.897 204.797,255.632 205.891,253.637 204.494 C 250.432 202.249,234.766 198.309,234.766 199.748 M306.368 211.738 C 306.823 217.172,309.340 218.276,313.805 215.000 C 315.988 213.398,315.996 213.190,313.856 213.678 C 311.067 214.314,307.031 212.077,307.031 209.895 C 307.031 209.634,306.828 209.295,306.579 209.141 C 306.244 208.934,306.189 209.608,306.368 211.738 M289.453 219.704 C 289.453 221.993,294.766 229.590,297.817 231.664 C 298.588 232.188,299.140 232.828,299.044 233.086 C 298.939 233.365,299.096 233.466,299.434 233.337 C 300.335 232.991,300.268 233.125,294.658 242.870 C 291.720 247.973,288.937 252.808,288.474 253.614 C 288.011 254.420,287.514 254.962,287.371 254.819 C 287.227 254.675,287.109 254.878,287.109 255.269 C 287.109 257.348,283.313 251.080,282.499 247.656 C 281.265 242.466,281.770 236.236,283.953 229.718 C 286.166 223.114,289.453 217.129,289.453 219.704 M295.703 236.133 C 294.754 237.100,294.066 237.891,294.173 237.891 C 294.281 237.891,295.145 237.100,296.094 236.133 C 297.043 235.166,297.731 234.375,297.624 234.375 C 297.516 234.375,296.652 235.166,295.703 236.133 M282.373 263.770 C 282.116 264.253,280.056 267.620,277.793 271.252 L 273.680 277.855 271.433 270.871 C 270.197 267.030,269.219 263.862,269.261 263.831 C 269.302 263.800,272.148 263.605,275.586 263.399 C 279.023 263.192,282.062 262.993,282.338 262.957 C 282.737 262.904,282.744 263.071,282.373 263.770 M110.116 294.542 L 115.350 294.941 119.101 298.189 C 123.698 302.169,129.660 306.908,133.672 309.769 C 137.293 312.352,137.286 312.328,134.473 312.627 C 129.004 313.209,125.267 315.258,123.287 318.760 C 121.388 322.120,121.584 325.592,123.997 331.299 C 124.223 331.834,123.606 331.755,120.043 330.792 C 95.237 324.087,83.523 314.215,86.719 302.709 C 87.906 298.437,93.522 295.348,101.563 294.543 C 103.174 294.382,104.580 294.226,104.688 294.196 C 104.795 294.167,107.238 294.322,110.116 294.542 M278.007 299.805 C 278.135 301.094,278.471 303.906,278.755 306.055 L 279.271 309.961 279.058 306.641 C 278.940 304.814,278.604 302.002,278.310 300.391 C 277.813 297.665,277.792 297.624,278.007 299.805 M269.278 312.572 L 272.315 315.964 267.798 313.957 L 263.281 311.951 263.281 309.930 C 263.281 308.819,263.167 307.341,263.028 306.644 L 262.775 305.379 264.508 307.279 C 265.462 308.324,267.608 310.706,269.278 312.572 M279.436 313.477 C 279.434 315.410,279.500 316.250,279.582 315.344 C 279.664 314.437,279.665 312.855,279.584 311.828 C 279.504 310.801,279.437 311.543,279.436 313.477 M258.398 316.522 C 272.669 322.143,287.072 330.657,289.453 334.880 C 292.260 339.858,298.645 345.187,308.498 350.774 L 312.113 352.824 310.842 355.143 C 309.077 358.361,304.806 364.063,304.161 364.063 C 301.698 364.063,281.579 356.221,267.085 349.611 L 261.709 347.160 252.925 329.592 C 248.094 319.930,244.141 311.874,244.141 311.691 C 244.141 311.298,251.247 313.706,258.398 316.522 M278.516 432.289 C 288.639 437.250,296.715 438.830,305.040 437.479 C 308.117 436.980,307.996 436.845,308.788 441.633 C 311.423 457.565,294.099 468.737,266.743 468.748 L 261.415 468.750 263.284 464.551 C 265.465 459.651,268.194 451.606,269.744 445.508 C 270.344 443.145,270.891 441.140,270.959 441.054 C 271.026 440.968,271.919 441.680,272.943 442.636 C 278.893 448.192,287.160 451.829,294.768 452.238 C 300.116 452.526,300.126 452.029,294.813 449.997 C 292.402 449.076,287.441 446.927,283.789 445.223 C 280.137 443.519,275.812 441.510,274.178 440.759 L 271.207 439.392 271.886 436.005 C 272.259 434.142,272.683 431.947,272.828 431.127 C 272.973 430.308,273.213 429.696,273.362 429.767 C 273.511 429.838,275.830 430.973,278.516 432.289 M151.079 442.073 C 151.565 442.167,152.268 442.163,152.641 442.065 C 153.015 441.967,152.617 441.891,151.758 441.895 C 150.898 441.900,150.593 441.980,151.079 442.073 M160.645 443.238 C 161.021 443.336,161.636 443.336,162.012 443.238 C 162.388 443.140,162.080 443.059,161.328 443.059 C 160.576 443.059,160.269 443.140,160.645 443.238 M146.297 444.913 C 145.913 445.337,145.459 445.598,145.287 445.492 C 145.116 445.386,144.884 445.449,144.771 445.632 C 144.315 446.369,145.748 445.901,146.546 445.052 C 147.016 444.551,147.311 444.141,147.199 444.141 C 147.087 444.141,146.682 444.488,146.297 444.913 M166.406 445.508 C 167.135 446.260,167.819 446.875,167.927 446.875 C 168.034 446.875,167.526 446.260,166.797 445.508 C 166.068 444.756,165.384 444.141,165.276 444.141 C 165.169 444.141,165.677 444.756,166.406 445.508 M156.349 456.836 C 156.353 457.695,156.433 458.001,156.526 457.515 C 156.620 457.029,156.616 456.326,156.518 455.952 C 156.421 455.579,156.344 455.977,156.349 456.836 M147.895 461.258 C 147.768 461.463,147.912 461.836,148.215 462.087 C 148.649 462.447,148.747 462.418,148.678 461.947 C 148.560 461.141,148.176 460.803,147.895 461.258 M144.629 473.707 C 145.005 473.805,145.620 473.805,145.996 473.707 C 146.372 473.609,146.064 473.528,145.313 473.528 C 144.561 473.528,144.253 473.609,144.629 473.707 M144.238 474.499 C 144.829 474.588,145.796 474.588,146.387 474.499 C 146.978 474.409,146.494 474.336,145.313 474.336 C 144.131 474.336,143.647 474.409,144.238 474.499 " stroke="none" fill="#6babda" fill-rule="evenodd"></path><path id="path24" d="M243.262 173.333 C 244.175 173.415,245.669 173.415,246.582 173.333 C 247.495 173.251,246.748 173.183,244.922 173.183 C 243.096 173.183,242.349 173.251,243.262 173.333 " stroke="none" fill="#ed8cc3" fill-rule="evenodd"></path><path id="path25" d="" stroke="none" fill="#f39d5c" fill-rule="evenodd"></path><path id="path26" d="M175.943 16.752 C 163.367 27.462,150.898 47.237,145.545 64.960 C 138.112 89.567,140.378 126.826,150.178 141.159 C 150.746 141.990,151.142 142.738,151.059 142.821 C 150.868 143.012,146.545 138.479,145.425 136.914 C 144.788 136.024,144.535 135.883,144.370 136.328 C 144.251 136.650,142.844 140.720,141.243 145.372 L 138.332 153.829 140.788 159.239 C 151.272 182.334,159.612 210.765,166.601 247.237 C 169.098 260.268,169.889 263.875,175.727 288.867 C 178.540 300.912,181.264 313.903,181.232 315.128 C 181.192 316.678,176.653 305.683,173.420 296.203 C 169.277 284.057,164.528 266.083,161.883 252.539 C 156.711 226.055,156.454 225.004,153.888 219.863 C 147.449 206.962,139.889 200.215,135.972 203.874 C 128.076 211.250,130.680 237.363,142.574 270.092 C 144.286 274.805,145.630 278.719,145.560 278.789 C 145.489 278.860,142.680 275.599,139.317 271.543 C 125.360 254.712,114.767 246.266,108.540 247.004 C 100.809 247.919,98.737 254.202,102.169 266.321 C 106.009 279.884,118.147 292.220,148.735 313.646 C 157.602 319.857,159.078 321.015,157.568 320.572 C 150.026 318.364,135.883 317.434,131.750 318.875 C 123.428 321.777,128.005 332.614,138.867 335.729 C 148.668 338.539,157.512 342.533,164.439 347.277 C 169.483 350.732,170.975 352.500,167.272 350.634 C 164.897 349.437,157.835 346.799,157.419 346.952 C 157.079 347.078,159.787 353.960,163.420 362.207 C 174.826 388.099,171.217 401.165,141.286 442.328 C 128.781 459.527,122.280 471.995,122.267 478.809 C 122.266 479.191,125.504 479.297,137.159 479.297 L 152.053 479.297 151.803 477.734 C 151.490 475.778,151.737 475.778,153.411 477.734 C 156.178 480.967,156.884 479.749,154.720 475.480 C 152.284 470.675,152.263 470.657,150.711 472.124 C 144.294 478.190,133.651 471.510,135.559 462.614 C 136.352 458.916,139.635 455.252,142.892 454.429 C 143.683 454.229,143.754 454.055,143.479 452.980 C 141.629 445.730,150.097 438.892,155.666 443.139 C 156.844 444.037,156.910 444.043,159.195 443.459 C 165.656 441.807,171.641 449.089,169.167 455.594 C 168.889 456.327,169.110 457.503,170.110 460.600 C 171.494 464.885,173.220 472.781,173.663 476.855 L 173.929 479.297 211.086 479.295 L 248.242 479.294 250.643 475.682 C 256.700 466.569,261.130 455.936,264.435 442.578 C 265.937 436.505,267.861 426.295,267.549 426.047 C 267.458 425.974,264.307 423.840,260.547 421.304 C 232.140 402.145,205.387 377.538,193.643 359.766 C 190.896 355.609,188.885 352.000,189.162 351.724 C 189.430 351.456,199.129 360.733,209.570 371.244 C 244.650 406.557,280.285 431.097,297.693 431.929 C 317.451 432.873,351.034 410.237,365.675 386.104 C 388.808 347.977,376.935 299.960,339.005 278.247 C 324.122 269.727,313.481 269.410,305.929 277.263 C 297.119 286.424,294.037 293.565,292.178 309.122 C 289.867 328.464,293.432 335.411,310.726 345.271 C 315.424 347.949,315.011 348.220,316.741 341.326 L 317.849 336.914 318.347 339.818 C 321.211 356.516,304.385 379.201,283.222 387.173 C 282.674 387.379,285.958 383.923,290.518 379.492 C 295.078 375.061,299.163 370.940,299.595 370.333 L 300.381 369.230 295.667 367.613 C 275.777 360.794,246.222 346.753,212.750 328.221 C 206.923 324.994,206.652 324.628,210.797 325.576 C 219.073 327.468,232.562 332.847,246.185 339.687 C 249.779 341.492,252.810 342.969,252.920 342.969 C 253.030 342.969,250.154 337.036,246.529 329.785 C 229.146 295.013,219.922 269.519,219.922 256.247 C 219.922 254.912,219.712 254.760,215.625 253.138 C 208.490 250.305,201.901 246.545,195.771 241.808 C 190.317 237.592,190.349 237.591,200.195 241.586 C 231.038 254.101,252.724 258.747,275.076 257.630 L 280.784 257.344 279.452 254.540 C 274.357 243.811,277.626 228.136,287.988 213.604 C 290.717 209.777,290.812 209.747,291.178 212.589 C 291.907 218.250,297.224 225.605,302.344 228.036 C 313.216 233.198,323.504 228.700,330.056 215.920 C 333.552 209.103,332.287 207.041,322.526 203.649 C 316.261 201.471,311.182 197.558,308.351 192.728 C 306.190 189.040,307.744 171.186,311.123 160.896 C 311.644 159.307,311.927 157.957,311.751 157.895 C 307.661 156.449,306.171 154.210,305.928 149.146 C 305.659 143.515,306.311 142.238,307.225 146.607 C 308.830 154.279,311.057 154.913,321.233 150.594 L 322.739 149.955 320.256 147.753 C 311.580 140.060,294.098 121.520,290.084 115.755 C 290.059 115.719,290.038 120.377,290.037 126.107 C 290.035 134.415,289.895 137.274,289.343 140.234 C 287.631 149.409,287.871 149.118,285.904 144.399 L 284.628 141.337 284.051 142.446 C 282.438 145.547,279.808 147.656,277.555 147.656 C 276.373 147.656,276.388 147.351,277.341 151.953 C 280.031 164.952,276.998 181.667,270.459 189.888 C 266.871 194.397,263.735 197.871,262.175 199.061 L 260.398 200.419 257.458 197.573 C 255.749 195.918,256.244 196.528,258.641 199.029 C 264.108 204.734,264.714 205.926,260.492 202.669 C 247.838 192.908,233.649 185.321,208.226 174.724 C 199.482 171.078,199.434 171.052,202.004 171.293 L 204.594 171.537 203.441 168.288 C 199.855 158.181,198.719 146.486,200.411 137.090 C 201.338 131.945,201.754 132.718,196.532 129.887 C 181.227 121.590,179.214 116.158,194.289 123.832 C 197.270 125.350,199.761 126.541,199.822 126.480 C 201.149 125.150,204.265 117.434,203.650 117.003 C 198.758 113.576,190.638 106.410,189.429 104.453 C 186.623 99.912,191.584 102.227,202.284 110.451 L 207.107 114.158 209.315 112.025 C 210.530 110.851,212.006 109.530,212.597 109.089 L 213.670 108.287 207.790 104.072 C 200.058 98.531,198.335 96.466,200.172 94.941 C 201.312 93.995,204.198 95.756,222.461 108.539 C 244.808 124.181,263.828 136.615,271.059 140.309 C 276.073 142.871,278.639 142.802,282.306 140.005 L 283.600 139.018 281.074 134.060 C 263.811 100.170,237.375 73.451,211.719 63.961 C 205.726 61.744,206.250 61.727,206.250 64.134 C 206.249 67.285,205.477 74.757,205.115 75.120 C 204.939 75.296,204.673 74.526,204.525 73.408 C 201.028 47.046,192.121 24.109,182.048 15.527 C 179.776 13.592,179.616 13.625,175.943 16.752 M168.226 53.583 C 164.171 71.811,162.657 93.040,164.261 109.180 L 164.455 111.133 163.865 109.858 C 157.447 95.997,158.743 70.258,166.707 53.417 C 169.330 47.869,169.493 47.887,168.226 53.583 M347.266 56.748 C 347.266 56.807,348.628 58.169,350.293 59.775 L 353.320 62.695 350.400 59.668 C 347.688 56.856,347.266 56.462,347.266 56.748 M72.570 105.158 C 70.447 106.388,69.771 108.088,70.095 111.377 C 71.148 122.064,78.980 142.461,93.011 171.059 C 96.427 178.023,99.169 183.774,99.103 183.839 C 99.038 183.905,95.130 179.526,90.420 174.108 C 63.489 143.134,44.828 128.154,29.032 124.831 C 14.571 121.789,8.332 125.954,11.695 136.403 C 17.775 155.301,40.612 182.964,85.059 225.273 C 97.917 237.512,100.457 240.015,99.316 239.321 C 68.827 220.761,59.075 216.103,45.898 213.808 C 31.316 211.268,21.218 219.135,26.018 229.297 C 30.543 238.879,37.929 244.537,80.078 270.707 C 92.646 278.510,104.336 285.773,106.055 286.846 C 107.773 287.919,108.916 288.463,108.594 288.055 C 108.271 287.646,107.126 286.256,106.048 284.965 C 92.636 268.895,91.183 247.153,103.220 242.649 C 111.287 239.631,117.174 241.587,127.539 250.731 C 129.473 252.437,131.094 253.795,131.142 253.750 C 131.189 253.705,130.637 251.304,129.914 248.416 C 124.917 228.450,124.566 213.645,128.872 204.444 C 132.903 195.827,140.573 194.837,148.177 201.951 C 149.610 203.290,150.781 204.224,150.781 204.025 C 150.781 203.514,147.137 191.716,145.254 186.133 C 139.967 170.453,133.175 155.095,127.074 145.022 C 112.836 121.517,82.555 99.369,72.570 105.158 M337.200 165.234 C 337.200 165.986,337.280 166.294,337.379 165.918 C 337.477 165.542,337.477 164.927,337.379 164.551 C 337.280 164.175,337.200 164.482,337.200 165.234 M243.687 200.803 C 250.295 202.347,255.908 205.078,252.474 205.078 C 247.502 205.078,234.766 201.244,234.766 199.748 C 234.766 199.348,240.224 199.994,243.687 200.803 M307.031 209.895 C 307.031 212.077,311.067 214.314,313.856 213.678 C 315.996 213.190,315.988 213.398,313.805 215.000 C 310.870 217.153,308.657 217.361,307.350 215.608 C 306.480 214.442,305.790 208.654,306.579 209.141 C 306.828 209.295,307.031 209.634,307.031 209.895 M295.863 236.436 C 293.273 239.067,292.347 240.357,290.885 243.369 C 288.407 248.478,286.268 257.421,288.412 253.711 C 295.245 241.889,300.000 233.553,300.000 233.397 C 300.000 232.629,298.593 233.662,295.863 236.436 M275.586 263.399 C 272.148 263.605,269.302 263.800,269.261 263.831 C 269.219 263.862,270.197 267.030,271.433 270.871 L 273.680 277.855 277.793 271.252 C 282.865 263.110,282.996 262.870,282.338 262.957 C 282.062 262.993,279.023 263.192,275.586 263.399 M101.563 294.543 C 82.458 296.456,80.521 311.827,98.071 322.253 C 104.686 326.183,124.801 333.201,123.997 331.299 C 121.584 325.592,121.388 322.120,123.287 318.760 C 125.267 315.258,129.004 313.209,134.473 312.627 C 137.286 312.328,137.293 312.352,133.672 309.769 C 129.660 306.908,123.698 302.169,119.101 298.189 L 115.350 294.941 110.116 294.542 C 107.238 294.322,104.795 294.167,104.688 294.196 C 104.580 294.226,103.174 294.382,101.563 294.543 M279.357 295.775 C 277.715 296.142,277.667 296.196,277.890 297.394 C 278.595 301.184,279.312 307.621,279.677 313.451 C 279.905 317.089,280.133 320.100,280.183 320.143 C 280.432 320.355,285.577 323.438,285.682 323.438 C 285.748 323.438,285.819 320.933,285.840 317.871 C 285.878 312.041,286.694 304.360,287.849 298.960 L 288.531 295.773 287.381 295.543 C 285.711 295.209,281.325 295.336,279.357 295.775 M263.028 306.644 C 263.167 307.341,263.281 308.819,263.281 309.930 L 263.281 311.951 267.798 313.957 L 272.315 315.964 269.278 312.572 C 267.608 310.706,265.462 308.324,264.508 307.279 L 262.775 305.379 263.028 306.644 M244.141 311.691 C 244.141 311.874,248.094 319.930,252.925 329.592 L 261.709 347.160 267.085 349.611 C 281.579 356.221,301.698 364.063,304.161 364.063 C 304.806 364.063,309.077 358.361,310.842 355.143 L 312.113 352.824 308.498 350.774 C 298.645 345.187,292.260 339.858,289.453 334.880 C 286.424 329.508,267.999 319.581,248.730 312.940 C 246.206 312.070,244.141 311.508,244.141 311.691 M272.828 431.127 C 272.683 431.947,272.259 434.142,271.886 436.005 L 271.207 439.392 274.178 440.759 C 275.812 441.510,280.137 443.519,283.789 445.223 C 287.441 446.927,292.402 449.076,294.813 449.997 C 300.126 452.029,300.116 452.526,294.768 452.238 C 287.160 451.829,278.893 448.192,272.943 442.636 C 271.919 441.680,271.026 440.968,270.959 441.054 C 270.891 441.140,270.344 443.145,269.744 445.508 C 268.194 451.606,265.465 459.651,263.284 464.551 L 261.415 468.750 266.743 468.748 C 294.099 468.737,311.423 457.565,308.788 441.633 C 307.996 436.845,308.117 436.980,305.040 437.479 C 296.715 438.830,288.639 437.250,278.516 432.289 C 275.830 430.973,273.511 429.838,273.362 429.767 C 273.213 429.696,272.973 430.308,272.828 431.127 M160.454 444.417 C 160.940 444.510,161.643 444.507,162.016 444.409 C 162.390 444.311,161.992 444.235,161.133 444.239 C 160.273 444.243,159.968 444.323,160.454 444.417 M168.466 452.734 C 168.466 453.701,168.542 454.097,168.635 453.613 C 168.728 453.130,168.728 452.339,168.635 451.855 C 168.542 451.372,168.466 451.768,168.466 452.734 M148.076 457.192 C 147.723 457.616,147.735 457.810,148.126 458.036 C 148.405 458.197,148.504 458.186,148.346 458.011 C 148.188 457.837,148.364 457.463,148.737 457.180 C 149.109 456.897,149.216 456.660,148.974 456.653 C 148.731 456.646,148.327 456.889,148.076 457.192 M160.449 459.260 C 160.933 459.353,161.724 459.353,162.207 459.260 C 162.690 459.167,162.295 459.091,161.328 459.091 C 160.361 459.091,159.966 459.167,160.449 459.260 " stroke="none" fill="#9bdbf5" fill-rule="evenodd"></path><path id="path27" d="M236.565 173.479 C 235.737 176.101,235.560 175.890,241.017 178.819 L 246.092 181.544 246.878 178.999 C 247.311 177.599,247.773 175.775,247.906 174.946 L 248.147 173.438 245.421 173.438 C 243.922 173.438,241.355 173.324,239.717 173.186 C 237.348 172.985,236.702 173.045,236.565 173.479 " stroke="none" fill="#fcb6df" fill-rule="evenodd"></path><path id="path28" d="" stroke="none" fill="#00ffff" fill-rule="evenodd"></path><path id="path29" d="M283.703 21.772 C 284.730 21.853,286.312 21.852,287.219 21.770 C 288.125 21.688,287.285 21.622,285.352 21.623 C 283.418 21.624,282.676 21.691,283.703 21.772 M275.000 30.664 C 275.537 30.971,276.152 31.222,276.367 31.222 C 276.582 31.222,276.318 30.971,275.781 30.664 C 275.244 30.357,274.629 30.106,274.414 30.106 C 274.199 30.106,274.463 30.357,275.000 30.664 M281.673 33.744 C 282.070 34.112,290.625 38.267,290.625 38.092 C 290.625 37.876,282.203 33.594,281.777 33.594 C 281.631 33.594,281.584 33.662,281.673 33.744 M319.922 38.984 C 319.922 39.156,320.581 39.231,321.387 39.151 C 323.654 38.926,323.820 38.737,321.777 38.703 C 320.757 38.686,319.922 38.812,319.922 38.984 M295.703 40.800 C 295.703 40.908,296.230 41.268,296.875 41.602 C 297.520 41.935,298.047 42.120,298.047 42.012 C 298.047 41.905,297.520 41.544,296.875 41.211 C 296.230 40.878,295.703 40.693,295.703 40.800 M300.000 43.144 C 300.000 43.251,300.527 43.612,301.172 43.945 C 301.816 44.279,302.344 44.463,302.344 44.356 C 302.344 44.249,301.816 43.888,301.172 43.555 C 300.527 43.221,300.000 43.037,300.000 43.144 M346.859 56.738 C 347.816 57.759,348.651 58.594,348.714 58.594 C 349.007 58.594,348.697 58.243,346.973 56.624 L 345.117 54.883 346.859 56.738 M352.344 62.305 C 353.511 63.486,354.553 64.453,354.661 64.453 C 354.768 64.453,353.901 63.486,352.734 62.305 C 351.567 61.123,350.525 60.156,350.417 60.156 C 350.310 60.156,351.177 61.123,352.344 62.305 M348.828 74.341 C 348.828 74.438,349.473 75.009,350.262 75.610 C 351.051 76.212,351.573 76.505,351.422 76.261 C 351.113 75.761,348.828 74.070,348.828 74.341 M370.313 91.528 C 370.313 91.596,370.884 92.167,371.582 92.798 L 372.852 93.945 371.704 92.676 C 370.635 91.492,370.313 91.227,370.313 91.528 M374.188 95.030 C 374.708 95.613,375.235 95.979,375.360 95.843 C 375.484 95.707,375.365 95.517,375.095 95.421 C 374.825 95.325,374.722 95.041,374.865 94.791 C 375.008 94.541,374.981 94.466,374.806 94.626 C 374.630 94.785,374.206 94.702,373.864 94.442 C 373.522 94.182,373.668 94.446,374.188 95.030 M162.851 460.414 C 162.296 460.563,162.317 460.768,163.038 462.225 C 164.967 466.120,164.031 471.198,161.283 471.747 C 159.931 472.018,159.908 472.404,160.951 477.246 L 161.393 479.297 164.644 479.297 L 167.894 479.297 167.695 477.637 C 167.019 471.999,164.331 460.108,163.754 460.202 C 163.602 460.226,163.195 460.322,162.851 460.414 " stroke="none" fill="#fde85f" fill-rule="evenodd"></path></g></svg>