<?xml version="1.0" encoding="utf-8"?>
<svg version="1.1" id="Ebene_1" xmlns="http://www.w3.org/2000/svg" xmlns:xlink="http://www.w3.org/1999/xlink" x="0px" y="0px"
	 viewBox="0 0 48 48" style="enable-background:new 0 0 48 48;" xml:space="preserve">
<path fill="#a5a5a5" d="M16.811,32.471l7.19-6.752l7.188,6.752c0.415,0.415,1.086,0.415,1.5,0c0.415-0.415,0.415-1.086,0-1.501l-7.188-6.752
	l7.188-7.19c0.415-0.415,0.415-1.086,0-1.5c-0.415-0.415-1.086-0.415-1.5,0l-7.188,7.19l-7.19-7.19c-0.415-0.415-1.086-0.415-1.5,0
	s-0.415,1.086,0,1.5l7.19,7.19l-7.19,6.752c-0.415,0.415-0.415,1.086,0,1.5S16.397,32.886,16.811,32.471z"/>
</svg>
