<?xml version="1.0" encoding="utf-8"?>
<!-- Generator: Adobe Illustrator 20.0.0, SVG Export Plug-In . SVG Version: 6.00 Build 0)  -->
<svg version="1.1" id="Ebene_1" xmlns="http://www.w3.org/2000/svg" xmlns:xlink="http://www.w3.org/1999/xlink" x="0px" y="0px"
	 viewBox="0 0 46 30" style="enable-background:new 0 0 46 30;" xml:space="preserve">
<g>
	<path d="M44.203,0.019H1.797C0.809,0.019,0,0.827,0,1.815v1.461c0,0.988,0.809,1.797,1.797,1.797h42.406
		C45.191,5.074,46,4.265,46,3.277V1.815C46,0.827,45.191,0.019,44.203,0.019z"/>
	<path d="M44.203,12.557H1.797C0.809,12.557,0,13.365,0,14.354v1.461c0,0.988,0.809,1.797,1.797,1.797h42.406
		c0.988,0,1.797-0.809,1.797-1.797v-1.461C46,13.365,45.191,12.557,44.203,12.557z"/>
	<path d="M44.203,24.926H1.797C0.809,24.926,0,25.735,0,26.723v1.461c0,0.988,0.809,1.797,1.797,1.797h42.406
		c0.988,0,1.797-0.809,1.797-1.797v-1.461C46,25.735,45.191,24.926,44.203,24.926z"/>
</g>
</svg>
