<?xml version="1.0" encoding="utf-8"?>
<svg version="1.1" id="Ebene_1" xmlns="http://www.w3.org/2000/svg" xmlns:xlink="http://www.w3.org/1999/xlink" x="0px" y="0px"
	 viewBox="0 0 11 13" style="enable-background:new 0 0 11 13;" xml:space="preserve">
<path fill="#6bbed1" d="M10.826,7.855c-0.272-0.337-0.766-0.392-1.104-0.119L6,10.735c0.069-0.109,0.119-0.23,0.119-0.368V0.772
	c0-0.388-0.314-0.702-0.702-0.702S4.715,0.384,4.715,0.772v9.595c0,0.059,0.02,0.111,0.033,0.165l-3.47-2.795
	C0.94,7.465,0.446,7.519,0.174,7.856c-0.272,0.338-0.219,0.832,0.119,1.105l4.714,3.798c0.035,0.028,0.075,0.041,0.112,0.062
	c0.027,0.015,0.052,0.033,0.08,0.045c0.097,0.04,0.197,0.067,0.299,0.067h0.001H5.5c0.102,0,0.202-0.026,0.299-0.067
	c0.029-0.012,0.053-0.029,0.08-0.045c0.037-0.021,0.078-0.035,0.112-0.062l4.714-3.798C11.045,8.687,11.098,8.193,10.826,7.855z
	 M5.417,11.068c0.08,0,0.154-0.021,0.225-0.045L5.5,11.137l-0.086-0.069C5.415,11.068,5.416,11.068,5.417,11.068z"/>
</svg>
