<?xml version="1.0" encoding="utf-8"?>
<!-- Generator: Adobe Illustrator 20.0.0, SVG Export Plug-In . SVG Version: 6.00 Build 0)  -->
<svg version="1.1" id="Ebene_1" xmlns="http://www.w3.org/2000/svg" xmlns:xlink="http://www.w3.org/1999/xlink" x="0px" y="0px"
	 viewBox="0 0 48 48" style="enable-background:new 0 0 48 48;" xml:space="preserve">
<path fill="#2090af" d="M40.254,2.5H7.746C4.861,2.5,2.5,4.861,2.5,7.746v32.508c0,2.885,2.361,5.246,5.246,5.246h32.508
	c2.885,0,5.246-2.361,5.246-5.246V7.746C45.5,4.861,43.139,2.5,40.254,2.5z M35.871,30.219c-0.382,0.378-1.001,0.378-1.384,0
	L24,20.125L13.513,30.22c-0.382,0.378-1.001,0.378-1.384-0.001s-0.382-0.991,0-1.369l11.179-11.069c0.382-0.378,1.001-0.378,1.384,0
	L35.871,28.85C36.253,29.228,36.252,29.841,35.871,30.219z"/>
</svg>
