<?xml version="1.0"?>

<svg xmlns="http://www.w3.org/2000/svg" viewBox="0 0 64 64" fill="white" stroke="white" stroke-linecap="round" stroke-linejoin="round" stroke-width="2">
    <path d="M 13 6 C 9.141 6 6 9.14 6 13 L 6 51 C 6 54.86 9.141 58 13 58 L 51 58 C 54.859 58 58 54.86 58 51 L 58 13 C 58 9.14 54.859 6 51 6 L 13 6 z M 13 8 L 51 8 C 53.757 8 56 10.243 56 13 L 56 51 C 56 53.757 53.757 56 51 56 L 13 56 C 10.243 56 8 53.757 8 51 L 8 13 C 8 10.243 10.243 8 13 8 z M 12 12 C 11.447 12 11 12.448 11 13 L 11 15 C 11 15.552 11.447 16 12 16 C 12.553 16 13 15.552 13 15 L 13 13 C 13 12.448 12.553 12 12 12 z M 17 12 C 16.447 12 16 12.448 16 13 L 16 15 C 16 15.552 16.447 16 17 16 C 17.553 16 18 15.552 18 15 L 18 13 C 18 12.448 17.553 12 17 12 z M 22 12 C 21.447 12 21 12.448 21 13 L 21 15 C 21 15.552 21.447 16 22 16 C 22.553 16 23 15.552 23 15 L 23 13 C 23 12.448 22.553 12 22 12 z M 27 12 C 26.447 12 26 12.448 26 13 L 26 15 C 26 15.552 26.447 16 27 16 C 27.553 16 28 15.552 28 15 L 28 13 C 28 12.448 27.553 12 27 12 z M 32 12 C 31.447 12 31 12.448 31 13 L 31 15 C 31 15.552 31.447 16 32 16 C 32.553 16 33 15.552 33 15 L 33 13 C 33 12.448 32.553 12 32 12 z M 37 12 C 36.447 12 36 12.448 36 13 L 36 15 C 36 15.552 36.447 16 37 16 C 37.553 16 38 15.552 38 15 L 38 13 C 38 12.448 37.553 12 37 12 z M 42 12 C 41.447 12 41 12.448 41 13 L 41 15 C 41 15.552 41.447 16 42 16 C 42.553 16 43 15.552 43 15 L 43 13 C 43 12.448 42.553 12 42 12 z M 47 12 C 46.447 12 46 12.448 46 13 L 46 15 C 46 15.552 46.447 16 47 16 C 47.553 16 48 15.552 48 15 L 48 13 C 48 12.448 47.553 12 47 12 z M 52 12 C 51.447 12 51 12.448 51 13 L 51 15 C 51 15.552 51.447 16 52 16 C 52.553 16 53 15.552 53 15 L 53 13 C 53 12.448 52.553 12 52 12 z M 28 24 C 26.346 24 25 25.346 25 27 L 25 31 C 25 31.68 25.236141 32.300688 25.619141 32.804688 C 24.642141 33.534687 24 34.689 24 36 L 24 42 C 24 44.206 25.794 46 28 46 L 32 46 C 34.206 46 36 44.206 36 42 L 36 36 C 36 34.689 35.357859 33.534687 34.380859 32.804688 C 34.763859 32.300688 35 31.68 35 31 L 35 27 C 35 25.346 33.654 24 32 24 L 28 24 z M 44 24 C 41.794 24 40 25.794 40 28 L 40 42 C 40 44.206 41.794 46 44 46 L 48 46 C 50.206 46 52 44.206 52 42 L 52 36 C 52 33.794 50.206 32 48 32 L 42 32 L 42 28 C 42 26.897 42.897 26 44 26 L 47 26 C 48.103 26 49 26.897 49 28 C 49 28.552 49.447 29 50 29 C 50.553 29 51 28.552 51 28 C 51 25.794 49.206 24 47 24 L 44 24 z M 28 26 L 32 26 C 32.552 26 33 26.449 33 27 L 33 31 C 33 31.551 32.552 32 32 32 L 28 32 C 27.448 32 27 31.551 27 31 L 27 27 C 27 26.449 27.448 26 28 26 z M 28 34 L 32 34 C 33.103 34 34 34.897 34 36 L 34 42 C 34 43.103 33.103 44 32 44 L 28 44 C 26.897 44 26 43.103 26 42 L 26 36 C 26 34.897 26.897 34 28 34 z M 42 34 L 48 34 C 49.103 34 50 34.897 50 36 L 50 42 C 50 43.103 49.103 44 48 44 L 44 44 C 42.897 44 42 43.103 42 42 L 42 34 z M 13.859375 34.009766 C 13.730594 34.027875 13.603125 34.071578 13.484375 34.142578 C 13.010375 34.426578 12.858578 35.039672 13.142578 35.513672 L 15.833984 40 L 13.142578 44.484375 C 12.858578 44.958375 13.012328 45.573422 13.486328 45.857422 C 13.646328 45.954422 13.823047 46 13.998047 46 C 14.338047 46 14.670422 45.827625 14.857422 45.515625 L 17 41.943359 L 19.142578 45.515625 C 19.329578 45.827625 19.661953 46 20.001953 46 C 20.176953 46 20.354625 45.954422 20.515625 45.857422 C 20.989625 45.573422 21.141422 44.958375 20.857422 44.484375 L 18.166016 40 L 20.857422 35.515625 C 21.142422 35.041625 20.988625 34.426578 20.515625 34.142578 C 20.041625 33.858578 19.426578 34.013328 19.142578 34.486328 L 17 38.056641 L 14.857422 34.484375 C 14.645172 34.129625 14.245719 33.955438 13.859375 34.009766 z"/>
</svg>
